M48
; DRILL file {KiCad 7.0.1-0} date 2023 April 14, Friday 16:50:07
; FORMAT={-:-/ absolute / inch / decimal}
; #@! TF.CreationDate,2023-04-14T16:50:07-04:00
; #@! TF.GenerationSoftware,Kicad,Pcbnew,7.0.1-0
; #@! TF.FileFunction,Plated,1,2,PTH
FMAT,2
INCH
; #@! TA.AperFunction,Plated,PTH,ViaDrill
T1C0.0157
; #@! TA.AperFunction,Plated,PTH,ComponentDrill
T2C0.0300
; #@! TA.AperFunction,Plated,PTH,ComponentDrill
T3C0.0402
%
G90
G05
T1
X3.6402Y-3.2296
X3.8926Y-4.2792
X4.06Y-3.17
X4.2292Y-4.1749
X4.2982Y-4.7055
X4.49Y-4.31
X4.5544Y-4.1728
X4.6667Y-4.2759
X4.8821Y-3.7996
X4.9228Y-4.3159
X5.3Y-4.32
X6.2109Y-3.529
X6.2522Y-3.9791
X7.0251Y-3.731
X7.1683Y-3.5227
X7.2126Y-3.2145
X7.3226Y-3.3595
X7.3227Y-4.2587
X7.3603Y-4.324
X7.3683Y-3.1392
X7.382Y-4.552
X7.387Y-3.1857
X7.4272Y-4.596
X7.4413Y-4.7854
X7.49Y-4.31
X7.5176Y-4.601
X7.5429Y-3.1885
X7.5459Y-4.632
X7.6093Y-3.1855
X7.6527Y-3.2162
X7.6528Y-3.3421
X7.6537Y-3.4661
X7.67Y-2.89
X7.736Y-2.9194
X7.7766Y-3.6908
X7.8046Y-3.7825
X7.85Y-3.7975
X7.8596Y-3.5659
X7.9103Y-2.9832
X7.92Y-2.55
X7.9559Y-3.7251
X7.9577Y-3.5659
X7.9794Y-4.7613
X7.9848Y-3.8007
X7.9876Y-4.0389
X8.0274Y-4.0076
X8.15Y-2.61
X8.4061Y-3.4371
X8.8836Y-2.9289
T2
X3.92Y-2.97
X3.92Y-3.07
X4.02Y-2.97
X4.02Y-3.07
X4.12Y-2.97
X4.12Y-3.07
X9.05Y-3.95
X9.05Y-4.05
X9.05Y-4.15
X9.15Y-3.95
X9.15Y-4.05
X9.15Y-4.15
T3
X5.39Y-2.43
X5.89Y-2.43
T0
M30
