%TF.GenerationSoftware,KiCad,Pcbnew,7.0.1-0*%
%TF.CreationDate,2023-04-14T16:50:05-04:00*%
%TF.ProjectId,WrightSpace,57726967-6874-4537-9061-63652e6b6963,v01*%
%TF.SameCoordinates,Original*%
%TF.FileFunction,Drillmap*%
%TF.FilePolarity,Positive*%
%FSLAX45Y45*%
G04 Gerber Fmt 4.5, Leading zero omitted, Abs format (unit mm)*
G04 Created by KiCad (PCBNEW 7.0.1-0) date 2023-04-14 16:50:05*
%MOMM*%
%LPD*%
G01*
G04 APERTURE LIST*
%ADD10C,0.200000*%
%ADD11C,0.240000*%
G04 APERTURE END LIST*
D10*
D11*
X9405000Y-8287400D02*
X9645000Y-8527400D01*
X9645000Y-8287400D02*
X9405000Y-8527400D01*
X10852800Y-11081400D02*
X11092800Y-11321400D01*
X11092800Y-11081400D02*
X10852800Y-11321400D01*
X13088000Y-13037200D02*
X13328000Y-13277200D01*
X13328000Y-13037200D02*
X13088000Y-13277200D01*
X19996800Y-9684400D02*
X20236800Y-9924400D01*
X20236800Y-9684400D02*
X19996800Y-9924400D01*
X20784200Y-12783200D02*
X21024200Y-13023200D01*
X21024200Y-12783200D02*
X20784200Y-13023200D01*
X22816200Y-7296800D02*
X23056200Y-7536800D01*
X23056200Y-7296800D02*
X22816200Y-7536800D01*
D10*
X9221095Y-14029875D02*
X9221095Y-13829875D01*
X9221095Y-13829875D02*
X9268714Y-13829875D01*
X9268714Y-13829875D02*
X9297285Y-13839399D01*
X9297285Y-13839399D02*
X9316333Y-13858446D01*
X9316333Y-13858446D02*
X9325857Y-13877494D01*
X9325857Y-13877494D02*
X9335381Y-13915589D01*
X9335381Y-13915589D02*
X9335381Y-13944161D01*
X9335381Y-13944161D02*
X9325857Y-13982256D01*
X9325857Y-13982256D02*
X9316333Y-14001304D01*
X9316333Y-14001304D02*
X9297285Y-14020351D01*
X9297285Y-14020351D02*
X9268714Y-14029875D01*
X9268714Y-14029875D02*
X9221095Y-14029875D01*
X9421095Y-14029875D02*
X9421095Y-13896542D01*
X9421095Y-13934637D02*
X9430619Y-13915589D01*
X9430619Y-13915589D02*
X9440142Y-13906065D01*
X9440142Y-13906065D02*
X9459190Y-13896542D01*
X9459190Y-13896542D02*
X9478238Y-13896542D01*
X9544904Y-14029875D02*
X9544904Y-13896542D01*
X9544904Y-13829875D02*
X9535381Y-13839399D01*
X9535381Y-13839399D02*
X9544904Y-13848923D01*
X9544904Y-13848923D02*
X9554428Y-13839399D01*
X9554428Y-13839399D02*
X9544904Y-13829875D01*
X9544904Y-13829875D02*
X9544904Y-13848923D01*
X9668714Y-14029875D02*
X9649666Y-14020351D01*
X9649666Y-14020351D02*
X9640142Y-14001304D01*
X9640142Y-14001304D02*
X9640142Y-13829875D01*
X9773476Y-14029875D02*
X9754428Y-14020351D01*
X9754428Y-14020351D02*
X9744904Y-14001304D01*
X9744904Y-14001304D02*
X9744904Y-13829875D01*
X10002047Y-14029875D02*
X10002047Y-13829875D01*
X10002047Y-13829875D02*
X10068714Y-13972732D01*
X10068714Y-13972732D02*
X10135381Y-13829875D01*
X10135381Y-13829875D02*
X10135381Y-14029875D01*
X10316333Y-14029875D02*
X10316333Y-13925113D01*
X10316333Y-13925113D02*
X10306809Y-13906065D01*
X10306809Y-13906065D02*
X10287762Y-13896542D01*
X10287762Y-13896542D02*
X10249666Y-13896542D01*
X10249666Y-13896542D02*
X10230619Y-13906065D01*
X10316333Y-14020351D02*
X10297285Y-14029875D01*
X10297285Y-14029875D02*
X10249666Y-14029875D01*
X10249666Y-14029875D02*
X10230619Y-14020351D01*
X10230619Y-14020351D02*
X10221095Y-14001304D01*
X10221095Y-14001304D02*
X10221095Y-13982256D01*
X10221095Y-13982256D02*
X10230619Y-13963208D01*
X10230619Y-13963208D02*
X10249666Y-13953685D01*
X10249666Y-13953685D02*
X10297285Y-13953685D01*
X10297285Y-13953685D02*
X10316333Y-13944161D01*
X10411571Y-13896542D02*
X10411571Y-14096542D01*
X10411571Y-13906065D02*
X10430619Y-13896542D01*
X10430619Y-13896542D02*
X10468714Y-13896542D01*
X10468714Y-13896542D02*
X10487762Y-13906065D01*
X10487762Y-13906065D02*
X10497285Y-13915589D01*
X10497285Y-13915589D02*
X10506809Y-13934637D01*
X10506809Y-13934637D02*
X10506809Y-13991780D01*
X10506809Y-13991780D02*
X10497285Y-14010827D01*
X10497285Y-14010827D02*
X10487762Y-14020351D01*
X10487762Y-14020351D02*
X10468714Y-14029875D01*
X10468714Y-14029875D02*
X10430619Y-14029875D01*
X10430619Y-14029875D02*
X10411571Y-14020351D01*
X10592523Y-14010827D02*
X10602047Y-14020351D01*
X10602047Y-14020351D02*
X10592523Y-14029875D01*
X10592523Y-14029875D02*
X10583000Y-14020351D01*
X10583000Y-14020351D02*
X10592523Y-14010827D01*
X10592523Y-14010827D02*
X10592523Y-14029875D01*
X10592523Y-13906065D02*
X10602047Y-13915589D01*
X10602047Y-13915589D02*
X10592523Y-13925113D01*
X10592523Y-13925113D02*
X10583000Y-13915589D01*
X10583000Y-13915589D02*
X10592523Y-13906065D01*
X10592523Y-13906065D02*
X10592523Y-13925113D01*
X8773476Y-14257351D02*
X8973476Y-14457351D01*
X8973476Y-14257351D02*
X8773476Y-14457351D01*
X9211571Y-14268923D02*
X9221095Y-14259399D01*
X9221095Y-14259399D02*
X9240142Y-14249875D01*
X9240142Y-14249875D02*
X9287762Y-14249875D01*
X9287762Y-14249875D02*
X9306809Y-14259399D01*
X9306809Y-14259399D02*
X9316333Y-14268923D01*
X9316333Y-14268923D02*
X9325857Y-14287970D01*
X9325857Y-14287970D02*
X9325857Y-14307018D01*
X9325857Y-14307018D02*
X9316333Y-14335589D01*
X9316333Y-14335589D02*
X9202047Y-14449875D01*
X9202047Y-14449875D02*
X9325857Y-14449875D01*
X9411571Y-14430827D02*
X9421095Y-14440351D01*
X9421095Y-14440351D02*
X9411571Y-14449875D01*
X9411571Y-14449875D02*
X9402047Y-14440351D01*
X9402047Y-14440351D02*
X9411571Y-14430827D01*
X9411571Y-14430827D02*
X9411571Y-14449875D01*
X9592523Y-14316542D02*
X9592523Y-14449875D01*
X9544904Y-14240351D02*
X9497285Y-14383208D01*
X9497285Y-14383208D02*
X9621095Y-14383208D01*
X9735381Y-14249875D02*
X9754428Y-14249875D01*
X9754428Y-14249875D02*
X9773476Y-14259399D01*
X9773476Y-14259399D02*
X9783000Y-14268923D01*
X9783000Y-14268923D02*
X9792523Y-14287970D01*
X9792523Y-14287970D02*
X9802047Y-14326065D01*
X9802047Y-14326065D02*
X9802047Y-14373685D01*
X9802047Y-14373685D02*
X9792523Y-14411780D01*
X9792523Y-14411780D02*
X9783000Y-14430827D01*
X9783000Y-14430827D02*
X9773476Y-14440351D01*
X9773476Y-14440351D02*
X9754428Y-14449875D01*
X9754428Y-14449875D02*
X9735381Y-14449875D01*
X9735381Y-14449875D02*
X9716333Y-14440351D01*
X9716333Y-14440351D02*
X9706809Y-14430827D01*
X9706809Y-14430827D02*
X9697285Y-14411780D01*
X9697285Y-14411780D02*
X9687762Y-14373685D01*
X9687762Y-14373685D02*
X9687762Y-14326065D01*
X9687762Y-14326065D02*
X9697285Y-14287970D01*
X9697285Y-14287970D02*
X9706809Y-14268923D01*
X9706809Y-14268923D02*
X9716333Y-14259399D01*
X9716333Y-14259399D02*
X9735381Y-14249875D01*
X9925857Y-14249875D02*
X9944904Y-14249875D01*
X9944904Y-14249875D02*
X9963952Y-14259399D01*
X9963952Y-14259399D02*
X9973476Y-14268923D01*
X9973476Y-14268923D02*
X9983000Y-14287970D01*
X9983000Y-14287970D02*
X9992523Y-14326065D01*
X9992523Y-14326065D02*
X9992523Y-14373685D01*
X9992523Y-14373685D02*
X9983000Y-14411780D01*
X9983000Y-14411780D02*
X9973476Y-14430827D01*
X9973476Y-14430827D02*
X9963952Y-14440351D01*
X9963952Y-14440351D02*
X9944904Y-14449875D01*
X9944904Y-14449875D02*
X9925857Y-14449875D01*
X9925857Y-14449875D02*
X9906809Y-14440351D01*
X9906809Y-14440351D02*
X9897285Y-14430827D01*
X9897285Y-14430827D02*
X9887762Y-14411780D01*
X9887762Y-14411780D02*
X9878238Y-14373685D01*
X9878238Y-14373685D02*
X9878238Y-14326065D01*
X9878238Y-14326065D02*
X9887762Y-14287970D01*
X9887762Y-14287970D02*
X9897285Y-14268923D01*
X9897285Y-14268923D02*
X9906809Y-14259399D01*
X9906809Y-14259399D02*
X9925857Y-14249875D01*
X10078238Y-14449875D02*
X10078238Y-14316542D01*
X10078238Y-14335589D02*
X10087762Y-14326065D01*
X10087762Y-14326065D02*
X10106809Y-14316542D01*
X10106809Y-14316542D02*
X10135381Y-14316542D01*
X10135381Y-14316542D02*
X10154428Y-14326065D01*
X10154428Y-14326065D02*
X10163952Y-14345113D01*
X10163952Y-14345113D02*
X10163952Y-14449875D01*
X10163952Y-14345113D02*
X10173476Y-14326065D01*
X10173476Y-14326065D02*
X10192523Y-14316542D01*
X10192523Y-14316542D02*
X10221095Y-14316542D01*
X10221095Y-14316542D02*
X10240143Y-14326065D01*
X10240143Y-14326065D02*
X10249666Y-14345113D01*
X10249666Y-14345113D02*
X10249666Y-14449875D01*
X10344904Y-14449875D02*
X10344904Y-14316542D01*
X10344904Y-14335589D02*
X10354428Y-14326065D01*
X10354428Y-14326065D02*
X10373476Y-14316542D01*
X10373476Y-14316542D02*
X10402047Y-14316542D01*
X10402047Y-14316542D02*
X10421095Y-14326065D01*
X10421095Y-14326065D02*
X10430619Y-14345113D01*
X10430619Y-14345113D02*
X10430619Y-14449875D01*
X10430619Y-14345113D02*
X10440143Y-14326065D01*
X10440143Y-14326065D02*
X10459190Y-14316542D01*
X10459190Y-14316542D02*
X10487762Y-14316542D01*
X10487762Y-14316542D02*
X10506809Y-14326065D01*
X10506809Y-14326065D02*
X10516333Y-14345113D01*
X10516333Y-14345113D02*
X10516333Y-14449875D01*
X10906809Y-14240351D02*
X10735381Y-14497494D01*
X11163952Y-14249875D02*
X11183000Y-14249875D01*
X11183000Y-14249875D02*
X11202047Y-14259399D01*
X11202047Y-14259399D02*
X11211571Y-14268923D01*
X11211571Y-14268923D02*
X11221095Y-14287970D01*
X11221095Y-14287970D02*
X11230619Y-14326065D01*
X11230619Y-14326065D02*
X11230619Y-14373685D01*
X11230619Y-14373685D02*
X11221095Y-14411780D01*
X11221095Y-14411780D02*
X11211571Y-14430827D01*
X11211571Y-14430827D02*
X11202047Y-14440351D01*
X11202047Y-14440351D02*
X11183000Y-14449875D01*
X11183000Y-14449875D02*
X11163952Y-14449875D01*
X11163952Y-14449875D02*
X11144905Y-14440351D01*
X11144905Y-14440351D02*
X11135381Y-14430827D01*
X11135381Y-14430827D02*
X11125857Y-14411780D01*
X11125857Y-14411780D02*
X11116333Y-14373685D01*
X11116333Y-14373685D02*
X11116333Y-14326065D01*
X11116333Y-14326065D02*
X11125857Y-14287970D01*
X11125857Y-14287970D02*
X11135381Y-14268923D01*
X11135381Y-14268923D02*
X11144905Y-14259399D01*
X11144905Y-14259399D02*
X11163952Y-14249875D01*
X11316333Y-14430827D02*
X11325857Y-14440351D01*
X11325857Y-14440351D02*
X11316333Y-14449875D01*
X11316333Y-14449875D02*
X11306809Y-14440351D01*
X11306809Y-14440351D02*
X11316333Y-14430827D01*
X11316333Y-14430827D02*
X11316333Y-14449875D01*
X11449666Y-14249875D02*
X11468714Y-14249875D01*
X11468714Y-14249875D02*
X11487762Y-14259399D01*
X11487762Y-14259399D02*
X11497285Y-14268923D01*
X11497285Y-14268923D02*
X11506809Y-14287970D01*
X11506809Y-14287970D02*
X11516333Y-14326065D01*
X11516333Y-14326065D02*
X11516333Y-14373685D01*
X11516333Y-14373685D02*
X11506809Y-14411780D01*
X11506809Y-14411780D02*
X11497285Y-14430827D01*
X11497285Y-14430827D02*
X11487762Y-14440351D01*
X11487762Y-14440351D02*
X11468714Y-14449875D01*
X11468714Y-14449875D02*
X11449666Y-14449875D01*
X11449666Y-14449875D02*
X11430619Y-14440351D01*
X11430619Y-14440351D02*
X11421095Y-14430827D01*
X11421095Y-14430827D02*
X11411571Y-14411780D01*
X11411571Y-14411780D02*
X11402047Y-14373685D01*
X11402047Y-14373685D02*
X11402047Y-14326065D01*
X11402047Y-14326065D02*
X11411571Y-14287970D01*
X11411571Y-14287970D02*
X11421095Y-14268923D01*
X11421095Y-14268923D02*
X11430619Y-14259399D01*
X11430619Y-14259399D02*
X11449666Y-14249875D01*
X11611571Y-14449875D02*
X11649666Y-14449875D01*
X11649666Y-14449875D02*
X11668714Y-14440351D01*
X11668714Y-14440351D02*
X11678238Y-14430827D01*
X11678238Y-14430827D02*
X11697285Y-14402256D01*
X11697285Y-14402256D02*
X11706809Y-14364161D01*
X11706809Y-14364161D02*
X11706809Y-14287970D01*
X11706809Y-14287970D02*
X11697285Y-14268923D01*
X11697285Y-14268923D02*
X11687762Y-14259399D01*
X11687762Y-14259399D02*
X11668714Y-14249875D01*
X11668714Y-14249875D02*
X11630619Y-14249875D01*
X11630619Y-14249875D02*
X11611571Y-14259399D01*
X11611571Y-14259399D02*
X11602047Y-14268923D01*
X11602047Y-14268923D02*
X11592524Y-14287970D01*
X11592524Y-14287970D02*
X11592524Y-14335589D01*
X11592524Y-14335589D02*
X11602047Y-14354637D01*
X11602047Y-14354637D02*
X11611571Y-14364161D01*
X11611571Y-14364161D02*
X11630619Y-14373685D01*
X11630619Y-14373685D02*
X11668714Y-14373685D01*
X11668714Y-14373685D02*
X11687762Y-14364161D01*
X11687762Y-14364161D02*
X11697285Y-14354637D01*
X11697285Y-14354637D02*
X11706809Y-14335589D01*
X11878238Y-14316542D02*
X11878238Y-14449875D01*
X11830619Y-14240351D02*
X11783000Y-14383208D01*
X11783000Y-14383208D02*
X11906809Y-14383208D01*
X12078238Y-14249875D02*
X11983000Y-14249875D01*
X11983000Y-14249875D02*
X11973476Y-14345113D01*
X11973476Y-14345113D02*
X11983000Y-14335589D01*
X11983000Y-14335589D02*
X12002047Y-14326065D01*
X12002047Y-14326065D02*
X12049666Y-14326065D01*
X12049666Y-14326065D02*
X12068714Y-14335589D01*
X12068714Y-14335589D02*
X12078238Y-14345113D01*
X12078238Y-14345113D02*
X12087762Y-14364161D01*
X12087762Y-14364161D02*
X12087762Y-14411780D01*
X12087762Y-14411780D02*
X12078238Y-14430827D01*
X12078238Y-14430827D02*
X12068714Y-14440351D01*
X12068714Y-14440351D02*
X12049666Y-14449875D01*
X12049666Y-14449875D02*
X12002047Y-14449875D01*
X12002047Y-14449875D02*
X11983000Y-14440351D01*
X11983000Y-14440351D02*
X11973476Y-14430827D01*
X12163952Y-14249875D02*
X12163952Y-14287970D01*
X12240143Y-14249875D02*
X12240143Y-14287970D01*
X12535381Y-14526065D02*
X12525857Y-14516542D01*
X12525857Y-14516542D02*
X12506809Y-14487970D01*
X12506809Y-14487970D02*
X12497286Y-14468923D01*
X12497286Y-14468923D02*
X12487762Y-14440351D01*
X12487762Y-14440351D02*
X12478238Y-14392732D01*
X12478238Y-14392732D02*
X12478238Y-14354637D01*
X12478238Y-14354637D02*
X12487762Y-14307018D01*
X12487762Y-14307018D02*
X12497286Y-14278446D01*
X12497286Y-14278446D02*
X12506809Y-14259399D01*
X12506809Y-14259399D02*
X12525857Y-14230827D01*
X12525857Y-14230827D02*
X12535381Y-14221304D01*
X12697286Y-14249875D02*
X12659190Y-14249875D01*
X12659190Y-14249875D02*
X12640143Y-14259399D01*
X12640143Y-14259399D02*
X12630619Y-14268923D01*
X12630619Y-14268923D02*
X12611571Y-14297494D01*
X12611571Y-14297494D02*
X12602047Y-14335589D01*
X12602047Y-14335589D02*
X12602047Y-14411780D01*
X12602047Y-14411780D02*
X12611571Y-14430827D01*
X12611571Y-14430827D02*
X12621095Y-14440351D01*
X12621095Y-14440351D02*
X12640143Y-14449875D01*
X12640143Y-14449875D02*
X12678238Y-14449875D01*
X12678238Y-14449875D02*
X12697286Y-14440351D01*
X12697286Y-14440351D02*
X12706809Y-14430827D01*
X12706809Y-14430827D02*
X12716333Y-14411780D01*
X12716333Y-14411780D02*
X12716333Y-14364161D01*
X12716333Y-14364161D02*
X12706809Y-14345113D01*
X12706809Y-14345113D02*
X12697286Y-14335589D01*
X12697286Y-14335589D02*
X12678238Y-14326065D01*
X12678238Y-14326065D02*
X12640143Y-14326065D01*
X12640143Y-14326065D02*
X12621095Y-14335589D01*
X12621095Y-14335589D02*
X12611571Y-14345113D01*
X12611571Y-14345113D02*
X12602047Y-14364161D01*
X12954428Y-14449875D02*
X12954428Y-14249875D01*
X13040143Y-14449875D02*
X13040143Y-14345113D01*
X13040143Y-14345113D02*
X13030619Y-14326065D01*
X13030619Y-14326065D02*
X13011571Y-14316542D01*
X13011571Y-14316542D02*
X12983000Y-14316542D01*
X12983000Y-14316542D02*
X12963952Y-14326065D01*
X12963952Y-14326065D02*
X12954428Y-14335589D01*
X13163952Y-14449875D02*
X13144905Y-14440351D01*
X13144905Y-14440351D02*
X13135381Y-14430827D01*
X13135381Y-14430827D02*
X13125857Y-14411780D01*
X13125857Y-14411780D02*
X13125857Y-14354637D01*
X13125857Y-14354637D02*
X13135381Y-14335589D01*
X13135381Y-14335589D02*
X13144905Y-14326065D01*
X13144905Y-14326065D02*
X13163952Y-14316542D01*
X13163952Y-14316542D02*
X13192524Y-14316542D01*
X13192524Y-14316542D02*
X13211571Y-14326065D01*
X13211571Y-14326065D02*
X13221095Y-14335589D01*
X13221095Y-14335589D02*
X13230619Y-14354637D01*
X13230619Y-14354637D02*
X13230619Y-14411780D01*
X13230619Y-14411780D02*
X13221095Y-14430827D01*
X13221095Y-14430827D02*
X13211571Y-14440351D01*
X13211571Y-14440351D02*
X13192524Y-14449875D01*
X13192524Y-14449875D02*
X13163952Y-14449875D01*
X13344905Y-14449875D02*
X13325857Y-14440351D01*
X13325857Y-14440351D02*
X13316333Y-14421304D01*
X13316333Y-14421304D02*
X13316333Y-14249875D01*
X13497286Y-14440351D02*
X13478238Y-14449875D01*
X13478238Y-14449875D02*
X13440143Y-14449875D01*
X13440143Y-14449875D02*
X13421095Y-14440351D01*
X13421095Y-14440351D02*
X13411571Y-14421304D01*
X13411571Y-14421304D02*
X13411571Y-14345113D01*
X13411571Y-14345113D02*
X13421095Y-14326065D01*
X13421095Y-14326065D02*
X13440143Y-14316542D01*
X13440143Y-14316542D02*
X13478238Y-14316542D01*
X13478238Y-14316542D02*
X13497286Y-14326065D01*
X13497286Y-14326065D02*
X13506809Y-14345113D01*
X13506809Y-14345113D02*
X13506809Y-14364161D01*
X13506809Y-14364161D02*
X13411571Y-14383208D01*
X13583000Y-14440351D02*
X13602048Y-14449875D01*
X13602048Y-14449875D02*
X13640143Y-14449875D01*
X13640143Y-14449875D02*
X13659190Y-14440351D01*
X13659190Y-14440351D02*
X13668714Y-14421304D01*
X13668714Y-14421304D02*
X13668714Y-14411780D01*
X13668714Y-14411780D02*
X13659190Y-14392732D01*
X13659190Y-14392732D02*
X13640143Y-14383208D01*
X13640143Y-14383208D02*
X13611571Y-14383208D01*
X13611571Y-14383208D02*
X13592524Y-14373685D01*
X13592524Y-14373685D02*
X13583000Y-14354637D01*
X13583000Y-14354637D02*
X13583000Y-14345113D01*
X13583000Y-14345113D02*
X13592524Y-14326065D01*
X13592524Y-14326065D02*
X13611571Y-14316542D01*
X13611571Y-14316542D02*
X13640143Y-14316542D01*
X13640143Y-14316542D02*
X13659190Y-14326065D01*
X13735381Y-14526065D02*
X13744905Y-14516542D01*
X13744905Y-14516542D02*
X13763952Y-14487970D01*
X13763952Y-14487970D02*
X13773476Y-14468923D01*
X13773476Y-14468923D02*
X13783000Y-14440351D01*
X13783000Y-14440351D02*
X13792524Y-14392732D01*
X13792524Y-14392732D02*
X13792524Y-14354637D01*
X13792524Y-14354637D02*
X13783000Y-14307018D01*
X13783000Y-14307018D02*
X13773476Y-14278446D01*
X13773476Y-14278446D02*
X13763952Y-14259399D01*
X13763952Y-14259399D02*
X13744905Y-14230827D01*
X13744905Y-14230827D02*
X13735381Y-14221304D01*
X14097286Y-14526065D02*
X14087762Y-14516542D01*
X14087762Y-14516542D02*
X14068714Y-14487970D01*
X14068714Y-14487970D02*
X14059190Y-14468923D01*
X14059190Y-14468923D02*
X14049667Y-14440351D01*
X14049667Y-14440351D02*
X14040143Y-14392732D01*
X14040143Y-14392732D02*
X14040143Y-14354637D01*
X14040143Y-14354637D02*
X14049667Y-14307018D01*
X14049667Y-14307018D02*
X14059190Y-14278446D01*
X14059190Y-14278446D02*
X14068714Y-14259399D01*
X14068714Y-14259399D02*
X14087762Y-14230827D01*
X14087762Y-14230827D02*
X14097286Y-14221304D01*
X14173476Y-14316542D02*
X14173476Y-14449875D01*
X14173476Y-14335589D02*
X14183000Y-14326065D01*
X14183000Y-14326065D02*
X14202048Y-14316542D01*
X14202048Y-14316542D02*
X14230619Y-14316542D01*
X14230619Y-14316542D02*
X14249667Y-14326065D01*
X14249667Y-14326065D02*
X14259190Y-14345113D01*
X14259190Y-14345113D02*
X14259190Y-14449875D01*
X14383000Y-14449875D02*
X14363952Y-14440351D01*
X14363952Y-14440351D02*
X14354429Y-14430827D01*
X14354429Y-14430827D02*
X14344905Y-14411780D01*
X14344905Y-14411780D02*
X14344905Y-14354637D01*
X14344905Y-14354637D02*
X14354429Y-14335589D01*
X14354429Y-14335589D02*
X14363952Y-14326065D01*
X14363952Y-14326065D02*
X14383000Y-14316542D01*
X14383000Y-14316542D02*
X14411571Y-14316542D01*
X14411571Y-14316542D02*
X14430619Y-14326065D01*
X14430619Y-14326065D02*
X14440143Y-14335589D01*
X14440143Y-14335589D02*
X14449667Y-14354637D01*
X14449667Y-14354637D02*
X14449667Y-14411780D01*
X14449667Y-14411780D02*
X14440143Y-14430827D01*
X14440143Y-14430827D02*
X14430619Y-14440351D01*
X14430619Y-14440351D02*
X14411571Y-14449875D01*
X14411571Y-14449875D02*
X14383000Y-14449875D01*
X14506810Y-14316542D02*
X14583000Y-14316542D01*
X14535381Y-14249875D02*
X14535381Y-14421304D01*
X14535381Y-14421304D02*
X14544905Y-14440351D01*
X14544905Y-14440351D02*
X14563952Y-14449875D01*
X14563952Y-14449875D02*
X14583000Y-14449875D01*
X14802048Y-14316542D02*
X14802048Y-14516542D01*
X14802048Y-14326065D02*
X14821095Y-14316542D01*
X14821095Y-14316542D02*
X14859191Y-14316542D01*
X14859191Y-14316542D02*
X14878238Y-14326065D01*
X14878238Y-14326065D02*
X14887762Y-14335589D01*
X14887762Y-14335589D02*
X14897286Y-14354637D01*
X14897286Y-14354637D02*
X14897286Y-14411780D01*
X14897286Y-14411780D02*
X14887762Y-14430827D01*
X14887762Y-14430827D02*
X14878238Y-14440351D01*
X14878238Y-14440351D02*
X14859191Y-14449875D01*
X14859191Y-14449875D02*
X14821095Y-14449875D01*
X14821095Y-14449875D02*
X14802048Y-14440351D01*
X15011571Y-14449875D02*
X14992524Y-14440351D01*
X14992524Y-14440351D02*
X14983000Y-14421304D01*
X14983000Y-14421304D02*
X14983000Y-14249875D01*
X15173476Y-14449875D02*
X15173476Y-14345113D01*
X15173476Y-14345113D02*
X15163952Y-14326065D01*
X15163952Y-14326065D02*
X15144905Y-14316542D01*
X15144905Y-14316542D02*
X15106810Y-14316542D01*
X15106810Y-14316542D02*
X15087762Y-14326065D01*
X15173476Y-14440351D02*
X15154429Y-14449875D01*
X15154429Y-14449875D02*
X15106810Y-14449875D01*
X15106810Y-14449875D02*
X15087762Y-14440351D01*
X15087762Y-14440351D02*
X15078238Y-14421304D01*
X15078238Y-14421304D02*
X15078238Y-14402256D01*
X15078238Y-14402256D02*
X15087762Y-14383208D01*
X15087762Y-14383208D02*
X15106810Y-14373685D01*
X15106810Y-14373685D02*
X15154429Y-14373685D01*
X15154429Y-14373685D02*
X15173476Y-14364161D01*
X15240143Y-14316542D02*
X15316333Y-14316542D01*
X15268714Y-14249875D02*
X15268714Y-14421304D01*
X15268714Y-14421304D02*
X15278238Y-14440351D01*
X15278238Y-14440351D02*
X15297286Y-14449875D01*
X15297286Y-14449875D02*
X15316333Y-14449875D01*
X15459191Y-14440351D02*
X15440143Y-14449875D01*
X15440143Y-14449875D02*
X15402048Y-14449875D01*
X15402048Y-14449875D02*
X15383000Y-14440351D01*
X15383000Y-14440351D02*
X15373476Y-14421304D01*
X15373476Y-14421304D02*
X15373476Y-14345113D01*
X15373476Y-14345113D02*
X15383000Y-14326065D01*
X15383000Y-14326065D02*
X15402048Y-14316542D01*
X15402048Y-14316542D02*
X15440143Y-14316542D01*
X15440143Y-14316542D02*
X15459191Y-14326065D01*
X15459191Y-14326065D02*
X15468714Y-14345113D01*
X15468714Y-14345113D02*
X15468714Y-14364161D01*
X15468714Y-14364161D02*
X15373476Y-14383208D01*
X15640143Y-14449875D02*
X15640143Y-14249875D01*
X15640143Y-14440351D02*
X15621095Y-14449875D01*
X15621095Y-14449875D02*
X15583000Y-14449875D01*
X15583000Y-14449875D02*
X15563952Y-14440351D01*
X15563952Y-14440351D02*
X15554429Y-14430827D01*
X15554429Y-14430827D02*
X15544905Y-14411780D01*
X15544905Y-14411780D02*
X15544905Y-14354637D01*
X15544905Y-14354637D02*
X15554429Y-14335589D01*
X15554429Y-14335589D02*
X15563952Y-14326065D01*
X15563952Y-14326065D02*
X15583000Y-14316542D01*
X15583000Y-14316542D02*
X15621095Y-14316542D01*
X15621095Y-14316542D02*
X15640143Y-14326065D01*
X15716333Y-14526065D02*
X15725857Y-14516542D01*
X15725857Y-14516542D02*
X15744905Y-14487970D01*
X15744905Y-14487970D02*
X15754429Y-14468923D01*
X15754429Y-14468923D02*
X15763952Y-14440351D01*
X15763952Y-14440351D02*
X15773476Y-14392732D01*
X15773476Y-14392732D02*
X15773476Y-14354637D01*
X15773476Y-14354637D02*
X15763952Y-14307018D01*
X15763952Y-14307018D02*
X15754429Y-14278446D01*
X15754429Y-14278446D02*
X15744905Y-14259399D01*
X15744905Y-14259399D02*
X15725857Y-14230827D01*
X15725857Y-14230827D02*
X15716333Y-14221304D01*
M02*
