%TF.GenerationSoftware,KiCad,Pcbnew,7.0.1-0*%
%TF.CreationDate,2023-04-23T15:52:54-04:00*%
%TF.ProjectId,WrightSpace,57726967-6874-4537-9061-63652e6b6963,v01*%
%TF.SameCoordinates,Original*%
%TF.FileFunction,Profile,NP*%
%FSLAX46Y46*%
G04 Gerber Fmt 4.6, Leading zero omitted, Abs format (unit mm)*
G04 Created by KiCad (PCBNEW 7.0.1-0) date 2023-04-23 15:52:54*
%MOMM*%
%LPD*%
G01*
G04 APERTURE LIST*
%TA.AperFunction,Profile*%
%ADD10C,0.000010*%
%TD*%
G04 APERTURE END LIST*
%TO.C,J3*%
D10*
X96703078Y-61358538D02*
X96739887Y-61359216D01*
X96776685Y-61360345D01*
X96813466Y-61361926D01*
X96850225Y-61363958D01*
X96886957Y-61366441D01*
X96923655Y-61369374D01*
X96960314Y-61372758D01*
X96996930Y-61376591D01*
X97033495Y-61380873D01*
X97070005Y-61385604D01*
X97106454Y-61390782D01*
X97142837Y-61396408D01*
X97179149Y-61402479D01*
X97215383Y-61408996D01*
X97251534Y-61415956D01*
X97287597Y-61423360D01*
X97323567Y-61431206D01*
X97359437Y-61439492D01*
X97395204Y-61448218D01*
X97430860Y-61457383D01*
X97466401Y-61466984D01*
X97501822Y-61477020D01*
X97537117Y-61487491D01*
X97572281Y-61498394D01*
X97607308Y-61509727D01*
X97642194Y-61521490D01*
X97676933Y-61533680D01*
X97711519Y-61546295D01*
X97745948Y-61559334D01*
X97780215Y-61572794D01*
X97814313Y-61586673D01*
X97848239Y-61600970D01*
X97881987Y-61615683D01*
X97915552Y-61630808D01*
X97948928Y-61646344D01*
X97982112Y-61662289D01*
X98015097Y-61678639D01*
X98047879Y-61695393D01*
X98080453Y-61712548D01*
X98112814Y-61730102D01*
X98144958Y-61748051D01*
X98176878Y-61766393D01*
X98208571Y-61785126D01*
X98240032Y-61804246D01*
X98271256Y-61823751D01*
X98302238Y-61843638D01*
X98332974Y-61863903D01*
X98363458Y-61884544D01*
X98393688Y-61905558D01*
X98423657Y-61926940D01*
X98453361Y-61948689D01*
X98482796Y-61970801D01*
X98511958Y-61993273D01*
X98540841Y-62016100D01*
X98569443Y-62039281D01*
X98597758Y-62062810D01*
X98625782Y-62086685D01*
X98653510Y-62110903D01*
X98680940Y-62135459D01*
X98708066Y-62160349D01*
X98734885Y-62185571D01*
X98761392Y-62211119D01*
X98787583Y-62236992D01*
X98813455Y-62263183D01*
X98839004Y-62289690D01*
X98864226Y-62316509D01*
X98889116Y-62343635D01*
X98913672Y-62371065D01*
X98937890Y-62398793D01*
X98961765Y-62426817D01*
X98985294Y-62455132D01*
X99008475Y-62483733D01*
X99031302Y-62512617D01*
X99053774Y-62541779D01*
X99075886Y-62571214D01*
X99097635Y-62600918D01*
X99119017Y-62630887D01*
X99140031Y-62661116D01*
X99160672Y-62691601D01*
X99180937Y-62722337D01*
X99200824Y-62753319D01*
X99220329Y-62784543D01*
X99239449Y-62816004D01*
X99258182Y-62847697D01*
X99276524Y-62879617D01*
X99294473Y-62911761D01*
X99312027Y-62944122D01*
X99329182Y-62976696D01*
X99345936Y-63009478D01*
X99362286Y-63042463D01*
X99378231Y-63075647D01*
X99393767Y-63109023D01*
X99408892Y-63142588D01*
X99423604Y-63176336D01*
X99437902Y-63210262D01*
X99451781Y-63244360D01*
X99465241Y-63278627D01*
X99478280Y-63313056D01*
X99490895Y-63347642D01*
X99503085Y-63382381D01*
X99514847Y-63417267D01*
X99526181Y-63452294D01*
X99537084Y-63487458D01*
X99547554Y-63522753D01*
X99557591Y-63558174D01*
X99567192Y-63593715D01*
X99576357Y-63629371D01*
X99585083Y-63665137D01*
X99593369Y-63701008D01*
X99601215Y-63736978D01*
X99608619Y-63773041D01*
X99615579Y-63809192D01*
X99622096Y-63845426D01*
X99628167Y-63881737D01*
X99633792Y-63918120D01*
X99638971Y-63954570D01*
X99643702Y-63991080D01*
X99647984Y-64027645D01*
X99651817Y-64064260D01*
X99655201Y-64100920D01*
X99658134Y-64137618D01*
X99660617Y-64174350D01*
X99662649Y-64211109D01*
X99664230Y-64247890D01*
X99665359Y-64284688D01*
X99666037Y-64321497D01*
X99666263Y-64358312D01*
X99666037Y-64395126D01*
X99665359Y-64431935D01*
X99664230Y-64468733D01*
X99662649Y-64505515D01*
X99660617Y-64542274D01*
X99658134Y-64579005D01*
X99655201Y-64615704D01*
X99651817Y-64652363D01*
X99647984Y-64688978D01*
X99643702Y-64725544D01*
X99638971Y-64762054D01*
X99633792Y-64798503D01*
X99628167Y-64834886D01*
X99622096Y-64871197D01*
X99615579Y-64907431D01*
X99608619Y-64943583D01*
X99601215Y-64979646D01*
X99593369Y-65015615D01*
X99585083Y-65051486D01*
X99576357Y-65087252D01*
X99567192Y-65122909D01*
X99557591Y-65158450D01*
X99547554Y-65193871D01*
X99537084Y-65229166D01*
X99526181Y-65264330D01*
X99514847Y-65299357D01*
X99503085Y-65334243D01*
X99490895Y-65368981D01*
X99478280Y-65403568D01*
X99465241Y-65437997D01*
X99451781Y-65472263D01*
X99437902Y-65506362D01*
X99423604Y-65540288D01*
X99408892Y-65574036D01*
X99393767Y-65607600D01*
X99378231Y-65640977D01*
X99362286Y-65674160D01*
X99345936Y-65707146D01*
X99329182Y-65739928D01*
X99312027Y-65772502D01*
X99294473Y-65804863D01*
X99276524Y-65837006D01*
X99258182Y-65868927D01*
X99239449Y-65900620D01*
X99220329Y-65932081D01*
X99200824Y-65963304D01*
X99180937Y-65994287D01*
X99160672Y-66025022D01*
X99140031Y-66055507D01*
X99119017Y-66085736D01*
X99097635Y-66115705D01*
X99075886Y-66145409D01*
X99053774Y-66174845D01*
X99031302Y-66204006D01*
X99008475Y-66232890D01*
X98985294Y-66261491D01*
X98961765Y-66289806D01*
X98937890Y-66317830D01*
X98913672Y-66345559D01*
X98889116Y-66372988D01*
X98864226Y-66400115D01*
X98839004Y-66426933D01*
X98813455Y-66453440D01*
X98787583Y-66479632D01*
X98761392Y-66505504D01*
X98734885Y-66531053D01*
X98708066Y-66556274D01*
X98680940Y-66581165D01*
X98653510Y-66605721D01*
X98625782Y-66629938D01*
X98597758Y-66653813D01*
X98569443Y-66677343D01*
X98540841Y-66700523D01*
X98511958Y-66723351D01*
X98482796Y-66745822D01*
X98453361Y-66767934D01*
X98423657Y-66789683D01*
X98393688Y-66811066D01*
X98363458Y-66832079D01*
X98332974Y-66852720D01*
X98302238Y-66872986D01*
X98271256Y-66892872D01*
X98240032Y-66912377D01*
X98208571Y-66931497D01*
X98176878Y-66950230D01*
X98144958Y-66968572D01*
X98112814Y-66986522D01*
X98080453Y-67004075D01*
X98047879Y-67021230D01*
X98015097Y-67037984D01*
X97982112Y-67054335D01*
X97948928Y-67070279D01*
X97915552Y-67085815D01*
X97881987Y-67100941D01*
X97848239Y-67115653D01*
X97814313Y-67129950D01*
X97780215Y-67143830D01*
X97745948Y-67157290D01*
X97711519Y-67170329D01*
X97676933Y-67182944D01*
X97642194Y-67195133D01*
X97607308Y-67206896D01*
X97572281Y-67218230D01*
X97537117Y-67229132D01*
X97501822Y-67239603D01*
X97466401Y-67249640D01*
X97430860Y-67259241D01*
X97395204Y-67268405D01*
X97359437Y-67277131D01*
X97323567Y-67285418D01*
X97287597Y-67293264D01*
X97251534Y-67300667D01*
X97215383Y-67307628D01*
X97179149Y-67314144D01*
X97142837Y-67320216D01*
X97106454Y-67325841D01*
X97070005Y-67331019D01*
X97033495Y-67335750D01*
X96996930Y-67340032D01*
X96960314Y-67343866D01*
X96923655Y-67347249D01*
X96886957Y-67350183D01*
X96850225Y-67352666D01*
X96813466Y-67354698D01*
X96776685Y-67356279D01*
X96739887Y-67357408D01*
X96703078Y-67358086D01*
X96666263Y-67358311D01*
X96629448Y-67358086D01*
X96592639Y-67357408D01*
X96555841Y-67356279D01*
X96519060Y-67354698D01*
X96482301Y-67352666D01*
X96445569Y-67350183D01*
X96408871Y-67347249D01*
X96372212Y-67343866D01*
X96335596Y-67340032D01*
X96299031Y-67335750D01*
X96262521Y-67331019D01*
X96226072Y-67325841D01*
X96189689Y-67320216D01*
X96153377Y-67314144D01*
X96117143Y-67307628D01*
X96080992Y-67300667D01*
X96044929Y-67293264D01*
X96008959Y-67285418D01*
X95973089Y-67277131D01*
X95937323Y-67268405D01*
X95901666Y-67259241D01*
X95866125Y-67249640D01*
X95830704Y-67239603D01*
X95795409Y-67229132D01*
X95760245Y-67218230D01*
X95725218Y-67206896D01*
X95690332Y-67195133D01*
X95655594Y-67182944D01*
X95621007Y-67170329D01*
X95586578Y-67157290D01*
X95552312Y-67143830D01*
X95518213Y-67129950D01*
X95484287Y-67115653D01*
X95450539Y-67100941D01*
X95416974Y-67085815D01*
X95383598Y-67070279D01*
X95350414Y-67054335D01*
X95317429Y-67037984D01*
X95284647Y-67021230D01*
X95252073Y-67004075D01*
X95219712Y-66986522D01*
X95187569Y-66968572D01*
X95155648Y-66950230D01*
X95123955Y-66931497D01*
X95092494Y-66912377D01*
X95061270Y-66892872D01*
X95030288Y-66872986D01*
X94999552Y-66852720D01*
X94969068Y-66832079D01*
X94938839Y-66811066D01*
X94908870Y-66789683D01*
X94879165Y-66767934D01*
X94849730Y-66745822D01*
X94820568Y-66723351D01*
X94791685Y-66700523D01*
X94763083Y-66677343D01*
X94734769Y-66653813D01*
X94706745Y-66629938D01*
X94679016Y-66605721D01*
X94651586Y-66581165D01*
X94624460Y-66556274D01*
X94597642Y-66531053D01*
X94571134Y-66505504D01*
X94544943Y-66479632D01*
X94519071Y-66453440D01*
X94493522Y-66426933D01*
X94468300Y-66400115D01*
X94443410Y-66372988D01*
X94418854Y-66345559D01*
X94394637Y-66317830D01*
X94370761Y-66289806D01*
X94347232Y-66261491D01*
X94324052Y-66232890D01*
X94301224Y-66204006D01*
X94278753Y-66174845D01*
X94256641Y-66145409D01*
X94234892Y-66115705D01*
X94213509Y-66085736D01*
X94192495Y-66055507D01*
X94171854Y-66025022D01*
X94151589Y-65994287D01*
X94131703Y-65963304D01*
X94112198Y-65932081D01*
X94093077Y-65900620D01*
X94074345Y-65868927D01*
X94056002Y-65837006D01*
X94038053Y-65804863D01*
X94020499Y-65772502D01*
X94003344Y-65739928D01*
X93986590Y-65707146D01*
X93970240Y-65674160D01*
X93954295Y-65640977D01*
X93938759Y-65607600D01*
X93923634Y-65574036D01*
X93908922Y-65540288D01*
X93894625Y-65506362D01*
X93880745Y-65472263D01*
X93867285Y-65437997D01*
X93854246Y-65403568D01*
X93841631Y-65368981D01*
X93829441Y-65334243D01*
X93817679Y-65299357D01*
X93806345Y-65264330D01*
X93795442Y-65229166D01*
X93784972Y-65193871D01*
X93774935Y-65158450D01*
X93765334Y-65122909D01*
X93756170Y-65087252D01*
X93747443Y-65051486D01*
X93739157Y-65015615D01*
X93731311Y-64979646D01*
X93723907Y-64943583D01*
X93716947Y-64907431D01*
X93710430Y-64871197D01*
X93704359Y-64834886D01*
X93698734Y-64798503D01*
X93693555Y-64762054D01*
X93688825Y-64725544D01*
X93684542Y-64688978D01*
X93680709Y-64652363D01*
X93677325Y-64615704D01*
X93674392Y-64579005D01*
X93671909Y-64542274D01*
X93669877Y-64505515D01*
X93668296Y-64468733D01*
X93667167Y-64431935D01*
X93666489Y-64395126D01*
X93666263Y-64358312D01*
X93666489Y-64321497D01*
X93667167Y-64284688D01*
X93668296Y-64247890D01*
X93669877Y-64211109D01*
X93671909Y-64174350D01*
X93674392Y-64137618D01*
X93677325Y-64100920D01*
X93680709Y-64064260D01*
X93684542Y-64027645D01*
X93688825Y-63991080D01*
X93693555Y-63954570D01*
X93698734Y-63918120D01*
X93704359Y-63881737D01*
X93710430Y-63845426D01*
X93716947Y-63809192D01*
X93723907Y-63773041D01*
X93731311Y-63736978D01*
X93739157Y-63701008D01*
X93747443Y-63665137D01*
X93756170Y-63629371D01*
X93765334Y-63593715D01*
X93774935Y-63558174D01*
X93784972Y-63522753D01*
X93795442Y-63487458D01*
X93806345Y-63452294D01*
X93817679Y-63417267D01*
X93829441Y-63382381D01*
X93841631Y-63347642D01*
X93854246Y-63313056D01*
X93867285Y-63278627D01*
X93880745Y-63244360D01*
X93894625Y-63210262D01*
X93908922Y-63176336D01*
X93923634Y-63142588D01*
X93938759Y-63109023D01*
X93954295Y-63075647D01*
X93970240Y-63042463D01*
X93986590Y-63009478D01*
X94003344Y-62976696D01*
X94020499Y-62944122D01*
X94038053Y-62911761D01*
X94056002Y-62879617D01*
X94074345Y-62847697D01*
X94093077Y-62816004D01*
X94112198Y-62784543D01*
X94131703Y-62753319D01*
X94151589Y-62722337D01*
X94171854Y-62691601D01*
X94192495Y-62661116D01*
X94213509Y-62630887D01*
X94234892Y-62600918D01*
X94256641Y-62571214D01*
X94278753Y-62541779D01*
X94301224Y-62512617D01*
X94324052Y-62483733D01*
X94347232Y-62455132D01*
X94370761Y-62426817D01*
X94394637Y-62398793D01*
X94418854Y-62371065D01*
X94443410Y-62343635D01*
X94468300Y-62316509D01*
X94493522Y-62289690D01*
X94519071Y-62263183D01*
X94544943Y-62236992D01*
X94571134Y-62211119D01*
X94597642Y-62185571D01*
X94624460Y-62160349D01*
X94651586Y-62135459D01*
X94679016Y-62110903D01*
X94706745Y-62086685D01*
X94734769Y-62062810D01*
X94763083Y-62039281D01*
X94791685Y-62016100D01*
X94820568Y-61993273D01*
X94849730Y-61970801D01*
X94879165Y-61948689D01*
X94908870Y-61926940D01*
X94938839Y-61905558D01*
X94969068Y-61884544D01*
X94999552Y-61863903D01*
X95030288Y-61843638D01*
X95061270Y-61823751D01*
X95092494Y-61804246D01*
X95123955Y-61785126D01*
X95155648Y-61766393D01*
X95187569Y-61748051D01*
X95219712Y-61730102D01*
X95252073Y-61712548D01*
X95284647Y-61695393D01*
X95317429Y-61678639D01*
X95350414Y-61662289D01*
X95383598Y-61646344D01*
X95416974Y-61630808D01*
X95450539Y-61615683D01*
X95484287Y-61600970D01*
X95518213Y-61586673D01*
X95552312Y-61572794D01*
X95586578Y-61559334D01*
X95621007Y-61546295D01*
X95655594Y-61533680D01*
X95690332Y-61521490D01*
X95725218Y-61509727D01*
X95760245Y-61498394D01*
X95795409Y-61487491D01*
X95830704Y-61477020D01*
X95866125Y-61466984D01*
X95901666Y-61457383D01*
X95937323Y-61448218D01*
X95973089Y-61439492D01*
X96008959Y-61431206D01*
X96044929Y-61423360D01*
X96080992Y-61415956D01*
X96117143Y-61408996D01*
X96153377Y-61402479D01*
X96189689Y-61396408D01*
X96226072Y-61390782D01*
X96262521Y-61385604D01*
X96299031Y-61380873D01*
X96335596Y-61376591D01*
X96372212Y-61372758D01*
X96408871Y-61369374D01*
X96445569Y-61366441D01*
X96482301Y-61363958D01*
X96519060Y-61361926D01*
X96555841Y-61360345D01*
X96592639Y-61359216D01*
X96629448Y-61358538D01*
X96666263Y-61358312D01*
X96703078Y-61358538D01*
X232703074Y-61358538D02*
X232739883Y-61359215D01*
X232776681Y-61360345D01*
X232813462Y-61361926D01*
X232850222Y-61363958D01*
X232886953Y-61366441D01*
X232923651Y-61369374D01*
X232960311Y-61372758D01*
X232996926Y-61376591D01*
X233033491Y-61380874D01*
X233070001Y-61385604D01*
X233106451Y-61390783D01*
X233142833Y-61396408D01*
X233179145Y-61402479D01*
X233215379Y-61408996D01*
X233251530Y-61415957D01*
X233287593Y-61423360D01*
X233323563Y-61431206D01*
X233359433Y-61439493D01*
X233395199Y-61448219D01*
X233430856Y-61457383D01*
X233466397Y-61466984D01*
X233501818Y-61477021D01*
X233537113Y-61487492D01*
X233572276Y-61498394D01*
X233607304Y-61509728D01*
X233642189Y-61521491D01*
X233676928Y-61533680D01*
X233711514Y-61546296D01*
X233745943Y-61559334D01*
X233780210Y-61572795D01*
X233814309Y-61586674D01*
X233848234Y-61600971D01*
X233881982Y-61615684D01*
X233915547Y-61630809D01*
X233948923Y-61646345D01*
X233982107Y-61662289D01*
X234015092Y-61678640D01*
X234047874Y-61695394D01*
X234080448Y-61712549D01*
X234112809Y-61730103D01*
X234144952Y-61748052D01*
X234176873Y-61766394D01*
X234208566Y-61785127D01*
X234240027Y-61804247D01*
X234271250Y-61823752D01*
X234302232Y-61843639D01*
X234332968Y-61863904D01*
X234363453Y-61884545D01*
X234393682Y-61905559D01*
X234423651Y-61926941D01*
X234453355Y-61948690D01*
X234482790Y-61970802D01*
X234511952Y-61993274D01*
X234540836Y-62016101D01*
X234569437Y-62039282D01*
X234597752Y-62062811D01*
X234625776Y-62086686D01*
X234653504Y-62110904D01*
X234680934Y-62135460D01*
X234708060Y-62160350D01*
X234734879Y-62185572D01*
X234761386Y-62211120D01*
X234787577Y-62236993D01*
X234813449Y-62263184D01*
X234838998Y-62289691D01*
X234864219Y-62316510D01*
X234889110Y-62343636D01*
X234913666Y-62371066D01*
X234937883Y-62398794D01*
X234961758Y-62426818D01*
X234985288Y-62455133D01*
X235008468Y-62483734D01*
X235031296Y-62512618D01*
X235053767Y-62541780D01*
X235075879Y-62571215D01*
X235097628Y-62600919D01*
X235119011Y-62630888D01*
X235140024Y-62661117D01*
X235160665Y-62691602D01*
X235180930Y-62722338D01*
X235200817Y-62753320D01*
X235220322Y-62784544D01*
X235239442Y-62816004D01*
X235258175Y-62847698D01*
X235276517Y-62879618D01*
X235294466Y-62911761D01*
X235312020Y-62944122D01*
X235329175Y-62976696D01*
X235345929Y-63009479D01*
X235362279Y-63042464D01*
X235378224Y-63075647D01*
X235393760Y-63109024D01*
X235408885Y-63142589D01*
X235423597Y-63176336D01*
X235437894Y-63210262D01*
X235451774Y-63244361D01*
X235465234Y-63278627D01*
X235478273Y-63313056D01*
X235490888Y-63347643D01*
X235503078Y-63382381D01*
X235514840Y-63417267D01*
X235526174Y-63452294D01*
X235537077Y-63487458D01*
X235547547Y-63522753D01*
X235557584Y-63558174D01*
X235567185Y-63593715D01*
X235576349Y-63629372D01*
X235585075Y-63665138D01*
X235593362Y-63701008D01*
X235601208Y-63736978D01*
X235608611Y-63773041D01*
X235615572Y-63809192D01*
X235622088Y-63845426D01*
X235628160Y-63881737D01*
X235633785Y-63918120D01*
X235638963Y-63954570D01*
X235643694Y-63991080D01*
X235647976Y-64027645D01*
X235651810Y-64064260D01*
X235655193Y-64100920D01*
X235658127Y-64137618D01*
X235660610Y-64174349D01*
X235662642Y-64211109D01*
X235664222Y-64247890D01*
X235665352Y-64284688D01*
X235666029Y-64321497D01*
X235666255Y-64358311D01*
X235666029Y-64395126D01*
X235665352Y-64431935D01*
X235664222Y-64468733D01*
X235662642Y-64505514D01*
X235660610Y-64542274D01*
X235658127Y-64579005D01*
X235655193Y-64615703D01*
X235651810Y-64652363D01*
X235647976Y-64688978D01*
X235643694Y-64725543D01*
X235638963Y-64762053D01*
X235633785Y-64798502D01*
X235628160Y-64834885D01*
X235622088Y-64871197D01*
X235615572Y-64907431D01*
X235608611Y-64943582D01*
X235601208Y-64979645D01*
X235593362Y-65015615D01*
X235585075Y-65051485D01*
X235576349Y-65087251D01*
X235567185Y-65122908D01*
X235557584Y-65158449D01*
X235547547Y-65193870D01*
X235537077Y-65229165D01*
X235526174Y-65264329D01*
X235514840Y-65299356D01*
X235503078Y-65334241D01*
X235490888Y-65368980D01*
X235478273Y-65403567D01*
X235465234Y-65437996D01*
X235451774Y-65472262D01*
X235437894Y-65506361D01*
X235423597Y-65540287D01*
X235408885Y-65574034D01*
X235393760Y-65607599D01*
X235378224Y-65640976D01*
X235362279Y-65674159D01*
X235345929Y-65707144D01*
X235329175Y-65739926D01*
X235312020Y-65772501D01*
X235294466Y-65804862D01*
X235276517Y-65837005D01*
X235258175Y-65868925D01*
X235239442Y-65900618D01*
X235220322Y-65932079D01*
X235200817Y-65963303D01*
X235180930Y-65994285D01*
X235160665Y-66025021D01*
X235140024Y-66055506D01*
X235119011Y-66085735D01*
X235097628Y-66115704D01*
X235075879Y-66145408D01*
X235053767Y-66174843D01*
X235031296Y-66204005D01*
X235008468Y-66232888D01*
X234985288Y-66261490D01*
X234961758Y-66289805D01*
X234937883Y-66317829D01*
X234913666Y-66345557D01*
X234889110Y-66372987D01*
X234864219Y-66400113D01*
X234838998Y-66426932D01*
X234813449Y-66453439D01*
X234787577Y-66479630D01*
X234761386Y-66505502D01*
X234734879Y-66531051D01*
X234708060Y-66556273D01*
X234680934Y-66581163D01*
X234653504Y-66605719D01*
X234625776Y-66629936D01*
X234597752Y-66653812D01*
X234569437Y-66677341D01*
X234540836Y-66700522D01*
X234511952Y-66723349D01*
X234482790Y-66745821D01*
X234453355Y-66767933D01*
X234423651Y-66789682D01*
X234393682Y-66811064D01*
X234363453Y-66832078D01*
X234332968Y-66852719D01*
X234302232Y-66872984D01*
X234271250Y-66892871D01*
X234240027Y-66912376D01*
X234208566Y-66931496D01*
X234176873Y-66950229D01*
X234144952Y-66968571D01*
X234112809Y-66986520D01*
X234080448Y-67004074D01*
X234047874Y-67021229D01*
X234015092Y-67037983D01*
X233982107Y-67054333D01*
X233948923Y-67070278D01*
X233915547Y-67085814D01*
X233881982Y-67100939D01*
X233848234Y-67115652D01*
X233814309Y-67129949D01*
X233780210Y-67143828D01*
X233745943Y-67157289D01*
X233711514Y-67170327D01*
X233676928Y-67182942D01*
X233642189Y-67195132D01*
X233607304Y-67206895D01*
X233572276Y-67218228D01*
X233537113Y-67229131D01*
X233501818Y-67239602D01*
X233466397Y-67249639D01*
X233430856Y-67259240D01*
X233395199Y-67268404D01*
X233359433Y-67277130D01*
X233323563Y-67285417D01*
X233287593Y-67293263D01*
X233251530Y-67300666D01*
X233215379Y-67307627D01*
X233179145Y-67314144D01*
X233142833Y-67320215D01*
X233106451Y-67325840D01*
X233070001Y-67331019D01*
X233033491Y-67335749D01*
X232996926Y-67340032D01*
X232960311Y-67343865D01*
X232923651Y-67347249D01*
X232886953Y-67350182D01*
X232850222Y-67352665D01*
X232813462Y-67354697D01*
X232776681Y-67356278D01*
X232739883Y-67357408D01*
X232703074Y-67358085D01*
X232666260Y-67358311D01*
X232629445Y-67358085D01*
X232592636Y-67357408D01*
X232555838Y-67356278D01*
X232519056Y-67354698D01*
X232482297Y-67352666D01*
X232445566Y-67350183D01*
X232408868Y-67347249D01*
X232372208Y-67343866D01*
X232335593Y-67340032D01*
X232299027Y-67335750D01*
X232262517Y-67331019D01*
X232226068Y-67325841D01*
X232189685Y-67320216D01*
X232153374Y-67314144D01*
X232117140Y-67307628D01*
X232080988Y-67300667D01*
X232044925Y-67293264D01*
X232008956Y-67285418D01*
X231973085Y-67277131D01*
X231937319Y-67268405D01*
X231901662Y-67259241D01*
X231866121Y-67249640D01*
X231830700Y-67239603D01*
X231795405Y-67229133D01*
X231760241Y-67218230D01*
X231725214Y-67206896D01*
X231690328Y-67195134D01*
X231655590Y-67182944D01*
X231621003Y-67170329D01*
X231586574Y-67157290D01*
X231552308Y-67143830D01*
X231518209Y-67129950D01*
X231484283Y-67115653D01*
X231450535Y-67100941D01*
X231416970Y-67085816D01*
X231383594Y-67070280D01*
X231350410Y-67054335D01*
X231317425Y-67037985D01*
X231284643Y-67021231D01*
X231252069Y-67004076D01*
X231219708Y-66986522D01*
X231187564Y-66968573D01*
X231155644Y-66950230D01*
X231123951Y-66931498D01*
X231092490Y-66912377D01*
X231061266Y-66892873D01*
X231030284Y-66872986D01*
X230999548Y-66852721D01*
X230969063Y-66832080D01*
X230938834Y-66811066D01*
X230908865Y-66789684D01*
X230879161Y-66767935D01*
X230849726Y-66745823D01*
X230820564Y-66723351D01*
X230791680Y-66700524D01*
X230763079Y-66677343D01*
X230734764Y-66653814D01*
X230706740Y-66629939D01*
X230679011Y-66605721D01*
X230651582Y-66581165D01*
X230624456Y-66556275D01*
X230597637Y-66531053D01*
X230571130Y-66505504D01*
X230544938Y-66479632D01*
X230519066Y-66453441D01*
X230493517Y-66426934D01*
X230468296Y-66400115D01*
X230443405Y-66372989D01*
X230418849Y-66345559D01*
X230394632Y-66317831D01*
X230370757Y-66289807D01*
X230347227Y-66261492D01*
X230324047Y-66232890D01*
X230301219Y-66204007D01*
X230278748Y-66174845D01*
X230256636Y-66145410D01*
X230234887Y-66115706D01*
X230213504Y-66085737D01*
X230192490Y-66055507D01*
X230171849Y-66025023D01*
X230151584Y-65994287D01*
X230131698Y-65963305D01*
X230112193Y-65932081D01*
X230093072Y-65900620D01*
X230074340Y-65868927D01*
X230055997Y-65837006D01*
X230038048Y-65804863D01*
X230020494Y-65772502D01*
X230003339Y-65739928D01*
X229986585Y-65707146D01*
X229970235Y-65674161D01*
X229954290Y-65640977D01*
X229938754Y-65607601D01*
X229923629Y-65574036D01*
X229908917Y-65540288D01*
X229894620Y-65506362D01*
X229880740Y-65472263D01*
X229867280Y-65437997D01*
X229854241Y-65403568D01*
X229841626Y-65368981D01*
X229829436Y-65334243D01*
X229817674Y-65299357D01*
X229806340Y-65264330D01*
X229795437Y-65229166D01*
X229784966Y-65193871D01*
X229774930Y-65158450D01*
X229765329Y-65122909D01*
X229756164Y-65087252D01*
X229747438Y-65051486D01*
X229739152Y-65015615D01*
X229731306Y-64979646D01*
X229723902Y-64943583D01*
X229716942Y-64907431D01*
X229710425Y-64871197D01*
X229704354Y-64834886D01*
X229698728Y-64798503D01*
X229693550Y-64762054D01*
X229688819Y-64725544D01*
X229684537Y-64688978D01*
X229680704Y-64652363D01*
X229677320Y-64615703D01*
X229674387Y-64579005D01*
X229671904Y-64542274D01*
X229669872Y-64505515D01*
X229668291Y-64468733D01*
X229667162Y-64431935D01*
X229666484Y-64395126D01*
X229666258Y-64358311D01*
X229666484Y-64321497D01*
X229667162Y-64284688D01*
X229668291Y-64247890D01*
X229669872Y-64211108D01*
X229671904Y-64174349D01*
X229674387Y-64137618D01*
X229677320Y-64100919D01*
X229680704Y-64064260D01*
X229684537Y-64027645D01*
X229688819Y-63991079D01*
X229693550Y-63954569D01*
X229698728Y-63918120D01*
X229704354Y-63881737D01*
X229710425Y-63845426D01*
X229716942Y-63809192D01*
X229723902Y-63773040D01*
X229731306Y-63736977D01*
X229739152Y-63701008D01*
X229747438Y-63665137D01*
X229756164Y-63629371D01*
X229765329Y-63593714D01*
X229774930Y-63558173D01*
X229784966Y-63522752D01*
X229795437Y-63487457D01*
X229806340Y-63452293D01*
X229817674Y-63417266D01*
X229829436Y-63382380D01*
X229841626Y-63347642D01*
X229854241Y-63313055D01*
X229867280Y-63278626D01*
X229880740Y-63244360D01*
X229894620Y-63210261D01*
X229908917Y-63176335D01*
X229923629Y-63142587D01*
X229938754Y-63109022D01*
X229954290Y-63075646D01*
X229970235Y-63042462D01*
X229986585Y-63009477D01*
X230003339Y-62976695D01*
X230020494Y-62944121D01*
X230038048Y-62911760D01*
X230055997Y-62879616D01*
X230074340Y-62847696D01*
X230093072Y-62816003D01*
X230112193Y-62784542D01*
X230131698Y-62753318D01*
X230151584Y-62722336D01*
X230171849Y-62691600D01*
X230192490Y-62661116D01*
X230213504Y-62630886D01*
X230234887Y-62600917D01*
X230256636Y-62571213D01*
X230278748Y-62541778D01*
X230301219Y-62512616D01*
X230324047Y-62483732D01*
X230347227Y-62455131D01*
X230370757Y-62426816D01*
X230394632Y-62398792D01*
X230418849Y-62371064D01*
X230443405Y-62343634D01*
X230468296Y-62316508D01*
X230493517Y-62289689D01*
X230519066Y-62263182D01*
X230544938Y-62236991D01*
X230571130Y-62211118D01*
X230597637Y-62185570D01*
X230624456Y-62160348D01*
X230651582Y-62135458D01*
X230679011Y-62110902D01*
X230706740Y-62086684D01*
X230734764Y-62062809D01*
X230763079Y-62039280D01*
X230791680Y-62016099D01*
X230820564Y-61993272D01*
X230849726Y-61970800D01*
X230879161Y-61948688D01*
X230908865Y-61926939D01*
X230938834Y-61905557D01*
X230969063Y-61884543D01*
X230999548Y-61863902D01*
X231030284Y-61843637D01*
X231061266Y-61823750D01*
X231092490Y-61804245D01*
X231123951Y-61785125D01*
X231155644Y-61766392D01*
X231187564Y-61748050D01*
X231219708Y-61730101D01*
X231252069Y-61712547D01*
X231284643Y-61695392D01*
X231317425Y-61678638D01*
X231350410Y-61662288D01*
X231383594Y-61646343D01*
X231416970Y-61630807D01*
X231450535Y-61615682D01*
X231484283Y-61600970D01*
X231518209Y-61586673D01*
X231552308Y-61572793D01*
X231586574Y-61559333D01*
X231621003Y-61546294D01*
X231655590Y-61533679D01*
X231690328Y-61521489D01*
X231725214Y-61509727D01*
X231760241Y-61498393D01*
X231795405Y-61487490D01*
X231830700Y-61477020D01*
X231866121Y-61466983D01*
X231901662Y-61457382D01*
X231937319Y-61448218D01*
X231973085Y-61439491D01*
X232008956Y-61431205D01*
X232044925Y-61423359D01*
X232080988Y-61415956D01*
X232117140Y-61408995D01*
X232153374Y-61402478D01*
X232189685Y-61396407D01*
X232226068Y-61390782D01*
X232262517Y-61385604D01*
X232299027Y-61380873D01*
X232335593Y-61376591D01*
X232372208Y-61372757D01*
X232408868Y-61369374D01*
X232445566Y-61366440D01*
X232482297Y-61363957D01*
X232519056Y-61361925D01*
X232555838Y-61360344D01*
X232592636Y-61359215D01*
X232629445Y-61358538D01*
X232666260Y-61358312D01*
X232703074Y-61358538D01*
X234280214Y-57358663D02*
X234342840Y-57359713D01*
X234405288Y-57361459D01*
X234467554Y-57363897D01*
X234529636Y-57367022D01*
X234591529Y-57370833D01*
X234653229Y-57375324D01*
X234714733Y-57380492D01*
X234776037Y-57386334D01*
X234837138Y-57392845D01*
X234898032Y-57400023D01*
X234958714Y-57407862D01*
X235019182Y-57416360D01*
X235079431Y-57425513D01*
X235139459Y-57435318D01*
X235199260Y-57445770D01*
X235258832Y-57456865D01*
X235318171Y-57468601D01*
X235377273Y-57480973D01*
X235436135Y-57493978D01*
X235494752Y-57507612D01*
X235553121Y-57521871D01*
X235611238Y-57536752D01*
X235669101Y-57552250D01*
X235726704Y-57568363D01*
X235784044Y-57585086D01*
X235841118Y-57602416D01*
X235897921Y-57620350D01*
X235954451Y-57638882D01*
X236010703Y-57658011D01*
X236066674Y-57677731D01*
X236122360Y-57698040D01*
X236177757Y-57718933D01*
X236232862Y-57740407D01*
X236287671Y-57762458D01*
X236342180Y-57785083D01*
X236396385Y-57808278D01*
X236450284Y-57832039D01*
X236503871Y-57856362D01*
X236557144Y-57881244D01*
X236610098Y-57906680D01*
X236662731Y-57932669D01*
X236715038Y-57959204D01*
X236767015Y-57986284D01*
X236818660Y-58013904D01*
X236869967Y-58042060D01*
X236920934Y-58070749D01*
X236971557Y-58099968D01*
X237021832Y-58129711D01*
X237071756Y-58159977D01*
X237121324Y-58190760D01*
X237170533Y-58222058D01*
X237219379Y-58253866D01*
X237267859Y-58286182D01*
X237315969Y-58319000D01*
X237363705Y-58352318D01*
X237411064Y-58386132D01*
X237458041Y-58420438D01*
X237504634Y-58455232D01*
X237550838Y-58490511D01*
X237596650Y-58526271D01*
X237642065Y-58562508D01*
X237687081Y-58599219D01*
X237731694Y-58636400D01*
X237775899Y-58674047D01*
X237819694Y-58712157D01*
X237863074Y-58750725D01*
X237906036Y-58789749D01*
X237948576Y-58829223D01*
X237990691Y-58869146D01*
X238032376Y-58909513D01*
X238073628Y-58950320D01*
X238114443Y-58991563D01*
X238154819Y-59033240D01*
X238194749Y-59075345D01*
X238234233Y-59117876D01*
X238273264Y-59160829D01*
X238311841Y-59204201D01*
X238349958Y-59247986D01*
X238387613Y-59292182D01*
X238424802Y-59336786D01*
X238461520Y-59381792D01*
X238497765Y-59427198D01*
X238533533Y-59473000D01*
X238568819Y-59519195D01*
X238603621Y-59565778D01*
X238637934Y-59612745D01*
X238671754Y-59660094D01*
X238705079Y-59707820D01*
X238737905Y-59755920D01*
X238770227Y-59804390D01*
X238802042Y-59853226D01*
X238833346Y-59902425D01*
X238864136Y-59951983D01*
X238894408Y-60001896D01*
X238924157Y-60052160D01*
X238953382Y-60102773D01*
X238982077Y-60153729D01*
X239010239Y-60205026D01*
X239037865Y-60256660D01*
X239064950Y-60308626D01*
X239091492Y-60360922D01*
X239117485Y-60413544D01*
X239142927Y-60466487D01*
X239167814Y-60519749D01*
X239192143Y-60573325D01*
X239215908Y-60627212D01*
X239239108Y-60681406D01*
X239261737Y-60735904D01*
X239283793Y-60790701D01*
X239305272Y-60845795D01*
X239326170Y-60901180D01*
X239346483Y-60956855D01*
X239366207Y-61012814D01*
X239385339Y-61069054D01*
X239403876Y-61125572D01*
X239421813Y-61182364D01*
X239439146Y-61239426D01*
X239455873Y-61296754D01*
X239471989Y-61354345D01*
X239487491Y-61412195D01*
X239502375Y-61470301D01*
X239516637Y-61528658D01*
X239530274Y-61587263D01*
X239543281Y-61646112D01*
X239555656Y-61705202D01*
X239567394Y-61764528D01*
X239578492Y-61824088D01*
X239588946Y-61883877D01*
X239598753Y-61943892D01*
X239607908Y-62004128D01*
X239616408Y-62064584D01*
X239624249Y-62125253D01*
X239631428Y-62186134D01*
X239637941Y-62247222D01*
X239643783Y-62308514D01*
X239648953Y-62370005D01*
X239653445Y-62431692D01*
X239657256Y-62493572D01*
X239660383Y-62555641D01*
X239662821Y-62617894D01*
X239664567Y-62680329D01*
X239665617Y-62742942D01*
X239665968Y-62805729D01*
X239665968Y-131737891D01*
X239665617Y-131800677D01*
X239664567Y-131863290D01*
X239662821Y-131925725D01*
X239660383Y-131987979D01*
X239657256Y-132050047D01*
X239653445Y-132111927D01*
X239648953Y-132173615D01*
X239643783Y-132235106D01*
X239637941Y-132296397D01*
X239631428Y-132357485D01*
X239624249Y-132418366D01*
X239616408Y-132479036D01*
X239607908Y-132539491D01*
X239598753Y-132599728D01*
X239588946Y-132659743D01*
X239578492Y-132719532D01*
X239567394Y-132779092D01*
X239555656Y-132838418D01*
X239543281Y-132897508D01*
X239530274Y-132956357D01*
X239516637Y-133014962D01*
X239502375Y-133073319D01*
X239487491Y-133131424D01*
X239471989Y-133189274D01*
X239455873Y-133246866D01*
X239439146Y-133304194D01*
X239421813Y-133361256D01*
X239403876Y-133418048D01*
X239385339Y-133474566D01*
X239366207Y-133530806D01*
X239346483Y-133586765D01*
X239326170Y-133642439D01*
X239305272Y-133697825D01*
X239283793Y-133752918D01*
X239261737Y-133807716D01*
X239239108Y-133862213D01*
X239215908Y-133916408D01*
X239192143Y-133970295D01*
X239167814Y-134023871D01*
X239142927Y-134077133D01*
X239117485Y-134130076D01*
X239091492Y-134182698D01*
X239064950Y-134234994D01*
X239037865Y-134286960D01*
X239010239Y-134338594D01*
X238982077Y-134389891D01*
X238953382Y-134440847D01*
X238924157Y-134491459D01*
X238894408Y-134541724D01*
X238864136Y-134591637D01*
X238833346Y-134641195D01*
X238802042Y-134690394D01*
X238770227Y-134739230D01*
X238737905Y-134787700D01*
X238705079Y-134835800D01*
X238671754Y-134883526D01*
X238637934Y-134930875D01*
X238603621Y-134977842D01*
X238568819Y-135024425D01*
X238533533Y-135070620D01*
X238497765Y-135116422D01*
X238461520Y-135161828D01*
X238424802Y-135206834D01*
X238387613Y-135251438D01*
X238349958Y-135295634D01*
X238311841Y-135339420D01*
X238273264Y-135382791D01*
X238234233Y-135425744D01*
X238194749Y-135468275D01*
X238154819Y-135510381D01*
X238114443Y-135552057D01*
X238073628Y-135593301D01*
X238032376Y-135634108D01*
X237990691Y-135674474D01*
X237948576Y-135714397D01*
X237906036Y-135753872D01*
X237863074Y-135792895D01*
X237819694Y-135831464D01*
X237775899Y-135869573D01*
X237731694Y-135907220D01*
X237687081Y-135944401D01*
X237642065Y-135981112D01*
X237596650Y-136017349D01*
X237550838Y-136053109D01*
X237504634Y-136088388D01*
X237458041Y-136123183D01*
X237411064Y-136157488D01*
X237363705Y-136191302D01*
X237315969Y-136224620D01*
X237267859Y-136257439D01*
X237219379Y-136289754D01*
X237170533Y-136321562D01*
X237121324Y-136352860D01*
X237071756Y-136383643D01*
X237021832Y-136413909D01*
X236971557Y-136443653D01*
X236920934Y-136472871D01*
X236869967Y-136501560D01*
X236818660Y-136529716D01*
X236767015Y-136557336D01*
X236715038Y-136584416D01*
X236662731Y-136610952D01*
X236610098Y-136636940D01*
X236557144Y-136662377D01*
X236503871Y-136687259D01*
X236450284Y-136711582D01*
X236396385Y-136735343D01*
X236342180Y-136758537D01*
X236287671Y-136781162D01*
X236232862Y-136803213D01*
X236177757Y-136824688D01*
X236122360Y-136845581D01*
X236066674Y-136865889D01*
X236010703Y-136885610D01*
X235954451Y-136904738D01*
X235897921Y-136923271D01*
X235841118Y-136941204D01*
X235784044Y-136958534D01*
X235726704Y-136975257D01*
X235669101Y-136991370D01*
X235611238Y-137006869D01*
X235553121Y-137021750D01*
X235494752Y-137036009D01*
X235436135Y-137049643D01*
X235377273Y-137062647D01*
X235318171Y-137075019D01*
X235258832Y-137086755D01*
X235199260Y-137097851D01*
X235139459Y-137108303D01*
X235079431Y-137118107D01*
X235019182Y-137127260D01*
X234958714Y-137135758D01*
X234898032Y-137143598D01*
X234837138Y-137150775D01*
X234776037Y-137157287D01*
X234714733Y-137163128D01*
X234653229Y-137168297D01*
X234591529Y-137172788D01*
X234529636Y-137176598D01*
X234467554Y-137179724D01*
X234405288Y-137182162D01*
X234342840Y-137183907D01*
X234280214Y-137184958D01*
X234217415Y-137185308D01*
X95114816Y-137185308D01*
X95052016Y-137184958D01*
X94989391Y-137183907D01*
X94926943Y-137182162D01*
X94864676Y-137179724D01*
X94802595Y-137176598D01*
X94740702Y-137172788D01*
X94679001Y-137168297D01*
X94617497Y-137163128D01*
X94556193Y-137157287D01*
X94495092Y-137150775D01*
X94434199Y-137143598D01*
X94373516Y-137135758D01*
X94313049Y-137127260D01*
X94252799Y-137118107D01*
X94192772Y-137108303D01*
X94132970Y-137097851D01*
X94073398Y-137086755D01*
X94014059Y-137075019D01*
X93954957Y-137062647D01*
X93896096Y-137049643D01*
X93837479Y-137036009D01*
X93779110Y-137021750D01*
X93720992Y-137006869D01*
X93663130Y-136991370D01*
X93605527Y-136975257D01*
X93548187Y-136958534D01*
X93491113Y-136941204D01*
X93434309Y-136923271D01*
X93377779Y-136904738D01*
X93321527Y-136885610D01*
X93265556Y-136865889D01*
X93209871Y-136845581D01*
X93154473Y-136824688D01*
X93099368Y-136803213D01*
X93044560Y-136781162D01*
X92990051Y-136758537D01*
X92935845Y-136735343D01*
X92881947Y-136711582D01*
X92828360Y-136687259D01*
X92775087Y-136662377D01*
X92722132Y-136636940D01*
X92669500Y-136610952D01*
X92617193Y-136584416D01*
X92565216Y-136557336D01*
X92513571Y-136529716D01*
X92462264Y-136501560D01*
X92411296Y-136472871D01*
X92360674Y-136443653D01*
X92310399Y-136413909D01*
X92260475Y-136383643D01*
X92210907Y-136352860D01*
X92161698Y-136321562D01*
X92112852Y-136289754D01*
X92064372Y-136257439D01*
X92016262Y-136224620D01*
X91968525Y-136191302D01*
X91921167Y-136157488D01*
X91874189Y-136123183D01*
X91827597Y-136088388D01*
X91781393Y-136053109D01*
X91735581Y-136017349D01*
X91690166Y-135981112D01*
X91645150Y-135944401D01*
X91600537Y-135907220D01*
X91556332Y-135869573D01*
X91512537Y-135831464D01*
X91469157Y-135792895D01*
X91426195Y-135753872D01*
X91383655Y-135714397D01*
X91341540Y-135674474D01*
X91299855Y-135634108D01*
X91258603Y-135593301D01*
X91217787Y-135552057D01*
X91177412Y-135510381D01*
X91137482Y-135468275D01*
X91097998Y-135425744D01*
X91058967Y-135382791D01*
X91020390Y-135339420D01*
X90982273Y-135295634D01*
X90944618Y-135251438D01*
X90907429Y-135206834D01*
X90870711Y-135161828D01*
X90834466Y-135116422D01*
X90798698Y-135070620D01*
X90763412Y-135024425D01*
X90728611Y-134977842D01*
X90694297Y-134930875D01*
X90660477Y-134883526D01*
X90627152Y-134835800D01*
X90594326Y-134787700D01*
X90562004Y-134739230D01*
X90530190Y-134690394D01*
X90498885Y-134641195D01*
X90468095Y-134591637D01*
X90437824Y-134541724D01*
X90408074Y-134491459D01*
X90378849Y-134440847D01*
X90350154Y-134389891D01*
X90321992Y-134338594D01*
X90294366Y-134286960D01*
X90267281Y-134234994D01*
X90240740Y-134182698D01*
X90214746Y-134130076D01*
X90189304Y-134077133D01*
X90164417Y-134023871D01*
X90140089Y-133970295D01*
X90116323Y-133916408D01*
X90093123Y-133862213D01*
X90070494Y-133807716D01*
X90048438Y-133752918D01*
X90026959Y-133697825D01*
X90006062Y-133642439D01*
X89985749Y-133586765D01*
X89966024Y-133530806D01*
X89946892Y-133474566D01*
X89928356Y-133418048D01*
X89910419Y-133361256D01*
X89893085Y-133304194D01*
X89876358Y-133246866D01*
X89860242Y-133189274D01*
X89844740Y-133131424D01*
X89829856Y-133073319D01*
X89815594Y-133014962D01*
X89801958Y-132956357D01*
X89788950Y-132897508D01*
X89776575Y-132838418D01*
X89764837Y-132779092D01*
X89753739Y-132719532D01*
X89743285Y-132659743D01*
X89733479Y-132599728D01*
X89724324Y-132539491D01*
X89715824Y-132479036D01*
X89707983Y-132418366D01*
X89700804Y-132357485D01*
X89694291Y-132296397D01*
X89688448Y-132235106D01*
X89683279Y-132173615D01*
X89678787Y-132111927D01*
X89674976Y-132050047D01*
X89671849Y-131987979D01*
X89669411Y-131925725D01*
X89667665Y-131863290D01*
X89666614Y-131800677D01*
X89666263Y-131737891D01*
X89666263Y-62805729D01*
X89666614Y-62742942D01*
X89667665Y-62680329D01*
X89669411Y-62617894D01*
X89671849Y-62555641D01*
X89674976Y-62493572D01*
X89678787Y-62431692D01*
X89683279Y-62370005D01*
X89688448Y-62308514D01*
X89694291Y-62247222D01*
X89700804Y-62186134D01*
X89707983Y-62125253D01*
X89715824Y-62064584D01*
X89724324Y-62004128D01*
X89733479Y-61943892D01*
X89743285Y-61883877D01*
X89753739Y-61824088D01*
X89764837Y-61764528D01*
X89776575Y-61705202D01*
X89788950Y-61646112D01*
X89801958Y-61587263D01*
X89815594Y-61528658D01*
X89829856Y-61470301D01*
X89844740Y-61412195D01*
X89860242Y-61354345D01*
X89876358Y-61296754D01*
X89893085Y-61239426D01*
X89910419Y-61182364D01*
X89928356Y-61125572D01*
X89946892Y-61069054D01*
X89966024Y-61012814D01*
X89985749Y-60956855D01*
X90006062Y-60901180D01*
X90026959Y-60845795D01*
X90048438Y-60790701D01*
X90070494Y-60735904D01*
X90093123Y-60681406D01*
X90116323Y-60627212D01*
X90140089Y-60573325D01*
X90164417Y-60519749D01*
X90189304Y-60466487D01*
X90214746Y-60413544D01*
X90240740Y-60360922D01*
X90267281Y-60308626D01*
X90294366Y-60256660D01*
X90321992Y-60205026D01*
X90350154Y-60153729D01*
X90378849Y-60102773D01*
X90408074Y-60052160D01*
X90437824Y-60001896D01*
X90468095Y-59951983D01*
X90498885Y-59902425D01*
X90530190Y-59853226D01*
X90562004Y-59804390D01*
X90594326Y-59755920D01*
X90627152Y-59707820D01*
X90660477Y-59660094D01*
X90694297Y-59612745D01*
X90728611Y-59565778D01*
X90763412Y-59519195D01*
X90798698Y-59473000D01*
X90834466Y-59427198D01*
X90870711Y-59381792D01*
X90907429Y-59336786D01*
X90944618Y-59292182D01*
X90982273Y-59247986D01*
X91020390Y-59204201D01*
X91058967Y-59160829D01*
X91097998Y-59117876D01*
X91137482Y-59075345D01*
X91177412Y-59033240D01*
X91217787Y-58991563D01*
X91258603Y-58950320D01*
X91299855Y-58909513D01*
X91341540Y-58869146D01*
X91383655Y-58829223D01*
X91426195Y-58789749D01*
X91469157Y-58750725D01*
X91512537Y-58712157D01*
X91556332Y-58674047D01*
X91600537Y-58636400D01*
X91645150Y-58599219D01*
X91690166Y-58562508D01*
X91735581Y-58526271D01*
X91781393Y-58490511D01*
X91827597Y-58455232D01*
X91874189Y-58420438D01*
X91921167Y-58386132D01*
X91968525Y-58352318D01*
X92016262Y-58319000D01*
X92064372Y-58286182D01*
X92112852Y-58253866D01*
X92161698Y-58222058D01*
X92210907Y-58190760D01*
X92260475Y-58159977D01*
X92310399Y-58129711D01*
X92360674Y-58099968D01*
X92411296Y-58070749D01*
X92462264Y-58042060D01*
X92513571Y-58013904D01*
X92565216Y-57986284D01*
X92617193Y-57959204D01*
X92669500Y-57932669D01*
X92722132Y-57906680D01*
X92775087Y-57881244D01*
X92828360Y-57856362D01*
X92881947Y-57832039D01*
X92935845Y-57808278D01*
X92990051Y-57785083D01*
X93044560Y-57762458D01*
X93099368Y-57740407D01*
X93154473Y-57718933D01*
X93209871Y-57698040D01*
X93265556Y-57677731D01*
X93321527Y-57658011D01*
X93377779Y-57638882D01*
X93434309Y-57620350D01*
X93491113Y-57602416D01*
X93548187Y-57585086D01*
X93605527Y-57568363D01*
X93663130Y-57552250D01*
X93720992Y-57536752D01*
X93779110Y-57521871D01*
X93837479Y-57507612D01*
X93896096Y-57493978D01*
X93954957Y-57480973D01*
X94014059Y-57468601D01*
X94073398Y-57456865D01*
X94132970Y-57445770D01*
X94192772Y-57435318D01*
X94252799Y-57425513D01*
X94313049Y-57416360D01*
X94373516Y-57407862D01*
X94434199Y-57400023D01*
X94495092Y-57392845D01*
X94556193Y-57386334D01*
X94617497Y-57380492D01*
X94679001Y-57375324D01*
X94740702Y-57370833D01*
X94802595Y-57367022D01*
X94864676Y-57363897D01*
X94926943Y-57361459D01*
X94989391Y-57359713D01*
X95052016Y-57358663D01*
X95114816Y-57358312D01*
X234217415Y-57358312D01*
X234280214Y-57358663D01*
%TD*%
M02*
