M48
; DRILL file {KiCad 7.0.1-0} date 2023 April 14, Friday 08:17:51
; FORMAT={-:-/ absolute / inch / decimal}
; #@! TF.CreationDate,2023-04-14T08:17:51-04:00
; #@! TF.GenerationSoftware,Kicad,Pcbnew,7.0.1-0
; #@! TF.FileFunction,Plated,1,2,PTH
FMAT,2
INCH
; #@! TA.AperFunction,Plated,PTH,ViaDrill
T1C0.0157
; #@! TA.AperFunction,Plated,PTH,ComponentDrill
T2C0.0300
; #@! TA.AperFunction,Plated,PTH,ComponentDrill
T3C0.0402
%
G90
G05
T1
X3.6527Y-3.2423
X3.8Y-4.45
X4.0Y-4.22
X4.37Y-3.11
X4.4Y-3.37
X4.4982Y-3.4219
X4.7547Y-3.441
X4.7885Y-3.5286
X4.8746Y-3.6497
X4.8784Y-3.5712
X5.6522Y-3.3134
X5.7774Y-3.3854
X5.9041Y-3.3563
X6.237Y-3.4984
X6.3688Y-3.5744
X6.7002Y-3.5198
X6.99Y-2.61
X7.2081Y-2.805
X7.2126Y-3.2145
X7.2853Y-4.2919
X7.293Y-3.3347
X7.2947Y-4.248
X7.3161Y-4.3714
X7.329Y-4.4401
X7.3416Y-3.331
X7.3975Y-3.3286
X7.4109Y-4.6359
X7.4358Y-2.936
X7.4365Y-4.6761
X7.4411Y-3.3282
X7.46Y-4.04
X7.4788Y-3.0844
X7.4972Y-3.183
X7.5418Y-3.3234
X7.5616Y-3.7953
X7.5977Y-3.1774
X7.61Y-4.05
X7.6111Y-3.7766
X7.6213Y-3.2155
X7.68Y-4.25
X7.7653Y-2.6644
X7.7653Y-3.1398
X7.7838Y-3.8542
X7.8565Y-3.7944
X7.8568Y-4.3261
X7.9129Y-3.7834
X7.9773Y-3.5644
X8.1221Y-3.0694
X8.1426Y-2.6288
X8.3596Y-4.293
X8.4174Y-3.4309
X8.5553Y-2.9573
T2
X3.92Y-2.97
X3.92Y-3.07
X4.02Y-2.97
X4.02Y-3.07
X4.12Y-2.97
X4.12Y-3.07
X9.04Y-4.78
X9.04Y-4.88
X9.04Y-4.98
X9.14Y-4.78
X9.14Y-4.88
X9.14Y-4.98
T3
X5.39Y-2.43
X5.89Y-2.43
T0
M30
