%TF.GenerationSoftware,KiCad,Pcbnew,7.0.1-0*%
%TF.CreationDate,2023-04-14T08:17:48-04:00*%
%TF.ProjectId,WrightSpace,57726967-6874-4537-9061-63652e6b6963,v01*%
%TF.SameCoordinates,Original*%
%TF.FileFunction,Profile,NP*%
%FSLAX46Y46*%
G04 Gerber Fmt 4.6, Leading zero omitted, Abs format (unit mm)*
G04 Created by KiCad (PCBNEW 7.0.1-0) date 2023-04-14 08:17:48*
%MOMM*%
%LPD*%
G01*
G04 APERTURE LIST*
%TA.AperFunction,Profile*%
%ADD10C,0.000010*%
%TD*%
G04 APERTURE END LIST*
%TO.C,J1*%
D10*
X97832928Y-61347717D02*
X97931034Y-61351330D01*
X98029022Y-61357350D01*
X98126832Y-61365773D01*
X98224406Y-61376594D01*
X98321685Y-61389806D01*
X98418611Y-61405401D01*
X98515125Y-61423371D01*
X98611168Y-61443703D01*
X98706684Y-61466387D01*
X98801615Y-61491408D01*
X98895902Y-61518751D01*
X98989490Y-61548399D01*
X99082323Y-61580336D01*
X99174344Y-61614541D01*
X99265497Y-61650994D01*
X99355729Y-61689673D01*
X99444984Y-61730555D01*
X99533209Y-61773615D01*
X99620350Y-61818827D01*
X99706356Y-61866164D01*
X99791174Y-61915598D01*
X99874754Y-61967098D01*
X99957044Y-62020634D01*
X100037996Y-62076173D01*
X100117561Y-62133682D01*
X100195690Y-62193126D01*
X100272337Y-62254470D01*
X100347455Y-62317677D01*
X100420999Y-62382707D01*
X100492926Y-62449524D01*
X100563191Y-62518085D01*
X100631752Y-62588350D01*
X100698568Y-62660276D01*
X100763599Y-62733821D01*
X100826805Y-62808939D01*
X100888149Y-62885586D01*
X100947594Y-62963715D01*
X101005103Y-63043279D01*
X101060642Y-63124231D01*
X101114178Y-63206521D01*
X101165678Y-63290101D01*
X101215111Y-63374919D01*
X101262449Y-63460925D01*
X101307661Y-63548067D01*
X101350721Y-63636292D01*
X101391603Y-63725547D01*
X101430282Y-63815778D01*
X101466735Y-63906932D01*
X101500940Y-63998952D01*
X101532876Y-64091785D01*
X101562525Y-64185373D01*
X101589868Y-64279661D01*
X101614888Y-64374591D01*
X101637572Y-64470107D01*
X101657905Y-64566151D01*
X101675874Y-64662664D01*
X101691470Y-64759590D01*
X101704682Y-64856869D01*
X101715502Y-64954443D01*
X101723925Y-65052254D01*
X101729945Y-65150241D01*
X101733559Y-65248347D01*
X101734763Y-65346512D01*
X101733559Y-65444677D01*
X101729945Y-65542783D01*
X101723925Y-65640770D01*
X101715502Y-65738580D01*
X101704682Y-65836155D01*
X101691470Y-65933434D01*
X101675874Y-66030359D01*
X101657905Y-66126873D01*
X101637572Y-66222917D01*
X101614888Y-66318433D01*
X101589868Y-66413363D01*
X101562525Y-66507651D01*
X101532876Y-66601239D01*
X101500940Y-66694071D01*
X101466735Y-66786092D01*
X101430282Y-66877246D01*
X101391603Y-66967477D01*
X101350721Y-67056732D01*
X101307661Y-67144957D01*
X101262449Y-67232099D01*
X101215111Y-67318105D01*
X101165678Y-67402923D01*
X101114178Y-67486502D01*
X101060642Y-67568793D01*
X101005103Y-67649745D01*
X100947594Y-67729309D01*
X100888149Y-67807438D01*
X100826805Y-67884085D01*
X100763599Y-67959203D01*
X100698568Y-68032748D01*
X100631752Y-68104674D01*
X100563191Y-68174939D01*
X100492926Y-68243500D01*
X100420999Y-68310316D01*
X100347455Y-68375347D01*
X100272337Y-68438554D01*
X100195690Y-68499897D01*
X100117561Y-68559342D01*
X100037996Y-68616851D01*
X99957044Y-68672390D01*
X99874754Y-68725926D01*
X99791174Y-68777426D01*
X99706356Y-68826860D01*
X99620350Y-68874197D01*
X99533209Y-68919409D01*
X99444984Y-68962469D01*
X99355729Y-69003351D01*
X99265497Y-69042030D01*
X99174344Y-69078483D01*
X99082323Y-69112688D01*
X98989490Y-69144624D01*
X98895902Y-69174273D01*
X98801615Y-69201616D01*
X98706684Y-69226637D01*
X98611168Y-69249320D01*
X98515125Y-69269653D01*
X98418611Y-69287622D01*
X98321685Y-69303218D01*
X98224406Y-69316430D01*
X98126832Y-69327251D01*
X98029022Y-69335674D01*
X97931034Y-69341694D01*
X97832928Y-69345307D01*
X97734764Y-69346512D01*
X97636599Y-69345307D01*
X97538493Y-69341694D01*
X97440505Y-69335674D01*
X97342695Y-69327251D01*
X97245121Y-69316430D01*
X97147842Y-69303218D01*
X97050916Y-69287622D01*
X96954402Y-69269653D01*
X96858359Y-69249320D01*
X96762843Y-69226637D01*
X96667912Y-69201616D01*
X96573625Y-69174273D01*
X96480037Y-69144624D01*
X96387204Y-69112688D01*
X96295183Y-69078483D01*
X96204030Y-69042030D01*
X96113798Y-69003351D01*
X96024543Y-68962469D01*
X95936318Y-68919409D01*
X95849177Y-68874197D01*
X95763171Y-68826860D01*
X95678353Y-68777426D01*
X95594773Y-68725926D01*
X95512483Y-68672390D01*
X95431531Y-68616851D01*
X95351966Y-68559342D01*
X95273837Y-68499897D01*
X95197190Y-68438554D01*
X95122072Y-68375347D01*
X95048528Y-68310316D01*
X94976601Y-68243500D01*
X94906336Y-68174939D01*
X94837775Y-68104674D01*
X94770959Y-68032748D01*
X94705928Y-67959203D01*
X94642722Y-67884085D01*
X94581378Y-67807438D01*
X94521933Y-67729309D01*
X94464424Y-67649745D01*
X94408885Y-67568793D01*
X94355349Y-67486502D01*
X94303849Y-67402923D01*
X94254416Y-67318105D01*
X94207078Y-67232099D01*
X94161866Y-67144957D01*
X94118806Y-67056732D01*
X94077925Y-66967477D01*
X94039245Y-66877246D01*
X94002792Y-66786092D01*
X93968587Y-66694071D01*
X93936651Y-66601239D01*
X93907002Y-66507651D01*
X93879659Y-66413363D01*
X93854639Y-66318433D01*
X93831955Y-66222917D01*
X93811622Y-66126873D01*
X93793653Y-66030359D01*
X93778058Y-65933434D01*
X93764845Y-65836155D01*
X93754025Y-65738580D01*
X93745602Y-65640770D01*
X93739582Y-65542783D01*
X93735968Y-65444677D01*
X93734764Y-65346512D01*
X93735968Y-65248347D01*
X93739582Y-65150241D01*
X93745602Y-65052254D01*
X93754025Y-64954443D01*
X93764845Y-64856869D01*
X93778058Y-64759590D01*
X93793653Y-64662664D01*
X93811622Y-64566151D01*
X93831955Y-64470107D01*
X93854639Y-64374591D01*
X93879659Y-64279661D01*
X93907002Y-64185373D01*
X93936651Y-64091785D01*
X93968587Y-63998952D01*
X94002792Y-63906932D01*
X94039245Y-63815778D01*
X94077925Y-63725547D01*
X94118806Y-63636292D01*
X94161866Y-63548067D01*
X94207078Y-63460925D01*
X94254416Y-63374919D01*
X94303849Y-63290101D01*
X94355349Y-63206521D01*
X94408885Y-63124231D01*
X94464424Y-63043279D01*
X94521933Y-62963715D01*
X94581378Y-62885586D01*
X94642722Y-62808939D01*
X94705928Y-62733821D01*
X94770959Y-62660276D01*
X94837775Y-62588350D01*
X94906336Y-62518085D01*
X94976601Y-62449524D01*
X95048528Y-62382707D01*
X95122072Y-62317677D01*
X95197190Y-62254470D01*
X95273837Y-62193126D01*
X95351966Y-62133682D01*
X95431531Y-62076173D01*
X95512483Y-62020634D01*
X95594773Y-61967098D01*
X95678353Y-61915598D01*
X95763171Y-61866164D01*
X95849177Y-61818827D01*
X95936318Y-61773615D01*
X96024543Y-61730555D01*
X96113798Y-61689673D01*
X96204030Y-61650994D01*
X96295183Y-61614541D01*
X96387204Y-61580336D01*
X96480037Y-61548399D01*
X96573625Y-61518751D01*
X96667912Y-61491408D01*
X96762843Y-61466387D01*
X96858359Y-61443703D01*
X96954402Y-61423371D01*
X97050916Y-61405401D01*
X97147842Y-61389806D01*
X97245121Y-61376594D01*
X97342695Y-61365773D01*
X97440505Y-61357350D01*
X97538493Y-61351330D01*
X97636599Y-61347717D01*
X97734764Y-61346512D01*
X97832928Y-61347717D01*
X231832919Y-61347717D02*
X231931025Y-61351330D01*
X232029013Y-61357350D01*
X232126823Y-61365773D01*
X232224397Y-61376594D01*
X232321676Y-61389806D01*
X232418602Y-61405401D01*
X232515116Y-61423371D01*
X232611159Y-61443703D01*
X232706675Y-61466387D01*
X232801605Y-61491407D01*
X232895893Y-61518750D01*
X232989481Y-61548399D01*
X233082314Y-61580335D01*
X233174335Y-61614540D01*
X233265488Y-61650994D01*
X233355720Y-61689673D01*
X233444975Y-61730554D01*
X233533200Y-61773614D01*
X233620342Y-61818827D01*
X233706347Y-61866164D01*
X233791166Y-61915597D01*
X233874745Y-61967097D01*
X233957036Y-62020633D01*
X234037988Y-62076172D01*
X234117552Y-62133681D01*
X234195681Y-62193126D01*
X234272328Y-62254470D01*
X234347446Y-62317676D01*
X234420991Y-62382707D01*
X234492917Y-62449523D01*
X234563182Y-62518084D01*
X234631743Y-62588349D01*
X234698559Y-62660276D01*
X234763590Y-62733820D01*
X234826797Y-62808938D01*
X234888141Y-62885585D01*
X234947585Y-62963714D01*
X235005094Y-63043279D01*
X235060634Y-63124231D01*
X235114169Y-63206521D01*
X235165670Y-63290101D01*
X235215103Y-63374919D01*
X235262440Y-63460925D01*
X235307652Y-63548066D01*
X235350712Y-63636291D01*
X235391594Y-63725546D01*
X235430273Y-63815778D01*
X235466726Y-63906932D01*
X235500932Y-63998952D01*
X235532868Y-64091785D01*
X235562517Y-64185373D01*
X235589860Y-64279661D01*
X235614880Y-64374591D01*
X235637564Y-64470107D01*
X235657896Y-64566150D01*
X235675866Y-64662664D01*
X235691461Y-64759590D01*
X235704673Y-64856869D01*
X235715494Y-64954443D01*
X235723917Y-65052254D01*
X235729937Y-65150241D01*
X235733551Y-65248347D01*
X235734755Y-65346512D01*
X235733551Y-65444677D01*
X235729937Y-65542783D01*
X235723917Y-65640770D01*
X235715494Y-65738580D01*
X235704673Y-65836155D01*
X235691461Y-65933434D01*
X235675866Y-66030359D01*
X235657896Y-66126873D01*
X235637564Y-66222917D01*
X235614880Y-66318433D01*
X235589860Y-66413363D01*
X235562517Y-66507651D01*
X235532868Y-66601239D01*
X235500932Y-66694071D01*
X235466726Y-66786092D01*
X235430273Y-66877246D01*
X235391594Y-66967477D01*
X235350712Y-67056732D01*
X235307652Y-67144957D01*
X235262440Y-67232099D01*
X235215103Y-67318105D01*
X235165670Y-67402923D01*
X235114169Y-67486503D01*
X235060634Y-67568793D01*
X235005094Y-67649745D01*
X234947585Y-67729309D01*
X234888141Y-67807438D01*
X234826797Y-67884085D01*
X234763590Y-67959204D01*
X234698559Y-68032748D01*
X234631743Y-68104674D01*
X234563182Y-68174939D01*
X234492917Y-68243500D01*
X234420991Y-68310317D01*
X234347446Y-68375348D01*
X234272328Y-68438554D01*
X234195681Y-68499898D01*
X234117552Y-68559342D01*
X234037988Y-68616851D01*
X233957036Y-68672391D01*
X233874745Y-68725926D01*
X233791166Y-68777427D01*
X233706347Y-68826860D01*
X233620342Y-68874197D01*
X233533200Y-68919409D01*
X233444975Y-68962469D01*
X233355720Y-69003351D01*
X233265488Y-69042030D01*
X233174335Y-69078483D01*
X233082314Y-69112688D01*
X232989481Y-69144625D01*
X232895893Y-69174273D01*
X232801605Y-69201616D01*
X232706675Y-69226637D01*
X232611159Y-69249320D01*
X232515116Y-69269653D01*
X232418602Y-69287622D01*
X232321676Y-69303218D01*
X232224397Y-69316430D01*
X232126823Y-69327251D01*
X232029013Y-69335674D01*
X231931025Y-69341694D01*
X231832919Y-69345307D01*
X231734754Y-69346512D01*
X231636589Y-69345307D01*
X231538483Y-69341694D01*
X231440496Y-69335674D01*
X231342686Y-69327251D01*
X231245111Y-69316430D01*
X231147832Y-69303218D01*
X231050907Y-69287622D01*
X230954393Y-69269653D01*
X230858349Y-69249320D01*
X230762833Y-69226637D01*
X230667903Y-69201616D01*
X230573615Y-69174273D01*
X230480027Y-69144625D01*
X230387195Y-69112688D01*
X230295174Y-69078483D01*
X230204020Y-69042030D01*
X230113789Y-69003351D01*
X230024533Y-68962469D01*
X229936308Y-68919409D01*
X229849167Y-68874197D01*
X229763161Y-68826860D01*
X229678343Y-68777427D01*
X229594763Y-68725926D01*
X229512473Y-68672391D01*
X229431521Y-68616851D01*
X229351956Y-68559342D01*
X229273827Y-68499898D01*
X229197180Y-68438554D01*
X229122062Y-68375348D01*
X229048518Y-68310317D01*
X228976591Y-68243500D01*
X228906326Y-68174939D01*
X228837765Y-68104674D01*
X228770949Y-68032748D01*
X228705918Y-67959204D01*
X228642712Y-67884085D01*
X228581368Y-67807438D01*
X228521923Y-67729309D01*
X228464414Y-67649745D01*
X228408875Y-67568793D01*
X228355339Y-67486503D01*
X228303839Y-67402923D01*
X228254405Y-67318105D01*
X228207068Y-67232099D01*
X228161856Y-67144957D01*
X228118796Y-67056732D01*
X228077914Y-66967477D01*
X228039235Y-66877246D01*
X228002782Y-66786092D01*
X227968577Y-66694071D01*
X227936640Y-66601239D01*
X227906992Y-66507651D01*
X227879649Y-66413363D01*
X227854628Y-66318433D01*
X227831945Y-66222917D01*
X227811612Y-66126873D01*
X227793643Y-66030359D01*
X227778047Y-65933434D01*
X227764835Y-65836155D01*
X227754014Y-65738580D01*
X227745591Y-65640770D01*
X227739571Y-65542783D01*
X227735958Y-65444677D01*
X227734753Y-65346512D01*
X227735958Y-65248347D01*
X227739571Y-65150241D01*
X227745591Y-65052254D01*
X227754014Y-64954443D01*
X227764835Y-64856869D01*
X227778047Y-64759590D01*
X227793643Y-64662664D01*
X227811612Y-64566150D01*
X227831945Y-64470107D01*
X227854628Y-64374591D01*
X227879649Y-64279661D01*
X227906992Y-64185373D01*
X227936640Y-64091785D01*
X227968577Y-63998952D01*
X228002782Y-63906932D01*
X228039235Y-63815778D01*
X228077914Y-63725546D01*
X228118796Y-63636291D01*
X228161856Y-63548066D01*
X228207068Y-63460925D01*
X228254405Y-63374919D01*
X228303839Y-63290101D01*
X228355339Y-63206521D01*
X228408875Y-63124231D01*
X228464414Y-63043279D01*
X228521923Y-62963714D01*
X228581368Y-62885585D01*
X228642712Y-62808938D01*
X228705918Y-62733820D01*
X228770949Y-62660276D01*
X228837765Y-62588349D01*
X228906326Y-62518084D01*
X228976591Y-62449523D01*
X229048518Y-62382707D01*
X229122062Y-62317676D01*
X229197180Y-62254470D01*
X229273827Y-62193126D01*
X229351956Y-62133681D01*
X229431521Y-62076172D01*
X229512473Y-62020633D01*
X229594763Y-61967097D01*
X229678343Y-61915597D01*
X229763161Y-61866164D01*
X229849167Y-61818827D01*
X229936308Y-61773614D01*
X230024533Y-61730554D01*
X230113789Y-61689673D01*
X230204020Y-61650994D01*
X230295174Y-61614540D01*
X230387195Y-61580335D01*
X230480027Y-61548399D01*
X230573615Y-61518750D01*
X230667903Y-61491407D01*
X230762833Y-61466387D01*
X230858349Y-61443703D01*
X230954393Y-61423371D01*
X231050907Y-61405401D01*
X231147832Y-61389806D01*
X231245111Y-61376594D01*
X231342686Y-61365773D01*
X231440496Y-61357350D01*
X231538483Y-61351330D01*
X231636589Y-61347717D01*
X231734754Y-61346512D01*
X231832919Y-61347717D01*
X234411340Y-57347913D02*
X234536054Y-57352097D01*
X234660029Y-57359033D01*
X234783233Y-57368692D01*
X234905638Y-57381045D01*
X235027214Y-57396062D01*
X235147931Y-57413713D01*
X235267760Y-57433970D01*
X235386671Y-57456801D01*
X235504635Y-57482178D01*
X235621621Y-57510071D01*
X235737601Y-57540450D01*
X235852544Y-57573286D01*
X235966421Y-57608550D01*
X236079203Y-57646211D01*
X236190860Y-57686240D01*
X236301362Y-57728607D01*
X236410680Y-57773283D01*
X236518784Y-57820239D01*
X236625644Y-57869444D01*
X236731231Y-57920869D01*
X236835515Y-57974484D01*
X236938467Y-58030260D01*
X237040057Y-58088168D01*
X237140256Y-58148177D01*
X237239033Y-58210258D01*
X237336359Y-58274382D01*
X237432205Y-58340518D01*
X237526541Y-58408638D01*
X237619338Y-58478711D01*
X237710565Y-58550708D01*
X237800194Y-58624600D01*
X237888194Y-58700357D01*
X237974536Y-58777949D01*
X238059191Y-58857346D01*
X238142128Y-58938520D01*
X238223319Y-59021440D01*
X238302733Y-59106076D01*
X238380341Y-59192401D01*
X238456113Y-59280382D01*
X238530020Y-59369992D01*
X238602033Y-59461200D01*
X238672121Y-59553978D01*
X238740254Y-59648294D01*
X238806405Y-59744120D01*
X238870542Y-59841426D01*
X238932636Y-59940183D01*
X238992657Y-60040360D01*
X239050577Y-60141929D01*
X239106365Y-60244860D01*
X239159992Y-60349122D01*
X239211427Y-60454687D01*
X239260643Y-60561525D01*
X239307608Y-60669606D01*
X239352293Y-60778901D01*
X239394670Y-60889380D01*
X239434707Y-61001014D01*
X239472376Y-61113772D01*
X239507646Y-61227626D01*
X239540489Y-61342545D01*
X239570875Y-61458501D01*
X239598774Y-61575463D01*
X239624156Y-61693402D01*
X239646992Y-61812288D01*
X239667253Y-61932092D01*
X239684908Y-62052784D01*
X239699928Y-62174334D01*
X239712283Y-62296714D01*
X239721945Y-62419892D01*
X239728883Y-62543841D01*
X239733067Y-62668529D01*
X239734468Y-62793929D01*
X239734468Y-131726091D01*
X239733067Y-131851490D01*
X239728883Y-131976179D01*
X239721945Y-132100127D01*
X239712283Y-132223306D01*
X239699928Y-132345685D01*
X239684908Y-132467236D01*
X239667253Y-132587928D01*
X239646992Y-132707732D01*
X239624156Y-132826618D01*
X239598774Y-132944557D01*
X239570875Y-133061519D01*
X239540489Y-133177474D01*
X239507646Y-133292394D01*
X239472376Y-133406248D01*
X239434707Y-133519006D01*
X239394670Y-133630639D01*
X239352293Y-133741118D01*
X239307608Y-133850413D01*
X239260643Y-133958495D01*
X239211427Y-134065333D01*
X239159992Y-134170898D01*
X239106365Y-134275160D01*
X239050577Y-134378091D01*
X238992657Y-134479659D01*
X238932636Y-134579837D01*
X238870542Y-134678594D01*
X238806405Y-134775900D01*
X238740254Y-134871726D01*
X238672121Y-134966042D01*
X238602033Y-135058820D01*
X238530020Y-135150028D01*
X238456113Y-135239638D01*
X238380341Y-135327620D01*
X238302733Y-135413944D01*
X238223319Y-135498581D01*
X238142128Y-135581501D01*
X238059191Y-135662674D01*
X237974536Y-135742072D01*
X237888194Y-135819664D01*
X237800194Y-135895420D01*
X237710565Y-135969312D01*
X237619338Y-136041309D01*
X237526541Y-136111383D01*
X237432205Y-136179502D01*
X237336359Y-136245639D01*
X237239033Y-136309762D01*
X237140256Y-136371843D01*
X237040057Y-136431853D01*
X236938467Y-136489760D01*
X236835515Y-136545536D01*
X236731231Y-136599152D01*
X236625644Y-136650577D01*
X236518784Y-136699782D01*
X236410680Y-136746737D01*
X236301362Y-136791413D01*
X236190860Y-136833781D01*
X236079203Y-136873810D01*
X235966421Y-136911471D01*
X235852544Y-136946734D01*
X235737601Y-136979570D01*
X235621621Y-137009950D01*
X235504635Y-137037843D01*
X235386671Y-137063219D01*
X235267760Y-137086051D01*
X235147931Y-137106307D01*
X235027214Y-137123958D01*
X234905638Y-137138975D01*
X234783233Y-137151328D01*
X234660029Y-137160988D01*
X234536054Y-137167924D01*
X234411340Y-137172107D01*
X234285915Y-137173508D01*
X95183316Y-137173508D01*
X95057891Y-137172107D01*
X94933176Y-137167924D01*
X94809202Y-137160988D01*
X94685997Y-137151328D01*
X94563592Y-137138975D01*
X94442016Y-137123958D01*
X94321299Y-137106307D01*
X94201470Y-137086051D01*
X94082559Y-137063219D01*
X93964596Y-137037843D01*
X93847610Y-137009950D01*
X93731630Y-136979570D01*
X93616687Y-136946734D01*
X93502809Y-136911471D01*
X93390027Y-136873810D01*
X93278371Y-136833781D01*
X93167868Y-136791413D01*
X93058551Y-136746737D01*
X92950447Y-136699782D01*
X92843587Y-136650577D01*
X92738000Y-136599152D01*
X92633716Y-136545536D01*
X92530764Y-136489760D01*
X92429174Y-136431853D01*
X92328975Y-136371843D01*
X92230198Y-136309762D01*
X92132872Y-136245639D01*
X92037025Y-136179502D01*
X91942689Y-136111383D01*
X91849893Y-136041309D01*
X91758666Y-135969312D01*
X91669037Y-135895420D01*
X91581037Y-135819664D01*
X91494695Y-135742072D01*
X91410040Y-135662674D01*
X91327103Y-135581501D01*
X91245912Y-135498581D01*
X91166498Y-135413944D01*
X91088890Y-135327620D01*
X91013118Y-135239638D01*
X90939211Y-135150028D01*
X90867198Y-135058820D01*
X90797111Y-134966042D01*
X90728977Y-134871726D01*
X90662826Y-134775900D01*
X90598690Y-134678594D01*
X90536595Y-134579837D01*
X90476574Y-134479659D01*
X90418654Y-134378091D01*
X90362866Y-134275160D01*
X90309240Y-134170898D01*
X90257804Y-134065333D01*
X90208589Y-133958495D01*
X90161623Y-133850413D01*
X90116938Y-133741118D01*
X90074562Y-133630639D01*
X90034524Y-133519006D01*
X89996856Y-133406248D01*
X89961585Y-133292394D01*
X89928742Y-133177474D01*
X89898356Y-133061519D01*
X89870458Y-132944557D01*
X89845075Y-132826618D01*
X89822239Y-132707732D01*
X89801979Y-132587928D01*
X89784324Y-132467236D01*
X89769304Y-132345685D01*
X89756948Y-132223306D01*
X89747287Y-132100127D01*
X89740349Y-131976179D01*
X89736165Y-131851490D01*
X89734763Y-131726091D01*
X89734763Y-62793929D01*
X89736165Y-62668529D01*
X89740349Y-62543841D01*
X89747287Y-62419892D01*
X89756948Y-62296714D01*
X89769304Y-62174334D01*
X89784324Y-62052784D01*
X89801979Y-61932092D01*
X89822239Y-61812288D01*
X89845075Y-61693402D01*
X89870458Y-61575463D01*
X89898356Y-61458501D01*
X89928742Y-61342545D01*
X89961585Y-61227626D01*
X89996856Y-61113772D01*
X90034524Y-61001014D01*
X90074562Y-60889380D01*
X90116938Y-60778901D01*
X90161623Y-60669606D01*
X90208589Y-60561525D01*
X90257804Y-60454687D01*
X90309240Y-60349122D01*
X90362866Y-60244860D01*
X90418654Y-60141929D01*
X90476574Y-60040360D01*
X90536595Y-59940183D01*
X90598690Y-59841426D01*
X90662826Y-59744120D01*
X90728977Y-59648294D01*
X90797111Y-59553978D01*
X90867198Y-59461200D01*
X90939211Y-59369992D01*
X91013118Y-59280382D01*
X91088890Y-59192401D01*
X91166498Y-59106076D01*
X91245912Y-59021440D01*
X91327103Y-58938520D01*
X91410040Y-58857346D01*
X91494695Y-58777949D01*
X91581037Y-58700357D01*
X91669037Y-58624600D01*
X91758666Y-58550708D01*
X91849893Y-58478711D01*
X91942689Y-58408638D01*
X92037025Y-58340518D01*
X92132872Y-58274382D01*
X92230198Y-58210258D01*
X92328975Y-58148177D01*
X92429174Y-58088168D01*
X92530764Y-58030260D01*
X92633716Y-57974484D01*
X92738000Y-57920869D01*
X92843587Y-57869444D01*
X92950447Y-57820239D01*
X93058551Y-57773283D01*
X93167868Y-57728607D01*
X93278371Y-57686240D01*
X93390027Y-57646211D01*
X93502809Y-57608550D01*
X93616687Y-57573286D01*
X93731630Y-57540450D01*
X93847610Y-57510071D01*
X93964596Y-57482178D01*
X94082559Y-57456801D01*
X94201470Y-57433970D01*
X94321299Y-57413713D01*
X94442016Y-57396062D01*
X94563592Y-57381045D01*
X94685997Y-57368692D01*
X94809202Y-57359033D01*
X94933176Y-57352097D01*
X95057891Y-57347913D01*
X95183316Y-57346512D01*
X234285915Y-57346512D01*
X234411340Y-57347913D01*
%TD*%
M02*
