%TF.GenerationSoftware,KiCad,Pcbnew,7.0.1-0*%
%TF.CreationDate,2023-04-14T16:50:05-04:00*%
%TF.ProjectId,WrightSpace,57726967-6874-4537-9061-63652e6b6963,v01*%
%TF.SameCoordinates,Original*%
%TF.FileFunction,Drillmap*%
%TF.FilePolarity,Positive*%
%FSLAX45Y45*%
G04 Gerber Fmt 4.5, Leading zero omitted, Abs format (unit mm)*
G04 Created by KiCad (PCBNEW 7.0.1-0) date 2023-04-14 16:50:05*
%MOMM*%
%LPD*%
G01*
G04 APERTURE LIST*
%ADD10C,0.200000*%
%ADD11C,0.040000*%
%ADD12C,0.076200*%
%ADD13C,0.102000*%
G04 APERTURE END LIST*
D10*
D11*
X9226150Y-8183240D02*
X9266150Y-8223240D01*
X9266150Y-8183240D02*
X9226150Y-8223240D01*
X9867260Y-10849220D02*
X9907260Y-10889220D01*
X9907260Y-10849220D02*
X9867260Y-10889220D01*
X10292400Y-8031800D02*
X10332400Y-8071800D01*
X10332400Y-8031800D02*
X10292400Y-8071800D01*
X10722200Y-10584290D02*
X10762200Y-10624290D01*
X10762200Y-10584290D02*
X10722200Y-10624290D01*
X10897350Y-11932040D02*
X10937350Y-11972040D01*
X10937350Y-11932040D02*
X10897350Y-11972040D01*
X11384600Y-10927400D02*
X11424600Y-10967400D01*
X11424600Y-10927400D02*
X11384600Y-10967400D01*
X11548170Y-10579030D02*
X11588170Y-10619030D01*
X11588170Y-10579030D02*
X11548170Y-10619030D01*
X11833370Y-10840850D02*
X11873370Y-10880850D01*
X11873370Y-10840850D02*
X11833370Y-10880850D01*
X12380460Y-9630950D02*
X12420460Y-9670950D01*
X12420460Y-9630950D02*
X12380460Y-9670950D01*
X12483920Y-10942430D02*
X12523920Y-10982430D01*
X12523920Y-10942430D02*
X12483920Y-10982430D01*
X13442000Y-10952800D02*
X13482000Y-10992800D01*
X13482000Y-10952800D02*
X13442000Y-10992800D01*
X15755640Y-8943770D02*
X15795640Y-8983770D01*
X15795640Y-8943770D02*
X15755640Y-8983770D01*
X15860710Y-10087040D02*
X15900710Y-10127040D01*
X15900710Y-10087040D02*
X15860710Y-10127040D01*
X17823870Y-9456670D02*
X17863870Y-9496670D01*
X17863870Y-9456670D02*
X17823870Y-9496670D01*
X18187440Y-8927700D02*
X18227440Y-8967700D01*
X18227440Y-8927700D02*
X18187440Y-8967700D01*
X18299900Y-8144800D02*
X18339900Y-8184800D01*
X18339900Y-8144800D02*
X18299900Y-8184800D01*
X18579330Y-8513170D02*
X18619330Y-8553170D01*
X18619330Y-8513170D02*
X18579330Y-8553170D01*
X18579710Y-10797170D02*
X18619710Y-10837170D01*
X18619710Y-10797170D02*
X18579710Y-10837170D01*
X18675130Y-10963070D02*
X18715130Y-11003070D01*
X18715130Y-10963070D02*
X18675130Y-11003070D01*
X18695430Y-7953670D02*
X18735430Y-7993670D01*
X18735430Y-7953670D02*
X18695430Y-7993670D01*
X18730190Y-11542050D02*
X18770190Y-11582050D01*
X18770190Y-11542050D02*
X18730190Y-11582050D01*
X18742970Y-8071640D02*
X18782970Y-8111640D01*
X18782970Y-8071640D02*
X18742970Y-8111640D01*
X18845170Y-11653910D02*
X18885170Y-11693910D01*
X18885170Y-11653910D02*
X18845170Y-11693910D01*
X18880820Y-12134840D02*
X18920820Y-12174840D01*
X18920820Y-12134840D02*
X18880820Y-12174840D01*
X19004600Y-10927400D02*
X19044600Y-10967400D01*
X19044600Y-10927400D02*
X19004600Y-10967400D01*
X19074730Y-11666420D02*
X19114730Y-11706420D01*
X19114730Y-11666420D02*
X19074730Y-11706420D01*
X19138900Y-8078800D02*
X19178900Y-8118800D01*
X19178900Y-8078800D02*
X19138900Y-8118800D01*
X19146590Y-11745400D02*
X19186590Y-11785400D01*
X19186590Y-11745400D02*
X19146590Y-11785400D01*
X19307580Y-8071050D02*
X19347580Y-8111050D01*
X19347580Y-8071050D02*
X19307580Y-8111050D01*
X19417900Y-8149210D02*
X19457900Y-8189210D01*
X19457900Y-8149210D02*
X19417900Y-8189210D01*
X19418140Y-8468980D02*
X19458140Y-8508980D01*
X19458140Y-8468980D02*
X19418140Y-8508980D01*
X19420310Y-8783770D02*
X19460310Y-8823770D01*
X19460310Y-8783770D02*
X19420310Y-8823770D01*
X19461800Y-7320600D02*
X19501800Y-7360600D01*
X19501800Y-7320600D02*
X19461800Y-7360600D01*
X19629460Y-7395160D02*
X19669460Y-7435160D01*
X19669460Y-7395160D02*
X19629460Y-7435160D01*
X19732680Y-9354740D02*
X19772680Y-9394740D01*
X19772680Y-9354740D02*
X19732680Y-9394740D01*
X19803690Y-9587430D02*
X19843690Y-9627430D01*
X19843690Y-9587430D02*
X19803690Y-9627430D01*
X19919110Y-9625650D02*
X19959110Y-9665650D01*
X19959110Y-9625650D02*
X19919110Y-9665650D01*
X19943280Y-9037260D02*
X19983280Y-9077260D01*
X19983280Y-9037260D02*
X19943280Y-9077260D01*
X20072250Y-7557300D02*
X20112250Y-7597300D01*
X20112250Y-7557300D02*
X20072250Y-7597300D01*
X20096800Y-6457000D02*
X20136800Y-6497000D01*
X20136800Y-6457000D02*
X20096800Y-6497000D01*
X20187890Y-9441880D02*
X20227890Y-9481880D01*
X20227890Y-9441880D02*
X20187890Y-9481880D01*
X20192520Y-9037260D02*
X20232520Y-9077260D01*
X20232520Y-9037260D02*
X20192520Y-9077260D01*
X20247670Y-12073600D02*
X20287670Y-12113600D01*
X20287670Y-12073600D02*
X20247670Y-12113600D01*
X20261340Y-9633730D02*
X20301340Y-9673730D01*
X20301340Y-9633730D02*
X20261340Y-9673730D01*
X20268440Y-10238900D02*
X20308440Y-10278900D01*
X20308440Y-10238900D02*
X20268440Y-10278900D01*
X20369610Y-10159200D02*
X20409610Y-10199200D01*
X20409610Y-10159200D02*
X20369610Y-10199200D01*
X20681000Y-6609400D02*
X20721000Y-6649400D01*
X20721000Y-6609400D02*
X20681000Y-6649400D01*
X21331490Y-8710140D02*
X21371490Y-8750140D01*
X21371490Y-8710140D02*
X21331490Y-8750140D01*
X22544430Y-7419410D02*
X22584430Y-7459410D01*
X22584430Y-7419410D02*
X22544430Y-7459410D01*
D12*
X9994900Y-7543800D02*
G75*
G03*
X9994900Y-7543800I-38100J0D01*
G01*
X9994900Y-7797800D02*
G75*
G03*
X9994900Y-7797800I-38100J0D01*
G01*
X10248900Y-7543800D02*
G75*
G03*
X10248900Y-7543800I-38100J0D01*
G01*
X10248900Y-7797800D02*
G75*
G03*
X10248900Y-7797800I-38100J0D01*
G01*
X10502900Y-7543800D02*
G75*
G03*
X10502900Y-7543800I-38100J0D01*
G01*
X10502900Y-7797800D02*
G75*
G03*
X10502900Y-7797800I-38100J0D01*
G01*
X23025100Y-10033000D02*
G75*
G03*
X23025100Y-10033000I-38100J0D01*
G01*
X23025100Y-10287000D02*
G75*
G03*
X23025100Y-10287000I-38100J0D01*
G01*
X23025100Y-10541000D02*
G75*
G03*
X23025100Y-10541000I-38100J0D01*
G01*
X23279100Y-10033000D02*
G75*
G03*
X23279100Y-10033000I-38100J0D01*
G01*
X23279100Y-10287000D02*
G75*
G03*
X23279100Y-10287000I-38100J0D01*
G01*
X23279100Y-10541000D02*
G75*
G03*
X23279100Y-10541000I-38100J0D01*
G01*
D13*
X13690600Y-6121200D02*
X13690600Y-6223200D01*
X13639600Y-6172200D02*
X13741600Y-6172200D01*
X14960600Y-6121200D02*
X14960600Y-6223200D01*
X14909600Y-6172200D02*
X15011600Y-6172200D01*
D10*
X9221095Y-14029875D02*
X9221095Y-13829875D01*
X9221095Y-13829875D02*
X9268714Y-13829875D01*
X9268714Y-13829875D02*
X9297285Y-13839399D01*
X9297285Y-13839399D02*
X9316333Y-13858446D01*
X9316333Y-13858446D02*
X9325857Y-13877494D01*
X9325857Y-13877494D02*
X9335381Y-13915589D01*
X9335381Y-13915589D02*
X9335381Y-13944161D01*
X9335381Y-13944161D02*
X9325857Y-13982256D01*
X9325857Y-13982256D02*
X9316333Y-14001304D01*
X9316333Y-14001304D02*
X9297285Y-14020351D01*
X9297285Y-14020351D02*
X9268714Y-14029875D01*
X9268714Y-14029875D02*
X9221095Y-14029875D01*
X9421095Y-14029875D02*
X9421095Y-13896542D01*
X9421095Y-13934637D02*
X9430619Y-13915589D01*
X9430619Y-13915589D02*
X9440142Y-13906065D01*
X9440142Y-13906065D02*
X9459190Y-13896542D01*
X9459190Y-13896542D02*
X9478238Y-13896542D01*
X9544904Y-14029875D02*
X9544904Y-13896542D01*
X9544904Y-13829875D02*
X9535381Y-13839399D01*
X9535381Y-13839399D02*
X9544904Y-13848923D01*
X9544904Y-13848923D02*
X9554428Y-13839399D01*
X9554428Y-13839399D02*
X9544904Y-13829875D01*
X9544904Y-13829875D02*
X9544904Y-13848923D01*
X9668714Y-14029875D02*
X9649666Y-14020351D01*
X9649666Y-14020351D02*
X9640142Y-14001304D01*
X9640142Y-14001304D02*
X9640142Y-13829875D01*
X9773476Y-14029875D02*
X9754428Y-14020351D01*
X9754428Y-14020351D02*
X9744904Y-14001304D01*
X9744904Y-14001304D02*
X9744904Y-13829875D01*
X10002047Y-14029875D02*
X10002047Y-13829875D01*
X10002047Y-13829875D02*
X10068714Y-13972732D01*
X10068714Y-13972732D02*
X10135381Y-13829875D01*
X10135381Y-13829875D02*
X10135381Y-14029875D01*
X10316333Y-14029875D02*
X10316333Y-13925113D01*
X10316333Y-13925113D02*
X10306809Y-13906065D01*
X10306809Y-13906065D02*
X10287762Y-13896542D01*
X10287762Y-13896542D02*
X10249666Y-13896542D01*
X10249666Y-13896542D02*
X10230619Y-13906065D01*
X10316333Y-14020351D02*
X10297285Y-14029875D01*
X10297285Y-14029875D02*
X10249666Y-14029875D01*
X10249666Y-14029875D02*
X10230619Y-14020351D01*
X10230619Y-14020351D02*
X10221095Y-14001304D01*
X10221095Y-14001304D02*
X10221095Y-13982256D01*
X10221095Y-13982256D02*
X10230619Y-13963208D01*
X10230619Y-13963208D02*
X10249666Y-13953685D01*
X10249666Y-13953685D02*
X10297285Y-13953685D01*
X10297285Y-13953685D02*
X10316333Y-13944161D01*
X10411571Y-13896542D02*
X10411571Y-14096542D01*
X10411571Y-13906065D02*
X10430619Y-13896542D01*
X10430619Y-13896542D02*
X10468714Y-13896542D01*
X10468714Y-13896542D02*
X10487762Y-13906065D01*
X10487762Y-13906065D02*
X10497285Y-13915589D01*
X10497285Y-13915589D02*
X10506809Y-13934637D01*
X10506809Y-13934637D02*
X10506809Y-13991780D01*
X10506809Y-13991780D02*
X10497285Y-14010827D01*
X10497285Y-14010827D02*
X10487762Y-14020351D01*
X10487762Y-14020351D02*
X10468714Y-14029875D01*
X10468714Y-14029875D02*
X10430619Y-14029875D01*
X10430619Y-14029875D02*
X10411571Y-14020351D01*
X10592523Y-14010827D02*
X10602047Y-14020351D01*
X10602047Y-14020351D02*
X10592523Y-14029875D01*
X10592523Y-14029875D02*
X10583000Y-14020351D01*
X10583000Y-14020351D02*
X10592523Y-14010827D01*
X10592523Y-14010827D02*
X10592523Y-14029875D01*
X10592523Y-13906065D02*
X10602047Y-13915589D01*
X10602047Y-13915589D02*
X10592523Y-13925113D01*
X10592523Y-13925113D02*
X10583000Y-13915589D01*
X10583000Y-13915589D02*
X10592523Y-13906065D01*
X10592523Y-13906065D02*
X10592523Y-13925113D01*
D11*
X8933476Y-14337351D02*
X8973476Y-14377351D01*
X8973476Y-14337351D02*
X8933476Y-14377351D01*
D10*
X9259190Y-14249875D02*
X9278238Y-14249875D01*
X9278238Y-14249875D02*
X9297285Y-14259399D01*
X9297285Y-14259399D02*
X9306809Y-14268923D01*
X9306809Y-14268923D02*
X9316333Y-14287970D01*
X9316333Y-14287970D02*
X9325857Y-14326065D01*
X9325857Y-14326065D02*
X9325857Y-14373685D01*
X9325857Y-14373685D02*
X9316333Y-14411780D01*
X9316333Y-14411780D02*
X9306809Y-14430827D01*
X9306809Y-14430827D02*
X9297285Y-14440351D01*
X9297285Y-14440351D02*
X9278238Y-14449875D01*
X9278238Y-14449875D02*
X9259190Y-14449875D01*
X9259190Y-14449875D02*
X9240142Y-14440351D01*
X9240142Y-14440351D02*
X9230619Y-14430827D01*
X9230619Y-14430827D02*
X9221095Y-14411780D01*
X9221095Y-14411780D02*
X9211571Y-14373685D01*
X9211571Y-14373685D02*
X9211571Y-14326065D01*
X9211571Y-14326065D02*
X9221095Y-14287970D01*
X9221095Y-14287970D02*
X9230619Y-14268923D01*
X9230619Y-14268923D02*
X9240142Y-14259399D01*
X9240142Y-14259399D02*
X9259190Y-14249875D01*
X9411571Y-14430827D02*
X9421095Y-14440351D01*
X9421095Y-14440351D02*
X9411571Y-14449875D01*
X9411571Y-14449875D02*
X9402047Y-14440351D01*
X9402047Y-14440351D02*
X9411571Y-14430827D01*
X9411571Y-14430827D02*
X9411571Y-14449875D01*
X9592523Y-14316542D02*
X9592523Y-14449875D01*
X9544904Y-14240351D02*
X9497285Y-14383208D01*
X9497285Y-14383208D02*
X9621095Y-14383208D01*
X9735381Y-14249875D02*
X9754428Y-14249875D01*
X9754428Y-14249875D02*
X9773476Y-14259399D01*
X9773476Y-14259399D02*
X9783000Y-14268923D01*
X9783000Y-14268923D02*
X9792523Y-14287970D01*
X9792523Y-14287970D02*
X9802047Y-14326065D01*
X9802047Y-14326065D02*
X9802047Y-14373685D01*
X9802047Y-14373685D02*
X9792523Y-14411780D01*
X9792523Y-14411780D02*
X9783000Y-14430827D01*
X9783000Y-14430827D02*
X9773476Y-14440351D01*
X9773476Y-14440351D02*
X9754428Y-14449875D01*
X9754428Y-14449875D02*
X9735381Y-14449875D01*
X9735381Y-14449875D02*
X9716333Y-14440351D01*
X9716333Y-14440351D02*
X9706809Y-14430827D01*
X9706809Y-14430827D02*
X9697285Y-14411780D01*
X9697285Y-14411780D02*
X9687762Y-14373685D01*
X9687762Y-14373685D02*
X9687762Y-14326065D01*
X9687762Y-14326065D02*
X9697285Y-14287970D01*
X9697285Y-14287970D02*
X9706809Y-14268923D01*
X9706809Y-14268923D02*
X9716333Y-14259399D01*
X9716333Y-14259399D02*
X9735381Y-14249875D01*
X9925857Y-14249875D02*
X9944904Y-14249875D01*
X9944904Y-14249875D02*
X9963952Y-14259399D01*
X9963952Y-14259399D02*
X9973476Y-14268923D01*
X9973476Y-14268923D02*
X9983000Y-14287970D01*
X9983000Y-14287970D02*
X9992523Y-14326065D01*
X9992523Y-14326065D02*
X9992523Y-14373685D01*
X9992523Y-14373685D02*
X9983000Y-14411780D01*
X9983000Y-14411780D02*
X9973476Y-14430827D01*
X9973476Y-14430827D02*
X9963952Y-14440351D01*
X9963952Y-14440351D02*
X9944904Y-14449875D01*
X9944904Y-14449875D02*
X9925857Y-14449875D01*
X9925857Y-14449875D02*
X9906809Y-14440351D01*
X9906809Y-14440351D02*
X9897285Y-14430827D01*
X9897285Y-14430827D02*
X9887762Y-14411780D01*
X9887762Y-14411780D02*
X9878238Y-14373685D01*
X9878238Y-14373685D02*
X9878238Y-14326065D01*
X9878238Y-14326065D02*
X9887762Y-14287970D01*
X9887762Y-14287970D02*
X9897285Y-14268923D01*
X9897285Y-14268923D02*
X9906809Y-14259399D01*
X9906809Y-14259399D02*
X9925857Y-14249875D01*
X10078238Y-14449875D02*
X10078238Y-14316542D01*
X10078238Y-14335589D02*
X10087762Y-14326065D01*
X10087762Y-14326065D02*
X10106809Y-14316542D01*
X10106809Y-14316542D02*
X10135381Y-14316542D01*
X10135381Y-14316542D02*
X10154428Y-14326065D01*
X10154428Y-14326065D02*
X10163952Y-14345113D01*
X10163952Y-14345113D02*
X10163952Y-14449875D01*
X10163952Y-14345113D02*
X10173476Y-14326065D01*
X10173476Y-14326065D02*
X10192523Y-14316542D01*
X10192523Y-14316542D02*
X10221095Y-14316542D01*
X10221095Y-14316542D02*
X10240143Y-14326065D01*
X10240143Y-14326065D02*
X10249666Y-14345113D01*
X10249666Y-14345113D02*
X10249666Y-14449875D01*
X10344904Y-14449875D02*
X10344904Y-14316542D01*
X10344904Y-14335589D02*
X10354428Y-14326065D01*
X10354428Y-14326065D02*
X10373476Y-14316542D01*
X10373476Y-14316542D02*
X10402047Y-14316542D01*
X10402047Y-14316542D02*
X10421095Y-14326065D01*
X10421095Y-14326065D02*
X10430619Y-14345113D01*
X10430619Y-14345113D02*
X10430619Y-14449875D01*
X10430619Y-14345113D02*
X10440143Y-14326065D01*
X10440143Y-14326065D02*
X10459190Y-14316542D01*
X10459190Y-14316542D02*
X10487762Y-14316542D01*
X10487762Y-14316542D02*
X10506809Y-14326065D01*
X10506809Y-14326065D02*
X10516333Y-14345113D01*
X10516333Y-14345113D02*
X10516333Y-14449875D01*
X10906809Y-14240351D02*
X10735381Y-14497494D01*
X11163952Y-14249875D02*
X11183000Y-14249875D01*
X11183000Y-14249875D02*
X11202047Y-14259399D01*
X11202047Y-14259399D02*
X11211571Y-14268923D01*
X11211571Y-14268923D02*
X11221095Y-14287970D01*
X11221095Y-14287970D02*
X11230619Y-14326065D01*
X11230619Y-14326065D02*
X11230619Y-14373685D01*
X11230619Y-14373685D02*
X11221095Y-14411780D01*
X11221095Y-14411780D02*
X11211571Y-14430827D01*
X11211571Y-14430827D02*
X11202047Y-14440351D01*
X11202047Y-14440351D02*
X11183000Y-14449875D01*
X11183000Y-14449875D02*
X11163952Y-14449875D01*
X11163952Y-14449875D02*
X11144905Y-14440351D01*
X11144905Y-14440351D02*
X11135381Y-14430827D01*
X11135381Y-14430827D02*
X11125857Y-14411780D01*
X11125857Y-14411780D02*
X11116333Y-14373685D01*
X11116333Y-14373685D02*
X11116333Y-14326065D01*
X11116333Y-14326065D02*
X11125857Y-14287970D01*
X11125857Y-14287970D02*
X11135381Y-14268923D01*
X11135381Y-14268923D02*
X11144905Y-14259399D01*
X11144905Y-14259399D02*
X11163952Y-14249875D01*
X11316333Y-14430827D02*
X11325857Y-14440351D01*
X11325857Y-14440351D02*
X11316333Y-14449875D01*
X11316333Y-14449875D02*
X11306809Y-14440351D01*
X11306809Y-14440351D02*
X11316333Y-14430827D01*
X11316333Y-14430827D02*
X11316333Y-14449875D01*
X11449666Y-14249875D02*
X11468714Y-14249875D01*
X11468714Y-14249875D02*
X11487762Y-14259399D01*
X11487762Y-14259399D02*
X11497285Y-14268923D01*
X11497285Y-14268923D02*
X11506809Y-14287970D01*
X11506809Y-14287970D02*
X11516333Y-14326065D01*
X11516333Y-14326065D02*
X11516333Y-14373685D01*
X11516333Y-14373685D02*
X11506809Y-14411780D01*
X11506809Y-14411780D02*
X11497285Y-14430827D01*
X11497285Y-14430827D02*
X11487762Y-14440351D01*
X11487762Y-14440351D02*
X11468714Y-14449875D01*
X11468714Y-14449875D02*
X11449666Y-14449875D01*
X11449666Y-14449875D02*
X11430619Y-14440351D01*
X11430619Y-14440351D02*
X11421095Y-14430827D01*
X11421095Y-14430827D02*
X11411571Y-14411780D01*
X11411571Y-14411780D02*
X11402047Y-14373685D01*
X11402047Y-14373685D02*
X11402047Y-14326065D01*
X11402047Y-14326065D02*
X11411571Y-14287970D01*
X11411571Y-14287970D02*
X11421095Y-14268923D01*
X11421095Y-14268923D02*
X11430619Y-14259399D01*
X11430619Y-14259399D02*
X11449666Y-14249875D01*
X11706809Y-14449875D02*
X11592524Y-14449875D01*
X11649666Y-14449875D02*
X11649666Y-14249875D01*
X11649666Y-14249875D02*
X11630619Y-14278446D01*
X11630619Y-14278446D02*
X11611571Y-14297494D01*
X11611571Y-14297494D02*
X11592524Y-14307018D01*
X11887762Y-14249875D02*
X11792524Y-14249875D01*
X11792524Y-14249875D02*
X11783000Y-14345113D01*
X11783000Y-14345113D02*
X11792524Y-14335589D01*
X11792524Y-14335589D02*
X11811571Y-14326065D01*
X11811571Y-14326065D02*
X11859190Y-14326065D01*
X11859190Y-14326065D02*
X11878238Y-14335589D01*
X11878238Y-14335589D02*
X11887762Y-14345113D01*
X11887762Y-14345113D02*
X11897285Y-14364161D01*
X11897285Y-14364161D02*
X11897285Y-14411780D01*
X11897285Y-14411780D02*
X11887762Y-14430827D01*
X11887762Y-14430827D02*
X11878238Y-14440351D01*
X11878238Y-14440351D02*
X11859190Y-14449875D01*
X11859190Y-14449875D02*
X11811571Y-14449875D01*
X11811571Y-14449875D02*
X11792524Y-14440351D01*
X11792524Y-14440351D02*
X11783000Y-14430827D01*
X11963952Y-14249875D02*
X12097285Y-14249875D01*
X12097285Y-14249875D02*
X12011571Y-14449875D01*
X12163952Y-14249875D02*
X12163952Y-14287970D01*
X12240143Y-14249875D02*
X12240143Y-14287970D01*
X12535381Y-14526065D02*
X12525857Y-14516542D01*
X12525857Y-14516542D02*
X12506809Y-14487970D01*
X12506809Y-14487970D02*
X12497286Y-14468923D01*
X12497286Y-14468923D02*
X12487762Y-14440351D01*
X12487762Y-14440351D02*
X12478238Y-14392732D01*
X12478238Y-14392732D02*
X12478238Y-14354637D01*
X12478238Y-14354637D02*
X12487762Y-14307018D01*
X12487762Y-14307018D02*
X12497286Y-14278446D01*
X12497286Y-14278446D02*
X12506809Y-14259399D01*
X12506809Y-14259399D02*
X12525857Y-14230827D01*
X12525857Y-14230827D02*
X12535381Y-14221304D01*
X12697286Y-14316542D02*
X12697286Y-14449875D01*
X12649666Y-14240351D02*
X12602047Y-14383208D01*
X12602047Y-14383208D02*
X12725857Y-14383208D01*
X12811571Y-14449875D02*
X12849666Y-14449875D01*
X12849666Y-14449875D02*
X12868714Y-14440351D01*
X12868714Y-14440351D02*
X12878238Y-14430827D01*
X12878238Y-14430827D02*
X12897286Y-14402256D01*
X12897286Y-14402256D02*
X12906809Y-14364161D01*
X12906809Y-14364161D02*
X12906809Y-14287970D01*
X12906809Y-14287970D02*
X12897286Y-14268923D01*
X12897286Y-14268923D02*
X12887762Y-14259399D01*
X12887762Y-14259399D02*
X12868714Y-14249875D01*
X12868714Y-14249875D02*
X12830619Y-14249875D01*
X12830619Y-14249875D02*
X12811571Y-14259399D01*
X12811571Y-14259399D02*
X12802047Y-14268923D01*
X12802047Y-14268923D02*
X12792524Y-14287970D01*
X12792524Y-14287970D02*
X12792524Y-14335589D01*
X12792524Y-14335589D02*
X12802047Y-14354637D01*
X12802047Y-14354637D02*
X12811571Y-14364161D01*
X12811571Y-14364161D02*
X12830619Y-14373685D01*
X12830619Y-14373685D02*
X12868714Y-14373685D01*
X12868714Y-14373685D02*
X12887762Y-14364161D01*
X12887762Y-14364161D02*
X12897286Y-14354637D01*
X12897286Y-14354637D02*
X12906809Y-14335589D01*
X13144905Y-14449875D02*
X13144905Y-14249875D01*
X13230619Y-14449875D02*
X13230619Y-14345113D01*
X13230619Y-14345113D02*
X13221095Y-14326065D01*
X13221095Y-14326065D02*
X13202048Y-14316542D01*
X13202048Y-14316542D02*
X13173476Y-14316542D01*
X13173476Y-14316542D02*
X13154428Y-14326065D01*
X13154428Y-14326065D02*
X13144905Y-14335589D01*
X13354428Y-14449875D02*
X13335381Y-14440351D01*
X13335381Y-14440351D02*
X13325857Y-14430827D01*
X13325857Y-14430827D02*
X13316333Y-14411780D01*
X13316333Y-14411780D02*
X13316333Y-14354637D01*
X13316333Y-14354637D02*
X13325857Y-14335589D01*
X13325857Y-14335589D02*
X13335381Y-14326065D01*
X13335381Y-14326065D02*
X13354428Y-14316542D01*
X13354428Y-14316542D02*
X13383000Y-14316542D01*
X13383000Y-14316542D02*
X13402048Y-14326065D01*
X13402048Y-14326065D02*
X13411571Y-14335589D01*
X13411571Y-14335589D02*
X13421095Y-14354637D01*
X13421095Y-14354637D02*
X13421095Y-14411780D01*
X13421095Y-14411780D02*
X13411571Y-14430827D01*
X13411571Y-14430827D02*
X13402048Y-14440351D01*
X13402048Y-14440351D02*
X13383000Y-14449875D01*
X13383000Y-14449875D02*
X13354428Y-14449875D01*
X13535381Y-14449875D02*
X13516333Y-14440351D01*
X13516333Y-14440351D02*
X13506809Y-14421304D01*
X13506809Y-14421304D02*
X13506809Y-14249875D01*
X13687762Y-14440351D02*
X13668714Y-14449875D01*
X13668714Y-14449875D02*
X13630619Y-14449875D01*
X13630619Y-14449875D02*
X13611571Y-14440351D01*
X13611571Y-14440351D02*
X13602048Y-14421304D01*
X13602048Y-14421304D02*
X13602048Y-14345113D01*
X13602048Y-14345113D02*
X13611571Y-14326065D01*
X13611571Y-14326065D02*
X13630619Y-14316542D01*
X13630619Y-14316542D02*
X13668714Y-14316542D01*
X13668714Y-14316542D02*
X13687762Y-14326065D01*
X13687762Y-14326065D02*
X13697286Y-14345113D01*
X13697286Y-14345113D02*
X13697286Y-14364161D01*
X13697286Y-14364161D02*
X13602048Y-14383208D01*
X13773476Y-14440351D02*
X13792524Y-14449875D01*
X13792524Y-14449875D02*
X13830619Y-14449875D01*
X13830619Y-14449875D02*
X13849667Y-14440351D01*
X13849667Y-14440351D02*
X13859190Y-14421304D01*
X13859190Y-14421304D02*
X13859190Y-14411780D01*
X13859190Y-14411780D02*
X13849667Y-14392732D01*
X13849667Y-14392732D02*
X13830619Y-14383208D01*
X13830619Y-14383208D02*
X13802048Y-14383208D01*
X13802048Y-14383208D02*
X13783000Y-14373685D01*
X13783000Y-14373685D02*
X13773476Y-14354637D01*
X13773476Y-14354637D02*
X13773476Y-14345113D01*
X13773476Y-14345113D02*
X13783000Y-14326065D01*
X13783000Y-14326065D02*
X13802048Y-14316542D01*
X13802048Y-14316542D02*
X13830619Y-14316542D01*
X13830619Y-14316542D02*
X13849667Y-14326065D01*
X13925857Y-14526065D02*
X13935381Y-14516542D01*
X13935381Y-14516542D02*
X13954429Y-14487970D01*
X13954429Y-14487970D02*
X13963952Y-14468923D01*
X13963952Y-14468923D02*
X13973476Y-14440351D01*
X13973476Y-14440351D02*
X13983000Y-14392732D01*
X13983000Y-14392732D02*
X13983000Y-14354637D01*
X13983000Y-14354637D02*
X13973476Y-14307018D01*
X13973476Y-14307018D02*
X13963952Y-14278446D01*
X13963952Y-14278446D02*
X13954429Y-14259399D01*
X13954429Y-14259399D02*
X13935381Y-14230827D01*
X13935381Y-14230827D02*
X13925857Y-14221304D01*
D12*
X8973476Y-14621351D02*
G75*
G03*
X8973476Y-14621351I-38100J0D01*
G01*
D10*
X9259190Y-14513875D02*
X9278238Y-14513875D01*
X9278238Y-14513875D02*
X9297285Y-14523399D01*
X9297285Y-14523399D02*
X9306809Y-14532923D01*
X9306809Y-14532923D02*
X9316333Y-14551970D01*
X9316333Y-14551970D02*
X9325857Y-14590065D01*
X9325857Y-14590065D02*
X9325857Y-14637685D01*
X9325857Y-14637685D02*
X9316333Y-14675780D01*
X9316333Y-14675780D02*
X9306809Y-14694827D01*
X9306809Y-14694827D02*
X9297285Y-14704351D01*
X9297285Y-14704351D02*
X9278238Y-14713875D01*
X9278238Y-14713875D02*
X9259190Y-14713875D01*
X9259190Y-14713875D02*
X9240142Y-14704351D01*
X9240142Y-14704351D02*
X9230619Y-14694827D01*
X9230619Y-14694827D02*
X9221095Y-14675780D01*
X9221095Y-14675780D02*
X9211571Y-14637685D01*
X9211571Y-14637685D02*
X9211571Y-14590065D01*
X9211571Y-14590065D02*
X9221095Y-14551970D01*
X9221095Y-14551970D02*
X9230619Y-14532923D01*
X9230619Y-14532923D02*
X9240142Y-14523399D01*
X9240142Y-14523399D02*
X9259190Y-14513875D01*
X9411571Y-14694827D02*
X9421095Y-14704351D01*
X9421095Y-14704351D02*
X9411571Y-14713875D01*
X9411571Y-14713875D02*
X9402047Y-14704351D01*
X9402047Y-14704351D02*
X9411571Y-14694827D01*
X9411571Y-14694827D02*
X9411571Y-14713875D01*
X9487762Y-14513875D02*
X9621095Y-14513875D01*
X9621095Y-14513875D02*
X9535381Y-14713875D01*
X9783000Y-14513875D02*
X9744904Y-14513875D01*
X9744904Y-14513875D02*
X9725857Y-14523399D01*
X9725857Y-14523399D02*
X9716333Y-14532923D01*
X9716333Y-14532923D02*
X9697285Y-14561494D01*
X9697285Y-14561494D02*
X9687762Y-14599589D01*
X9687762Y-14599589D02*
X9687762Y-14675780D01*
X9687762Y-14675780D02*
X9697285Y-14694827D01*
X9697285Y-14694827D02*
X9706809Y-14704351D01*
X9706809Y-14704351D02*
X9725857Y-14713875D01*
X9725857Y-14713875D02*
X9763952Y-14713875D01*
X9763952Y-14713875D02*
X9783000Y-14704351D01*
X9783000Y-14704351D02*
X9792523Y-14694827D01*
X9792523Y-14694827D02*
X9802047Y-14675780D01*
X9802047Y-14675780D02*
X9802047Y-14628161D01*
X9802047Y-14628161D02*
X9792523Y-14609113D01*
X9792523Y-14609113D02*
X9783000Y-14599589D01*
X9783000Y-14599589D02*
X9763952Y-14590065D01*
X9763952Y-14590065D02*
X9725857Y-14590065D01*
X9725857Y-14590065D02*
X9706809Y-14599589D01*
X9706809Y-14599589D02*
X9697285Y-14609113D01*
X9697285Y-14609113D02*
X9687762Y-14628161D01*
X9878238Y-14532923D02*
X9887762Y-14523399D01*
X9887762Y-14523399D02*
X9906809Y-14513875D01*
X9906809Y-14513875D02*
X9954428Y-14513875D01*
X9954428Y-14513875D02*
X9973476Y-14523399D01*
X9973476Y-14523399D02*
X9983000Y-14532923D01*
X9983000Y-14532923D02*
X9992523Y-14551970D01*
X9992523Y-14551970D02*
X9992523Y-14571018D01*
X9992523Y-14571018D02*
X9983000Y-14599589D01*
X9983000Y-14599589D02*
X9868714Y-14713875D01*
X9868714Y-14713875D02*
X9992523Y-14713875D01*
X10078238Y-14713875D02*
X10078238Y-14580542D01*
X10078238Y-14599589D02*
X10087762Y-14590065D01*
X10087762Y-14590065D02*
X10106809Y-14580542D01*
X10106809Y-14580542D02*
X10135381Y-14580542D01*
X10135381Y-14580542D02*
X10154428Y-14590065D01*
X10154428Y-14590065D02*
X10163952Y-14609113D01*
X10163952Y-14609113D02*
X10163952Y-14713875D01*
X10163952Y-14609113D02*
X10173476Y-14590065D01*
X10173476Y-14590065D02*
X10192523Y-14580542D01*
X10192523Y-14580542D02*
X10221095Y-14580542D01*
X10221095Y-14580542D02*
X10240143Y-14590065D01*
X10240143Y-14590065D02*
X10249666Y-14609113D01*
X10249666Y-14609113D02*
X10249666Y-14713875D01*
X10344904Y-14713875D02*
X10344904Y-14580542D01*
X10344904Y-14599589D02*
X10354428Y-14590065D01*
X10354428Y-14590065D02*
X10373476Y-14580542D01*
X10373476Y-14580542D02*
X10402047Y-14580542D01*
X10402047Y-14580542D02*
X10421095Y-14590065D01*
X10421095Y-14590065D02*
X10430619Y-14609113D01*
X10430619Y-14609113D02*
X10430619Y-14713875D01*
X10430619Y-14609113D02*
X10440143Y-14590065D01*
X10440143Y-14590065D02*
X10459190Y-14580542D01*
X10459190Y-14580542D02*
X10487762Y-14580542D01*
X10487762Y-14580542D02*
X10506809Y-14590065D01*
X10506809Y-14590065D02*
X10516333Y-14609113D01*
X10516333Y-14609113D02*
X10516333Y-14713875D01*
X10906809Y-14504351D02*
X10735381Y-14761494D01*
X11163952Y-14513875D02*
X11183000Y-14513875D01*
X11183000Y-14513875D02*
X11202047Y-14523399D01*
X11202047Y-14523399D02*
X11211571Y-14532923D01*
X11211571Y-14532923D02*
X11221095Y-14551970D01*
X11221095Y-14551970D02*
X11230619Y-14590065D01*
X11230619Y-14590065D02*
X11230619Y-14637685D01*
X11230619Y-14637685D02*
X11221095Y-14675780D01*
X11221095Y-14675780D02*
X11211571Y-14694827D01*
X11211571Y-14694827D02*
X11202047Y-14704351D01*
X11202047Y-14704351D02*
X11183000Y-14713875D01*
X11183000Y-14713875D02*
X11163952Y-14713875D01*
X11163952Y-14713875D02*
X11144905Y-14704351D01*
X11144905Y-14704351D02*
X11135381Y-14694827D01*
X11135381Y-14694827D02*
X11125857Y-14675780D01*
X11125857Y-14675780D02*
X11116333Y-14637685D01*
X11116333Y-14637685D02*
X11116333Y-14590065D01*
X11116333Y-14590065D02*
X11125857Y-14551970D01*
X11125857Y-14551970D02*
X11135381Y-14532923D01*
X11135381Y-14532923D02*
X11144905Y-14523399D01*
X11144905Y-14523399D02*
X11163952Y-14513875D01*
X11316333Y-14694827D02*
X11325857Y-14704351D01*
X11325857Y-14704351D02*
X11316333Y-14713875D01*
X11316333Y-14713875D02*
X11306809Y-14704351D01*
X11306809Y-14704351D02*
X11316333Y-14694827D01*
X11316333Y-14694827D02*
X11316333Y-14713875D01*
X11449666Y-14513875D02*
X11468714Y-14513875D01*
X11468714Y-14513875D02*
X11487762Y-14523399D01*
X11487762Y-14523399D02*
X11497285Y-14532923D01*
X11497285Y-14532923D02*
X11506809Y-14551970D01*
X11506809Y-14551970D02*
X11516333Y-14590065D01*
X11516333Y-14590065D02*
X11516333Y-14637685D01*
X11516333Y-14637685D02*
X11506809Y-14675780D01*
X11506809Y-14675780D02*
X11497285Y-14694827D01*
X11497285Y-14694827D02*
X11487762Y-14704351D01*
X11487762Y-14704351D02*
X11468714Y-14713875D01*
X11468714Y-14713875D02*
X11449666Y-14713875D01*
X11449666Y-14713875D02*
X11430619Y-14704351D01*
X11430619Y-14704351D02*
X11421095Y-14694827D01*
X11421095Y-14694827D02*
X11411571Y-14675780D01*
X11411571Y-14675780D02*
X11402047Y-14637685D01*
X11402047Y-14637685D02*
X11402047Y-14590065D01*
X11402047Y-14590065D02*
X11411571Y-14551970D01*
X11411571Y-14551970D02*
X11421095Y-14532923D01*
X11421095Y-14532923D02*
X11430619Y-14523399D01*
X11430619Y-14523399D02*
X11449666Y-14513875D01*
X11583000Y-14513875D02*
X11706809Y-14513875D01*
X11706809Y-14513875D02*
X11640143Y-14590065D01*
X11640143Y-14590065D02*
X11668714Y-14590065D01*
X11668714Y-14590065D02*
X11687762Y-14599589D01*
X11687762Y-14599589D02*
X11697285Y-14609113D01*
X11697285Y-14609113D02*
X11706809Y-14628161D01*
X11706809Y-14628161D02*
X11706809Y-14675780D01*
X11706809Y-14675780D02*
X11697285Y-14694827D01*
X11697285Y-14694827D02*
X11687762Y-14704351D01*
X11687762Y-14704351D02*
X11668714Y-14713875D01*
X11668714Y-14713875D02*
X11611571Y-14713875D01*
X11611571Y-14713875D02*
X11592524Y-14704351D01*
X11592524Y-14704351D02*
X11583000Y-14694827D01*
X11830619Y-14513875D02*
X11849666Y-14513875D01*
X11849666Y-14513875D02*
X11868714Y-14523399D01*
X11868714Y-14523399D02*
X11878238Y-14532923D01*
X11878238Y-14532923D02*
X11887762Y-14551970D01*
X11887762Y-14551970D02*
X11897285Y-14590065D01*
X11897285Y-14590065D02*
X11897285Y-14637685D01*
X11897285Y-14637685D02*
X11887762Y-14675780D01*
X11887762Y-14675780D02*
X11878238Y-14694827D01*
X11878238Y-14694827D02*
X11868714Y-14704351D01*
X11868714Y-14704351D02*
X11849666Y-14713875D01*
X11849666Y-14713875D02*
X11830619Y-14713875D01*
X11830619Y-14713875D02*
X11811571Y-14704351D01*
X11811571Y-14704351D02*
X11802047Y-14694827D01*
X11802047Y-14694827D02*
X11792524Y-14675780D01*
X11792524Y-14675780D02*
X11783000Y-14637685D01*
X11783000Y-14637685D02*
X11783000Y-14590065D01*
X11783000Y-14590065D02*
X11792524Y-14551970D01*
X11792524Y-14551970D02*
X11802047Y-14532923D01*
X11802047Y-14532923D02*
X11811571Y-14523399D01*
X11811571Y-14523399D02*
X11830619Y-14513875D01*
X12021095Y-14513875D02*
X12040143Y-14513875D01*
X12040143Y-14513875D02*
X12059190Y-14523399D01*
X12059190Y-14523399D02*
X12068714Y-14532923D01*
X12068714Y-14532923D02*
X12078238Y-14551970D01*
X12078238Y-14551970D02*
X12087762Y-14590065D01*
X12087762Y-14590065D02*
X12087762Y-14637685D01*
X12087762Y-14637685D02*
X12078238Y-14675780D01*
X12078238Y-14675780D02*
X12068714Y-14694827D01*
X12068714Y-14694827D02*
X12059190Y-14704351D01*
X12059190Y-14704351D02*
X12040143Y-14713875D01*
X12040143Y-14713875D02*
X12021095Y-14713875D01*
X12021095Y-14713875D02*
X12002047Y-14704351D01*
X12002047Y-14704351D02*
X11992524Y-14694827D01*
X11992524Y-14694827D02*
X11983000Y-14675780D01*
X11983000Y-14675780D02*
X11973476Y-14637685D01*
X11973476Y-14637685D02*
X11973476Y-14590065D01*
X11973476Y-14590065D02*
X11983000Y-14551970D01*
X11983000Y-14551970D02*
X11992524Y-14532923D01*
X11992524Y-14532923D02*
X12002047Y-14523399D01*
X12002047Y-14523399D02*
X12021095Y-14513875D01*
X12163952Y-14513875D02*
X12163952Y-14551970D01*
X12240143Y-14513875D02*
X12240143Y-14551970D01*
X12535381Y-14790065D02*
X12525857Y-14780542D01*
X12525857Y-14780542D02*
X12506809Y-14751970D01*
X12506809Y-14751970D02*
X12497286Y-14732923D01*
X12497286Y-14732923D02*
X12487762Y-14704351D01*
X12487762Y-14704351D02*
X12478238Y-14656732D01*
X12478238Y-14656732D02*
X12478238Y-14618637D01*
X12478238Y-14618637D02*
X12487762Y-14571018D01*
X12487762Y-14571018D02*
X12497286Y-14542446D01*
X12497286Y-14542446D02*
X12506809Y-14523399D01*
X12506809Y-14523399D02*
X12525857Y-14494827D01*
X12525857Y-14494827D02*
X12535381Y-14485304D01*
X12716333Y-14713875D02*
X12602047Y-14713875D01*
X12659190Y-14713875D02*
X12659190Y-14513875D01*
X12659190Y-14513875D02*
X12640143Y-14542446D01*
X12640143Y-14542446D02*
X12621095Y-14561494D01*
X12621095Y-14561494D02*
X12602047Y-14571018D01*
X12792524Y-14532923D02*
X12802047Y-14523399D01*
X12802047Y-14523399D02*
X12821095Y-14513875D01*
X12821095Y-14513875D02*
X12868714Y-14513875D01*
X12868714Y-14513875D02*
X12887762Y-14523399D01*
X12887762Y-14523399D02*
X12897286Y-14532923D01*
X12897286Y-14532923D02*
X12906809Y-14551970D01*
X12906809Y-14551970D02*
X12906809Y-14571018D01*
X12906809Y-14571018D02*
X12897286Y-14599589D01*
X12897286Y-14599589D02*
X12783000Y-14713875D01*
X12783000Y-14713875D02*
X12906809Y-14713875D01*
X13144905Y-14713875D02*
X13144905Y-14513875D01*
X13230619Y-14713875D02*
X13230619Y-14609113D01*
X13230619Y-14609113D02*
X13221095Y-14590065D01*
X13221095Y-14590065D02*
X13202048Y-14580542D01*
X13202048Y-14580542D02*
X13173476Y-14580542D01*
X13173476Y-14580542D02*
X13154428Y-14590065D01*
X13154428Y-14590065D02*
X13144905Y-14599589D01*
X13354428Y-14713875D02*
X13335381Y-14704351D01*
X13335381Y-14704351D02*
X13325857Y-14694827D01*
X13325857Y-14694827D02*
X13316333Y-14675780D01*
X13316333Y-14675780D02*
X13316333Y-14618637D01*
X13316333Y-14618637D02*
X13325857Y-14599589D01*
X13325857Y-14599589D02*
X13335381Y-14590065D01*
X13335381Y-14590065D02*
X13354428Y-14580542D01*
X13354428Y-14580542D02*
X13383000Y-14580542D01*
X13383000Y-14580542D02*
X13402048Y-14590065D01*
X13402048Y-14590065D02*
X13411571Y-14599589D01*
X13411571Y-14599589D02*
X13421095Y-14618637D01*
X13421095Y-14618637D02*
X13421095Y-14675780D01*
X13421095Y-14675780D02*
X13411571Y-14694827D01*
X13411571Y-14694827D02*
X13402048Y-14704351D01*
X13402048Y-14704351D02*
X13383000Y-14713875D01*
X13383000Y-14713875D02*
X13354428Y-14713875D01*
X13535381Y-14713875D02*
X13516333Y-14704351D01*
X13516333Y-14704351D02*
X13506809Y-14685304D01*
X13506809Y-14685304D02*
X13506809Y-14513875D01*
X13687762Y-14704351D02*
X13668714Y-14713875D01*
X13668714Y-14713875D02*
X13630619Y-14713875D01*
X13630619Y-14713875D02*
X13611571Y-14704351D01*
X13611571Y-14704351D02*
X13602048Y-14685304D01*
X13602048Y-14685304D02*
X13602048Y-14609113D01*
X13602048Y-14609113D02*
X13611571Y-14590065D01*
X13611571Y-14590065D02*
X13630619Y-14580542D01*
X13630619Y-14580542D02*
X13668714Y-14580542D01*
X13668714Y-14580542D02*
X13687762Y-14590065D01*
X13687762Y-14590065D02*
X13697286Y-14609113D01*
X13697286Y-14609113D02*
X13697286Y-14628161D01*
X13697286Y-14628161D02*
X13602048Y-14647208D01*
X13773476Y-14704351D02*
X13792524Y-14713875D01*
X13792524Y-14713875D02*
X13830619Y-14713875D01*
X13830619Y-14713875D02*
X13849667Y-14704351D01*
X13849667Y-14704351D02*
X13859190Y-14685304D01*
X13859190Y-14685304D02*
X13859190Y-14675780D01*
X13859190Y-14675780D02*
X13849667Y-14656732D01*
X13849667Y-14656732D02*
X13830619Y-14647208D01*
X13830619Y-14647208D02*
X13802048Y-14647208D01*
X13802048Y-14647208D02*
X13783000Y-14637685D01*
X13783000Y-14637685D02*
X13773476Y-14618637D01*
X13773476Y-14618637D02*
X13773476Y-14609113D01*
X13773476Y-14609113D02*
X13783000Y-14590065D01*
X13783000Y-14590065D02*
X13802048Y-14580542D01*
X13802048Y-14580542D02*
X13830619Y-14580542D01*
X13830619Y-14580542D02*
X13849667Y-14590065D01*
X13925857Y-14790065D02*
X13935381Y-14780542D01*
X13935381Y-14780542D02*
X13954429Y-14751970D01*
X13954429Y-14751970D02*
X13963952Y-14732923D01*
X13963952Y-14732923D02*
X13973476Y-14704351D01*
X13973476Y-14704351D02*
X13983000Y-14656732D01*
X13983000Y-14656732D02*
X13983000Y-14618637D01*
X13983000Y-14618637D02*
X13973476Y-14571018D01*
X13973476Y-14571018D02*
X13963952Y-14542446D01*
X13963952Y-14542446D02*
X13954429Y-14523399D01*
X13954429Y-14523399D02*
X13935381Y-14494827D01*
X13935381Y-14494827D02*
X13925857Y-14485304D01*
D13*
X8922476Y-14834351D02*
X8922476Y-14936351D01*
X8871476Y-14885351D02*
X8973476Y-14885351D01*
D10*
X9325857Y-14977875D02*
X9211571Y-14977875D01*
X9268714Y-14977875D02*
X9268714Y-14777875D01*
X9268714Y-14777875D02*
X9249666Y-14806446D01*
X9249666Y-14806446D02*
X9230619Y-14825494D01*
X9230619Y-14825494D02*
X9211571Y-14835018D01*
X9411571Y-14958827D02*
X9421095Y-14968351D01*
X9421095Y-14968351D02*
X9411571Y-14977875D01*
X9411571Y-14977875D02*
X9402047Y-14968351D01*
X9402047Y-14968351D02*
X9411571Y-14958827D01*
X9411571Y-14958827D02*
X9411571Y-14977875D01*
X9544904Y-14777875D02*
X9563952Y-14777875D01*
X9563952Y-14777875D02*
X9583000Y-14787399D01*
X9583000Y-14787399D02*
X9592523Y-14796923D01*
X9592523Y-14796923D02*
X9602047Y-14815970D01*
X9602047Y-14815970D02*
X9611571Y-14854065D01*
X9611571Y-14854065D02*
X9611571Y-14901685D01*
X9611571Y-14901685D02*
X9602047Y-14939780D01*
X9602047Y-14939780D02*
X9592523Y-14958827D01*
X9592523Y-14958827D02*
X9583000Y-14968351D01*
X9583000Y-14968351D02*
X9563952Y-14977875D01*
X9563952Y-14977875D02*
X9544904Y-14977875D01*
X9544904Y-14977875D02*
X9525857Y-14968351D01*
X9525857Y-14968351D02*
X9516333Y-14958827D01*
X9516333Y-14958827D02*
X9506809Y-14939780D01*
X9506809Y-14939780D02*
X9497285Y-14901685D01*
X9497285Y-14901685D02*
X9497285Y-14854065D01*
X9497285Y-14854065D02*
X9506809Y-14815970D01*
X9506809Y-14815970D02*
X9516333Y-14796923D01*
X9516333Y-14796923D02*
X9525857Y-14787399D01*
X9525857Y-14787399D02*
X9544904Y-14777875D01*
X9687762Y-14796923D02*
X9697285Y-14787399D01*
X9697285Y-14787399D02*
X9716333Y-14777875D01*
X9716333Y-14777875D02*
X9763952Y-14777875D01*
X9763952Y-14777875D02*
X9783000Y-14787399D01*
X9783000Y-14787399D02*
X9792523Y-14796923D01*
X9792523Y-14796923D02*
X9802047Y-14815970D01*
X9802047Y-14815970D02*
X9802047Y-14835018D01*
X9802047Y-14835018D02*
X9792523Y-14863589D01*
X9792523Y-14863589D02*
X9678238Y-14977875D01*
X9678238Y-14977875D02*
X9802047Y-14977875D01*
X9925857Y-14777875D02*
X9944904Y-14777875D01*
X9944904Y-14777875D02*
X9963952Y-14787399D01*
X9963952Y-14787399D02*
X9973476Y-14796923D01*
X9973476Y-14796923D02*
X9983000Y-14815970D01*
X9983000Y-14815970D02*
X9992523Y-14854065D01*
X9992523Y-14854065D02*
X9992523Y-14901685D01*
X9992523Y-14901685D02*
X9983000Y-14939780D01*
X9983000Y-14939780D02*
X9973476Y-14958827D01*
X9973476Y-14958827D02*
X9963952Y-14968351D01*
X9963952Y-14968351D02*
X9944904Y-14977875D01*
X9944904Y-14977875D02*
X9925857Y-14977875D01*
X9925857Y-14977875D02*
X9906809Y-14968351D01*
X9906809Y-14968351D02*
X9897285Y-14958827D01*
X9897285Y-14958827D02*
X9887762Y-14939780D01*
X9887762Y-14939780D02*
X9878238Y-14901685D01*
X9878238Y-14901685D02*
X9878238Y-14854065D01*
X9878238Y-14854065D02*
X9887762Y-14815970D01*
X9887762Y-14815970D02*
X9897285Y-14796923D01*
X9897285Y-14796923D02*
X9906809Y-14787399D01*
X9906809Y-14787399D02*
X9925857Y-14777875D01*
X10078238Y-14977875D02*
X10078238Y-14844542D01*
X10078238Y-14863589D02*
X10087762Y-14854065D01*
X10087762Y-14854065D02*
X10106809Y-14844542D01*
X10106809Y-14844542D02*
X10135381Y-14844542D01*
X10135381Y-14844542D02*
X10154428Y-14854065D01*
X10154428Y-14854065D02*
X10163952Y-14873113D01*
X10163952Y-14873113D02*
X10163952Y-14977875D01*
X10163952Y-14873113D02*
X10173476Y-14854065D01*
X10173476Y-14854065D02*
X10192523Y-14844542D01*
X10192523Y-14844542D02*
X10221095Y-14844542D01*
X10221095Y-14844542D02*
X10240143Y-14854065D01*
X10240143Y-14854065D02*
X10249666Y-14873113D01*
X10249666Y-14873113D02*
X10249666Y-14977875D01*
X10344904Y-14977875D02*
X10344904Y-14844542D01*
X10344904Y-14863589D02*
X10354428Y-14854065D01*
X10354428Y-14854065D02*
X10373476Y-14844542D01*
X10373476Y-14844542D02*
X10402047Y-14844542D01*
X10402047Y-14844542D02*
X10421095Y-14854065D01*
X10421095Y-14854065D02*
X10430619Y-14873113D01*
X10430619Y-14873113D02*
X10430619Y-14977875D01*
X10430619Y-14873113D02*
X10440143Y-14854065D01*
X10440143Y-14854065D02*
X10459190Y-14844542D01*
X10459190Y-14844542D02*
X10487762Y-14844542D01*
X10487762Y-14844542D02*
X10506809Y-14854065D01*
X10506809Y-14854065D02*
X10516333Y-14873113D01*
X10516333Y-14873113D02*
X10516333Y-14977875D01*
X10906809Y-14768351D02*
X10735381Y-15025494D01*
X11163952Y-14777875D02*
X11183000Y-14777875D01*
X11183000Y-14777875D02*
X11202047Y-14787399D01*
X11202047Y-14787399D02*
X11211571Y-14796923D01*
X11211571Y-14796923D02*
X11221095Y-14815970D01*
X11221095Y-14815970D02*
X11230619Y-14854065D01*
X11230619Y-14854065D02*
X11230619Y-14901685D01*
X11230619Y-14901685D02*
X11221095Y-14939780D01*
X11221095Y-14939780D02*
X11211571Y-14958827D01*
X11211571Y-14958827D02*
X11202047Y-14968351D01*
X11202047Y-14968351D02*
X11183000Y-14977875D01*
X11183000Y-14977875D02*
X11163952Y-14977875D01*
X11163952Y-14977875D02*
X11144905Y-14968351D01*
X11144905Y-14968351D02*
X11135381Y-14958827D01*
X11135381Y-14958827D02*
X11125857Y-14939780D01*
X11125857Y-14939780D02*
X11116333Y-14901685D01*
X11116333Y-14901685D02*
X11116333Y-14854065D01*
X11116333Y-14854065D02*
X11125857Y-14815970D01*
X11125857Y-14815970D02*
X11135381Y-14796923D01*
X11135381Y-14796923D02*
X11144905Y-14787399D01*
X11144905Y-14787399D02*
X11163952Y-14777875D01*
X11316333Y-14958827D02*
X11325857Y-14968351D01*
X11325857Y-14968351D02*
X11316333Y-14977875D01*
X11316333Y-14977875D02*
X11306809Y-14968351D01*
X11306809Y-14968351D02*
X11316333Y-14958827D01*
X11316333Y-14958827D02*
X11316333Y-14977875D01*
X11449666Y-14777875D02*
X11468714Y-14777875D01*
X11468714Y-14777875D02*
X11487762Y-14787399D01*
X11487762Y-14787399D02*
X11497285Y-14796923D01*
X11497285Y-14796923D02*
X11506809Y-14815970D01*
X11506809Y-14815970D02*
X11516333Y-14854065D01*
X11516333Y-14854065D02*
X11516333Y-14901685D01*
X11516333Y-14901685D02*
X11506809Y-14939780D01*
X11506809Y-14939780D02*
X11497285Y-14958827D01*
X11497285Y-14958827D02*
X11487762Y-14968351D01*
X11487762Y-14968351D02*
X11468714Y-14977875D01*
X11468714Y-14977875D02*
X11449666Y-14977875D01*
X11449666Y-14977875D02*
X11430619Y-14968351D01*
X11430619Y-14968351D02*
X11421095Y-14958827D01*
X11421095Y-14958827D02*
X11411571Y-14939780D01*
X11411571Y-14939780D02*
X11402047Y-14901685D01*
X11402047Y-14901685D02*
X11402047Y-14854065D01*
X11402047Y-14854065D02*
X11411571Y-14815970D01*
X11411571Y-14815970D02*
X11421095Y-14796923D01*
X11421095Y-14796923D02*
X11430619Y-14787399D01*
X11430619Y-14787399D02*
X11449666Y-14777875D01*
X11687762Y-14844542D02*
X11687762Y-14977875D01*
X11640143Y-14768351D02*
X11592524Y-14911208D01*
X11592524Y-14911208D02*
X11716333Y-14911208D01*
X11830619Y-14777875D02*
X11849666Y-14777875D01*
X11849666Y-14777875D02*
X11868714Y-14787399D01*
X11868714Y-14787399D02*
X11878238Y-14796923D01*
X11878238Y-14796923D02*
X11887762Y-14815970D01*
X11887762Y-14815970D02*
X11897285Y-14854065D01*
X11897285Y-14854065D02*
X11897285Y-14901685D01*
X11897285Y-14901685D02*
X11887762Y-14939780D01*
X11887762Y-14939780D02*
X11878238Y-14958827D01*
X11878238Y-14958827D02*
X11868714Y-14968351D01*
X11868714Y-14968351D02*
X11849666Y-14977875D01*
X11849666Y-14977875D02*
X11830619Y-14977875D01*
X11830619Y-14977875D02*
X11811571Y-14968351D01*
X11811571Y-14968351D02*
X11802047Y-14958827D01*
X11802047Y-14958827D02*
X11792524Y-14939780D01*
X11792524Y-14939780D02*
X11783000Y-14901685D01*
X11783000Y-14901685D02*
X11783000Y-14854065D01*
X11783000Y-14854065D02*
X11792524Y-14815970D01*
X11792524Y-14815970D02*
X11802047Y-14796923D01*
X11802047Y-14796923D02*
X11811571Y-14787399D01*
X11811571Y-14787399D02*
X11830619Y-14777875D01*
X11973476Y-14796923D02*
X11983000Y-14787399D01*
X11983000Y-14787399D02*
X12002047Y-14777875D01*
X12002047Y-14777875D02*
X12049666Y-14777875D01*
X12049666Y-14777875D02*
X12068714Y-14787399D01*
X12068714Y-14787399D02*
X12078238Y-14796923D01*
X12078238Y-14796923D02*
X12087762Y-14815970D01*
X12087762Y-14815970D02*
X12087762Y-14835018D01*
X12087762Y-14835018D02*
X12078238Y-14863589D01*
X12078238Y-14863589D02*
X11963952Y-14977875D01*
X11963952Y-14977875D02*
X12087762Y-14977875D01*
X12163952Y-14777875D02*
X12163952Y-14815970D01*
X12240143Y-14777875D02*
X12240143Y-14815970D01*
X12535381Y-15054065D02*
X12525857Y-15044542D01*
X12525857Y-15044542D02*
X12506809Y-15015970D01*
X12506809Y-15015970D02*
X12497286Y-14996923D01*
X12497286Y-14996923D02*
X12487762Y-14968351D01*
X12487762Y-14968351D02*
X12478238Y-14920732D01*
X12478238Y-14920732D02*
X12478238Y-14882637D01*
X12478238Y-14882637D02*
X12487762Y-14835018D01*
X12487762Y-14835018D02*
X12497286Y-14806446D01*
X12497286Y-14806446D02*
X12506809Y-14787399D01*
X12506809Y-14787399D02*
X12525857Y-14758827D01*
X12525857Y-14758827D02*
X12535381Y-14749304D01*
X12602047Y-14796923D02*
X12611571Y-14787399D01*
X12611571Y-14787399D02*
X12630619Y-14777875D01*
X12630619Y-14777875D02*
X12678238Y-14777875D01*
X12678238Y-14777875D02*
X12697286Y-14787399D01*
X12697286Y-14787399D02*
X12706809Y-14796923D01*
X12706809Y-14796923D02*
X12716333Y-14815970D01*
X12716333Y-14815970D02*
X12716333Y-14835018D01*
X12716333Y-14835018D02*
X12706809Y-14863589D01*
X12706809Y-14863589D02*
X12592524Y-14977875D01*
X12592524Y-14977875D02*
X12716333Y-14977875D01*
X12954428Y-14977875D02*
X12954428Y-14777875D01*
X13040143Y-14977875D02*
X13040143Y-14873113D01*
X13040143Y-14873113D02*
X13030619Y-14854065D01*
X13030619Y-14854065D02*
X13011571Y-14844542D01*
X13011571Y-14844542D02*
X12983000Y-14844542D01*
X12983000Y-14844542D02*
X12963952Y-14854065D01*
X12963952Y-14854065D02*
X12954428Y-14863589D01*
X13163952Y-14977875D02*
X13144905Y-14968351D01*
X13144905Y-14968351D02*
X13135381Y-14958827D01*
X13135381Y-14958827D02*
X13125857Y-14939780D01*
X13125857Y-14939780D02*
X13125857Y-14882637D01*
X13125857Y-14882637D02*
X13135381Y-14863589D01*
X13135381Y-14863589D02*
X13144905Y-14854065D01*
X13144905Y-14854065D02*
X13163952Y-14844542D01*
X13163952Y-14844542D02*
X13192524Y-14844542D01*
X13192524Y-14844542D02*
X13211571Y-14854065D01*
X13211571Y-14854065D02*
X13221095Y-14863589D01*
X13221095Y-14863589D02*
X13230619Y-14882637D01*
X13230619Y-14882637D02*
X13230619Y-14939780D01*
X13230619Y-14939780D02*
X13221095Y-14958827D01*
X13221095Y-14958827D02*
X13211571Y-14968351D01*
X13211571Y-14968351D02*
X13192524Y-14977875D01*
X13192524Y-14977875D02*
X13163952Y-14977875D01*
X13344905Y-14977875D02*
X13325857Y-14968351D01*
X13325857Y-14968351D02*
X13316333Y-14949304D01*
X13316333Y-14949304D02*
X13316333Y-14777875D01*
X13497286Y-14968351D02*
X13478238Y-14977875D01*
X13478238Y-14977875D02*
X13440143Y-14977875D01*
X13440143Y-14977875D02*
X13421095Y-14968351D01*
X13421095Y-14968351D02*
X13411571Y-14949304D01*
X13411571Y-14949304D02*
X13411571Y-14873113D01*
X13411571Y-14873113D02*
X13421095Y-14854065D01*
X13421095Y-14854065D02*
X13440143Y-14844542D01*
X13440143Y-14844542D02*
X13478238Y-14844542D01*
X13478238Y-14844542D02*
X13497286Y-14854065D01*
X13497286Y-14854065D02*
X13506809Y-14873113D01*
X13506809Y-14873113D02*
X13506809Y-14892161D01*
X13506809Y-14892161D02*
X13411571Y-14911208D01*
X13583000Y-14968351D02*
X13602048Y-14977875D01*
X13602048Y-14977875D02*
X13640143Y-14977875D01*
X13640143Y-14977875D02*
X13659190Y-14968351D01*
X13659190Y-14968351D02*
X13668714Y-14949304D01*
X13668714Y-14949304D02*
X13668714Y-14939780D01*
X13668714Y-14939780D02*
X13659190Y-14920732D01*
X13659190Y-14920732D02*
X13640143Y-14911208D01*
X13640143Y-14911208D02*
X13611571Y-14911208D01*
X13611571Y-14911208D02*
X13592524Y-14901685D01*
X13592524Y-14901685D02*
X13583000Y-14882637D01*
X13583000Y-14882637D02*
X13583000Y-14873113D01*
X13583000Y-14873113D02*
X13592524Y-14854065D01*
X13592524Y-14854065D02*
X13611571Y-14844542D01*
X13611571Y-14844542D02*
X13640143Y-14844542D01*
X13640143Y-14844542D02*
X13659190Y-14854065D01*
X13735381Y-15054065D02*
X13744905Y-15044542D01*
X13744905Y-15044542D02*
X13763952Y-15015970D01*
X13763952Y-15015970D02*
X13773476Y-14996923D01*
X13773476Y-14996923D02*
X13783000Y-14968351D01*
X13783000Y-14968351D02*
X13792524Y-14920732D01*
X13792524Y-14920732D02*
X13792524Y-14882637D01*
X13792524Y-14882637D02*
X13783000Y-14835018D01*
X13783000Y-14835018D02*
X13773476Y-14806446D01*
X13773476Y-14806446D02*
X13763952Y-14787399D01*
X13763952Y-14787399D02*
X13744905Y-14758827D01*
X13744905Y-14758827D02*
X13735381Y-14749304D01*
M02*
