M48
; DRILL file {KiCad 7.0.1-0} date 2023 April 23, Sunday 15:52:58
; FORMAT={-:-/ absolute / inch / decimal}
; #@! TF.CreationDate,2023-04-23T15:52:58-04:00
; #@! TF.GenerationSoftware,Kicad,Pcbnew,7.0.1-0
; #@! TF.FileFunction,Plated,1,2,PTH
FMAT,2
INCH
; #@! TA.AperFunction,Plated,PTH,ViaDrill
T1C0.0157
; #@! TA.AperFunction,Plated,PTH,ComponentDrill
T2C0.0300
; #@! TA.AperFunction,Plated,PTH,ComponentDrill
T3C0.0402
%
G90
G05
T1
X3.5989Y-3.3795
X5.6072Y-4.5797
X5.8688Y-5.0128
X5.9098Y-3.5295
X5.96Y-3.87
X5.96Y-5.1
X6.21Y-4.29
X6.24Y-5.12
X6.3572Y-4.0428
X6.5Y-5.21
X6.6996Y-3.5127
X6.755Y-3.4852
X6.7563Y-3.2191
X6.9047Y-2.726
X6.9047Y-2.8011
X6.9302Y-3.3609
X6.96Y-4.36
X6.9722Y-3.3555
X7.0358Y-3.3855
X7.06Y-2.65
X7.06Y-4.56
X7.0867Y-3.7183
X7.1009Y-4.09
X7.1112Y-2.8452
X7.153Y-3.1897
X7.1833Y-3.4835
X7.2039Y-3.3849
X7.2924Y-3.4012
X7.2967Y-3.039
X7.3354Y-3.0766
X7.3389Y-4.1036
X7.3525Y-3.3711
X7.3642Y-2.8357
X7.419Y-2.8757
X7.4327Y-3.2091
X7.44Y-4.64
X7.44Y-5.08
X7.4512Y-2.8195
X7.4531Y-3.1334
X7.4594Y-2.9879
X7.4782Y-4.8341
X7.5097Y-3.6496
X7.519Y-3.2761
X7.53Y-4.91
X7.53Y-5.1
X7.63Y-2.55
X7.6621Y-2.8886
X7.6649Y-3.5956
X7.7276Y-2.7696
X7.86Y-2.56
X8.1017Y-3.6879
X8.4084Y-3.2482
X8.4592Y-2.7511
X8.58Y-3.61
X8.5838Y-4.0148
X8.5864Y-2.7502
X8.9Y-3.4891
X8.9181Y-3.564
X9.1522Y-2.9019
X9.1983Y-3.5691
T2
X8.92Y-2.98
X8.92Y-3.08
X8.99Y-3.92
X8.99Y-4.02
X8.99Y-4.12
X9.02Y-2.98
X9.02Y-3.08
X9.09Y-3.92
X9.09Y-4.02
X9.09Y-4.12
X9.12Y-2.98
X9.12Y-3.08
T3
X5.32Y-2.39
X5.82Y-2.39
T0
M30
