%TF.GenerationSoftware,KiCad,Pcbnew,(7.0.0-0)*%
%TF.CreationDate,2023-07-23T12:34:26-06:00*%
%TF.ProjectId,HAS4_SAO,48415334-5f53-4414-9f2e-6b696361645f,rev?*%
%TF.SameCoordinates,Original*%
%TF.FileFunction,Profile,NP*%
%FSLAX46Y46*%
G04 Gerber Fmt 4.6, Leading zero omitted, Abs format (unit mm)*
G04 Created by KiCad (PCBNEW (7.0.0-0)) date 2023-07-23 12:34:26*
%MOMM*%
%LPD*%
G01*
G04 APERTURE LIST*
%TA.AperFunction,Profile*%
%ADD10C,0.154878*%
%TD*%
G04 APERTURE END LIST*
%TO.C,svg2mod*%
D10*
X114963937Y-58150234D02*
X115709961Y-58201856D01*
X116455285Y-58284377D01*
X117198503Y-58396633D01*
X117938210Y-58537457D01*
X118672999Y-58705684D01*
X119401464Y-58900147D01*
X120122201Y-59119683D01*
X120833803Y-59363124D01*
X121534864Y-59629305D01*
X122223979Y-59917061D01*
X122899741Y-60225226D01*
X123570003Y-60565682D01*
X124225972Y-60943120D01*
X124863804Y-61356302D01*
X125479656Y-61803990D01*
X126069683Y-62284946D01*
X126630043Y-62797933D01*
X127156892Y-63341713D01*
X127646386Y-63915048D01*
X128094682Y-64516700D01*
X128488404Y-65129688D01*
X128841193Y-65768654D01*
X129155353Y-66430183D01*
X129433186Y-67110858D01*
X129676995Y-67807262D01*
X129889084Y-68515979D01*
X130071754Y-69233593D01*
X130227309Y-69956686D01*
X130358052Y-70681842D01*
X130466286Y-71405645D01*
X130529578Y-72124191D01*
X130533862Y-72844376D01*
X130492228Y-73565939D01*
X130417764Y-74288616D01*
X130323560Y-75012146D01*
X130222705Y-75736265D01*
X130128287Y-76460712D01*
X130053397Y-77185223D01*
X130011122Y-77909537D01*
X130014552Y-78633390D01*
X130034817Y-79324565D01*
X130045968Y-80025550D01*
X130060493Y-80730687D01*
X130090885Y-81434317D01*
X130149634Y-82130781D01*
X130249231Y-82814421D01*
X130402167Y-83479576D01*
X130620934Y-84120589D01*
X130918021Y-84731801D01*
X131305197Y-85254997D01*
X131791191Y-85694506D01*
X132347292Y-86074503D01*
X132944787Y-86419166D01*
X133554966Y-86752669D01*
X134149118Y-87099188D01*
X134698530Y-87482901D01*
X135174493Y-87927982D01*
X135548295Y-88458607D01*
X135827181Y-89079991D01*
X136022988Y-89738302D01*
X136142692Y-90422627D01*
X136193271Y-91122054D01*
X136181702Y-91825670D01*
X136114961Y-92522562D01*
X136000026Y-93201817D01*
X135803597Y-93810141D01*
X135493784Y-94385909D01*
X135103918Y-94937488D01*
X134667327Y-95473245D01*
X134217341Y-96001548D01*
X133787291Y-96530764D01*
X133410506Y-97069261D01*
X133120315Y-97625407D01*
X132950048Y-98207568D01*
X132933035Y-98824113D01*
X133057124Y-99416437D01*
X133282931Y-99961318D01*
X133596840Y-100465352D01*
X133985240Y-100935135D01*
X134434517Y-101377264D01*
X134931056Y-101798336D01*
X135461246Y-102204946D01*
X136011471Y-102603692D01*
X136568120Y-103001169D01*
X137117578Y-103403975D01*
X137646231Y-103818705D01*
X138140468Y-104251957D01*
X138586673Y-104710326D01*
X138971234Y-105200409D01*
X139280537Y-105728802D01*
X139500968Y-106302103D01*
X139664971Y-106995242D01*
X139768856Y-107720727D01*
X139808717Y-108464375D01*
X139780647Y-109212003D01*
X139680738Y-109949428D01*
X139505082Y-110662468D01*
X139249774Y-111336940D01*
X138910904Y-111958660D01*
X138484567Y-112513447D01*
X138017348Y-112903711D01*
X137475670Y-113163470D01*
X136875572Y-113322317D01*
X136233089Y-113409845D01*
X135564258Y-113455646D01*
X134885115Y-113489314D01*
X134211697Y-113540442D01*
X133560040Y-113638623D01*
X132946181Y-113813451D01*
X132386156Y-114094518D01*
X131823317Y-114494356D01*
X131288880Y-114939583D01*
X130785265Y-115425719D01*
X130314894Y-115948282D01*
X129880187Y-116502790D01*
X129483565Y-117084763D01*
X129127449Y-117689720D01*
X128814259Y-118313179D01*
X128546416Y-118950658D01*
X128315315Y-119634948D01*
X128134622Y-120329241D01*
X127999156Y-121032572D01*
X127903739Y-121743978D01*
X127843190Y-122462495D01*
X127812329Y-123187159D01*
X127805976Y-123917006D01*
X127818952Y-124651072D01*
X127846076Y-125388393D01*
X127882168Y-126128004D01*
X127922049Y-126868943D01*
X127960538Y-127610245D01*
X127992456Y-128350946D01*
X128012622Y-129090082D01*
X128015856Y-129826688D01*
X127996979Y-130559802D01*
X127950811Y-131288460D01*
X127872171Y-132011696D01*
X127755880Y-132728547D01*
X127616316Y-133460608D01*
X127474615Y-134198064D01*
X127327043Y-134938151D01*
X127169865Y-135678109D01*
X126999344Y-136415175D01*
X126811747Y-137146587D01*
X126603339Y-137869584D01*
X126370383Y-138581403D01*
X126109146Y-139279282D01*
X125815891Y-139960460D01*
X125486885Y-140622174D01*
X125118392Y-141261662D01*
X124706677Y-141876163D01*
X124277074Y-142440153D01*
X123814805Y-142987870D01*
X123321755Y-143515202D01*
X122799808Y-144018036D01*
X122250848Y-144492258D01*
X121676759Y-144933757D01*
X121079426Y-145338418D01*
X120460732Y-145702130D01*
X119822563Y-146020779D01*
X119166801Y-146290253D01*
X118495332Y-146506438D01*
X117791430Y-146669662D01*
X117074057Y-146775668D01*
X116346719Y-146827857D01*
X115612922Y-146829628D01*
X114876172Y-146784380D01*
X114139975Y-146695515D01*
X113407836Y-146566430D01*
X112683261Y-146400527D01*
X111969758Y-146201205D01*
X111270831Y-145971863D01*
X110589986Y-145715903D01*
X109939403Y-145421869D01*
X109314823Y-145075505D01*
X108714307Y-144683685D01*
X108135917Y-144253286D01*
X107577712Y-143791182D01*
X107037755Y-143304250D01*
X106514106Y-142799363D01*
X106004826Y-142283398D01*
X105507976Y-141763231D01*
X105026254Y-141227570D01*
X104569341Y-140669908D01*
X104135168Y-140093068D01*
X103721662Y-139499875D01*
X103326754Y-138893150D01*
X102948372Y-138275718D01*
X102584446Y-137650401D01*
X102232905Y-137020023D01*
X101869914Y-136344489D01*
X101518709Y-135660724D01*
X101182903Y-134968514D01*
X100866108Y-134267647D01*
X100571938Y-133557909D01*
X100304005Y-132839088D01*
X100065921Y-132110971D01*
X99861301Y-131373346D01*
X99704837Y-130668659D01*
X99584226Y-129956911D01*
X99494098Y-129239555D01*
X99429084Y-128518047D01*
X99383813Y-127793842D01*
X99352917Y-127068394D01*
X99331025Y-126343158D01*
X99312767Y-125619589D01*
X99316730Y-124895168D01*
X99357523Y-124169878D01*
X99423694Y-123444134D01*
X99503790Y-122718349D01*
X99586358Y-121992938D01*
X99659945Y-121268316D01*
X99713099Y-120544895D01*
X99734367Y-119823091D01*
X99712296Y-119103318D01*
X99635433Y-118385990D01*
X99511105Y-117690466D01*
X99351079Y-117001393D01*
X99158428Y-116319269D01*
X98936231Y-115644597D01*
X98687563Y-114977876D01*
X98415499Y-114319607D01*
X98123116Y-113670290D01*
X97813490Y-113030426D01*
X97489696Y-112400514D01*
X97120892Y-111807463D01*
X96684427Y-111252021D01*
X96208335Y-110719439D01*
X95720650Y-110194967D01*
X95249403Y-109663855D01*
X94822628Y-109111352D01*
X94468358Y-108522708D01*
X94214625Y-107883173D01*
X94088033Y-107262431D01*
X94052764Y-106628589D01*
X94092406Y-105984287D01*
X94190550Y-105332164D01*
X94330786Y-104674858D01*
X94496702Y-104015010D01*
X94671888Y-103355260D01*
X94839935Y-102698245D01*
X94984431Y-102046606D01*
X95088966Y-101402982D01*
X95137130Y-100770013D01*
X95112513Y-100150338D01*
X94998704Y-99546595D01*
X94779292Y-98961426D01*
X94457231Y-98431491D01*
X94050182Y-97973970D01*
X93571248Y-97577709D01*
X93033534Y-97231553D01*
X92450143Y-96924348D01*
X91834180Y-96644940D01*
X91198748Y-96382173D01*
X90556950Y-96124894D01*
X89921892Y-95861948D01*
X89306677Y-95582180D01*
X88724408Y-95274437D01*
X88188190Y-94927563D01*
X87711127Y-94530405D01*
X87306322Y-94071807D01*
X86986879Y-93540615D01*
X86759298Y-92916798D01*
X86640717Y-92253441D01*
X86620931Y-91566738D01*
X86689738Y-90872883D01*
X86836934Y-90188070D01*
X87052316Y-89528492D01*
X87325679Y-88910343D01*
X87682316Y-88380341D01*
X88143738Y-87934278D01*
X88677189Y-87545398D01*
X89249910Y-87186948D01*
X89829145Y-86832171D01*
X90382135Y-86454314D01*
X90876123Y-86026620D01*
X91278352Y-85522336D01*
X91621385Y-84905572D01*
X91902417Y-84262641D01*
X92131192Y-83597540D01*
X92317451Y-82914264D01*
X92470936Y-82216812D01*
X92601389Y-81509179D01*
X92718551Y-80795362D01*
X92832165Y-80079357D01*
X92951973Y-79365162D01*
X93087716Y-78656773D01*
X93249137Y-77958186D01*
X93445977Y-77273398D01*
X93679563Y-76539395D01*
X93911213Y-75802938D01*
X94144347Y-75065895D01*
X94382385Y-74330137D01*
X94628748Y-73597532D01*
X94886856Y-72869952D01*
X95160130Y-72149264D01*
X95451990Y-71437340D01*
X95765858Y-70736047D01*
X96105152Y-70047257D01*
X96473295Y-69372838D01*
X96852469Y-68723081D01*
X97243127Y-68075156D01*
X97646808Y-67432129D01*
X98065052Y-66797063D01*
X98499398Y-66173025D01*
X98951384Y-65563079D01*
X99422551Y-64970290D01*
X99914438Y-64397722D01*
X100428584Y-63848441D01*
X100966529Y-63325511D01*
X101529811Y-62831996D01*
X102119971Y-62370963D01*
X102702639Y-61956729D01*
X103300687Y-61558863D01*
X103913128Y-61178231D01*
X104538976Y-60815699D01*
X105177244Y-60472134D01*
X105826945Y-60148402D01*
X106487092Y-59845368D01*
X107156699Y-59563899D01*
X107834780Y-59304862D01*
X108520348Y-59069121D01*
X109212415Y-58857544D01*
X109909996Y-58670996D01*
X110612104Y-58510344D01*
X111317752Y-58376454D01*
X112025954Y-58270191D01*
X112735722Y-58192423D01*
X113475412Y-58144352D01*
X114218618Y-58130677D01*
X114963937Y-58150234D01*
%TD*%
M02*
