%TF.GenerationSoftware,KiCad,Pcbnew,(7.0.0-0)*%
%TF.CreationDate,2023-07-23T12:34:26-06:00*%
%TF.ProjectId,HAS4_SAO,48415334-5f53-4414-9f2e-6b696361645f,rev?*%
%TF.SameCoordinates,Original*%
%TF.FileFunction,Legend,Bot*%
%TF.FilePolarity,Positive*%
%FSLAX46Y46*%
G04 Gerber Fmt 4.6, Leading zero omitted, Abs format (unit mm)*
G04 Created by KiCad (PCBNEW (7.0.0-0)) date 2023-07-23 12:34:26*
%MOMM*%
%LPD*%
G01*
G04 APERTURE LIST*
G04 Aperture macros list*
%AMRoundRect*
0 Rectangle with rounded corners*
0 $1 Rounding radius*
0 $2 $3 $4 $5 $6 $7 $8 $9 X,Y pos of 4 corners*
0 Add a 4 corners polygon primitive as box body*
4,1,4,$2,$3,$4,$5,$6,$7,$8,$9,$2,$3,0*
0 Add four circle primitives for the rounded corners*
1,1,$1+$1,$2,$3*
1,1,$1+$1,$4,$5*
1,1,$1+$1,$6,$7*
1,1,$1+$1,$8,$9*
0 Add four rect primitives between the rounded corners*
20,1,$1+$1,$2,$3,$4,$5,0*
20,1,$1+$1,$4,$5,$6,$7,0*
20,1,$1+$1,$6,$7,$8,$9,0*
20,1,$1+$1,$8,$9,$2,$3,0*%
G04 Aperture macros list end*
%ADD10C,0.150000*%
%ADD11C,0.100000*%
%ADD12C,0.120000*%
%ADD13RoundRect,0.250000X0.625000X-0.400000X0.625000X0.400000X-0.625000X0.400000X-0.625000X-0.400000X0*%
%ADD14R,1.700000X1.700000*%
%ADD15O,1.700000X1.700000*%
%ADD16R,5.080000X1.270000*%
%ADD17C,17.800000*%
%ADD18R,0.800000X1.000000*%
%ADD19C,0.900000*%
%ADD20R,1.500000X0.700000*%
G04 APERTURE END LIST*
D10*
X134678438Y-104530352D02*
X134535581Y-104577971D01*
X134535581Y-104577971D02*
X134487962Y-104625590D01*
X134487962Y-104625590D02*
X134440343Y-104720828D01*
X134440343Y-104720828D02*
X134440343Y-104863685D01*
X134440343Y-104863685D02*
X134487962Y-104958923D01*
X134487962Y-104958923D02*
X134535581Y-105006542D01*
X134535581Y-105006542D02*
X134630819Y-105054161D01*
X134630819Y-105054161D02*
X135011771Y-105054161D01*
X135011771Y-105054161D02*
X135011771Y-104054161D01*
X135011771Y-104054161D02*
X134678438Y-104054161D01*
X134678438Y-104054161D02*
X134583200Y-104101781D01*
X134583200Y-104101781D02*
X134535581Y-104149400D01*
X134535581Y-104149400D02*
X134487962Y-104244638D01*
X134487962Y-104244638D02*
X134487962Y-104339876D01*
X134487962Y-104339876D02*
X134535581Y-104435114D01*
X134535581Y-104435114D02*
X134583200Y-104482733D01*
X134583200Y-104482733D02*
X134678438Y-104530352D01*
X134678438Y-104530352D02*
X135011771Y-104530352D01*
X133583200Y-105054161D02*
X133583200Y-104530352D01*
X133583200Y-104530352D02*
X133630819Y-104435114D01*
X133630819Y-104435114D02*
X133726057Y-104387495D01*
X133726057Y-104387495D02*
X133916533Y-104387495D01*
X133916533Y-104387495D02*
X134011771Y-104435114D01*
X133583200Y-105006542D02*
X133678438Y-105054161D01*
X133678438Y-105054161D02*
X133916533Y-105054161D01*
X133916533Y-105054161D02*
X134011771Y-105006542D01*
X134011771Y-105006542D02*
X134059390Y-104911304D01*
X134059390Y-104911304D02*
X134059390Y-104816066D01*
X134059390Y-104816066D02*
X134011771Y-104720828D01*
X134011771Y-104720828D02*
X133916533Y-104673209D01*
X133916533Y-104673209D02*
X133678438Y-104673209D01*
X133678438Y-104673209D02*
X133583200Y-104625590D01*
X133249866Y-104387495D02*
X132868914Y-104387495D01*
X133107009Y-104054161D02*
X133107009Y-104911304D01*
X133107009Y-104911304D02*
X133059390Y-105006542D01*
X133059390Y-105006542D02*
X132964152Y-105054161D01*
X132964152Y-105054161D02*
X132868914Y-105054161D01*
X132678437Y-104387495D02*
X132297485Y-104387495D01*
X132535580Y-104054161D02*
X132535580Y-104911304D01*
X132535580Y-104911304D02*
X132487961Y-105006542D01*
X132487961Y-105006542D02*
X132392723Y-105054161D01*
X132392723Y-105054161D02*
X132297485Y-105054161D01*
X131364151Y-104387495D02*
X131364151Y-105387495D01*
X131364151Y-104435114D02*
X131268913Y-104387495D01*
X131268913Y-104387495D02*
X131078437Y-104387495D01*
X131078437Y-104387495D02*
X130983199Y-104435114D01*
X130983199Y-104435114D02*
X130935580Y-104482733D01*
X130935580Y-104482733D02*
X130887961Y-104577971D01*
X130887961Y-104577971D02*
X130887961Y-104863685D01*
X130887961Y-104863685D02*
X130935580Y-104958923D01*
X130935580Y-104958923D02*
X130983199Y-105006542D01*
X130983199Y-105006542D02*
X131078437Y-105054161D01*
X131078437Y-105054161D02*
X131268913Y-105054161D01*
X131268913Y-105054161D02*
X131364151Y-105006542D01*
X130554627Y-104387495D02*
X130364151Y-105054161D01*
X130364151Y-105054161D02*
X130173675Y-104577971D01*
X130173675Y-104577971D02*
X129983199Y-105054161D01*
X129983199Y-105054161D02*
X129792723Y-104387495D01*
X129411770Y-105054161D02*
X129411770Y-104387495D01*
X129411770Y-104577971D02*
X129364151Y-104482733D01*
X129364151Y-104482733D02*
X129316532Y-104435114D01*
X129316532Y-104435114D02*
X129221294Y-104387495D01*
X129221294Y-104387495D02*
X129126056Y-104387495D01*
X135059390Y-93888913D02*
X134916533Y-93936532D01*
X134916533Y-93936532D02*
X134678438Y-93936532D01*
X134678438Y-93936532D02*
X134583200Y-93888913D01*
X134583200Y-93888913D02*
X134535581Y-93841294D01*
X134535581Y-93841294D02*
X134487962Y-93746056D01*
X134487962Y-93746056D02*
X134487962Y-93650818D01*
X134487962Y-93650818D02*
X134535581Y-93555580D01*
X134535581Y-93555580D02*
X134583200Y-93507961D01*
X134583200Y-93507961D02*
X134678438Y-93460342D01*
X134678438Y-93460342D02*
X134868914Y-93412723D01*
X134868914Y-93412723D02*
X134964152Y-93365104D01*
X134964152Y-93365104D02*
X135011771Y-93317485D01*
X135011771Y-93317485D02*
X135059390Y-93222247D01*
X135059390Y-93222247D02*
X135059390Y-93127009D01*
X135059390Y-93127009D02*
X135011771Y-93031771D01*
X135011771Y-93031771D02*
X134964152Y-92984152D01*
X134964152Y-92984152D02*
X134868914Y-92936532D01*
X134868914Y-92936532D02*
X134630819Y-92936532D01*
X134630819Y-92936532D02*
X134487962Y-92984152D01*
X134107009Y-93650818D02*
X133630819Y-93650818D01*
X134202247Y-93936532D02*
X133868914Y-92936532D01*
X133868914Y-92936532D02*
X133535581Y-93936532D01*
X133011771Y-92936532D02*
X132821295Y-92936532D01*
X132821295Y-92936532D02*
X132726057Y-92984152D01*
X132726057Y-92984152D02*
X132630819Y-93079390D01*
X132630819Y-93079390D02*
X132583200Y-93269866D01*
X132583200Y-93269866D02*
X132583200Y-93603199D01*
X132583200Y-93603199D02*
X132630819Y-93793675D01*
X132630819Y-93793675D02*
X132726057Y-93888913D01*
X132726057Y-93888913D02*
X132821295Y-93936532D01*
X132821295Y-93936532D02*
X133011771Y-93936532D01*
X133011771Y-93936532D02*
X133107009Y-93888913D01*
X133107009Y-93888913D02*
X133202247Y-93793675D01*
X133202247Y-93793675D02*
X133249866Y-93603199D01*
X133249866Y-93603199D02*
X133249866Y-93269866D01*
X133249866Y-93269866D02*
X133202247Y-93079390D01*
X133202247Y-93079390D02*
X133107009Y-92984152D01*
X133107009Y-92984152D02*
X133011771Y-92936532D01*
X131554628Y-93269866D02*
X131554628Y-94269866D01*
X131554628Y-93317485D02*
X131459390Y-93269866D01*
X131459390Y-93269866D02*
X131268914Y-93269866D01*
X131268914Y-93269866D02*
X131173676Y-93317485D01*
X131173676Y-93317485D02*
X131126057Y-93365104D01*
X131126057Y-93365104D02*
X131078438Y-93460342D01*
X131078438Y-93460342D02*
X131078438Y-93746056D01*
X131078438Y-93746056D02*
X131126057Y-93841294D01*
X131126057Y-93841294D02*
X131173676Y-93888913D01*
X131173676Y-93888913D02*
X131268914Y-93936532D01*
X131268914Y-93936532D02*
X131459390Y-93936532D01*
X131459390Y-93936532D02*
X131554628Y-93888913D01*
X130745104Y-93269866D02*
X130554628Y-93936532D01*
X130554628Y-93936532D02*
X130364152Y-93460342D01*
X130364152Y-93460342D02*
X130173676Y-93936532D01*
X130173676Y-93936532D02*
X129983200Y-93269866D01*
X129602247Y-93936532D02*
X129602247Y-93269866D01*
X129602247Y-93460342D02*
X129554628Y-93365104D01*
X129554628Y-93365104D02*
X129507009Y-93317485D01*
X129507009Y-93317485D02*
X129411771Y-93269866D01*
X129411771Y-93269866D02*
X129316533Y-93269866D01*
X117238095Y-60710000D02*
X117333333Y-60662380D01*
X117333333Y-60662380D02*
X117476190Y-60662380D01*
X117476190Y-60662380D02*
X117619047Y-60710000D01*
X117619047Y-60710000D02*
X117714285Y-60805238D01*
X117714285Y-60805238D02*
X117761904Y-60900476D01*
X117761904Y-60900476D02*
X117809523Y-61090952D01*
X117809523Y-61090952D02*
X117809523Y-61233809D01*
X117809523Y-61233809D02*
X117761904Y-61424285D01*
X117761904Y-61424285D02*
X117714285Y-61519523D01*
X117714285Y-61519523D02*
X117619047Y-61614761D01*
X117619047Y-61614761D02*
X117476190Y-61662380D01*
X117476190Y-61662380D02*
X117380952Y-61662380D01*
X117380952Y-61662380D02*
X117238095Y-61614761D01*
X117238095Y-61614761D02*
X117190476Y-61567142D01*
X117190476Y-61567142D02*
X117190476Y-61233809D01*
X117190476Y-61233809D02*
X117380952Y-61233809D01*
X116619047Y-61662380D02*
X116714285Y-61614761D01*
X116714285Y-61614761D02*
X116761904Y-61519523D01*
X116761904Y-61519523D02*
X116761904Y-60662380D01*
X115809523Y-60995714D02*
X115809523Y-61662380D01*
X116238094Y-60995714D02*
X116238094Y-61519523D01*
X116238094Y-61519523D02*
X116190475Y-61614761D01*
X116190475Y-61614761D02*
X116095237Y-61662380D01*
X116095237Y-61662380D02*
X115952380Y-61662380D01*
X115952380Y-61662380D02*
X115857142Y-61614761D01*
X115857142Y-61614761D02*
X115809523Y-61567142D01*
X114952380Y-61614761D02*
X115047618Y-61662380D01*
X115047618Y-61662380D02*
X115238094Y-61662380D01*
X115238094Y-61662380D02*
X115333332Y-61614761D01*
X115333332Y-61614761D02*
X115380951Y-61519523D01*
X115380951Y-61519523D02*
X115380951Y-61138571D01*
X115380951Y-61138571D02*
X115333332Y-61043333D01*
X115333332Y-61043333D02*
X115238094Y-60995714D01*
X115238094Y-60995714D02*
X115047618Y-60995714D01*
X115047618Y-60995714D02*
X114952380Y-61043333D01*
X114952380Y-61043333D02*
X114904761Y-61138571D01*
X114904761Y-61138571D02*
X114904761Y-61233809D01*
X114904761Y-61233809D02*
X115380951Y-61329047D01*
X113876189Y-60995714D02*
X113876189Y-61995714D01*
X113876189Y-61043333D02*
X113780951Y-60995714D01*
X113780951Y-60995714D02*
X113590475Y-60995714D01*
X113590475Y-60995714D02*
X113495237Y-61043333D01*
X113495237Y-61043333D02*
X113447618Y-61090952D01*
X113447618Y-61090952D02*
X113399999Y-61186190D01*
X113399999Y-61186190D02*
X113399999Y-61471904D01*
X113399999Y-61471904D02*
X113447618Y-61567142D01*
X113447618Y-61567142D02*
X113495237Y-61614761D01*
X113495237Y-61614761D02*
X113590475Y-61662380D01*
X113590475Y-61662380D02*
X113780951Y-61662380D01*
X113780951Y-61662380D02*
X113876189Y-61614761D01*
X112971427Y-61662380D02*
X112971427Y-60995714D01*
X112971427Y-60662380D02*
X113019046Y-60710000D01*
X113019046Y-60710000D02*
X112971427Y-60757619D01*
X112971427Y-60757619D02*
X112923808Y-60710000D01*
X112923808Y-60710000D02*
X112971427Y-60662380D01*
X112971427Y-60662380D02*
X112971427Y-60757619D01*
X112495237Y-60995714D02*
X112495237Y-61662380D01*
X112495237Y-61090952D02*
X112447618Y-61043333D01*
X112447618Y-61043333D02*
X112352380Y-60995714D01*
X112352380Y-60995714D02*
X112209523Y-60995714D01*
X112209523Y-60995714D02*
X112114285Y-61043333D01*
X112114285Y-61043333D02*
X112066666Y-61138571D01*
X112066666Y-61138571D02*
X112066666Y-61662380D01*
X110990475Y-61662380D02*
X110990475Y-60662380D01*
X110561904Y-61662380D02*
X110561904Y-61138571D01*
X110561904Y-61138571D02*
X110609523Y-61043333D01*
X110609523Y-61043333D02*
X110704761Y-60995714D01*
X110704761Y-60995714D02*
X110847618Y-60995714D01*
X110847618Y-60995714D02*
X110942856Y-61043333D01*
X110942856Y-61043333D02*
X110990475Y-61090952D01*
X109704761Y-61614761D02*
X109799999Y-61662380D01*
X109799999Y-61662380D02*
X109990475Y-61662380D01*
X109990475Y-61662380D02*
X110085713Y-61614761D01*
X110085713Y-61614761D02*
X110133332Y-61519523D01*
X110133332Y-61519523D02*
X110133332Y-61138571D01*
X110133332Y-61138571D02*
X110085713Y-61043333D01*
X110085713Y-61043333D02*
X109990475Y-60995714D01*
X109990475Y-60995714D02*
X109799999Y-60995714D01*
X109799999Y-60995714D02*
X109704761Y-61043333D01*
X109704761Y-61043333D02*
X109657142Y-61138571D01*
X109657142Y-61138571D02*
X109657142Y-61233809D01*
X109657142Y-61233809D02*
X110133332Y-61329047D01*
X109228570Y-61662380D02*
X109228570Y-60995714D01*
X109228570Y-61186190D02*
X109180951Y-61090952D01*
X109180951Y-61090952D02*
X109133332Y-61043333D01*
X109133332Y-61043333D02*
X109038094Y-60995714D01*
X109038094Y-60995714D02*
X108942856Y-60995714D01*
X108228570Y-61614761D02*
X108323808Y-61662380D01*
X108323808Y-61662380D02*
X108514284Y-61662380D01*
X108514284Y-61662380D02*
X108609522Y-61614761D01*
X108609522Y-61614761D02*
X108657141Y-61519523D01*
X108657141Y-61519523D02*
X108657141Y-61138571D01*
X108657141Y-61138571D02*
X108609522Y-61043333D01*
X108609522Y-61043333D02*
X108514284Y-60995714D01*
X108514284Y-60995714D02*
X108323808Y-60995714D01*
X108323808Y-60995714D02*
X108228570Y-61043333D01*
X108228570Y-61043333D02*
X108180951Y-61138571D01*
X108180951Y-61138571D02*
X108180951Y-61233809D01*
X108180951Y-61233809D02*
X108657141Y-61329047D01*
X117619047Y-63282380D02*
X117714285Y-63234761D01*
X117714285Y-63234761D02*
X117761904Y-63187142D01*
X117761904Y-63187142D02*
X117809523Y-63091904D01*
X117809523Y-63091904D02*
X117809523Y-62806190D01*
X117809523Y-62806190D02*
X117761904Y-62710952D01*
X117761904Y-62710952D02*
X117714285Y-62663333D01*
X117714285Y-62663333D02*
X117619047Y-62615714D01*
X117619047Y-62615714D02*
X117476190Y-62615714D01*
X117476190Y-62615714D02*
X117380952Y-62663333D01*
X117380952Y-62663333D02*
X117333333Y-62710952D01*
X117333333Y-62710952D02*
X117285714Y-62806190D01*
X117285714Y-62806190D02*
X117285714Y-63091904D01*
X117285714Y-63091904D02*
X117333333Y-63187142D01*
X117333333Y-63187142D02*
X117380952Y-63234761D01*
X117380952Y-63234761D02*
X117476190Y-63282380D01*
X117476190Y-63282380D02*
X117619047Y-63282380D01*
X116857142Y-63282380D02*
X116857142Y-62615714D01*
X116857142Y-62806190D02*
X116809523Y-62710952D01*
X116809523Y-62710952D02*
X116761904Y-62663333D01*
X116761904Y-62663333D02*
X116666666Y-62615714D01*
X116666666Y-62615714D02*
X116571428Y-62615714D01*
X115733332Y-62615714D02*
X115542856Y-63282380D01*
X115542856Y-63282380D02*
X115352380Y-62806190D01*
X115352380Y-62806190D02*
X115161904Y-63282380D01*
X115161904Y-63282380D02*
X114971428Y-62615714D01*
X114590475Y-63282380D02*
X114590475Y-62282380D01*
X114161904Y-63282380D02*
X114161904Y-62758571D01*
X114161904Y-62758571D02*
X114209523Y-62663333D01*
X114209523Y-62663333D02*
X114304761Y-62615714D01*
X114304761Y-62615714D02*
X114447618Y-62615714D01*
X114447618Y-62615714D02*
X114542856Y-62663333D01*
X114542856Y-62663333D02*
X114590475Y-62710952D01*
X113304761Y-63234761D02*
X113399999Y-63282380D01*
X113399999Y-63282380D02*
X113590475Y-63282380D01*
X113590475Y-63282380D02*
X113685713Y-63234761D01*
X113685713Y-63234761D02*
X113733332Y-63139523D01*
X113733332Y-63139523D02*
X113733332Y-62758571D01*
X113733332Y-62758571D02*
X113685713Y-62663333D01*
X113685713Y-62663333D02*
X113590475Y-62615714D01*
X113590475Y-62615714D02*
X113399999Y-62615714D01*
X113399999Y-62615714D02*
X113304761Y-62663333D01*
X113304761Y-62663333D02*
X113257142Y-62758571D01*
X113257142Y-62758571D02*
X113257142Y-62853809D01*
X113257142Y-62853809D02*
X113733332Y-62949047D01*
X112828570Y-63282380D02*
X112828570Y-62615714D01*
X112828570Y-62806190D02*
X112780951Y-62710952D01*
X112780951Y-62710952D02*
X112733332Y-62663333D01*
X112733332Y-62663333D02*
X112638094Y-62615714D01*
X112638094Y-62615714D02*
X112542856Y-62615714D01*
X111828570Y-63234761D02*
X111923808Y-63282380D01*
X111923808Y-63282380D02*
X112114284Y-63282380D01*
X112114284Y-63282380D02*
X112209522Y-63234761D01*
X112209522Y-63234761D02*
X112257141Y-63139523D01*
X112257141Y-63139523D02*
X112257141Y-62758571D01*
X112257141Y-62758571D02*
X112209522Y-62663333D01*
X112209522Y-62663333D02*
X112114284Y-62615714D01*
X112114284Y-62615714D02*
X111923808Y-62615714D01*
X111923808Y-62615714D02*
X111828570Y-62663333D01*
X111828570Y-62663333D02*
X111780951Y-62758571D01*
X111780951Y-62758571D02*
X111780951Y-62853809D01*
X111780951Y-62853809D02*
X112257141Y-62949047D01*
X111447617Y-62615714D02*
X111209522Y-63282380D01*
X111209522Y-63282380D02*
X110971427Y-62615714D01*
X110209522Y-63234761D02*
X110304760Y-63282380D01*
X110304760Y-63282380D02*
X110495236Y-63282380D01*
X110495236Y-63282380D02*
X110590474Y-63234761D01*
X110590474Y-63234761D02*
X110638093Y-63139523D01*
X110638093Y-63139523D02*
X110638093Y-62758571D01*
X110638093Y-62758571D02*
X110590474Y-62663333D01*
X110590474Y-62663333D02*
X110495236Y-62615714D01*
X110495236Y-62615714D02*
X110304760Y-62615714D01*
X110304760Y-62615714D02*
X110209522Y-62663333D01*
X110209522Y-62663333D02*
X110161903Y-62758571D01*
X110161903Y-62758571D02*
X110161903Y-62853809D01*
X110161903Y-62853809D02*
X110638093Y-62949047D01*
X109733331Y-63282380D02*
X109733331Y-62615714D01*
X109733331Y-62806190D02*
X109685712Y-62710952D01*
X109685712Y-62710952D02*
X109638093Y-62663333D01*
X109638093Y-62663333D02*
X109542855Y-62615714D01*
X109542855Y-62615714D02*
X109447617Y-62615714D01*
%TO.C,svg2mod*%
G36*
X114952445Y-77395508D02*
G01*
X114416775Y-77904055D01*
X114234019Y-77983184D01*
X114073444Y-77924913D01*
X114033050Y-77583236D01*
X114461017Y-76980888D01*
X114732126Y-76546621D01*
X115267988Y-76546621D01*
X115905651Y-76193355D01*
X116580066Y-75922530D01*
X116308579Y-75198206D01*
X116094700Y-74504174D01*
X115864916Y-75236172D01*
X115578555Y-75924983D01*
X115267988Y-76546621D01*
X114732126Y-76546621D01*
X114852491Y-76353819D01*
X115188859Y-75696069D01*
X115441646Y-74992544D01*
X115585986Y-74273717D01*
X115641448Y-73528475D01*
X115675798Y-73041702D01*
X115942071Y-72676601D01*
X116225849Y-72911462D01*
X116326125Y-73331812D01*
X116484714Y-74013510D01*
X116633959Y-74552009D01*
X116883631Y-75372002D01*
X117065762Y-75783806D01*
X117683686Y-75669169D01*
X118323213Y-75615616D01*
X118728126Y-75578204D01*
X118674160Y-74909956D01*
X118597350Y-74296586D01*
X118472225Y-73788645D01*
X118325838Y-73287619D01*
X118158997Y-72795129D01*
X118224477Y-72425040D01*
X118550409Y-72316653D01*
X118824471Y-72572311D01*
X118913946Y-72957731D01*
X118986039Y-73342406D01*
X119063057Y-73859930D01*
X119119465Y-74380681D01*
X119186633Y-74951590D01*
X119233689Y-75565954D01*
X119982141Y-75621162D01*
X120728856Y-75765265D01*
X120745078Y-75678521D01*
X120809309Y-74949479D01*
X121047368Y-74646037D01*
X121391449Y-74713259D01*
X121497960Y-75083898D01*
X121242363Y-75917895D01*
X121916447Y-76191038D01*
X122098541Y-76757849D01*
X121548944Y-76903858D01*
X121074173Y-76653889D01*
X120787457Y-78202691D01*
X120541463Y-78407632D01*
X120495442Y-78403326D01*
X120294807Y-78111313D01*
X120602382Y-76450937D01*
X120134232Y-76290692D01*
X120133901Y-76290692D01*
X119710323Y-76208957D01*
X119252230Y-76148328D01*
X119239773Y-76764802D01*
X119188827Y-77386988D01*
X119092441Y-78004331D01*
X118943660Y-78606280D01*
X118703627Y-78785065D01*
X118631449Y-78774472D01*
X118463592Y-78462261D01*
X118603174Y-77892535D01*
X118692287Y-77304093D01*
X118737821Y-76707892D01*
X118746666Y-76114889D01*
X117993910Y-76135498D01*
X117276663Y-76244011D01*
X117423332Y-76518809D01*
X117794019Y-76994159D01*
X118208659Y-77426305D01*
X118255452Y-77784168D01*
X117993455Y-77991057D01*
X117656413Y-77863332D01*
X117299093Y-77359673D01*
X116998884Y-76833668D01*
X116835660Y-76479078D01*
X116783680Y-76376112D01*
X116136643Y-76631195D01*
X115525983Y-76971107D01*
X115267988Y-77162016D01*
X114952445Y-77395508D01*
G37*
G36*
X107529275Y-81061048D02*
G01*
X107134211Y-81414256D01*
X106930348Y-81604230D01*
X106566488Y-81630054D01*
X106434718Y-81393992D01*
X106629767Y-80975090D01*
X106940280Y-80617274D01*
X106938962Y-80616611D01*
X107227169Y-80191088D01*
X107313438Y-80055096D01*
X107910351Y-80055096D01*
X108357021Y-79878547D01*
X108977758Y-79705474D01*
X109114164Y-79668392D01*
X108801733Y-78450772D01*
X108564103Y-78914359D01*
X108266067Y-79456218D01*
X107910351Y-80055096D01*
X107313438Y-80055096D01*
X107502464Y-79757122D01*
X107862599Y-79162085D01*
X108203365Y-78555626D01*
X108510609Y-77919947D01*
X108782098Y-77422995D01*
X109120793Y-77523312D01*
X109193962Y-77908028D01*
X109309510Y-78420876D01*
X109470209Y-78992902D01*
X109649533Y-79559466D01*
X109693234Y-79579001D01*
X110112012Y-79535093D01*
X110571264Y-79507818D01*
X110630197Y-79505494D01*
X110784813Y-79924312D01*
X110571264Y-80026949D01*
X110571264Y-80028606D01*
X110556690Y-80030263D01*
X110499745Y-80036876D01*
X109843870Y-80131236D01*
X110004735Y-80582252D01*
X110134561Y-80934439D01*
X110661312Y-80444108D01*
X111033283Y-80159377D01*
X111414193Y-79899478D01*
X111915378Y-79551314D01*
X112358512Y-79166217D01*
X112705413Y-78695332D01*
X112534864Y-78326175D01*
X111994580Y-78297703D01*
X111438362Y-78708576D01*
X111324139Y-79135340D01*
X110915253Y-79138655D01*
X110640744Y-78799171D01*
X110408697Y-78431132D01*
X110373271Y-78238443D01*
X110820232Y-78137794D01*
X110988752Y-78378160D01*
X111289375Y-78030856D01*
X111778960Y-77763966D01*
X112320782Y-77669681D01*
X112825596Y-77763671D01*
X113286131Y-78274200D01*
X113166280Y-78899613D01*
X112851710Y-79366978D01*
X112452466Y-79765062D01*
X112027895Y-80088530D01*
X111602580Y-80411997D01*
X111159260Y-80817407D01*
X110739779Y-81247648D01*
X110387549Y-81678097D01*
X110177602Y-82187260D01*
X110194488Y-82405773D01*
X110610203Y-82817382D01*
X111199995Y-82799246D01*
X111798249Y-82537875D01*
X111803545Y-82534901D01*
X112292180Y-82134829D01*
X112646478Y-81663494D01*
X112784706Y-81127927D01*
X112616020Y-80632835D01*
X112681907Y-80284536D01*
X113060249Y-80392593D01*
X113246400Y-80818241D01*
X113269162Y-81371396D01*
X113089798Y-81897237D01*
X112706382Y-82426853D01*
X112189409Y-82877702D01*
X111600239Y-83227529D01*
X111000231Y-83454080D01*
X110450743Y-83535100D01*
X109878674Y-83400184D01*
X109487626Y-83032848D01*
X109363139Y-82388894D01*
X109478024Y-81918758D01*
X109616746Y-81629393D01*
X109265469Y-80259374D01*
X108208655Y-80643217D01*
X107910351Y-80826679D01*
X107529275Y-81061048D01*
G37*
G36*
X115960574Y-82275210D02*
G01*
X115473737Y-82791171D01*
X114982264Y-83441404D01*
X114587613Y-83606282D01*
X114294605Y-83351680D01*
X114440282Y-82908362D01*
X114439974Y-82908030D01*
X114513474Y-82821947D01*
X114915296Y-82303518D01*
X115278042Y-81749487D01*
X115435245Y-81459877D01*
X116029476Y-81459877D01*
X116277084Y-81286390D01*
X117015108Y-80938091D01*
X116797835Y-80378771D01*
X116618803Y-79793873D01*
X116484114Y-80298049D01*
X116291080Y-80855935D01*
X116029476Y-81459877D01*
X115435245Y-81459877D01*
X115595079Y-81165420D01*
X115859777Y-80556881D01*
X116065506Y-79929433D01*
X116205635Y-79288640D01*
X116272513Y-78631442D01*
X116272822Y-78372537D01*
X116496302Y-78102704D01*
X116771101Y-78320225D01*
X116892261Y-78960088D01*
X117079876Y-79589801D01*
X117315228Y-80195738D01*
X117579601Y-80764273D01*
X117762027Y-80738118D01*
X118104698Y-80686800D01*
X118254679Y-80666934D01*
X118910883Y-80720238D01*
X118989598Y-81009108D01*
X118745010Y-81171835D01*
X118656281Y-81166538D01*
X118337035Y-81175354D01*
X117837515Y-81250964D01*
X118266709Y-81967133D01*
X118590179Y-82446689D01*
X118722499Y-82627603D01*
X118699321Y-83139457D01*
X118189829Y-83071875D01*
X117857381Y-82626611D01*
X117554150Y-82043326D01*
X117239249Y-81436701D01*
X116875308Y-81605678D01*
X116499943Y-81832013D01*
X116477762Y-81847574D01*
X116434390Y-81878365D01*
X116029476Y-82217501D01*
X115960574Y-82275210D01*
G37*
G36*
X107914330Y-78412599D02*
G01*
X107776600Y-78599329D01*
X107297426Y-78984818D01*
X106767118Y-79297911D01*
X106213562Y-79567743D01*
X105882810Y-79732623D01*
X105862657Y-80448215D01*
X105822885Y-81159586D01*
X105761598Y-81905955D01*
X105656166Y-82647248D01*
X105491141Y-83377504D01*
X105249780Y-83561586D01*
X105182902Y-83552650D01*
X105008092Y-83244411D01*
X105154668Y-82612847D01*
X105255244Y-81971195D01*
X105311373Y-81324017D01*
X105324605Y-80675877D01*
X105271632Y-80054106D01*
X104850827Y-80242822D01*
X104313357Y-80412254D01*
X103765209Y-80370621D01*
X103605298Y-80243154D01*
X103595695Y-79902801D01*
X104166148Y-79725342D01*
X104166805Y-79725339D01*
X104883929Y-79529338D01*
X105176936Y-79426702D01*
X105137868Y-79123432D01*
X105189519Y-78627802D01*
X105298113Y-78563902D01*
X105690652Y-78587202D01*
X105855985Y-78949944D01*
X105867911Y-79139322D01*
X106224155Y-78966167D01*
X106648355Y-78736562D01*
X107061132Y-78487092D01*
X107409016Y-78232820D01*
X107781234Y-78125550D01*
X107914330Y-78412599D01*
G37*
G36*
X108677302Y-72774127D02*
G01*
X108938692Y-73268597D01*
X109209118Y-73820372D01*
X109524583Y-74346229D01*
X109881080Y-74845206D01*
X110274606Y-75316341D01*
X110287523Y-75270320D01*
X110476448Y-74664354D01*
X110704368Y-74072220D01*
X110978491Y-73500024D01*
X111216333Y-73161700D01*
X111568148Y-73083854D01*
X111593145Y-73520303D01*
X111316195Y-73952282D01*
X111075581Y-74456603D01*
X110880159Y-74980292D01*
X110881149Y-74979939D01*
X110678932Y-75696744D01*
X110531232Y-76427087D01*
X110425250Y-77164420D01*
X110176607Y-77385583D01*
X110161047Y-77385273D01*
X109926309Y-77084983D01*
X109962853Y-76578840D01*
X110067682Y-76065249D01*
X109486302Y-76250655D01*
X108848927Y-76582192D01*
X108300697Y-77046576D01*
X108078871Y-77247211D01*
X107730821Y-77209923D01*
X107713024Y-76884346D01*
X108242141Y-76371220D01*
X108819461Y-76001433D01*
X109380330Y-75752697D01*
X109860094Y-75602727D01*
X109516307Y-75195950D01*
X109188560Y-74776002D01*
X108877441Y-74343621D01*
X108527389Y-73874258D01*
X108169686Y-73251934D01*
X108218258Y-72749462D01*
X108677302Y-72774127D01*
G37*
G36*
X112529601Y-72929879D02*
G01*
X112649784Y-73238447D01*
X113275529Y-72962036D01*
X113936038Y-72945108D01*
X114469758Y-73223486D01*
X114787901Y-73669569D01*
X114920645Y-74227196D01*
X114898171Y-74840208D01*
X114750658Y-75452443D01*
X114508286Y-76007742D01*
X114201234Y-76449944D01*
X113716447Y-76842764D01*
X113166135Y-77051947D01*
X112596988Y-77083221D01*
X112055699Y-76942312D01*
X111588958Y-76634949D01*
X111243456Y-76166860D01*
X111065886Y-75543773D01*
X111065231Y-75544103D01*
X111068205Y-75409684D01*
X111521455Y-75104426D01*
X111826714Y-75557348D01*
X111907156Y-76136747D01*
X112305127Y-76504615D01*
X112862266Y-76624978D01*
X113420212Y-76461864D01*
X113855280Y-76074233D01*
X114185715Y-75551677D01*
X114381876Y-74957048D01*
X114414120Y-74353201D01*
X114201027Y-73743679D01*
X113671833Y-73405313D01*
X113194496Y-73508031D01*
X112832873Y-73844659D01*
X112647465Y-74100585D01*
X112357107Y-74155877D01*
X112233614Y-73957888D01*
X112146456Y-73537705D01*
X112138262Y-73108333D01*
X112231627Y-72870946D01*
X112529601Y-72929879D01*
G37*
G36*
X114604705Y-79959206D02*
G01*
X115221304Y-80185874D01*
X115383536Y-80287184D01*
X115453062Y-80535497D01*
X115264346Y-80706004D01*
X115215015Y-80707088D01*
X115078940Y-80673979D01*
X114426707Y-80467385D01*
X113733422Y-80392228D01*
X113561922Y-80370710D01*
X113413928Y-80112672D01*
X113628469Y-79871769D01*
X113628800Y-79872338D01*
X113959552Y-79840556D01*
X114604705Y-79959206D01*
G37*
G36*
X107790539Y-74919354D02*
G01*
X108183161Y-74945594D01*
X108573177Y-74998896D01*
X108572847Y-74998480D01*
X108918827Y-75251758D01*
X108791359Y-75491793D01*
X108783089Y-75496424D01*
X108183167Y-75497508D01*
X107411746Y-75451156D01*
X107089975Y-75190511D01*
X107397172Y-74914471D01*
X107790539Y-74919354D01*
G37*
D11*
X123975499Y-91523858D02*
X124257439Y-92174583D01*
X124629782Y-92771714D01*
X125036506Y-93308903D01*
X124356069Y-93090281D01*
X123768946Y-92705206D01*
X123302688Y-92181140D01*
X122984843Y-91545546D01*
X122842962Y-90825885D01*
X123839986Y-90825885D01*
X123975499Y-91523858D01*
X124629591Y-88543713D02*
X124257382Y-89140737D01*
X123975492Y-89791442D01*
X123839986Y-90489606D01*
X122842508Y-90489606D01*
X122984563Y-89769989D01*
X123302429Y-89134482D01*
X123768622Y-88610481D01*
X124355658Y-88225385D01*
X125036052Y-88006588D01*
X124629591Y-88543713D01*
X125327343Y-93140308D02*
X124931937Y-92620069D01*
X124575428Y-92058760D01*
X124306085Y-91459619D01*
X124172176Y-90825885D01*
X125327343Y-90825885D01*
X125327343Y-93140308D01*
X125327343Y-90489606D02*
X124172176Y-90489606D01*
X124305829Y-89852229D01*
X124575087Y-89253493D01*
X124931681Y-88694208D01*
X125327343Y-88175183D01*
X125327343Y-90489606D01*
X126681046Y-91459811D02*
X126411788Y-92058930D01*
X126055194Y-92620133D01*
X125659533Y-93140308D01*
X125659533Y-90825885D01*
X126814699Y-90825885D01*
X126681046Y-91459811D01*
X126055002Y-88695167D02*
X126411618Y-89256504D01*
X126680982Y-89855673D01*
X126814699Y-90489606D01*
X125659533Y-90489606D01*
X125659533Y-88174728D01*
X126055002Y-88695167D01*
X128002032Y-91545546D02*
X127684188Y-92181140D01*
X127217930Y-92705206D01*
X126630807Y-93090281D01*
X125950369Y-93308903D01*
X126355943Y-92771778D01*
X126726369Y-92174754D01*
X127007925Y-91524049D01*
X127146889Y-90825885D01*
X128143913Y-90825885D01*
X128002032Y-91545546D01*
X126630807Y-88225210D02*
X127217930Y-88610285D01*
X127684188Y-89134351D01*
X128002032Y-89769945D01*
X128143913Y-90489606D01*
X127146889Y-90489606D01*
X127011376Y-89791442D01*
X126729436Y-89140737D01*
X126357093Y-88543713D01*
X125950369Y-88006588D01*
X126630807Y-88225210D01*
G36*
X128112009Y-92446345D02*
G01*
X127726517Y-92919625D01*
X127259228Y-93310063D01*
X126722804Y-93604830D01*
X126129911Y-93791099D01*
X125950369Y-93809411D01*
X125659533Y-93839075D01*
X125493210Y-93856039D01*
X125327343Y-93839121D01*
X125036506Y-93809456D01*
X124856530Y-93791099D01*
X124263687Y-93604830D01*
X123727337Y-93310063D01*
X123260131Y-92919625D01*
X122874723Y-92446345D01*
X122842962Y-92387040D01*
X122583765Y-91903053D01*
X122399912Y-91302577D01*
X122352529Y-90825885D01*
X122842962Y-90825885D01*
X122984843Y-91545546D01*
X123302688Y-92181140D01*
X123768946Y-92705206D01*
X124356069Y-93090281D01*
X125036506Y-93308903D01*
X125950369Y-93308903D01*
X126630807Y-93090281D01*
X127217930Y-92705206D01*
X127684188Y-92181140D01*
X128002032Y-91545546D01*
X128143913Y-90825885D01*
X127146889Y-90825885D01*
X127007861Y-91523858D01*
X126726198Y-92174583D01*
X126355751Y-92771714D01*
X125950369Y-93308903D01*
X125036506Y-93308903D01*
X124629782Y-92771778D01*
X124257439Y-92174754D01*
X124172176Y-91977971D01*
X123975499Y-91524049D01*
X123839986Y-90825885D01*
X124172176Y-90825885D01*
X124305829Y-91459811D01*
X124575087Y-92058930D01*
X124931681Y-92620133D01*
X125327343Y-93140308D01*
X125327343Y-90825885D01*
X125659533Y-90825885D01*
X125659533Y-93140308D01*
X126055002Y-92620133D01*
X126411618Y-92058930D01*
X126680982Y-91459811D01*
X126814699Y-90825885D01*
X125659533Y-90825885D01*
X125327343Y-90825885D01*
X124172176Y-90825885D01*
X123839986Y-90825885D01*
X122842962Y-90825885D01*
X122352529Y-90825885D01*
X122335816Y-90657746D01*
X122352529Y-90489606D01*
X122842962Y-90489606D01*
X123839986Y-90489606D01*
X124172176Y-90489606D01*
X125327343Y-90489606D01*
X125327343Y-88175183D01*
X125659533Y-88175183D01*
X125659533Y-90489606D01*
X126814699Y-90489606D01*
X126681046Y-89855680D01*
X126411788Y-89256561D01*
X126055194Y-88695358D01*
X125659533Y-88175183D01*
X125327343Y-88175183D01*
X125327343Y-88174728D01*
X124931681Y-88693952D01*
X124575087Y-89253266D01*
X124305829Y-89852030D01*
X124172176Y-90489606D01*
X123839986Y-90489606D01*
X123975499Y-89791442D01*
X124257439Y-89140737D01*
X124629782Y-88543713D01*
X125036506Y-88006588D01*
X125950369Y-88006588D01*
X126357093Y-88543713D01*
X126729436Y-89140737D01*
X127011376Y-89791442D01*
X127146889Y-90489606D01*
X128143913Y-90489606D01*
X128001858Y-89769989D01*
X127683991Y-89134482D01*
X127217799Y-88610481D01*
X126630763Y-88225385D01*
X125950369Y-88006588D01*
X125036506Y-88006588D01*
X124356069Y-88225210D01*
X123768946Y-88610285D01*
X123302688Y-89134351D01*
X122984843Y-89769945D01*
X122842962Y-90489606D01*
X122352529Y-90489606D01*
X122399912Y-90012914D01*
X122583765Y-89412438D01*
X122874723Y-88869146D01*
X123260131Y-88395866D01*
X123727337Y-88005428D01*
X124263687Y-87710661D01*
X124856530Y-87524392D01*
X125493210Y-87459452D01*
X126129911Y-87524392D01*
X126722804Y-87710661D01*
X127259228Y-88005428D01*
X127726517Y-88395866D01*
X128112009Y-88869146D01*
X128403039Y-89412438D01*
X128586944Y-90012914D01*
X128651059Y-90657746D01*
X128586944Y-91302577D01*
X128403039Y-91903053D01*
X128143913Y-92386786D01*
X128112009Y-92446345D01*
G37*
G36*
X122508955Y-86439252D02*
G01*
X122971907Y-86639997D01*
X123379647Y-86904136D01*
X123762392Y-87194461D01*
X124128096Y-87502169D01*
X124684387Y-88023213D01*
X125215985Y-88567009D01*
X125724920Y-89130893D01*
X126213220Y-89712207D01*
X126682914Y-90308287D01*
X127058157Y-90817571D01*
X127420878Y-91336347D01*
X127764917Y-91868353D01*
X128090172Y-92413116D01*
X128392302Y-92973027D01*
X128658785Y-93554750D01*
X128824653Y-94011000D01*
X128923264Y-94504059D01*
X128899179Y-94783989D01*
X128870096Y-94859425D01*
X128823744Y-94933498D01*
X128757851Y-94997118D01*
X128678325Y-95040744D01*
X128376582Y-95048923D01*
X128134825Y-94958491D01*
X127721746Y-94701283D01*
X127350475Y-94402266D01*
X127003857Y-94079733D01*
X126675643Y-93740159D01*
X127044926Y-94032245D01*
X127422729Y-94310017D01*
X127812746Y-94563874D01*
X128218440Y-94767630D01*
X128422026Y-94825343D01*
X128583349Y-94814436D01*
X128645606Y-94716733D01*
X128645152Y-94529053D01*
X128530294Y-94108078D01*
X128352043Y-93688808D01*
X128141982Y-93278910D01*
X127913516Y-92875829D01*
X127672553Y-92478996D01*
X127420003Y-92088298D01*
X127069349Y-91575631D01*
X126708194Y-91069831D01*
X126333910Y-90573221D01*
X125949982Y-90083764D01*
X125557672Y-89601073D01*
X125153750Y-89128581D01*
X124740334Y-88665835D01*
X124315810Y-88213490D01*
X123875432Y-87778009D01*
X123536312Y-87462519D01*
X123184241Y-87165434D01*
X122815696Y-86898228D01*
X122431247Y-86695552D01*
X122252200Y-86661469D01*
X122148590Y-86713274D01*
X122107691Y-86882778D01*
X122121778Y-87097724D01*
X122322183Y-87797095D01*
X122620290Y-87441729D01*
X122710722Y-88702324D01*
X121744600Y-87887527D01*
X122214937Y-87854808D01*
X122055602Y-87505577D01*
X121932735Y-87134533D01*
X121893199Y-86882778D01*
X121946368Y-86596940D01*
X121996810Y-86526048D01*
X122028620Y-86493784D01*
X122065883Y-86468336D01*
X122104964Y-86445160D01*
X122144954Y-86430618D01*
X122225389Y-86411986D01*
X122508955Y-86439252D01*
G37*
G36*
X106011882Y-94322286D02*
G01*
X103834243Y-94322286D01*
X103834243Y-93952833D01*
X105543817Y-93952833D01*
X105543817Y-93403425D01*
X104143257Y-93403425D01*
X104143257Y-93063964D01*
X105543817Y-93063964D01*
X105543817Y-92540003D01*
X103834243Y-92540003D01*
X103834243Y-92166006D01*
X106011882Y-92166006D01*
X106011882Y-94322286D01*
G37*
G36*
X108515675Y-92197738D02*
G01*
X108991253Y-92400550D01*
X109325899Y-92745911D01*
X109452388Y-93239829D01*
X109243972Y-93854087D01*
X108707254Y-94234564D01*
X107975029Y-94365003D01*
X107248560Y-94242222D01*
X106713963Y-93880814D01*
X106505850Y-93291180D01*
X106510394Y-93175300D01*
X107777351Y-93175300D01*
X107777351Y-93175754D01*
X107777351Y-93523395D01*
X107034354Y-93523395D01*
X107422553Y-93865980D01*
X107949126Y-93957377D01*
X108665368Y-93764528D01*
X108949786Y-93227105D01*
X108786527Y-92805005D01*
X108399889Y-92588106D01*
X107944582Y-92526825D01*
X107359841Y-92602488D01*
X106875303Y-92784488D01*
X106875303Y-92367774D01*
X107380632Y-92193215D01*
X107966395Y-92131469D01*
X108515675Y-92197738D01*
G37*
G36*
X112511170Y-94322286D02*
G01*
X111986756Y-94322286D01*
X111016089Y-92840383D01*
X110535300Y-93575200D01*
X111212403Y-93575200D01*
X111463704Y-93957377D01*
X110286271Y-93957377D01*
X110045422Y-94322286D01*
X109521461Y-94322286D01*
X111016089Y-92131923D01*
X112511170Y-94322286D01*
G37*
G36*
X114650183Y-94322286D02*
G01*
X112610237Y-94322286D01*
X112610237Y-93918751D01*
X114182117Y-93918751D01*
X114182117Y-92166006D01*
X114650183Y-92166006D01*
X114650183Y-94322286D01*
G37*
G36*
X117159102Y-94322286D02*
G01*
X115118702Y-94322286D01*
X115118702Y-93918751D01*
X116690583Y-93918751D01*
X116690583Y-92166006D01*
X117159102Y-92166006D01*
X117159102Y-94322286D01*
G37*
G36*
X118357440Y-94322286D02*
G01*
X117889375Y-94322286D01*
X117889375Y-92166006D01*
X118357440Y-92166006D01*
X118357440Y-94322286D01*
G37*
G36*
X120178804Y-93626551D02*
G01*
X121076308Y-92166006D01*
X121630715Y-92166006D01*
X120178804Y-94365457D01*
X118718259Y-92166006D01*
X119268122Y-92166006D01*
X120178804Y-93626551D01*
G37*
G36*
X98009332Y-89960647D02*
G01*
X95831239Y-89960647D01*
X95831239Y-89591193D01*
X97540812Y-89591193D01*
X97540812Y-89041330D01*
X96140707Y-89041330D01*
X96140707Y-88701870D01*
X97540812Y-88701870D01*
X97540812Y-88177909D01*
X95831239Y-88177909D01*
X95831239Y-87804366D01*
X98009332Y-87804366D01*
X98009332Y-89960647D01*
G37*
G36*
X100236958Y-87843263D02*
G01*
X100726609Y-88059189D01*
X101036645Y-88409570D01*
X101144914Y-88886823D01*
X101036652Y-89364069D01*
X100726666Y-89714401D01*
X100237150Y-89930193D01*
X99590301Y-90003818D01*
X99058843Y-89955477D01*
X98598276Y-89810684D01*
X98598276Y-89393515D01*
X99003005Y-89534616D01*
X99568943Y-89595283D01*
X100150902Y-89509850D01*
X100516148Y-89266880D01*
X100642766Y-88886369D01*
X100515609Y-88506178D01*
X100152653Y-88263326D01*
X99581667Y-88177909D01*
X99007776Y-88247097D01*
X98597821Y-88409670D01*
X98597821Y-87967053D01*
X99056855Y-87818283D01*
X99589847Y-87769375D01*
X100236958Y-87843263D01*
G37*
G36*
X104207786Y-89960647D02*
G01*
X103683372Y-89960647D01*
X102712705Y-88478743D01*
X102231915Y-89213106D01*
X102909474Y-89213106D01*
X103160775Y-89595283D01*
X101982887Y-89595283D01*
X101742038Y-89960647D01*
X101218077Y-89960647D01*
X102712705Y-87769829D01*
X104207786Y-89960647D01*
G37*
G36*
X104963961Y-89269001D02*
G01*
X104306909Y-89027413D01*
X104113719Y-88534639D01*
X104611777Y-88534639D01*
X105062573Y-88860921D01*
X105977345Y-88860921D01*
X105977345Y-88212446D01*
X105062573Y-88212446D01*
X104611777Y-88534639D01*
X104113719Y-88534639D01*
X104306739Y-88043909D01*
X104963961Y-87804366D01*
X106445865Y-87804366D01*
X106445865Y-89960647D01*
X105977800Y-89960647D01*
X105977800Y-89269001D01*
X105062573Y-89269001D01*
X104963961Y-89269001D01*
G37*
G36*
X108668509Y-87811502D02*
G01*
X109112910Y-88000209D01*
X109302425Y-88431482D01*
X109109931Y-88854282D01*
X108650908Y-89030686D01*
X108103041Y-89085439D01*
X107644017Y-89143290D01*
X107451523Y-89328986D01*
X107709129Y-89557679D01*
X108301766Y-89612552D01*
X108818739Y-89590000D01*
X109319694Y-89522120D01*
X109336962Y-89912931D01*
X108806526Y-89978881D01*
X108237236Y-90002909D01*
X107645077Y-89956287D01*
X107179958Y-89755967D01*
X106991638Y-89311263D01*
X107183532Y-88876775D01*
X107641519Y-88692065D01*
X108188241Y-88634894D01*
X108646338Y-88583023D01*
X108838450Y-88414214D01*
X108600100Y-88208527D01*
X108078185Y-88160641D01*
X107557860Y-88191258D01*
X107188861Y-88263797D01*
X107167503Y-87872985D01*
X107551896Y-87806922D01*
X108155438Y-87769829D01*
X108668509Y-87811502D01*
G37*
G36*
X110665651Y-89925648D02*
G01*
X110185387Y-89703836D01*
X109862925Y-89352425D01*
X109745157Y-88886823D01*
X110247644Y-88886823D01*
X110533311Y-89401752D01*
X111256938Y-89591193D01*
X111980564Y-89401752D01*
X112266232Y-88886823D01*
X111980564Y-88368828D01*
X111256938Y-88182454D01*
X110533311Y-88368828D01*
X110247644Y-88886823D01*
X109745157Y-88886823D01*
X109745042Y-88886369D01*
X109862861Y-88416671D01*
X110185216Y-88065665D01*
X110665459Y-87845876D01*
X111256938Y-87769829D01*
X111846500Y-87845876D01*
X112326955Y-88065665D01*
X112650376Y-88416671D01*
X112768834Y-88886369D01*
X112650376Y-89352616D01*
X112326955Y-89704006D01*
X111846500Y-89925712D01*
X111256938Y-90002909D01*
X110665651Y-89925648D01*
G37*
G36*
X113675880Y-89960647D02*
G01*
X113151920Y-89960647D01*
X113649977Y-89217650D01*
X113303359Y-88930222D01*
X113198726Y-88543273D01*
X113700874Y-88543273D01*
X114117588Y-88873645D01*
X115054173Y-88873645D01*
X115054173Y-88221080D01*
X114117588Y-88221080D01*
X113700874Y-88543273D01*
X113198726Y-88543273D01*
X113392144Y-88048226D01*
X114049423Y-87804366D01*
X115522692Y-87804366D01*
X115522692Y-89960647D01*
X115054627Y-89960647D01*
X115054627Y-89286269D01*
X114131221Y-89286269D01*
X114117588Y-89306460D01*
X113675880Y-89960647D01*
G37*
G36*
X118280187Y-89960647D02*
G01*
X116102548Y-89960647D01*
X116102548Y-89591193D01*
X117812121Y-89591193D01*
X117812121Y-89041330D01*
X116411562Y-89041330D01*
X116411562Y-88701870D01*
X117812121Y-88701870D01*
X117812121Y-88177909D01*
X116102548Y-88177909D01*
X116102548Y-87804366D01*
X118280187Y-87804366D01*
X118280187Y-89960647D01*
G37*
G36*
X121630715Y-89960647D02*
G01*
X121106755Y-89960647D01*
X120870450Y-89595283D01*
X120867723Y-89595283D01*
X120616422Y-89213106D01*
X120616877Y-89213106D01*
X120135633Y-88478743D01*
X119654844Y-89213106D01*
X120327858Y-89213106D01*
X120579159Y-89595283D01*
X119405815Y-89595283D01*
X119164966Y-89960647D01*
X118641006Y-89960647D01*
X120135633Y-87769829D01*
X121630715Y-89960647D01*
G37*
G36*
X123670471Y-128233664D02*
G01*
X123296835Y-128475428D01*
X123285869Y-129365561D01*
X123077074Y-129453477D01*
X123099049Y-128486420D01*
X121384722Y-127541342D01*
X121109991Y-127717172D01*
X121131966Y-130794168D01*
X121461645Y-131277695D01*
X123121025Y-132233762D01*
X123143000Y-129816123D01*
X123538615Y-129508424D01*
X123538615Y-128673237D01*
X123692464Y-128585321D01*
X123637479Y-133090923D01*
X121044011Y-131618361D01*
X120637408Y-130959004D01*
X120626442Y-127035835D01*
X121153926Y-126750113D01*
X123670471Y-128233664D01*
G37*
G36*
X124583025Y-128101556D02*
G01*
X124561050Y-132585866D01*
X124533591Y-132632544D01*
X123632885Y-133159787D01*
X123577967Y-133066416D01*
X124451213Y-132552902D01*
X124473189Y-128101546D01*
X124583025Y-128101556D01*
G37*
X124516660Y-127717169D02*
X123618307Y-128258328D01*
X121142953Y-126761102D01*
X121978138Y-126244606D01*
X124516660Y-127717169D01*
G36*
X122067581Y-130325861D02*
G01*
X122320219Y-130718547D01*
X123111083Y-131152424D01*
X123056165Y-131248537D01*
X122257063Y-130806422D01*
X122237844Y-130789944D01*
X121965984Y-130372544D01*
X121957689Y-130342343D01*
X121965984Y-127956020D01*
X122075876Y-127956014D01*
X122067581Y-130325861D01*
G37*
G36*
X112698099Y-124638783D02*
G01*
X112096711Y-125012247D01*
X112085745Y-125454362D01*
X111978651Y-125451550D01*
X111989618Y-124981975D01*
X112014335Y-124935296D01*
X112640425Y-124545412D01*
X112698099Y-124638783D01*
G37*
G36*
X112575593Y-125785957D02*
G01*
X112563782Y-125963135D01*
X112067685Y-125679651D01*
X112067685Y-125467037D01*
X112575593Y-125785957D01*
G37*
G36*
X113823976Y-129469091D02*
G01*
X113771800Y-129565204D01*
X113131969Y-129213709D01*
X112146134Y-129762920D01*
X112093958Y-129666807D01*
X113104507Y-129103865D01*
X113156684Y-129103865D01*
X113823976Y-129469091D01*
G37*
G36*
X115305177Y-128380897D02*
G01*
X115283918Y-131005931D01*
X114327429Y-131579826D01*
X114231780Y-131537309D01*
X114263668Y-128922903D01*
X114369901Y-128880399D01*
X114359216Y-131452293D01*
X115209429Y-130974049D01*
X115220115Y-128391525D01*
X115233753Y-125701013D01*
X115305177Y-128380897D01*
G37*
G36*
X114353060Y-126252362D02*
G01*
X114296948Y-128552958D01*
X113982721Y-128811075D01*
X113971473Y-131347343D01*
X112086106Y-130281213D01*
X112074858Y-129731314D01*
X112164644Y-129675201D01*
X113769450Y-130572996D01*
X113769450Y-126600256D01*
X112882878Y-126128915D01*
X112804326Y-125623906D01*
X112299317Y-125320901D01*
X112377913Y-125141341D01*
X114353060Y-126252362D01*
G37*
G36*
X115276639Y-125671295D02*
G01*
X115276639Y-125764666D01*
X114362203Y-126319371D01*
X114304530Y-126226000D01*
X115139331Y-125717979D01*
X114373181Y-125270373D01*
X114428109Y-125177006D01*
X115276639Y-125671295D01*
G37*
G36*
X104172814Y-120543867D02*
G01*
X104144357Y-124627131D01*
X106363831Y-121795879D01*
X106392288Y-122877160D01*
X104187042Y-125808004D01*
X103603718Y-125495001D01*
X103945177Y-125011270D01*
X103930948Y-123759259D01*
X103617946Y-123190163D01*
X103603718Y-120245092D01*
X104172814Y-120543867D01*
G37*
G36*
X106918699Y-122080427D02*
G01*
X106852674Y-127397470D01*
X106306920Y-127045788D01*
X106264234Y-123616985D01*
X106733739Y-122934071D01*
X106705282Y-121995063D01*
X106918699Y-122080427D01*
G37*
G36*
X107815605Y-121535734D02*
G01*
X107840322Y-121582413D01*
X107854101Y-122592962D01*
X107747007Y-122595774D01*
X107733228Y-121612685D01*
X107247177Y-121305127D01*
X106360199Y-121859831D01*
X106302526Y-121766460D01*
X107216962Y-121195280D01*
X107274631Y-121195223D01*
X107815605Y-121535734D01*
G37*
G36*
X107812855Y-121615375D02*
G01*
X106890180Y-122156348D01*
X106835262Y-122062977D01*
X107757937Y-121522004D01*
X107812855Y-121615375D01*
G37*
G36*
X107458623Y-127063551D02*
G01*
X106862729Y-127434269D01*
X106805056Y-127340897D01*
X107400950Y-126970180D01*
X107458623Y-127063551D01*
G37*
G36*
X106329992Y-123762788D02*
G01*
X105113489Y-125328040D01*
X105097011Y-125341819D01*
X104215527Y-125860824D01*
X104160610Y-125767453D01*
X105033856Y-125253941D01*
X106244860Y-123694134D01*
X106329992Y-123762788D01*
G37*
G36*
X104572512Y-119629971D02*
G01*
X105127215Y-119986958D01*
X105151932Y-120030895D01*
X105140965Y-123397561D01*
X105031116Y-123397561D01*
X105042082Y-120061102D01*
X104542301Y-119739813D01*
X103660816Y-120305501D01*
X103603143Y-120212130D01*
X104512087Y-119629965D01*
X104572512Y-119629971D01*
G37*
G36*
X103693799Y-123910570D02*
G01*
X103701110Y-124931187D01*
X103546916Y-125114752D01*
X103554227Y-123704979D01*
X103693799Y-123910570D01*
G37*
X115262709Y-122425282D02*
X114401114Y-122918242D01*
X112182077Y-121595493D01*
X113095711Y-121116988D01*
X115262709Y-122425282D01*
G36*
X112346879Y-121643192D02*
G01*
X114067174Y-122736093D01*
X113874906Y-122877766D01*
X113156427Y-122472989D01*
X112812368Y-122655138D01*
X112144488Y-122250362D01*
X112154611Y-121582482D01*
X112346879Y-121643192D01*
G37*
G36*
X114390497Y-123552739D02*
G01*
X113853536Y-123210426D01*
X114395418Y-122919021D01*
X114390497Y-123552739D01*
G37*
G36*
X115331554Y-123007621D02*
G01*
X115304095Y-123057055D01*
X114488517Y-123540361D01*
X115290366Y-124029159D01*
X115290366Y-124122530D01*
X114417120Y-124638788D01*
X114362202Y-124545416D01*
X115158558Y-124075840D01*
X114356709Y-123587042D01*
X114356709Y-123493671D01*
X115221718Y-122980159D01*
X115191517Y-122384264D01*
X115301354Y-122381519D01*
X115331554Y-123007621D01*
G37*
G36*
X113148447Y-122755049D02*
G01*
X113900867Y-123183434D01*
X113845950Y-123276806D01*
X113120991Y-122862151D01*
X112181839Y-123375664D01*
X112129663Y-123279551D01*
X113096271Y-122752237D01*
X113148447Y-122755049D01*
G37*
G36*
X114390497Y-124593099D02*
G01*
X114390497Y-125237450D01*
X112141978Y-123982307D01*
X112155335Y-123290971D01*
X114390497Y-124593099D01*
G37*
G36*
X115326075Y-124718418D02*
G01*
X114417131Y-125259390D01*
X114362213Y-125166019D01*
X115268402Y-124625047D01*
X115326075Y-124718418D01*
G37*
G36*
X118192952Y-128370669D02*
G01*
X118168235Y-128417347D01*
X117327942Y-128963813D01*
X117267527Y-128873197D01*
X118085851Y-128343209D01*
X118085851Y-127862648D01*
X118192952Y-127862648D01*
X118192952Y-128370669D01*
G37*
G36*
X120653418Y-129784887D02*
G01*
X120653418Y-129878258D01*
X119810380Y-130372548D01*
X119755462Y-130279177D01*
X120518866Y-129831569D01*
X118110574Y-128417350D01*
X118168237Y-128323986D01*
X120653418Y-129784887D01*
G37*
G36*
X120645181Y-127610011D02*
G01*
X120647993Y-127703382D01*
X119772000Y-128249846D01*
X119714327Y-128159230D01*
X120513430Y-127659449D01*
X118113376Y-126267198D01*
X118168237Y-126173824D01*
X120645181Y-127610011D01*
G37*
G36*
X118209435Y-125665869D02*
G01*
X118201140Y-126220572D01*
X118173681Y-126267251D01*
X117308674Y-126783510D01*
X117253756Y-126690139D01*
X118094049Y-126187612D01*
X118099586Y-125663057D01*
X118209435Y-125665869D01*
G37*
G36*
X120702847Y-125495547D02*
G01*
X120711142Y-126083204D01*
X120683683Y-126129882D01*
X119774739Y-126640649D01*
X119722563Y-126544536D01*
X120601301Y-126050245D01*
X120593006Y-125495542D01*
X120702847Y-125495547D01*
G37*
G36*
X117679440Y-123732580D02*
G01*
X120683624Y-125465341D01*
X120683624Y-125561454D01*
X119771934Y-126085951D01*
X119717017Y-125989838D01*
X120546326Y-125512024D01*
X117654728Y-123842422D01*
X116797959Y-124350442D01*
X116743041Y-124257071D01*
X117624525Y-123732574D01*
X117679440Y-123732580D01*
G37*
G36*
X116792463Y-123161400D02*
G01*
X116822663Y-123210834D01*
X116808884Y-124375162D01*
X116699035Y-124372350D01*
X116712814Y-123243721D01*
X116224015Y-123007560D01*
X115326054Y-123556771D01*
X115271136Y-123463400D01*
X116191065Y-122900458D01*
X116243251Y-122897778D01*
X116792463Y-123161400D01*
G37*
G36*
X107760682Y-125896463D02*
G01*
X107733223Y-125847029D01*
X107733376Y-125816844D01*
X107843065Y-125816844D01*
X110979062Y-127621003D01*
X110979062Y-124531688D01*
X111086158Y-124531688D01*
X111086158Y-127621003D01*
X111907230Y-127154173D01*
X111907230Y-124051128D01*
X111086158Y-124531688D01*
X110979062Y-124531688D01*
X110979062Y-124517959D01*
X107859543Y-122678101D01*
X107843065Y-125816844D01*
X107733376Y-125816844D01*
X107749701Y-122587481D01*
X107919955Y-122587481D01*
X111047715Y-124430085D01*
X111849562Y-123957763D01*
X108741027Y-122139873D01*
X107919955Y-122587481D01*
X107749701Y-122587481D01*
X107749701Y-122587460D01*
X107777160Y-122540782D01*
X108716311Y-122030014D01*
X108768486Y-122030024D01*
X111989611Y-123911073D01*
X112017069Y-123957752D01*
X112017069Y-127187114D01*
X111989611Y-127233793D01*
X111086158Y-127745482D01*
X111058697Y-127761035D01*
X111047715Y-127761035D01*
X111006521Y-127761035D01*
X110979062Y-127745262D01*
X107760682Y-125896463D01*
G37*
G36*
X119500369Y-125809559D02*
G01*
X119409135Y-125885581D01*
X117843031Y-125011300D01*
X117850623Y-125520664D01*
X117280441Y-125163348D01*
X117242423Y-126714247D01*
X119766434Y-128151108D01*
X119770371Y-128794696D01*
X117265276Y-127307238D01*
X117265276Y-128850534D01*
X117341297Y-128888552D01*
X117174043Y-128994985D01*
X117174043Y-129466337D01*
X116725499Y-129177443D01*
X116763516Y-124327086D01*
X119500369Y-125809559D01*
G37*
G36*
X115895714Y-128440746D02*
G01*
X116701656Y-127951535D01*
X116688440Y-128141959D01*
X115840861Y-128611481D01*
X115322557Y-128337085D01*
X115296069Y-127591771D01*
X115895714Y-128440746D01*
G37*
G36*
X119751268Y-130295001D02*
G01*
X119747191Y-130951380D01*
X117440107Y-129603178D01*
X117455329Y-129154628D01*
X117614981Y-129055802D01*
X119751268Y-130295001D01*
G37*
G36*
X119426236Y-126191843D02*
G01*
X119764601Y-126017539D01*
X119764601Y-126601969D01*
X118134348Y-125627918D01*
X118124084Y-125443362D01*
X119426236Y-126191843D01*
G37*
G36*
X115820439Y-123744701D02*
G01*
X115861733Y-127956363D01*
X115545180Y-127474629D01*
X115545180Y-125492671D01*
X115324963Y-125382568D01*
X115311184Y-123469428D01*
X115820439Y-123744701D01*
G37*
G36*
X110454583Y-125056499D02*
G01*
X110450084Y-125513741D01*
X110059429Y-125291779D01*
X110059429Y-124821218D01*
X110454583Y-125056499D01*
G37*
G36*
X108816499Y-124128695D02*
G01*
X108807641Y-124581498D01*
X108416986Y-124363975D01*
X108412487Y-123902293D01*
X108816499Y-124128695D01*
G37*
G36*
X108514630Y-125100887D02*
G01*
X108510131Y-125376122D01*
X110254757Y-126374953D01*
X110259256Y-126037570D01*
X110467901Y-126161871D01*
X110467901Y-126738973D01*
X108305986Y-125509301D01*
X108305986Y-124967713D01*
X108514630Y-125100887D01*
G37*
G36*
X108208388Y-126180505D02*
G01*
X108007897Y-126343405D01*
X108872519Y-126869696D01*
X109361217Y-127696726D01*
X109185787Y-127784441D01*
X108734679Y-127007535D01*
X107744750Y-126481243D01*
X107744750Y-125917360D01*
X108208388Y-126180505D01*
G37*
G36*
X111927232Y-128662974D02*
G01*
X111133034Y-129110984D01*
X111133034Y-128683338D01*
X111927232Y-128225147D01*
X111927232Y-128662974D01*
G37*
G36*
X110033374Y-129019346D02*
G01*
X111102487Y-129589540D01*
X111112610Y-129385899D01*
X111906867Y-128927707D01*
X111906867Y-129375716D01*
X111122850Y-129833907D01*
X109901006Y-129172076D01*
X109391906Y-128306602D01*
X109595546Y-128194602D01*
X110033374Y-129019346D01*
G37*
G36*
X108394007Y-127532769D02*
G01*
X107905270Y-127848412D01*
X108648559Y-128255692D01*
X109951858Y-127542950D01*
X111132975Y-128194601D01*
X111143098Y-127970597D01*
X111937414Y-127532769D01*
X111927291Y-127960413D01*
X111122911Y-128428788D01*
X110002887Y-127807683D01*
X108658859Y-128530608D01*
X107742476Y-128001142D01*
X107742476Y-127573496D01*
X108383884Y-127156033D01*
X108394007Y-127532769D01*
G37*
G36*
X108098788Y-127003303D02*
G01*
X107742416Y-127217125D01*
X107742416Y-126789480D01*
X108098788Y-127003303D01*
G37*
D12*
%TO.C,R2*%
X131410000Y-109277064D02*
X131410000Y-107822936D01*
X129590000Y-109277064D02*
X129590000Y-107822936D01*
%TO.C,R1*%
X135410000Y-109277064D02*
X135410000Y-107822936D01*
X133590000Y-109277064D02*
X133590000Y-107822936D01*
%TO.C,J1*%
X110190000Y-136270000D02*
X107590000Y-136270000D01*
X115330000Y-133670000D02*
X115330000Y-138870000D01*
X107590000Y-138870000D02*
X115330000Y-138870000D01*
X107590000Y-133670000D02*
X107590000Y-135000000D01*
X110190000Y-133670000D02*
X115330000Y-133670000D01*
X110190000Y-133670000D02*
X110190000Y-136270000D01*
X108920000Y-133670000D02*
X107590000Y-133670000D01*
X107590000Y-136270000D02*
X107590000Y-138870000D01*
%TO.C,BT1*%
X123040000Y-113715000D02*
X123040000Y-117215000D01*
X112500000Y-97735000D02*
X111870000Y-97735000D01*
X123040000Y-99815000D02*
X120960000Y-97735000D01*
X120960000Y-97735000D02*
X118500000Y-97735000D01*
X120960000Y-119295000D02*
X118500000Y-119295000D01*
X112500000Y-119295000D02*
X111870000Y-119295000D01*
X123040000Y-99815000D02*
X123040000Y-103315000D01*
X111870000Y-97735000D02*
X107920000Y-99175000D01*
X111870000Y-119295000D02*
X107920000Y-117855000D01*
X123040000Y-117215000D02*
X120960000Y-119295000D01*
X107911831Y-99189757D02*
G75*
G03*
X106950001Y-102515000I738169J-2015243D01*
G01*
X106933470Y-114518354D02*
G75*
G03*
X107920000Y-117855000I1716531J-1306646D01*
G01*
%TO.C,SW1*%
X132800000Y-97750000D02*
X134090000Y-97750000D01*
X131790000Y-102600000D02*
X131000000Y-102600000D01*
X129950000Y-100550000D02*
X129950000Y-100750000D01*
X132800000Y-96300000D02*
X132800000Y-102000000D01*
X134300000Y-97950000D02*
X134300000Y-98850000D01*
X131000000Y-95700000D02*
X131790000Y-95700000D01*
X134090000Y-99050000D02*
X134300000Y-98850000D01*
X134090000Y-99050000D02*
X132800000Y-99050000D01*
X134090000Y-97750000D02*
X134300000Y-97950000D01*
X129950000Y-97550000D02*
X129950000Y-99250000D01*
%TD*%
%LPC*%
D13*
%TO.C,R2*%
X130500000Y-110100000D03*
X130500000Y-107000000D03*
%TD*%
%TO.C,R1*%
X134500000Y-110100000D03*
X134500000Y-107000000D03*
%TD*%
D14*
%TO.C,J1*%
X108919999Y-134999999D03*
D15*
X108919999Y-137539999D03*
X111459999Y-134999999D03*
X111459999Y-137539999D03*
X113999999Y-134999999D03*
X113999999Y-137539999D03*
%TD*%
D16*
%TO.C,BT1*%
X115499999Y-97529999D03*
X115499999Y-119499999D03*
D17*
X115500000Y-108515000D03*
%TD*%
D18*
%TO.C,SW1*%
X130289999Y-102799999D03*
X132499999Y-95499999D03*
X132499999Y-102799999D03*
X130289999Y-95499999D03*
D19*
X131400000Y-100650000D03*
X131400000Y-97650000D03*
D20*
X129639999Y-96899999D03*
X129639999Y-99899999D03*
X129639999Y-101399999D03*
%TD*%
M02*
