%TF.GenerationSoftware,KiCad,Pcbnew,(7.0.0-0)*%
%TF.CreationDate,2023-07-23T12:34:30-06:00*%
%TF.ProjectId,HAS4_SAO,48415334-5f53-4414-9f2e-6b696361645f,rev?*%
%TF.SameCoordinates,Original*%
%TF.FileFunction,Drillmap*%
%TF.FilePolarity,Positive*%
%FSLAX45Y45*%
G04 Gerber Fmt 4.5, Leading zero omitted, Abs format (unit mm)*
G04 Created by KiCad (PCBNEW (7.0.0-0)) date 2023-07-23 12:34:30*
%MOMM*%
%LPD*%
G01*
G04 APERTURE LIST*
%ADD10C,0.200000*%
%ADD11C,0.090000*%
G04 APERTURE END LIST*
D10*
D11*
X13095000Y-9720000D02*
X13185000Y-9810000D01*
X13185000Y-9720000D02*
X13095000Y-9810000D01*
X13095000Y-10020000D02*
X13185000Y-10110000D01*
X13185000Y-10020000D02*
X13095000Y-10110000D01*
D10*
X8901968Y-14984183D02*
X8901968Y-14784183D01*
X8901968Y-14784183D02*
X8949587Y-14784183D01*
X8949587Y-14784183D02*
X8978159Y-14793707D01*
X8978159Y-14793707D02*
X8997206Y-14812754D01*
X8997206Y-14812754D02*
X9006730Y-14831802D01*
X9006730Y-14831802D02*
X9016254Y-14869897D01*
X9016254Y-14869897D02*
X9016254Y-14898469D01*
X9016254Y-14898469D02*
X9006730Y-14936564D01*
X9006730Y-14936564D02*
X8997206Y-14955611D01*
X8997206Y-14955611D02*
X8978159Y-14974659D01*
X8978159Y-14974659D02*
X8949587Y-14984183D01*
X8949587Y-14984183D02*
X8901968Y-14984183D01*
X9101968Y-14984183D02*
X9101968Y-14850849D01*
X9101968Y-14888945D02*
X9111492Y-14869897D01*
X9111492Y-14869897D02*
X9121016Y-14860373D01*
X9121016Y-14860373D02*
X9140063Y-14850849D01*
X9140063Y-14850849D02*
X9159111Y-14850849D01*
X9225778Y-14984183D02*
X9225778Y-14850849D01*
X9225778Y-14784183D02*
X9216254Y-14793707D01*
X9216254Y-14793707D02*
X9225778Y-14803230D01*
X9225778Y-14803230D02*
X9235302Y-14793707D01*
X9235302Y-14793707D02*
X9225778Y-14784183D01*
X9225778Y-14784183D02*
X9225778Y-14803230D01*
X9349587Y-14984183D02*
X9330540Y-14974659D01*
X9330540Y-14974659D02*
X9321016Y-14955611D01*
X9321016Y-14955611D02*
X9321016Y-14784183D01*
X9454349Y-14984183D02*
X9435302Y-14974659D01*
X9435302Y-14974659D02*
X9425778Y-14955611D01*
X9425778Y-14955611D02*
X9425778Y-14784183D01*
X9650540Y-14984183D02*
X9650540Y-14784183D01*
X9650540Y-14784183D02*
X9717206Y-14927040D01*
X9717206Y-14927040D02*
X9783873Y-14784183D01*
X9783873Y-14784183D02*
X9783873Y-14984183D01*
X9964825Y-14984183D02*
X9964825Y-14879421D01*
X9964825Y-14879421D02*
X9955302Y-14860373D01*
X9955302Y-14860373D02*
X9936254Y-14850849D01*
X9936254Y-14850849D02*
X9898159Y-14850849D01*
X9898159Y-14850849D02*
X9879111Y-14860373D01*
X9964825Y-14974659D02*
X9945778Y-14984183D01*
X9945778Y-14984183D02*
X9898159Y-14984183D01*
X9898159Y-14984183D02*
X9879111Y-14974659D01*
X9879111Y-14974659D02*
X9869587Y-14955611D01*
X9869587Y-14955611D02*
X9869587Y-14936564D01*
X9869587Y-14936564D02*
X9879111Y-14917516D01*
X9879111Y-14917516D02*
X9898159Y-14907992D01*
X9898159Y-14907992D02*
X9945778Y-14907992D01*
X9945778Y-14907992D02*
X9964825Y-14898469D01*
X10060063Y-14850849D02*
X10060063Y-15050849D01*
X10060063Y-14860373D02*
X10079111Y-14850849D01*
X10079111Y-14850849D02*
X10117206Y-14850849D01*
X10117206Y-14850849D02*
X10136254Y-14860373D01*
X10136254Y-14860373D02*
X10145778Y-14869897D01*
X10145778Y-14869897D02*
X10155302Y-14888945D01*
X10155302Y-14888945D02*
X10155302Y-14946088D01*
X10155302Y-14946088D02*
X10145778Y-14965135D01*
X10145778Y-14965135D02*
X10136254Y-14974659D01*
X10136254Y-14974659D02*
X10117206Y-14984183D01*
X10117206Y-14984183D02*
X10079111Y-14984183D01*
X10079111Y-14984183D02*
X10060063Y-14974659D01*
X10241016Y-14965135D02*
X10250540Y-14974659D01*
X10250540Y-14974659D02*
X10241016Y-14984183D01*
X10241016Y-14984183D02*
X10231492Y-14974659D01*
X10231492Y-14974659D02*
X10241016Y-14965135D01*
X10241016Y-14965135D02*
X10241016Y-14984183D01*
X10241016Y-14860373D02*
X10250540Y-14869897D01*
X10250540Y-14869897D02*
X10241016Y-14879421D01*
X10241016Y-14879421D02*
X10231492Y-14869897D01*
X10231492Y-14869897D02*
X10241016Y-14860373D01*
X10241016Y-14860373D02*
X10241016Y-14879421D01*
D11*
X8564349Y-15285707D02*
X8654349Y-15375707D01*
X8654349Y-15285707D02*
X8564349Y-15375707D01*
D10*
X8940063Y-15204183D02*
X8959111Y-15204183D01*
X8959111Y-15204183D02*
X8978159Y-15213707D01*
X8978159Y-15213707D02*
X8987683Y-15223230D01*
X8987683Y-15223230D02*
X8997206Y-15242278D01*
X8997206Y-15242278D02*
X9006730Y-15280373D01*
X9006730Y-15280373D02*
X9006730Y-15327992D01*
X9006730Y-15327992D02*
X8997206Y-15366088D01*
X8997206Y-15366088D02*
X8987683Y-15385135D01*
X8987683Y-15385135D02*
X8978159Y-15394659D01*
X8978159Y-15394659D02*
X8959111Y-15404183D01*
X8959111Y-15404183D02*
X8940063Y-15404183D01*
X8940063Y-15404183D02*
X8921016Y-15394659D01*
X8921016Y-15394659D02*
X8911492Y-15385135D01*
X8911492Y-15385135D02*
X8901968Y-15366088D01*
X8901968Y-15366088D02*
X8892444Y-15327992D01*
X8892444Y-15327992D02*
X8892444Y-15280373D01*
X8892444Y-15280373D02*
X8901968Y-15242278D01*
X8901968Y-15242278D02*
X8911492Y-15223230D01*
X8911492Y-15223230D02*
X8921016Y-15213707D01*
X8921016Y-15213707D02*
X8940063Y-15204183D01*
X9092444Y-15385135D02*
X9101968Y-15394659D01*
X9101968Y-15394659D02*
X9092444Y-15404183D01*
X9092444Y-15404183D02*
X9082921Y-15394659D01*
X9082921Y-15394659D02*
X9092444Y-15385135D01*
X9092444Y-15385135D02*
X9092444Y-15404183D01*
X9197206Y-15404183D02*
X9235302Y-15404183D01*
X9235302Y-15404183D02*
X9254349Y-15394659D01*
X9254349Y-15394659D02*
X9263873Y-15385135D01*
X9263873Y-15385135D02*
X9282921Y-15356564D01*
X9282921Y-15356564D02*
X9292444Y-15318469D01*
X9292444Y-15318469D02*
X9292444Y-15242278D01*
X9292444Y-15242278D02*
X9282921Y-15223230D01*
X9282921Y-15223230D02*
X9273397Y-15213707D01*
X9273397Y-15213707D02*
X9254349Y-15204183D01*
X9254349Y-15204183D02*
X9216254Y-15204183D01*
X9216254Y-15204183D02*
X9197206Y-15213707D01*
X9197206Y-15213707D02*
X9187683Y-15223230D01*
X9187683Y-15223230D02*
X9178159Y-15242278D01*
X9178159Y-15242278D02*
X9178159Y-15289897D01*
X9178159Y-15289897D02*
X9187683Y-15308945D01*
X9187683Y-15308945D02*
X9197206Y-15318469D01*
X9197206Y-15318469D02*
X9216254Y-15327992D01*
X9216254Y-15327992D02*
X9254349Y-15327992D01*
X9254349Y-15327992D02*
X9273397Y-15318469D01*
X9273397Y-15318469D02*
X9282921Y-15308945D01*
X9282921Y-15308945D02*
X9292444Y-15289897D01*
X9416254Y-15204183D02*
X9435302Y-15204183D01*
X9435302Y-15204183D02*
X9454349Y-15213707D01*
X9454349Y-15213707D02*
X9463873Y-15223230D01*
X9463873Y-15223230D02*
X9473397Y-15242278D01*
X9473397Y-15242278D02*
X9482921Y-15280373D01*
X9482921Y-15280373D02*
X9482921Y-15327992D01*
X9482921Y-15327992D02*
X9473397Y-15366088D01*
X9473397Y-15366088D02*
X9463873Y-15385135D01*
X9463873Y-15385135D02*
X9454349Y-15394659D01*
X9454349Y-15394659D02*
X9435302Y-15404183D01*
X9435302Y-15404183D02*
X9416254Y-15404183D01*
X9416254Y-15404183D02*
X9397206Y-15394659D01*
X9397206Y-15394659D02*
X9387683Y-15385135D01*
X9387683Y-15385135D02*
X9378159Y-15366088D01*
X9378159Y-15366088D02*
X9368635Y-15327992D01*
X9368635Y-15327992D02*
X9368635Y-15280373D01*
X9368635Y-15280373D02*
X9378159Y-15242278D01*
X9378159Y-15242278D02*
X9387683Y-15223230D01*
X9387683Y-15223230D02*
X9397206Y-15213707D01*
X9397206Y-15213707D02*
X9416254Y-15204183D01*
X9606730Y-15204183D02*
X9625778Y-15204183D01*
X9625778Y-15204183D02*
X9644825Y-15213707D01*
X9644825Y-15213707D02*
X9654349Y-15223230D01*
X9654349Y-15223230D02*
X9663873Y-15242278D01*
X9663873Y-15242278D02*
X9673397Y-15280373D01*
X9673397Y-15280373D02*
X9673397Y-15327992D01*
X9673397Y-15327992D02*
X9663873Y-15366088D01*
X9663873Y-15366088D02*
X9654349Y-15385135D01*
X9654349Y-15385135D02*
X9644825Y-15394659D01*
X9644825Y-15394659D02*
X9625778Y-15404183D01*
X9625778Y-15404183D02*
X9606730Y-15404183D01*
X9606730Y-15404183D02*
X9587683Y-15394659D01*
X9587683Y-15394659D02*
X9578159Y-15385135D01*
X9578159Y-15385135D02*
X9568635Y-15366088D01*
X9568635Y-15366088D02*
X9559111Y-15327992D01*
X9559111Y-15327992D02*
X9559111Y-15280373D01*
X9559111Y-15280373D02*
X9568635Y-15242278D01*
X9568635Y-15242278D02*
X9578159Y-15223230D01*
X9578159Y-15223230D02*
X9587683Y-15213707D01*
X9587683Y-15213707D02*
X9606730Y-15204183D01*
X9759111Y-15404183D02*
X9759111Y-15270849D01*
X9759111Y-15289897D02*
X9768635Y-15280373D01*
X9768635Y-15280373D02*
X9787683Y-15270849D01*
X9787683Y-15270849D02*
X9816254Y-15270849D01*
X9816254Y-15270849D02*
X9835302Y-15280373D01*
X9835302Y-15280373D02*
X9844825Y-15299421D01*
X9844825Y-15299421D02*
X9844825Y-15404183D01*
X9844825Y-15299421D02*
X9854349Y-15280373D01*
X9854349Y-15280373D02*
X9873397Y-15270849D01*
X9873397Y-15270849D02*
X9901968Y-15270849D01*
X9901968Y-15270849D02*
X9921016Y-15280373D01*
X9921016Y-15280373D02*
X9930540Y-15299421D01*
X9930540Y-15299421D02*
X9930540Y-15404183D01*
X10025778Y-15404183D02*
X10025778Y-15270849D01*
X10025778Y-15289897D02*
X10035302Y-15280373D01*
X10035302Y-15280373D02*
X10054349Y-15270849D01*
X10054349Y-15270849D02*
X10082921Y-15270849D01*
X10082921Y-15270849D02*
X10101968Y-15280373D01*
X10101968Y-15280373D02*
X10111492Y-15299421D01*
X10111492Y-15299421D02*
X10111492Y-15404183D01*
X10111492Y-15299421D02*
X10121016Y-15280373D01*
X10121016Y-15280373D02*
X10140064Y-15270849D01*
X10140064Y-15270849D02*
X10168635Y-15270849D01*
X10168635Y-15270849D02*
X10187683Y-15280373D01*
X10187683Y-15280373D02*
X10197206Y-15299421D01*
X10197206Y-15299421D02*
X10197206Y-15404183D01*
X10555302Y-15194659D02*
X10383873Y-15451802D01*
X10780064Y-15204183D02*
X10799111Y-15204183D01*
X10799111Y-15204183D02*
X10818159Y-15213707D01*
X10818159Y-15213707D02*
X10827683Y-15223230D01*
X10827683Y-15223230D02*
X10837206Y-15242278D01*
X10837206Y-15242278D02*
X10846730Y-15280373D01*
X10846730Y-15280373D02*
X10846730Y-15327992D01*
X10846730Y-15327992D02*
X10837206Y-15366088D01*
X10837206Y-15366088D02*
X10827683Y-15385135D01*
X10827683Y-15385135D02*
X10818159Y-15394659D01*
X10818159Y-15394659D02*
X10799111Y-15404183D01*
X10799111Y-15404183D02*
X10780064Y-15404183D01*
X10780064Y-15404183D02*
X10761016Y-15394659D01*
X10761016Y-15394659D02*
X10751492Y-15385135D01*
X10751492Y-15385135D02*
X10741968Y-15366088D01*
X10741968Y-15366088D02*
X10732445Y-15327992D01*
X10732445Y-15327992D02*
X10732445Y-15280373D01*
X10732445Y-15280373D02*
X10741968Y-15242278D01*
X10741968Y-15242278D02*
X10751492Y-15223230D01*
X10751492Y-15223230D02*
X10761016Y-15213707D01*
X10761016Y-15213707D02*
X10780064Y-15204183D01*
X10932445Y-15385135D02*
X10941968Y-15394659D01*
X10941968Y-15394659D02*
X10932445Y-15404183D01*
X10932445Y-15404183D02*
X10922921Y-15394659D01*
X10922921Y-15394659D02*
X10932445Y-15385135D01*
X10932445Y-15385135D02*
X10932445Y-15404183D01*
X11065778Y-15204183D02*
X11084826Y-15204183D01*
X11084826Y-15204183D02*
X11103873Y-15213707D01*
X11103873Y-15213707D02*
X11113397Y-15223230D01*
X11113397Y-15223230D02*
X11122921Y-15242278D01*
X11122921Y-15242278D02*
X11132445Y-15280373D01*
X11132445Y-15280373D02*
X11132445Y-15327992D01*
X11132445Y-15327992D02*
X11122921Y-15366088D01*
X11122921Y-15366088D02*
X11113397Y-15385135D01*
X11113397Y-15385135D02*
X11103873Y-15394659D01*
X11103873Y-15394659D02*
X11084826Y-15404183D01*
X11084826Y-15404183D02*
X11065778Y-15404183D01*
X11065778Y-15404183D02*
X11046730Y-15394659D01*
X11046730Y-15394659D02*
X11037206Y-15385135D01*
X11037206Y-15385135D02*
X11027683Y-15366088D01*
X11027683Y-15366088D02*
X11018159Y-15327992D01*
X11018159Y-15327992D02*
X11018159Y-15280373D01*
X11018159Y-15280373D02*
X11027683Y-15242278D01*
X11027683Y-15242278D02*
X11037206Y-15223230D01*
X11037206Y-15223230D02*
X11046730Y-15213707D01*
X11046730Y-15213707D02*
X11065778Y-15204183D01*
X11199111Y-15204183D02*
X11322921Y-15204183D01*
X11322921Y-15204183D02*
X11256254Y-15280373D01*
X11256254Y-15280373D02*
X11284825Y-15280373D01*
X11284825Y-15280373D02*
X11303873Y-15289897D01*
X11303873Y-15289897D02*
X11313397Y-15299421D01*
X11313397Y-15299421D02*
X11322921Y-15318469D01*
X11322921Y-15318469D02*
X11322921Y-15366088D01*
X11322921Y-15366088D02*
X11313397Y-15385135D01*
X11313397Y-15385135D02*
X11303873Y-15394659D01*
X11303873Y-15394659D02*
X11284825Y-15404183D01*
X11284825Y-15404183D02*
X11227683Y-15404183D01*
X11227683Y-15404183D02*
X11208635Y-15394659D01*
X11208635Y-15394659D02*
X11199111Y-15385135D01*
X11503873Y-15204183D02*
X11408635Y-15204183D01*
X11408635Y-15204183D02*
X11399111Y-15299421D01*
X11399111Y-15299421D02*
X11408635Y-15289897D01*
X11408635Y-15289897D02*
X11427683Y-15280373D01*
X11427683Y-15280373D02*
X11475302Y-15280373D01*
X11475302Y-15280373D02*
X11494349Y-15289897D01*
X11494349Y-15289897D02*
X11503873Y-15299421D01*
X11503873Y-15299421D02*
X11513397Y-15318469D01*
X11513397Y-15318469D02*
X11513397Y-15366088D01*
X11513397Y-15366088D02*
X11503873Y-15385135D01*
X11503873Y-15385135D02*
X11494349Y-15394659D01*
X11494349Y-15394659D02*
X11475302Y-15404183D01*
X11475302Y-15404183D02*
X11427683Y-15404183D01*
X11427683Y-15404183D02*
X11408635Y-15394659D01*
X11408635Y-15394659D02*
X11399111Y-15385135D01*
X11684825Y-15270849D02*
X11684825Y-15404183D01*
X11637206Y-15194659D02*
X11589587Y-15337516D01*
X11589587Y-15337516D02*
X11713397Y-15337516D01*
X11780064Y-15204183D02*
X11780064Y-15242278D01*
X11856254Y-15204183D02*
X11856254Y-15242278D01*
X12119111Y-15480373D02*
X12109587Y-15470849D01*
X12109587Y-15470849D02*
X12090540Y-15442278D01*
X12090540Y-15442278D02*
X12081016Y-15423230D01*
X12081016Y-15423230D02*
X12071492Y-15394659D01*
X12071492Y-15394659D02*
X12061968Y-15347040D01*
X12061968Y-15347040D02*
X12061968Y-15308945D01*
X12061968Y-15308945D02*
X12071492Y-15261326D01*
X12071492Y-15261326D02*
X12081016Y-15232754D01*
X12081016Y-15232754D02*
X12090540Y-15213707D01*
X12090540Y-15213707D02*
X12109587Y-15185135D01*
X12109587Y-15185135D02*
X12119111Y-15175611D01*
X12185778Y-15223230D02*
X12195302Y-15213707D01*
X12195302Y-15213707D02*
X12214349Y-15204183D01*
X12214349Y-15204183D02*
X12261968Y-15204183D01*
X12261968Y-15204183D02*
X12281016Y-15213707D01*
X12281016Y-15213707D02*
X12290540Y-15223230D01*
X12290540Y-15223230D02*
X12300064Y-15242278D01*
X12300064Y-15242278D02*
X12300064Y-15261326D01*
X12300064Y-15261326D02*
X12290540Y-15289897D01*
X12290540Y-15289897D02*
X12176254Y-15404183D01*
X12176254Y-15404183D02*
X12300064Y-15404183D01*
X12505778Y-15404183D02*
X12505778Y-15204183D01*
X12591492Y-15404183D02*
X12591492Y-15299421D01*
X12591492Y-15299421D02*
X12581968Y-15280373D01*
X12581968Y-15280373D02*
X12562921Y-15270849D01*
X12562921Y-15270849D02*
X12534349Y-15270849D01*
X12534349Y-15270849D02*
X12515302Y-15280373D01*
X12515302Y-15280373D02*
X12505778Y-15289897D01*
X12715302Y-15404183D02*
X12696254Y-15394659D01*
X12696254Y-15394659D02*
X12686730Y-15385135D01*
X12686730Y-15385135D02*
X12677206Y-15366088D01*
X12677206Y-15366088D02*
X12677206Y-15308945D01*
X12677206Y-15308945D02*
X12686730Y-15289897D01*
X12686730Y-15289897D02*
X12696254Y-15280373D01*
X12696254Y-15280373D02*
X12715302Y-15270849D01*
X12715302Y-15270849D02*
X12743873Y-15270849D01*
X12743873Y-15270849D02*
X12762921Y-15280373D01*
X12762921Y-15280373D02*
X12772445Y-15289897D01*
X12772445Y-15289897D02*
X12781968Y-15308945D01*
X12781968Y-15308945D02*
X12781968Y-15366088D01*
X12781968Y-15366088D02*
X12772445Y-15385135D01*
X12772445Y-15385135D02*
X12762921Y-15394659D01*
X12762921Y-15394659D02*
X12743873Y-15404183D01*
X12743873Y-15404183D02*
X12715302Y-15404183D01*
X12896254Y-15404183D02*
X12877206Y-15394659D01*
X12877206Y-15394659D02*
X12867683Y-15375611D01*
X12867683Y-15375611D02*
X12867683Y-15204183D01*
X13048635Y-15394659D02*
X13029587Y-15404183D01*
X13029587Y-15404183D02*
X12991492Y-15404183D01*
X12991492Y-15404183D02*
X12972445Y-15394659D01*
X12972445Y-15394659D02*
X12962921Y-15375611D01*
X12962921Y-15375611D02*
X12962921Y-15299421D01*
X12962921Y-15299421D02*
X12972445Y-15280373D01*
X12972445Y-15280373D02*
X12991492Y-15270849D01*
X12991492Y-15270849D02*
X13029587Y-15270849D01*
X13029587Y-15270849D02*
X13048635Y-15280373D01*
X13048635Y-15280373D02*
X13058159Y-15299421D01*
X13058159Y-15299421D02*
X13058159Y-15318469D01*
X13058159Y-15318469D02*
X12962921Y-15337516D01*
X13134349Y-15394659D02*
X13153397Y-15404183D01*
X13153397Y-15404183D02*
X13191492Y-15404183D01*
X13191492Y-15404183D02*
X13210540Y-15394659D01*
X13210540Y-15394659D02*
X13220064Y-15375611D01*
X13220064Y-15375611D02*
X13220064Y-15366088D01*
X13220064Y-15366088D02*
X13210540Y-15347040D01*
X13210540Y-15347040D02*
X13191492Y-15337516D01*
X13191492Y-15337516D02*
X13162921Y-15337516D01*
X13162921Y-15337516D02*
X13143873Y-15327992D01*
X13143873Y-15327992D02*
X13134349Y-15308945D01*
X13134349Y-15308945D02*
X13134349Y-15299421D01*
X13134349Y-15299421D02*
X13143873Y-15280373D01*
X13143873Y-15280373D02*
X13162921Y-15270849D01*
X13162921Y-15270849D02*
X13191492Y-15270849D01*
X13191492Y-15270849D02*
X13210540Y-15280373D01*
X13286730Y-15480373D02*
X13296254Y-15470849D01*
X13296254Y-15470849D02*
X13315302Y-15442278D01*
X13315302Y-15442278D02*
X13324826Y-15423230D01*
X13324826Y-15423230D02*
X13334349Y-15394659D01*
X13334349Y-15394659D02*
X13343873Y-15347040D01*
X13343873Y-15347040D02*
X13343873Y-15308945D01*
X13343873Y-15308945D02*
X13334349Y-15261326D01*
X13334349Y-15261326D02*
X13324826Y-15232754D01*
X13324826Y-15232754D02*
X13315302Y-15213707D01*
X13315302Y-15213707D02*
X13296254Y-15185135D01*
X13296254Y-15185135D02*
X13286730Y-15175611D01*
X13616254Y-15480373D02*
X13606730Y-15470849D01*
X13606730Y-15470849D02*
X13587683Y-15442278D01*
X13587683Y-15442278D02*
X13578159Y-15423230D01*
X13578159Y-15423230D02*
X13568635Y-15394659D01*
X13568635Y-15394659D02*
X13559111Y-15347040D01*
X13559111Y-15347040D02*
X13559111Y-15308945D01*
X13559111Y-15308945D02*
X13568635Y-15261326D01*
X13568635Y-15261326D02*
X13578159Y-15232754D01*
X13578159Y-15232754D02*
X13587683Y-15213707D01*
X13587683Y-15213707D02*
X13606730Y-15185135D01*
X13606730Y-15185135D02*
X13616254Y-15175611D01*
X13692445Y-15270849D02*
X13692445Y-15404183D01*
X13692445Y-15289897D02*
X13701968Y-15280373D01*
X13701968Y-15280373D02*
X13721016Y-15270849D01*
X13721016Y-15270849D02*
X13749587Y-15270849D01*
X13749587Y-15270849D02*
X13768635Y-15280373D01*
X13768635Y-15280373D02*
X13778159Y-15299421D01*
X13778159Y-15299421D02*
X13778159Y-15404183D01*
X13901968Y-15404183D02*
X13882921Y-15394659D01*
X13882921Y-15394659D02*
X13873397Y-15385135D01*
X13873397Y-15385135D02*
X13863873Y-15366088D01*
X13863873Y-15366088D02*
X13863873Y-15308945D01*
X13863873Y-15308945D02*
X13873397Y-15289897D01*
X13873397Y-15289897D02*
X13882921Y-15280373D01*
X13882921Y-15280373D02*
X13901968Y-15270849D01*
X13901968Y-15270849D02*
X13930540Y-15270849D01*
X13930540Y-15270849D02*
X13949587Y-15280373D01*
X13949587Y-15280373D02*
X13959111Y-15289897D01*
X13959111Y-15289897D02*
X13968635Y-15308945D01*
X13968635Y-15308945D02*
X13968635Y-15366088D01*
X13968635Y-15366088D02*
X13959111Y-15385135D01*
X13959111Y-15385135D02*
X13949587Y-15394659D01*
X13949587Y-15394659D02*
X13930540Y-15404183D01*
X13930540Y-15404183D02*
X13901968Y-15404183D01*
X14025778Y-15270849D02*
X14101968Y-15270849D01*
X14054349Y-15204183D02*
X14054349Y-15375611D01*
X14054349Y-15375611D02*
X14063873Y-15394659D01*
X14063873Y-15394659D02*
X14082921Y-15404183D01*
X14082921Y-15404183D02*
X14101968Y-15404183D01*
X14288635Y-15270849D02*
X14288635Y-15470849D01*
X14288635Y-15280373D02*
X14307683Y-15270849D01*
X14307683Y-15270849D02*
X14345778Y-15270849D01*
X14345778Y-15270849D02*
X14364826Y-15280373D01*
X14364826Y-15280373D02*
X14374349Y-15289897D01*
X14374349Y-15289897D02*
X14383873Y-15308945D01*
X14383873Y-15308945D02*
X14383873Y-15366088D01*
X14383873Y-15366088D02*
X14374349Y-15385135D01*
X14374349Y-15385135D02*
X14364826Y-15394659D01*
X14364826Y-15394659D02*
X14345778Y-15404183D01*
X14345778Y-15404183D02*
X14307683Y-15404183D01*
X14307683Y-15404183D02*
X14288635Y-15394659D01*
X14498159Y-15404183D02*
X14479111Y-15394659D01*
X14479111Y-15394659D02*
X14469587Y-15375611D01*
X14469587Y-15375611D02*
X14469587Y-15204183D01*
X14660064Y-15404183D02*
X14660064Y-15299421D01*
X14660064Y-15299421D02*
X14650540Y-15280373D01*
X14650540Y-15280373D02*
X14631492Y-15270849D01*
X14631492Y-15270849D02*
X14593397Y-15270849D01*
X14593397Y-15270849D02*
X14574349Y-15280373D01*
X14660064Y-15394659D02*
X14641016Y-15404183D01*
X14641016Y-15404183D02*
X14593397Y-15404183D01*
X14593397Y-15404183D02*
X14574349Y-15394659D01*
X14574349Y-15394659D02*
X14564826Y-15375611D01*
X14564826Y-15375611D02*
X14564826Y-15356564D01*
X14564826Y-15356564D02*
X14574349Y-15337516D01*
X14574349Y-15337516D02*
X14593397Y-15327992D01*
X14593397Y-15327992D02*
X14641016Y-15327992D01*
X14641016Y-15327992D02*
X14660064Y-15318469D01*
X14726730Y-15270849D02*
X14802921Y-15270849D01*
X14755302Y-15204183D02*
X14755302Y-15375611D01*
X14755302Y-15375611D02*
X14764826Y-15394659D01*
X14764826Y-15394659D02*
X14783873Y-15404183D01*
X14783873Y-15404183D02*
X14802921Y-15404183D01*
X14945778Y-15394659D02*
X14926730Y-15404183D01*
X14926730Y-15404183D02*
X14888635Y-15404183D01*
X14888635Y-15404183D02*
X14869587Y-15394659D01*
X14869587Y-15394659D02*
X14860064Y-15375611D01*
X14860064Y-15375611D02*
X14860064Y-15299421D01*
X14860064Y-15299421D02*
X14869587Y-15280373D01*
X14869587Y-15280373D02*
X14888635Y-15270849D01*
X14888635Y-15270849D02*
X14926730Y-15270849D01*
X14926730Y-15270849D02*
X14945778Y-15280373D01*
X14945778Y-15280373D02*
X14955302Y-15299421D01*
X14955302Y-15299421D02*
X14955302Y-15318469D01*
X14955302Y-15318469D02*
X14860064Y-15337516D01*
X15126730Y-15404183D02*
X15126730Y-15204183D01*
X15126730Y-15394659D02*
X15107683Y-15404183D01*
X15107683Y-15404183D02*
X15069587Y-15404183D01*
X15069587Y-15404183D02*
X15050540Y-15394659D01*
X15050540Y-15394659D02*
X15041016Y-15385135D01*
X15041016Y-15385135D02*
X15031492Y-15366088D01*
X15031492Y-15366088D02*
X15031492Y-15308945D01*
X15031492Y-15308945D02*
X15041016Y-15289897D01*
X15041016Y-15289897D02*
X15050540Y-15280373D01*
X15050540Y-15280373D02*
X15069587Y-15270849D01*
X15069587Y-15270849D02*
X15107683Y-15270849D01*
X15107683Y-15270849D02*
X15126730Y-15280373D01*
X15202921Y-15480373D02*
X15212445Y-15470849D01*
X15212445Y-15470849D02*
X15231492Y-15442278D01*
X15231492Y-15442278D02*
X15241016Y-15423230D01*
X15241016Y-15423230D02*
X15250540Y-15394659D01*
X15250540Y-15394659D02*
X15260064Y-15347040D01*
X15260064Y-15347040D02*
X15260064Y-15308945D01*
X15260064Y-15308945D02*
X15250540Y-15261326D01*
X15250540Y-15261326D02*
X15241016Y-15232754D01*
X15241016Y-15232754D02*
X15231492Y-15213707D01*
X15231492Y-15213707D02*
X15212445Y-15185135D01*
X15212445Y-15185135D02*
X15202921Y-15175611D01*
M02*
