%TF.GenerationSoftware,KiCad,Pcbnew,(7.0.0-0)*%
%TF.CreationDate,2023-07-23T12:34:26-06:00*%
%TF.ProjectId,HAS4_SAO,48415334-5f53-4414-9f2e-6b696361645f,rev?*%
%TF.SameCoordinates,Original*%
%TF.FileFunction,Copper,L2,Bot*%
%TF.FilePolarity,Positive*%
%FSLAX46Y46*%
G04 Gerber Fmt 4.6, Leading zero omitted, Abs format (unit mm)*
G04 Created by KiCad (PCBNEW (7.0.0-0)) date 2023-07-23 12:34:26*
%MOMM*%
%LPD*%
G01*
G04 APERTURE LIST*
G04 Aperture macros list*
%AMRoundRect*
0 Rectangle with rounded corners*
0 $1 Rounding radius*
0 $2 $3 $4 $5 $6 $7 $8 $9 X,Y pos of 4 corners*
0 Add a 4 corners polygon primitive as box body*
4,1,4,$2,$3,$4,$5,$6,$7,$8,$9,$2,$3,0*
0 Add four circle primitives for the rounded corners*
1,1,$1+$1,$2,$3*
1,1,$1+$1,$4,$5*
1,1,$1+$1,$6,$7*
1,1,$1+$1,$8,$9*
0 Add four rect primitives between the rounded corners*
20,1,$1+$1,$2,$3,$4,$5,0*
20,1,$1+$1,$4,$5,$6,$7,0*
20,1,$1+$1,$6,$7,$8,$9,0*
20,1,$1+$1,$8,$9,$2,$3,0*%
G04 Aperture macros list end*
%ADD10C,0.150000*%
%TA.AperFunction,NonConductor*%
%ADD11C,0.150000*%
%TD*%
%TA.AperFunction,SMDPad,CuDef*%
%ADD12RoundRect,0.250000X0.625000X-0.400000X0.625000X0.400000X-0.625000X0.400000X-0.625000X-0.400000X0*%
%TD*%
%TA.AperFunction,ComponentPad*%
%ADD13R,1.700000X1.700000*%
%TD*%
%TA.AperFunction,ComponentPad*%
%ADD14O,1.700000X1.700000*%
%TD*%
%TA.AperFunction,SMDPad,CuDef*%
%ADD15R,5.080000X1.270000*%
%TD*%
%TA.AperFunction,SMDPad,CuDef*%
%ADD16C,17.800000*%
%TD*%
%TA.AperFunction,SMDPad,CuDef*%
%ADD17R,0.800000X1.000000*%
%TD*%
%TA.AperFunction,SMDPad,CuDef*%
%ADD18R,1.500000X0.700000*%
%TD*%
%TA.AperFunction,ViaPad*%
%ADD19C,0.800000*%
%TD*%
%TA.AperFunction,Conductor*%
%ADD20C,0.250000*%
%TD*%
G04 APERTURE END LIST*
D10*
D11*
X123475276Y-137616392D02*
X123475276Y-137515377D01*
X123475276Y-137515377D02*
X123525784Y-137363854D01*
X123525784Y-137363854D02*
X123626799Y-137262839D01*
X123626799Y-137262839D02*
X123778322Y-137212331D01*
X123778322Y-137212331D02*
X123879337Y-137212331D01*
X123879337Y-137212331D02*
X124030860Y-137262839D01*
X124030860Y-137262839D02*
X124131876Y-137363854D01*
X124131876Y-137363854D02*
X124182383Y-137515377D01*
X124182383Y-137515377D02*
X124182383Y-137616392D01*
X124182383Y-137616392D02*
X124131876Y-137767915D01*
X124131876Y-137767915D02*
X124030860Y-137868930D01*
X124030860Y-137868930D02*
X123879337Y-137919438D01*
X123879337Y-137919438D02*
X123778322Y-137919438D01*
X123374261Y-137515377D02*
X123778322Y-137919438D01*
X123778322Y-137919438D02*
X123778322Y-138020453D01*
X123778322Y-138020453D02*
X123727815Y-138070961D01*
X123727815Y-138070961D02*
X123576292Y-138121469D01*
X123576292Y-138121469D02*
X123424769Y-138070961D01*
X123424769Y-138070961D02*
X123172231Y-137818423D01*
X123172231Y-137818423D02*
X123121723Y-137565885D01*
X123121723Y-137565885D02*
X123172231Y-137313347D01*
X123172231Y-137313347D02*
X123323754Y-137060808D01*
X123323754Y-137060808D02*
X123576292Y-136909286D01*
X123576292Y-136909286D02*
X123828830Y-136858778D01*
X123828830Y-136858778D02*
X124081368Y-136909286D01*
X124081368Y-136909286D02*
X124333906Y-137060808D01*
X124333906Y-137060808D02*
X124485429Y-137313347D01*
X124485429Y-137313347D02*
X124535937Y-137565885D01*
X124535937Y-137565885D02*
X124485429Y-137818423D01*
X124485429Y-137818423D02*
X124333906Y-138070961D01*
X124333906Y-138070961D02*
X124081368Y-138222484D01*
X124081368Y-138222484D02*
X123828830Y-138272991D01*
X122818678Y-139283144D02*
X122263094Y-138727560D01*
X122263094Y-138727560D02*
X122212586Y-138576037D01*
X122212586Y-138576037D02*
X122263094Y-138424514D01*
X122263094Y-138424514D02*
X122465124Y-138222484D01*
X122465124Y-138222484D02*
X122616647Y-138171976D01*
X122768170Y-139232636D02*
X122919693Y-139182128D01*
X122919693Y-139182128D02*
X123172231Y-138929590D01*
X123172231Y-138929590D02*
X123222739Y-138778067D01*
X123222739Y-138778067D02*
X123172231Y-138626545D01*
X123172231Y-138626545D02*
X123071216Y-138525529D01*
X123071216Y-138525529D02*
X122919693Y-138475022D01*
X122919693Y-138475022D02*
X122768170Y-138525529D01*
X122768170Y-138525529D02*
X122515632Y-138778067D01*
X122515632Y-138778067D02*
X122364109Y-138828575D01*
X121707510Y-138980098D02*
X122162078Y-139939743D01*
X122162078Y-139939743D02*
X121202433Y-139485174D01*
X121859033Y-140444819D02*
X121050911Y-141252941D01*
X119990251Y-140697357D02*
X121050911Y-141758017D01*
X120040758Y-140747865D02*
X119889235Y-140798372D01*
X119889235Y-140798372D02*
X119687205Y-141000403D01*
X119687205Y-141000403D02*
X119636697Y-141151926D01*
X119636697Y-141151926D02*
X119636697Y-141252941D01*
X119636697Y-141252941D02*
X119687205Y-141404464D01*
X119687205Y-141404464D02*
X119990251Y-141707510D01*
X119990251Y-141707510D02*
X120141773Y-141758017D01*
X120141773Y-141758017D02*
X120242789Y-141758017D01*
X120242789Y-141758017D02*
X120394312Y-141707510D01*
X120394312Y-141707510D02*
X120596342Y-141505479D01*
X120596342Y-141505479D02*
X120646850Y-141353956D01*
X118576037Y-142111571D02*
X119283144Y-142818678D01*
X119030606Y-141657002D02*
X119586189Y-142212586D01*
X119586189Y-142212586D02*
X119636697Y-142364109D01*
X119636697Y-142364109D02*
X119586189Y-142515632D01*
X119586189Y-142515632D02*
X119434667Y-142667155D01*
X119434667Y-142667155D02*
X119283144Y-142717662D01*
X119283144Y-142717662D02*
X119182128Y-142717662D01*
X118778067Y-143323754D02*
X117717407Y-142263094D01*
X118121468Y-142667155D02*
X117969945Y-142717662D01*
X117969945Y-142717662D02*
X117767915Y-142919693D01*
X117767915Y-142919693D02*
X117717407Y-143071216D01*
X117717407Y-143071216D02*
X117717407Y-143172231D01*
X117717407Y-143172231D02*
X117767915Y-143323754D01*
X117767915Y-143323754D02*
X118070961Y-143626800D01*
X118070961Y-143626800D02*
X118222483Y-143677307D01*
X118222483Y-143677307D02*
X118323499Y-143677307D01*
X118323499Y-143677307D02*
X118475022Y-143626800D01*
X118475022Y-143626800D02*
X118677052Y-143424769D01*
X118677052Y-143424769D02*
X118727560Y-143273246D01*
X117818422Y-144182384D02*
X117767915Y-144333907D01*
X117767915Y-144333907D02*
X117565884Y-144535937D01*
X117565884Y-144535937D02*
X117414361Y-144586445D01*
X117414361Y-144586445D02*
X117262838Y-144535937D01*
X117262838Y-144535937D02*
X117212331Y-144485429D01*
X117212331Y-144485429D02*
X117161823Y-144333907D01*
X117161823Y-144333907D02*
X117212331Y-144182384D01*
X117212331Y-144182384D02*
X117363854Y-144030861D01*
X117363854Y-144030861D02*
X117414361Y-143879338D01*
X117414361Y-143879338D02*
X117363854Y-143727815D01*
X117363854Y-143727815D02*
X117313346Y-143677307D01*
X117313346Y-143677307D02*
X117161823Y-143626800D01*
X117161823Y-143626800D02*
X117010300Y-143677307D01*
X117010300Y-143677307D02*
X116858777Y-143828830D01*
X116858777Y-143828830D02*
X116808270Y-143980353D01*
X122819687Y-141304459D02*
X123274256Y-142264104D01*
X123274256Y-142264104D02*
X122314611Y-141809535D01*
X121708519Y-141910550D02*
X121607504Y-141910550D01*
X121607504Y-141910550D02*
X121455981Y-141961058D01*
X121455981Y-141961058D02*
X121203443Y-142213596D01*
X121203443Y-142213596D02*
X121152935Y-142365119D01*
X121152935Y-142365119D02*
X121152935Y-142466134D01*
X121152935Y-142466134D02*
X121203443Y-142617657D01*
X121203443Y-142617657D02*
X121304458Y-142718672D01*
X121304458Y-142718672D02*
X121506489Y-142819687D01*
X121506489Y-142819687D02*
X122718672Y-142819687D01*
X122718672Y-142819687D02*
X122062073Y-143476287D01*
D12*
%TO.P,R2,1*%
%TO.N,Net-(SW1-B)*%
X130500000Y-110100000D03*
%TO.P,R2,2*%
%TO.N,Net-(D2-A)*%
X130500000Y-107000000D03*
%TD*%
%TO.P,R1,1*%
%TO.N,Net-(SW1-B)*%
X134500000Y-110100000D03*
%TO.P,R1,2*%
%TO.N,Net-(D1-A)*%
X134500000Y-107000000D03*
%TD*%
D13*
%TO.P,J1,1,Pin_1*%
%TO.N,Net-(J1-Pin_1)*%
X108919999Y-134999999D03*
D14*
%TO.P,J1,2,Pin_2*%
%TO.N,GND*%
X108919999Y-137539999D03*
%TO.P,J1,3,Pin_3*%
%TO.N,unconnected-(J1-Pin_3-Pad3)*%
X111459999Y-134999999D03*
%TO.P,J1,4,Pin_4*%
%TO.N,unconnected-(J1-Pin_4-Pad4)*%
X111459999Y-137539999D03*
%TO.P,J1,5,Pin_5*%
%TO.N,unconnected-(J1-Pin_5-Pad5)*%
X113999999Y-134999999D03*
%TO.P,J1,6,Pin_6*%
%TO.N,unconnected-(J1-Pin_6-Pad6)*%
X113999999Y-137539999D03*
%TD*%
D15*
%TO.P,BT1,1,+*%
%TO.N,Net-(BT1-+)*%
X115499999Y-97529999D03*
X115499999Y-119499999D03*
D16*
%TO.P,BT1,2,-*%
%TO.N,GND*%
X115500000Y-108515000D03*
%TD*%
D17*
%TO.P,SW1,*%
%TO.N,*%
X130289999Y-102799999D03*
X132499999Y-95499999D03*
X132499999Y-102799999D03*
X130289999Y-95499999D03*
D18*
%TO.P,SW1,1,A*%
%TO.N,Net-(J1-Pin_1)*%
X129639999Y-96899999D03*
%TO.P,SW1,2,B*%
%TO.N,Net-(SW1-B)*%
X129639999Y-99899999D03*
%TO.P,SW1,3,C*%
%TO.N,Net-(BT1-+)*%
X129639999Y-101399999D03*
%TD*%
D19*
%TO.N,GND*%
X118291474Y-73416089D03*
%TO.N,Net-(D1-A)*%
X118303518Y-75580323D03*
%TO.N,Net-(D2-A)*%
X105216287Y-76770632D03*
%TD*%
D20*
%TO.N,Net-(BT1-+)*%
X128475000Y-107975000D02*
X118030000Y-97530000D01*
X129640000Y-101400000D02*
X130440000Y-101400000D01*
X135363173Y-107975000D02*
X128475000Y-107975000D01*
X112470000Y-97530000D02*
X115500000Y-97530000D01*
X112710000Y-119500000D02*
X106275000Y-113065000D01*
X106275000Y-113065000D02*
X106275000Y-103725000D01*
X130440000Y-101400000D02*
X131015000Y-101975000D01*
X131015000Y-101975000D02*
X131015000Y-103625000D01*
X106275000Y-103725000D02*
X112470000Y-97530000D01*
X135700000Y-106361827D02*
X135700000Y-107638173D01*
X132963173Y-103625000D02*
X135700000Y-106361827D01*
X131015000Y-103625000D02*
X132963173Y-103625000D01*
X115500000Y-119500000D02*
X112710000Y-119500000D01*
X135700000Y-107638173D02*
X135363173Y-107975000D01*
X118030000Y-97530000D02*
X115500000Y-97530000D01*
%TO.N,GND*%
X118365000Y-120460000D02*
X112635000Y-120460000D01*
X115500000Y-108515000D02*
X118365000Y-111380000D01*
X102500000Y-110325000D02*
X102500000Y-73000000D01*
X115500000Y-108515000D02*
X124400000Y-117415000D01*
X112635000Y-120460000D02*
X102500000Y-110325000D01*
X116375385Y-71500000D02*
X118291474Y-73416089D01*
X111000000Y-142500000D02*
X108920000Y-140420000D01*
X114000000Y-142500000D02*
X111000000Y-142500000D01*
X124400000Y-132100000D02*
X114000000Y-142500000D01*
X108920000Y-140420000D02*
X108920000Y-137540000D01*
X104000000Y-71500000D02*
X116375385Y-71500000D01*
X102500000Y-73000000D02*
X104000000Y-71500000D01*
X124400000Y-117415000D02*
X124400000Y-132100000D01*
X118365000Y-111380000D02*
X118365000Y-120460000D01*
%TO.N,Net-(D1-A)*%
X118303518Y-75580323D02*
X118303518Y-92303518D01*
X118303518Y-92303518D02*
X133000000Y-107000000D01*
X133000000Y-107000000D02*
X134500000Y-107000000D01*
%TO.N,Net-(D2-A)*%
X105216287Y-81716287D02*
X130500000Y-107000000D01*
X105216287Y-76770632D02*
X105216287Y-81716287D01*
%TO.N,Net-(J1-Pin_1)*%
X98000000Y-75000000D02*
X98000000Y-107500000D01*
X102000000Y-128000000D02*
X108920000Y-134920000D01*
X102000000Y-111500000D02*
X102000000Y-128000000D01*
X119500000Y-69500000D02*
X103500000Y-69500000D01*
X98000000Y-107500000D02*
X102000000Y-111500000D01*
X126000000Y-93260000D02*
X126000000Y-76000000D01*
X129640000Y-96900000D02*
X126000000Y-93260000D01*
X108920000Y-134920000D02*
X108920000Y-135000000D01*
X103500000Y-69500000D02*
X98000000Y-75000000D01*
X126000000Y-76000000D02*
X119500000Y-69500000D01*
%TO.N,Net-(SW1-B)*%
X131825000Y-99825000D02*
X137500000Y-105500000D01*
X134500000Y-110100000D02*
X130500000Y-110100000D01*
X137500000Y-105500000D02*
X137500000Y-107100000D01*
X137500000Y-107100000D02*
X134500000Y-110100000D01*
X129640000Y-99900000D02*
X129715000Y-99825000D01*
X129715000Y-99825000D02*
X131825000Y-99825000D01*
%TD*%
%TA.AperFunction,NonConductor*%
G36*
X112545451Y-98465096D02*
G01*
X112585290Y-98499618D01*
X112602454Y-98522546D01*
X112717669Y-98608796D01*
X112852517Y-98659091D01*
X112912127Y-98665500D01*
X118087872Y-98665499D01*
X118147483Y-98659091D01*
X118165330Y-98652434D01*
X118211611Y-98644650D01*
X118257474Y-98654626D01*
X118296344Y-98680934D01*
X119241856Y-99626446D01*
X119274935Y-99685967D01*
X119271596Y-99753980D01*
X119232846Y-99809975D01*
X119170372Y-99837065D01*
X119103012Y-99827080D01*
X119101196Y-99826257D01*
X119101181Y-99826250D01*
X119099343Y-99825418D01*
X118523310Y-99608615D01*
X118521404Y-99608037D01*
X118521384Y-99608030D01*
X117951794Y-99435247D01*
X117934332Y-99429950D01*
X117334929Y-99290189D01*
X117332952Y-99289862D01*
X117332939Y-99289860D01*
X116729651Y-99190257D01*
X116729644Y-99190256D01*
X116727669Y-99189930D01*
X116725687Y-99189734D01*
X116725666Y-99189732D01*
X116117158Y-99129799D01*
X116117137Y-99129797D01*
X116115151Y-99129602D01*
X116113143Y-99129536D01*
X116113139Y-99129536D01*
X115502016Y-99109530D01*
X115500000Y-99109464D01*
X115497984Y-99109530D01*
X114886860Y-99129536D01*
X114886854Y-99129536D01*
X114884849Y-99129602D01*
X114882864Y-99129797D01*
X114882841Y-99129799D01*
X114274333Y-99189732D01*
X114274308Y-99189735D01*
X114272331Y-99189930D01*
X114270359Y-99190255D01*
X114270348Y-99190257D01*
X113667060Y-99289860D01*
X113667041Y-99289863D01*
X113665071Y-99290189D01*
X113663111Y-99290645D01*
X113663106Y-99290647D01*
X113067653Y-99429487D01*
X113067648Y-99429488D01*
X113065668Y-99429950D01*
X113063725Y-99430539D01*
X113063719Y-99430541D01*
X112478615Y-99608030D01*
X112478586Y-99608039D01*
X112476690Y-99608615D01*
X112474800Y-99609326D01*
X112474798Y-99609327D01*
X111902561Y-99824701D01*
X111902550Y-99824705D01*
X111900657Y-99825418D01*
X111898838Y-99826242D01*
X111898807Y-99826255D01*
X111341883Y-100078594D01*
X111341857Y-100078606D01*
X111340038Y-100079431D01*
X111338266Y-100080377D01*
X111338246Y-100080388D01*
X110928198Y-100299564D01*
X110860016Y-100313824D01*
X110794904Y-100289074D01*
X110753409Y-100233125D01*
X110748626Y-100163632D01*
X110782064Y-100102525D01*
X111198622Y-99685967D01*
X112398344Y-98486245D01*
X112442690Y-98457746D01*
X112494870Y-98450244D01*
X112545451Y-98465096D01*
G37*
%TD.AperFunction*%
%TA.AperFunction,NonConductor*%
G36*
X132161031Y-101045622D02*
G01*
X132703228Y-101587819D01*
X132733478Y-101637182D01*
X132738020Y-101694898D01*
X132715865Y-101748385D01*
X132671842Y-101785985D01*
X132615547Y-101799500D01*
X132055439Y-101799500D01*
X132055420Y-101799500D01*
X132052128Y-101799501D01*
X132048850Y-101799853D01*
X132048838Y-101799854D01*
X132000231Y-101805079D01*
X132000225Y-101805080D01*
X131992517Y-101805909D01*
X131985252Y-101808618D01*
X131985246Y-101808620D01*
X131865980Y-101853104D01*
X131865978Y-101853104D01*
X131857669Y-101856204D01*
X131850569Y-101861518D01*
X131850569Y-101861519D01*
X131818737Y-101885348D01*
X131763211Y-101908649D01*
X131703256Y-101903046D01*
X131653010Y-101869859D01*
X131625858Y-101819751D01*
X131625664Y-101818208D01*
X131609582Y-101777591D01*
X131605803Y-101766551D01*
X131595795Y-101732102D01*
X131595793Y-101732099D01*
X131593618Y-101724610D01*
X131583417Y-101707360D01*
X131574863Y-101689901D01*
X131567486Y-101671268D01*
X131541808Y-101635925D01*
X131535401Y-101626171D01*
X131517142Y-101595296D01*
X131517141Y-101595294D01*
X131513170Y-101588580D01*
X131499004Y-101574414D01*
X131486370Y-101559622D01*
X131474594Y-101543413D01*
X131473668Y-101542647D01*
X131444007Y-101485458D01*
X131448897Y-101418173D01*
X131488288Y-101363407D01*
X131550518Y-101337368D01*
X131568872Y-101335140D01*
X131727930Y-101274818D01*
X131867929Y-101178183D01*
X131980537Y-101051073D01*
X132036459Y-101014918D01*
X132103025Y-101012906D01*
X132161031Y-101045622D01*
G37*
%TD.AperFunction*%
%TA.AperFunction,NonConductor*%
G36*
X107218123Y-103768410D02*
G01*
X107274073Y-103809905D01*
X107298823Y-103875017D01*
X107284563Y-103943199D01*
X107133858Y-104225149D01*
X107089290Y-104272423D01*
X107026935Y-104290672D01*
X106963911Y-104274886D01*
X106917521Y-104229398D01*
X106900500Y-104166696D01*
X106900500Y-104035452D01*
X106909939Y-103987999D01*
X106936816Y-103947773D01*
X107087527Y-103797062D01*
X107148630Y-103763627D01*
X107218123Y-103768410D01*
G37*
%TD.AperFunction*%
%TA.AperFunction,NonConductor*%
G36*
X132700174Y-104259939D02*
G01*
X132740402Y-104286819D01*
X134091401Y-105637819D01*
X134121651Y-105687182D01*
X134126193Y-105744898D01*
X134104038Y-105798385D01*
X134060015Y-105835985D01*
X134003721Y-105849500D01*
X133828141Y-105849500D01*
X133828121Y-105849500D01*
X133824992Y-105849501D01*
X133821860Y-105849820D01*
X133821858Y-105849821D01*
X133728938Y-105859312D01*
X133728928Y-105859313D01*
X133722203Y-105860001D01*
X133715781Y-105862128D01*
X133715776Y-105862130D01*
X133562521Y-105912914D01*
X133562517Y-105912915D01*
X133555666Y-105915186D01*
X133549522Y-105918975D01*
X133549519Y-105918977D01*
X133412488Y-106003497D01*
X133412480Y-106003503D01*
X133406344Y-106007288D01*
X133401242Y-106012389D01*
X133401238Y-106012393D01*
X133287393Y-106126238D01*
X133287389Y-106126242D01*
X133282288Y-106131344D01*
X133278501Y-106137482D01*
X133278495Y-106137491D01*
X133263003Y-106162609D01*
X133224090Y-106202093D01*
X133171860Y-106220674D01*
X133116754Y-106214638D01*
X133069784Y-106185193D01*
X131346772Y-104462181D01*
X131316522Y-104412818D01*
X131311980Y-104355102D01*
X131334135Y-104301615D01*
X131378158Y-104264015D01*
X131434453Y-104250500D01*
X132652721Y-104250500D01*
X132700174Y-104259939D01*
G37*
%TD.AperFunction*%
%TA.AperFunction,NonConductor*%
G36*
X133562817Y-102466520D02*
G01*
X133612179Y-102496769D01*
X135282105Y-104166696D01*
X136838181Y-105722772D01*
X136865061Y-105763000D01*
X136874500Y-105810453D01*
X136874500Y-106789548D01*
X136865061Y-106837001D01*
X136838181Y-106877229D01*
X136537181Y-107178229D01*
X136487818Y-107208479D01*
X136430102Y-107213021D01*
X136376615Y-107190866D01*
X136339015Y-107146843D01*
X136325500Y-107090548D01*
X136325500Y-106439602D01*
X136326021Y-106428546D01*
X136327673Y-106421160D01*
X136325561Y-106353954D01*
X136325500Y-106350059D01*
X136325500Y-106326368D01*
X136325500Y-106322477D01*
X136324998Y-106318504D01*
X136324080Y-106306845D01*
X136323929Y-106302049D01*
X136322709Y-106263200D01*
X136317120Y-106243967D01*
X136313174Y-106224910D01*
X136311641Y-106212771D01*
X136310664Y-106205035D01*
X136294582Y-106164418D01*
X136290803Y-106153378D01*
X136280795Y-106118929D01*
X136280793Y-106118926D01*
X136278618Y-106111437D01*
X136268417Y-106094187D01*
X136259863Y-106076728D01*
X136252486Y-106058095D01*
X136226808Y-106022752D01*
X136220401Y-106012998D01*
X136202142Y-105982123D01*
X136202141Y-105982121D01*
X136198170Y-105975407D01*
X136184004Y-105961241D01*
X136171370Y-105946449D01*
X136159594Y-105930240D01*
X136153583Y-105925267D01*
X136153581Y-105925265D01*
X136125941Y-105902400D01*
X136117300Y-105894537D01*
X133460459Y-103237695D01*
X133453015Y-103229514D01*
X133448959Y-103223123D01*
X133442216Y-103216791D01*
X133439613Y-103214346D01*
X133410697Y-103173201D01*
X133400499Y-103123956D01*
X133400499Y-102584451D01*
X133414014Y-102528156D01*
X133451614Y-102484133D01*
X133505101Y-102461978D01*
X133562817Y-102466520D01*
G37*
%TD.AperFunction*%
%TA.AperFunction,NonConductor*%
G36*
X132037817Y-106941521D02*
G01*
X132087180Y-106971771D01*
X132253228Y-107137819D01*
X132283478Y-107187182D01*
X132288020Y-107244898D01*
X132265865Y-107298385D01*
X132221842Y-107335985D01*
X132165547Y-107349500D01*
X131999500Y-107349500D01*
X131937500Y-107332887D01*
X131892113Y-107287500D01*
X131875500Y-107225501D01*
X131875500Y-107146843D01*
X131875499Y-107059450D01*
X131889014Y-107003158D01*
X131926613Y-106959134D01*
X131980101Y-106936979D01*
X132037817Y-106941521D01*
G37*
%TD.AperFunction*%
%TA.AperFunction,NonConductor*%
G36*
X111421599Y-116987523D02*
G01*
X111635621Y-117084496D01*
X111755841Y-117138967D01*
X111900657Y-117204582D01*
X112476690Y-117421385D01*
X113065668Y-117600050D01*
X113665071Y-117739811D01*
X114272331Y-117840070D01*
X114884849Y-117900398D01*
X115500000Y-117920536D01*
X116115151Y-117900398D01*
X116727669Y-117840070D01*
X117334929Y-117739811D01*
X117587343Y-117680955D01*
X117642668Y-117680730D01*
X117692586Y-117704589D01*
X117727157Y-117747785D01*
X117739500Y-117801717D01*
X117739500Y-118240500D01*
X117722887Y-118302500D01*
X117677500Y-118347887D01*
X117615500Y-118364500D01*
X112915439Y-118364500D01*
X112915420Y-118364500D01*
X112912128Y-118364501D01*
X112908850Y-118364853D01*
X112908838Y-118364854D01*
X112860231Y-118370079D01*
X112860225Y-118370080D01*
X112852517Y-118370909D01*
X112845252Y-118373618D01*
X112845246Y-118373620D01*
X112725980Y-118418104D01*
X112725978Y-118418104D01*
X112717669Y-118421204D01*
X112710572Y-118426516D01*
X112710564Y-118426521D01*
X112688234Y-118443238D01*
X112634487Y-118466254D01*
X112576168Y-118462083D01*
X112526243Y-118431652D01*
X111282743Y-117188152D01*
X111249663Y-117128628D01*
X111253005Y-117060612D01*
X111291759Y-117004618D01*
X111354239Y-116977532D01*
X111421599Y-116987523D01*
G37*
%TD.AperFunction*%
%TA.AperFunction,NonConductor*%
G36*
X110413927Y-135885273D02*
G01*
X110466673Y-135916569D01*
X110588599Y-136038495D01*
X110593032Y-136041599D01*
X110593038Y-136041604D01*
X110774158Y-136168425D01*
X110813024Y-136212743D01*
X110827035Y-136270000D01*
X110813024Y-136327257D01*
X110774159Y-136371575D01*
X110593041Y-136498395D01*
X110588599Y-136501505D01*
X110584775Y-136505328D01*
X110584769Y-136505334D01*
X110425334Y-136664769D01*
X110425328Y-136664775D01*
X110421505Y-136668599D01*
X110418402Y-136673029D01*
X110418399Y-136673034D01*
X110291575Y-136854159D01*
X110247257Y-136893025D01*
X110190000Y-136907036D01*
X110132743Y-136893025D01*
X110088425Y-136854159D01*
X109961600Y-136673034D01*
X109958495Y-136668599D01*
X109836569Y-136546673D01*
X109805273Y-136493927D01*
X109803084Y-136432634D01*
X109830537Y-136377789D01*
X109880916Y-136342810D01*
X110012331Y-136293796D01*
X110127546Y-136207546D01*
X110213796Y-136092331D01*
X110262810Y-135960916D01*
X110297789Y-135910537D01*
X110352634Y-135883084D01*
X110413927Y-135885273D01*
G37*
%TD.AperFunction*%
%TA.AperFunction,NonConductor*%
G36*
X112787257Y-135646976D02*
G01*
X112831575Y-135685842D01*
X112958395Y-135866961D01*
X112958401Y-135866968D01*
X112961505Y-135871401D01*
X113128599Y-136038495D01*
X113133032Y-136041599D01*
X113133038Y-136041604D01*
X113314158Y-136168425D01*
X113353024Y-136212743D01*
X113367035Y-136270000D01*
X113353024Y-136327257D01*
X113314159Y-136371575D01*
X113133041Y-136498395D01*
X113128599Y-136501505D01*
X113124775Y-136505328D01*
X113124769Y-136505334D01*
X112965334Y-136664769D01*
X112965328Y-136664775D01*
X112961505Y-136668599D01*
X112958402Y-136673029D01*
X112958399Y-136673034D01*
X112831575Y-136854159D01*
X112787257Y-136893025D01*
X112730000Y-136907036D01*
X112672743Y-136893025D01*
X112628425Y-136854159D01*
X112501600Y-136673034D01*
X112498495Y-136668599D01*
X112331401Y-136501505D01*
X112326968Y-136498401D01*
X112326961Y-136498395D01*
X112145842Y-136371575D01*
X112106976Y-136327257D01*
X112092965Y-136270000D01*
X112106976Y-136212743D01*
X112145842Y-136168425D01*
X112326961Y-136041604D01*
X112326961Y-136041603D01*
X112331401Y-136038495D01*
X112498495Y-135871401D01*
X112628424Y-135685842D01*
X112672743Y-135646976D01*
X112730000Y-135632965D01*
X112787257Y-135646976D01*
G37*
%TD.AperFunction*%
%TA.AperFunction,NonConductor*%
G36*
X102787818Y-111516521D02*
G01*
X102837181Y-111546771D01*
X112137707Y-120847298D01*
X112145159Y-120855487D01*
X112149214Y-120861877D01*
X112198223Y-120907900D01*
X112201019Y-120910610D01*
X112220529Y-120930120D01*
X112223709Y-120932587D01*
X112232571Y-120940155D01*
X112238567Y-120945786D01*
X112258732Y-120964723D01*
X112258734Y-120964724D01*
X112264418Y-120970062D01*
X112271251Y-120973818D01*
X112271252Y-120973819D01*
X112281973Y-120979713D01*
X112298234Y-120990394D01*
X112314064Y-121002673D01*
X112354155Y-121020021D01*
X112364633Y-121025155D01*
X112374296Y-121030467D01*
X112402908Y-121046197D01*
X112422316Y-121051180D01*
X112440719Y-121057481D01*
X112451944Y-121062339D01*
X112451946Y-121062339D01*
X112459104Y-121065437D01*
X112502258Y-121072271D01*
X112513644Y-121074629D01*
X112555981Y-121085500D01*
X112576017Y-121085500D01*
X112595415Y-121087027D01*
X112607486Y-121088939D01*
X112607487Y-121088939D01*
X112615196Y-121090160D01*
X112653276Y-121086560D01*
X112658676Y-121086050D01*
X112670345Y-121085500D01*
X118294151Y-121085500D01*
X118317386Y-121087696D01*
X118325412Y-121089227D01*
X118380758Y-121085745D01*
X118388545Y-121085500D01*
X118400458Y-121085500D01*
X118404350Y-121085500D01*
X118420042Y-121083517D01*
X118427769Y-121082786D01*
X118483138Y-121079304D01*
X118490898Y-121076782D01*
X118513687Y-121071688D01*
X118513805Y-121071672D01*
X118521792Y-121070664D01*
X118529046Y-121067791D01*
X118529049Y-121067791D01*
X118573377Y-121050240D01*
X118580700Y-121047603D01*
X118633441Y-121030467D01*
X118640329Y-121026094D01*
X118661133Y-121015494D01*
X118668732Y-121012486D01*
X118713631Y-120979864D01*
X118720026Y-120975517D01*
X118766877Y-120945786D01*
X118772458Y-120939841D01*
X118789983Y-120924391D01*
X118796587Y-120919594D01*
X118831941Y-120876857D01*
X118837078Y-120871029D01*
X118875062Y-120830582D01*
X118878996Y-120823426D01*
X118892122Y-120804109D01*
X118897324Y-120797823D01*
X118920948Y-120747618D01*
X118924460Y-120740724D01*
X118951197Y-120692092D01*
X118953226Y-120684185D01*
X118961139Y-120662209D01*
X118964614Y-120654826D01*
X118975010Y-120600325D01*
X118976698Y-120592768D01*
X118990500Y-120539019D01*
X118990500Y-120530849D01*
X118992696Y-120507614D01*
X118992766Y-120507246D01*
X118994227Y-120499588D01*
X118990745Y-120444241D01*
X118990500Y-120436455D01*
X118990500Y-117331369D01*
X119000463Y-117282670D01*
X119028752Y-117241796D01*
X119070821Y-117215317D01*
X119099343Y-117204582D01*
X119659962Y-116950569D01*
X120202768Y-116660433D01*
X120725436Y-116335417D01*
X121225728Y-115976913D01*
X121606589Y-115664347D01*
X121661058Y-115638585D01*
X121721245Y-115641541D01*
X121772931Y-115672521D01*
X123738181Y-117637771D01*
X123765061Y-117677999D01*
X123774500Y-117725452D01*
X123774500Y-131789548D01*
X123765061Y-131837001D01*
X123738181Y-131877229D01*
X113777228Y-141838181D01*
X113737000Y-141865061D01*
X113689547Y-141874500D01*
X111310453Y-141874500D01*
X111263000Y-141865061D01*
X111222772Y-141838181D01*
X109581819Y-140197228D01*
X109554939Y-140157000D01*
X109545500Y-140109547D01*
X109545500Y-138815228D01*
X109559511Y-138757971D01*
X109598376Y-138713653D01*
X109678640Y-138657450D01*
X109791401Y-138578495D01*
X109958495Y-138411401D01*
X110088426Y-138225839D01*
X110132742Y-138186976D01*
X110189999Y-138172965D01*
X110247256Y-138186976D01*
X110291574Y-138225841D01*
X110418399Y-138406966D01*
X110418402Y-138406970D01*
X110421505Y-138411401D01*
X110588599Y-138578495D01*
X110782170Y-138714035D01*
X110996337Y-138813903D01*
X111224592Y-138875063D01*
X111460000Y-138895659D01*
X111695408Y-138875063D01*
X111923663Y-138813903D01*
X112137830Y-138714035D01*
X112331401Y-138578495D01*
X112498495Y-138411401D01*
X112628426Y-138225839D01*
X112672742Y-138186976D01*
X112729999Y-138172965D01*
X112787256Y-138186976D01*
X112831574Y-138225841D01*
X112958399Y-138406966D01*
X112958402Y-138406970D01*
X112961505Y-138411401D01*
X113128599Y-138578495D01*
X113322170Y-138714035D01*
X113536337Y-138813903D01*
X113764592Y-138875063D01*
X114000000Y-138895659D01*
X114235408Y-138875063D01*
X114463663Y-138813903D01*
X114677830Y-138714035D01*
X114871401Y-138578495D01*
X115038495Y-138411401D01*
X115174035Y-138217830D01*
X115273903Y-138003663D01*
X115335063Y-137775408D01*
X115355659Y-137540000D01*
X115335063Y-137304592D01*
X115273903Y-137076337D01*
X115174035Y-136862171D01*
X115038495Y-136668599D01*
X114871401Y-136501505D01*
X114866968Y-136498401D01*
X114866961Y-136498395D01*
X114685842Y-136371575D01*
X114646976Y-136327257D01*
X114632965Y-136270000D01*
X114646976Y-136212743D01*
X114685842Y-136168425D01*
X114866961Y-136041604D01*
X114866961Y-136041603D01*
X114871401Y-136038495D01*
X115038495Y-135871401D01*
X115174035Y-135677830D01*
X115273903Y-135463663D01*
X115335063Y-135235408D01*
X115355659Y-135000000D01*
X115335063Y-134764592D01*
X115273903Y-134536337D01*
X115174035Y-134322171D01*
X115038495Y-134128599D01*
X114871401Y-133961505D01*
X114866970Y-133958402D01*
X114866966Y-133958399D01*
X114682259Y-133829066D01*
X114682257Y-133829064D01*
X114677830Y-133825965D01*
X114672933Y-133823681D01*
X114672927Y-133823678D01*
X114468572Y-133728386D01*
X114468570Y-133728385D01*
X114463663Y-133726097D01*
X114458438Y-133724697D01*
X114458430Y-133724694D01*
X114240634Y-133666337D01*
X114240630Y-133666336D01*
X114235408Y-133664937D01*
X114230020Y-133664465D01*
X114230017Y-133664465D01*
X114005395Y-133644813D01*
X114000000Y-133644341D01*
X113994605Y-133644813D01*
X113769982Y-133664465D01*
X113769977Y-133664465D01*
X113764592Y-133664937D01*
X113759371Y-133666335D01*
X113759365Y-133666337D01*
X113541569Y-133724694D01*
X113541557Y-133724698D01*
X113536337Y-133726097D01*
X113531432Y-133728383D01*
X113531427Y-133728386D01*
X113327081Y-133823675D01*
X113327077Y-133823677D01*
X113322171Y-133825965D01*
X113317738Y-133829068D01*
X113317731Y-133829073D01*
X113133034Y-133958399D01*
X113133029Y-133958402D01*
X113128599Y-133961505D01*
X113124775Y-133965328D01*
X113124769Y-133965334D01*
X112965334Y-134124769D01*
X112965328Y-134124775D01*
X112961505Y-134128599D01*
X112958403Y-134133028D01*
X112958403Y-134133029D01*
X112831574Y-134314160D01*
X112787256Y-134353025D01*
X112729999Y-134367036D01*
X112672742Y-134353025D01*
X112628426Y-134314161D01*
X112498495Y-134128599D01*
X112331401Y-133961505D01*
X112326970Y-133958402D01*
X112326966Y-133958399D01*
X112142259Y-133829066D01*
X112142257Y-133829064D01*
X112137830Y-133825965D01*
X112132933Y-133823681D01*
X112132927Y-133823678D01*
X111928572Y-133728386D01*
X111928570Y-133728385D01*
X111923663Y-133726097D01*
X111918438Y-133724697D01*
X111918430Y-133724694D01*
X111700634Y-133666337D01*
X111700630Y-133666336D01*
X111695408Y-133664937D01*
X111690020Y-133664465D01*
X111690017Y-133664465D01*
X111465395Y-133644813D01*
X111460000Y-133644341D01*
X111454605Y-133644813D01*
X111229982Y-133664465D01*
X111229977Y-133664465D01*
X111224592Y-133664937D01*
X111219371Y-133666335D01*
X111219365Y-133666337D01*
X111001569Y-133724694D01*
X111001557Y-133724698D01*
X110996337Y-133726097D01*
X110991432Y-133728383D01*
X110991427Y-133728386D01*
X110787081Y-133823675D01*
X110787077Y-133823677D01*
X110782171Y-133825965D01*
X110777738Y-133829068D01*
X110777731Y-133829073D01*
X110593034Y-133958399D01*
X110593029Y-133958402D01*
X110588599Y-133961505D01*
X110584774Y-133965329D01*
X110584775Y-133965329D01*
X110466673Y-134083431D01*
X110413926Y-134114726D01*
X110352633Y-134116915D01*
X110297789Y-134089462D01*
X110262810Y-134039082D01*
X110235304Y-133965336D01*
X110213796Y-133907669D01*
X110127546Y-133792454D01*
X110037030Y-133724694D01*
X110019431Y-133711519D01*
X110019430Y-133711518D01*
X110012331Y-133706204D01*
X109905442Y-133666337D01*
X109884752Y-133658620D01*
X109884750Y-133658619D01*
X109877483Y-133655909D01*
X109869770Y-133655079D01*
X109869767Y-133655079D01*
X109821180Y-133649855D01*
X109821169Y-133649854D01*
X109817873Y-133649500D01*
X109814551Y-133649500D01*
X108585452Y-133649500D01*
X108537999Y-133640061D01*
X108497771Y-133613181D01*
X102661819Y-127777228D01*
X102634939Y-127737000D01*
X102625500Y-127689547D01*
X102625500Y-111634452D01*
X102639015Y-111578157D01*
X102676615Y-111534134D01*
X102730102Y-111511979D01*
X102787818Y-111516521D01*
G37*
%TD.AperFunction*%
%TA.AperFunction,NonConductor*%
G36*
X114221357Y-58131247D02*
G01*
X114961252Y-58150662D01*
X114966542Y-58150914D01*
X115707378Y-58202178D01*
X115712452Y-58202634D01*
X116452823Y-58284607D01*
X116457613Y-58285234D01*
X117196092Y-58396773D01*
X117200698Y-58397559D01*
X117935887Y-58537523D01*
X117940309Y-58538449D01*
X118668540Y-58705176D01*
X118670711Y-58705673D01*
X118675016Y-58706740D01*
X119399316Y-58900091D01*
X119403399Y-58901258D01*
X120120027Y-59119543D01*
X120124032Y-59120838D01*
X120310273Y-59184551D01*
X120831710Y-59362936D01*
X120835533Y-59364315D01*
X121532809Y-59629059D01*
X121536520Y-59630537D01*
X122049979Y-59844945D01*
X122221953Y-59916757D01*
X122225622Y-59918360D01*
X122897148Y-60224593D01*
X122901853Y-60226859D01*
X123566899Y-60564667D01*
X123572553Y-60567726D01*
X124002844Y-60815311D01*
X124222869Y-60941911D01*
X124228443Y-60945316D01*
X124860742Y-61354913D01*
X124866195Y-61358657D01*
X125476601Y-61802387D01*
X125481976Y-61806526D01*
X126066618Y-62283093D01*
X126071977Y-62287725D01*
X126165227Y-62373091D01*
X126626945Y-62795775D01*
X126632272Y-62800953D01*
X127153810Y-63339250D01*
X127159058Y-63345020D01*
X127643326Y-63912234D01*
X127648454Y-63918660D01*
X128091693Y-64513526D01*
X128096593Y-64520601D01*
X128485748Y-65126479D01*
X128489968Y-65133557D01*
X128838916Y-65765565D01*
X128842374Y-65772306D01*
X129153412Y-66427262D01*
X129156206Y-66433596D01*
X129431521Y-67108105D01*
X129433751Y-67113991D01*
X129675577Y-67804727D01*
X129677337Y-67810151D01*
X129887866Y-68513656D01*
X129889239Y-68518617D01*
X130070691Y-69231449D01*
X130071750Y-69235959D01*
X130226384Y-69954766D01*
X130227189Y-69958843D01*
X130357227Y-70680087D01*
X130357831Y-70683751D01*
X130465230Y-71401975D01*
X130466116Y-71409433D01*
X130528631Y-72119143D01*
X130529107Y-72129285D01*
X130533338Y-72840423D01*
X130533134Y-72848304D01*
X130491891Y-73563099D01*
X130491444Y-73568666D01*
X130417433Y-74286931D01*
X130417048Y-74290231D01*
X130323131Y-75011557D01*
X130322985Y-75012639D01*
X130222222Y-75736098D01*
X130220728Y-75735890D01*
X130220725Y-75735901D01*
X130222222Y-75736102D01*
X130222211Y-75736184D01*
X130222196Y-75736294D01*
X130220662Y-75736084D01*
X130220659Y-75736095D01*
X130222196Y-75736296D01*
X130127802Y-76460557D01*
X130126442Y-76460379D01*
X130126440Y-76460412D01*
X130127800Y-76460562D01*
X130127792Y-76460635D01*
X130127778Y-76460746D01*
X130126426Y-76460575D01*
X130126423Y-76460612D01*
X130127780Y-76460753D01*
X130052907Y-77185086D01*
X130052190Y-77185011D01*
X130052187Y-77185079D01*
X130052901Y-77185153D01*
X130052889Y-77185270D01*
X130052181Y-77185197D01*
X130052179Y-77185241D01*
X130052893Y-77185283D01*
X130010627Y-77909426D01*
X130009867Y-77909381D01*
X130009865Y-77909440D01*
X130010622Y-77909440D01*
X130010622Y-77909515D01*
X130010617Y-77909607D01*
X130009861Y-77909565D01*
X130009860Y-77909627D01*
X130010622Y-77909624D01*
X130014051Y-78633300D01*
X130012653Y-78633306D01*
X130012653Y-78633338D01*
X130014049Y-78633306D01*
X130014051Y-78633392D01*
X130014052Y-78633491D01*
X130012655Y-78633505D01*
X130012655Y-78633537D01*
X130014054Y-78633497D01*
X130034292Y-79323761D01*
X130034329Y-79325423D01*
X130045466Y-80025458D01*
X130045312Y-80025460D01*
X130045312Y-80025464D01*
X130045466Y-80025461D01*
X130059991Y-80730604D01*
X130058410Y-80730636D01*
X130058411Y-80730676D01*
X130059989Y-80730610D01*
X130059993Y-80730705D01*
X130059995Y-80730797D01*
X130058416Y-80730831D01*
X130058417Y-80730870D01*
X130059997Y-80730802D01*
X130090381Y-81434247D01*
X130089132Y-81434300D01*
X130089136Y-81434354D01*
X130090378Y-81434260D01*
X130090386Y-81434365D01*
X130090390Y-81434437D01*
X130089148Y-81434505D01*
X130089152Y-81434548D01*
X130090393Y-81434444D01*
X130149128Y-82130740D01*
X130147938Y-82130840D01*
X130147948Y-82130914D01*
X130149125Y-82130755D01*
X130149136Y-82130836D01*
X130149144Y-82130921D01*
X130147964Y-82131032D01*
X130147973Y-82131105D01*
X130149151Y-82130934D01*
X130248725Y-82814415D01*
X130247954Y-82814527D01*
X130247969Y-82814603D01*
X130248722Y-82814437D01*
X130248739Y-82814514D01*
X130248751Y-82814591D01*
X130247990Y-82814709D01*
X130248004Y-82814781D01*
X130248761Y-82814608D01*
X130399814Y-83471578D01*
X130399815Y-83471582D01*
X130401663Y-83479618D01*
X130401488Y-83479658D01*
X130401499Y-83479698D01*
X130401662Y-83479644D01*
X130401685Y-83479712D01*
X130401702Y-83479785D01*
X130401535Y-83479823D01*
X130401547Y-83479864D01*
X130401717Y-83479807D01*
X130405171Y-83489927D01*
X130405171Y-83489928D01*
X130617189Y-84111167D01*
X130617190Y-84111168D01*
X130620438Y-84120685D01*
X130620441Y-84120719D01*
X130620472Y-84120783D01*
X130620493Y-84120844D01*
X130620512Y-84120866D01*
X130917547Y-84731970D01*
X130917560Y-84732019D01*
X130917592Y-84732063D01*
X130917615Y-84732109D01*
X130917649Y-84732139D01*
X130923096Y-84739500D01*
X130923097Y-84739501D01*
X131046219Y-84905878D01*
X131304766Y-85255255D01*
X131304788Y-85255301D01*
X131304824Y-85255333D01*
X131304854Y-85255374D01*
X131304898Y-85255400D01*
X131314375Y-85263970D01*
X131314377Y-85263973D01*
X131611932Y-85533067D01*
X131790807Y-85694833D01*
X131790827Y-85694863D01*
X131790882Y-85694900D01*
X131790929Y-85694943D01*
X131790960Y-85694954D01*
X132276934Y-86027031D01*
X132346943Y-86074870D01*
X132346591Y-86075383D01*
X132346799Y-86075512D01*
X132347109Y-86074975D01*
X132944455Y-86419551D01*
X132944423Y-86419604D01*
X132944432Y-86419607D01*
X132944460Y-86419557D01*
X132944559Y-86419611D01*
X132944623Y-86419648D01*
X132944620Y-86419653D01*
X132944649Y-86419660D01*
X133395005Y-86665809D01*
X133553203Y-86752275D01*
X133556203Y-86753969D01*
X134144474Y-87097058D01*
X134153004Y-87102511D01*
X134690973Y-87478233D01*
X134704666Y-87489324D01*
X135164790Y-87919594D01*
X135181468Y-87938752D01*
X135284258Y-88084666D01*
X135492317Y-88380014D01*
X135540987Y-88449102D01*
X135552743Y-88469740D01*
X135823336Y-89072646D01*
X135829062Y-89088068D01*
X136020448Y-89731517D01*
X136023739Y-89745503D01*
X136141113Y-90416506D01*
X136142645Y-90428928D01*
X136192373Y-91116592D01*
X136192679Y-91127575D01*
X136181281Y-91820748D01*
X136180733Y-91830530D01*
X136114892Y-92518028D01*
X136113719Y-92526895D01*
X136001037Y-93192835D01*
X135996776Y-93210250D01*
X135806599Y-93799212D01*
X135797794Y-93819865D01*
X135496935Y-94378996D01*
X135488998Y-94391812D01*
X135105974Y-94933713D01*
X135100840Y-94940474D01*
X134667804Y-95471865D01*
X134666078Y-95473936D01*
X134217020Y-96001152D01*
X134217018Y-96001150D01*
X134217015Y-96001156D01*
X134216956Y-96001227D01*
X134215183Y-95999753D01*
X134215098Y-95999844D01*
X134216894Y-96001304D01*
X133786955Y-96530384D01*
X133786355Y-96529896D01*
X133786313Y-96529952D01*
X133786938Y-96530396D01*
X133786884Y-96530472D01*
X133786841Y-96530526D01*
X133786241Y-96530048D01*
X133786204Y-96530099D01*
X133786836Y-96530541D01*
X133415817Y-97060795D01*
X133415816Y-97060797D01*
X133410821Y-97067937D01*
X133410817Y-97067942D01*
X133410757Y-97068028D01*
X133410134Y-97068919D01*
X133410108Y-97068942D01*
X133410075Y-97069004D01*
X133410040Y-97069055D01*
X133410033Y-97069085D01*
X133405793Y-97077209D01*
X133405793Y-97077210D01*
X133123530Y-97618162D01*
X133123526Y-97618169D01*
X133119893Y-97625134D01*
X133119863Y-97625172D01*
X133119849Y-97625217D01*
X133119826Y-97625263D01*
X133119821Y-97625314D01*
X133117620Y-97632836D01*
X133117617Y-97632846D01*
X132953273Y-98194753D01*
X132953273Y-98194755D01*
X132949576Y-98207396D01*
X132949551Y-98207455D01*
X132949550Y-98207488D01*
X132949540Y-98207523D01*
X132949547Y-98207590D01*
X132949191Y-98220460D01*
X132949191Y-98220463D01*
X132932869Y-98811955D01*
X132932535Y-98824062D01*
X132932525Y-98824119D01*
X132932533Y-98824157D01*
X132932532Y-98824198D01*
X132932553Y-98824252D01*
X132934966Y-98835774D01*
X132934967Y-98835776D01*
X133055017Y-99408820D01*
X133055018Y-99408825D01*
X133056624Y-99416488D01*
X133056624Y-99416537D01*
X133056644Y-99416587D01*
X133056655Y-99416636D01*
X133056680Y-99416673D01*
X133059629Y-99423791D01*
X133059632Y-99423798D01*
X133279377Y-99954051D01*
X133282446Y-99961456D01*
X133282454Y-99961498D01*
X133282484Y-99961547D01*
X133282507Y-99961601D01*
X133282536Y-99961630D01*
X133286448Y-99967912D01*
X133286449Y-99967913D01*
X133431370Y-100200608D01*
X133449797Y-100257305D01*
X133439636Y-100316050D01*
X133403233Y-100363262D01*
X133349005Y-100388030D01*
X133289486Y-100384628D01*
X133238433Y-100353842D01*
X132322286Y-99437695D01*
X132314842Y-99429514D01*
X132310786Y-99423123D01*
X132261775Y-99377098D01*
X132258978Y-99374387D01*
X132242227Y-99357636D01*
X132242226Y-99357635D01*
X132239471Y-99354880D01*
X132236290Y-99352412D01*
X132227414Y-99344830D01*
X132201269Y-99320278D01*
X132201267Y-99320276D01*
X132195582Y-99314938D01*
X132188749Y-99311182D01*
X132188743Y-99311177D01*
X132178025Y-99305285D01*
X132161766Y-99294606D01*
X132152095Y-99287104D01*
X132152092Y-99287102D01*
X132145936Y-99282327D01*
X132138779Y-99279229D01*
X132138776Y-99279228D01*
X132105849Y-99264978D01*
X132095363Y-99259841D01*
X132063932Y-99242562D01*
X132063923Y-99242558D01*
X132057092Y-99238803D01*
X132049535Y-99236862D01*
X132049531Y-99236861D01*
X132037688Y-99233820D01*
X132019284Y-99227519D01*
X132008057Y-99222660D01*
X132008050Y-99222658D01*
X132000896Y-99219562D01*
X131993192Y-99218341D01*
X131993190Y-99218341D01*
X131957759Y-99212729D01*
X131946324Y-99210361D01*
X131911571Y-99201438D01*
X131911563Y-99201437D01*
X131904019Y-99199500D01*
X131896223Y-99199500D01*
X131883983Y-99199500D01*
X131864597Y-99197974D01*
X131844804Y-99194840D01*
X131837038Y-99195574D01*
X131837035Y-99195574D01*
X131801324Y-99198950D01*
X131789655Y-99199500D01*
X130798230Y-99199500D01*
X130759070Y-99193154D01*
X130723919Y-99174767D01*
X130639431Y-99111519D01*
X130639430Y-99111518D01*
X130632331Y-99106204D01*
X130497483Y-99055909D01*
X130489770Y-99055079D01*
X130489767Y-99055079D01*
X130441180Y-99049855D01*
X130441169Y-99049854D01*
X130437873Y-99049500D01*
X130434550Y-99049500D01*
X128845439Y-99049500D01*
X128845420Y-99049500D01*
X128842128Y-99049501D01*
X128838850Y-99049853D01*
X128838838Y-99049854D01*
X128790231Y-99055079D01*
X128790225Y-99055080D01*
X128782517Y-99055909D01*
X128775252Y-99058618D01*
X128775246Y-99058620D01*
X128655980Y-99103104D01*
X128655978Y-99103104D01*
X128647669Y-99106204D01*
X128640572Y-99111516D01*
X128640568Y-99111519D01*
X128539550Y-99187141D01*
X128539546Y-99187144D01*
X128532454Y-99192454D01*
X128527144Y-99199546D01*
X128527141Y-99199550D01*
X128451519Y-99300568D01*
X128451516Y-99300572D01*
X128446204Y-99307669D01*
X128443104Y-99315978D01*
X128443104Y-99315980D01*
X128398620Y-99435247D01*
X128398619Y-99435250D01*
X128395909Y-99442517D01*
X128395079Y-99450227D01*
X128395079Y-99450232D01*
X128389855Y-99498819D01*
X128389854Y-99498831D01*
X128389500Y-99502127D01*
X128389500Y-99505448D01*
X128389500Y-99505449D01*
X128389500Y-100294560D01*
X128389500Y-100294578D01*
X128389501Y-100297872D01*
X128389853Y-100301150D01*
X128389854Y-100301161D01*
X128395079Y-100349768D01*
X128395080Y-100349773D01*
X128395909Y-100357483D01*
X128398619Y-100364749D01*
X128398620Y-100364753D01*
X128400416Y-100369567D01*
X128446204Y-100492331D01*
X128451518Y-100499429D01*
X128451521Y-100499435D01*
X128508605Y-100575690D01*
X128530504Y-100623642D01*
X128530504Y-100676358D01*
X128508605Y-100724310D01*
X128451521Y-100800564D01*
X128451516Y-100800572D01*
X128446204Y-100807669D01*
X128443104Y-100815978D01*
X128443104Y-100815980D01*
X128398620Y-100935247D01*
X128398619Y-100935250D01*
X128395909Y-100942517D01*
X128395079Y-100950227D01*
X128395079Y-100950232D01*
X128389855Y-100998819D01*
X128389854Y-100998831D01*
X128389500Y-101002127D01*
X128389500Y-101005449D01*
X128389500Y-101205547D01*
X128375985Y-101261842D01*
X128338385Y-101305865D01*
X128284898Y-101328020D01*
X128227182Y-101323478D01*
X128177819Y-101293228D01*
X118965337Y-92080746D01*
X118938457Y-92040518D01*
X118929018Y-91993065D01*
X118929018Y-76279010D01*
X118937254Y-76234572D01*
X118960868Y-76196038D01*
X119036051Y-76112539D01*
X119130697Y-75948607D01*
X119189192Y-75768579D01*
X119208978Y-75580323D01*
X119189192Y-75392067D01*
X119130697Y-75212039D01*
X119036051Y-75048107D01*
X118974903Y-74980196D01*
X118913738Y-74912265D01*
X118913737Y-74912264D01*
X118909389Y-74907435D01*
X118904131Y-74903615D01*
X118904129Y-74903613D01*
X118761506Y-74799992D01*
X118761505Y-74799991D01*
X118756248Y-74796172D01*
X118750310Y-74793528D01*
X118589263Y-74721824D01*
X118589258Y-74721822D01*
X118583321Y-74719179D01*
X118576962Y-74717827D01*
X118576958Y-74717826D01*
X118404526Y-74681175D01*
X118404523Y-74681174D01*
X118398164Y-74679823D01*
X118208872Y-74679823D01*
X118202513Y-74681174D01*
X118202509Y-74681175D01*
X118030077Y-74717826D01*
X118030070Y-74717828D01*
X118023715Y-74719179D01*
X118017780Y-74721821D01*
X118017772Y-74721824D01*
X117856725Y-74793528D01*
X117856720Y-74793530D01*
X117850788Y-74796172D01*
X117845534Y-74799988D01*
X117845529Y-74799992D01*
X117702906Y-74903613D01*
X117702899Y-74903618D01*
X117697647Y-74907435D01*
X117693302Y-74912260D01*
X117693297Y-74912265D01*
X117575331Y-75043279D01*
X117575326Y-75043285D01*
X117570985Y-75048107D01*
X117567740Y-75053727D01*
X117567736Y-75053733D01*
X117479587Y-75206412D01*
X117479584Y-75206417D01*
X117476339Y-75212039D01*
X117474333Y-75218211D01*
X117474331Y-75218217D01*
X117419851Y-75385887D01*
X117419849Y-75385896D01*
X117417844Y-75392067D01*
X117417166Y-75398517D01*
X117417164Y-75398527D01*
X117403062Y-75532714D01*
X117398058Y-75580323D01*
X117398737Y-75586783D01*
X117417164Y-75762118D01*
X117417165Y-75762126D01*
X117417844Y-75768579D01*
X117419849Y-75774751D01*
X117419851Y-75774758D01*
X117474331Y-75942428D01*
X117476339Y-75948607D01*
X117479586Y-75954231D01*
X117479587Y-75954233D01*
X117565231Y-76102574D01*
X117570985Y-76112539D01*
X117575329Y-76117364D01*
X117575331Y-76117366D01*
X117646168Y-76196038D01*
X117669782Y-76234572D01*
X117678018Y-76279010D01*
X117678018Y-92225743D01*
X117677496Y-92236798D01*
X117675845Y-92244185D01*
X117676089Y-92251971D01*
X117676089Y-92251979D01*
X117677957Y-92311391D01*
X117678018Y-92315286D01*
X117678018Y-92342868D01*
X117678506Y-92346737D01*
X117678507Y-92346743D01*
X117678522Y-92346861D01*
X117679436Y-92358484D01*
X117680563Y-92394348D01*
X117680564Y-92394355D01*
X117680809Y-92402145D01*
X117682985Y-92409637D01*
X117682986Y-92409639D01*
X117686397Y-92421380D01*
X117690343Y-92440433D01*
X117692854Y-92460310D01*
X117695724Y-92467560D01*
X117695726Y-92467566D01*
X117708932Y-92500922D01*
X117712715Y-92511969D01*
X117724900Y-92553908D01*
X117728871Y-92560623D01*
X117728872Y-92560625D01*
X117735099Y-92571155D01*
X117743654Y-92588617D01*
X117748160Y-92599998D01*
X117748161Y-92600001D01*
X117751032Y-92607250D01*
X117772958Y-92637430D01*
X117776699Y-92642578D01*
X117783111Y-92652340D01*
X117801374Y-92683220D01*
X117801377Y-92683225D01*
X117805348Y-92689938D01*
X117810862Y-92695452D01*
X117810863Y-92695453D01*
X117819508Y-92704098D01*
X117832144Y-92718892D01*
X117839337Y-92728793D01*
X117839341Y-92728797D01*
X117843924Y-92735105D01*
X117849933Y-92740076D01*
X117849934Y-92740077D01*
X117877576Y-92762944D01*
X117886217Y-92770807D01*
X130753228Y-105637819D01*
X130783478Y-105687182D01*
X130788020Y-105744898D01*
X130765865Y-105798385D01*
X130721842Y-105835985D01*
X130665547Y-105849500D01*
X130285452Y-105849500D01*
X130237999Y-105840061D01*
X130197771Y-105813181D01*
X105878106Y-81493515D01*
X105851226Y-81453287D01*
X105841787Y-81405834D01*
X105841787Y-77469319D01*
X105850023Y-77424881D01*
X105873637Y-77386347D01*
X105948820Y-77302848D01*
X106043466Y-77138916D01*
X106101961Y-76958888D01*
X106121747Y-76770632D01*
X106101961Y-76582376D01*
X106043466Y-76402348D01*
X105948820Y-76238416D01*
X105822158Y-76097744D01*
X105816900Y-76093924D01*
X105816898Y-76093922D01*
X105674275Y-75990301D01*
X105674274Y-75990300D01*
X105669017Y-75986481D01*
X105619749Y-75964545D01*
X105502032Y-75912133D01*
X105502027Y-75912131D01*
X105496090Y-75909488D01*
X105489731Y-75908136D01*
X105489727Y-75908135D01*
X105317295Y-75871484D01*
X105317292Y-75871483D01*
X105310933Y-75870132D01*
X105121641Y-75870132D01*
X105115282Y-75871483D01*
X105115278Y-75871484D01*
X104942846Y-75908135D01*
X104942839Y-75908137D01*
X104936484Y-75909488D01*
X104930549Y-75912130D01*
X104930541Y-75912133D01*
X104769494Y-75983837D01*
X104769489Y-75983839D01*
X104763557Y-75986481D01*
X104758303Y-75990297D01*
X104758298Y-75990301D01*
X104615675Y-76093922D01*
X104615668Y-76093927D01*
X104610416Y-76097744D01*
X104606071Y-76102569D01*
X104606066Y-76102574D01*
X104488100Y-76233588D01*
X104488095Y-76233594D01*
X104483754Y-76238416D01*
X104480509Y-76244036D01*
X104480505Y-76244042D01*
X104392356Y-76396721D01*
X104392353Y-76396726D01*
X104389108Y-76402348D01*
X104387102Y-76408520D01*
X104387100Y-76408526D01*
X104332620Y-76576196D01*
X104332618Y-76576205D01*
X104330613Y-76582376D01*
X104329935Y-76588826D01*
X104329933Y-76588836D01*
X104312249Y-76757096D01*
X104310827Y-76770632D01*
X104311506Y-76777092D01*
X104329933Y-76952427D01*
X104329934Y-76952435D01*
X104330613Y-76958888D01*
X104332618Y-76965060D01*
X104332620Y-76965067D01*
X104387100Y-77132737D01*
X104389108Y-77138916D01*
X104392355Y-77144540D01*
X104392356Y-77144542D01*
X104466721Y-77273347D01*
X104483754Y-77302848D01*
X104488098Y-77307673D01*
X104488100Y-77307675D01*
X104558937Y-77386347D01*
X104582551Y-77424881D01*
X104590787Y-77469319D01*
X104590787Y-81638512D01*
X104590265Y-81649567D01*
X104588614Y-81656954D01*
X104588858Y-81664740D01*
X104588858Y-81664748D01*
X104590726Y-81724160D01*
X104590787Y-81728055D01*
X104590787Y-81755637D01*
X104591275Y-81759506D01*
X104591276Y-81759512D01*
X104591291Y-81759630D01*
X104592205Y-81771253D01*
X104593332Y-81807117D01*
X104593333Y-81807124D01*
X104593578Y-81814914D01*
X104595754Y-81822406D01*
X104595755Y-81822408D01*
X104599166Y-81834149D01*
X104603112Y-81853202D01*
X104605623Y-81873079D01*
X104608493Y-81880329D01*
X104608495Y-81880335D01*
X104621701Y-81913691D01*
X104625484Y-81924738D01*
X104637669Y-81966677D01*
X104641640Y-81973392D01*
X104641641Y-81973394D01*
X104647868Y-81983924D01*
X104656423Y-82001386D01*
X104660929Y-82012767D01*
X104660930Y-82012770D01*
X104663801Y-82020019D01*
X104685727Y-82050199D01*
X104689468Y-82055347D01*
X104695880Y-82065109D01*
X104714143Y-82095989D01*
X104714146Y-82095994D01*
X104718117Y-82102707D01*
X104723631Y-82108221D01*
X104723632Y-82108222D01*
X104732277Y-82116867D01*
X104744913Y-82131661D01*
X104752106Y-82141562D01*
X104752110Y-82141566D01*
X104756693Y-82147874D01*
X104762702Y-82152845D01*
X104762703Y-82152846D01*
X104790345Y-82175713D01*
X104798986Y-82183576D01*
X129088181Y-106472772D01*
X129115061Y-106513000D01*
X129124500Y-106560453D01*
X129124500Y-106941521D01*
X129124501Y-107225500D01*
X129107888Y-107287500D01*
X129062501Y-107332887D01*
X129000501Y-107349500D01*
X128785452Y-107349500D01*
X128737999Y-107340061D01*
X128697771Y-107313181D01*
X118576818Y-97192227D01*
X118549938Y-97151999D01*
X118540499Y-97104546D01*
X118540499Y-96850439D01*
X118540499Y-96847128D01*
X118534091Y-96787517D01*
X118483796Y-96652669D01*
X118397546Y-96537454D01*
X118389023Y-96531074D01*
X118289431Y-96456519D01*
X118289430Y-96456518D01*
X118282331Y-96451204D01*
X118147483Y-96400909D01*
X118139770Y-96400079D01*
X118139767Y-96400079D01*
X118091180Y-96394855D01*
X118091169Y-96394854D01*
X118087873Y-96394500D01*
X118084550Y-96394500D01*
X112915439Y-96394500D01*
X112915420Y-96394500D01*
X112912128Y-96394501D01*
X112908850Y-96394853D01*
X112908838Y-96394854D01*
X112860231Y-96400079D01*
X112860225Y-96400080D01*
X112852517Y-96400909D01*
X112845252Y-96403618D01*
X112845246Y-96403620D01*
X112725980Y-96448104D01*
X112725978Y-96448104D01*
X112717669Y-96451204D01*
X112710572Y-96456516D01*
X112710568Y-96456519D01*
X112609550Y-96532141D01*
X112609546Y-96532144D01*
X112602454Y-96537454D01*
X112597144Y-96544546D01*
X112597141Y-96544550D01*
X112521519Y-96645568D01*
X112521516Y-96645572D01*
X112516204Y-96652669D01*
X112513104Y-96660978D01*
X112513104Y-96660980D01*
X112468620Y-96780247D01*
X112468619Y-96780250D01*
X112465909Y-96787517D01*
X112465079Y-96795229D01*
X112465079Y-96795233D01*
X112464484Y-96800770D01*
X112447384Y-96851545D01*
X112410459Y-96890366D01*
X112370965Y-96905908D01*
X112371367Y-96907292D01*
X112352126Y-96912881D01*
X112333083Y-96916825D01*
X112320949Y-96918358D01*
X112320948Y-96918358D01*
X112313208Y-96919336D01*
X112305958Y-96922205D01*
X112305951Y-96922208D01*
X112272598Y-96935413D01*
X112261554Y-96939194D01*
X112227101Y-96949204D01*
X112227090Y-96949208D01*
X112219610Y-96951382D01*
X112212898Y-96955351D01*
X112212896Y-96955352D01*
X112202364Y-96961580D01*
X112184904Y-96970134D01*
X112173519Y-96974642D01*
X112173513Y-96974644D01*
X112166268Y-96977514D01*
X112159963Y-96982094D01*
X112159955Y-96982099D01*
X112130932Y-97003185D01*
X112121174Y-97009595D01*
X112090296Y-97027857D01*
X112090290Y-97027861D01*
X112083580Y-97031830D01*
X112078067Y-97037341D01*
X112078060Y-97037348D01*
X112069410Y-97045998D01*
X112054627Y-97058624D01*
X112044726Y-97065817D01*
X112044716Y-97065826D01*
X112038413Y-97070406D01*
X112033444Y-97076411D01*
X112033441Y-97076415D01*
X112010572Y-97104059D01*
X112002711Y-97112697D01*
X105887696Y-103227711D01*
X105879511Y-103235159D01*
X105873123Y-103239214D01*
X105867788Y-103244894D01*
X105867783Y-103244899D01*
X105827096Y-103288225D01*
X105824392Y-103291016D01*
X105807628Y-103307780D01*
X105807621Y-103307787D01*
X105804880Y-103310529D01*
X105802500Y-103313596D01*
X105802489Y-103313609D01*
X105802400Y-103313725D01*
X105794842Y-103322570D01*
X105770280Y-103348727D01*
X105770273Y-103348736D01*
X105764938Y-103354418D01*
X105761182Y-103361249D01*
X105761179Y-103361254D01*
X105755285Y-103371975D01*
X105744609Y-103388227D01*
X105737109Y-103397896D01*
X105737101Y-103397907D01*
X105732327Y-103404064D01*
X105729234Y-103411208D01*
X105729229Y-103411219D01*
X105714974Y-103444160D01*
X105709838Y-103454643D01*
X105688803Y-103492908D01*
X105686864Y-103500456D01*
X105686863Y-103500461D01*
X105683822Y-103512307D01*
X105677521Y-103530711D01*
X105672658Y-103541948D01*
X105672656Y-103541952D01*
X105669562Y-103549104D01*
X105668342Y-103556803D01*
X105668342Y-103556805D01*
X105662729Y-103592241D01*
X105660361Y-103603676D01*
X105651438Y-103638428D01*
X105651436Y-103638436D01*
X105649500Y-103645981D01*
X105649500Y-103653777D01*
X105649500Y-103666017D01*
X105647974Y-103685402D01*
X105644840Y-103705196D01*
X105645574Y-103712961D01*
X105645574Y-103712964D01*
X105648950Y-103748676D01*
X105649500Y-103760345D01*
X105649500Y-112290547D01*
X105635985Y-112346842D01*
X105598385Y-112390865D01*
X105544898Y-112413020D01*
X105487182Y-112408478D01*
X105437819Y-112378228D01*
X103161819Y-110102228D01*
X103134939Y-110062000D01*
X103125500Y-110014547D01*
X103125500Y-73310452D01*
X103134939Y-73262999D01*
X103161819Y-73222771D01*
X104222772Y-72161819D01*
X104263000Y-72134939D01*
X104310453Y-72125500D01*
X116064933Y-72125500D01*
X116112386Y-72134939D01*
X116152614Y-72161819D01*
X117352512Y-73361718D01*
X117376752Y-73396016D01*
X117388152Y-73436437D01*
X117401777Y-73566067D01*
X117405800Y-73604345D01*
X117407805Y-73610517D01*
X117407807Y-73610524D01*
X117462287Y-73778194D01*
X117464295Y-73784373D01*
X117558941Y-73948305D01*
X117685603Y-74088977D01*
X117838744Y-74200240D01*
X118011671Y-74277233D01*
X118196828Y-74316589D01*
X118379617Y-74316589D01*
X118386120Y-74316589D01*
X118571277Y-74277233D01*
X118744204Y-74200240D01*
X118897345Y-74088977D01*
X119024007Y-73948305D01*
X119118653Y-73784373D01*
X119177148Y-73604345D01*
X119196934Y-73416089D01*
X119177148Y-73227833D01*
X119118653Y-73047805D01*
X119024007Y-72883873D01*
X119012765Y-72871388D01*
X118901694Y-72748031D01*
X118901693Y-72748030D01*
X118897345Y-72743201D01*
X118892087Y-72739381D01*
X118892085Y-72739379D01*
X118749462Y-72635758D01*
X118749461Y-72635757D01*
X118744204Y-72631938D01*
X118738266Y-72629294D01*
X118577219Y-72557590D01*
X118577214Y-72557588D01*
X118571277Y-72554945D01*
X118564918Y-72553593D01*
X118564914Y-72553592D01*
X118392482Y-72516941D01*
X118392479Y-72516940D01*
X118386120Y-72515589D01*
X118379617Y-72515589D01*
X118326926Y-72515589D01*
X118279473Y-72506150D01*
X118239245Y-72479270D01*
X116872671Y-71112695D01*
X116865227Y-71104514D01*
X116861171Y-71098123D01*
X116812160Y-71052098D01*
X116809363Y-71049387D01*
X116792612Y-71032636D01*
X116792611Y-71032635D01*
X116789856Y-71029880D01*
X116786675Y-71027412D01*
X116777799Y-71019830D01*
X116751654Y-70995278D01*
X116751652Y-70995276D01*
X116745967Y-70989938D01*
X116739134Y-70986182D01*
X116739128Y-70986177D01*
X116728410Y-70980285D01*
X116712151Y-70969606D01*
X116702480Y-70962104D01*
X116702477Y-70962102D01*
X116696321Y-70957327D01*
X116689164Y-70954229D01*
X116689161Y-70954228D01*
X116656234Y-70939978D01*
X116645748Y-70934841D01*
X116614317Y-70917562D01*
X116614308Y-70917558D01*
X116607477Y-70913803D01*
X116599920Y-70911862D01*
X116599916Y-70911861D01*
X116588073Y-70908820D01*
X116569669Y-70902519D01*
X116558442Y-70897660D01*
X116558435Y-70897658D01*
X116551281Y-70894562D01*
X116543577Y-70893341D01*
X116543575Y-70893341D01*
X116508144Y-70887729D01*
X116496709Y-70885361D01*
X116461956Y-70876438D01*
X116461948Y-70876437D01*
X116454404Y-70874500D01*
X116446608Y-70874500D01*
X116434368Y-70874500D01*
X116414982Y-70872974D01*
X116395189Y-70869840D01*
X116387423Y-70870574D01*
X116387420Y-70870574D01*
X116351709Y-70873950D01*
X116340040Y-70874500D01*
X104077771Y-70874500D01*
X104066718Y-70873979D01*
X104059332Y-70872328D01*
X104051534Y-70872573D01*
X103992144Y-70874439D01*
X103988250Y-70874500D01*
X103960650Y-70874500D01*
X103956799Y-70874986D01*
X103956768Y-70874988D01*
X103956640Y-70875005D01*
X103945029Y-70875918D01*
X103909167Y-70877045D01*
X103909159Y-70877046D01*
X103901373Y-70877291D01*
X103893885Y-70879466D01*
X103893886Y-70879466D01*
X103882134Y-70882880D01*
X103863095Y-70886822D01*
X103850948Y-70888357D01*
X103850940Y-70888358D01*
X103843208Y-70889336D01*
X103835962Y-70892204D01*
X103835957Y-70892206D01*
X103802585Y-70905419D01*
X103791539Y-70909200D01*
X103784048Y-70911377D01*
X103757094Y-70919208D01*
X103757089Y-70919209D01*
X103749610Y-70921383D01*
X103742908Y-70925346D01*
X103742897Y-70925351D01*
X103732364Y-70931581D01*
X103714900Y-70940136D01*
X103703524Y-70944640D01*
X103703517Y-70944643D01*
X103696268Y-70947514D01*
X103689962Y-70952094D01*
X103689957Y-70952098D01*
X103660927Y-70973189D01*
X103651169Y-70979598D01*
X103620298Y-70997856D01*
X103613579Y-71001830D01*
X103608063Y-71007344D01*
X103608056Y-71007351D01*
X103599407Y-71016000D01*
X103584624Y-71028626D01*
X103574727Y-71035817D01*
X103574720Y-71035823D01*
X103568413Y-71040406D01*
X103563446Y-71046408D01*
X103563435Y-71046420D01*
X103540570Y-71074059D01*
X103532710Y-71082697D01*
X102112696Y-72502711D01*
X102104511Y-72510159D01*
X102098123Y-72514214D01*
X102092788Y-72519894D01*
X102092783Y-72519899D01*
X102052096Y-72563225D01*
X102049392Y-72566016D01*
X102032628Y-72582780D01*
X102032621Y-72582787D01*
X102029880Y-72585529D01*
X102027500Y-72588596D01*
X102027489Y-72588609D01*
X102027400Y-72588725D01*
X102019842Y-72597570D01*
X101995280Y-72623727D01*
X101995273Y-72623736D01*
X101989938Y-72629418D01*
X101986182Y-72636249D01*
X101986179Y-72636254D01*
X101980285Y-72646975D01*
X101969609Y-72663227D01*
X101962109Y-72672896D01*
X101962101Y-72672907D01*
X101957327Y-72679064D01*
X101954234Y-72686208D01*
X101954229Y-72686219D01*
X101939974Y-72719160D01*
X101934838Y-72729643D01*
X101913803Y-72767908D01*
X101911864Y-72775456D01*
X101911863Y-72775461D01*
X101908822Y-72787307D01*
X101902521Y-72805711D01*
X101897658Y-72816948D01*
X101897656Y-72816952D01*
X101894562Y-72824104D01*
X101893342Y-72831803D01*
X101893342Y-72831805D01*
X101887729Y-72867241D01*
X101885361Y-72878676D01*
X101876438Y-72913428D01*
X101876436Y-72913436D01*
X101874500Y-72920981D01*
X101874500Y-72928777D01*
X101874500Y-72941017D01*
X101872974Y-72960402D01*
X101869840Y-72980196D01*
X101870574Y-72987961D01*
X101870574Y-72987964D01*
X101873950Y-73023676D01*
X101874500Y-73035345D01*
X101874500Y-110190547D01*
X101860985Y-110246842D01*
X101823385Y-110290865D01*
X101769898Y-110313020D01*
X101712182Y-110308478D01*
X101662819Y-110278228D01*
X98661819Y-107277228D01*
X98634939Y-107237000D01*
X98625500Y-107189547D01*
X98625500Y-75310452D01*
X98634939Y-75262999D01*
X98661819Y-75222771D01*
X103722771Y-70161819D01*
X103762999Y-70134939D01*
X103810452Y-70125500D01*
X119189548Y-70125500D01*
X119237001Y-70134939D01*
X119277229Y-70161819D01*
X125338181Y-76222772D01*
X125365061Y-76263000D01*
X125374500Y-76310453D01*
X125374500Y-93182225D01*
X125373978Y-93193280D01*
X125372327Y-93200667D01*
X125372571Y-93208453D01*
X125372571Y-93208461D01*
X125374439Y-93267873D01*
X125374500Y-93271768D01*
X125374500Y-93299350D01*
X125374988Y-93303219D01*
X125374989Y-93303225D01*
X125375004Y-93303343D01*
X125375918Y-93314966D01*
X125377045Y-93350830D01*
X125377046Y-93350837D01*
X125377291Y-93358627D01*
X125379467Y-93366119D01*
X125379468Y-93366121D01*
X125382879Y-93377862D01*
X125386825Y-93396915D01*
X125389336Y-93416792D01*
X125392206Y-93424042D01*
X125392208Y-93424048D01*
X125405414Y-93457404D01*
X125409197Y-93468451D01*
X125421382Y-93510390D01*
X125425353Y-93517105D01*
X125425354Y-93517107D01*
X125431581Y-93527637D01*
X125440136Y-93545099D01*
X125444642Y-93556480D01*
X125444643Y-93556483D01*
X125447514Y-93563732D01*
X125469440Y-93593912D01*
X125473181Y-93599060D01*
X125479593Y-93608822D01*
X125497856Y-93639702D01*
X125497859Y-93639707D01*
X125501830Y-93646420D01*
X125507344Y-93651934D01*
X125507345Y-93651935D01*
X125515990Y-93660580D01*
X125528626Y-93675374D01*
X125535819Y-93685275D01*
X125535823Y-93685279D01*
X125540406Y-93691587D01*
X125546415Y-93696558D01*
X125546416Y-93696559D01*
X125574058Y-93719426D01*
X125582699Y-93727289D01*
X128353181Y-96497771D01*
X128380061Y-96537999D01*
X128389500Y-96585452D01*
X128389500Y-97294560D01*
X128389500Y-97294578D01*
X128389501Y-97297872D01*
X128389853Y-97301150D01*
X128389854Y-97301161D01*
X128395079Y-97349768D01*
X128395080Y-97349773D01*
X128395909Y-97357483D01*
X128398619Y-97364749D01*
X128398620Y-97364753D01*
X128411683Y-97399775D01*
X128446204Y-97492331D01*
X128451518Y-97499430D01*
X128451519Y-97499431D01*
X128509812Y-97577301D01*
X128532454Y-97607546D01*
X128647669Y-97693796D01*
X128782517Y-97744091D01*
X128842127Y-97750500D01*
X130437872Y-97750499D01*
X130497483Y-97744091D01*
X130554111Y-97722969D01*
X130622692Y-97717748D01*
X130683506Y-97749879D01*
X130717842Y-97809475D01*
X130740210Y-97900225D01*
X130743693Y-97906862D01*
X130743695Y-97906866D01*
X130778915Y-97973970D01*
X130819266Y-98050852D01*
X130932071Y-98178183D01*
X131072070Y-98274818D01*
X131231128Y-98335140D01*
X131357628Y-98350500D01*
X131438623Y-98350500D01*
X131442372Y-98350500D01*
X131568872Y-98335140D01*
X131727930Y-98274818D01*
X131867929Y-98178183D01*
X131980734Y-98050852D01*
X132059790Y-97900225D01*
X132100500Y-97735056D01*
X132100500Y-97564944D01*
X132059790Y-97399775D01*
X131980734Y-97249148D01*
X131964810Y-97231174D01*
X131951162Y-97215768D01*
X131867929Y-97121817D01*
X131861760Y-97117558D01*
X131861758Y-97117557D01*
X131734106Y-97029445D01*
X131734105Y-97029444D01*
X131727930Y-97025182D01*
X131720915Y-97022521D01*
X131720912Y-97022520D01*
X131575888Y-96967520D01*
X131575882Y-96967518D01*
X131568872Y-96964860D01*
X131561427Y-96963956D01*
X131561423Y-96963955D01*
X131446092Y-96949951D01*
X131446080Y-96949950D01*
X131442372Y-96949500D01*
X131357628Y-96949500D01*
X131353920Y-96949950D01*
X131353907Y-96949951D01*
X131238576Y-96963955D01*
X131238570Y-96963956D01*
X131231128Y-96964860D01*
X131224119Y-96967517D01*
X131224111Y-96967520D01*
X131079084Y-97022521D01*
X131079077Y-97022524D01*
X131072070Y-97025182D01*
X131069884Y-97026690D01*
X131010755Y-97040321D01*
X130950350Y-97022495D01*
X130906493Y-96977294D01*
X130890499Y-96916378D01*
X130890499Y-96537181D01*
X130903615Y-96481677D01*
X130940188Y-96437914D01*
X131047546Y-96357546D01*
X131133796Y-96242331D01*
X131184091Y-96107483D01*
X131190500Y-96047873D01*
X131190500Y-96044578D01*
X131599500Y-96044578D01*
X131599501Y-96047872D01*
X131599853Y-96051150D01*
X131599854Y-96051161D01*
X131605079Y-96099768D01*
X131605080Y-96099773D01*
X131605909Y-96107483D01*
X131608619Y-96114749D01*
X131608620Y-96114753D01*
X131612140Y-96124190D01*
X131656204Y-96242331D01*
X131742454Y-96357546D01*
X131857669Y-96443796D01*
X131992517Y-96494091D01*
X132052127Y-96500500D01*
X132947872Y-96500499D01*
X133007483Y-96494091D01*
X133142331Y-96443796D01*
X133257546Y-96357546D01*
X133343796Y-96242331D01*
X133394091Y-96107483D01*
X133400500Y-96047873D01*
X133400499Y-94952128D01*
X133394091Y-94892517D01*
X133343796Y-94757669D01*
X133257546Y-94642454D01*
X133142331Y-94556204D01*
X133007483Y-94505909D01*
X132999770Y-94505079D01*
X132999767Y-94505079D01*
X132951180Y-94499855D01*
X132951169Y-94499854D01*
X132947873Y-94499500D01*
X132944550Y-94499500D01*
X132055439Y-94499500D01*
X132055420Y-94499500D01*
X132052128Y-94499501D01*
X132048850Y-94499853D01*
X132048838Y-94499854D01*
X132000231Y-94505079D01*
X132000225Y-94505080D01*
X131992517Y-94505909D01*
X131985252Y-94508618D01*
X131985246Y-94508620D01*
X131865980Y-94553104D01*
X131865978Y-94553104D01*
X131857669Y-94556204D01*
X131850572Y-94561516D01*
X131850568Y-94561519D01*
X131749550Y-94637141D01*
X131749546Y-94637144D01*
X131742454Y-94642454D01*
X131737144Y-94649546D01*
X131737141Y-94649550D01*
X131661519Y-94750568D01*
X131661516Y-94750572D01*
X131656204Y-94757669D01*
X131653104Y-94765978D01*
X131653104Y-94765980D01*
X131608620Y-94885247D01*
X131608619Y-94885250D01*
X131605909Y-94892517D01*
X131605079Y-94900227D01*
X131605079Y-94900232D01*
X131599855Y-94948819D01*
X131599854Y-94948831D01*
X131599500Y-94952127D01*
X131599500Y-94955448D01*
X131599500Y-94955449D01*
X131599500Y-96044560D01*
X131599500Y-96044578D01*
X131190500Y-96044578D01*
X131190499Y-94952128D01*
X131184091Y-94892517D01*
X131133796Y-94757669D01*
X131047546Y-94642454D01*
X130932331Y-94556204D01*
X130797483Y-94505909D01*
X130789770Y-94505079D01*
X130789767Y-94505079D01*
X130741180Y-94499855D01*
X130741169Y-94499854D01*
X130737873Y-94499500D01*
X130734550Y-94499500D01*
X129845439Y-94499500D01*
X129845420Y-94499500D01*
X129842128Y-94499501D01*
X129838850Y-94499853D01*
X129838838Y-94499854D01*
X129790231Y-94505079D01*
X129790225Y-94505080D01*
X129782517Y-94505909D01*
X129775252Y-94508618D01*
X129775246Y-94508620D01*
X129655980Y-94553104D01*
X129655978Y-94553104D01*
X129647669Y-94556204D01*
X129640572Y-94561516D01*
X129640568Y-94561519D01*
X129539550Y-94637141D01*
X129539546Y-94637144D01*
X129532454Y-94642454D01*
X129527144Y-94649546D01*
X129527141Y-94649550D01*
X129451519Y-94750568D01*
X129451516Y-94750572D01*
X129446204Y-94757669D01*
X129443104Y-94765978D01*
X129443104Y-94765980D01*
X129398620Y-94885247D01*
X129398619Y-94885250D01*
X129395909Y-94892517D01*
X129395079Y-94900227D01*
X129395079Y-94900232D01*
X129389855Y-94948819D01*
X129389854Y-94948831D01*
X129389500Y-94952127D01*
X129389500Y-94955449D01*
X129389500Y-95465547D01*
X129375985Y-95521842D01*
X129338385Y-95565865D01*
X129284898Y-95588020D01*
X129227182Y-95583478D01*
X129177819Y-95553228D01*
X126661819Y-93037228D01*
X126634939Y-92997000D01*
X126625500Y-92949547D01*
X126625500Y-76077772D01*
X126626020Y-76066719D01*
X126627672Y-76059333D01*
X126625561Y-75992145D01*
X126625500Y-75988251D01*
X126625500Y-75964545D01*
X126625500Y-75960650D01*
X126624998Y-75956681D01*
X126624080Y-75945024D01*
X126623998Y-75942428D01*
X126622709Y-75901373D01*
X126617120Y-75882140D01*
X126613174Y-75863083D01*
X126611641Y-75850944D01*
X126610664Y-75843208D01*
X126594582Y-75802591D01*
X126590803Y-75791551D01*
X126580795Y-75757102D01*
X126580793Y-75757099D01*
X126578618Y-75749610D01*
X126574647Y-75742896D01*
X126574645Y-75742891D01*
X126568421Y-75732368D01*
X126559858Y-75714890D01*
X126552486Y-75696268D01*
X126547902Y-75689959D01*
X126547899Y-75689953D01*
X126526817Y-75660937D01*
X126520401Y-75651170D01*
X126502143Y-75620296D01*
X126502140Y-75620292D01*
X126498170Y-75613579D01*
X126484005Y-75599414D01*
X126471368Y-75584618D01*
X126464184Y-75574729D01*
X126464178Y-75574723D01*
X126459594Y-75568413D01*
X126425946Y-75540577D01*
X126417305Y-75532714D01*
X119997286Y-69112695D01*
X119989842Y-69104514D01*
X119985786Y-69098123D01*
X119936775Y-69052098D01*
X119933978Y-69049387D01*
X119917227Y-69032636D01*
X119914471Y-69029880D01*
X119911290Y-69027412D01*
X119902414Y-69019830D01*
X119876269Y-68995278D01*
X119876267Y-68995276D01*
X119870582Y-68989938D01*
X119863749Y-68986182D01*
X119863743Y-68986177D01*
X119853025Y-68980285D01*
X119836766Y-68969606D01*
X119827095Y-68962104D01*
X119827092Y-68962102D01*
X119820936Y-68957327D01*
X119813779Y-68954229D01*
X119813776Y-68954228D01*
X119780849Y-68939978D01*
X119770363Y-68934841D01*
X119738932Y-68917562D01*
X119738923Y-68917558D01*
X119732092Y-68913803D01*
X119724535Y-68911862D01*
X119724531Y-68911861D01*
X119712688Y-68908820D01*
X119694284Y-68902519D01*
X119683057Y-68897660D01*
X119683050Y-68897658D01*
X119675896Y-68894562D01*
X119668192Y-68893341D01*
X119668190Y-68893341D01*
X119632759Y-68887729D01*
X119621324Y-68885361D01*
X119586571Y-68876438D01*
X119586563Y-68876437D01*
X119579019Y-68874500D01*
X119571223Y-68874500D01*
X119558983Y-68874500D01*
X119539597Y-68872974D01*
X119519804Y-68869840D01*
X119512038Y-68870574D01*
X119512035Y-68870574D01*
X119476324Y-68873950D01*
X119464655Y-68874500D01*
X103577775Y-68874500D01*
X103566719Y-68873978D01*
X103559333Y-68872327D01*
X103551545Y-68872571D01*
X103551538Y-68872571D01*
X103492113Y-68874439D01*
X103488219Y-68874500D01*
X103460650Y-68874500D01*
X103456794Y-68874986D01*
X103456791Y-68874987D01*
X103456735Y-68874994D01*
X103456662Y-68875003D01*
X103445044Y-68875917D01*
X103409165Y-68877045D01*
X103409164Y-68877045D01*
X103401373Y-68877290D01*
X103393888Y-68879464D01*
X103393884Y-68879465D01*
X103382125Y-68882881D01*
X103363087Y-68886823D01*
X103350949Y-68888357D01*
X103350941Y-68888358D01*
X103343208Y-68889336D01*
X103335960Y-68892205D01*
X103335954Y-68892207D01*
X103302597Y-68905413D01*
X103291554Y-68909194D01*
X103257100Y-68919205D01*
X103257094Y-68919207D01*
X103249610Y-68921382D01*
X103242898Y-68925351D01*
X103242896Y-68925352D01*
X103232364Y-68931580D01*
X103214904Y-68940134D01*
X103203519Y-68944642D01*
X103203513Y-68944644D01*
X103196268Y-68947514D01*
X103189963Y-68952094D01*
X103189955Y-68952099D01*
X103160932Y-68973185D01*
X103151174Y-68979595D01*
X103120296Y-68997857D01*
X103120290Y-68997861D01*
X103113580Y-69001830D01*
X103108067Y-69007341D01*
X103108060Y-69007348D01*
X103099410Y-69015998D01*
X103084627Y-69028624D01*
X103074726Y-69035817D01*
X103074716Y-69035826D01*
X103068413Y-69040406D01*
X103063444Y-69046411D01*
X103063441Y-69046415D01*
X103040572Y-69074059D01*
X103032711Y-69082697D01*
X97612696Y-74502711D01*
X97604511Y-74510159D01*
X97598123Y-74514214D01*
X97592788Y-74519894D01*
X97592783Y-74519899D01*
X97552096Y-74563225D01*
X97549392Y-74566016D01*
X97532628Y-74582780D01*
X97532621Y-74582787D01*
X97529880Y-74585529D01*
X97527500Y-74588596D01*
X97527489Y-74588609D01*
X97527400Y-74588725D01*
X97519842Y-74597570D01*
X97495280Y-74623727D01*
X97495273Y-74623736D01*
X97489938Y-74629418D01*
X97486182Y-74636249D01*
X97486179Y-74636254D01*
X97480285Y-74646975D01*
X97469609Y-74663227D01*
X97462109Y-74672896D01*
X97462101Y-74672907D01*
X97457327Y-74679064D01*
X97454234Y-74686208D01*
X97454229Y-74686219D01*
X97439974Y-74719160D01*
X97434838Y-74729643D01*
X97413803Y-74767908D01*
X97411864Y-74775456D01*
X97411863Y-74775461D01*
X97408822Y-74787307D01*
X97402521Y-74805711D01*
X97397658Y-74816948D01*
X97397656Y-74816952D01*
X97394562Y-74824104D01*
X97393342Y-74831803D01*
X97393342Y-74831805D01*
X97387729Y-74867241D01*
X97385361Y-74878676D01*
X97376438Y-74913428D01*
X97376436Y-74913436D01*
X97374500Y-74920981D01*
X97374500Y-74928777D01*
X97374500Y-74941017D01*
X97372974Y-74960402D01*
X97369840Y-74980196D01*
X97370574Y-74987961D01*
X97370574Y-74987964D01*
X97373950Y-75023676D01*
X97374500Y-75035345D01*
X97374500Y-107422225D01*
X97373978Y-107433280D01*
X97372327Y-107440667D01*
X97372571Y-107448453D01*
X97372571Y-107448461D01*
X97374439Y-107507873D01*
X97374500Y-107511768D01*
X97374500Y-107539350D01*
X97374988Y-107543219D01*
X97374989Y-107543225D01*
X97375004Y-107543343D01*
X97375918Y-107554966D01*
X97377045Y-107590830D01*
X97377046Y-107590837D01*
X97377291Y-107598627D01*
X97379467Y-107606119D01*
X97379468Y-107606121D01*
X97382879Y-107617862D01*
X97386825Y-107636915D01*
X97389336Y-107656792D01*
X97392206Y-107664042D01*
X97392208Y-107664048D01*
X97405414Y-107697404D01*
X97409197Y-107708451D01*
X97421382Y-107750390D01*
X97425353Y-107757105D01*
X97425354Y-107757107D01*
X97431581Y-107767637D01*
X97440136Y-107785099D01*
X97444642Y-107796480D01*
X97444643Y-107796483D01*
X97447514Y-107803732D01*
X97469440Y-107833912D01*
X97473181Y-107839060D01*
X97479593Y-107848822D01*
X97497856Y-107879702D01*
X97497859Y-107879707D01*
X97501830Y-107886420D01*
X97507345Y-107891935D01*
X97515990Y-107900580D01*
X97528626Y-107915374D01*
X97535819Y-107925275D01*
X97535823Y-107925279D01*
X97540406Y-107931587D01*
X97546415Y-107936558D01*
X97546416Y-107936559D01*
X97574058Y-107959426D01*
X97582699Y-107967289D01*
X101338181Y-111722772D01*
X101365061Y-111763000D01*
X101374500Y-111810453D01*
X101374500Y-127922225D01*
X101373978Y-127933280D01*
X101372327Y-127940667D01*
X101372571Y-127948453D01*
X101372571Y-127948461D01*
X101374439Y-128007873D01*
X101374500Y-128011768D01*
X101374500Y-128039350D01*
X101374988Y-128043219D01*
X101374989Y-128043225D01*
X101375004Y-128043343D01*
X101375918Y-128054966D01*
X101377045Y-128090830D01*
X101377046Y-128090837D01*
X101377291Y-128098627D01*
X101379467Y-128106119D01*
X101379468Y-128106121D01*
X101382879Y-128117862D01*
X101386825Y-128136915D01*
X101389336Y-128156792D01*
X101392206Y-128164042D01*
X101392208Y-128164048D01*
X101405414Y-128197404D01*
X101409197Y-128208451D01*
X101421382Y-128250390D01*
X101425353Y-128257105D01*
X101425354Y-128257107D01*
X101431581Y-128267637D01*
X101440136Y-128285099D01*
X101444642Y-128296480D01*
X101444643Y-128296483D01*
X101447514Y-128303732D01*
X101469440Y-128333912D01*
X101473181Y-128339060D01*
X101479593Y-128348822D01*
X101497856Y-128379702D01*
X101497859Y-128379707D01*
X101501830Y-128386420D01*
X101507345Y-128391935D01*
X101515990Y-128400580D01*
X101528626Y-128415374D01*
X101535819Y-128425275D01*
X101535823Y-128425279D01*
X101540406Y-128431587D01*
X101546415Y-128436558D01*
X101546416Y-128436559D01*
X101574058Y-128459426D01*
X101582699Y-128467289D01*
X107533181Y-134417772D01*
X107560061Y-134458000D01*
X107569500Y-134505453D01*
X107569500Y-135894560D01*
X107569500Y-135894578D01*
X107569501Y-135897872D01*
X107569853Y-135901150D01*
X107569854Y-135901161D01*
X107575079Y-135949768D01*
X107575080Y-135949773D01*
X107575909Y-135957483D01*
X107578619Y-135964749D01*
X107578620Y-135964753D01*
X107604695Y-136034663D01*
X107626204Y-136092331D01*
X107631518Y-136099430D01*
X107631519Y-136099431D01*
X107687367Y-136174035D01*
X107712454Y-136207546D01*
X107827669Y-136293796D01*
X107917383Y-136327257D01*
X107959082Y-136342810D01*
X108009462Y-136377789D01*
X108036915Y-136432633D01*
X108034726Y-136493926D01*
X108003430Y-136546673D01*
X107881505Y-136668599D01*
X107878402Y-136673029D01*
X107878399Y-136673034D01*
X107749073Y-136857731D01*
X107749068Y-136857738D01*
X107745965Y-136862171D01*
X107743677Y-136867077D01*
X107743675Y-136867081D01*
X107648386Y-137071427D01*
X107648383Y-137071432D01*
X107646097Y-137076337D01*
X107644698Y-137081557D01*
X107644694Y-137081569D01*
X107586337Y-137299365D01*
X107586335Y-137299371D01*
X107584937Y-137304592D01*
X107564341Y-137540000D01*
X107564813Y-137545395D01*
X107582476Y-137747288D01*
X107584937Y-137775408D01*
X107586336Y-137780630D01*
X107586337Y-137780634D01*
X107644694Y-137998430D01*
X107644697Y-137998438D01*
X107646097Y-138003663D01*
X107648385Y-138008570D01*
X107648386Y-138008572D01*
X107743678Y-138212927D01*
X107743681Y-138212933D01*
X107745965Y-138217830D01*
X107749064Y-138222257D01*
X107749066Y-138222259D01*
X107878399Y-138406966D01*
X107878402Y-138406970D01*
X107881505Y-138411401D01*
X108048599Y-138578495D01*
X108053031Y-138581598D01*
X108053033Y-138581600D01*
X108241624Y-138713653D01*
X108280489Y-138757971D01*
X108294500Y-138815228D01*
X108294500Y-140342225D01*
X108293978Y-140353280D01*
X108292327Y-140360667D01*
X108292571Y-140368453D01*
X108292571Y-140368461D01*
X108294439Y-140427873D01*
X108294500Y-140431768D01*
X108294500Y-140459350D01*
X108294988Y-140463219D01*
X108294989Y-140463225D01*
X108295004Y-140463343D01*
X108295918Y-140474966D01*
X108297045Y-140510830D01*
X108297046Y-140510837D01*
X108297291Y-140518627D01*
X108299467Y-140526119D01*
X108299468Y-140526121D01*
X108302879Y-140537862D01*
X108306825Y-140556915D01*
X108309336Y-140576792D01*
X108312206Y-140584042D01*
X108312208Y-140584048D01*
X108325414Y-140617404D01*
X108329197Y-140628451D01*
X108341382Y-140670390D01*
X108345353Y-140677105D01*
X108345354Y-140677107D01*
X108351581Y-140687637D01*
X108360136Y-140705099D01*
X108364642Y-140716480D01*
X108364643Y-140716483D01*
X108367514Y-140723732D01*
X108389440Y-140753912D01*
X108393181Y-140759060D01*
X108399593Y-140768822D01*
X108417856Y-140799702D01*
X108417859Y-140799707D01*
X108421830Y-140806420D01*
X108427345Y-140811935D01*
X108435990Y-140820580D01*
X108448626Y-140835374D01*
X108455819Y-140845275D01*
X108455823Y-140845279D01*
X108460406Y-140851587D01*
X108466415Y-140856558D01*
X108466416Y-140856559D01*
X108494058Y-140879426D01*
X108502699Y-140887289D01*
X110502707Y-142887298D01*
X110510159Y-142895487D01*
X110514214Y-142901877D01*
X110563223Y-142947900D01*
X110566019Y-142950610D01*
X110585529Y-142970120D01*
X110588709Y-142972587D01*
X110597571Y-142980155D01*
X110610880Y-142992654D01*
X110623732Y-143004723D01*
X110623734Y-143004724D01*
X110629418Y-143010062D01*
X110636251Y-143013818D01*
X110636252Y-143013819D01*
X110646973Y-143019713D01*
X110663234Y-143030394D01*
X110679064Y-143042673D01*
X110719155Y-143060021D01*
X110729635Y-143065155D01*
X110767908Y-143086197D01*
X110787316Y-143091180D01*
X110805719Y-143097481D01*
X110816944Y-143102339D01*
X110816946Y-143102339D01*
X110824104Y-143105437D01*
X110867258Y-143112271D01*
X110878644Y-143114629D01*
X110920981Y-143125500D01*
X110941017Y-143125500D01*
X110960415Y-143127027D01*
X110972486Y-143128939D01*
X110972487Y-143128939D01*
X110980196Y-143130160D01*
X111018276Y-143126560D01*
X111023676Y-143126050D01*
X111035345Y-143125500D01*
X113922225Y-143125500D01*
X113933280Y-143126021D01*
X113940667Y-143127673D01*
X114007872Y-143125561D01*
X114011768Y-143125500D01*
X114035448Y-143125500D01*
X114039350Y-143125500D01*
X114043313Y-143124999D01*
X114054963Y-143124080D01*
X114098627Y-143122709D01*
X114117861Y-143117119D01*
X114136917Y-143113174D01*
X114156792Y-143110664D01*
X114197395Y-143094587D01*
X114208450Y-143090802D01*
X114250390Y-143078618D01*
X114267629Y-143068422D01*
X114285103Y-143059862D01*
X114296474Y-143055360D01*
X114296476Y-143055358D01*
X114303732Y-143052486D01*
X114339069Y-143026811D01*
X114348824Y-143020403D01*
X114386420Y-142998170D01*
X114400584Y-142984005D01*
X114415379Y-142971368D01*
X114431587Y-142959594D01*
X114459428Y-142925938D01*
X114467279Y-142917309D01*
X124787311Y-132597278D01*
X124795481Y-132589844D01*
X124801877Y-132585786D01*
X124847918Y-132536756D01*
X124850535Y-132534054D01*
X124870120Y-132514471D01*
X124872585Y-132511292D01*
X124880167Y-132502416D01*
X124910062Y-132470582D01*
X124919713Y-132453023D01*
X124930390Y-132436770D01*
X124942673Y-132420936D01*
X124960026Y-132380832D01*
X124965158Y-132370361D01*
X124982435Y-132338935D01*
X124982435Y-132338934D01*
X124986197Y-132332092D01*
X124991177Y-132312691D01*
X124997481Y-132294281D01*
X125005438Y-132275896D01*
X125012272Y-132232741D01*
X125014638Y-132221321D01*
X125023560Y-132186574D01*
X125025500Y-132179019D01*
X125025500Y-132158983D01*
X125027025Y-132139597D01*
X125030160Y-132119804D01*
X125026050Y-132076324D01*
X125025500Y-132064655D01*
X125025500Y-117492775D01*
X125026021Y-117481719D01*
X125027673Y-117474333D01*
X125025561Y-117407113D01*
X125025500Y-117403219D01*
X125025500Y-117379542D01*
X125025500Y-117375650D01*
X125024998Y-117371683D01*
X125024081Y-117360026D01*
X125022710Y-117316373D01*
X125017118Y-117297128D01*
X125013174Y-117278083D01*
X125010664Y-117258208D01*
X124994579Y-117217583D01*
X124990806Y-117206562D01*
X124978618Y-117164610D01*
X124968417Y-117147360D01*
X124959863Y-117129901D01*
X124952486Y-117111268D01*
X124926808Y-117075925D01*
X124920401Y-117066171D01*
X124917113Y-117060612D01*
X124898170Y-117028580D01*
X124884005Y-117014415D01*
X124871370Y-116999622D01*
X124859594Y-116983413D01*
X124853583Y-116978440D01*
X124853581Y-116978438D01*
X124825941Y-116955573D01*
X124817300Y-116947710D01*
X122657521Y-114787931D01*
X122626541Y-114736245D01*
X122623585Y-114676058D01*
X122649347Y-114621589D01*
X122961913Y-114240728D01*
X123320417Y-113740436D01*
X123645433Y-113217768D01*
X123935569Y-112674962D01*
X124189582Y-112114343D01*
X124406385Y-111538310D01*
X124585050Y-110949332D01*
X124724811Y-110349929D01*
X124825070Y-109742669D01*
X124885398Y-109130151D01*
X124905536Y-108515000D01*
X124885398Y-107899849D01*
X124825070Y-107287331D01*
X124724811Y-106680071D01*
X124585050Y-106080668D01*
X124406385Y-105491690D01*
X124189582Y-104915657D01*
X124187924Y-104911999D01*
X124177933Y-104844640D01*
X124205018Y-104782160D01*
X124261013Y-104743405D01*
X124329029Y-104740063D01*
X124388553Y-104773143D01*
X127977707Y-108362297D01*
X127985156Y-108370483D01*
X127989214Y-108376877D01*
X127994899Y-108382215D01*
X127994901Y-108382218D01*
X128038239Y-108422915D01*
X128041035Y-108425625D01*
X128060530Y-108445120D01*
X128063615Y-108447513D01*
X128063701Y-108447580D01*
X128072573Y-108455158D01*
X128104418Y-108485062D01*
X128111248Y-108488817D01*
X128111251Y-108488819D01*
X128121971Y-108494712D01*
X128138222Y-108505386D01*
X128154064Y-108517674D01*
X128161221Y-108520771D01*
X128161223Y-108520772D01*
X128194155Y-108535022D01*
X128204650Y-108540164D01*
X128242908Y-108561197D01*
X128262312Y-108566179D01*
X128280714Y-108572480D01*
X128291941Y-108577338D01*
X128299105Y-108580438D01*
X128336697Y-108586391D01*
X128342239Y-108587269D01*
X128353682Y-108589639D01*
X128388425Y-108598560D01*
X128388426Y-108598560D01*
X128395981Y-108600500D01*
X128416017Y-108600500D01*
X128435402Y-108602025D01*
X128455196Y-108605160D01*
X128493276Y-108601560D01*
X128498676Y-108601050D01*
X128510345Y-108600500D01*
X134815546Y-108600500D01*
X134871841Y-108614015D01*
X134915864Y-108651615D01*
X134938019Y-108705102D01*
X134933477Y-108762818D01*
X134903227Y-108812181D01*
X134802227Y-108913181D01*
X134761999Y-108940061D01*
X134714546Y-108949500D01*
X133828141Y-108949500D01*
X133828121Y-108949500D01*
X133824992Y-108949501D01*
X133821860Y-108949820D01*
X133821858Y-108949821D01*
X133728938Y-108959312D01*
X133728928Y-108959313D01*
X133722203Y-108960001D01*
X133715781Y-108962128D01*
X133715776Y-108962130D01*
X133562521Y-109012914D01*
X133562517Y-109012915D01*
X133555666Y-109015186D01*
X133549522Y-109018975D01*
X133549519Y-109018977D01*
X133412488Y-109103497D01*
X133412480Y-109103503D01*
X133406344Y-109107288D01*
X133401242Y-109112389D01*
X133401238Y-109112393D01*
X133287393Y-109226238D01*
X133287389Y-109226242D01*
X133282288Y-109231344D01*
X133278503Y-109237480D01*
X133278497Y-109237488D01*
X133193977Y-109374519D01*
X133190186Y-109380666D01*
X133187914Y-109387519D01*
X133187911Y-109387528D01*
X133187255Y-109389508D01*
X133185928Y-109391780D01*
X133184862Y-109394067D01*
X133184650Y-109393968D01*
X133161376Y-109433832D01*
X133119765Y-109463878D01*
X133069551Y-109474500D01*
X131930449Y-109474500D01*
X131880235Y-109463878D01*
X131838624Y-109433832D01*
X131815349Y-109393968D01*
X131815138Y-109394067D01*
X131814071Y-109391780D01*
X131812745Y-109389508D01*
X131812088Y-109387528D01*
X131812087Y-109387527D01*
X131809814Y-109380666D01*
X131717712Y-109231344D01*
X131593656Y-109107288D01*
X131587515Y-109103500D01*
X131587511Y-109103497D01*
X131450480Y-109018977D01*
X131444334Y-109015186D01*
X131277797Y-108960001D01*
X131271064Y-108959313D01*
X131271059Y-108959312D01*
X131178140Y-108949819D01*
X131178123Y-108949818D01*
X131175009Y-108949500D01*
X131171860Y-108949500D01*
X129828140Y-108949500D01*
X129828120Y-108949500D01*
X129824992Y-108949501D01*
X129821860Y-108949820D01*
X129821858Y-108949821D01*
X129728938Y-108959312D01*
X129728928Y-108959313D01*
X129722203Y-108960001D01*
X129715781Y-108962128D01*
X129715776Y-108962130D01*
X129562521Y-109012914D01*
X129562517Y-109012915D01*
X129555666Y-109015186D01*
X129549522Y-109018975D01*
X129549519Y-109018977D01*
X129412488Y-109103497D01*
X129412480Y-109103503D01*
X129406344Y-109107288D01*
X129401242Y-109112389D01*
X129401238Y-109112393D01*
X129287393Y-109226238D01*
X129287389Y-109226242D01*
X129282288Y-109231344D01*
X129278503Y-109237480D01*
X129278497Y-109237488D01*
X129193977Y-109374519D01*
X129190186Y-109380666D01*
X129135001Y-109547203D01*
X129134313Y-109553933D01*
X129134312Y-109553940D01*
X129124819Y-109646859D01*
X129124818Y-109646877D01*
X129124500Y-109649991D01*
X129124500Y-109653138D01*
X129124500Y-109653139D01*
X129124500Y-110546858D01*
X129124500Y-110546877D01*
X129124501Y-110550008D01*
X129124820Y-110553140D01*
X129124821Y-110553141D01*
X129134312Y-110646061D01*
X129134313Y-110646069D01*
X129135001Y-110652797D01*
X129137129Y-110659219D01*
X129137130Y-110659223D01*
X129156995Y-110719171D01*
X129190186Y-110819334D01*
X129193977Y-110825480D01*
X129278497Y-110962511D01*
X129278500Y-110962515D01*
X129282288Y-110968656D01*
X129406344Y-111092712D01*
X129412485Y-111096500D01*
X129412488Y-111096502D01*
X129469558Y-111131702D01*
X129555666Y-111184814D01*
X129722203Y-111239999D01*
X129824991Y-111250500D01*
X131175008Y-111250499D01*
X131277797Y-111239999D01*
X131444334Y-111184814D01*
X131593656Y-111092712D01*
X131717712Y-110968656D01*
X131809814Y-110819334D01*
X131812201Y-110812130D01*
X131812745Y-110810492D01*
X131814071Y-110808219D01*
X131815138Y-110805933D01*
X131815349Y-110806031D01*
X131838624Y-110766168D01*
X131880235Y-110736122D01*
X131930449Y-110725500D01*
X133069551Y-110725500D01*
X133119765Y-110736122D01*
X133161376Y-110766168D01*
X133184650Y-110806031D01*
X133184862Y-110805933D01*
X133185928Y-110808219D01*
X133187255Y-110810492D01*
X133187911Y-110812471D01*
X133187913Y-110812476D01*
X133190186Y-110819334D01*
X133193977Y-110825480D01*
X133278497Y-110962511D01*
X133278500Y-110962515D01*
X133282288Y-110968656D01*
X133406344Y-111092712D01*
X133412485Y-111096500D01*
X133412488Y-111096502D01*
X133469558Y-111131702D01*
X133555666Y-111184814D01*
X133722203Y-111239999D01*
X133824991Y-111250500D01*
X135175008Y-111250499D01*
X135277797Y-111239999D01*
X135444334Y-111184814D01*
X135593656Y-111092712D01*
X135717712Y-110968656D01*
X135809814Y-110819334D01*
X135864999Y-110652797D01*
X135875500Y-110550009D01*
X135875499Y-109660450D01*
X135884938Y-109612998D01*
X135911815Y-109572773D01*
X137887306Y-107597282D01*
X137895482Y-107589843D01*
X137901877Y-107585786D01*
X137947933Y-107536740D01*
X137950550Y-107534038D01*
X137970120Y-107514470D01*
X137972565Y-107511316D01*
X137980155Y-107502428D01*
X138010062Y-107470582D01*
X138019709Y-107453032D01*
X138030393Y-107436766D01*
X138042674Y-107420936D01*
X138060018Y-107380851D01*
X138065160Y-107370356D01*
X138076626Y-107349500D01*
X138086197Y-107332092D01*
X138088138Y-107324533D01*
X138091179Y-107312689D01*
X138097480Y-107294283D01*
X138105438Y-107275895D01*
X138112269Y-107232756D01*
X138114639Y-107221315D01*
X138123560Y-107186574D01*
X138123559Y-107186574D01*
X138125500Y-107179019D01*
X138125500Y-107158983D01*
X138127025Y-107139597D01*
X138130160Y-107119804D01*
X138126050Y-107076324D01*
X138125500Y-107064655D01*
X138125500Y-105577775D01*
X138126021Y-105566719D01*
X138127673Y-105559333D01*
X138125561Y-105492127D01*
X138125500Y-105488232D01*
X138125500Y-105464541D01*
X138125500Y-105460650D01*
X138124998Y-105456677D01*
X138124080Y-105445018D01*
X138122954Y-105409173D01*
X138122709Y-105401373D01*
X138117120Y-105382140D01*
X138113174Y-105363083D01*
X138111641Y-105350944D01*
X138110664Y-105343208D01*
X138094582Y-105302591D01*
X138090803Y-105291551D01*
X138080795Y-105257102D01*
X138080793Y-105257099D01*
X138078618Y-105249610D01*
X138068417Y-105232360D01*
X138059863Y-105214901D01*
X138052486Y-105196268D01*
X138026808Y-105160925D01*
X138020401Y-105151171D01*
X138002142Y-105120296D01*
X138002141Y-105120294D01*
X137998170Y-105113580D01*
X137984005Y-105099415D01*
X137971370Y-105084622D01*
X137959594Y-105068413D01*
X137953583Y-105063440D01*
X137953581Y-105063438D01*
X137925941Y-105040573D01*
X137917300Y-105032710D01*
X135204312Y-102319721D01*
X135172948Y-102266744D01*
X135170930Y-102205212D01*
X135198754Y-102150293D01*
X135249562Y-102115525D01*
X135310830Y-102109479D01*
X135367454Y-102133645D01*
X135460867Y-102205285D01*
X135460513Y-102205746D01*
X135460658Y-102205910D01*
X135461025Y-102205404D01*
X136011099Y-102604040D01*
X136010752Y-102604517D01*
X136010921Y-102604629D01*
X136011260Y-102604155D01*
X136567188Y-103001118D01*
X136568444Y-103002026D01*
X137115660Y-103403188D01*
X137118849Y-103405607D01*
X137575213Y-103763627D01*
X137643265Y-103817014D01*
X137648462Y-103821326D01*
X137892729Y-104035452D01*
X138136432Y-104249083D01*
X138143540Y-104255830D01*
X138551328Y-104674735D01*
X138581679Y-104705913D01*
X138590378Y-104715858D01*
X138611994Y-104743405D01*
X138965614Y-105194057D01*
X138975076Y-105207963D01*
X139274983Y-105720306D01*
X139283709Y-105738447D01*
X139497488Y-106294448D01*
X139502416Y-106310398D01*
X139663190Y-106989891D01*
X139665270Y-107000865D01*
X139767577Y-107715329D01*
X139768651Y-107726269D01*
X139807913Y-108458729D01*
X139808004Y-108470018D01*
X139780373Y-109205941D01*
X139779337Y-109217937D01*
X139681135Y-109942763D01*
X139678658Y-109955775D01*
X139506393Y-110655053D01*
X139501963Y-110669291D01*
X139252334Y-111328761D01*
X139245241Y-111344207D01*
X138915124Y-111949869D01*
X138904569Y-111966082D01*
X138570860Y-112400334D01*
X138492538Y-112502253D01*
X138473709Y-112521864D01*
X138028972Y-112893348D01*
X138003096Y-112909989D01*
X137486061Y-113157931D01*
X137464174Y-113165994D01*
X136882873Y-113319866D01*
X136867881Y-113322859D01*
X136237161Y-113408785D01*
X136228894Y-113409630D01*
X135565399Y-113455065D01*
X135563068Y-113455203D01*
X134885183Y-113488810D01*
X134885130Y-113487747D01*
X134885097Y-113487748D01*
X134885176Y-113488808D01*
X134885068Y-113488816D01*
X134884991Y-113488820D01*
X134884935Y-113487755D01*
X134884904Y-113487756D01*
X134884985Y-113488822D01*
X134211739Y-113539937D01*
X134211681Y-113539178D01*
X134211615Y-113539185D01*
X134211721Y-113539933D01*
X134211643Y-113539944D01*
X134211560Y-113539951D01*
X134211496Y-113539198D01*
X134211428Y-113539205D01*
X134211542Y-113539959D01*
X133570279Y-113636573D01*
X133570277Y-113636573D01*
X133563261Y-113637631D01*
X133563248Y-113637632D01*
X133560029Y-113638118D01*
X133560013Y-113638015D01*
X133559973Y-113638023D01*
X133559998Y-113638115D01*
X133559935Y-113638132D01*
X133559868Y-113638143D01*
X133559852Y-113638050D01*
X133559810Y-113638059D01*
X133559839Y-113638160D01*
X133557143Y-113638927D01*
X133557133Y-113638930D01*
X133550255Y-113640889D01*
X133550253Y-113640889D01*
X132954869Y-113810455D01*
X132954859Y-113810458D01*
X132946091Y-113812956D01*
X132946045Y-113812960D01*
X132946000Y-113812982D01*
X132945949Y-113812997D01*
X132945910Y-113813027D01*
X132937849Y-113817072D01*
X132937843Y-113817075D01*
X132393425Y-114090309D01*
X132393424Y-114090309D01*
X132385986Y-114094043D01*
X132385947Y-114094053D01*
X132385895Y-114094089D01*
X132385843Y-114094116D01*
X132385818Y-114094144D01*
X132379389Y-114098710D01*
X132379388Y-114098711D01*
X131823091Y-114493903D01*
X131822537Y-114493123D01*
X131822476Y-114493169D01*
X131823073Y-114493909D01*
X131823011Y-114493959D01*
X131822947Y-114494006D01*
X131822384Y-114493239D01*
X131822323Y-114493286D01*
X131822936Y-114494022D01*
X131288622Y-114939146D01*
X131288199Y-114938639D01*
X131288153Y-114938680D01*
X131288604Y-114939154D01*
X131288543Y-114939212D01*
X131288484Y-114939262D01*
X131288061Y-114938762D01*
X131288016Y-114938802D01*
X131288475Y-114939277D01*
X130784976Y-115425303D01*
X130784394Y-115424700D01*
X130784346Y-115424748D01*
X130784960Y-115425311D01*
X130784905Y-115425371D01*
X130784847Y-115425428D01*
X130784263Y-115424833D01*
X130784215Y-115424882D01*
X130784839Y-115425444D01*
X130314577Y-115947886D01*
X130313868Y-115947247D01*
X130313824Y-115947298D01*
X130314562Y-115947895D01*
X130314511Y-115947958D01*
X130314456Y-115948021D01*
X130313740Y-115947396D01*
X130313696Y-115947447D01*
X130314449Y-115948037D01*
X129879842Y-116502417D01*
X129879351Y-116502032D01*
X129879319Y-116502074D01*
X129879830Y-116502426D01*
X129879788Y-116502487D01*
X129879732Y-116502559D01*
X129879243Y-116502179D01*
X129879210Y-116502225D01*
X129879726Y-116502577D01*
X129483197Y-117084413D01*
X129482572Y-117083987D01*
X129482539Y-117084039D01*
X129483184Y-117084424D01*
X129483141Y-117084496D01*
X129483096Y-117084563D01*
X129482473Y-117084144D01*
X129482441Y-117084195D01*
X129483092Y-117084579D01*
X129127059Y-117689395D01*
X129126517Y-117689076D01*
X129126491Y-117689125D01*
X129127047Y-117689407D01*
X129127010Y-117689480D01*
X129126968Y-117689552D01*
X129126431Y-117689238D01*
X129126405Y-117689287D01*
X129126965Y-117689569D01*
X128813849Y-118312880D01*
X128813062Y-118312484D01*
X128813033Y-118312546D01*
X128813836Y-118312894D01*
X128813800Y-118312977D01*
X128813768Y-118313043D01*
X128812980Y-118312661D01*
X128812954Y-118312717D01*
X128813766Y-118313058D01*
X128545987Y-118950388D01*
X128545243Y-118950075D01*
X128545218Y-118950139D01*
X128545974Y-118950404D01*
X128545945Y-118950487D01*
X128545917Y-118950556D01*
X128545174Y-118950254D01*
X128545151Y-118950314D01*
X128545916Y-118950573D01*
X128314868Y-119634709D01*
X128314002Y-119634416D01*
X128313980Y-119634491D01*
X128314856Y-119634726D01*
X128314833Y-119634812D01*
X128314810Y-119634882D01*
X128313949Y-119634599D01*
X128313929Y-119634668D01*
X128314811Y-119634898D01*
X128134158Y-120329035D01*
X128133419Y-120328842D01*
X128133406Y-120328902D01*
X128134150Y-120329049D01*
X128134135Y-120329125D01*
X128134113Y-120329211D01*
X128133380Y-120329023D01*
X128133367Y-120329084D01*
X128134115Y-120329228D01*
X127998680Y-121032397D01*
X127997587Y-121032186D01*
X127997576Y-121032253D01*
X127998674Y-121032408D01*
X127998664Y-121032479D01*
X127998646Y-121032575D01*
X127997557Y-121032370D01*
X127997546Y-121032443D01*
X127998649Y-121032591D01*
X127903254Y-121743826D01*
X127901948Y-121743650D01*
X127901941Y-121743712D01*
X127903249Y-121743837D01*
X127903241Y-121743921D01*
X127903230Y-121744010D01*
X127901928Y-121743849D01*
X127901921Y-121743911D01*
X127903233Y-121744022D01*
X127842698Y-122462367D01*
X127841832Y-122462294D01*
X127841829Y-122462337D01*
X127842695Y-122462375D01*
X127842692Y-122462444D01*
X127842683Y-122462552D01*
X127841820Y-122462480D01*
X127841818Y-122462527D01*
X127842686Y-122462564D01*
X127811833Y-123187047D01*
X127810461Y-123186988D01*
X127810460Y-123187038D01*
X127811830Y-123187055D01*
X127811829Y-123187136D01*
X127811825Y-123187237D01*
X127810457Y-123187182D01*
X127810456Y-123187234D01*
X127811828Y-123187246D01*
X127805476Y-123916909D01*
X127803987Y-123916896D01*
X127803988Y-123916931D01*
X127805474Y-123916916D01*
X127805475Y-123917014D01*
X127805475Y-123917101D01*
X127803993Y-123917101D01*
X127803994Y-123917132D01*
X127805477Y-123917106D01*
X127818450Y-124650986D01*
X127817146Y-124651009D01*
X127817149Y-124651036D01*
X127818449Y-124650991D01*
X127818452Y-124651077D01*
X127818454Y-124651180D01*
X127817162Y-124651205D01*
X127817164Y-124651231D01*
X127818456Y-124651184D01*
X127845572Y-125388315D01*
X127845049Y-125388334D01*
X127845050Y-125388339D01*
X127845572Y-125388318D01*
X127845575Y-125388392D01*
X127845579Y-125388514D01*
X127845581Y-125388514D01*
X127881663Y-126127930D01*
X127880977Y-126127963D01*
X127880978Y-126127968D01*
X127881663Y-126127932D01*
X127921555Y-126869069D01*
X127921567Y-126869305D01*
X127960004Y-127609609D01*
X127960056Y-127610699D01*
X127991911Y-128349923D01*
X127991980Y-128351880D01*
X128012083Y-129088682D01*
X128012128Y-129091520D01*
X128015346Y-129824841D01*
X128015306Y-129828577D01*
X127996539Y-130557435D01*
X127996332Y-130562084D01*
X127950488Y-131285640D01*
X127950009Y-131291203D01*
X127872027Y-132008383D01*
X127871154Y-132014835D01*
X127755664Y-132726750D01*
X127755070Y-132730115D01*
X127733877Y-132841281D01*
X127615807Y-133460606D01*
X127615806Y-133460613D01*
X127474199Y-134197574D01*
X127474033Y-134198423D01*
X127326708Y-134937265D01*
X127326396Y-134938782D01*
X127169601Y-135676939D01*
X127169116Y-135679123D01*
X126999196Y-136413592D01*
X126998499Y-136416450D01*
X126811723Y-137144662D01*
X126810760Y-137148200D01*
X126662781Y-137661561D01*
X126630065Y-137716128D01*
X126574595Y-137747288D01*
X126510974Y-137746838D01*
X126455951Y-137714897D01*
X123832544Y-135091491D01*
X123821002Y-135079949D01*
X123809461Y-135091489D01*
X123809459Y-135091491D01*
X115091491Y-143809458D01*
X115091489Y-143809460D01*
X115079949Y-143821001D01*
X115091491Y-143832543D01*
X117736195Y-146477247D01*
X117769163Y-146536293D01*
X117766245Y-146603857D01*
X117728310Y-146659842D01*
X117666641Y-146687596D01*
X117078613Y-146774489D01*
X117069361Y-146775503D01*
X116350978Y-146827049D01*
X116342402Y-146827367D01*
X115616882Y-146829117D01*
X115608982Y-146828884D01*
X114879855Y-146784104D01*
X114872596Y-146783443D01*
X114143398Y-146695424D01*
X114136727Y-146694434D01*
X113411017Y-146566482D01*
X113404872Y-146565238D01*
X112686247Y-146400697D01*
X112680560Y-146399252D01*
X111972571Y-146201471D01*
X111967274Y-146199863D01*
X111273517Y-145972218D01*
X111268541Y-145970468D01*
X110593931Y-145716851D01*
X110586498Y-145713777D01*
X109944263Y-145423516D01*
X109935195Y-145418963D01*
X109318978Y-145077237D01*
X109311356Y-145072645D01*
X109079579Y-144921417D01*
X108717785Y-144685357D01*
X108711538Y-144681001D01*
X108138788Y-144254799D01*
X108133749Y-144250843D01*
X107580061Y-143792477D01*
X107576091Y-143789046D01*
X107039635Y-143305271D01*
X107036610Y-143302451D01*
X106515533Y-142800043D01*
X106513350Y-142797885D01*
X106005844Y-142283717D01*
X106004478Y-142282310D01*
X105509576Y-141764183D01*
X105507126Y-141761538D01*
X105028536Y-141229360D01*
X105024823Y-141225035D01*
X104748095Y-140887289D01*
X104571357Y-140671580D01*
X104568207Y-140667570D01*
X104136924Y-140094569D01*
X104134273Y-140090910D01*
X103723198Y-139501203D01*
X103720997Y-139497936D01*
X103478879Y-139125953D01*
X103328083Y-138894275D01*
X103326294Y-138891443D01*
X103316544Y-138875534D01*
X102949518Y-138276630D01*
X102948073Y-138274210D01*
X102874340Y-138147518D01*
X102585430Y-137651099D01*
X102584366Y-137649233D01*
X102233848Y-137020689D01*
X102232916Y-137018988D01*
X101870878Y-136345226D01*
X101869807Y-136343187D01*
X101711339Y-136034663D01*
X101519763Y-135661682D01*
X101518538Y-135659228D01*
X101239885Y-135084827D01*
X101184079Y-134969791D01*
X101182651Y-134966743D01*
X100867355Y-134269192D01*
X100865817Y-134265640D01*
X100837957Y-134198423D01*
X100573254Y-133559778D01*
X100571617Y-133555618D01*
X100536205Y-133460613D01*
X100305350Y-132841268D01*
X100303687Y-132836510D01*
X100067271Y-132113494D01*
X100065657Y-132108152D01*
X99862652Y-131376350D01*
X99861089Y-131370083D01*
X99842340Y-131285640D01*
X99706002Y-130671602D01*
X99704807Y-130665492D01*
X99585160Y-129959437D01*
X99584393Y-129954240D01*
X99494862Y-129241624D01*
X99494402Y-129237366D01*
X99429730Y-128519655D01*
X99429473Y-128516266D01*
X99419144Y-128351027D01*
X99384390Y-127795070D01*
X99384261Y-127792625D01*
X99383605Y-127777228D01*
X99353449Y-127069172D01*
X99353395Y-127067666D01*
X99331522Y-126343044D01*
X99331521Y-126343043D01*
X99331508Y-126342543D01*
X99326093Y-126127930D01*
X99313312Y-125621429D01*
X99313276Y-125617691D01*
X99317212Y-124898290D01*
X99317404Y-124892069D01*
X99357900Y-124172063D01*
X99358216Y-124167778D01*
X99381069Y-123917132D01*
X99424092Y-123445265D01*
X99424311Y-123443085D01*
X99504289Y-122718391D01*
X99504384Y-122718401D01*
X99504336Y-122717973D01*
X99586829Y-121993213D01*
X99586904Y-121993032D01*
X99586851Y-121993026D01*
X99586866Y-121992896D01*
X99586957Y-121992906D01*
X99586959Y-121992900D01*
X99586864Y-121992891D01*
X99660432Y-121268457D01*
X99663168Y-121268734D01*
X99663193Y-121268462D01*
X99660449Y-121268261D01*
X99713591Y-120545019D01*
X99715047Y-120545126D01*
X99715062Y-120544865D01*
X99713601Y-120544822D01*
X99734864Y-119823188D01*
X99735968Y-119823220D01*
X99735969Y-119822958D01*
X99734864Y-119822992D01*
X99712798Y-119103382D01*
X99713433Y-119103362D01*
X99713417Y-119103118D01*
X99712785Y-119103186D01*
X99635939Y-118386017D01*
X99636442Y-118385963D01*
X99636411Y-118385731D01*
X99635911Y-118385821D01*
X99511612Y-117690461D01*
X99512847Y-117690240D01*
X99512793Y-117689984D01*
X99511571Y-117690268D01*
X99351585Y-117001362D01*
X99352934Y-117001048D01*
X99352874Y-117000794D01*
X99351536Y-117001172D01*
X99158933Y-116319219D01*
X99160400Y-116318804D01*
X99160379Y-116318735D01*
X99158934Y-116319207D01*
X99158904Y-116319115D01*
X99158882Y-116319038D01*
X99160344Y-116318620D01*
X99160324Y-116318551D01*
X99158875Y-116319029D01*
X98936733Y-115644525D01*
X98938375Y-115643984D01*
X98938291Y-115643733D01*
X98936668Y-115644339D01*
X98688063Y-114977786D01*
X98689470Y-114977261D01*
X98689376Y-114977028D01*
X98687990Y-114977602D01*
X98415996Y-114319502D01*
X98417548Y-114318860D01*
X98417450Y-114318629D01*
X98415918Y-114319320D01*
X98123609Y-113670168D01*
X98125680Y-113669235D01*
X98125647Y-113669165D01*
X98123609Y-113670161D01*
X98123568Y-113670077D01*
X98123531Y-113669994D01*
X98123525Y-113669989D01*
X97813980Y-113030291D01*
X97816046Y-113029292D01*
X97815935Y-113029063D01*
X97813891Y-113030114D01*
X97490176Y-112400355D01*
X97490778Y-112400045D01*
X97490742Y-112399980D01*
X97490173Y-112400334D01*
X97490129Y-112400263D01*
X97490095Y-112400197D01*
X97490692Y-112399889D01*
X97490656Y-112399824D01*
X97490079Y-112400183D01*
X97121353Y-111807259D01*
X97121372Y-111807247D01*
X97121259Y-111807083D01*
X97121241Y-111807098D01*
X96684871Y-111251776D01*
X96685529Y-111251258D01*
X96685367Y-111251066D01*
X96684743Y-111251625D01*
X96208770Y-110719176D01*
X96211144Y-110717053D01*
X96210973Y-110716856D01*
X96208637Y-110719030D01*
X95721997Y-110195681D01*
X95720068Y-110193558D01*
X95252577Y-109666678D01*
X95247211Y-109660200D01*
X94827438Y-109116761D01*
X94819329Y-109104901D01*
X94523893Y-108614015D01*
X94474059Y-108531213D01*
X94465048Y-108513012D01*
X94219152Y-107893230D01*
X94212914Y-107872280D01*
X94200221Y-107810042D01*
X94090335Y-107271220D01*
X94088027Y-107253338D01*
X94053668Y-106635831D01*
X94053709Y-106621356D01*
X94092568Y-105989781D01*
X94093715Y-105978946D01*
X94095078Y-105969888D01*
X94190484Y-105335959D01*
X94191822Y-105328592D01*
X94330807Y-104677151D01*
X94331820Y-104672793D01*
X94384777Y-104462181D01*
X94497028Y-104015757D01*
X94497345Y-104014532D01*
X94672346Y-103355481D01*
X94672348Y-103355480D01*
X94672372Y-103355385D01*
X94672397Y-103355292D01*
X94672396Y-103355290D01*
X94672397Y-103355289D01*
X94672396Y-103355289D01*
X94840396Y-102698457D01*
X94842882Y-102699092D01*
X94842946Y-102698820D01*
X94840442Y-102698265D01*
X94861490Y-102603345D01*
X94984901Y-102046796D01*
X94984909Y-102046784D01*
X94984922Y-102046702D01*
X94984941Y-102046618D01*
X94986127Y-102046886D01*
X94986144Y-102046798D01*
X94984938Y-102046603D01*
X95089446Y-101403140D01*
X95089873Y-101403209D01*
X95089901Y-101402975D01*
X95089470Y-101402943D01*
X95134766Y-100807669D01*
X95137623Y-100770121D01*
X95137646Y-100770122D01*
X95137646Y-100770091D01*
X95137634Y-100770092D01*
X95137631Y-100770017D01*
X95137631Y-100770016D01*
X95137636Y-100769952D01*
X95137649Y-100769953D01*
X95137650Y-100769924D01*
X95137627Y-100769925D01*
X95113015Y-100150378D01*
X95113023Y-100150342D01*
X95113011Y-100150280D01*
X95113009Y-100150219D01*
X95112993Y-100150185D01*
X94999205Y-99546556D01*
X94999207Y-99546513D01*
X94999187Y-99546461D01*
X94999177Y-99546405D01*
X94999152Y-99546367D01*
X94779777Y-98961297D01*
X94779770Y-98961251D01*
X94779743Y-98961207D01*
X94779725Y-98961158D01*
X94779691Y-98961122D01*
X94457684Y-98431275D01*
X94457670Y-98431233D01*
X94457636Y-98431194D01*
X94457607Y-98431147D01*
X94457568Y-98431118D01*
X94050595Y-97973682D01*
X94050577Y-97973648D01*
X94050530Y-97973609D01*
X94050490Y-97973564D01*
X94050454Y-97973546D01*
X94044448Y-97968577D01*
X94044448Y-97968576D01*
X93636019Y-97630651D01*
X93571621Y-97577369D01*
X93571602Y-97577342D01*
X93571538Y-97577301D01*
X93571490Y-97577261D01*
X93571463Y-97577252D01*
X93563994Y-97572444D01*
X93033869Y-97231174D01*
X93034263Y-97230561D01*
X93034194Y-97230521D01*
X93033855Y-97231157D01*
X93033784Y-97231119D01*
X93033721Y-97231079D01*
X93034107Y-97230470D01*
X93034038Y-97230430D01*
X93033699Y-97231075D01*
X92450449Y-96923943D01*
X92450872Y-96923137D01*
X92450816Y-96923110D01*
X92450440Y-96923934D01*
X92450370Y-96923902D01*
X92450288Y-96923859D01*
X92450708Y-96923057D01*
X92450647Y-96923027D01*
X92450271Y-96923857D01*
X91834468Y-96644522D01*
X91835061Y-96643213D01*
X91835019Y-96643193D01*
X91834462Y-96644516D01*
X91834379Y-96644481D01*
X91834296Y-96644444D01*
X91834881Y-96643130D01*
X91834837Y-96643110D01*
X91834287Y-96644443D01*
X91199027Y-96381747D01*
X91199878Y-96379687D01*
X91199868Y-96379682D01*
X91199026Y-96381746D01*
X91198977Y-96381726D01*
X91198848Y-96381673D01*
X91199695Y-96379611D01*
X91199673Y-96379602D01*
X91198844Y-96381673D01*
X90557855Y-96124718D01*
X90556557Y-96124190D01*
X89924029Y-95862291D01*
X89920136Y-95860600D01*
X89310255Y-95583258D01*
X89303643Y-95580011D01*
X89087070Y-95465547D01*
X88729482Y-95276554D01*
X88720085Y-95271045D01*
X88441815Y-95091035D01*
X88194738Y-94931203D01*
X88182753Y-94922386D01*
X87984896Y-94757669D01*
X87718793Y-94536136D01*
X87705174Y-94522906D01*
X87510644Y-94302526D01*
X87314208Y-94079985D01*
X87300907Y-94061831D01*
X86993473Y-93550610D01*
X86983248Y-93529203D01*
X86973652Y-93502899D01*
X86763465Y-92926762D01*
X86757891Y-92906087D01*
X86728215Y-92740077D01*
X86642834Y-92262446D01*
X86640951Y-92244199D01*
X86640756Y-92237415D01*
X86621659Y-91574672D01*
X86622213Y-91558867D01*
X86665540Y-91121963D01*
X86689541Y-90879928D01*
X86691705Y-90866109D01*
X86785674Y-90428928D01*
X86836062Y-90194500D01*
X86839417Y-90182074D01*
X86981977Y-89745503D01*
X87050848Y-89534593D01*
X87055303Y-89522969D01*
X87321695Y-88920584D01*
X87332217Y-88901521D01*
X87675416Y-88391489D01*
X87692084Y-88371591D01*
X88137887Y-87940628D01*
X88151002Y-87929599D01*
X88673953Y-87548374D01*
X88681162Y-87543499D01*
X89249792Y-87187610D01*
X89250539Y-87187148D01*
X89829331Y-86832642D01*
X89830255Y-86834150D01*
X89830494Y-86833994D01*
X89829497Y-86832535D01*
X89830636Y-86831757D01*
X90382359Y-86454766D01*
X90382387Y-86454757D01*
X90382438Y-86454712D01*
X90382499Y-86454671D01*
X90382515Y-86454645D01*
X90876410Y-86027031D01*
X90876452Y-86027009D01*
X90876484Y-86026967D01*
X90876525Y-86026933D01*
X90876546Y-86026890D01*
X91278706Y-85522693D01*
X91278741Y-85522666D01*
X91278769Y-85522613D01*
X91278805Y-85522570D01*
X91278816Y-85522530D01*
X91621786Y-84905878D01*
X91621880Y-84905930D01*
X91621973Y-84905746D01*
X91621873Y-84905702D01*
X91902843Y-84262913D01*
X91903288Y-84263107D01*
X91903374Y-84262888D01*
X91902915Y-84262730D01*
X92131638Y-83597779D01*
X92132703Y-83598145D01*
X92132782Y-83597887D01*
X92131695Y-83597591D01*
X92317910Y-82914479D01*
X92319296Y-82914857D01*
X92319359Y-82914596D01*
X92317957Y-82914288D01*
X92471405Y-82217007D01*
X92473254Y-82217414D01*
X92473306Y-82217156D01*
X92471444Y-82216813D01*
X92601864Y-81509360D01*
X92603394Y-81509642D01*
X92603424Y-81509415D01*
X92601897Y-81509165D01*
X92719028Y-80795539D01*
X92721327Y-80795916D01*
X92721329Y-80795904D01*
X92719029Y-80795538D01*
X92719054Y-80795381D01*
X92721365Y-80795749D01*
X92721373Y-80795711D01*
X92719059Y-80795344D01*
X92832570Y-80079986D01*
X92832747Y-80078905D01*
X92952235Y-79366611D01*
X92952720Y-79363908D01*
X93087768Y-78659155D01*
X93088722Y-78654634D01*
X93248892Y-77961459D01*
X93250518Y-77955185D01*
X93445979Y-77275194D01*
X93446986Y-77271871D01*
X93474602Y-77185095D01*
X93680070Y-76539452D01*
X93682564Y-76540245D01*
X93682568Y-76540235D01*
X93680069Y-76539449D01*
X93911720Y-75802994D01*
X93911748Y-75803002D01*
X93911779Y-75802803D01*
X93926235Y-75757102D01*
X94144764Y-75066231D01*
X94144890Y-75065836D01*
X94382708Y-74330758D01*
X94383045Y-74329739D01*
X94628915Y-73598601D01*
X94629577Y-73596687D01*
X94886910Y-72871290D01*
X94887759Y-72868976D01*
X95160034Y-72150928D01*
X95161201Y-72147967D01*
X95451717Y-71439320D01*
X95453221Y-71435809D01*
X95765391Y-70738310D01*
X95767304Y-70734239D01*
X96104457Y-70049795D01*
X96106850Y-70045186D01*
X96153982Y-69958843D01*
X96472904Y-69374595D01*
X96474591Y-69371607D01*
X96852518Y-68723987D01*
X96853324Y-68722629D01*
X97243004Y-68076325D01*
X97244075Y-68074584D01*
X97646527Y-67433514D01*
X97647941Y-67431315D01*
X98064620Y-66798625D01*
X98066327Y-66796105D01*
X98498771Y-66174799D01*
X98500841Y-66171916D01*
X98950577Y-65565007D01*
X98953051Y-65561784D01*
X99421484Y-64972435D01*
X99424459Y-64968835D01*
X99913110Y-64400033D01*
X99916607Y-64396134D01*
X100426943Y-63850924D01*
X100431016Y-63846774D01*
X100964578Y-63328103D01*
X100969268Y-63323774D01*
X101527519Y-62834667D01*
X101532877Y-62830234D01*
X102118064Y-62373086D01*
X102122546Y-62369745D01*
X102701376Y-61958238D01*
X102704518Y-61956079D01*
X103299357Y-61560347D01*
X103302535Y-61558301D01*
X103911781Y-61179655D01*
X103915020Y-61177711D01*
X104537562Y-60817094D01*
X104540881Y-60815239D01*
X105175773Y-60473492D01*
X105179191Y-60471721D01*
X105825401Y-60149728D01*
X105828876Y-60148064D01*
X106485495Y-59846649D01*
X106489100Y-59845064D01*
X107155024Y-59565144D01*
X107158761Y-59563645D01*
X107833056Y-59306055D01*
X107836910Y-59304657D01*
X108518519Y-59070277D01*
X108522526Y-59068977D01*
X109210464Y-58858662D01*
X109214590Y-58857480D01*
X109907977Y-58672052D01*
X109912310Y-58670978D01*
X110609962Y-58511345D01*
X110614453Y-58510406D01*
X111315501Y-58377389D01*
X111320196Y-58376591D01*
X112023589Y-58271051D01*
X112028459Y-58270419D01*
X112733059Y-58193216D01*
X112738471Y-58192744D01*
X113472603Y-58145035D01*
X113478279Y-58144798D01*
X114215893Y-58131226D01*
X114221357Y-58131247D01*
G37*
%TD.AperFunction*%
M02*
