%TF.GenerationSoftware,KiCad,Pcbnew,(7.0.0-0)*%
%TF.CreationDate,2023-07-23T12:34:26-06:00*%
%TF.ProjectId,HAS4_SAO,48415334-5f53-4414-9f2e-6b696361645f,rev?*%
%TF.SameCoordinates,Original*%
%TF.FileFunction,Copper,L1,Top*%
%TF.FilePolarity,Positive*%
%FSLAX46Y46*%
G04 Gerber Fmt 4.6, Leading zero omitted, Abs format (unit mm)*
G04 Created by KiCad (PCBNEW (7.0.0-0)) date 2023-07-23 12:34:26*
%MOMM*%
%LPD*%
G01*
G04 APERTURE LIST*
G04 Aperture macros list*
%AMRoundRect*
0 Rectangle with rounded corners*
0 $1 Rounding radius*
0 $2 $3 $4 $5 $6 $7 $8 $9 X,Y pos of 4 corners*
0 Add a 4 corners polygon primitive as box body*
4,1,4,$2,$3,$4,$5,$6,$7,$8,$9,$2,$3,0*
0 Add four circle primitives for the rounded corners*
1,1,$1+$1,$2,$3*
1,1,$1+$1,$4,$5*
1,1,$1+$1,$6,$7*
1,1,$1+$1,$8,$9*
0 Add four rect primitives between the rounded corners*
20,1,$1+$1,$2,$3,$4,$5,0*
20,1,$1+$1,$4,$5,$6,$7,0*
20,1,$1+$1,$6,$7,$8,$9,0*
20,1,$1+$1,$8,$9,$2,$3,0*%
G04 Aperture macros list end*
%TA.AperFunction,SMDPad,CuDef*%
%ADD10RoundRect,0.243750X-0.456250X0.243750X-0.456250X-0.243750X0.456250X-0.243750X0.456250X0.243750X0*%
%TD*%
%TA.AperFunction,ComponentPad*%
%ADD11R,1.700000X1.700000*%
%TD*%
%TA.AperFunction,ComponentPad*%
%ADD12O,1.700000X1.700000*%
%TD*%
%TA.AperFunction,ViaPad*%
%ADD13C,0.800000*%
%TD*%
%TA.AperFunction,Conductor*%
%ADD14C,0.250000*%
%TD*%
G04 APERTURE END LIST*
D10*
%TO.P,D1,1,K*%
%TO.N,GND*%
X118291474Y-73416089D03*
%TO.P,D1,2,A*%
%TO.N,Net-(D1-A)*%
X118291474Y-75291089D03*
%TD*%
%TO.P,D2,1,K*%
%TO.N,GND*%
X105202757Y-74613143D03*
%TO.P,D2,2,A*%
%TO.N,Net-(D2-A)*%
X105202757Y-76488143D03*
%TD*%
D11*
%TO.P,J1,1,Pin_1*%
%TO.N,Net-(J1-Pin_1)*%
X108919999Y-134999999D03*
D12*
%TO.P,J1,2,Pin_2*%
%TO.N,GND*%
X108919999Y-137539999D03*
%TO.P,J1,3,Pin_3*%
%TO.N,unconnected-(J1-Pin_3-Pad3)*%
X111459999Y-134999999D03*
%TO.P,J1,4,Pin_4*%
%TO.N,unconnected-(J1-Pin_4-Pad4)*%
X111459999Y-137539999D03*
%TO.P,J1,5,Pin_5*%
%TO.N,unconnected-(J1-Pin_5-Pad5)*%
X113999999Y-134999999D03*
%TO.P,J1,6,Pin_6*%
%TO.N,unconnected-(J1-Pin_6-Pad6)*%
X113999999Y-137539999D03*
%TD*%
D13*
%TO.N,GND*%
X118291474Y-73416089D03*
%TO.N,Net-(D1-A)*%
X118303518Y-75580323D03*
%TO.N,Net-(D2-A)*%
X105216287Y-76770632D03*
%TD*%
D14*
%TO.N,GND*%
X105202757Y-74613143D02*
X106399811Y-73416089D01*
X106399811Y-73416089D02*
X118291474Y-73416089D01*
%TO.N,Net-(D1-A)*%
X118291474Y-75568279D02*
X118303518Y-75580323D01*
X118291474Y-75291089D02*
X118291474Y-75568279D01*
%TO.N,Net-(D2-A)*%
X105202757Y-76488143D02*
X105202757Y-76757102D01*
X105202757Y-76757102D02*
X105216287Y-76770632D01*
%TD*%
%TA.AperFunction,NonConductor*%
G36*
X114221357Y-58131247D02*
G01*
X114961252Y-58150662D01*
X114966542Y-58150914D01*
X115707378Y-58202178D01*
X115712452Y-58202634D01*
X116452823Y-58284607D01*
X116457613Y-58285234D01*
X117196092Y-58396773D01*
X117200698Y-58397559D01*
X117935887Y-58537523D01*
X117940309Y-58538449D01*
X118668540Y-58705176D01*
X118670711Y-58705673D01*
X118675016Y-58706740D01*
X119399316Y-58900091D01*
X119403399Y-58901258D01*
X120120027Y-59119543D01*
X120124032Y-59120838D01*
X120310273Y-59184551D01*
X120831710Y-59362936D01*
X120835533Y-59364315D01*
X121532809Y-59629059D01*
X121536520Y-59630537D01*
X122049979Y-59844945D01*
X122221953Y-59916757D01*
X122225622Y-59918360D01*
X122897148Y-60224593D01*
X122901853Y-60226859D01*
X123566899Y-60564667D01*
X123572553Y-60567726D01*
X124002844Y-60815311D01*
X124222869Y-60941911D01*
X124228443Y-60945316D01*
X124860742Y-61354913D01*
X124866195Y-61358657D01*
X125476601Y-61802387D01*
X125481976Y-61806526D01*
X126066618Y-62283093D01*
X126071977Y-62287725D01*
X126165227Y-62373091D01*
X126626945Y-62795775D01*
X126632272Y-62800953D01*
X127153810Y-63339250D01*
X127159058Y-63345020D01*
X127643326Y-63912234D01*
X127648454Y-63918660D01*
X128091693Y-64513526D01*
X128096593Y-64520601D01*
X128485748Y-65126479D01*
X128489968Y-65133557D01*
X128838916Y-65765565D01*
X128842374Y-65772306D01*
X129153412Y-66427262D01*
X129156206Y-66433596D01*
X129431521Y-67108105D01*
X129433751Y-67113991D01*
X129675577Y-67804727D01*
X129677337Y-67810151D01*
X129887866Y-68513656D01*
X129889239Y-68518617D01*
X130070691Y-69231449D01*
X130071750Y-69235959D01*
X130226384Y-69954766D01*
X130227189Y-69958843D01*
X130357227Y-70680087D01*
X130357831Y-70683751D01*
X130465230Y-71401975D01*
X130466116Y-71409433D01*
X130528631Y-72119143D01*
X130529107Y-72129285D01*
X130533338Y-72840423D01*
X130533134Y-72848304D01*
X130491891Y-73563099D01*
X130491444Y-73568666D01*
X130417433Y-74286931D01*
X130417048Y-74290231D01*
X130323131Y-75011557D01*
X130322985Y-75012639D01*
X130222222Y-75736098D01*
X130220728Y-75735890D01*
X130220725Y-75735901D01*
X130222222Y-75736102D01*
X130222211Y-75736184D01*
X130222196Y-75736294D01*
X130220662Y-75736084D01*
X130220659Y-75736095D01*
X130222196Y-75736296D01*
X130127802Y-76460557D01*
X130126442Y-76460379D01*
X130126440Y-76460412D01*
X130127800Y-76460562D01*
X130127792Y-76460635D01*
X130127778Y-76460746D01*
X130126426Y-76460575D01*
X130126423Y-76460612D01*
X130127780Y-76460753D01*
X130052907Y-77185086D01*
X130052190Y-77185011D01*
X130052187Y-77185079D01*
X130052901Y-77185153D01*
X130052889Y-77185270D01*
X130052181Y-77185197D01*
X130052179Y-77185241D01*
X130052893Y-77185283D01*
X130010627Y-77909426D01*
X130009867Y-77909381D01*
X130009865Y-77909440D01*
X130010622Y-77909440D01*
X130010622Y-77909515D01*
X130010617Y-77909607D01*
X130009861Y-77909565D01*
X130009860Y-77909627D01*
X130010622Y-77909624D01*
X130014051Y-78633300D01*
X130012653Y-78633306D01*
X130012653Y-78633338D01*
X130014049Y-78633306D01*
X130014051Y-78633392D01*
X130014052Y-78633491D01*
X130012655Y-78633505D01*
X130012655Y-78633537D01*
X130014054Y-78633497D01*
X130034292Y-79323761D01*
X130034329Y-79325423D01*
X130045466Y-80025458D01*
X130045312Y-80025460D01*
X130045312Y-80025464D01*
X130045466Y-80025461D01*
X130059991Y-80730604D01*
X130058410Y-80730636D01*
X130058411Y-80730676D01*
X130059989Y-80730610D01*
X130059993Y-80730705D01*
X130059995Y-80730797D01*
X130058416Y-80730831D01*
X130058417Y-80730870D01*
X130059997Y-80730802D01*
X130090381Y-81434247D01*
X130089132Y-81434300D01*
X130089136Y-81434354D01*
X130090378Y-81434260D01*
X130090386Y-81434365D01*
X130090390Y-81434437D01*
X130089148Y-81434505D01*
X130089152Y-81434548D01*
X130090393Y-81434444D01*
X130149128Y-82130740D01*
X130147938Y-82130840D01*
X130147948Y-82130914D01*
X130149125Y-82130755D01*
X130149136Y-82130836D01*
X130149144Y-82130921D01*
X130147964Y-82131032D01*
X130147973Y-82131105D01*
X130149151Y-82130934D01*
X130248725Y-82814415D01*
X130247954Y-82814527D01*
X130247969Y-82814603D01*
X130248722Y-82814437D01*
X130248739Y-82814514D01*
X130248751Y-82814591D01*
X130247990Y-82814709D01*
X130248004Y-82814781D01*
X130248761Y-82814608D01*
X130399814Y-83471578D01*
X130399815Y-83471582D01*
X130401663Y-83479618D01*
X130401488Y-83479658D01*
X130401499Y-83479698D01*
X130401662Y-83479644D01*
X130401685Y-83479712D01*
X130401702Y-83479785D01*
X130401535Y-83479823D01*
X130401547Y-83479864D01*
X130401717Y-83479807D01*
X130405171Y-83489927D01*
X130405171Y-83489928D01*
X130617189Y-84111167D01*
X130617190Y-84111168D01*
X130620438Y-84120685D01*
X130620441Y-84120719D01*
X130620472Y-84120783D01*
X130620493Y-84120844D01*
X130620512Y-84120866D01*
X130917547Y-84731970D01*
X130917560Y-84732019D01*
X130917592Y-84732063D01*
X130917615Y-84732109D01*
X130917649Y-84732139D01*
X130923096Y-84739500D01*
X130923097Y-84739501D01*
X131046219Y-84905878D01*
X131304766Y-85255255D01*
X131304788Y-85255301D01*
X131304824Y-85255333D01*
X131304854Y-85255374D01*
X131304898Y-85255400D01*
X131314375Y-85263970D01*
X131314377Y-85263973D01*
X131611932Y-85533067D01*
X131790807Y-85694833D01*
X131790827Y-85694863D01*
X131790882Y-85694900D01*
X131790929Y-85694943D01*
X131790960Y-85694954D01*
X132276934Y-86027031D01*
X132346943Y-86074870D01*
X132346591Y-86075383D01*
X132346799Y-86075512D01*
X132347109Y-86074975D01*
X132944455Y-86419551D01*
X132944423Y-86419604D01*
X132944432Y-86419607D01*
X132944460Y-86419557D01*
X132944559Y-86419611D01*
X132944623Y-86419648D01*
X132944620Y-86419653D01*
X132944649Y-86419660D01*
X133395005Y-86665809D01*
X133553203Y-86752275D01*
X133556203Y-86753969D01*
X134144474Y-87097058D01*
X134153004Y-87102511D01*
X134690973Y-87478233D01*
X134704666Y-87489324D01*
X135164790Y-87919594D01*
X135181468Y-87938752D01*
X135284258Y-88084666D01*
X135492317Y-88380014D01*
X135540987Y-88449102D01*
X135552743Y-88469740D01*
X135823336Y-89072646D01*
X135829062Y-89088068D01*
X136020448Y-89731517D01*
X136023739Y-89745503D01*
X136141113Y-90416506D01*
X136142645Y-90428928D01*
X136192373Y-91116592D01*
X136192679Y-91127575D01*
X136181281Y-91820748D01*
X136180733Y-91830530D01*
X136114892Y-92518028D01*
X136113719Y-92526895D01*
X136001037Y-93192835D01*
X135996776Y-93210250D01*
X135806599Y-93799212D01*
X135797794Y-93819865D01*
X135496935Y-94378996D01*
X135488998Y-94391812D01*
X135105974Y-94933713D01*
X135100840Y-94940474D01*
X134667804Y-95471865D01*
X134666078Y-95473936D01*
X134217020Y-96001152D01*
X134217018Y-96001150D01*
X134217015Y-96001156D01*
X134216956Y-96001227D01*
X134215183Y-95999753D01*
X134215098Y-95999844D01*
X134216894Y-96001304D01*
X133786955Y-96530384D01*
X133786355Y-96529896D01*
X133786313Y-96529952D01*
X133786938Y-96530396D01*
X133786884Y-96530472D01*
X133786841Y-96530526D01*
X133786241Y-96530048D01*
X133786204Y-96530099D01*
X133786836Y-96530541D01*
X133415817Y-97060795D01*
X133415816Y-97060797D01*
X133410821Y-97067937D01*
X133410817Y-97067942D01*
X133410757Y-97068028D01*
X133410134Y-97068919D01*
X133410108Y-97068942D01*
X133410075Y-97069004D01*
X133410040Y-97069055D01*
X133410033Y-97069085D01*
X133405793Y-97077209D01*
X133405793Y-97077210D01*
X133123530Y-97618162D01*
X133123526Y-97618169D01*
X133119893Y-97625134D01*
X133119863Y-97625172D01*
X133119849Y-97625217D01*
X133119826Y-97625263D01*
X133119821Y-97625314D01*
X133117620Y-97632836D01*
X133117617Y-97632846D01*
X132953273Y-98194753D01*
X132953273Y-98194755D01*
X132949576Y-98207396D01*
X132949551Y-98207455D01*
X132949550Y-98207488D01*
X132949540Y-98207523D01*
X132949547Y-98207590D01*
X132949191Y-98220460D01*
X132949191Y-98220463D01*
X132943228Y-98436557D01*
X132932535Y-98824062D01*
X132932525Y-98824119D01*
X132932533Y-98824157D01*
X132932532Y-98824198D01*
X132932553Y-98824252D01*
X132934966Y-98835774D01*
X132934967Y-98835776D01*
X133055017Y-99408820D01*
X133055018Y-99408825D01*
X133056624Y-99416488D01*
X133056624Y-99416537D01*
X133056644Y-99416587D01*
X133056655Y-99416636D01*
X133056680Y-99416673D01*
X133059629Y-99423791D01*
X133059632Y-99423798D01*
X133277491Y-99949500D01*
X133282446Y-99961456D01*
X133282454Y-99961498D01*
X133282484Y-99961547D01*
X133282507Y-99961601D01*
X133282536Y-99961630D01*
X133596382Y-100465562D01*
X133596392Y-100465594D01*
X133596432Y-100465642D01*
X133596468Y-100465700D01*
X133596496Y-100465720D01*
X133600259Y-100470271D01*
X133600263Y-100470277D01*
X133819173Y-100735056D01*
X133949709Y-100892944D01*
X133984767Y-100935347D01*
X133984849Y-100935491D01*
X133984871Y-100935473D01*
X133984918Y-100935530D01*
X133984886Y-100935556D01*
X133984901Y-100935582D01*
X133984941Y-100935542D01*
X134434108Y-101377562D01*
X134433508Y-101378171D01*
X134433570Y-101378226D01*
X134434118Y-101377581D01*
X134434184Y-101377637D01*
X134434237Y-101377689D01*
X134433644Y-101378293D01*
X134433701Y-101378344D01*
X134434253Y-101377695D01*
X134930666Y-101798662D01*
X134929873Y-101799596D01*
X134930077Y-101799752D01*
X134930820Y-101798785D01*
X135460867Y-102205284D01*
X135460512Y-102205745D01*
X135460658Y-102205910D01*
X135461025Y-102205404D01*
X136011099Y-102604040D01*
X136010752Y-102604517D01*
X136010921Y-102604629D01*
X136011260Y-102604155D01*
X136567188Y-103001118D01*
X136568444Y-103002026D01*
X137115660Y-103403188D01*
X137118849Y-103405607D01*
X137643265Y-103817014D01*
X137648462Y-103821326D01*
X137869251Y-104014871D01*
X138136432Y-104249083D01*
X138143540Y-104255830D01*
X138551328Y-104674735D01*
X138581679Y-104705913D01*
X138590379Y-104715859D01*
X138965614Y-105194057D01*
X138975076Y-105207963D01*
X139274983Y-105720306D01*
X139283709Y-105738447D01*
X139497488Y-106294448D01*
X139502416Y-106310398D01*
X139663190Y-106989891D01*
X139665270Y-107000865D01*
X139767577Y-107715329D01*
X139768651Y-107726269D01*
X139807913Y-108458729D01*
X139808004Y-108470018D01*
X139780373Y-109205941D01*
X139779337Y-109217937D01*
X139681135Y-109942763D01*
X139678658Y-109955775D01*
X139506393Y-110655053D01*
X139501963Y-110669291D01*
X139252334Y-111328761D01*
X139245241Y-111344207D01*
X138915124Y-111949869D01*
X138904569Y-111966082D01*
X138570860Y-112400334D01*
X138492538Y-112502253D01*
X138473709Y-112521864D01*
X138028972Y-112893348D01*
X138003096Y-112909989D01*
X137486061Y-113157931D01*
X137464174Y-113165994D01*
X136882873Y-113319866D01*
X136867881Y-113322859D01*
X136237161Y-113408785D01*
X136228894Y-113409630D01*
X135565399Y-113455065D01*
X135563068Y-113455203D01*
X134885183Y-113488810D01*
X134885130Y-113487747D01*
X134885097Y-113487748D01*
X134885176Y-113488808D01*
X134885068Y-113488816D01*
X134884991Y-113488820D01*
X134884935Y-113487755D01*
X134884904Y-113487756D01*
X134884985Y-113488822D01*
X134211739Y-113539937D01*
X134211681Y-113539178D01*
X134211615Y-113539185D01*
X134211721Y-113539933D01*
X134211643Y-113539944D01*
X134211560Y-113539951D01*
X134211496Y-113539198D01*
X134211428Y-113539205D01*
X134211542Y-113539959D01*
X133570279Y-113636573D01*
X133570277Y-113636573D01*
X133563261Y-113637631D01*
X133563248Y-113637632D01*
X133560029Y-113638118D01*
X133560013Y-113638015D01*
X133559973Y-113638023D01*
X133559998Y-113638115D01*
X133559935Y-113638132D01*
X133559868Y-113638143D01*
X133559852Y-113638050D01*
X133559810Y-113638059D01*
X133559839Y-113638160D01*
X133557143Y-113638927D01*
X133557133Y-113638930D01*
X133550255Y-113640889D01*
X133550253Y-113640889D01*
X132954869Y-113810455D01*
X132954859Y-113810458D01*
X132946091Y-113812956D01*
X132946045Y-113812960D01*
X132946000Y-113812982D01*
X132945949Y-113812997D01*
X132945910Y-113813027D01*
X132937849Y-113817072D01*
X132937843Y-113817075D01*
X132393425Y-114090309D01*
X132393424Y-114090309D01*
X132385986Y-114094043D01*
X132385947Y-114094053D01*
X132385895Y-114094089D01*
X132385843Y-114094116D01*
X132385818Y-114094144D01*
X132379389Y-114098710D01*
X132379388Y-114098711D01*
X131823091Y-114493903D01*
X131822537Y-114493123D01*
X131822476Y-114493169D01*
X131823073Y-114493909D01*
X131823011Y-114493959D01*
X131822947Y-114494006D01*
X131822384Y-114493239D01*
X131822323Y-114493286D01*
X131822936Y-114494022D01*
X131288622Y-114939146D01*
X131288199Y-114938639D01*
X131288153Y-114938680D01*
X131288604Y-114939154D01*
X131288543Y-114939212D01*
X131288484Y-114939262D01*
X131288061Y-114938762D01*
X131288016Y-114938802D01*
X131288475Y-114939277D01*
X130784976Y-115425303D01*
X130784394Y-115424700D01*
X130784346Y-115424748D01*
X130784960Y-115425311D01*
X130784905Y-115425371D01*
X130784847Y-115425428D01*
X130784263Y-115424833D01*
X130784215Y-115424882D01*
X130784839Y-115425444D01*
X130314577Y-115947886D01*
X130313868Y-115947247D01*
X130313824Y-115947298D01*
X130314562Y-115947895D01*
X130314511Y-115947958D01*
X130314456Y-115948021D01*
X130313740Y-115947396D01*
X130313696Y-115947447D01*
X130314449Y-115948037D01*
X129879842Y-116502417D01*
X129879351Y-116502032D01*
X129879319Y-116502074D01*
X129879830Y-116502426D01*
X129879788Y-116502487D01*
X129879732Y-116502559D01*
X129879243Y-116502179D01*
X129879210Y-116502225D01*
X129879726Y-116502577D01*
X129483197Y-117084413D01*
X129482572Y-117083987D01*
X129482539Y-117084039D01*
X129483184Y-117084424D01*
X129483141Y-117084496D01*
X129483096Y-117084563D01*
X129482473Y-117084144D01*
X129482441Y-117084195D01*
X129483092Y-117084579D01*
X129127059Y-117689395D01*
X129126517Y-117689076D01*
X129126491Y-117689125D01*
X129127047Y-117689407D01*
X129127010Y-117689480D01*
X129126968Y-117689552D01*
X129126431Y-117689238D01*
X129126405Y-117689287D01*
X129126965Y-117689569D01*
X128813849Y-118312880D01*
X128813062Y-118312484D01*
X128813033Y-118312546D01*
X128813836Y-118312894D01*
X128813800Y-118312977D01*
X128813768Y-118313043D01*
X128812980Y-118312661D01*
X128812954Y-118312717D01*
X128813766Y-118313058D01*
X128545987Y-118950388D01*
X128545243Y-118950075D01*
X128545218Y-118950139D01*
X128545974Y-118950404D01*
X128545945Y-118950487D01*
X128545917Y-118950556D01*
X128545174Y-118950254D01*
X128545151Y-118950314D01*
X128545916Y-118950573D01*
X128314868Y-119634709D01*
X128314002Y-119634416D01*
X128313980Y-119634491D01*
X128314856Y-119634726D01*
X128314833Y-119634812D01*
X128314810Y-119634882D01*
X128313949Y-119634599D01*
X128313929Y-119634668D01*
X128314811Y-119634898D01*
X128134158Y-120329035D01*
X128133419Y-120328842D01*
X128133406Y-120328902D01*
X128134150Y-120329049D01*
X128134135Y-120329125D01*
X128134113Y-120329211D01*
X128133380Y-120329023D01*
X128133367Y-120329084D01*
X128134115Y-120329228D01*
X127998680Y-121032397D01*
X127997587Y-121032186D01*
X127997576Y-121032253D01*
X127998674Y-121032408D01*
X127998664Y-121032479D01*
X127998646Y-121032575D01*
X127997557Y-121032370D01*
X127997546Y-121032443D01*
X127998649Y-121032591D01*
X127903254Y-121743826D01*
X127901948Y-121743650D01*
X127901941Y-121743712D01*
X127903249Y-121743837D01*
X127903241Y-121743921D01*
X127903230Y-121744010D01*
X127901928Y-121743849D01*
X127901921Y-121743911D01*
X127903233Y-121744022D01*
X127842698Y-122462367D01*
X127841832Y-122462294D01*
X127841829Y-122462337D01*
X127842695Y-122462375D01*
X127842692Y-122462444D01*
X127842683Y-122462552D01*
X127841820Y-122462480D01*
X127841818Y-122462527D01*
X127842686Y-122462564D01*
X127811833Y-123187047D01*
X127810461Y-123186988D01*
X127810460Y-123187038D01*
X127811830Y-123187055D01*
X127811829Y-123187136D01*
X127811825Y-123187237D01*
X127810457Y-123187182D01*
X127810456Y-123187234D01*
X127811828Y-123187246D01*
X127805476Y-123916909D01*
X127803987Y-123916896D01*
X127803988Y-123916931D01*
X127805474Y-123916916D01*
X127805475Y-123917014D01*
X127805475Y-123917101D01*
X127803993Y-123917101D01*
X127803994Y-123917132D01*
X127805477Y-123917106D01*
X127818450Y-124650986D01*
X127817146Y-124651009D01*
X127817149Y-124651036D01*
X127818449Y-124650991D01*
X127818452Y-124651077D01*
X127818454Y-124651180D01*
X127817162Y-124651205D01*
X127817164Y-124651231D01*
X127818456Y-124651184D01*
X127845572Y-125388315D01*
X127845049Y-125388334D01*
X127845050Y-125388339D01*
X127845572Y-125388318D01*
X127845575Y-125388392D01*
X127845579Y-125388514D01*
X127845581Y-125388514D01*
X127881663Y-126127930D01*
X127880977Y-126127963D01*
X127880978Y-126127968D01*
X127881663Y-126127932D01*
X127921555Y-126869069D01*
X127921567Y-126869305D01*
X127960004Y-127609609D01*
X127960056Y-127610699D01*
X127991911Y-128349923D01*
X127991980Y-128351880D01*
X128012083Y-129088682D01*
X128012128Y-129091520D01*
X128015346Y-129824841D01*
X128015306Y-129828577D01*
X127996539Y-130557435D01*
X127996332Y-130562084D01*
X127950488Y-131285640D01*
X127950009Y-131291203D01*
X127872027Y-132008383D01*
X127871154Y-132014835D01*
X127755664Y-132726750D01*
X127755070Y-132730115D01*
X127733877Y-132841281D01*
X127615807Y-133460606D01*
X127615806Y-133460613D01*
X127474199Y-134197574D01*
X127474033Y-134198423D01*
X127326708Y-134937265D01*
X127326396Y-134938782D01*
X127169601Y-135676939D01*
X127169116Y-135679123D01*
X126999196Y-136413592D01*
X126998499Y-136416450D01*
X126811723Y-137144662D01*
X126810760Y-137148200D01*
X126603462Y-137867349D01*
X126602162Y-137871572D01*
X126370724Y-138578752D01*
X126369005Y-138583655D01*
X126109734Y-139276283D01*
X126107498Y-139281845D01*
X125816784Y-139957118D01*
X125813923Y-139963291D01*
X125488137Y-140618528D01*
X125484543Y-140625232D01*
X125120047Y-141257786D01*
X125115627Y-141264889D01*
X124708360Y-141872752D01*
X124703995Y-141878858D01*
X124278559Y-142437376D01*
X124274678Y-142442215D01*
X123816472Y-142985118D01*
X123812287Y-142989829D01*
X123323603Y-143512491D01*
X123319058Y-143517104D01*
X122801903Y-144015322D01*
X122796933Y-144019857D01*
X122253191Y-144489572D01*
X122247722Y-144494030D01*
X121679429Y-144931071D01*
X121673384Y-144935438D01*
X121082448Y-145335766D01*
X121075743Y-145340002D01*
X120464144Y-145699543D01*
X120456696Y-145703585D01*
X119826425Y-146018291D01*
X119818162Y-146022046D01*
X119171115Y-146287938D01*
X119161986Y-146291277D01*
X118500129Y-146504367D01*
X118490137Y-146507129D01*
X117796238Y-146668033D01*
X117786355Y-146669906D01*
X117078613Y-146774489D01*
X117069361Y-146775503D01*
X116350978Y-146827049D01*
X116342402Y-146827367D01*
X115616882Y-146829117D01*
X115608982Y-146828884D01*
X114879855Y-146784104D01*
X114872596Y-146783443D01*
X114143398Y-146695424D01*
X114136727Y-146694434D01*
X113411017Y-146566482D01*
X113404872Y-146565238D01*
X112686247Y-146400697D01*
X112680560Y-146399252D01*
X111972571Y-146201471D01*
X111967274Y-146199863D01*
X111273517Y-145972218D01*
X111268541Y-145970468D01*
X110593931Y-145716851D01*
X110586498Y-145713777D01*
X109944263Y-145423516D01*
X109935195Y-145418963D01*
X109318978Y-145077237D01*
X109311356Y-145072645D01*
X109079579Y-144921417D01*
X108717785Y-144685357D01*
X108711538Y-144681001D01*
X108138788Y-144254799D01*
X108133749Y-144250843D01*
X107852963Y-144018397D01*
X107580059Y-143792475D01*
X107576091Y-143789046D01*
X107039635Y-143305271D01*
X107036610Y-143302451D01*
X106515533Y-142800043D01*
X106513350Y-142797885D01*
X106005844Y-142283717D01*
X106004478Y-142282310D01*
X105509576Y-141764183D01*
X105507126Y-141761538D01*
X105028536Y-141229360D01*
X105024823Y-141225035D01*
X104571364Y-140671589D01*
X104568207Y-140667570D01*
X104136924Y-140094569D01*
X104134273Y-140090910D01*
X103723198Y-139501203D01*
X103720997Y-139497936D01*
X103478879Y-139125953D01*
X103328083Y-138894275D01*
X103326294Y-138891443D01*
X103316544Y-138875534D01*
X102949518Y-138276630D01*
X102948073Y-138274210D01*
X102874340Y-138147518D01*
X102585430Y-137651099D01*
X102584366Y-137649233D01*
X102523450Y-137540000D01*
X107564341Y-137540000D01*
X107564813Y-137545395D01*
X107574014Y-137650567D01*
X107584937Y-137775408D01*
X107586336Y-137780630D01*
X107586337Y-137780634D01*
X107644694Y-137998430D01*
X107644697Y-137998438D01*
X107646097Y-138003663D01*
X107648385Y-138008570D01*
X107648386Y-138008572D01*
X107743678Y-138212927D01*
X107743681Y-138212933D01*
X107745965Y-138217830D01*
X107749064Y-138222257D01*
X107749066Y-138222259D01*
X107878399Y-138406966D01*
X107878402Y-138406970D01*
X107881505Y-138411401D01*
X108048599Y-138578495D01*
X108242170Y-138714035D01*
X108456337Y-138813903D01*
X108684592Y-138875063D01*
X108920000Y-138895659D01*
X109155408Y-138875063D01*
X109383663Y-138813903D01*
X109597830Y-138714035D01*
X109791401Y-138578495D01*
X109958495Y-138411401D01*
X110088426Y-138225839D01*
X110132742Y-138186976D01*
X110189999Y-138172965D01*
X110247256Y-138186976D01*
X110291574Y-138225841D01*
X110418399Y-138406966D01*
X110418402Y-138406970D01*
X110421505Y-138411401D01*
X110588599Y-138578495D01*
X110782170Y-138714035D01*
X110996337Y-138813903D01*
X111224592Y-138875063D01*
X111460000Y-138895659D01*
X111695408Y-138875063D01*
X111923663Y-138813903D01*
X112137830Y-138714035D01*
X112331401Y-138578495D01*
X112498495Y-138411401D01*
X112628426Y-138225839D01*
X112672742Y-138186976D01*
X112729999Y-138172965D01*
X112787256Y-138186976D01*
X112831574Y-138225841D01*
X112958399Y-138406966D01*
X112958402Y-138406970D01*
X112961505Y-138411401D01*
X113128599Y-138578495D01*
X113322170Y-138714035D01*
X113536337Y-138813903D01*
X113764592Y-138875063D01*
X114000000Y-138895659D01*
X114235408Y-138875063D01*
X114463663Y-138813903D01*
X114677830Y-138714035D01*
X114871401Y-138578495D01*
X115038495Y-138411401D01*
X115174035Y-138217830D01*
X115273903Y-138003663D01*
X115335063Y-137775408D01*
X115355659Y-137540000D01*
X115335063Y-137304592D01*
X115273903Y-137076337D01*
X115174035Y-136862171D01*
X115038495Y-136668599D01*
X114871401Y-136501505D01*
X114866968Y-136498401D01*
X114866961Y-136498395D01*
X114685842Y-136371575D01*
X114646976Y-136327257D01*
X114632965Y-136270000D01*
X114646976Y-136212743D01*
X114685842Y-136168425D01*
X114866961Y-136041604D01*
X114866961Y-136041603D01*
X114871401Y-136038495D01*
X115038495Y-135871401D01*
X115174035Y-135677830D01*
X115273903Y-135463663D01*
X115335063Y-135235408D01*
X115355659Y-135000000D01*
X115335063Y-134764592D01*
X115273903Y-134536337D01*
X115174035Y-134322171D01*
X115038495Y-134128599D01*
X114871401Y-133961505D01*
X114866970Y-133958402D01*
X114866966Y-133958399D01*
X114682259Y-133829066D01*
X114682257Y-133829064D01*
X114677830Y-133825965D01*
X114672933Y-133823681D01*
X114672927Y-133823678D01*
X114468572Y-133728386D01*
X114468570Y-133728385D01*
X114463663Y-133726097D01*
X114458438Y-133724697D01*
X114458430Y-133724694D01*
X114240634Y-133666337D01*
X114240630Y-133666336D01*
X114235408Y-133664937D01*
X114230020Y-133664465D01*
X114230017Y-133664465D01*
X114005395Y-133644813D01*
X114000000Y-133644341D01*
X113994605Y-133644813D01*
X113769982Y-133664465D01*
X113769977Y-133664465D01*
X113764592Y-133664937D01*
X113759371Y-133666335D01*
X113759365Y-133666337D01*
X113541569Y-133724694D01*
X113541557Y-133724698D01*
X113536337Y-133726097D01*
X113531432Y-133728383D01*
X113531427Y-133728386D01*
X113327081Y-133823675D01*
X113327077Y-133823677D01*
X113322171Y-133825965D01*
X113317738Y-133829068D01*
X113317731Y-133829073D01*
X113133034Y-133958399D01*
X113133029Y-133958402D01*
X113128599Y-133961505D01*
X113124775Y-133965328D01*
X113124769Y-133965334D01*
X112965334Y-134124769D01*
X112965328Y-134124775D01*
X112961505Y-134128599D01*
X112958403Y-134133028D01*
X112958403Y-134133029D01*
X112831574Y-134314160D01*
X112787256Y-134353025D01*
X112729999Y-134367036D01*
X112672742Y-134353025D01*
X112628426Y-134314161D01*
X112498495Y-134128599D01*
X112331401Y-133961505D01*
X112326970Y-133958402D01*
X112326966Y-133958399D01*
X112142259Y-133829066D01*
X112142257Y-133829064D01*
X112137830Y-133825965D01*
X112132933Y-133823681D01*
X112132927Y-133823678D01*
X111928572Y-133728386D01*
X111928570Y-133728385D01*
X111923663Y-133726097D01*
X111918438Y-133724697D01*
X111918430Y-133724694D01*
X111700634Y-133666337D01*
X111700630Y-133666336D01*
X111695408Y-133664937D01*
X111690020Y-133664465D01*
X111690017Y-133664465D01*
X111465395Y-133644813D01*
X111460000Y-133644341D01*
X111454605Y-133644813D01*
X111229982Y-133664465D01*
X111229977Y-133664465D01*
X111224592Y-133664937D01*
X111219371Y-133666335D01*
X111219365Y-133666337D01*
X111001569Y-133724694D01*
X111001557Y-133724698D01*
X110996337Y-133726097D01*
X110991432Y-133728383D01*
X110991427Y-133728386D01*
X110787081Y-133823675D01*
X110787077Y-133823677D01*
X110782171Y-133825965D01*
X110777738Y-133829068D01*
X110777731Y-133829073D01*
X110593034Y-133958399D01*
X110593029Y-133958402D01*
X110588599Y-133961505D01*
X110584774Y-133965329D01*
X110584775Y-133965329D01*
X110466673Y-134083431D01*
X110413926Y-134114726D01*
X110352633Y-134116915D01*
X110297789Y-134089462D01*
X110262810Y-134039082D01*
X110235304Y-133965336D01*
X110213796Y-133907669D01*
X110127546Y-133792454D01*
X110037030Y-133724694D01*
X110019431Y-133711519D01*
X110019430Y-133711518D01*
X110012331Y-133706204D01*
X109905442Y-133666337D01*
X109884752Y-133658620D01*
X109884750Y-133658619D01*
X109877483Y-133655909D01*
X109869770Y-133655079D01*
X109869767Y-133655079D01*
X109821180Y-133649855D01*
X109821169Y-133649854D01*
X109817873Y-133649500D01*
X109814550Y-133649500D01*
X108025439Y-133649500D01*
X108025420Y-133649500D01*
X108022128Y-133649501D01*
X108018850Y-133649853D01*
X108018838Y-133649854D01*
X107970231Y-133655079D01*
X107970225Y-133655080D01*
X107962517Y-133655909D01*
X107955252Y-133658618D01*
X107955246Y-133658620D01*
X107835980Y-133703104D01*
X107835978Y-133703104D01*
X107827669Y-133706204D01*
X107820572Y-133711516D01*
X107820568Y-133711519D01*
X107719550Y-133787141D01*
X107719546Y-133787144D01*
X107712454Y-133792454D01*
X107707144Y-133799546D01*
X107707141Y-133799550D01*
X107631519Y-133900568D01*
X107631516Y-133900572D01*
X107626204Y-133907669D01*
X107623104Y-133915978D01*
X107623104Y-133915980D01*
X107578620Y-134035247D01*
X107578619Y-134035250D01*
X107575909Y-134042517D01*
X107575079Y-134050227D01*
X107575079Y-134050232D01*
X107569855Y-134098819D01*
X107569854Y-134098831D01*
X107569500Y-134102127D01*
X107569500Y-134105448D01*
X107569500Y-134105449D01*
X107569500Y-135894560D01*
X107569500Y-135894578D01*
X107569501Y-135897872D01*
X107569853Y-135901150D01*
X107569854Y-135901161D01*
X107575079Y-135949768D01*
X107575080Y-135949773D01*
X107575909Y-135957483D01*
X107578619Y-135964749D01*
X107578620Y-135964753D01*
X107604695Y-136034663D01*
X107626204Y-136092331D01*
X107631518Y-136099430D01*
X107631519Y-136099431D01*
X107687367Y-136174035D01*
X107712454Y-136207546D01*
X107827669Y-136293796D01*
X107917383Y-136327257D01*
X107959082Y-136342810D01*
X108009462Y-136377789D01*
X108036915Y-136432633D01*
X108034726Y-136493926D01*
X108003430Y-136546673D01*
X107881505Y-136668599D01*
X107878402Y-136673029D01*
X107878399Y-136673034D01*
X107749073Y-136857731D01*
X107749068Y-136857738D01*
X107745965Y-136862171D01*
X107743677Y-136867077D01*
X107743675Y-136867081D01*
X107648386Y-137071427D01*
X107648383Y-137071432D01*
X107646097Y-137076337D01*
X107644698Y-137081557D01*
X107644694Y-137081569D01*
X107586337Y-137299365D01*
X107586335Y-137299371D01*
X107584937Y-137304592D01*
X107564341Y-137540000D01*
X102523450Y-137540000D01*
X102233848Y-137020689D01*
X102232916Y-137018988D01*
X101870878Y-136345226D01*
X101869807Y-136343187D01*
X101711339Y-136034663D01*
X101519763Y-135661682D01*
X101518538Y-135659228D01*
X101198734Y-135000000D01*
X101184079Y-134969791D01*
X101182651Y-134966743D01*
X100867355Y-134269192D01*
X100865817Y-134265640D01*
X100837957Y-134198423D01*
X100573254Y-133559778D01*
X100571617Y-133555618D01*
X100536205Y-133460613D01*
X100305350Y-132841268D01*
X100303687Y-132836510D01*
X100067271Y-132113494D01*
X100065657Y-132108152D01*
X99862652Y-131376350D01*
X99861089Y-131370083D01*
X99842340Y-131285640D01*
X99706002Y-130671602D01*
X99704807Y-130665492D01*
X99585160Y-129959437D01*
X99584393Y-129954240D01*
X99494862Y-129241624D01*
X99494402Y-129237366D01*
X99429730Y-128519655D01*
X99429473Y-128516266D01*
X99419144Y-128351027D01*
X99384390Y-127795070D01*
X99384261Y-127792625D01*
X99376497Y-127610318D01*
X99353449Y-127069172D01*
X99353395Y-127067666D01*
X99331522Y-126343044D01*
X99331521Y-126343043D01*
X99331508Y-126342543D01*
X99326093Y-126127930D01*
X99313312Y-125621429D01*
X99313276Y-125617691D01*
X99317212Y-124898290D01*
X99317404Y-124892069D01*
X99357900Y-124172063D01*
X99358216Y-124167778D01*
X99381069Y-123917132D01*
X99424092Y-123445265D01*
X99424311Y-123443085D01*
X99504289Y-122718391D01*
X99504384Y-122718401D01*
X99504336Y-122717973D01*
X99586829Y-121993213D01*
X99586904Y-121993032D01*
X99586851Y-121993026D01*
X99586866Y-121992896D01*
X99586957Y-121992906D01*
X99586959Y-121992900D01*
X99586864Y-121992891D01*
X99660432Y-121268457D01*
X99663168Y-121268734D01*
X99663193Y-121268462D01*
X99660449Y-121268261D01*
X99713591Y-120545019D01*
X99715047Y-120545126D01*
X99715062Y-120544865D01*
X99713601Y-120544822D01*
X99734864Y-119823188D01*
X99735968Y-119823220D01*
X99735969Y-119822958D01*
X99734864Y-119822992D01*
X99712798Y-119103382D01*
X99713433Y-119103362D01*
X99713417Y-119103118D01*
X99712785Y-119103186D01*
X99635939Y-118386017D01*
X99636442Y-118385963D01*
X99636411Y-118385731D01*
X99635911Y-118385821D01*
X99511612Y-117690461D01*
X99512847Y-117690240D01*
X99512793Y-117689984D01*
X99511571Y-117690268D01*
X99351585Y-117001362D01*
X99352934Y-117001048D01*
X99352874Y-117000794D01*
X99351536Y-117001172D01*
X99158933Y-116319219D01*
X99160400Y-116318804D01*
X99160379Y-116318735D01*
X99158934Y-116319207D01*
X99158904Y-116319115D01*
X99158882Y-116319038D01*
X99160344Y-116318620D01*
X99160324Y-116318551D01*
X99158875Y-116319029D01*
X98936733Y-115644525D01*
X98938375Y-115643984D01*
X98938291Y-115643733D01*
X98936668Y-115644339D01*
X98688063Y-114977786D01*
X98689470Y-114977261D01*
X98689376Y-114977028D01*
X98687990Y-114977602D01*
X98415996Y-114319502D01*
X98417548Y-114318860D01*
X98417450Y-114318629D01*
X98415918Y-114319320D01*
X98123609Y-113670168D01*
X98125680Y-113669235D01*
X98125647Y-113669165D01*
X98123609Y-113670161D01*
X98123568Y-113670077D01*
X98123531Y-113669994D01*
X98123525Y-113669989D01*
X97813980Y-113030291D01*
X97816046Y-113029292D01*
X97815935Y-113029063D01*
X97813891Y-113030114D01*
X97490176Y-112400355D01*
X97490778Y-112400045D01*
X97490742Y-112399980D01*
X97490173Y-112400334D01*
X97490129Y-112400263D01*
X97490095Y-112400197D01*
X97490692Y-112399889D01*
X97490656Y-112399824D01*
X97490079Y-112400183D01*
X97121353Y-111807259D01*
X97121372Y-111807247D01*
X97121259Y-111807083D01*
X97121241Y-111807098D01*
X96684871Y-111251776D01*
X96685529Y-111251258D01*
X96685367Y-111251066D01*
X96684743Y-111251625D01*
X96208770Y-110719176D01*
X96211144Y-110717053D01*
X96210973Y-110716856D01*
X96208637Y-110719030D01*
X95721997Y-110195681D01*
X95720068Y-110193558D01*
X95509087Y-109955775D01*
X95252577Y-109666678D01*
X95247211Y-109660200D01*
X94827438Y-109116761D01*
X94819329Y-109104901D01*
X94474062Y-108531218D01*
X94465048Y-108513012D01*
X94219152Y-107893230D01*
X94212914Y-107872280D01*
X94183137Y-107726269D01*
X94090335Y-107271220D01*
X94088027Y-107253338D01*
X94073979Y-107000865D01*
X94053668Y-106635831D01*
X94053709Y-106621356D01*
X94092568Y-105989781D01*
X94093715Y-105978946D01*
X94131328Y-105729023D01*
X94190483Y-105335963D01*
X94191822Y-105328592D01*
X94330807Y-104677151D01*
X94331820Y-104672793D01*
X94436662Y-104255834D01*
X94497028Y-104015757D01*
X94497345Y-104014532D01*
X94672346Y-103355481D01*
X94672348Y-103355480D01*
X94672372Y-103355385D01*
X94672397Y-103355292D01*
X94672396Y-103355290D01*
X94672397Y-103355289D01*
X94672396Y-103355289D01*
X94840396Y-102698457D01*
X94842882Y-102699092D01*
X94842946Y-102698820D01*
X94840442Y-102698265D01*
X94861490Y-102603345D01*
X94984901Y-102046796D01*
X94984909Y-102046784D01*
X94984922Y-102046702D01*
X94984941Y-102046618D01*
X94986127Y-102046886D01*
X94986144Y-102046798D01*
X94984938Y-102046603D01*
X95089446Y-101403140D01*
X95089873Y-101403209D01*
X95089901Y-101402975D01*
X95089470Y-101402943D01*
X95125047Y-100935397D01*
X95137623Y-100770121D01*
X95137646Y-100770122D01*
X95137646Y-100770091D01*
X95137634Y-100770092D01*
X95137631Y-100770017D01*
X95137631Y-100770016D01*
X95137636Y-100769952D01*
X95137649Y-100769953D01*
X95137650Y-100769924D01*
X95137627Y-100769925D01*
X95136242Y-100735056D01*
X130699500Y-100735056D01*
X130701293Y-100742332D01*
X130701294Y-100742337D01*
X130738415Y-100892944D01*
X130740210Y-100900225D01*
X130743693Y-100906862D01*
X130743695Y-100906866D01*
X130758746Y-100935542D01*
X130819266Y-101050852D01*
X130932071Y-101178183D01*
X131072070Y-101274818D01*
X131231128Y-101335140D01*
X131357628Y-101350500D01*
X131438623Y-101350500D01*
X131442372Y-101350500D01*
X131568872Y-101335140D01*
X131727930Y-101274818D01*
X131867929Y-101178183D01*
X131980734Y-101050852D01*
X132059790Y-100900225D01*
X132100500Y-100735056D01*
X132100500Y-100564944D01*
X132059790Y-100399775D01*
X131980734Y-100249148D01*
X131867929Y-100121817D01*
X131861760Y-100117558D01*
X131861758Y-100117557D01*
X131734106Y-100029445D01*
X131734105Y-100029444D01*
X131727930Y-100025182D01*
X131720915Y-100022521D01*
X131720912Y-100022520D01*
X131575888Y-99967520D01*
X131575882Y-99967518D01*
X131568872Y-99964860D01*
X131561427Y-99963956D01*
X131561423Y-99963955D01*
X131446092Y-99949951D01*
X131446080Y-99949950D01*
X131442372Y-99949500D01*
X131357628Y-99949500D01*
X131353920Y-99949950D01*
X131353907Y-99949951D01*
X131238576Y-99963955D01*
X131238570Y-99963956D01*
X131231128Y-99964860D01*
X131224119Y-99967517D01*
X131224111Y-99967520D01*
X131079087Y-100022520D01*
X131079081Y-100022523D01*
X131072070Y-100025182D01*
X131065897Y-100029442D01*
X131065893Y-100029445D01*
X130938241Y-100117557D01*
X130938235Y-100117562D01*
X130932071Y-100121817D01*
X130927099Y-100127428D01*
X130927098Y-100127430D01*
X130824241Y-100243531D01*
X130824236Y-100243537D01*
X130819266Y-100249148D01*
X130815780Y-100255788D01*
X130815779Y-100255791D01*
X130743695Y-100393133D01*
X130743692Y-100393140D01*
X130740210Y-100399775D01*
X130738416Y-100407050D01*
X130738415Y-100407055D01*
X130701294Y-100557662D01*
X130701293Y-100557668D01*
X130699500Y-100564944D01*
X130699500Y-100735056D01*
X95136242Y-100735056D01*
X95113015Y-100150378D01*
X95113023Y-100150342D01*
X95113011Y-100150280D01*
X95113009Y-100150219D01*
X95112993Y-100150185D01*
X94999205Y-99546556D01*
X94999207Y-99546513D01*
X94999187Y-99546461D01*
X94999177Y-99546405D01*
X94999152Y-99546367D01*
X94779777Y-98961297D01*
X94779770Y-98961251D01*
X94779743Y-98961207D01*
X94779725Y-98961158D01*
X94779691Y-98961122D01*
X94457684Y-98431275D01*
X94457670Y-98431233D01*
X94457636Y-98431194D01*
X94457607Y-98431147D01*
X94457568Y-98431118D01*
X94050595Y-97973682D01*
X94050577Y-97973648D01*
X94050530Y-97973609D01*
X94050490Y-97973564D01*
X94050454Y-97973546D01*
X94044448Y-97968577D01*
X94044448Y-97968576D01*
X93762207Y-97735056D01*
X130699500Y-97735056D01*
X130701293Y-97742332D01*
X130701294Y-97742337D01*
X130738415Y-97892944D01*
X130740210Y-97900225D01*
X130743693Y-97906862D01*
X130743695Y-97906866D01*
X130778915Y-97973970D01*
X130819266Y-98050852D01*
X130932071Y-98178183D01*
X131072070Y-98274818D01*
X131231128Y-98335140D01*
X131357628Y-98350500D01*
X131438623Y-98350500D01*
X131442372Y-98350500D01*
X131568872Y-98335140D01*
X131727930Y-98274818D01*
X131867929Y-98178183D01*
X131980734Y-98050852D01*
X132059790Y-97900225D01*
X132100500Y-97735056D01*
X132100500Y-97564944D01*
X132059790Y-97399775D01*
X131980734Y-97249148D01*
X131964810Y-97231174D01*
X131951162Y-97215768D01*
X131867929Y-97121817D01*
X131861760Y-97117558D01*
X131861758Y-97117557D01*
X131734106Y-97029445D01*
X131734105Y-97029444D01*
X131727930Y-97025182D01*
X131720915Y-97022521D01*
X131720912Y-97022520D01*
X131575888Y-96967520D01*
X131575882Y-96967518D01*
X131568872Y-96964860D01*
X131561427Y-96963956D01*
X131561423Y-96963955D01*
X131446092Y-96949951D01*
X131446080Y-96949950D01*
X131442372Y-96949500D01*
X131357628Y-96949500D01*
X131353920Y-96949950D01*
X131353907Y-96949951D01*
X131238576Y-96963955D01*
X131238570Y-96963956D01*
X131231128Y-96964860D01*
X131224119Y-96967517D01*
X131224111Y-96967520D01*
X131079087Y-97022520D01*
X131079081Y-97022523D01*
X131072070Y-97025182D01*
X131065897Y-97029442D01*
X131065893Y-97029445D01*
X130938241Y-97117557D01*
X130938235Y-97117562D01*
X130932071Y-97121817D01*
X130927099Y-97127428D01*
X130927098Y-97127430D01*
X130824241Y-97243531D01*
X130824236Y-97243537D01*
X130819266Y-97249148D01*
X130815780Y-97255788D01*
X130815779Y-97255791D01*
X130743695Y-97393133D01*
X130743692Y-97393140D01*
X130740210Y-97399775D01*
X130738416Y-97407050D01*
X130738415Y-97407055D01*
X130701294Y-97557662D01*
X130701293Y-97557668D01*
X130699500Y-97564944D01*
X130699500Y-97735056D01*
X93762207Y-97735056D01*
X93636019Y-97630651D01*
X93571621Y-97577369D01*
X93571602Y-97577342D01*
X93571538Y-97577301D01*
X93571490Y-97577261D01*
X93571463Y-97577252D01*
X93563994Y-97572444D01*
X93033869Y-97231174D01*
X93034263Y-97230561D01*
X93034194Y-97230521D01*
X93033855Y-97231157D01*
X93033784Y-97231119D01*
X93033721Y-97231079D01*
X93034107Y-97230470D01*
X93034038Y-97230430D01*
X93033699Y-97231075D01*
X92450449Y-96923943D01*
X92450872Y-96923137D01*
X92450816Y-96923110D01*
X92450440Y-96923934D01*
X92450370Y-96923902D01*
X92450288Y-96923859D01*
X92450708Y-96923057D01*
X92450647Y-96923027D01*
X92450271Y-96923857D01*
X91834468Y-96644522D01*
X91835061Y-96643213D01*
X91835019Y-96643193D01*
X91834462Y-96644516D01*
X91834379Y-96644481D01*
X91834296Y-96644444D01*
X91834881Y-96643130D01*
X91834837Y-96643110D01*
X91834287Y-96644443D01*
X91199027Y-96381747D01*
X91199878Y-96379687D01*
X91199868Y-96379682D01*
X91199026Y-96381746D01*
X91198977Y-96381726D01*
X91198848Y-96381673D01*
X91199695Y-96379611D01*
X91199673Y-96379602D01*
X91198844Y-96381673D01*
X90557855Y-96124718D01*
X90556557Y-96124190D01*
X89924029Y-95862291D01*
X89920136Y-95860600D01*
X89310255Y-95583258D01*
X89303643Y-95580011D01*
X89099024Y-95471865D01*
X88729482Y-95276554D01*
X88720085Y-95271045D01*
X88441815Y-95091035D01*
X88194738Y-94931203D01*
X88182753Y-94922386D01*
X88043485Y-94806445D01*
X87718793Y-94536136D01*
X87705174Y-94522906D01*
X87510644Y-94302526D01*
X87314208Y-94079985D01*
X87300907Y-94061831D01*
X86993473Y-93550610D01*
X86983248Y-93529203D01*
X86863833Y-93201877D01*
X86763465Y-92926762D01*
X86757891Y-92906087D01*
X86642835Y-92262447D01*
X86640951Y-92244199D01*
X86621659Y-91574672D01*
X86622213Y-91558867D01*
X86665540Y-91121963D01*
X86689541Y-90879928D01*
X86691705Y-90866109D01*
X86785674Y-90428928D01*
X86836062Y-90194500D01*
X86839417Y-90182074D01*
X86981977Y-89745503D01*
X87050848Y-89534593D01*
X87055303Y-89522969D01*
X87321695Y-88920584D01*
X87332217Y-88901521D01*
X87675416Y-88391489D01*
X87692084Y-88371591D01*
X88137887Y-87940628D01*
X88151002Y-87929599D01*
X88673953Y-87548374D01*
X88681162Y-87543499D01*
X89249792Y-87187610D01*
X89250539Y-87187148D01*
X89829331Y-86832642D01*
X89830255Y-86834150D01*
X89830494Y-86833994D01*
X89829497Y-86832535D01*
X89830636Y-86831757D01*
X90382359Y-86454766D01*
X90382387Y-86454757D01*
X90382438Y-86454712D01*
X90382499Y-86454671D01*
X90382515Y-86454645D01*
X90876410Y-86027031D01*
X90876452Y-86027009D01*
X90876484Y-86026967D01*
X90876525Y-86026933D01*
X90876546Y-86026890D01*
X91278706Y-85522693D01*
X91278741Y-85522666D01*
X91278769Y-85522613D01*
X91278805Y-85522570D01*
X91278816Y-85522530D01*
X91621786Y-84905878D01*
X91621880Y-84905930D01*
X91621973Y-84905746D01*
X91621873Y-84905702D01*
X91902843Y-84262913D01*
X91903288Y-84263107D01*
X91903374Y-84262888D01*
X91902915Y-84262730D01*
X92131638Y-83597779D01*
X92132703Y-83598145D01*
X92132782Y-83597887D01*
X92131695Y-83597591D01*
X92317910Y-82914479D01*
X92319296Y-82914857D01*
X92319359Y-82914596D01*
X92317957Y-82914288D01*
X92471405Y-82217007D01*
X92473254Y-82217414D01*
X92473306Y-82217156D01*
X92471444Y-82216813D01*
X92601864Y-81509360D01*
X92603394Y-81509642D01*
X92603424Y-81509415D01*
X92601897Y-81509165D01*
X92719028Y-80795539D01*
X92721327Y-80795916D01*
X92721329Y-80795904D01*
X92719029Y-80795538D01*
X92719054Y-80795381D01*
X92721365Y-80795749D01*
X92721373Y-80795711D01*
X92719059Y-80795344D01*
X92832570Y-80079986D01*
X92832747Y-80078905D01*
X92952235Y-79366611D01*
X92952720Y-79363908D01*
X93087768Y-78659155D01*
X93088722Y-78654634D01*
X93248892Y-77961459D01*
X93250518Y-77955185D01*
X93445979Y-77275194D01*
X93446986Y-77271871D01*
X93469300Y-77201756D01*
X93603044Y-76781491D01*
X104002257Y-76781491D01*
X104002575Y-76784605D01*
X104002576Y-76784622D01*
X104011981Y-76876680D01*
X104011982Y-76876685D01*
X104012670Y-76883418D01*
X104067395Y-77048568D01*
X104071186Y-77054715D01*
X104071187Y-77054716D01*
X104151706Y-77185258D01*
X104158731Y-77196646D01*
X104281754Y-77319669D01*
X104429832Y-77411005D01*
X104594982Y-77465730D01*
X104615264Y-77467801D01*
X104675546Y-77490839D01*
X104763557Y-77554783D01*
X104936484Y-77631776D01*
X105121641Y-77671132D01*
X105304430Y-77671132D01*
X105310933Y-77671132D01*
X105496090Y-77631776D01*
X105669017Y-77554783D01*
X105705804Y-77528055D01*
X105763896Y-77485849D01*
X105808540Y-77465933D01*
X105810532Y-77465730D01*
X105975682Y-77411005D01*
X106123760Y-77319669D01*
X106246783Y-77196646D01*
X106338119Y-77048568D01*
X106392844Y-76883418D01*
X106403257Y-76781491D01*
X106403257Y-76194795D01*
X106392844Y-76092868D01*
X106338119Y-75927718D01*
X106246783Y-75779640D01*
X106123760Y-75656617D01*
X106117608Y-75652822D01*
X106111948Y-75648347D01*
X106113579Y-75646283D01*
X106079875Y-75611079D01*
X106064150Y-75550643D01*
X106079875Y-75490207D01*
X106113579Y-75455002D01*
X106111948Y-75452939D01*
X106117606Y-75448464D01*
X106123760Y-75444669D01*
X106246783Y-75321646D01*
X106338119Y-75173568D01*
X106392844Y-75008418D01*
X106403257Y-74906491D01*
X106403257Y-74348595D01*
X106412696Y-74301142D01*
X106439576Y-74260913D01*
X106475885Y-74224605D01*
X106575898Y-74124592D01*
X106622584Y-74077907D01*
X106662813Y-74051028D01*
X106710265Y-74041589D01*
X117127045Y-74041589D01*
X117187477Y-74057312D01*
X117232581Y-74100489D01*
X117247448Y-74124592D01*
X117370471Y-74247615D01*
X117376622Y-74251409D01*
X117382283Y-74255885D01*
X117380659Y-74257938D01*
X117414374Y-74293187D01*
X117430080Y-74353589D01*
X117414374Y-74413991D01*
X117380659Y-74449239D01*
X117382283Y-74451293D01*
X117376620Y-74455769D01*
X117370471Y-74459563D01*
X117365364Y-74464669D01*
X117365360Y-74464673D01*
X117252558Y-74577475D01*
X117252554Y-74577479D01*
X117247448Y-74582586D01*
X117243657Y-74588731D01*
X117243653Y-74588737D01*
X117159904Y-74724515D01*
X117159901Y-74724520D01*
X117156112Y-74730664D01*
X117101387Y-74895814D01*
X117100699Y-74902544D01*
X117100698Y-74902551D01*
X117091293Y-74994609D01*
X117091292Y-74994627D01*
X117090974Y-74997741D01*
X117090974Y-75584437D01*
X117091292Y-75587551D01*
X117091293Y-75587568D01*
X117100698Y-75679626D01*
X117100699Y-75679631D01*
X117101387Y-75686364D01*
X117156112Y-75851514D01*
X117159903Y-75857661D01*
X117159904Y-75857662D01*
X117207343Y-75934573D01*
X117247448Y-75999592D01*
X117370471Y-76122615D01*
X117518549Y-76213951D01*
X117683699Y-76268676D01*
X117691439Y-76269466D01*
X117692109Y-76269722D01*
X117697054Y-76270781D01*
X117696889Y-76271549D01*
X117751732Y-76292506D01*
X117850788Y-76364474D01*
X118023715Y-76441467D01*
X118208872Y-76480823D01*
X118391661Y-76480823D01*
X118398164Y-76480823D01*
X118583321Y-76441467D01*
X118756248Y-76364474D01*
X118863668Y-76286427D01*
X118899793Y-76270320D01*
X118899249Y-76268676D01*
X118905677Y-76266546D01*
X119064399Y-76213951D01*
X119212477Y-76122615D01*
X119335500Y-75999592D01*
X119426836Y-75851514D01*
X119481561Y-75686364D01*
X119491974Y-75584437D01*
X119491974Y-74997741D01*
X119481561Y-74895814D01*
X119426836Y-74730664D01*
X119335500Y-74582586D01*
X119212477Y-74459563D01*
X119206325Y-74455768D01*
X119200665Y-74451293D01*
X119202296Y-74449229D01*
X119168592Y-74414025D01*
X119152867Y-74353589D01*
X119168592Y-74293153D01*
X119202296Y-74257948D01*
X119200665Y-74255885D01*
X119206323Y-74251410D01*
X119212477Y-74247615D01*
X119335500Y-74124592D01*
X119426836Y-73976514D01*
X119481561Y-73811364D01*
X119491974Y-73709437D01*
X119491974Y-73122741D01*
X119481561Y-73020814D01*
X119426836Y-72855664D01*
X119335500Y-72707586D01*
X119212477Y-72584563D01*
X119206327Y-72580769D01*
X119206325Y-72580768D01*
X119070547Y-72497019D01*
X119070546Y-72497018D01*
X119064399Y-72493227D01*
X118899249Y-72438502D01*
X118892516Y-72437814D01*
X118892511Y-72437813D01*
X118800453Y-72428408D01*
X118800436Y-72428407D01*
X118797322Y-72428089D01*
X117785626Y-72428089D01*
X117782512Y-72428407D01*
X117782494Y-72428408D01*
X117690436Y-72437813D01*
X117690429Y-72437814D01*
X117683699Y-72438502D01*
X117677272Y-72440631D01*
X117677270Y-72440632D01*
X117525404Y-72490955D01*
X117525400Y-72490956D01*
X117518549Y-72493227D01*
X117512405Y-72497016D01*
X117512400Y-72497019D01*
X117376622Y-72580768D01*
X117376616Y-72580772D01*
X117370471Y-72584563D01*
X117365364Y-72589669D01*
X117365360Y-72589673D01*
X117252558Y-72702475D01*
X117252554Y-72702479D01*
X117247448Y-72707586D01*
X117232581Y-72731688D01*
X117187477Y-72774866D01*
X117127045Y-72790589D01*
X106477586Y-72790589D01*
X106466530Y-72790067D01*
X106459144Y-72788416D01*
X106451356Y-72788660D01*
X106451349Y-72788660D01*
X106391938Y-72790528D01*
X106388043Y-72790589D01*
X106360461Y-72790589D01*
X106356616Y-72791074D01*
X106356591Y-72791076D01*
X106356464Y-72791093D01*
X106344845Y-72792007D01*
X106308983Y-72793134D01*
X106308976Y-72793135D01*
X106301184Y-72793380D01*
X106293699Y-72795554D01*
X106293683Y-72795557D01*
X106281937Y-72798970D01*
X106262894Y-72802914D01*
X106250760Y-72804447D01*
X106250759Y-72804447D01*
X106243019Y-72805425D01*
X106235769Y-72808294D01*
X106235762Y-72808297D01*
X106202409Y-72821502D01*
X106191365Y-72825283D01*
X106156912Y-72835293D01*
X106156901Y-72835297D01*
X106149421Y-72837471D01*
X106142709Y-72841440D01*
X106142707Y-72841441D01*
X106132175Y-72847669D01*
X106114715Y-72856223D01*
X106103330Y-72860731D01*
X106103324Y-72860733D01*
X106096079Y-72863603D01*
X106089774Y-72868183D01*
X106089766Y-72868188D01*
X106060743Y-72889274D01*
X106050985Y-72895684D01*
X106020107Y-72913946D01*
X106020101Y-72913950D01*
X106013391Y-72917919D01*
X106007878Y-72923430D01*
X106007871Y-72923437D01*
X105999221Y-72932087D01*
X105984438Y-72944713D01*
X105974537Y-72951906D01*
X105974527Y-72951915D01*
X105968224Y-72956495D01*
X105963255Y-72962500D01*
X105963252Y-72962504D01*
X105940383Y-72990148D01*
X105932522Y-72998786D01*
X105342485Y-73588824D01*
X105302257Y-73615704D01*
X105254804Y-73625143D01*
X104696909Y-73625143D01*
X104693795Y-73625461D01*
X104693777Y-73625462D01*
X104601719Y-73634867D01*
X104601712Y-73634868D01*
X104594982Y-73635556D01*
X104588555Y-73637685D01*
X104588553Y-73637686D01*
X104436687Y-73688009D01*
X104436683Y-73688010D01*
X104429832Y-73690281D01*
X104423688Y-73694070D01*
X104423683Y-73694073D01*
X104287905Y-73777822D01*
X104287899Y-73777826D01*
X104281754Y-73781617D01*
X104276647Y-73786723D01*
X104276643Y-73786727D01*
X104163841Y-73899529D01*
X104163837Y-73899533D01*
X104158731Y-73904640D01*
X104154940Y-73910785D01*
X104154936Y-73910791D01*
X104071187Y-74046569D01*
X104071184Y-74046574D01*
X104067395Y-74052718D01*
X104012670Y-74217868D01*
X104011982Y-74224598D01*
X104011981Y-74224605D01*
X104002576Y-74316663D01*
X104002575Y-74316681D01*
X104002257Y-74319795D01*
X104002257Y-74906491D01*
X104002575Y-74909605D01*
X104002576Y-74909622D01*
X104011981Y-75001680D01*
X104011982Y-75001685D01*
X104012670Y-75008418D01*
X104067395Y-75173568D01*
X104158731Y-75321646D01*
X104281754Y-75444669D01*
X104287905Y-75448463D01*
X104293566Y-75452939D01*
X104291942Y-75454992D01*
X104325657Y-75490241D01*
X104341363Y-75550643D01*
X104325657Y-75611045D01*
X104291942Y-75646293D01*
X104293566Y-75648347D01*
X104287903Y-75652823D01*
X104281754Y-75656617D01*
X104276647Y-75661723D01*
X104276643Y-75661727D01*
X104163841Y-75774529D01*
X104163837Y-75774533D01*
X104158731Y-75779640D01*
X104154940Y-75785785D01*
X104154936Y-75785791D01*
X104071187Y-75921569D01*
X104071184Y-75921574D01*
X104067395Y-75927718D01*
X104012670Y-76092868D01*
X104011982Y-76099598D01*
X104011981Y-76099605D01*
X104002576Y-76191663D01*
X104002575Y-76191681D01*
X104002257Y-76194795D01*
X104002257Y-76781491D01*
X93603044Y-76781491D01*
X93680070Y-76539452D01*
X93682564Y-76540245D01*
X93682568Y-76540235D01*
X93680069Y-76539449D01*
X93911720Y-75802994D01*
X93911748Y-75803002D01*
X93911779Y-75802803D01*
X93932816Y-75736296D01*
X94144764Y-75066231D01*
X94144890Y-75065836D01*
X94382708Y-74330758D01*
X94383045Y-74329739D01*
X94628915Y-73598601D01*
X94629577Y-73596687D01*
X94886910Y-72871290D01*
X94887759Y-72868976D01*
X95160034Y-72150928D01*
X95161201Y-72147967D01*
X95451717Y-71439320D01*
X95453221Y-71435809D01*
X95765391Y-70738310D01*
X95767304Y-70734239D01*
X96104457Y-70049795D01*
X96106850Y-70045186D01*
X96153982Y-69958843D01*
X96472904Y-69374595D01*
X96474591Y-69371607D01*
X96852518Y-68723987D01*
X96853324Y-68722629D01*
X97243004Y-68076325D01*
X97244075Y-68074584D01*
X97646527Y-67433514D01*
X97647941Y-67431315D01*
X98064620Y-66798625D01*
X98066327Y-66796105D01*
X98498771Y-66174799D01*
X98500841Y-66171916D01*
X98950577Y-65565007D01*
X98953051Y-65561784D01*
X99421484Y-64972435D01*
X99424459Y-64968835D01*
X99913110Y-64400033D01*
X99916607Y-64396134D01*
X100426943Y-63850924D01*
X100431016Y-63846774D01*
X100964578Y-63328103D01*
X100969268Y-63323774D01*
X101527519Y-62834667D01*
X101532877Y-62830234D01*
X102118064Y-62373086D01*
X102122546Y-62369745D01*
X102701376Y-61958238D01*
X102704518Y-61956079D01*
X103299357Y-61560347D01*
X103302535Y-61558301D01*
X103911781Y-61179655D01*
X103915020Y-61177711D01*
X104537562Y-60817094D01*
X104540881Y-60815239D01*
X105175773Y-60473492D01*
X105179191Y-60471721D01*
X105825401Y-60149728D01*
X105828876Y-60148064D01*
X106485495Y-59846649D01*
X106489100Y-59845064D01*
X107155024Y-59565144D01*
X107158761Y-59563645D01*
X107833056Y-59306055D01*
X107836910Y-59304657D01*
X108518519Y-59070277D01*
X108522526Y-59068977D01*
X109210464Y-58858662D01*
X109214590Y-58857480D01*
X109907977Y-58672052D01*
X109912310Y-58670978D01*
X110609962Y-58511345D01*
X110614453Y-58510406D01*
X111315501Y-58377389D01*
X111320196Y-58376591D01*
X112023589Y-58271051D01*
X112028459Y-58270419D01*
X112733059Y-58193216D01*
X112738471Y-58192744D01*
X113472603Y-58145035D01*
X113478279Y-58144798D01*
X114215893Y-58131226D01*
X114221357Y-58131247D01*
G37*
%TD.AperFunction*%
%TA.AperFunction,NonConductor*%
G36*
X110413927Y-135885273D02*
G01*
X110466673Y-135916569D01*
X110588599Y-136038495D01*
X110593032Y-136041599D01*
X110593038Y-136041604D01*
X110774158Y-136168425D01*
X110813024Y-136212743D01*
X110827035Y-136270000D01*
X110813024Y-136327257D01*
X110774159Y-136371575D01*
X110593041Y-136498395D01*
X110588599Y-136501505D01*
X110584775Y-136505328D01*
X110584769Y-136505334D01*
X110425334Y-136664769D01*
X110425328Y-136664775D01*
X110421505Y-136668599D01*
X110418402Y-136673029D01*
X110418399Y-136673034D01*
X110291575Y-136854159D01*
X110247257Y-136893025D01*
X110190000Y-136907036D01*
X110132743Y-136893025D01*
X110088425Y-136854159D01*
X109961600Y-136673034D01*
X109958495Y-136668599D01*
X109836569Y-136546673D01*
X109805273Y-136493927D01*
X109803084Y-136432634D01*
X109830537Y-136377789D01*
X109880916Y-136342810D01*
X110012331Y-136293796D01*
X110127546Y-136207546D01*
X110213796Y-136092331D01*
X110262810Y-135960916D01*
X110297789Y-135910537D01*
X110352634Y-135883084D01*
X110413927Y-135885273D01*
G37*
%TD.AperFunction*%
%TA.AperFunction,NonConductor*%
G36*
X112787257Y-135646976D02*
G01*
X112831575Y-135685842D01*
X112958395Y-135866961D01*
X112958401Y-135866968D01*
X112961505Y-135871401D01*
X113128599Y-136038495D01*
X113133032Y-136041599D01*
X113133038Y-136041604D01*
X113314158Y-136168425D01*
X113353024Y-136212743D01*
X113367035Y-136270000D01*
X113353024Y-136327257D01*
X113314159Y-136371575D01*
X113133041Y-136498395D01*
X113128599Y-136501505D01*
X113124775Y-136505328D01*
X113124769Y-136505334D01*
X112965334Y-136664769D01*
X112965328Y-136664775D01*
X112961505Y-136668599D01*
X112958402Y-136673029D01*
X112958399Y-136673034D01*
X112831575Y-136854159D01*
X112787257Y-136893025D01*
X112730000Y-136907036D01*
X112672743Y-136893025D01*
X112628425Y-136854159D01*
X112501600Y-136673034D01*
X112498495Y-136668599D01*
X112331401Y-136501505D01*
X112326968Y-136498401D01*
X112326961Y-136498395D01*
X112145842Y-136371575D01*
X112106976Y-136327257D01*
X112092965Y-136270000D01*
X112106976Y-136212743D01*
X112145842Y-136168425D01*
X112326961Y-136041604D01*
X112326961Y-136041603D01*
X112331401Y-136038495D01*
X112498495Y-135871401D01*
X112628424Y-135685842D01*
X112672743Y-135646976D01*
X112730000Y-135632965D01*
X112787257Y-135646976D01*
G37*
%TD.AperFunction*%
M02*
