%TF.GenerationSoftware,KiCad,Pcbnew,(7.0.0-0)*%
%TF.CreationDate,2023-07-17T23:24:22-05:00*%
%TF.ProjectId,crew-SAO,63726577-2d53-4414-9f2e-6b696361645f,rev?*%
%TF.SameCoordinates,Original*%
%TF.FileFunction,Drillmap*%
%TF.FilePolarity,Positive*%
%FSLAX45Y45*%
G04 Gerber Fmt 4.5, Leading zero omitted, Abs format (unit mm)*
G04 Created by KiCad (PCBNEW (7.0.0-0)) date 2023-07-17 23:24:22*
%MOMM*%
%LPD*%
G01*
G04 APERTURE LIST*
%ADD10C,0.150000*%
%ADD11C,0.200000*%
%ADD12C,0.090000*%
G04 APERTURE END LIST*
D10*
X4130000Y-15790000D02*
X6516716Y-15790000D01*
X6556716Y-6023953D02*
X6556716Y-15750000D01*
X4128284Y-5983284D02*
G75*
G03*
X4088284Y-6023284I-4J-39996D01*
G01*
X4090000Y-6023284D02*
X4090000Y-15750000D01*
X6516716Y-15789996D02*
G75*
G03*
X6556716Y-15750000I4J39996D01*
G01*
X6556716Y-6023953D02*
G75*
G03*
X6517372Y-5983284I-40006J663D01*
G01*
X4128284Y-5983284D02*
X6517372Y-5983284D01*
X4090000Y-15750000D02*
G75*
G03*
X4130000Y-15790000I40000J0D01*
G01*
D11*
D12*
X6315000Y-7585000D02*
X6405000Y-7675000D01*
X6405000Y-7585000D02*
X6315000Y-7675000D01*
X6315000Y-7885000D02*
X6405000Y-7975000D01*
X6405000Y-7885000D02*
X6315000Y-7975000D01*
D11*
X4328403Y-16090976D02*
X4328403Y-15890976D01*
X4328403Y-15890976D02*
X4376022Y-15890976D01*
X4376022Y-15890976D02*
X4404594Y-15900500D01*
X4404594Y-15900500D02*
X4423641Y-15919548D01*
X4423641Y-15919548D02*
X4433165Y-15938595D01*
X4433165Y-15938595D02*
X4442689Y-15976690D01*
X4442689Y-15976690D02*
X4442689Y-16005262D01*
X4442689Y-16005262D02*
X4433165Y-16043357D01*
X4433165Y-16043357D02*
X4423641Y-16062405D01*
X4423641Y-16062405D02*
X4404594Y-16081452D01*
X4404594Y-16081452D02*
X4376022Y-16090976D01*
X4376022Y-16090976D02*
X4328403Y-16090976D01*
X4528403Y-16090976D02*
X4528403Y-15957643D01*
X4528403Y-15995738D02*
X4537927Y-15976690D01*
X4537927Y-15976690D02*
X4547451Y-15967167D01*
X4547451Y-15967167D02*
X4566499Y-15957643D01*
X4566499Y-15957643D02*
X4585546Y-15957643D01*
X4652213Y-16090976D02*
X4652213Y-15957643D01*
X4652213Y-15890976D02*
X4642689Y-15900500D01*
X4642689Y-15900500D02*
X4652213Y-15910024D01*
X4652213Y-15910024D02*
X4661737Y-15900500D01*
X4661737Y-15900500D02*
X4652213Y-15890976D01*
X4652213Y-15890976D02*
X4652213Y-15910024D01*
X4776022Y-16090976D02*
X4756975Y-16081452D01*
X4756975Y-16081452D02*
X4747451Y-16062405D01*
X4747451Y-16062405D02*
X4747451Y-15890976D01*
X4880784Y-16090976D02*
X4861737Y-16081452D01*
X4861737Y-16081452D02*
X4852213Y-16062405D01*
X4852213Y-16062405D02*
X4852213Y-15890976D01*
X5076975Y-16090976D02*
X5076975Y-15890976D01*
X5076975Y-15890976D02*
X5143641Y-16033833D01*
X5143641Y-16033833D02*
X5210308Y-15890976D01*
X5210308Y-15890976D02*
X5210308Y-16090976D01*
X5391260Y-16090976D02*
X5391260Y-15986214D01*
X5391260Y-15986214D02*
X5381737Y-15967167D01*
X5381737Y-15967167D02*
X5362689Y-15957643D01*
X5362689Y-15957643D02*
X5324594Y-15957643D01*
X5324594Y-15957643D02*
X5305546Y-15967167D01*
X5391260Y-16081452D02*
X5372213Y-16090976D01*
X5372213Y-16090976D02*
X5324594Y-16090976D01*
X5324594Y-16090976D02*
X5305546Y-16081452D01*
X5305546Y-16081452D02*
X5296022Y-16062405D01*
X5296022Y-16062405D02*
X5296022Y-16043357D01*
X5296022Y-16043357D02*
X5305546Y-16024309D01*
X5305546Y-16024309D02*
X5324594Y-16014786D01*
X5324594Y-16014786D02*
X5372213Y-16014786D01*
X5372213Y-16014786D02*
X5391260Y-16005262D01*
X5486499Y-15957643D02*
X5486499Y-16157643D01*
X5486499Y-15967167D02*
X5505546Y-15957643D01*
X5505546Y-15957643D02*
X5543641Y-15957643D01*
X5543641Y-15957643D02*
X5562689Y-15967167D01*
X5562689Y-15967167D02*
X5572213Y-15976690D01*
X5572213Y-15976690D02*
X5581737Y-15995738D01*
X5581737Y-15995738D02*
X5581737Y-16052881D01*
X5581737Y-16052881D02*
X5572213Y-16071928D01*
X5572213Y-16071928D02*
X5562689Y-16081452D01*
X5562689Y-16081452D02*
X5543641Y-16090976D01*
X5543641Y-16090976D02*
X5505546Y-16090976D01*
X5505546Y-16090976D02*
X5486499Y-16081452D01*
X5667451Y-16071928D02*
X5676975Y-16081452D01*
X5676975Y-16081452D02*
X5667451Y-16090976D01*
X5667451Y-16090976D02*
X5657927Y-16081452D01*
X5657927Y-16081452D02*
X5667451Y-16071928D01*
X5667451Y-16071928D02*
X5667451Y-16090976D01*
X5667451Y-15967167D02*
X5676975Y-15976690D01*
X5676975Y-15976690D02*
X5667451Y-15986214D01*
X5667451Y-15986214D02*
X5657927Y-15976690D01*
X5657927Y-15976690D02*
X5667451Y-15967167D01*
X5667451Y-15967167D02*
X5667451Y-15986214D01*
D12*
X3990784Y-16392500D02*
X4080784Y-16482500D01*
X4080784Y-16392500D02*
X3990784Y-16482500D01*
D11*
X4366499Y-16310976D02*
X4385546Y-16310976D01*
X4385546Y-16310976D02*
X4404594Y-16320500D01*
X4404594Y-16320500D02*
X4414118Y-16330024D01*
X4414118Y-16330024D02*
X4423641Y-16349071D01*
X4423641Y-16349071D02*
X4433165Y-16387167D01*
X4433165Y-16387167D02*
X4433165Y-16434786D01*
X4433165Y-16434786D02*
X4423641Y-16472881D01*
X4423641Y-16472881D02*
X4414118Y-16491928D01*
X4414118Y-16491928D02*
X4404594Y-16501452D01*
X4404594Y-16501452D02*
X4385546Y-16510976D01*
X4385546Y-16510976D02*
X4366499Y-16510976D01*
X4366499Y-16510976D02*
X4347451Y-16501452D01*
X4347451Y-16501452D02*
X4337927Y-16491928D01*
X4337927Y-16491928D02*
X4328403Y-16472881D01*
X4328403Y-16472881D02*
X4318880Y-16434786D01*
X4318880Y-16434786D02*
X4318880Y-16387167D01*
X4318880Y-16387167D02*
X4328403Y-16349071D01*
X4328403Y-16349071D02*
X4337927Y-16330024D01*
X4337927Y-16330024D02*
X4347451Y-16320500D01*
X4347451Y-16320500D02*
X4366499Y-16310976D01*
X4518880Y-16491928D02*
X4528403Y-16501452D01*
X4528403Y-16501452D02*
X4518880Y-16510976D01*
X4518880Y-16510976D02*
X4509356Y-16501452D01*
X4509356Y-16501452D02*
X4518880Y-16491928D01*
X4518880Y-16491928D02*
X4518880Y-16510976D01*
X4623641Y-16510976D02*
X4661737Y-16510976D01*
X4661737Y-16510976D02*
X4680784Y-16501452D01*
X4680784Y-16501452D02*
X4690308Y-16491928D01*
X4690308Y-16491928D02*
X4709356Y-16463357D01*
X4709356Y-16463357D02*
X4718880Y-16425262D01*
X4718880Y-16425262D02*
X4718880Y-16349071D01*
X4718880Y-16349071D02*
X4709356Y-16330024D01*
X4709356Y-16330024D02*
X4699832Y-16320500D01*
X4699832Y-16320500D02*
X4680784Y-16310976D01*
X4680784Y-16310976D02*
X4642689Y-16310976D01*
X4642689Y-16310976D02*
X4623641Y-16320500D01*
X4623641Y-16320500D02*
X4614118Y-16330024D01*
X4614118Y-16330024D02*
X4604594Y-16349071D01*
X4604594Y-16349071D02*
X4604594Y-16396690D01*
X4604594Y-16396690D02*
X4614118Y-16415738D01*
X4614118Y-16415738D02*
X4623641Y-16425262D01*
X4623641Y-16425262D02*
X4642689Y-16434786D01*
X4642689Y-16434786D02*
X4680784Y-16434786D01*
X4680784Y-16434786D02*
X4699832Y-16425262D01*
X4699832Y-16425262D02*
X4709356Y-16415738D01*
X4709356Y-16415738D02*
X4718880Y-16396690D01*
X4842689Y-16310976D02*
X4861737Y-16310976D01*
X4861737Y-16310976D02*
X4880784Y-16320500D01*
X4880784Y-16320500D02*
X4890308Y-16330024D01*
X4890308Y-16330024D02*
X4899832Y-16349071D01*
X4899832Y-16349071D02*
X4909356Y-16387167D01*
X4909356Y-16387167D02*
X4909356Y-16434786D01*
X4909356Y-16434786D02*
X4899832Y-16472881D01*
X4899832Y-16472881D02*
X4890308Y-16491928D01*
X4890308Y-16491928D02*
X4880784Y-16501452D01*
X4880784Y-16501452D02*
X4861737Y-16510976D01*
X4861737Y-16510976D02*
X4842689Y-16510976D01*
X4842689Y-16510976D02*
X4823641Y-16501452D01*
X4823641Y-16501452D02*
X4814118Y-16491928D01*
X4814118Y-16491928D02*
X4804594Y-16472881D01*
X4804594Y-16472881D02*
X4795070Y-16434786D01*
X4795070Y-16434786D02*
X4795070Y-16387167D01*
X4795070Y-16387167D02*
X4804594Y-16349071D01*
X4804594Y-16349071D02*
X4814118Y-16330024D01*
X4814118Y-16330024D02*
X4823641Y-16320500D01*
X4823641Y-16320500D02*
X4842689Y-16310976D01*
X5033165Y-16310976D02*
X5052213Y-16310976D01*
X5052213Y-16310976D02*
X5071261Y-16320500D01*
X5071261Y-16320500D02*
X5080784Y-16330024D01*
X5080784Y-16330024D02*
X5090308Y-16349071D01*
X5090308Y-16349071D02*
X5099832Y-16387167D01*
X5099832Y-16387167D02*
X5099832Y-16434786D01*
X5099832Y-16434786D02*
X5090308Y-16472881D01*
X5090308Y-16472881D02*
X5080784Y-16491928D01*
X5080784Y-16491928D02*
X5071261Y-16501452D01*
X5071261Y-16501452D02*
X5052213Y-16510976D01*
X5052213Y-16510976D02*
X5033165Y-16510976D01*
X5033165Y-16510976D02*
X5014118Y-16501452D01*
X5014118Y-16501452D02*
X5004594Y-16491928D01*
X5004594Y-16491928D02*
X4995070Y-16472881D01*
X4995070Y-16472881D02*
X4985546Y-16434786D01*
X4985546Y-16434786D02*
X4985546Y-16387167D01*
X4985546Y-16387167D02*
X4995070Y-16349071D01*
X4995070Y-16349071D02*
X5004594Y-16330024D01*
X5004594Y-16330024D02*
X5014118Y-16320500D01*
X5014118Y-16320500D02*
X5033165Y-16310976D01*
X5185546Y-16510976D02*
X5185546Y-16377643D01*
X5185546Y-16396690D02*
X5195070Y-16387167D01*
X5195070Y-16387167D02*
X5214118Y-16377643D01*
X5214118Y-16377643D02*
X5242689Y-16377643D01*
X5242689Y-16377643D02*
X5261737Y-16387167D01*
X5261737Y-16387167D02*
X5271261Y-16406214D01*
X5271261Y-16406214D02*
X5271261Y-16510976D01*
X5271261Y-16406214D02*
X5280784Y-16387167D01*
X5280784Y-16387167D02*
X5299832Y-16377643D01*
X5299832Y-16377643D02*
X5328403Y-16377643D01*
X5328403Y-16377643D02*
X5347451Y-16387167D01*
X5347451Y-16387167D02*
X5356975Y-16406214D01*
X5356975Y-16406214D02*
X5356975Y-16510976D01*
X5452213Y-16510976D02*
X5452213Y-16377643D01*
X5452213Y-16396690D02*
X5461737Y-16387167D01*
X5461737Y-16387167D02*
X5480784Y-16377643D01*
X5480784Y-16377643D02*
X5509356Y-16377643D01*
X5509356Y-16377643D02*
X5528403Y-16387167D01*
X5528403Y-16387167D02*
X5537927Y-16406214D01*
X5537927Y-16406214D02*
X5537927Y-16510976D01*
X5537927Y-16406214D02*
X5547451Y-16387167D01*
X5547451Y-16387167D02*
X5566499Y-16377643D01*
X5566499Y-16377643D02*
X5595070Y-16377643D01*
X5595070Y-16377643D02*
X5614118Y-16387167D01*
X5614118Y-16387167D02*
X5623641Y-16406214D01*
X5623641Y-16406214D02*
X5623641Y-16510976D01*
X5981737Y-16301452D02*
X5810308Y-16558595D01*
X6206499Y-16310976D02*
X6225546Y-16310976D01*
X6225546Y-16310976D02*
X6244594Y-16320500D01*
X6244594Y-16320500D02*
X6254118Y-16330024D01*
X6254118Y-16330024D02*
X6263641Y-16349071D01*
X6263641Y-16349071D02*
X6273165Y-16387167D01*
X6273165Y-16387167D02*
X6273165Y-16434786D01*
X6273165Y-16434786D02*
X6263641Y-16472881D01*
X6263641Y-16472881D02*
X6254118Y-16491928D01*
X6254118Y-16491928D02*
X6244594Y-16501452D01*
X6244594Y-16501452D02*
X6225546Y-16510976D01*
X6225546Y-16510976D02*
X6206499Y-16510976D01*
X6206499Y-16510976D02*
X6187451Y-16501452D01*
X6187451Y-16501452D02*
X6177927Y-16491928D01*
X6177927Y-16491928D02*
X6168403Y-16472881D01*
X6168403Y-16472881D02*
X6158880Y-16434786D01*
X6158880Y-16434786D02*
X6158880Y-16387167D01*
X6158880Y-16387167D02*
X6168403Y-16349071D01*
X6168403Y-16349071D02*
X6177927Y-16330024D01*
X6177927Y-16330024D02*
X6187451Y-16320500D01*
X6187451Y-16320500D02*
X6206499Y-16310976D01*
X6358880Y-16491928D02*
X6368403Y-16501452D01*
X6368403Y-16501452D02*
X6358880Y-16510976D01*
X6358880Y-16510976D02*
X6349356Y-16501452D01*
X6349356Y-16501452D02*
X6358880Y-16491928D01*
X6358880Y-16491928D02*
X6358880Y-16510976D01*
X6492213Y-16310976D02*
X6511261Y-16310976D01*
X6511261Y-16310976D02*
X6530308Y-16320500D01*
X6530308Y-16320500D02*
X6539832Y-16330024D01*
X6539832Y-16330024D02*
X6549356Y-16349071D01*
X6549356Y-16349071D02*
X6558880Y-16387167D01*
X6558880Y-16387167D02*
X6558880Y-16434786D01*
X6558880Y-16434786D02*
X6549356Y-16472881D01*
X6549356Y-16472881D02*
X6539832Y-16491928D01*
X6539832Y-16491928D02*
X6530308Y-16501452D01*
X6530308Y-16501452D02*
X6511261Y-16510976D01*
X6511261Y-16510976D02*
X6492213Y-16510976D01*
X6492213Y-16510976D02*
X6473165Y-16501452D01*
X6473165Y-16501452D02*
X6463641Y-16491928D01*
X6463641Y-16491928D02*
X6454118Y-16472881D01*
X6454118Y-16472881D02*
X6444594Y-16434786D01*
X6444594Y-16434786D02*
X6444594Y-16387167D01*
X6444594Y-16387167D02*
X6454118Y-16349071D01*
X6454118Y-16349071D02*
X6463641Y-16330024D01*
X6463641Y-16330024D02*
X6473165Y-16320500D01*
X6473165Y-16320500D02*
X6492213Y-16310976D01*
X6625546Y-16310976D02*
X6749356Y-16310976D01*
X6749356Y-16310976D02*
X6682689Y-16387167D01*
X6682689Y-16387167D02*
X6711261Y-16387167D01*
X6711261Y-16387167D02*
X6730308Y-16396690D01*
X6730308Y-16396690D02*
X6739832Y-16406214D01*
X6739832Y-16406214D02*
X6749356Y-16425262D01*
X6749356Y-16425262D02*
X6749356Y-16472881D01*
X6749356Y-16472881D02*
X6739832Y-16491928D01*
X6739832Y-16491928D02*
X6730308Y-16501452D01*
X6730308Y-16501452D02*
X6711261Y-16510976D01*
X6711261Y-16510976D02*
X6654118Y-16510976D01*
X6654118Y-16510976D02*
X6635070Y-16501452D01*
X6635070Y-16501452D02*
X6625546Y-16491928D01*
X6930308Y-16310976D02*
X6835070Y-16310976D01*
X6835070Y-16310976D02*
X6825546Y-16406214D01*
X6825546Y-16406214D02*
X6835070Y-16396690D01*
X6835070Y-16396690D02*
X6854118Y-16387167D01*
X6854118Y-16387167D02*
X6901737Y-16387167D01*
X6901737Y-16387167D02*
X6920784Y-16396690D01*
X6920784Y-16396690D02*
X6930308Y-16406214D01*
X6930308Y-16406214D02*
X6939832Y-16425262D01*
X6939832Y-16425262D02*
X6939832Y-16472881D01*
X6939832Y-16472881D02*
X6930308Y-16491928D01*
X6930308Y-16491928D02*
X6920784Y-16501452D01*
X6920784Y-16501452D02*
X6901737Y-16510976D01*
X6901737Y-16510976D02*
X6854118Y-16510976D01*
X6854118Y-16510976D02*
X6835070Y-16501452D01*
X6835070Y-16501452D02*
X6825546Y-16491928D01*
X7111261Y-16377643D02*
X7111261Y-16510976D01*
X7063641Y-16301452D02*
X7016022Y-16444309D01*
X7016022Y-16444309D02*
X7139832Y-16444309D01*
X7206499Y-16310976D02*
X7206499Y-16349071D01*
X7282689Y-16310976D02*
X7282689Y-16349071D01*
X7545546Y-16587167D02*
X7536022Y-16577643D01*
X7536022Y-16577643D02*
X7516975Y-16549071D01*
X7516975Y-16549071D02*
X7507451Y-16530024D01*
X7507451Y-16530024D02*
X7497927Y-16501452D01*
X7497927Y-16501452D02*
X7488403Y-16453833D01*
X7488403Y-16453833D02*
X7488403Y-16415738D01*
X7488403Y-16415738D02*
X7497927Y-16368119D01*
X7497927Y-16368119D02*
X7507451Y-16339548D01*
X7507451Y-16339548D02*
X7516975Y-16320500D01*
X7516975Y-16320500D02*
X7536022Y-16291928D01*
X7536022Y-16291928D02*
X7545546Y-16282405D01*
X7612213Y-16330024D02*
X7621737Y-16320500D01*
X7621737Y-16320500D02*
X7640784Y-16310976D01*
X7640784Y-16310976D02*
X7688403Y-16310976D01*
X7688403Y-16310976D02*
X7707451Y-16320500D01*
X7707451Y-16320500D02*
X7716975Y-16330024D01*
X7716975Y-16330024D02*
X7726499Y-16349071D01*
X7726499Y-16349071D02*
X7726499Y-16368119D01*
X7726499Y-16368119D02*
X7716975Y-16396690D01*
X7716975Y-16396690D02*
X7602689Y-16510976D01*
X7602689Y-16510976D02*
X7726499Y-16510976D01*
X7932213Y-16510976D02*
X7932213Y-16310976D01*
X8017927Y-16510976D02*
X8017927Y-16406214D01*
X8017927Y-16406214D02*
X8008403Y-16387167D01*
X8008403Y-16387167D02*
X7989356Y-16377643D01*
X7989356Y-16377643D02*
X7960784Y-16377643D01*
X7960784Y-16377643D02*
X7941737Y-16387167D01*
X7941737Y-16387167D02*
X7932213Y-16396690D01*
X8141737Y-16510976D02*
X8122689Y-16501452D01*
X8122689Y-16501452D02*
X8113165Y-16491928D01*
X8113165Y-16491928D02*
X8103642Y-16472881D01*
X8103642Y-16472881D02*
X8103642Y-16415738D01*
X8103642Y-16415738D02*
X8113165Y-16396690D01*
X8113165Y-16396690D02*
X8122689Y-16387167D01*
X8122689Y-16387167D02*
X8141737Y-16377643D01*
X8141737Y-16377643D02*
X8170308Y-16377643D01*
X8170308Y-16377643D02*
X8189356Y-16387167D01*
X8189356Y-16387167D02*
X8198880Y-16396690D01*
X8198880Y-16396690D02*
X8208403Y-16415738D01*
X8208403Y-16415738D02*
X8208403Y-16472881D01*
X8208403Y-16472881D02*
X8198880Y-16491928D01*
X8198880Y-16491928D02*
X8189356Y-16501452D01*
X8189356Y-16501452D02*
X8170308Y-16510976D01*
X8170308Y-16510976D02*
X8141737Y-16510976D01*
X8322689Y-16510976D02*
X8303642Y-16501452D01*
X8303642Y-16501452D02*
X8294118Y-16482405D01*
X8294118Y-16482405D02*
X8294118Y-16310976D01*
X8475070Y-16501452D02*
X8456023Y-16510976D01*
X8456023Y-16510976D02*
X8417927Y-16510976D01*
X8417927Y-16510976D02*
X8398880Y-16501452D01*
X8398880Y-16501452D02*
X8389356Y-16482405D01*
X8389356Y-16482405D02*
X8389356Y-16406214D01*
X8389356Y-16406214D02*
X8398880Y-16387167D01*
X8398880Y-16387167D02*
X8417927Y-16377643D01*
X8417927Y-16377643D02*
X8456023Y-16377643D01*
X8456023Y-16377643D02*
X8475070Y-16387167D01*
X8475070Y-16387167D02*
X8484594Y-16406214D01*
X8484594Y-16406214D02*
X8484594Y-16425262D01*
X8484594Y-16425262D02*
X8389356Y-16444309D01*
X8560785Y-16501452D02*
X8579832Y-16510976D01*
X8579832Y-16510976D02*
X8617927Y-16510976D01*
X8617927Y-16510976D02*
X8636975Y-16501452D01*
X8636975Y-16501452D02*
X8646499Y-16482405D01*
X8646499Y-16482405D02*
X8646499Y-16472881D01*
X8646499Y-16472881D02*
X8636975Y-16453833D01*
X8636975Y-16453833D02*
X8617927Y-16444309D01*
X8617927Y-16444309D02*
X8589356Y-16444309D01*
X8589356Y-16444309D02*
X8570308Y-16434786D01*
X8570308Y-16434786D02*
X8560785Y-16415738D01*
X8560785Y-16415738D02*
X8560785Y-16406214D01*
X8560785Y-16406214D02*
X8570308Y-16387167D01*
X8570308Y-16387167D02*
X8589356Y-16377643D01*
X8589356Y-16377643D02*
X8617927Y-16377643D01*
X8617927Y-16377643D02*
X8636975Y-16387167D01*
X8713166Y-16587167D02*
X8722689Y-16577643D01*
X8722689Y-16577643D02*
X8741737Y-16549071D01*
X8741737Y-16549071D02*
X8751261Y-16530024D01*
X8751261Y-16530024D02*
X8760785Y-16501452D01*
X8760785Y-16501452D02*
X8770308Y-16453833D01*
X8770308Y-16453833D02*
X8770308Y-16415738D01*
X8770308Y-16415738D02*
X8760785Y-16368119D01*
X8760785Y-16368119D02*
X8751261Y-16339548D01*
X8751261Y-16339548D02*
X8741737Y-16320500D01*
X8741737Y-16320500D02*
X8722689Y-16291928D01*
X8722689Y-16291928D02*
X8713166Y-16282405D01*
X9042689Y-16587167D02*
X9033165Y-16577643D01*
X9033165Y-16577643D02*
X9014118Y-16549071D01*
X9014118Y-16549071D02*
X9004594Y-16530024D01*
X9004594Y-16530024D02*
X8995070Y-16501452D01*
X8995070Y-16501452D02*
X8985546Y-16453833D01*
X8985546Y-16453833D02*
X8985546Y-16415738D01*
X8985546Y-16415738D02*
X8995070Y-16368119D01*
X8995070Y-16368119D02*
X9004594Y-16339548D01*
X9004594Y-16339548D02*
X9014118Y-16320500D01*
X9014118Y-16320500D02*
X9033165Y-16291928D01*
X9033165Y-16291928D02*
X9042689Y-16282405D01*
X9118880Y-16377643D02*
X9118880Y-16510976D01*
X9118880Y-16396690D02*
X9128404Y-16387167D01*
X9128404Y-16387167D02*
X9147451Y-16377643D01*
X9147451Y-16377643D02*
X9176023Y-16377643D01*
X9176023Y-16377643D02*
X9195070Y-16387167D01*
X9195070Y-16387167D02*
X9204594Y-16406214D01*
X9204594Y-16406214D02*
X9204594Y-16510976D01*
X9328404Y-16510976D02*
X9309356Y-16501452D01*
X9309356Y-16501452D02*
X9299832Y-16491928D01*
X9299832Y-16491928D02*
X9290308Y-16472881D01*
X9290308Y-16472881D02*
X9290308Y-16415738D01*
X9290308Y-16415738D02*
X9299832Y-16396690D01*
X9299832Y-16396690D02*
X9309356Y-16387167D01*
X9309356Y-16387167D02*
X9328404Y-16377643D01*
X9328404Y-16377643D02*
X9356975Y-16377643D01*
X9356975Y-16377643D02*
X9376023Y-16387167D01*
X9376023Y-16387167D02*
X9385546Y-16396690D01*
X9385546Y-16396690D02*
X9395070Y-16415738D01*
X9395070Y-16415738D02*
X9395070Y-16472881D01*
X9395070Y-16472881D02*
X9385546Y-16491928D01*
X9385546Y-16491928D02*
X9376023Y-16501452D01*
X9376023Y-16501452D02*
X9356975Y-16510976D01*
X9356975Y-16510976D02*
X9328404Y-16510976D01*
X9452213Y-16377643D02*
X9528404Y-16377643D01*
X9480785Y-16310976D02*
X9480785Y-16482405D01*
X9480785Y-16482405D02*
X9490308Y-16501452D01*
X9490308Y-16501452D02*
X9509356Y-16510976D01*
X9509356Y-16510976D02*
X9528404Y-16510976D01*
X9715070Y-16377643D02*
X9715070Y-16577643D01*
X9715070Y-16387167D02*
X9734118Y-16377643D01*
X9734118Y-16377643D02*
X9772213Y-16377643D01*
X9772213Y-16377643D02*
X9791261Y-16387167D01*
X9791261Y-16387167D02*
X9800785Y-16396690D01*
X9800785Y-16396690D02*
X9810308Y-16415738D01*
X9810308Y-16415738D02*
X9810308Y-16472881D01*
X9810308Y-16472881D02*
X9800785Y-16491928D01*
X9800785Y-16491928D02*
X9791261Y-16501452D01*
X9791261Y-16501452D02*
X9772213Y-16510976D01*
X9772213Y-16510976D02*
X9734118Y-16510976D01*
X9734118Y-16510976D02*
X9715070Y-16501452D01*
X9924594Y-16510976D02*
X9905546Y-16501452D01*
X9905546Y-16501452D02*
X9896023Y-16482405D01*
X9896023Y-16482405D02*
X9896023Y-16310976D01*
X10086499Y-16510976D02*
X10086499Y-16406214D01*
X10086499Y-16406214D02*
X10076975Y-16387167D01*
X10076975Y-16387167D02*
X10057927Y-16377643D01*
X10057927Y-16377643D02*
X10019832Y-16377643D01*
X10019832Y-16377643D02*
X10000785Y-16387167D01*
X10086499Y-16501452D02*
X10067451Y-16510976D01*
X10067451Y-16510976D02*
X10019832Y-16510976D01*
X10019832Y-16510976D02*
X10000785Y-16501452D01*
X10000785Y-16501452D02*
X9991261Y-16482405D01*
X9991261Y-16482405D02*
X9991261Y-16463357D01*
X9991261Y-16463357D02*
X10000785Y-16444309D01*
X10000785Y-16444309D02*
X10019832Y-16434786D01*
X10019832Y-16434786D02*
X10067451Y-16434786D01*
X10067451Y-16434786D02*
X10086499Y-16425262D01*
X10153166Y-16377643D02*
X10229356Y-16377643D01*
X10181737Y-16310976D02*
X10181737Y-16482405D01*
X10181737Y-16482405D02*
X10191261Y-16501452D01*
X10191261Y-16501452D02*
X10210308Y-16510976D01*
X10210308Y-16510976D02*
X10229356Y-16510976D01*
X10372213Y-16501452D02*
X10353166Y-16510976D01*
X10353166Y-16510976D02*
X10315070Y-16510976D01*
X10315070Y-16510976D02*
X10296023Y-16501452D01*
X10296023Y-16501452D02*
X10286499Y-16482405D01*
X10286499Y-16482405D02*
X10286499Y-16406214D01*
X10286499Y-16406214D02*
X10296023Y-16387167D01*
X10296023Y-16387167D02*
X10315070Y-16377643D01*
X10315070Y-16377643D02*
X10353166Y-16377643D01*
X10353166Y-16377643D02*
X10372213Y-16387167D01*
X10372213Y-16387167D02*
X10381737Y-16406214D01*
X10381737Y-16406214D02*
X10381737Y-16425262D01*
X10381737Y-16425262D02*
X10286499Y-16444309D01*
X10553166Y-16510976D02*
X10553166Y-16310976D01*
X10553166Y-16501452D02*
X10534118Y-16510976D01*
X10534118Y-16510976D02*
X10496023Y-16510976D01*
X10496023Y-16510976D02*
X10476975Y-16501452D01*
X10476975Y-16501452D02*
X10467451Y-16491928D01*
X10467451Y-16491928D02*
X10457927Y-16472881D01*
X10457927Y-16472881D02*
X10457927Y-16415738D01*
X10457927Y-16415738D02*
X10467451Y-16396690D01*
X10467451Y-16396690D02*
X10476975Y-16387167D01*
X10476975Y-16387167D02*
X10496023Y-16377643D01*
X10496023Y-16377643D02*
X10534118Y-16377643D01*
X10534118Y-16377643D02*
X10553166Y-16387167D01*
X10629356Y-16587167D02*
X10638880Y-16577643D01*
X10638880Y-16577643D02*
X10657927Y-16549071D01*
X10657927Y-16549071D02*
X10667451Y-16530024D01*
X10667451Y-16530024D02*
X10676975Y-16501452D01*
X10676975Y-16501452D02*
X10686499Y-16453833D01*
X10686499Y-16453833D02*
X10686499Y-16415738D01*
X10686499Y-16415738D02*
X10676975Y-16368119D01*
X10676975Y-16368119D02*
X10667451Y-16339548D01*
X10667451Y-16339548D02*
X10657927Y-16320500D01*
X10657927Y-16320500D02*
X10638880Y-16291928D01*
X10638880Y-16291928D02*
X10629356Y-16282405D01*
M02*
