%TF.GenerationSoftware,KiCad,Pcbnew,7.0.1-0*%
%TF.CreationDate,2023-04-13T09:07:15-04:00*%
%TF.ProjectId,WrightFlyer,57726967-6874-4466-9c79-65722e6b6963,v03*%
%TF.SameCoordinates,Original*%
%TF.FileFunction,Copper,L1,Top*%
%TF.FilePolarity,Positive*%
%FSLAX46Y46*%
G04 Gerber Fmt 4.6, Leading zero omitted, Abs format (unit mm)*
G04 Created by KiCad (PCBNEW 7.0.1-0) date 2023-04-13 09:07:15*
%MOMM*%
%LPD*%
G01*
G04 APERTURE LIST*
%ADD10C,0.200000*%
%TA.AperFunction,NonConductor*%
%ADD11C,0.200000*%
%TD*%
%TA.AperFunction,ComponentPad*%
%ADD12R,1.524000X1.524000*%
%TD*%
%TA.AperFunction,ComponentPad*%
%ADD13C,1.524000*%
%TD*%
%TA.AperFunction,ComponentPad*%
%ADD14R,2.000000X2.000000*%
%TD*%
%TA.AperFunction,ComponentPad*%
%ADD15C,2.000000*%
%TD*%
%TA.AperFunction,ViaPad*%
%ADD16C,0.800000*%
%TD*%
%TA.AperFunction,Conductor*%
%ADD17C,0.250000*%
%TD*%
G04 APERTURE END LIST*
D10*
D11*
X65551985Y-114978714D02*
X65551985Y-115550142D01*
X65151985Y-114350142D02*
X65551985Y-114978714D01*
X65551985Y-114978714D02*
X65951985Y-114350142D01*
X66351985Y-115550142D02*
X66351985Y-114750142D01*
X66351985Y-114864428D02*
X66409128Y-114807285D01*
X66409128Y-114807285D02*
X66523413Y-114750142D01*
X66523413Y-114750142D02*
X66694842Y-114750142D01*
X66694842Y-114750142D02*
X66809128Y-114807285D01*
X66809128Y-114807285D02*
X66866271Y-114921571D01*
X66866271Y-114921571D02*
X66866271Y-115550142D01*
X66866271Y-114921571D02*
X66923413Y-114807285D01*
X66923413Y-114807285D02*
X67037699Y-114750142D01*
X67037699Y-114750142D02*
X67209128Y-114750142D01*
X67209128Y-114750142D02*
X67323413Y-114807285D01*
X67323413Y-114807285D02*
X67380556Y-114921571D01*
X67380556Y-114921571D02*
X67380556Y-115550142D01*
X68123413Y-115550142D02*
X68009128Y-115493000D01*
X68009128Y-115493000D02*
X67951985Y-115378714D01*
X67951985Y-115378714D02*
X67951985Y-114350142D01*
X68580556Y-114750142D02*
X68580556Y-115778714D01*
X68580556Y-115778714D02*
X68523413Y-115893000D01*
X68523413Y-115893000D02*
X68409127Y-115950142D01*
X68409127Y-115950142D02*
X68351984Y-115950142D01*
X68580556Y-114350142D02*
X68523413Y-114407285D01*
X68523413Y-114407285D02*
X68580556Y-114464428D01*
X68580556Y-114464428D02*
X68637699Y-114407285D01*
X68637699Y-114407285D02*
X68580556Y-114350142D01*
X68580556Y-114350142D02*
X68580556Y-114464428D01*
X69609128Y-115493000D02*
X69494842Y-115550142D01*
X69494842Y-115550142D02*
X69266271Y-115550142D01*
X69266271Y-115550142D02*
X69151985Y-115493000D01*
X69151985Y-115493000D02*
X69094842Y-115378714D01*
X69094842Y-115378714D02*
X69094842Y-114921571D01*
X69094842Y-114921571D02*
X69151985Y-114807285D01*
X69151985Y-114807285D02*
X69266271Y-114750142D01*
X69266271Y-114750142D02*
X69494842Y-114750142D01*
X69494842Y-114750142D02*
X69609128Y-114807285D01*
X69609128Y-114807285D02*
X69666271Y-114921571D01*
X69666271Y-114921571D02*
X69666271Y-115035857D01*
X69666271Y-115035857D02*
X69094842Y-115150142D01*
X70066270Y-114350142D02*
X70351984Y-115550142D01*
X70351984Y-115550142D02*
X70580556Y-114693000D01*
X70580556Y-114693000D02*
X70809127Y-115550142D01*
X70809127Y-115550142D02*
X71094842Y-114350142D01*
X71551985Y-115550142D02*
X71551985Y-114350142D01*
X71551985Y-114350142D02*
X72237699Y-115550142D01*
X72237699Y-115550142D02*
X72237699Y-114350142D01*
X72751985Y-115493000D02*
X72866271Y-115550142D01*
X72866271Y-115550142D02*
X73094842Y-115550142D01*
X73094842Y-115550142D02*
X73209128Y-115493000D01*
X73209128Y-115493000D02*
X73266271Y-115378714D01*
X73266271Y-115378714D02*
X73266271Y-115321571D01*
X73266271Y-115321571D02*
X73209128Y-115207285D01*
X73209128Y-115207285D02*
X73094842Y-115150142D01*
X73094842Y-115150142D02*
X72923414Y-115150142D01*
X72923414Y-115150142D02*
X72809128Y-115093000D01*
X72809128Y-115093000D02*
X72751985Y-114978714D01*
X72751985Y-114978714D02*
X72751985Y-114921571D01*
X72751985Y-114921571D02*
X72809128Y-114807285D01*
X72809128Y-114807285D02*
X72923414Y-114750142D01*
X72923414Y-114750142D02*
X73094842Y-114750142D01*
X73094842Y-114750142D02*
X73209128Y-114807285D01*
X73666271Y-114350142D02*
X74466271Y-114350142D01*
X74466271Y-114350142D02*
X73666271Y-115550142D01*
X73666271Y-115550142D02*
X74466271Y-115550142D01*
X74809128Y-114350142D02*
X75609128Y-115550142D01*
X75609128Y-114350142D02*
X74809128Y-115550142D01*
X76066271Y-115550142D02*
X76066271Y-114350142D01*
X76066271Y-114350142D02*
X76466271Y-115207285D01*
X76466271Y-115207285D02*
X76866271Y-114350142D01*
X76866271Y-114350142D02*
X76866271Y-115550142D01*
X77437700Y-114921571D02*
X78351986Y-114921571D01*
X78351986Y-115264428D02*
X77437700Y-115264428D01*
D12*
%TO.P,J5,1,Pin_1*%
%TO.N,VDD33*%
X69140000Y-78835500D03*
D13*
%TO.P,J5,2,Pin_2*%
%TO.N,GND*%
X69140000Y-81375500D03*
%TO.P,J5,3,Pin_3*%
%TO.N,SDA*%
X71680000Y-78835500D03*
%TO.P,J5,4,Pin_4*%
%TO.N,SCL*%
X71680000Y-81375500D03*
%TO.P,J5,5,Pin_5*%
%TO.N,GPIO1*%
X74220000Y-78835500D03*
%TO.P,J5,6,Pin_6*%
%TO.N,GPIO2*%
X74220000Y-81375500D03*
%TD*%
D12*
%TO.P,J6,1,Pin_1*%
%TO.N,VDD33*%
X231597800Y-78982900D03*
D13*
%TO.P,J6,2,Pin_2*%
%TO.N,GND*%
X231597800Y-81522900D03*
%TO.P,J6,3,Pin_3*%
%TO.N,SDA*%
X234137800Y-78982900D03*
%TO.P,J6,4,Pin_4*%
%TO.N,SCL*%
X234137800Y-81522900D03*
%TO.P,J6,5,Pin_5*%
%TO.N,GPIO1*%
X236677800Y-78982900D03*
%TO.P,J6,6,Pin_6*%
%TO.N,GPIO2*%
X236677800Y-81522900D03*
%TD*%
D12*
%TO.P,J4,1,Pin_1*%
%TO.N,Programming_TX*%
X70195800Y-89836200D03*
D13*
%TO.P,J4,2,Pin_2*%
%TO.N,Programming_RX*%
X72735800Y-89836200D03*
%TO.P,J4,3,Pin_3*%
%TO.N,GND*%
X70195800Y-92376200D03*
%TO.P,J4,4,Pin_4*%
%TO.N,VBUS*%
X72735800Y-92376200D03*
%TO.P,J4,5,Pin_5*%
%TO.N,EN*%
X70195800Y-94916200D03*
%TO.P,J4,6,Pin_6*%
%TO.N,Boot_Button*%
X72735800Y-94916200D03*
%TD*%
D14*
%TO.P,BT1,1,+*%
%TO.N,VBUS*%
X224247500Y-85090000D03*
D15*
%TO.P,BT1,2,-*%
%TO.N,GND*%
X224247500Y-97790000D03*
%TD*%
D16*
%TO.N,WiFi_On{slash}Off*%
X95268700Y-93883000D03*
X102264800Y-100561800D03*
%TO.N,GND*%
X105410000Y-108966000D03*
X98806000Y-72898000D03*
X83566000Y-73152000D03*
X125984000Y-90424000D03*
%TO.N,VBUS*%
X136731400Y-83834400D03*
X73712100Y-100025900D03*
%TO.N,SDA*%
X106682300Y-79031300D03*
%TO.N,LED_B*%
X132143700Y-97670900D03*
X108408000Y-84855500D03*
%TO.N,LED_G*%
X121271500Y-88207600D03*
X109503800Y-84771400D03*
%TO.N,LED_R*%
X111212300Y-85061800D03*
X119864400Y-87551200D03*
%TO.N,GPIO2*%
X92809500Y-83834400D03*
%TD*%
D17*
%TO.N,WiFi_On{slash}Off*%
X95268700Y-93883000D02*
X101947500Y-100561800D01*
X101947500Y-100561800D02*
X102264800Y-100561800D01*
%TO.N,VBUS*%
X222922400Y-85090000D02*
X221548000Y-83715600D01*
X221548000Y-83715600D02*
X136850200Y-83715600D01*
X136731400Y-83834400D02*
X101817500Y-83834400D01*
X73712100Y-100025900D02*
X73823000Y-99915000D01*
X93275700Y-92376200D02*
X73823000Y-92376200D01*
X73823000Y-99915000D02*
X73823000Y-92376200D01*
X224247500Y-85090000D02*
X222922400Y-85090000D01*
X101817500Y-83834400D02*
X93275700Y-92376200D01*
X136850200Y-83715600D02*
X136731400Y-83834400D01*
X73823000Y-92376200D02*
X72735800Y-92376200D01*
%TO.N,SDA*%
X106682300Y-79031300D02*
X105388300Y-77737300D01*
X107833700Y-77879900D02*
X233034800Y-77879900D01*
X72778200Y-77737300D02*
X71680000Y-78835500D01*
X106682300Y-79031300D02*
X107833700Y-77879900D01*
X105388300Y-77737300D02*
X72778200Y-77737300D01*
X233034800Y-77879900D02*
X234137800Y-78982900D01*
%TO.N,SCL*%
X72799100Y-80256400D02*
X74932800Y-80256400D01*
X71680000Y-81375500D02*
X72799100Y-80256400D01*
X74932800Y-80256400D02*
X77329700Y-82653300D01*
X77329700Y-82653300D02*
X233007400Y-82653300D01*
X233007400Y-82653300D02*
X234137800Y-81522900D01*
%TO.N,LED_B*%
X116731900Y-86033800D02*
X109586300Y-86033800D01*
X128369000Y-97670900D02*
X116731900Y-86033800D01*
X132143700Y-97670900D02*
X128369000Y-97670900D01*
X109586300Y-86033800D02*
X108408000Y-84855500D01*
%TO.N,LED_G*%
X117675400Y-84336700D02*
X109938500Y-84336700D01*
X121271500Y-88207600D02*
X121271500Y-87932800D01*
X109938500Y-84336700D02*
X109503800Y-84771400D01*
X121271500Y-87932800D02*
X117675400Y-84336700D01*
%TO.N,LED_R*%
X111212300Y-85061800D02*
X117375000Y-85061800D01*
X117375000Y-85061800D02*
X119864400Y-87551200D01*
%TO.N,GPIO1*%
X235566600Y-80094100D02*
X236677800Y-78982900D01*
X74220000Y-78835500D02*
X75478600Y-80094100D01*
X75478600Y-80094100D02*
X235566600Y-80094100D01*
%TO.N,GPIO2*%
X92809500Y-83834400D02*
X76678900Y-83834400D01*
X235097200Y-83103500D02*
X236677800Y-81522900D01*
X76678900Y-83834400D02*
X74220000Y-81375500D01*
X92809500Y-83834400D02*
X93540400Y-83103500D01*
X93540400Y-83103500D02*
X235097200Y-83103500D01*
%TD*%
%TA.AperFunction,Conductor*%
%TO.N,GND*%
G36*
X84998924Y-62863583D02*
G01*
X85044242Y-62908366D01*
X85061341Y-62969741D01*
X85133979Y-69078210D01*
X85133979Y-69078211D01*
X85133980Y-69078211D01*
X107993980Y-69078211D01*
X107922341Y-63053816D01*
X107921376Y-62972688D01*
X107937492Y-62910068D01*
X107982942Y-62864074D01*
X108045367Y-62847215D01*
X239856485Y-62847215D01*
X239882068Y-62849883D01*
X240828560Y-63049454D01*
X240874648Y-63069597D01*
X241667984Y-63631510D01*
X241701212Y-63666577D01*
X242232999Y-64510229D01*
X242249973Y-64553482D01*
X242439274Y-65562289D01*
X242441401Y-65585158D01*
X242441401Y-113587521D01*
X242439274Y-113610390D01*
X242249973Y-114619195D01*
X242232999Y-114662448D01*
X241701212Y-115506100D01*
X241667984Y-115541167D01*
X240874648Y-116103080D01*
X240828561Y-116123223D01*
X240038063Y-116289903D01*
X239882067Y-116322796D01*
X239856485Y-116325464D01*
X79571629Y-116325464D01*
X79509629Y-116308851D01*
X79464242Y-116263464D01*
X79447629Y-116201464D01*
X79447629Y-113465071D01*
X64227771Y-113465071D01*
X64227771Y-115649297D01*
X64209693Y-115713768D01*
X64160730Y-115759441D01*
X64095160Y-115772998D01*
X64032100Y-115750486D01*
X63736574Y-115541167D01*
X63703346Y-115506100D01*
X63171560Y-114662449D01*
X63154586Y-114619196D01*
X62965286Y-113610390D01*
X62963159Y-113587521D01*
X62963159Y-101968735D01*
X134791878Y-101968735D01*
X150824458Y-100346894D01*
X151331284Y-99333243D01*
X151347888Y-99013610D01*
X223377442Y-99013610D01*
X223424266Y-99050055D01*
X223642893Y-99168368D01*
X223878006Y-99249083D01*
X224123207Y-99290000D01*
X224371793Y-99290000D01*
X224616993Y-99249083D01*
X224852106Y-99168368D01*
X225070733Y-99050053D01*
X225117556Y-99013609D01*
X224247500Y-98143553D01*
X223377442Y-99013609D01*
X223377442Y-99013610D01*
X151347888Y-99013610D01*
X151398861Y-98032390D01*
X151398860Y-98032389D01*
X151398861Y-98032389D01*
X151149920Y-97790000D01*
X222742358Y-97790000D01*
X222762886Y-98037732D01*
X222823913Y-98278721D01*
X222923768Y-98506370D01*
X223024063Y-98659882D01*
X223024064Y-98659882D01*
X223893947Y-97790001D01*
X224601053Y-97790001D01*
X225470934Y-98659882D01*
X225571230Y-98506369D01*
X225671086Y-98278721D01*
X225732113Y-98037732D01*
X225752641Y-97790000D01*
X225732113Y-97542267D01*
X225671086Y-97301278D01*
X225571230Y-97073630D01*
X225470934Y-96920116D01*
X224601053Y-97790000D01*
X224601053Y-97790001D01*
X223893947Y-97790001D01*
X223893947Y-97789999D01*
X223024064Y-96920116D01*
X222923766Y-97073634D01*
X222823913Y-97301278D01*
X222762886Y-97542267D01*
X222742358Y-97790000D01*
X151149920Y-97790000D01*
X151069194Y-97711399D01*
X150756882Y-97407306D01*
X150756880Y-97407305D01*
X149354664Y-97052528D01*
X146415075Y-97305940D01*
X145097327Y-97559353D01*
X143441705Y-97947918D01*
X141467644Y-98555320D01*
X141462478Y-98556787D01*
X140687949Y-98758839D01*
X140096651Y-99130511D01*
X139550630Y-99692593D01*
X139519225Y-99716035D01*
X139482072Y-99728505D01*
X138571542Y-99880260D01*
X138513315Y-99876032D01*
X138463475Y-99845628D01*
X138373444Y-99755596D01*
X137900407Y-99502184D01*
X137511841Y-99468395D01*
X137511840Y-99468396D01*
X137238637Y-100014803D01*
X137197631Y-100061767D01*
X137138954Y-100082840D01*
X136878370Y-100106529D01*
X136837750Y-100103504D01*
X136800302Y-100087480D01*
X136413719Y-99840068D01*
X136413717Y-99840068D01*
X135923788Y-100177951D01*
X134897838Y-101898898D01*
X134871861Y-101929692D01*
X134837382Y-101950533D01*
X134791878Y-101968735D01*
X62963159Y-101968735D01*
X62963159Y-92376200D01*
X68928978Y-92376200D01*
X68948224Y-92596178D01*
X69005379Y-92809481D01*
X69098698Y-93009606D01*
X69144058Y-93074387D01*
X69842246Y-92376201D01*
X69842246Y-92376200D01*
X69144058Y-91678011D01*
X69144058Y-91678012D01*
X69098700Y-91742789D01*
X69005378Y-91942919D01*
X68948224Y-92156221D01*
X68928978Y-92376200D01*
X62963159Y-92376200D01*
X62963159Y-82427240D01*
X68441812Y-82427240D01*
X68506593Y-82472601D01*
X68706718Y-82565920D01*
X68920021Y-82623075D01*
X69140000Y-82642321D01*
X69359978Y-82623075D01*
X69573281Y-82565920D01*
X69773408Y-82472600D01*
X69838187Y-82427240D01*
X69140001Y-81729053D01*
X69140000Y-81729053D01*
X68441812Y-82427240D01*
X62963159Y-82427240D01*
X62963159Y-81375500D01*
X67873178Y-81375500D01*
X67892424Y-81595478D01*
X67949579Y-81808781D01*
X68042898Y-82008906D01*
X68088258Y-82073687D01*
X68786446Y-81375501D01*
X68786446Y-81375500D01*
X68088258Y-80677311D01*
X68088258Y-80677312D01*
X68042900Y-80742089D01*
X67949578Y-80942219D01*
X67892424Y-81155521D01*
X67873178Y-81375500D01*
X62963159Y-81375500D01*
X62963159Y-79646134D01*
X67869500Y-79646134D01*
X67876011Y-79706705D01*
X67927110Y-79843703D01*
X68014738Y-79960761D01*
X68131796Y-80048389D01*
X68268794Y-80099488D01*
X68268797Y-80099488D01*
X68268799Y-80099489D01*
X68329362Y-80106000D01*
X68329366Y-80106000D01*
X68359525Y-80106000D01*
X68419641Y-80121547D01*
X68464683Y-80164290D01*
X68483355Y-80223511D01*
X68470975Y-80284358D01*
X68442324Y-80317903D01*
X68441811Y-80323758D01*
X69140000Y-81021946D01*
X69140001Y-81021946D01*
X69838187Y-80323758D01*
X69837675Y-80317905D01*
X69809023Y-80284358D01*
X69796644Y-80223510D01*
X69815316Y-80164290D01*
X69860358Y-80121547D01*
X69920474Y-80106000D01*
X69950634Y-80106000D01*
X69950638Y-80106000D01*
X70011201Y-80099489D01*
X70011203Y-80099488D01*
X70011205Y-80099488D01*
X70089124Y-80070424D01*
X70148204Y-80048389D01*
X70265261Y-79960761D01*
X70352889Y-79843704D01*
X70403989Y-79706701D01*
X70410500Y-79646138D01*
X70410500Y-79630792D01*
X70426047Y-79570676D01*
X70468790Y-79525634D01*
X70528010Y-79506962D01*
X70588858Y-79519342D01*
X70636073Y-79559668D01*
X70703023Y-79655281D01*
X70860219Y-79812477D01*
X71042323Y-79939988D01*
X71123293Y-79977745D01*
X71156260Y-79993118D01*
X71208436Y-80038875D01*
X71227855Y-80105500D01*
X71208436Y-80172125D01*
X71156260Y-80217882D01*
X71042323Y-80271012D01*
X70860218Y-80398523D01*
X70703023Y-80555718D01*
X70575513Y-80737821D01*
X70517692Y-80861818D01*
X70471934Y-80913993D01*
X70405309Y-80933412D01*
X70338684Y-80913992D01*
X70292928Y-80861816D01*
X70237099Y-80742090D01*
X70191740Y-80677311D01*
X69493553Y-81375500D01*
X69493553Y-81375501D01*
X70191740Y-82073686D01*
X70237097Y-82008912D01*
X70292927Y-81889184D01*
X70338684Y-81837008D01*
X70405309Y-81817588D01*
X70471934Y-81837007D01*
X70517692Y-81889183D01*
X70550294Y-81959096D01*
X70575512Y-82013177D01*
X70703023Y-82195281D01*
X70860219Y-82352477D01*
X71042323Y-82479988D01*
X71243804Y-82573940D01*
X71458537Y-82631478D01*
X71680000Y-82650853D01*
X71901463Y-82631478D01*
X72116196Y-82573940D01*
X72317677Y-82479988D01*
X72499781Y-82352477D01*
X72656977Y-82195281D01*
X72784488Y-82013177D01*
X72837618Y-81899238D01*
X72883375Y-81847063D01*
X72950000Y-81827644D01*
X73016625Y-81847063D01*
X73062381Y-81899238D01*
X73115512Y-82013177D01*
X73243023Y-82195281D01*
X73400219Y-82352477D01*
X73582323Y-82479988D01*
X73783804Y-82573940D01*
X73998537Y-82631478D01*
X74220000Y-82650853D01*
X74441463Y-82631478D01*
X74481629Y-82620714D01*
X74545815Y-82620714D01*
X74601404Y-82652808D01*
X76171812Y-84223217D01*
X76184856Y-84239498D01*
X76186899Y-84241416D01*
X76186900Y-84241418D01*
X76236584Y-84288074D01*
X76239348Y-84290753D01*
X76259130Y-84310535D01*
X76262411Y-84313080D01*
X76271270Y-84320647D01*
X76303579Y-84350986D01*
X76321464Y-84360818D01*
X76337725Y-84371499D01*
X76353859Y-84384014D01*
X76394525Y-84401610D01*
X76405012Y-84406748D01*
X76443840Y-84428095D01*
X76463608Y-84433170D01*
X76482019Y-84439473D01*
X76500755Y-84447581D01*
X76544526Y-84454513D01*
X76555941Y-84456877D01*
X76598870Y-84467900D01*
X76619284Y-84467900D01*
X76638683Y-84469427D01*
X76658843Y-84472620D01*
X76702956Y-84468450D01*
X76714626Y-84467900D01*
X92102191Y-84467900D01*
X92152627Y-84478621D01*
X92194341Y-84508928D01*
X92198247Y-84513266D01*
X92284871Y-84576202D01*
X92352748Y-84625518D01*
X92527214Y-84703195D01*
X92714011Y-84742900D01*
X92714013Y-84742900D01*
X92904987Y-84742900D01*
X92904989Y-84742900D01*
X93091785Y-84703195D01*
X93091786Y-84703194D01*
X93091788Y-84703194D01*
X93266252Y-84625518D01*
X93420753Y-84513266D01*
X93548540Y-84371344D01*
X93551903Y-84365520D01*
X93644027Y-84205956D01*
X93644027Y-84205955D01*
X93703042Y-84024328D01*
X93720481Y-83858396D01*
X93731883Y-83817975D01*
X93756124Y-83783678D01*
X93766492Y-83773310D01*
X93806720Y-83746437D01*
X93854167Y-83737000D01*
X100719633Y-83737000D01*
X100775928Y-83750515D01*
X100819951Y-83788115D01*
X100842106Y-83841602D01*
X100837564Y-83899318D01*
X100807314Y-83948681D01*
X93049614Y-91706381D01*
X93009386Y-91733261D01*
X92961933Y-91742700D01*
X73907762Y-91742700D01*
X73850505Y-91728689D01*
X73806187Y-91689823D01*
X73797916Y-91678011D01*
X73712777Y-91556419D01*
X73555581Y-91399223D01*
X73373477Y-91271712D01*
X73373476Y-91271711D01*
X73373474Y-91271710D01*
X73259539Y-91218581D01*
X73207363Y-91172823D01*
X73187944Y-91106198D01*
X73207364Y-91039573D01*
X73259538Y-90993818D01*
X73373477Y-90940688D01*
X73555581Y-90813177D01*
X73712777Y-90655981D01*
X73840288Y-90473877D01*
X73934240Y-90272396D01*
X73991778Y-90057663D01*
X74011153Y-89836200D01*
X73991778Y-89614737D01*
X73934240Y-89400004D01*
X73840288Y-89198524D01*
X73712777Y-89016419D01*
X73555581Y-88859223D01*
X73373477Y-88731712D01*
X73280581Y-88688394D01*
X73171997Y-88637760D01*
X72957260Y-88580221D01*
X72735800Y-88560846D01*
X72514339Y-88580221D01*
X72299602Y-88637760D01*
X72098123Y-88731712D01*
X71916018Y-88859223D01*
X71758823Y-89016418D01*
X71691875Y-89112031D01*
X71644658Y-89152358D01*
X71583810Y-89164738D01*
X71524590Y-89146066D01*
X71481847Y-89101024D01*
X71466300Y-89040908D01*
X71466300Y-89025566D01*
X71459788Y-88964994D01*
X71408689Y-88827996D01*
X71321061Y-88710938D01*
X71204003Y-88623310D01*
X71067005Y-88572211D01*
X71036719Y-88568955D01*
X71006438Y-88565700D01*
X69385162Y-88565700D01*
X69358245Y-88568593D01*
X69324594Y-88572211D01*
X69187596Y-88623310D01*
X69070538Y-88710938D01*
X68982910Y-88827996D01*
X68931811Y-88964994D01*
X68928193Y-88998645D01*
X68925300Y-89025562D01*
X68925300Y-90646838D01*
X68928555Y-90677119D01*
X68931811Y-90707405D01*
X68982910Y-90844403D01*
X69070538Y-90961461D01*
X69187596Y-91049089D01*
X69324594Y-91100188D01*
X69324597Y-91100188D01*
X69324599Y-91100189D01*
X69385162Y-91106700D01*
X69385166Y-91106700D01*
X69415325Y-91106700D01*
X69475441Y-91122247D01*
X69520483Y-91164990D01*
X69539155Y-91224211D01*
X69526775Y-91285058D01*
X69498124Y-91318603D01*
X69497611Y-91324458D01*
X70195800Y-92022646D01*
X70195801Y-92022646D01*
X70893987Y-91324458D01*
X70893475Y-91318605D01*
X70864823Y-91285058D01*
X70852444Y-91224210D01*
X70871116Y-91164990D01*
X70916158Y-91122247D01*
X70976274Y-91106700D01*
X71006434Y-91106700D01*
X71006438Y-91106700D01*
X71067001Y-91100189D01*
X71067003Y-91100188D01*
X71067005Y-91100188D01*
X71144924Y-91071124D01*
X71204004Y-91049089D01*
X71321061Y-90961461D01*
X71408689Y-90844404D01*
X71459789Y-90707401D01*
X71466300Y-90646838D01*
X71466300Y-90631492D01*
X71481847Y-90571376D01*
X71524590Y-90526334D01*
X71583810Y-90507662D01*
X71644658Y-90520042D01*
X71691873Y-90560368D01*
X71758823Y-90655981D01*
X71916019Y-90813177D01*
X72098123Y-90940688D01*
X72179093Y-90978445D01*
X72212060Y-90993818D01*
X72264236Y-91039575D01*
X72283655Y-91106200D01*
X72264236Y-91172825D01*
X72212060Y-91218582D01*
X72098123Y-91271712D01*
X71916018Y-91399223D01*
X71758823Y-91556418D01*
X71631313Y-91738521D01*
X71573492Y-91862518D01*
X71527734Y-91914693D01*
X71461109Y-91934112D01*
X71394484Y-91914692D01*
X71348728Y-91862516D01*
X71292899Y-91742790D01*
X71247540Y-91678011D01*
X70549353Y-92376200D01*
X70549353Y-92376201D01*
X71247540Y-93074386D01*
X71292897Y-93009612D01*
X71348727Y-92889884D01*
X71394484Y-92837708D01*
X71461109Y-92818288D01*
X71527734Y-92837707D01*
X71573492Y-92889883D01*
X71607223Y-92962217D01*
X71631312Y-93013877D01*
X71758823Y-93195981D01*
X71916019Y-93353177D01*
X72098123Y-93480688D01*
X72164080Y-93511444D01*
X72212060Y-93533818D01*
X72264236Y-93579575D01*
X72283655Y-93646200D01*
X72264236Y-93712825D01*
X72212060Y-93758582D01*
X72098123Y-93811712D01*
X71916018Y-93939223D01*
X71758823Y-94096418D01*
X71631312Y-94278523D01*
X71578182Y-94392461D01*
X71532425Y-94444637D01*
X71465800Y-94464056D01*
X71399175Y-94444637D01*
X71353418Y-94392461D01*
X71343930Y-94372114D01*
X71300288Y-94278524D01*
X71172777Y-94096419D01*
X71015581Y-93939223D01*
X70833477Y-93811712D01*
X70789669Y-93791284D01*
X70709483Y-93753892D01*
X70657307Y-93708134D01*
X70637888Y-93641509D01*
X70657308Y-93574884D01*
X70709484Y-93529127D01*
X70829212Y-93473297D01*
X70893987Y-93427940D01*
X70195801Y-92729753D01*
X70195800Y-92729753D01*
X69497612Y-93427940D01*
X69562392Y-93473300D01*
X69682116Y-93529128D01*
X69734292Y-93574884D01*
X69753712Y-93641509D01*
X69734293Y-93708134D01*
X69682118Y-93753892D01*
X69558121Y-93811713D01*
X69376018Y-93939223D01*
X69218823Y-94096418D01*
X69091312Y-94278523D01*
X68997360Y-94480002D01*
X68939821Y-94694739D01*
X68920446Y-94916199D01*
X68939821Y-95137660D01*
X68997360Y-95352397D01*
X69013852Y-95387763D01*
X69091312Y-95553877D01*
X69218823Y-95735981D01*
X69376019Y-95893177D01*
X69558123Y-96020688D01*
X69759604Y-96114640D01*
X69974337Y-96172178D01*
X70195800Y-96191553D01*
X70417263Y-96172178D01*
X70631996Y-96114640D01*
X70833477Y-96020688D01*
X71015581Y-95893177D01*
X71172777Y-95735981D01*
X71300288Y-95553877D01*
X71353418Y-95439938D01*
X71399175Y-95387763D01*
X71465800Y-95368344D01*
X71532425Y-95387763D01*
X71578181Y-95439938D01*
X71631312Y-95553877D01*
X71758823Y-95735981D01*
X71916019Y-95893177D01*
X72098123Y-96020688D01*
X72299604Y-96114640D01*
X72514337Y-96172178D01*
X72735800Y-96191553D01*
X72957263Y-96172178D01*
X73033407Y-96151774D01*
X73089691Y-96149932D01*
X73140986Y-96173174D01*
X73176712Y-96216706D01*
X73189500Y-96271550D01*
X73189500Y-99219443D01*
X73175985Y-99275738D01*
X73138386Y-99319759D01*
X73119829Y-99333243D01*
X73100844Y-99347036D01*
X72973059Y-99488955D01*
X72877572Y-99654343D01*
X72818558Y-99835970D01*
X72798596Y-100025899D01*
X72818558Y-100215829D01*
X72877572Y-100397456D01*
X72973057Y-100562841D01*
X72973060Y-100562844D01*
X73100847Y-100704766D01*
X73165486Y-100751729D01*
X73255348Y-100817018D01*
X73429814Y-100894695D01*
X73616611Y-100934400D01*
X73616613Y-100934400D01*
X73807587Y-100934400D01*
X73807589Y-100934400D01*
X73994385Y-100894695D01*
X73994386Y-100894694D01*
X73994388Y-100894694D01*
X74168852Y-100817018D01*
X74323353Y-100704766D01*
X74451140Y-100562844D01*
X74451744Y-100561799D01*
X74546627Y-100397456D01*
X74563056Y-100346893D01*
X74605642Y-100215828D01*
X74625604Y-100025900D01*
X74605642Y-99835972D01*
X74559189Y-99693006D01*
X74546627Y-99654343D01*
X74473113Y-99527014D01*
X74456500Y-99465014D01*
X74456500Y-93883000D01*
X94355196Y-93883000D01*
X94360526Y-93933715D01*
X94375158Y-94072929D01*
X94434172Y-94254556D01*
X94529657Y-94419941D01*
X94529660Y-94419944D01*
X94657447Y-94561866D01*
X94811948Y-94674118D01*
X94986414Y-94751795D01*
X95173211Y-94791500D01*
X95173213Y-94791500D01*
X95229934Y-94791500D01*
X95277387Y-94800939D01*
X95317615Y-94827819D01*
X101428455Y-100938659D01*
X101448161Y-100964340D01*
X101525757Y-101098741D01*
X101525760Y-101098744D01*
X101653547Y-101240666D01*
X101808048Y-101352918D01*
X101982514Y-101430595D01*
X102169311Y-101470300D01*
X102169313Y-101470300D01*
X102360287Y-101470300D01*
X102360289Y-101470300D01*
X102547085Y-101430595D01*
X102547086Y-101430594D01*
X102547088Y-101430594D01*
X102721552Y-101352918D01*
X102876053Y-101240666D01*
X103003840Y-101098744D01*
X103099327Y-100933356D01*
X103158342Y-100751728D01*
X103178304Y-100561800D01*
X103158342Y-100371872D01*
X103099327Y-100190244D01*
X103099327Y-100190243D01*
X103003842Y-100024858D01*
X102984242Y-100003091D01*
X102876053Y-99882934D01*
X102721552Y-99770682D01*
X102721551Y-99770681D01*
X102547085Y-99693004D01*
X102360289Y-99653300D01*
X102360287Y-99653300D01*
X102169313Y-99653300D01*
X102169310Y-99653300D01*
X102041848Y-99680392D01*
X101980850Y-99677996D01*
X101928387Y-99646783D01*
X96215320Y-93933715D01*
X96191080Y-93899417D01*
X96179681Y-93859000D01*
X96162242Y-93693072D01*
X96103227Y-93511444D01*
X96103227Y-93511443D01*
X96007742Y-93346058D01*
X95988142Y-93324291D01*
X95879953Y-93204134D01*
X95725452Y-93091882D01*
X95725451Y-93091881D01*
X95550985Y-93014204D01*
X95364189Y-92974500D01*
X95364187Y-92974500D01*
X95173213Y-92974500D01*
X95173211Y-92974500D01*
X94986414Y-93014204D01*
X94811948Y-93091881D01*
X94657448Y-93204133D01*
X94529657Y-93346058D01*
X94434172Y-93511443D01*
X94375158Y-93693070D01*
X94362688Y-93811713D01*
X94355196Y-93883000D01*
X74456500Y-93883000D01*
X74456500Y-93133700D01*
X74473113Y-93071700D01*
X74518500Y-93026313D01*
X74580500Y-93009700D01*
X93192067Y-93009700D01*
X93212808Y-93011989D01*
X93215605Y-93011901D01*
X93215609Y-93011902D01*
X93283717Y-93009760D01*
X93287613Y-93009700D01*
X93315554Y-93009700D01*
X93315556Y-93009700D01*
X93319656Y-93009181D01*
X93331306Y-93008264D01*
X93375589Y-93006873D01*
X93395198Y-93001175D01*
X93414231Y-92997233D01*
X93434497Y-92994674D01*
X93475706Y-92978357D01*
X93486737Y-92974580D01*
X93529293Y-92962218D01*
X93546860Y-92951828D01*
X93564332Y-92943268D01*
X93583317Y-92935752D01*
X93619175Y-92909698D01*
X93628923Y-92903296D01*
X93667062Y-92880742D01*
X93681500Y-92866303D01*
X93696288Y-92853672D01*
X93712807Y-92841672D01*
X93741059Y-92807519D01*
X93748903Y-92798899D01*
X102043584Y-84504219D01*
X102083813Y-84477339D01*
X102131266Y-84467900D01*
X107408015Y-84467900D01*
X107464310Y-84481415D01*
X107508333Y-84519015D01*
X107530488Y-84572503D01*
X107525946Y-84630214D01*
X107514458Y-84665571D01*
X107514458Y-84665572D01*
X107494496Y-84855500D01*
X107514458Y-85045429D01*
X107573472Y-85227056D01*
X107668957Y-85392441D01*
X107698355Y-85425091D01*
X107796747Y-85534366D01*
X107916153Y-85621120D01*
X107951248Y-85646618D01*
X108125714Y-85724295D01*
X108312511Y-85764000D01*
X108312513Y-85764000D01*
X108369234Y-85764000D01*
X108416687Y-85773439D01*
X108456915Y-85800319D01*
X109079212Y-86422617D01*
X109092256Y-86438898D01*
X109094299Y-86440816D01*
X109094300Y-86440818D01*
X109143985Y-86487475D01*
X109146748Y-86490153D01*
X109166530Y-86509935D01*
X109169811Y-86512480D01*
X109178670Y-86520047D01*
X109210979Y-86550386D01*
X109228864Y-86560218D01*
X109245125Y-86570899D01*
X109261259Y-86583414D01*
X109301925Y-86601010D01*
X109312412Y-86606148D01*
X109351240Y-86627495D01*
X109371008Y-86632570D01*
X109389419Y-86638873D01*
X109408155Y-86646981D01*
X109451926Y-86653913D01*
X109463341Y-86656277D01*
X109506270Y-86667300D01*
X109526684Y-86667300D01*
X109546083Y-86668827D01*
X109566243Y-86672020D01*
X109610356Y-86667850D01*
X109622026Y-86667300D01*
X116418134Y-86667300D01*
X116465587Y-86676739D01*
X116505815Y-86703619D01*
X117145183Y-87342987D01*
X117176846Y-87397009D01*
X117178076Y-87459615D01*
X117148558Y-87514839D01*
X117095820Y-87548599D01*
X117033311Y-87552285D01*
X116376061Y-87421550D01*
X116376059Y-87421550D01*
X116376058Y-87421550D01*
X116376056Y-87421550D01*
X115200670Y-87655349D01*
X115195104Y-87655897D01*
X115184473Y-87658543D01*
X115174324Y-87667730D01*
X114183836Y-88329555D01*
X114183667Y-88329667D01*
X113518345Y-89325392D01*
X113505781Y-89340699D01*
X113504222Y-89372440D01*
X113275331Y-90523147D01*
X113275323Y-90523190D01*
X113273113Y-90534277D01*
X113281510Y-90552031D01*
X113509118Y-91696292D01*
X113509122Y-91696339D01*
X113511561Y-91708574D01*
X114173306Y-92698945D01*
X114173397Y-92699136D01*
X114183667Y-92714452D01*
X114718327Y-93071700D01*
X115163625Y-93369239D01*
X115179132Y-93379600D01*
X115183990Y-93383587D01*
X115189543Y-93386556D01*
X115189544Y-93386557D01*
X115189545Y-93386558D01*
X115189846Y-93386618D01*
X115247239Y-93398059D01*
X115247353Y-93398056D01*
X116370088Y-93621383D01*
X116381893Y-93624339D01*
X116386813Y-93625831D01*
X116406521Y-93616511D01*
X116934730Y-93511443D01*
X117531820Y-93392674D01*
X117531873Y-93392676D01*
X117562271Y-93386617D01*
X117562272Y-93386618D01*
X117562573Y-93386558D01*
X117562619Y-93386526D01*
X117563121Y-93386194D01*
X117587986Y-93369794D01*
X117588487Y-93369242D01*
X118383986Y-92837707D01*
X118568449Y-92714453D01*
X118593061Y-92677750D01*
X118593235Y-92677355D01*
X119240557Y-91708574D01*
X119240617Y-91708273D01*
X119240616Y-91708272D01*
X119240634Y-91708183D01*
X119246675Y-91677874D01*
X119246673Y-91677821D01*
X119476569Y-90522061D01*
X119476530Y-90521866D01*
X119466984Y-90473877D01*
X119394628Y-90110119D01*
X119345833Y-89864806D01*
X119349519Y-89802298D01*
X119383279Y-89749560D01*
X119438503Y-89720042D01*
X119501109Y-89721272D01*
X119555131Y-89752935D01*
X127861910Y-98059714D01*
X127874959Y-98076001D01*
X127876999Y-98077916D01*
X127877000Y-98077918D01*
X127926701Y-98124590D01*
X127929465Y-98127269D01*
X127949231Y-98147035D01*
X127952497Y-98149568D01*
X127961375Y-98157150D01*
X127993679Y-98187486D01*
X128011570Y-98197321D01*
X128027823Y-98207997D01*
X128039816Y-98217299D01*
X128043961Y-98220515D01*
X128084618Y-98238108D01*
X128095102Y-98243243D01*
X128133940Y-98264595D01*
X128153714Y-98269672D01*
X128172119Y-98275973D01*
X128190855Y-98284081D01*
X128234630Y-98291013D01*
X128246041Y-98293377D01*
X128288970Y-98304400D01*
X128309384Y-98304400D01*
X128328783Y-98305927D01*
X128348943Y-98309120D01*
X128393056Y-98304950D01*
X128404726Y-98304400D01*
X131436391Y-98304400D01*
X131486827Y-98315121D01*
X131528542Y-98345429D01*
X131532446Y-98349765D01*
X131686948Y-98462018D01*
X131861414Y-98539695D01*
X132048211Y-98579400D01*
X132048213Y-98579400D01*
X132239187Y-98579400D01*
X132239189Y-98579400D01*
X132425985Y-98539695D01*
X132425986Y-98539694D01*
X132425988Y-98539694D01*
X132600452Y-98462018D01*
X132754953Y-98349766D01*
X132882740Y-98207844D01*
X132886102Y-98202022D01*
X132978227Y-98042456D01*
X133008944Y-97947920D01*
X133037242Y-97860828D01*
X133057204Y-97670900D01*
X133037242Y-97480972D01*
X132980370Y-97305940D01*
X132978227Y-97299343D01*
X132882742Y-97133958D01*
X132828422Y-97073630D01*
X132754953Y-96992034D01*
X132600452Y-96879782D01*
X132600451Y-96879781D01*
X132425985Y-96802104D01*
X132239189Y-96762400D01*
X132239187Y-96762400D01*
X132048213Y-96762400D01*
X132048211Y-96762400D01*
X131861414Y-96802104D01*
X131686948Y-96879781D01*
X131532446Y-96992034D01*
X131528542Y-96996371D01*
X131486827Y-97026679D01*
X131436391Y-97037400D01*
X128682766Y-97037400D01*
X128635313Y-97027961D01*
X128595085Y-97001081D01*
X128160394Y-96566390D01*
X223377442Y-96566390D01*
X224247500Y-97436447D01*
X224247501Y-97436447D01*
X225117557Y-96566390D01*
X225117556Y-96566388D01*
X225070735Y-96529947D01*
X224852106Y-96411631D01*
X224616993Y-96330916D01*
X224371793Y-96290000D01*
X224123207Y-96290000D01*
X223878006Y-96330916D01*
X223642893Y-96411631D01*
X223424264Y-96529946D01*
X223377442Y-96566388D01*
X223377442Y-96566390D01*
X128160394Y-96566390D01*
X120880346Y-89286342D01*
X120848595Y-89232007D01*
X120847606Y-89169083D01*
X120877635Y-89113777D01*
X120930946Y-89080335D01*
X120993808Y-89077371D01*
X121176012Y-89116100D01*
X121176013Y-89116100D01*
X121366987Y-89116100D01*
X121366989Y-89116100D01*
X121553785Y-89076395D01*
X121553786Y-89076394D01*
X121553788Y-89076394D01*
X121728252Y-88998718D01*
X121882753Y-88886466D01*
X122010540Y-88744544D01*
X122029943Y-88710938D01*
X122106027Y-88579156D01*
X122111976Y-88560846D01*
X122165042Y-88397528D01*
X122185004Y-88207600D01*
X122165042Y-88017672D01*
X122106027Y-87836044D01*
X122106027Y-87836043D01*
X122010542Y-87670658D01*
X121903958Y-87552285D01*
X121882753Y-87528734D01*
X121736630Y-87422569D01*
X121728251Y-87416481D01*
X121610153Y-87363901D01*
X121572907Y-87338302D01*
X118914186Y-84679581D01*
X118883936Y-84630218D01*
X118879394Y-84572502D01*
X118901549Y-84519015D01*
X118945572Y-84481415D01*
X119001867Y-84467900D01*
X136024091Y-84467900D01*
X136074527Y-84478621D01*
X136116241Y-84508928D01*
X136120147Y-84513266D01*
X136206771Y-84576202D01*
X136274648Y-84625518D01*
X136449114Y-84703195D01*
X136635911Y-84742900D01*
X136635913Y-84742900D01*
X136826887Y-84742900D01*
X136826889Y-84742900D01*
X137013685Y-84703195D01*
X137013686Y-84703194D01*
X137013688Y-84703194D01*
X137188152Y-84625518D01*
X137342653Y-84513266D01*
X137453528Y-84390126D01*
X137495241Y-84359820D01*
X137545676Y-84349100D01*
X157526782Y-84349100D01*
X157587371Y-84364910D01*
X157632509Y-84408310D01*
X157650686Y-84468232D01*
X157637267Y-84529395D01*
X157595673Y-84576202D01*
X157009599Y-84967804D01*
X157009430Y-84967916D01*
X156344108Y-85963641D01*
X156331544Y-85978948D01*
X156329985Y-86010689D01*
X156101094Y-87161396D01*
X156101086Y-87161439D01*
X156098876Y-87172526D01*
X156107273Y-87190280D01*
X156334881Y-88334541D01*
X156334885Y-88334588D01*
X156337324Y-88346823D01*
X156999069Y-89337194D01*
X156999160Y-89337385D01*
X157009430Y-89352701D01*
X157401595Y-89614737D01*
X157989388Y-90007488D01*
X158004898Y-90017851D01*
X158004995Y-90017930D01*
X158014579Y-90024320D01*
X158015052Y-90024636D01*
X158015053Y-90024637D01*
X158015308Y-90024807D01*
X158015310Y-90024807D01*
X158015311Y-90024808D01*
X158073001Y-90036308D01*
X158073116Y-90036305D01*
X159195851Y-90259632D01*
X159207656Y-90262588D01*
X159212576Y-90264080D01*
X159232284Y-90254760D01*
X159644768Y-90172711D01*
X160357583Y-90030923D01*
X160357636Y-90030925D01*
X160388034Y-90024866D01*
X160388035Y-90024867D01*
X160388336Y-90024807D01*
X160388382Y-90024775D01*
X160388884Y-90024443D01*
X160413749Y-90008043D01*
X160414250Y-90007491D01*
X161323422Y-89400002D01*
X161394212Y-89352702D01*
X161418824Y-89315999D01*
X161418998Y-89315604D01*
X162066320Y-88346823D01*
X162066380Y-88346522D01*
X162066379Y-88346521D01*
X162066397Y-88346432D01*
X162072438Y-88316123D01*
X162072436Y-88316070D01*
X162302332Y-87160310D01*
X162302293Y-87160115D01*
X162202074Y-86656281D01*
X162099108Y-86138634D01*
X162066320Y-85973795D01*
X162066150Y-85973540D01*
X162066149Y-85973539D01*
X162066020Y-85973347D01*
X162059449Y-85963488D01*
X162059364Y-85963385D01*
X161877494Y-85691198D01*
X161567365Y-85227056D01*
X161394213Y-84967916D01*
X161394045Y-84967804D01*
X160807971Y-84576202D01*
X160766377Y-84529395D01*
X160752958Y-84468232D01*
X160771135Y-84408310D01*
X160816273Y-84364910D01*
X160876862Y-84349100D01*
X221234234Y-84349100D01*
X221281687Y-84358539D01*
X221321915Y-84385419D01*
X222415312Y-85478817D01*
X222428356Y-85495098D01*
X222430399Y-85497016D01*
X222430400Y-85497018D01*
X222480085Y-85543675D01*
X222482848Y-85546353D01*
X222502630Y-85566135D01*
X222505911Y-85568680D01*
X222514770Y-85576247D01*
X222547079Y-85606586D01*
X222564964Y-85616418D01*
X222581225Y-85627099D01*
X222597359Y-85639614D01*
X222638025Y-85657210D01*
X222648503Y-85662343D01*
X222674739Y-85676767D01*
X222721732Y-85722307D01*
X222739000Y-85785428D01*
X222739000Y-86138634D01*
X222745511Y-86199205D01*
X222796610Y-86336203D01*
X222884238Y-86453261D01*
X223001296Y-86540889D01*
X223138294Y-86591988D01*
X223138297Y-86591988D01*
X223138299Y-86591989D01*
X223198862Y-86598500D01*
X225296134Y-86598500D01*
X225296138Y-86598500D01*
X225356701Y-86591989D01*
X225356703Y-86591988D01*
X225356705Y-86591988D01*
X225441881Y-86560218D01*
X225493704Y-86540889D01*
X225610761Y-86453261D01*
X225698389Y-86336204D01*
X225749489Y-86199201D01*
X225756000Y-86138638D01*
X225756000Y-84041362D01*
X225749489Y-83980799D01*
X225737509Y-83948681D01*
X225720969Y-83904335D01*
X225714117Y-83845548D01*
X225735293Y-83790281D01*
X225779675Y-83751125D01*
X225837150Y-83737000D01*
X235013567Y-83737000D01*
X235034308Y-83739289D01*
X235037105Y-83739201D01*
X235037109Y-83739202D01*
X235105217Y-83737060D01*
X235109113Y-83737000D01*
X235137054Y-83737000D01*
X235137056Y-83737000D01*
X235141156Y-83736481D01*
X235152806Y-83735564D01*
X235197089Y-83734173D01*
X235216698Y-83728475D01*
X235235731Y-83724533D01*
X235255997Y-83721974D01*
X235297206Y-83705657D01*
X235308237Y-83701880D01*
X235350793Y-83689518D01*
X235368360Y-83679128D01*
X235385832Y-83670568D01*
X235404817Y-83663052D01*
X235440675Y-83636998D01*
X235450423Y-83630596D01*
X235488562Y-83608042D01*
X235503000Y-83593603D01*
X235517788Y-83580972D01*
X235534307Y-83568972D01*
X235562559Y-83534819D01*
X235570403Y-83526199D01*
X236296396Y-82800206D01*
X236351983Y-82768114D01*
X236416170Y-82768114D01*
X236456337Y-82778878D01*
X236677800Y-82798253D01*
X236899263Y-82778878D01*
X237113996Y-82721340D01*
X237315477Y-82627388D01*
X237497581Y-82499877D01*
X237654777Y-82342681D01*
X237782288Y-82160577D01*
X237876240Y-81959096D01*
X237933778Y-81744363D01*
X237953153Y-81522900D01*
X237933778Y-81301437D01*
X237876240Y-81086704D01*
X237782288Y-80885224D01*
X237654777Y-80703119D01*
X237497581Y-80545923D01*
X237315477Y-80418412D01*
X237315476Y-80418411D01*
X237315474Y-80418410D01*
X237201539Y-80365281D01*
X237149363Y-80319523D01*
X237129944Y-80252898D01*
X237149364Y-80186273D01*
X237201538Y-80140518D01*
X237315477Y-80087388D01*
X237497581Y-79959877D01*
X237654777Y-79802681D01*
X237782288Y-79620577D01*
X237876240Y-79419096D01*
X237933778Y-79204363D01*
X237953153Y-78982900D01*
X237933778Y-78761437D01*
X237876240Y-78546704D01*
X237782288Y-78345224D01*
X237654777Y-78163119D01*
X237497581Y-78005923D01*
X237315477Y-77878412D01*
X237205858Y-77827296D01*
X237113997Y-77784460D01*
X236899260Y-77726921D01*
X236677800Y-77707546D01*
X236456339Y-77726921D01*
X236241602Y-77784460D01*
X236040123Y-77878412D01*
X235858018Y-78005923D01*
X235700823Y-78163118D01*
X235573312Y-78345223D01*
X235520182Y-78459161D01*
X235474425Y-78511337D01*
X235407800Y-78530756D01*
X235341175Y-78511337D01*
X235295418Y-78459161D01*
X235259240Y-78381578D01*
X235242288Y-78345224D01*
X235114777Y-78163119D01*
X234957581Y-78005923D01*
X234775477Y-77878412D01*
X234665858Y-77827296D01*
X234573997Y-77784460D01*
X234359260Y-77726921D01*
X234137800Y-77707546D01*
X233916336Y-77726921D01*
X233876168Y-77737684D01*
X233811982Y-77737684D01*
X233756395Y-77705590D01*
X233541888Y-77491083D01*
X233528844Y-77474801D01*
X233477131Y-77426240D01*
X233474364Y-77423559D01*
X233454570Y-77403765D01*
X233454569Y-77403764D01*
X233454568Y-77403763D01*
X233451295Y-77401224D01*
X233442422Y-77393645D01*
X233410121Y-77363314D01*
X233392233Y-77353480D01*
X233375969Y-77342796D01*
X233359840Y-77330285D01*
X233319177Y-77312689D01*
X233308683Y-77307548D01*
X233269862Y-77286205D01*
X233254713Y-77282316D01*
X233250084Y-77281127D01*
X233231679Y-77274826D01*
X233224751Y-77271828D01*
X233212945Y-77266719D01*
X233212943Y-77266718D01*
X233212942Y-77266718D01*
X233169183Y-77259787D01*
X233157743Y-77257418D01*
X233114831Y-77246400D01*
X233114830Y-77246400D01*
X233094416Y-77246400D01*
X233075017Y-77244873D01*
X233054858Y-77241680D01*
X233054857Y-77241680D01*
X233029140Y-77244111D01*
X233010743Y-77245850D01*
X232999074Y-77246400D01*
X107917328Y-77246400D01*
X107896592Y-77244111D01*
X107893791Y-77244199D01*
X107841260Y-77245850D01*
X107825701Y-77246339D01*
X107821806Y-77246400D01*
X107793844Y-77246400D01*
X107789732Y-77246919D01*
X107778101Y-77247834D01*
X107733810Y-77249226D01*
X107714207Y-77254922D01*
X107695156Y-77258867D01*
X107674903Y-77261425D01*
X107633708Y-77277735D01*
X107622662Y-77281516D01*
X107580105Y-77293881D01*
X107562527Y-77304276D01*
X107545060Y-77312833D01*
X107526084Y-77320346D01*
X107490244Y-77346385D01*
X107480486Y-77352795D01*
X107442337Y-77375357D01*
X107427896Y-77389798D01*
X107413109Y-77402427D01*
X107396592Y-77414428D01*
X107368352Y-77448563D01*
X107360492Y-77457201D01*
X106769980Y-78047713D01*
X106714393Y-78079807D01*
X106650205Y-78079807D01*
X106594618Y-78047713D01*
X105895388Y-77348483D01*
X105882344Y-77332201D01*
X105830648Y-77283656D01*
X105827851Y-77280945D01*
X105808073Y-77261167D01*
X105804795Y-77258624D01*
X105795922Y-77251045D01*
X105763621Y-77220714D01*
X105745733Y-77210880D01*
X105729469Y-77200196D01*
X105713340Y-77187685D01*
X105672677Y-77170089D01*
X105662183Y-77164948D01*
X105623362Y-77143605D01*
X105611686Y-77140607D01*
X105603584Y-77138527D01*
X105585179Y-77132226D01*
X105566445Y-77124119D01*
X105566443Y-77124118D01*
X105566442Y-77124118D01*
X105522683Y-77117187D01*
X105511243Y-77114818D01*
X105468331Y-77103800D01*
X105468330Y-77103800D01*
X105447916Y-77103800D01*
X105428517Y-77102273D01*
X105408358Y-77099080D01*
X105408357Y-77099080D01*
X105382640Y-77101511D01*
X105364243Y-77103250D01*
X105352574Y-77103800D01*
X72861828Y-77103800D01*
X72841092Y-77101511D01*
X72838291Y-77101599D01*
X72785760Y-77103250D01*
X72770201Y-77103739D01*
X72766306Y-77103800D01*
X72738344Y-77103800D01*
X72734232Y-77104319D01*
X72722601Y-77105234D01*
X72678310Y-77106626D01*
X72658707Y-77112322D01*
X72639655Y-77116267D01*
X72619399Y-77118826D01*
X72578197Y-77135138D01*
X72567151Y-77138921D01*
X72524602Y-77151283D01*
X72507031Y-77161674D01*
X72489570Y-77170229D01*
X72470583Y-77177747D01*
X72434742Y-77203787D01*
X72424980Y-77210199D01*
X72386839Y-77232755D01*
X72372396Y-77247198D01*
X72357609Y-77259827D01*
X72341092Y-77271828D01*
X72312852Y-77305963D01*
X72304992Y-77314601D01*
X72061403Y-77558190D01*
X72005816Y-77590284D01*
X71941629Y-77590284D01*
X71901461Y-77579521D01*
X71679999Y-77560146D01*
X71458539Y-77579521D01*
X71243802Y-77637060D01*
X71042323Y-77731012D01*
X70860218Y-77858523D01*
X70703023Y-78015718D01*
X70636075Y-78111331D01*
X70588858Y-78151658D01*
X70528010Y-78164038D01*
X70468790Y-78145366D01*
X70426047Y-78100324D01*
X70410500Y-78040208D01*
X70410500Y-78024866D01*
X70408464Y-78005926D01*
X70403989Y-77964299D01*
X70403988Y-77964297D01*
X70403988Y-77964294D01*
X70352889Y-77827296D01*
X70265261Y-77710238D01*
X70148203Y-77622610D01*
X70011205Y-77571511D01*
X69980919Y-77568255D01*
X69950638Y-77565000D01*
X68329362Y-77565000D01*
X68302445Y-77567893D01*
X68268794Y-77571511D01*
X68131796Y-77622610D01*
X68014738Y-77710238D01*
X67927110Y-77827296D01*
X67876011Y-77964294D01*
X67869500Y-78024866D01*
X67869500Y-79646134D01*
X62963159Y-79646134D01*
X62963159Y-70000000D01*
X66654696Y-70000000D01*
X66673897Y-70366406D01*
X66731293Y-70728788D01*
X66826258Y-71083200D01*
X66957744Y-71425735D01*
X67124320Y-71752656D01*
X67324146Y-72060363D01*
X67439600Y-72202936D01*
X67555051Y-72345506D01*
X67814494Y-72604949D01*
X68004587Y-72758883D01*
X68099636Y-72835853D01*
X68407343Y-73035679D01*
X68407348Y-73035682D01*
X68734264Y-73202255D01*
X69076801Y-73333742D01*
X69431206Y-73428705D01*
X69431209Y-73428705D01*
X69431211Y-73428706D01*
X69793593Y-73486102D01*
X69843373Y-73488710D01*
X70160000Y-73505304D01*
X70491645Y-73487923D01*
X70526406Y-73486102D01*
X70888788Y-73428706D01*
X70888788Y-73428705D01*
X70888794Y-73428705D01*
X71243199Y-73333742D01*
X71585736Y-73202255D01*
X71912652Y-73035682D01*
X72220366Y-72835851D01*
X72505506Y-72604949D01*
X72764949Y-72345506D01*
X72995851Y-72060366D01*
X73195682Y-71752652D01*
X73362255Y-71425736D01*
X73493742Y-71083199D01*
X73588705Y-70728794D01*
X73646102Y-70366404D01*
X73665304Y-70000000D01*
X232714696Y-70000000D01*
X232733897Y-70366406D01*
X232791293Y-70728788D01*
X232886258Y-71083200D01*
X233017744Y-71425735D01*
X233184320Y-71752656D01*
X233384146Y-72060363D01*
X233499600Y-72202936D01*
X233615051Y-72345506D01*
X233874494Y-72604949D01*
X234064587Y-72758883D01*
X234159636Y-72835853D01*
X234467343Y-73035679D01*
X234467348Y-73035682D01*
X234794264Y-73202255D01*
X235136801Y-73333742D01*
X235491206Y-73428705D01*
X235491209Y-73428705D01*
X235491211Y-73428706D01*
X235853593Y-73486102D01*
X235903373Y-73488710D01*
X236220000Y-73505304D01*
X236551645Y-73487923D01*
X236586406Y-73486102D01*
X236948788Y-73428706D01*
X236948788Y-73428705D01*
X236948794Y-73428705D01*
X237303199Y-73333742D01*
X237645736Y-73202255D01*
X237972652Y-73035682D01*
X238280366Y-72835851D01*
X238565506Y-72604949D01*
X238824949Y-72345506D01*
X239055851Y-72060366D01*
X239255682Y-71752652D01*
X239422255Y-71425736D01*
X239553742Y-71083199D01*
X239648705Y-70728794D01*
X239706102Y-70366404D01*
X239725304Y-70000000D01*
X239706102Y-69633596D01*
X239648705Y-69271206D01*
X239553742Y-68916801D01*
X239422255Y-68574264D01*
X239255682Y-68247348D01*
X239058067Y-67943046D01*
X239055853Y-67939636D01*
X238828093Y-67658377D01*
X238824949Y-67654494D01*
X238565506Y-67395051D01*
X238422935Y-67279599D01*
X238280363Y-67164146D01*
X237972656Y-66964320D01*
X237645735Y-66797744D01*
X237303200Y-66666258D01*
X236948788Y-66571293D01*
X236586406Y-66513897D01*
X236220000Y-66494696D01*
X235853593Y-66513897D01*
X235491211Y-66571293D01*
X235136799Y-66666258D01*
X234794264Y-66797744D01*
X234467343Y-66964320D01*
X234159636Y-67164146D01*
X233874490Y-67395054D01*
X233615054Y-67654490D01*
X233384146Y-67939636D01*
X233184320Y-68247343D01*
X233017744Y-68574264D01*
X232886258Y-68916799D01*
X232791293Y-69271211D01*
X232733897Y-69633593D01*
X232714696Y-70000000D01*
X73665304Y-70000000D01*
X73646102Y-69633596D01*
X73588705Y-69271206D01*
X73493742Y-68916801D01*
X73362255Y-68574264D01*
X73195682Y-68247348D01*
X72998067Y-67943046D01*
X72995853Y-67939636D01*
X72768093Y-67658377D01*
X72764949Y-67654494D01*
X72505506Y-67395051D01*
X72362935Y-67279599D01*
X72220363Y-67164146D01*
X71912656Y-66964320D01*
X71585735Y-66797744D01*
X71243200Y-66666258D01*
X70888788Y-66571293D01*
X70526406Y-66513897D01*
X70160000Y-66494696D01*
X69793593Y-66513897D01*
X69431211Y-66571293D01*
X69076799Y-66666258D01*
X68734264Y-66797744D01*
X68407343Y-66964320D01*
X68099636Y-67164146D01*
X67814490Y-67395054D01*
X67555054Y-67654490D01*
X67324146Y-67939636D01*
X67124320Y-68247343D01*
X66957744Y-68574264D01*
X66826258Y-68916799D01*
X66731293Y-69271211D01*
X66673897Y-69633593D01*
X66654696Y-70000000D01*
X62963159Y-70000000D01*
X62963159Y-65585158D01*
X62965286Y-65562289D01*
X63154586Y-64553481D01*
X63171560Y-64510228D01*
X63703346Y-63666577D01*
X63736574Y-63631510D01*
X64529911Y-63069597D01*
X64575997Y-63049454D01*
X65522491Y-62849883D01*
X65548075Y-62847215D01*
X84937350Y-62847215D01*
X84998924Y-62863583D01*
G37*
%TD.AperFunction*%
%TD*%
%TA.AperFunction,NonConductor*%
G36*
X105121987Y-78380239D02*
G01*
X105162215Y-78407119D01*
X105735678Y-78980582D01*
X105759917Y-79014879D01*
X105771318Y-79055301D01*
X105788758Y-79221229D01*
X105813795Y-79298282D01*
X105818337Y-79355998D01*
X105796182Y-79409485D01*
X105752159Y-79447085D01*
X105695864Y-79460600D01*
X75792367Y-79460600D01*
X75744914Y-79451161D01*
X75704686Y-79424281D01*
X75497309Y-79216904D01*
X75465215Y-79161316D01*
X75465216Y-79097128D01*
X75475978Y-79056964D01*
X75495353Y-78835500D01*
X75488873Y-78761437D01*
X75475978Y-78614037D01*
X75452628Y-78526894D01*
X75450786Y-78470609D01*
X75474027Y-78419314D01*
X75517559Y-78383588D01*
X75572403Y-78370800D01*
X105074534Y-78370800D01*
X105121987Y-78380239D01*
G37*
%TD.AperFunction*%
%TA.AperFunction,NonConductor*%
G36*
X230265300Y-78530013D02*
G01*
X230310687Y-78575400D01*
X230327300Y-78637400D01*
X230327300Y-79336600D01*
X230310687Y-79398600D01*
X230265300Y-79443987D01*
X230203300Y-79460600D01*
X107668736Y-79460600D01*
X107612441Y-79447085D01*
X107568418Y-79409485D01*
X107546263Y-79355998D01*
X107550805Y-79298282D01*
X107575842Y-79221228D01*
X107593282Y-79055294D01*
X107604680Y-79014880D01*
X107628917Y-78980585D01*
X108059784Y-78549719D01*
X108100013Y-78522839D01*
X108147466Y-78513400D01*
X230203300Y-78513400D01*
X230265300Y-78530013D01*
G37*
%TD.AperFunction*%
%TA.AperFunction,NonConductor*%
G36*
X230441194Y-80742886D02*
G01*
X230486132Y-80784975D01*
X230505286Y-80843490D01*
X230493933Y-80904005D01*
X230407378Y-81089620D01*
X230350224Y-81302921D01*
X230330978Y-81522899D01*
X230350224Y-81742878D01*
X230382600Y-81863706D01*
X230384442Y-81919991D01*
X230361201Y-81971286D01*
X230317669Y-82007012D01*
X230262825Y-82019800D01*
X77643467Y-82019800D01*
X77596014Y-82010361D01*
X77555786Y-81983481D01*
X76511586Y-80939281D01*
X76481336Y-80889918D01*
X76476794Y-80832202D01*
X76498949Y-80778715D01*
X76542972Y-80741115D01*
X76599267Y-80727600D01*
X230381551Y-80727600D01*
X230441194Y-80742886D01*
G37*
%TD.AperFunction*%
M02*
