M48
; DRILL file {KiCad (6.0.6-0)} date Thursday, March 16, 2023 at 06:01:24 PM
; FORMAT={-:-/ absolute / inch / decimal}
; #@! TF.CreationDate,2023-03-16T18:01:24-04:00
; #@! TF.GenerationSoftware,Kicad,Pcbnew,(6.0.6-0)
; #@! TF.FileFunction,Plated,1,2,PTH
FMAT,2
INCH
; #@! TA.AperFunction,Plated,PTH,ViaDrill
T1C0.0157
; #@! TA.AperFunction,Plated,PTH,ComponentDrill
T2C0.0197
; #@! TA.AperFunction,Plated,PTH,ComponentDrill
T3C0.0394
; #@! TA.AperFunction,Plated,PTH,ComponentDrill
T4C0.0402
%
G90
G05
T1
X2.8064Y-4.2976
X2.929Y-4.323
X3.0351Y-3.6551
X3.2117Y-4.1426
X3.3525Y-3.494
X3.3957Y-2.8435
X3.5925Y-3.8876
X3.7501Y-4.1426
X3.7924Y-3.4181
X3.7937Y-3.8876
X3.8194Y-3.4493
X3.8696Y-3.0405
X3.9527Y-3.7704
X4.01Y-3.1213
X4.0114Y-3.6488
X4.0154Y-3.8857
X4.0196Y-2.8845
X4.0294Y-3.4785
X4.1927Y-2.8351
X4.7667Y-2.9214
X4.7974Y-3.4972
X4.811Y-2.7165
X5.4853Y-4.0396
X5.6185Y-3.9068
X5.7488Y-4.0751
X6.0439Y-3.4996
T3
X2.6914Y-3.75
X2.6914Y-3.85
X2.6941Y-3.1051
X2.6941Y-3.2051
X2.7914Y-3.75
X2.7914Y-3.85
X2.7941Y-3.1051
X2.7941Y-3.2051
X2.8914Y-3.75
X2.8914Y-3.85
X2.8941Y-3.1051
X2.8941Y-3.2051
X9.1204Y-3.1067
X9.1204Y-3.2067
X9.2204Y-3.1067
X9.2204Y-3.2067
X9.3204Y-3.1067
X9.3204Y-3.2067
T4
X8.9Y-3.2969
X8.9Y-3.7969
T2
G00X2.6362Y-4.2228
M15
G01X2.6638Y-4.2228
M16
G05
G00X2.6362Y-4.4827
M15
G01X2.6638Y-4.4827
M16
G05
T0
M30
