%TF.GenerationSoftware,KiCad,Pcbnew,(6.0.6-0)*%
%TF.CreationDate,2023-03-16T18:01:11-04:00*%
%TF.ProjectId,WrightFlyer,57726967-6874-4466-9c79-65722e6b6963,v01*%
%TF.SameCoordinates,Original*%
%TF.FileFunction,Soldermask,Bot*%
%TF.FilePolarity,Negative*%
%FSLAX46Y46*%
G04 Gerber Fmt 4.6, Leading zero omitted, Abs format (unit mm)*
G04 Created by KiCad (PCBNEW (6.0.6-0)) date 2023-03-16 18:01:11*
%MOMM*%
%LPD*%
G01*
G04 APERTURE LIST*
G04 Aperture macros list*
%AMRoundRect*
0 Rectangle with rounded corners*
0 $1 Rounding radius*
0 $2 $3 $4 $5 $6 $7 $8 $9 X,Y pos of 4 corners*
0 Add a 4 corners polygon primitive as box body*
4,1,4,$2,$3,$4,$5,$6,$7,$8,$9,$2,$3,0*
0 Add four circle primitives for the rounded corners*
1,1,$1+$1,$2,$3*
1,1,$1+$1,$4,$5*
1,1,$1+$1,$6,$7*
1,1,$1+$1,$8,$9*
0 Add four rect primitives between the rounded corners*
20,1,$1+$1,$2,$3,$4,$5,0*
20,1,$1+$1,$4,$5,$6,$7,0*
20,1,$1+$1,$6,$7,$8,$9,0*
20,1,$1+$1,$8,$9,$2,$3,0*%
%AMFreePoly0*
4,1,9,3.862500,-0.866500,0.737500,-0.866500,0.737500,-0.450000,-0.737500,-0.450000,-0.737500,0.450000,0.737500,0.450000,0.737500,0.866500,3.862500,0.866500,3.862500,-0.866500,3.862500,-0.866500,$1*%
G04 Aperture macros list end*
%ADD10C,1.600000*%
%ADD11R,1.700000X1.700000*%
%ADD12O,1.700000X1.700000*%
%ADD13R,1.200000X2.500000*%
%ADD14RoundRect,0.250000X0.350000X0.450000X-0.350000X0.450000X-0.350000X-0.450000X0.350000X-0.450000X0*%
%ADD15RoundRect,0.381000X0.381000X-0.762000X0.381000X0.762000X-0.381000X0.762000X-0.381000X-0.762000X0*%
%ADD16RoundRect,0.150000X-0.587500X-0.150000X0.587500X-0.150000X0.587500X0.150000X-0.587500X0.150000X0*%
%ADD17RoundRect,0.250000X-0.475000X0.337500X-0.475000X-0.337500X0.475000X-0.337500X0.475000X0.337500X0*%
%ADD18RoundRect,0.250000X0.475000X-0.337500X0.475000X0.337500X-0.475000X0.337500X-0.475000X-0.337500X0*%
%ADD19RoundRect,0.250000X-0.350000X-0.450000X0.350000X-0.450000X0.350000X0.450000X-0.350000X0.450000X0*%
%ADD20R,1.400000X2.600000*%
%ADD21RoundRect,0.250000X0.325000X0.450000X-0.325000X0.450000X-0.325000X-0.450000X0.325000X-0.450000X0*%
%ADD22C,2.000000*%
%ADD23R,1.500000X0.900000*%
%ADD24R,0.900000X1.500000*%
%ADD25R,0.900000X0.900000*%
%ADD26R,1.350000X0.400000*%
%ADD27R,1.400000X1.600000*%
%ADD28R,1.900000X1.900000*%
%ADD29O,1.800000X0.900000*%
%ADD30RoundRect,0.150000X0.587500X0.150000X-0.587500X0.150000X-0.587500X-0.150000X0.587500X-0.150000X0*%
%ADD31R,1.300000X0.900000*%
%ADD32FreePoly0,0.000000*%
%ADD33RoundRect,0.250000X-0.450000X0.350000X-0.450000X-0.350000X0.450000X-0.350000X0.450000X0.350000X0*%
G04 APERTURE END LIST*
D10*
%TO.C,D1*%
X148904140Y-99445940D02*
G75*
G03*
X148904140Y-99445940I-800000J0D01*
G01*
%TD*%
D11*
%TO.C,J4*%
X68361500Y-95249900D03*
D12*
X68361500Y-97789900D03*
X70901500Y-95249900D03*
X70901500Y-97789900D03*
X73441500Y-95249900D03*
X73441500Y-97789900D03*
%TD*%
D11*
%TO.C,J5*%
X68429300Y-78868800D03*
D12*
X68429300Y-81408800D03*
X70969300Y-78868800D03*
X70969300Y-81408800D03*
X73509300Y-78868800D03*
X73509300Y-81408800D03*
%TD*%
%TO.C,J6*%
X236737200Y-81450700D03*
X236737200Y-78910700D03*
X234197200Y-81450700D03*
X234197200Y-78910700D03*
X231657200Y-81450700D03*
D11*
X231657200Y-78910700D03*
%TD*%
D13*
%TO.C,SW4*%
X233659800Y-105735700D03*
X233659800Y-111235700D03*
X236159800Y-111235700D03*
X236159800Y-105735700D03*
X238659800Y-105735700D03*
X238659800Y-111235700D03*
%TD*%
D14*
%TO.C,R7*%
X81481000Y-82499800D03*
X79481000Y-82499800D03*
%TD*%
D15*
%TO.C,J2*%
X154904534Y-89993500D03*
X154940000Y-85993500D03*
%TD*%
D14*
%TO.C,R8*%
X81587200Y-77617200D03*
X79587200Y-77617200D03*
%TD*%
D16*
%TO.C,Q2*%
X76863000Y-109985800D03*
X76863000Y-108085800D03*
X78738000Y-109035800D03*
%TD*%
D13*
%TO.C,SW5*%
X109180000Y-111970000D03*
X109180000Y-106470000D03*
X106680000Y-106470000D03*
X106680000Y-111970000D03*
X104180000Y-111970000D03*
X104180000Y-106470000D03*
%TD*%
D17*
%TO.C,C2*%
X96360700Y-95477800D03*
X96360700Y-97552800D03*
%TD*%
D18*
%TO.C,C1*%
X101990000Y-97492900D03*
X101990000Y-95417900D03*
%TD*%
D19*
%TO.C,R2*%
X114313000Y-77404900D03*
X116313000Y-77404900D03*
%TD*%
D17*
%TO.C,C3*%
X91249300Y-95481400D03*
X91249300Y-97556400D03*
%TD*%
D20*
%TO.C,D1*%
X150688900Y-99303800D03*
X145488900Y-99303800D03*
%TD*%
D13*
%TO.C,SW3*%
X94020000Y-111970000D03*
X94020000Y-106470000D03*
X96520000Y-111970000D03*
X96520000Y-106470000D03*
X99020000Y-111970000D03*
X99020000Y-106470000D03*
%TD*%
%TO.C,SW1*%
X127198400Y-67128400D03*
X127198400Y-72628400D03*
X124698400Y-67128400D03*
X124698400Y-72628400D03*
X122198400Y-72628400D03*
X122198400Y-67128400D03*
%TD*%
D21*
%TO.C,D2*%
X141377500Y-103930800D03*
X139327500Y-103930800D03*
%TD*%
D22*
%TO.C,BT1*%
X226060000Y-83740000D03*
X226060000Y-96440000D03*
%TD*%
D14*
%TO.C,R5*%
X98506300Y-101994300D03*
X96506300Y-101994300D03*
%TD*%
D15*
%TO.C,J1*%
X123190034Y-93068900D03*
X123225500Y-89068900D03*
%TD*%
D23*
%TO.C,U1*%
X105130000Y-71960000D03*
X105130000Y-73230000D03*
X105130000Y-74500000D03*
X105130000Y-75770000D03*
X105130000Y-77040000D03*
X105130000Y-78310000D03*
X105130000Y-79580000D03*
X105130000Y-80850000D03*
X105130000Y-82120000D03*
X105130000Y-83390000D03*
X105130000Y-84660000D03*
X105130000Y-85930000D03*
X105130000Y-87200000D03*
X105130000Y-88470000D03*
D24*
X103365000Y-89720000D03*
X102095000Y-89720000D03*
X100825000Y-89720000D03*
X99555000Y-89720000D03*
X98285000Y-89720000D03*
X97015000Y-89720000D03*
X95745000Y-89720000D03*
X94475000Y-89720000D03*
X93205000Y-89720000D03*
X91935000Y-89720000D03*
X90665000Y-89720000D03*
X89395000Y-89720000D03*
D23*
X87630000Y-88470000D03*
X87630000Y-87200000D03*
X87630000Y-85930000D03*
X87630000Y-84660000D03*
X87630000Y-83390000D03*
X87630000Y-82120000D03*
X87630000Y-80850000D03*
X87630000Y-79580000D03*
X87630000Y-78310000D03*
X87630000Y-77040000D03*
X87630000Y-75770000D03*
X87630000Y-74500000D03*
X87630000Y-73230000D03*
X87630000Y-71960000D03*
D25*
X99280000Y-78280000D03*
X97880000Y-78280000D03*
X96480000Y-81080000D03*
X96480000Y-78280000D03*
X97880000Y-81080000D03*
X96480000Y-79680000D03*
X99280000Y-81080000D03*
X99280000Y-79680000D03*
X97880000Y-79680000D03*
%TD*%
D26*
%TO.C,J3*%
X69985000Y-111860000D03*
X69985000Y-111210000D03*
X69985000Y-110560000D03*
X69985000Y-109910000D03*
X69985000Y-109260000D03*
D27*
X69760000Y-113760000D03*
X69760000Y-107360000D03*
D28*
X67310000Y-109360000D03*
X67310000Y-111760000D03*
D29*
X67310000Y-113860000D03*
X67310000Y-107260000D03*
%TD*%
D14*
%TO.C,R1*%
X92394900Y-101897900D03*
X90394900Y-101897900D03*
%TD*%
D13*
%TO.C,SW2*%
X83860000Y-106470000D03*
X83860000Y-111970000D03*
X86360000Y-111970000D03*
X86360000Y-106470000D03*
X88860000Y-106470000D03*
X88860000Y-111970000D03*
%TD*%
D30*
%TO.C,Q1*%
X78075000Y-101920000D03*
X78075000Y-103820000D03*
X76200000Y-102870000D03*
%TD*%
D14*
%TO.C,R3*%
X87352600Y-101960900D03*
X85352600Y-101960900D03*
%TD*%
%TO.C,R9*%
X149224700Y-103786700D03*
X147224700Y-103786700D03*
%TD*%
D31*
%TO.C,U2*%
X78360000Y-92807100D03*
D32*
X78447500Y-91307100D03*
D31*
X78360000Y-89807100D03*
%TD*%
D14*
%TO.C,R4*%
X103817900Y-102091200D03*
X101817900Y-102091200D03*
%TD*%
D33*
%TO.C,R6*%
X85476000Y-95462400D03*
X85476000Y-97462400D03*
%TD*%
M02*
