M48
; DRILL file {KiCad 7.0.1-0} date 2023 March 26, Sunday 18:30:11
; FORMAT={-:-/ absolute / inch / decimal}
; #@! TF.CreationDate,2023-03-26T18:30:11-04:00
; #@! TF.GenerationSoftware,Kicad,Pcbnew,7.0.1-0
; #@! TF.FileFunction,Plated,1,2,PTH
FMAT,2
INCH
; #@! TA.AperFunction,Plated,PTH,ViaDrill
T1C0.0157
; #@! TA.AperFunction,Plated,PTH,ComponentDrill
T2C0.0300
; #@! TA.AperFunction,Plated,PTH,ComponentDrill
T3C0.0394
; #@! TA.AperFunction,Plated,PTH,ComponentDrill
T4C0.0402
%
G90
G05
T1
X2.85Y-3.35
X3.3Y-2.85
X3.6975Y-3.7274
X3.7Y-2.9
X3.7736Y-3.6504
X3.9271Y-3.7141
X4.1255Y-3.7252
X4.25Y-2.8
X4.3Y-3.0
X4.3804Y-3.2317
X4.4606Y-3.2083
X4.5291Y-3.2551
X4.6Y-3.0
X4.7Y-2.75
X4.7732Y-3.46
X5.0Y-3.5
X5.2408Y-3.4515
X5.6601Y-3.9376
T2
X2.722Y-3.1038
X2.722Y-3.2038
X2.822Y-3.1038
X2.822Y-3.2038
X2.922Y-3.1038
X2.922Y-3.2038
X9.118Y-3.1096
X9.118Y-3.2096
X9.218Y-3.1096
X9.218Y-3.2096
X9.318Y-3.1096
X9.318Y-3.2096
T3
X2.6495Y-3.5752
X2.6495Y-3.6752
X2.7495Y-3.5752
X2.7495Y-3.6752
X2.8495Y-3.5752
X2.8495Y-3.6752
T4
X8.8286Y-3.35
X8.8286Y-3.85
T0
M30
