M48
; DRILL file {KiCad 7.0.1-0} date 2023 April 13, Thursday 09:07:18
; FORMAT={-:-/ absolute / inch / decimal}
; #@! TF.CreationDate,2023-04-13T09:07:18-04:00
; #@! TF.GenerationSoftware,Kicad,Pcbnew,7.0.1-0
; #@! TF.FileFunction,Plated,1,2,PTH
FMAT,2
INCH
; #@! TA.AperFunction,Plated,PTH,ViaDrill
T1C0.0157
; #@! TA.AperFunction,Plated,PTH,ComponentDrill
T2C0.0300
; #@! TA.AperFunction,Plated,PTH,ComponentDrill
T3C0.0402
%
G90
G05
T1
X2.9021Y-3.938
X3.29Y-2.88
X3.6539Y-3.3006
X3.7507Y-3.6962
X3.89Y-2.87
X4.0262Y-3.9591
X4.15Y-4.29
X4.2001Y-3.1115
X4.268Y-3.3408
X4.3112Y-3.3375
X4.3784Y-3.3489
X4.7191Y-3.4469
X4.7745Y-3.4727
X4.96Y-3.56
X5.2025Y-3.8453
X5.3831Y-3.3006
T2
X2.722Y-3.1038
X2.722Y-3.2038
X2.7636Y-3.5369
X2.7636Y-3.6369
X2.7636Y-3.7369
X2.822Y-3.1038
X2.822Y-3.2038
X2.8636Y-3.5369
X2.8636Y-3.6369
X2.8636Y-3.7369
X2.922Y-3.1038
X2.922Y-3.2038
X9.118Y-3.1096
X9.118Y-3.2096
X9.218Y-3.1096
X9.218Y-3.2096
X9.318Y-3.1096
X9.318Y-3.2096
T3
X8.8286Y-3.35
X8.8286Y-3.85
T0
M30
