%TF.GenerationSoftware,KiCad,Pcbnew,(6.0.6-0)*%
%TF.CreationDate,2023-03-16T18:01:10-04:00*%
%TF.ProjectId,WrightFlyer,57726967-6874-4466-9c79-65722e6b6963,v01*%
%TF.SameCoordinates,Original*%
%TF.FileFunction,Copper,L1,Top*%
%TF.FilePolarity,Positive*%
%FSLAX46Y46*%
G04 Gerber Fmt 4.6, Leading zero omitted, Abs format (unit mm)*
G04 Created by KiCad (PCBNEW (6.0.6-0)) date 2023-03-16 18:01:10*
%MOMM*%
%LPD*%
G01*
G04 APERTURE LIST*
%TA.AperFunction,ComponentPad*%
%ADD10R,1.700000X1.700000*%
%TD*%
%TA.AperFunction,ComponentPad*%
%ADD11O,1.700000X1.700000*%
%TD*%
%TA.AperFunction,ComponentPad*%
%ADD12C,2.000000*%
%TD*%
%TA.AperFunction,ComponentPad*%
%ADD13O,1.800000X0.900000*%
%TD*%
%TA.AperFunction,ViaPad*%
%ADD14C,0.800000*%
%TD*%
%TA.AperFunction,Conductor*%
%ADD15C,0.250000*%
%TD*%
G04 APERTURE END LIST*
D10*
%TO.P,J4,1,Pin_1*%
%TO.N,Net-(J4-Pad1)*%
X68361500Y-95249900D03*
D11*
%TO.P,J4,2,Pin_2*%
%TO.N,Net-(J4-Pad2)*%
X68361500Y-97789900D03*
%TO.P,J4,3,Pin_3*%
%TO.N,GND*%
X70901500Y-95249900D03*
%TO.P,J4,4,Pin_4*%
%TO.N,VBUS*%
X70901500Y-97789900D03*
%TO.P,J4,5,Pin_5*%
%TO.N,EN*%
X73441500Y-95249900D03*
%TO.P,J4,6,Pin_6*%
%TO.N,Boot_Button*%
X73441500Y-97789900D03*
%TD*%
D10*
%TO.P,J5,1,Pin_1*%
%TO.N,VDD33*%
X68429300Y-78868800D03*
D11*
%TO.P,J5,2,Pin_2*%
%TO.N,GND*%
X68429300Y-81408800D03*
%TO.P,J5,3,Pin_3*%
%TO.N,SDA*%
X70969300Y-78868800D03*
%TO.P,J5,4,Pin_4*%
%TO.N,SCL*%
X70969300Y-81408800D03*
%TO.P,J5,5,Pin_5*%
%TO.N,GPIO1*%
X73509300Y-78868800D03*
%TO.P,J5,6,Pin_6*%
%TO.N,GPIO2*%
X73509300Y-81408800D03*
%TD*%
%TO.P,J6,6,Pin_6*%
%TO.N,GPIO2*%
X236737200Y-81450700D03*
%TO.P,J6,5,Pin_5*%
%TO.N,GPIO1*%
X236737200Y-78910700D03*
%TO.P,J6,4,Pin_4*%
%TO.N,SCL*%
X234197200Y-81450700D03*
%TO.P,J6,3,Pin_3*%
%TO.N,SDA*%
X234197200Y-78910700D03*
%TO.P,J6,2,Pin_2*%
%TO.N,GND*%
X231657200Y-81450700D03*
D10*
%TO.P,J6,1,Pin_1*%
%TO.N,VDD33*%
X231657200Y-78910700D03*
%TD*%
D12*
%TO.P,BT1,1,+*%
%TO.N,Net-(BT1-Pad1)*%
X226060000Y-83740000D03*
%TO.P,BT1,2,-*%
%TO.N,GND*%
X226060000Y-96440000D03*
%TD*%
D13*
%TO.P,J3,S5,SHIELD*%
%TO.N,Net-(J3-PadS1)*%
X67310000Y-113860000D03*
%TO.P,J3,S6,SHIELD*%
X67310000Y-107260000D03*
%TD*%
D14*
%TO.N,Boot_Button*%
X85153000Y-88746400D03*
%TO.N,GPIO2*%
X96325900Y-86820600D03*
%TO.N,Net-(J3-Pad3)*%
X101889200Y-92679900D03*
X81576200Y-105222500D03*
%TO.N,Net-(J3-Pad2)*%
X74397500Y-109805400D03*
X102345900Y-88353400D03*
%TO.N,SDA*%
X101853400Y-79280600D03*
%TO.N,VDD33*%
X102098200Y-73266600D03*
%TO.N,MOTOR_CTRL_MCU*%
X100398900Y-95768000D03*
X95253400Y-105222500D03*
%TO.N,LED1*%
X97012000Y-87611800D03*
X142708700Y-99233700D03*
%TO.N,GND*%
X106493700Y-72010700D03*
X139327500Y-102606100D03*
X122198400Y-68999600D03*
X153514400Y-88888900D03*
X77090300Y-92839600D03*
X121073000Y-74203500D03*
X91249300Y-98745900D03*
X98287600Y-77229900D03*
X146019100Y-103507900D03*
X101990000Y-98695600D03*
X71283300Y-109159700D03*
X86249700Y-72225700D03*
X121853000Y-88827900D03*
X96360700Y-98745200D03*
%TD*%
D15*
%TO.N,Boot_Button*%
X76109500Y-97789900D02*
X73441500Y-97789900D01*
X85153000Y-88746400D02*
X76109500Y-97789900D01*
%TO.N,GPIO2*%
X78921100Y-86820600D02*
X73509300Y-81408800D01*
X96325900Y-86820600D02*
X78921100Y-86820600D01*
X100776600Y-82369900D02*
X96325900Y-86820600D01*
X226878900Y-82369900D02*
X100776600Y-82369900D01*
X227602400Y-83093400D02*
X226878900Y-82369900D01*
X234286600Y-83093400D02*
X227602400Y-83093400D01*
X235562100Y-81817900D02*
X234286600Y-83093400D01*
X235562100Y-81450700D02*
X235562100Y-81817900D01*
X236737200Y-81450700D02*
X235562100Y-81450700D01*
%TO.N,GPIO1*%
X235562100Y-79275900D02*
X235562100Y-78910700D01*
X234736700Y-80101300D02*
X235562100Y-79275900D01*
X75916900Y-80101300D02*
X234736700Y-80101300D01*
X74684400Y-78868800D02*
X75916900Y-80101300D01*
X73509300Y-78868800D02*
X74684400Y-78868800D01*
X236737200Y-78910700D02*
X235562100Y-78910700D01*
%TO.N,Net-(J3-Pad3)*%
X94118800Y-92679900D02*
X101889200Y-92679900D01*
X81576200Y-105222500D02*
X94118800Y-92679900D01*
%TO.N,Net-(J3-Pad2)*%
X95849500Y-88353400D02*
X74397500Y-109805400D01*
X102345900Y-88353400D02*
X95849500Y-88353400D01*
%TO.N,SCL*%
X70969300Y-81408800D02*
X72144400Y-81408800D01*
X234197200Y-81450700D02*
X233022100Y-81450700D01*
X72144500Y-81408800D02*
X72144400Y-81408800D01*
X72144500Y-81111800D02*
X72144500Y-81408800D01*
X73022600Y-80233700D02*
X72144500Y-81111800D01*
X73996000Y-80233700D02*
X73022600Y-80233700D01*
X74843400Y-81081100D02*
X73996000Y-80233700D01*
X74843400Y-81081200D02*
X74843400Y-81081100D01*
X226226900Y-81081200D02*
X74843400Y-81081200D01*
X227776100Y-82630400D02*
X226226900Y-81081200D01*
X232207600Y-82630400D02*
X227776100Y-82630400D01*
X233022100Y-81815900D02*
X232207600Y-82630400D01*
X233022100Y-81450700D02*
X233022100Y-81815900D01*
%TO.N,SDA*%
X70969300Y-78868800D02*
X72144400Y-78868800D01*
X234197200Y-78910700D02*
X233022100Y-78910700D01*
X72144400Y-78503500D02*
X72144400Y-78868800D01*
X72975300Y-77672600D02*
X72144400Y-78503500D01*
X95827400Y-77672600D02*
X72975300Y-77672600D01*
X97435400Y-79280600D02*
X95827400Y-77672600D01*
X101853400Y-79280600D02*
X97435400Y-79280600D01*
X233022100Y-78079700D02*
X233022100Y-78910700D01*
X232666100Y-77723700D02*
X233022100Y-78079700D01*
X103410300Y-77723700D02*
X232666100Y-77723700D01*
X101853400Y-79280600D02*
X103410300Y-77723700D01*
%TO.N,VDD33*%
X74839400Y-73266600D02*
X102098200Y-73266600D01*
X69604400Y-78501600D02*
X74839400Y-73266600D01*
X69604400Y-78868800D02*
X69604400Y-78501600D01*
X68429300Y-78868800D02*
X69604400Y-78868800D01*
%TO.N,MOTOR_CTRL_MCU*%
X100398900Y-100077000D02*
X95253400Y-105222500D01*
X100398900Y-95768000D02*
X100398900Y-100077000D01*
%TO.N,LED1*%
X97079200Y-87544600D02*
X97012000Y-87611800D01*
X131019600Y-87544600D02*
X97079200Y-87544600D01*
X142708700Y-99233700D02*
X131019600Y-87544600D01*
%TD*%
%TA.AperFunction,Conductor*%
%TO.N,GND*%
G36*
X83602842Y-63877274D02*
G01*
X83649335Y-63930930D01*
X83660711Y-63984867D01*
X83575325Y-70727474D01*
X83574018Y-70830673D01*
X98177122Y-70837366D01*
X109599432Y-70842601D01*
X109599433Y-70842601D01*
X109617547Y-70842609D01*
X109617558Y-70812558D01*
X109617858Y-69943965D01*
X232207057Y-69943965D01*
X232220741Y-70335827D01*
X232272599Y-70724484D01*
X232273299Y-70727468D01*
X232273300Y-70727474D01*
X232299255Y-70838133D01*
X232362136Y-71106225D01*
X232488496Y-71477407D01*
X232650475Y-71834487D01*
X232846525Y-72174056D01*
X232848314Y-72176554D01*
X232848316Y-72176558D01*
X233062325Y-72475482D01*
X233074776Y-72492874D01*
X233076802Y-72495189D01*
X233076805Y-72495192D01*
X233329107Y-72783393D01*
X233333049Y-72787896D01*
X233618878Y-73056308D01*
X233756837Y-73162550D01*
X233900474Y-73273165D01*
X233929536Y-73295546D01*
X233932139Y-73297173D01*
X233932144Y-73297176D01*
X234051576Y-73371805D01*
X234262056Y-73503328D01*
X234613266Y-73677670D01*
X234979812Y-73816907D01*
X235358195Y-73919712D01*
X235656419Y-73970153D01*
X235741783Y-73984591D01*
X235741786Y-73984591D01*
X235744805Y-73985102D01*
X235899444Y-73995916D01*
X236132885Y-74012240D01*
X236132893Y-74012240D01*
X236135951Y-74012454D01*
X236388037Y-74005413D01*
X236524825Y-74001592D01*
X236524828Y-74001592D01*
X236527899Y-74001506D01*
X236530952Y-74001120D01*
X236530956Y-74001120D01*
X236672576Y-73983229D01*
X236916908Y-73952362D01*
X236919912Y-73951680D01*
X236919915Y-73951679D01*
X237296269Y-73866174D01*
X237296275Y-73866172D01*
X237299265Y-73865493D01*
X237302184Y-73864522D01*
X237668396Y-73742700D01*
X237668402Y-73742698D01*
X237671320Y-73741727D01*
X237812735Y-73678765D01*
X238026722Y-73583492D01*
X238026728Y-73583489D01*
X238029522Y-73582245D01*
X238032191Y-73580729D01*
X238367784Y-73390086D01*
X238367790Y-73390083D01*
X238370452Y-73388570D01*
X238690855Y-73162550D01*
X238816390Y-73054192D01*
X238985347Y-72908353D01*
X238985351Y-72908349D01*
X238987674Y-72906344D01*
X239047059Y-72843984D01*
X239217077Y-72665446D01*
X239258074Y-72622395D01*
X239281318Y-72592645D01*
X239497565Y-72315860D01*
X239497567Y-72315857D01*
X239499475Y-72313415D01*
X239709574Y-71982354D01*
X239886363Y-71632370D01*
X239918437Y-71549678D01*
X240027041Y-71269681D01*
X240027044Y-71269672D01*
X240028156Y-71266805D01*
X240133600Y-70889148D01*
X240201688Y-70503004D01*
X240214788Y-70332747D01*
X240231619Y-70114013D01*
X240231619Y-70114002D01*
X240231769Y-70112059D01*
X240233334Y-70000000D01*
X240230594Y-69943965D01*
X240214330Y-69611440D01*
X240214180Y-69608367D01*
X240156901Y-69220473D01*
X240062043Y-68840019D01*
X239930512Y-68470637D01*
X239763564Y-68115854D01*
X239761997Y-68113225D01*
X239761992Y-68113216D01*
X239564361Y-67781689D01*
X239562791Y-67779055D01*
X239560977Y-67776595D01*
X239560972Y-67776587D01*
X239331933Y-67465926D01*
X239331931Y-67465923D01*
X239330111Y-67463455D01*
X239067744Y-67172068D01*
X238778195Y-66907673D01*
X238464228Y-66672795D01*
X238416015Y-66643596D01*
X238131467Y-66471267D01*
X238131458Y-66471262D01*
X238128839Y-66469676D01*
X237775229Y-66300255D01*
X237772339Y-66299203D01*
X237772334Y-66299201D01*
X237409674Y-66167204D01*
X237409671Y-66167203D01*
X237406775Y-66166149D01*
X237130563Y-66095229D01*
X237029977Y-66069403D01*
X237029974Y-66069402D01*
X237026993Y-66068637D01*
X236639508Y-66008651D01*
X236248018Y-65986764D01*
X236244939Y-65986893D01*
X236244936Y-65986893D01*
X235989188Y-65997612D01*
X235856261Y-66003183D01*
X235853217Y-66003611D01*
X235853215Y-66003611D01*
X235730995Y-66020788D01*
X235467976Y-66057753D01*
X235086869Y-66149953D01*
X234716579Y-66278902D01*
X234360638Y-66443369D01*
X234022446Y-66641785D01*
X233862444Y-66758033D01*
X233707711Y-66870453D01*
X233707705Y-66870458D01*
X233705230Y-66872256D01*
X233702944Y-66874285D01*
X233702941Y-66874288D01*
X233623123Y-66945154D01*
X233412017Y-67132583D01*
X233409938Y-67134828D01*
X233409931Y-67134835D01*
X233321569Y-67230258D01*
X233145608Y-67420279D01*
X232908544Y-67732599D01*
X232703089Y-68066562D01*
X232531203Y-68418980D01*
X232394527Y-68786489D01*
X232294367Y-69165581D01*
X232231677Y-69552638D01*
X232231483Y-69555718D01*
X232231483Y-69555720D01*
X232209443Y-69906035D01*
X232207057Y-69943965D01*
X109617858Y-69943965D01*
X109618716Y-67461172D01*
X109619918Y-63983226D01*
X109639944Y-63915115D01*
X109693615Y-63868640D01*
X109745918Y-63857272D01*
X240861401Y-63857272D01*
X240887397Y-63859983D01*
X241678495Y-64026789D01*
X241725326Y-64047257D01*
X242349811Y-64489574D01*
X242383575Y-64525206D01*
X242809481Y-65200884D01*
X242826729Y-65244835D01*
X242989340Y-66111414D01*
X242991501Y-66134652D01*
X242991501Y-114042141D01*
X242989340Y-114065379D01*
X242953050Y-114258776D01*
X242902426Y-114528560D01*
X242826729Y-114931959D01*
X242809482Y-114975907D01*
X242383577Y-115651586D01*
X242349813Y-115687218D01*
X241725328Y-116129536D01*
X241678497Y-116150004D01*
X240887400Y-116316810D01*
X240861404Y-116319521D01*
X66659359Y-116319521D01*
X66633363Y-116316810D01*
X65842265Y-116150004D01*
X65795434Y-116129536D01*
X65170948Y-115687219D01*
X65137184Y-115651586D01*
X64711280Y-114975909D01*
X64694032Y-114931959D01*
X64669619Y-114801856D01*
X64554036Y-114185900D01*
X64531420Y-114065377D01*
X64529259Y-114042139D01*
X64529259Y-113907064D01*
X65897707Y-113907064D01*
X65926825Y-114099599D01*
X65929028Y-114105585D01*
X65929029Y-114105591D01*
X65991860Y-114276360D01*
X65991862Y-114276365D01*
X65994063Y-114282346D01*
X66096674Y-114447840D01*
X66230466Y-114589322D01*
X66389975Y-114701011D01*
X66395838Y-114703548D01*
X66562825Y-114775810D01*
X66562829Y-114775811D01*
X66568684Y-114778345D01*
X66574931Y-114779650D01*
X66574934Y-114779651D01*
X66754557Y-114817176D01*
X66754562Y-114817177D01*
X66759293Y-114818165D01*
X66765685Y-114818500D01*
X67808663Y-114818500D01*
X67877951Y-114811462D01*
X67947378Y-114804410D01*
X67947379Y-114804410D01*
X67953727Y-114803765D01*
X68034843Y-114778345D01*
X68133451Y-114747444D01*
X68133456Y-114747442D01*
X68139541Y-114745535D01*
X68226475Y-114697346D01*
X68304271Y-114654223D01*
X68304274Y-114654221D01*
X68309850Y-114651130D01*
X68314691Y-114646981D01*
X68314695Y-114646978D01*
X68452855Y-114528560D01*
X68457698Y-114524409D01*
X68577046Y-114370547D01*
X68617779Y-114287768D01*
X68660200Y-114201556D01*
X68663018Y-114195829D01*
X68664628Y-114189649D01*
X68710492Y-114013575D01*
X68710492Y-114013572D01*
X68712102Y-114007393D01*
X68722293Y-113812936D01*
X68693175Y-113620401D01*
X68690972Y-113614415D01*
X68690971Y-113614409D01*
X68628140Y-113443640D01*
X68628138Y-113443635D01*
X68625937Y-113437654D01*
X68523326Y-113272160D01*
X68389534Y-113130678D01*
X68230025Y-113018989D01*
X68182013Y-112998212D01*
X68057175Y-112944190D01*
X68057171Y-112944189D01*
X68051316Y-112941655D01*
X68045069Y-112940350D01*
X68045066Y-112940349D01*
X67865443Y-112902824D01*
X67865438Y-112902823D01*
X67860707Y-112901835D01*
X67854315Y-112901500D01*
X66811337Y-112901500D01*
X66742049Y-112908538D01*
X66672622Y-112915590D01*
X66672621Y-112915590D01*
X66666273Y-112916235D01*
X66609939Y-112933889D01*
X66486549Y-112972556D01*
X66486544Y-112972558D01*
X66480459Y-112974465D01*
X66404713Y-113016452D01*
X66315729Y-113065777D01*
X66315726Y-113065779D01*
X66310150Y-113068870D01*
X66305309Y-113073019D01*
X66305305Y-113073022D01*
X66242311Y-113127015D01*
X66162302Y-113195591D01*
X66042954Y-113349453D01*
X66040138Y-113355176D01*
X66040136Y-113355179D01*
X65996608Y-113443640D01*
X65956982Y-113524171D01*
X65955373Y-113530349D01*
X65955372Y-113530351D01*
X65933477Y-113614409D01*
X65907898Y-113712607D01*
X65897707Y-113907064D01*
X64529259Y-113907064D01*
X64529259Y-107307064D01*
X65897707Y-107307064D01*
X65926825Y-107499599D01*
X65929028Y-107505585D01*
X65929029Y-107505591D01*
X65991860Y-107676360D01*
X65991862Y-107676365D01*
X65994063Y-107682346D01*
X66096674Y-107847840D01*
X66230466Y-107989322D01*
X66389975Y-108101011D01*
X66395838Y-108103548D01*
X66562825Y-108175810D01*
X66562829Y-108175811D01*
X66568684Y-108178345D01*
X66574931Y-108179650D01*
X66574934Y-108179651D01*
X66754557Y-108217176D01*
X66754562Y-108217177D01*
X66759293Y-108218165D01*
X66765685Y-108218500D01*
X67808663Y-108218500D01*
X67877951Y-108211462D01*
X67947378Y-108204410D01*
X67947379Y-108204410D01*
X67953727Y-108203765D01*
X68034843Y-108178345D01*
X68133451Y-108147444D01*
X68133456Y-108147442D01*
X68139541Y-108145535D01*
X68226475Y-108097346D01*
X68304271Y-108054223D01*
X68304274Y-108054221D01*
X68309850Y-108051130D01*
X68314691Y-108046981D01*
X68314695Y-108046978D01*
X68452855Y-107928560D01*
X68457698Y-107924409D01*
X68577046Y-107770547D01*
X68617779Y-107687768D01*
X68660200Y-107601556D01*
X68663018Y-107595829D01*
X68664628Y-107589649D01*
X68710492Y-107413575D01*
X68710492Y-107413572D01*
X68712102Y-107407393D01*
X68722293Y-107212936D01*
X68693175Y-107020401D01*
X68690972Y-107014415D01*
X68690971Y-107014409D01*
X68628140Y-106843640D01*
X68628138Y-106843635D01*
X68625937Y-106837654D01*
X68523326Y-106672160D01*
X68389534Y-106530678D01*
X68230025Y-106418989D01*
X68182013Y-106398212D01*
X68057175Y-106344190D01*
X68057171Y-106344189D01*
X68051316Y-106341655D01*
X68045069Y-106340350D01*
X68045066Y-106340349D01*
X67865443Y-106302824D01*
X67865438Y-106302823D01*
X67860707Y-106301835D01*
X67854315Y-106301500D01*
X66811337Y-106301500D01*
X66742049Y-106308538D01*
X66672622Y-106315590D01*
X66672621Y-106315590D01*
X66666273Y-106316235D01*
X66609939Y-106333889D01*
X66486549Y-106372556D01*
X66486544Y-106372558D01*
X66480459Y-106374465D01*
X66404713Y-106416452D01*
X66315729Y-106465777D01*
X66315726Y-106465779D01*
X66310150Y-106468870D01*
X66305309Y-106473019D01*
X66305305Y-106473022D01*
X66242311Y-106527015D01*
X66162302Y-106595591D01*
X66042954Y-106749453D01*
X66040138Y-106755176D01*
X66040136Y-106755179D01*
X65996608Y-106843640D01*
X65956982Y-106924171D01*
X65955373Y-106930349D01*
X65955372Y-106930351D01*
X65933477Y-107014409D01*
X65907898Y-107112607D01*
X65897707Y-107307064D01*
X64529259Y-107307064D01*
X64529259Y-97756595D01*
X66998751Y-97756595D01*
X66999048Y-97761748D01*
X66999048Y-97761751D01*
X67000659Y-97789687D01*
X67011610Y-97979615D01*
X67012747Y-97984661D01*
X67012748Y-97984667D01*
X67032540Y-98072486D01*
X67060722Y-98197539D01*
X67120514Y-98344790D01*
X67138162Y-98388251D01*
X67144766Y-98404516D01*
X67193785Y-98484508D01*
X67258791Y-98590588D01*
X67261487Y-98594988D01*
X67407750Y-98763838D01*
X67579626Y-98906532D01*
X67772500Y-99019238D01*
X67777325Y-99021080D01*
X67777326Y-99021081D01*
X67836748Y-99043772D01*
X67981192Y-99098930D01*
X67986260Y-99099961D01*
X67986263Y-99099962D01*
X68093517Y-99121783D01*
X68200097Y-99143467D01*
X68205272Y-99143657D01*
X68205274Y-99143657D01*
X68418173Y-99151464D01*
X68418177Y-99151464D01*
X68423337Y-99151653D01*
X68428457Y-99150997D01*
X68428459Y-99150997D01*
X68639788Y-99123925D01*
X68639789Y-99123925D01*
X68644916Y-99123268D01*
X68649866Y-99121783D01*
X68853929Y-99060561D01*
X68853934Y-99060559D01*
X68858884Y-99059074D01*
X69059494Y-98960796D01*
X69241360Y-98831073D01*
X69399596Y-98673389D01*
X69413549Y-98653972D01*
X69529953Y-98491977D01*
X69531276Y-98492928D01*
X69578145Y-98449757D01*
X69648080Y-98437525D01*
X69713526Y-98465044D01*
X69741375Y-98496894D01*
X69801487Y-98594988D01*
X69947750Y-98763838D01*
X70119626Y-98906532D01*
X70312500Y-99019238D01*
X70317325Y-99021080D01*
X70317326Y-99021081D01*
X70376748Y-99043772D01*
X70521192Y-99098930D01*
X70526260Y-99099961D01*
X70526263Y-99099962D01*
X70633517Y-99121783D01*
X70740097Y-99143467D01*
X70745272Y-99143657D01*
X70745274Y-99143657D01*
X70958173Y-99151464D01*
X70958177Y-99151464D01*
X70963337Y-99151653D01*
X70968457Y-99150997D01*
X70968459Y-99150997D01*
X71179788Y-99123925D01*
X71179789Y-99123925D01*
X71184916Y-99123268D01*
X71189866Y-99121783D01*
X71393929Y-99060561D01*
X71393934Y-99060559D01*
X71398884Y-99059074D01*
X71599494Y-98960796D01*
X71781360Y-98831073D01*
X71939596Y-98673389D01*
X71953549Y-98653972D01*
X72069953Y-98491977D01*
X72071276Y-98492928D01*
X72118145Y-98449757D01*
X72188080Y-98437525D01*
X72253526Y-98465044D01*
X72281375Y-98496894D01*
X72341487Y-98594988D01*
X72487750Y-98763838D01*
X72659626Y-98906532D01*
X72852500Y-99019238D01*
X72857325Y-99021080D01*
X72857326Y-99021081D01*
X72916748Y-99043772D01*
X73061192Y-99098930D01*
X73066260Y-99099961D01*
X73066263Y-99099962D01*
X73173517Y-99121783D01*
X73280097Y-99143467D01*
X73285272Y-99143657D01*
X73285274Y-99143657D01*
X73498173Y-99151464D01*
X73498177Y-99151464D01*
X73503337Y-99151653D01*
X73508457Y-99150997D01*
X73508459Y-99150997D01*
X73719788Y-99123925D01*
X73719789Y-99123925D01*
X73724916Y-99123268D01*
X73729866Y-99121783D01*
X73933929Y-99060561D01*
X73933934Y-99060559D01*
X73938884Y-99059074D01*
X74139494Y-98960796D01*
X74321360Y-98831073D01*
X74479596Y-98673389D01*
X74493549Y-98653972D01*
X74606935Y-98496177D01*
X74609953Y-98491977D01*
X74612246Y-98487337D01*
X74613946Y-98484508D01*
X74666174Y-98436418D01*
X74721951Y-98423400D01*
X76030733Y-98423400D01*
X76041916Y-98423927D01*
X76049409Y-98425602D01*
X76057335Y-98425353D01*
X76057336Y-98425353D01*
X76117486Y-98423462D01*
X76121445Y-98423400D01*
X76149356Y-98423400D01*
X76153291Y-98422903D01*
X76153356Y-98422895D01*
X76165193Y-98421962D01*
X76197451Y-98420948D01*
X76201470Y-98420822D01*
X76209389Y-98420573D01*
X76228843Y-98414921D01*
X76248200Y-98410913D01*
X76260430Y-98409368D01*
X76260431Y-98409368D01*
X76268297Y-98408374D01*
X76275668Y-98405455D01*
X76275670Y-98405455D01*
X76309412Y-98392096D01*
X76320642Y-98388251D01*
X76355483Y-98378129D01*
X76355484Y-98378129D01*
X76363093Y-98375918D01*
X76369912Y-98371885D01*
X76369917Y-98371883D01*
X76380528Y-98365607D01*
X76398276Y-98356912D01*
X76417117Y-98349452D01*
X76452887Y-98323464D01*
X76462807Y-98316948D01*
X76494035Y-98298480D01*
X76494038Y-98298478D01*
X76500862Y-98294442D01*
X76515183Y-98280121D01*
X76530217Y-98267280D01*
X76540194Y-98260031D01*
X76546607Y-98255372D01*
X76574798Y-98221295D01*
X76582788Y-98212516D01*
X85103499Y-89691805D01*
X85165811Y-89657779D01*
X85192594Y-89654900D01*
X85248487Y-89654900D01*
X85254939Y-89653528D01*
X85254944Y-89653528D01*
X85344903Y-89634406D01*
X85435288Y-89615194D01*
X85462524Y-89603068D01*
X85603722Y-89540203D01*
X85603724Y-89540202D01*
X85609752Y-89537518D01*
X85764253Y-89425266D01*
X85892040Y-89283344D01*
X85970641Y-89147203D01*
X85984223Y-89123679D01*
X85984224Y-89123678D01*
X85987527Y-89117956D01*
X86046542Y-88936328D01*
X86066504Y-88746400D01*
X86046542Y-88556472D01*
X85987527Y-88374844D01*
X85892040Y-88209456D01*
X85764253Y-88067534D01*
X85609752Y-87955282D01*
X85603724Y-87952598D01*
X85603722Y-87952597D01*
X85441319Y-87880291D01*
X85441318Y-87880291D01*
X85435288Y-87877606D01*
X85326414Y-87854464D01*
X85254944Y-87839272D01*
X85254939Y-87839272D01*
X85248487Y-87837900D01*
X85057513Y-87837900D01*
X85051061Y-87839272D01*
X85051056Y-87839272D01*
X84979586Y-87854464D01*
X84870712Y-87877606D01*
X84864682Y-87880291D01*
X84864681Y-87880291D01*
X84702278Y-87952597D01*
X84702276Y-87952598D01*
X84696248Y-87955282D01*
X84541747Y-88067534D01*
X84413960Y-88209456D01*
X84318473Y-88374844D01*
X84259458Y-88556472D01*
X84242411Y-88718671D01*
X84242093Y-88721692D01*
X84215080Y-88787349D01*
X84205878Y-88797617D01*
X75884000Y-97119495D01*
X75821688Y-97153521D01*
X75794905Y-97156400D01*
X74718305Y-97156400D01*
X74650184Y-97136398D01*
X74612513Y-97098840D01*
X74524322Y-96962517D01*
X74524320Y-96962514D01*
X74521514Y-96958177D01*
X74371170Y-96792951D01*
X74367119Y-96789752D01*
X74367115Y-96789748D01*
X74199914Y-96657700D01*
X74199910Y-96657698D01*
X74195859Y-96654498D01*
X74154553Y-96631696D01*
X74104584Y-96581264D01*
X74089812Y-96511821D01*
X74114928Y-96445416D01*
X74142280Y-96418809D01*
X74187978Y-96386213D01*
X74321360Y-96291073D01*
X74479596Y-96133389D01*
X74609953Y-95951977D01*
X74623495Y-95924578D01*
X74706636Y-95756353D01*
X74706637Y-95756351D01*
X74708930Y-95751711D01*
X74773870Y-95537969D01*
X74803029Y-95316490D01*
X74804656Y-95249900D01*
X74786352Y-95027261D01*
X74731931Y-94810602D01*
X74642854Y-94605740D01*
X74521514Y-94418177D01*
X74371170Y-94252951D01*
X74367119Y-94249752D01*
X74367115Y-94249748D01*
X74199914Y-94117700D01*
X74199910Y-94117698D01*
X74195859Y-94114498D01*
X74159528Y-94094442D01*
X74143636Y-94085669D01*
X74000289Y-94006538D01*
X73995420Y-94004814D01*
X73995416Y-94004812D01*
X73794587Y-93933695D01*
X73794583Y-93933694D01*
X73789712Y-93931969D01*
X73784619Y-93931062D01*
X73784616Y-93931061D01*
X73574873Y-93893700D01*
X73574867Y-93893699D01*
X73569784Y-93892794D01*
X73495952Y-93891892D01*
X73351581Y-93890128D01*
X73351579Y-93890128D01*
X73346411Y-93890065D01*
X73125591Y-93923855D01*
X72913256Y-93993257D01*
X72715107Y-94096407D01*
X72710974Y-94099510D01*
X72710971Y-94099512D01*
X72540600Y-94227430D01*
X72536465Y-94230535D01*
X72532893Y-94234273D01*
X72393938Y-94379681D01*
X72382129Y-94392038D01*
X72379215Y-94396310D01*
X72379214Y-94396311D01*
X72274398Y-94549966D01*
X72219487Y-94594969D01*
X72148962Y-94603140D01*
X72085215Y-94571886D01*
X72064518Y-94547402D01*
X71983926Y-94422826D01*
X71977636Y-94414657D01*
X71834306Y-94257140D01*
X71826773Y-94250115D01*
X71659639Y-94118122D01*
X71651052Y-94112417D01*
X71464617Y-94009499D01*
X71455205Y-94005269D01*
X71254459Y-93934180D01*
X71244488Y-93931546D01*
X71173337Y-93918872D01*
X71160040Y-93920332D01*
X71155500Y-93934889D01*
X71155500Y-95377900D01*
X71135498Y-95446021D01*
X71081842Y-95492514D01*
X71029500Y-95503900D01*
X70773500Y-95503900D01*
X70705379Y-95483898D01*
X70658886Y-95430242D01*
X70647500Y-95377900D01*
X70647500Y-93933002D01*
X70643582Y-93919658D01*
X70629306Y-93917671D01*
X70590824Y-93923560D01*
X70580788Y-93925951D01*
X70378368Y-93992112D01*
X70368859Y-93996109D01*
X70179963Y-94094442D01*
X70171238Y-94099936D01*
X70000933Y-94227805D01*
X69993226Y-94234648D01*
X69915978Y-94315484D01*
X69854454Y-94350914D01*
X69783542Y-94347457D01*
X69725755Y-94306211D01*
X69706902Y-94272663D01*
X69665267Y-94161603D01*
X69662115Y-94153195D01*
X69574761Y-94036639D01*
X69458205Y-93949285D01*
X69321816Y-93898155D01*
X69259634Y-93891400D01*
X67463366Y-93891400D01*
X67401184Y-93898155D01*
X67264795Y-93949285D01*
X67148239Y-94036639D01*
X67060885Y-94153195D01*
X67009755Y-94289584D01*
X67003000Y-94351766D01*
X67003000Y-96148034D01*
X67009755Y-96210216D01*
X67060885Y-96346605D01*
X67148239Y-96463161D01*
X67264795Y-96550515D01*
X67273204Y-96553667D01*
X67273205Y-96553668D01*
X67381951Y-96594435D01*
X67438716Y-96637076D01*
X67463416Y-96703638D01*
X67448209Y-96772987D01*
X67428816Y-96799468D01*
X67302129Y-96932038D01*
X67176243Y-97116580D01*
X67082188Y-97319205D01*
X67022489Y-97534470D01*
X66998751Y-97756595D01*
X64529259Y-97756595D01*
X64529259Y-81676766D01*
X67097557Y-81676766D01*
X67127865Y-81811246D01*
X67130945Y-81821075D01*
X67211070Y-82018403D01*
X67215713Y-82027594D01*
X67326994Y-82209188D01*
X67333077Y-82217499D01*
X67472513Y-82378467D01*
X67479880Y-82385683D01*
X67643734Y-82521716D01*
X67652181Y-82527631D01*
X67836056Y-82635079D01*
X67845342Y-82639529D01*
X68044301Y-82715503D01*
X68054199Y-82718379D01*
X68157550Y-82739406D01*
X68171599Y-82738210D01*
X68175300Y-82727865D01*
X68175300Y-81680915D01*
X68170825Y-81665676D01*
X68169435Y-81664471D01*
X68161752Y-81662800D01*
X67112525Y-81662800D01*
X67098994Y-81666773D01*
X67097557Y-81676766D01*
X64529259Y-81676766D01*
X64529259Y-79766934D01*
X67070800Y-79766934D01*
X67077555Y-79829116D01*
X67128685Y-79965505D01*
X67216039Y-80082061D01*
X67332595Y-80169415D01*
X67341004Y-80172567D01*
X67341005Y-80172568D01*
X67450260Y-80213526D01*
X67507025Y-80256167D01*
X67531725Y-80322729D01*
X67516518Y-80392078D01*
X67497125Y-80418559D01*
X67373890Y-80547517D01*
X67367404Y-80555527D01*
X67247398Y-80731449D01*
X67242300Y-80740423D01*
X67152638Y-80933583D01*
X67149075Y-80943270D01*
X67093689Y-81142983D01*
X67095212Y-81151407D01*
X67107592Y-81154800D01*
X68557300Y-81154800D01*
X68625421Y-81174802D01*
X68671914Y-81228458D01*
X68683300Y-81280800D01*
X68683300Y-82727317D01*
X68687364Y-82741159D01*
X68700778Y-82743193D01*
X68707484Y-82742334D01*
X68717562Y-82740192D01*
X68921555Y-82678991D01*
X68931142Y-82675233D01*
X69122395Y-82581539D01*
X69131245Y-82576264D01*
X69304628Y-82452592D01*
X69312500Y-82445939D01*
X69463352Y-82295612D01*
X69470030Y-82287765D01*
X69597322Y-82110619D01*
X69598579Y-82111522D01*
X69645673Y-82068162D01*
X69715611Y-82055945D01*
X69781051Y-82083478D01*
X69808879Y-82115311D01*
X69869287Y-82213888D01*
X70015550Y-82382738D01*
X70187426Y-82525432D01*
X70380300Y-82638138D01*
X70588992Y-82717830D01*
X70594060Y-82718861D01*
X70594063Y-82718862D01*
X70689162Y-82738210D01*
X70807897Y-82762367D01*
X70813072Y-82762557D01*
X70813074Y-82762557D01*
X71025973Y-82770364D01*
X71025977Y-82770364D01*
X71031137Y-82770553D01*
X71036257Y-82769897D01*
X71036259Y-82769897D01*
X71247588Y-82742825D01*
X71247589Y-82742825D01*
X71252716Y-82742168D01*
X71257669Y-82740682D01*
X71461729Y-82679461D01*
X71461734Y-82679459D01*
X71466684Y-82677974D01*
X71667294Y-82579696D01*
X71849160Y-82449973D01*
X72007396Y-82292289D01*
X72137753Y-82110877D01*
X72139074Y-82111826D01*
X72185963Y-82068649D01*
X72255900Y-82056428D01*
X72321342Y-82083958D01*
X72349174Y-82115795D01*
X72406585Y-82209480D01*
X72406590Y-82209487D01*
X72409287Y-82213888D01*
X72555550Y-82382738D01*
X72727426Y-82525432D01*
X72920300Y-82638138D01*
X73128992Y-82717830D01*
X73134060Y-82718861D01*
X73134063Y-82718862D01*
X73229162Y-82738210D01*
X73347897Y-82762367D01*
X73353072Y-82762557D01*
X73353074Y-82762557D01*
X73565973Y-82770364D01*
X73565977Y-82770364D01*
X73571137Y-82770553D01*
X73576257Y-82769897D01*
X73576259Y-82769897D01*
X73787588Y-82742825D01*
X73787589Y-82742825D01*
X73792716Y-82742168D01*
X73797667Y-82740683D01*
X73797670Y-82740682D01*
X73839129Y-82728244D01*
X73910125Y-82727828D01*
X73964431Y-82759835D01*
X76243501Y-85038906D01*
X78417448Y-87212853D01*
X78424988Y-87221139D01*
X78429100Y-87227618D01*
X78434877Y-87233043D01*
X78478751Y-87274243D01*
X78481593Y-87276998D01*
X78501330Y-87296735D01*
X78504527Y-87299215D01*
X78513547Y-87306918D01*
X78545779Y-87337186D01*
X78552725Y-87341005D01*
X78552728Y-87341007D01*
X78563534Y-87346948D01*
X78580053Y-87357799D01*
X78596059Y-87370214D01*
X78603328Y-87373359D01*
X78603332Y-87373362D01*
X78636637Y-87387774D01*
X78647287Y-87392991D01*
X78686040Y-87414295D01*
X78693715Y-87416266D01*
X78693716Y-87416266D01*
X78705662Y-87419333D01*
X78724367Y-87425737D01*
X78742955Y-87433781D01*
X78750778Y-87435020D01*
X78750788Y-87435023D01*
X78786624Y-87440699D01*
X78798244Y-87443105D01*
X78833389Y-87452128D01*
X78841070Y-87454100D01*
X78861324Y-87454100D01*
X78881034Y-87455651D01*
X78901043Y-87458820D01*
X78908935Y-87458074D01*
X78945061Y-87454659D01*
X78956919Y-87454100D01*
X95617700Y-87454100D01*
X95685821Y-87474102D01*
X95705047Y-87490443D01*
X95705320Y-87490140D01*
X95710232Y-87494562D01*
X95714647Y-87499466D01*
X95732272Y-87512271D01*
X95775625Y-87568492D01*
X95781702Y-87639228D01*
X95748571Y-87702020D01*
X95692142Y-87734744D01*
X95690703Y-87734926D01*
X95683335Y-87737843D01*
X95683328Y-87737845D01*
X95649597Y-87751200D01*
X95638369Y-87755045D01*
X95595907Y-87767382D01*
X95589085Y-87771416D01*
X95589079Y-87771419D01*
X95578468Y-87777694D01*
X95560718Y-87786390D01*
X95549256Y-87790928D01*
X95549251Y-87790931D01*
X95541883Y-87793848D01*
X95535468Y-87798509D01*
X95506125Y-87819827D01*
X95496207Y-87826343D01*
X95477519Y-87837395D01*
X95458137Y-87848858D01*
X95443813Y-87863182D01*
X95428781Y-87876021D01*
X95412393Y-87887928D01*
X95384212Y-87921993D01*
X95376222Y-87930773D01*
X74447000Y-108859995D01*
X74384688Y-108894021D01*
X74357905Y-108896900D01*
X74302013Y-108896900D01*
X74295561Y-108898272D01*
X74295556Y-108898272D01*
X74208613Y-108916753D01*
X74115212Y-108936606D01*
X74109182Y-108939291D01*
X74109181Y-108939291D01*
X73946778Y-109011597D01*
X73946776Y-109011598D01*
X73940748Y-109014282D01*
X73786247Y-109126534D01*
X73658460Y-109268456D01*
X73562973Y-109433844D01*
X73503958Y-109615472D01*
X73483996Y-109805400D01*
X73503958Y-109995328D01*
X73562973Y-110176956D01*
X73658460Y-110342344D01*
X73786247Y-110484266D01*
X73940748Y-110596518D01*
X73946776Y-110599202D01*
X73946778Y-110599203D01*
X74109181Y-110671509D01*
X74115212Y-110674194D01*
X74208612Y-110694047D01*
X74295556Y-110712528D01*
X74295561Y-110712528D01*
X74302013Y-110713900D01*
X74492987Y-110713900D01*
X74499439Y-110712528D01*
X74499444Y-110712528D01*
X74586388Y-110694047D01*
X74679788Y-110674194D01*
X74685819Y-110671509D01*
X74848222Y-110599203D01*
X74848224Y-110599202D01*
X74854252Y-110596518D01*
X75008753Y-110484266D01*
X75136540Y-110342344D01*
X75232027Y-110176956D01*
X75291042Y-109995328D01*
X75308407Y-109830106D01*
X75335420Y-109764450D01*
X75344622Y-109754182D01*
X79876304Y-105222500D01*
X80662696Y-105222500D01*
X80682658Y-105412428D01*
X80741673Y-105594056D01*
X80837160Y-105759444D01*
X80964947Y-105901366D01*
X81119448Y-106013618D01*
X81125476Y-106016302D01*
X81125478Y-106016303D01*
X81287881Y-106088609D01*
X81293912Y-106091294D01*
X81387312Y-106111147D01*
X81474256Y-106129628D01*
X81474261Y-106129628D01*
X81480713Y-106131000D01*
X81671687Y-106131000D01*
X81678139Y-106129628D01*
X81678144Y-106129628D01*
X81765087Y-106111147D01*
X81858488Y-106091294D01*
X81864519Y-106088609D01*
X82026922Y-106016303D01*
X82026924Y-106016302D01*
X82032952Y-106013618D01*
X82187453Y-105901366D01*
X82315240Y-105759444D01*
X82410727Y-105594056D01*
X82469742Y-105412428D01*
X82487107Y-105247206D01*
X82497272Y-105222500D01*
X94339896Y-105222500D01*
X94359858Y-105412428D01*
X94418873Y-105594056D01*
X94514360Y-105759444D01*
X94642147Y-105901366D01*
X94796648Y-106013618D01*
X94802676Y-106016302D01*
X94802678Y-106016303D01*
X94965081Y-106088609D01*
X94971112Y-106091294D01*
X95064512Y-106111147D01*
X95151456Y-106129628D01*
X95151461Y-106129628D01*
X95157913Y-106131000D01*
X95348887Y-106131000D01*
X95355339Y-106129628D01*
X95355344Y-106129628D01*
X95442287Y-106111147D01*
X95535688Y-106091294D01*
X95541719Y-106088609D01*
X95704122Y-106016303D01*
X95704124Y-106016302D01*
X95710152Y-106013618D01*
X95864653Y-105901366D01*
X95992440Y-105759444D01*
X96087927Y-105594056D01*
X96146942Y-105412428D01*
X96164307Y-105247206D01*
X96191320Y-105181550D01*
X96200522Y-105171282D01*
X100791153Y-100580652D01*
X100799439Y-100573112D01*
X100805918Y-100569000D01*
X100852544Y-100519348D01*
X100855298Y-100516507D01*
X100875035Y-100496770D01*
X100877515Y-100493573D01*
X100885220Y-100484551D01*
X100910059Y-100458100D01*
X100915486Y-100452321D01*
X100919305Y-100445375D01*
X100919307Y-100445372D01*
X100925248Y-100434566D01*
X100936099Y-100418047D01*
X100943658Y-100408301D01*
X100948514Y-100402041D01*
X100951659Y-100394772D01*
X100951662Y-100394768D01*
X100966074Y-100361463D01*
X100971291Y-100350813D01*
X100992595Y-100312060D01*
X100997633Y-100292437D01*
X101004037Y-100273734D01*
X101008933Y-100262420D01*
X101008933Y-100262419D01*
X101012081Y-100255145D01*
X101013320Y-100247322D01*
X101013323Y-100247312D01*
X101018999Y-100211476D01*
X101021405Y-100199856D01*
X101030428Y-100164711D01*
X101030428Y-100164710D01*
X101032400Y-100157030D01*
X101032400Y-100136776D01*
X101033951Y-100117065D01*
X101035880Y-100104886D01*
X101037120Y-100097057D01*
X101032959Y-100053038D01*
X101032400Y-100041181D01*
X101032400Y-96470524D01*
X101052402Y-96402403D01*
X101064758Y-96386221D01*
X101137940Y-96304944D01*
X101233427Y-96139556D01*
X101292442Y-95957928D01*
X101312404Y-95768000D01*
X101292442Y-95578072D01*
X101233427Y-95396444D01*
X101137940Y-95231056D01*
X101010153Y-95089134D01*
X100855652Y-94976882D01*
X100849624Y-94974198D01*
X100849622Y-94974197D01*
X100687219Y-94901891D01*
X100687218Y-94901891D01*
X100681188Y-94899206D01*
X100587788Y-94879353D01*
X100500844Y-94860872D01*
X100500839Y-94860872D01*
X100494387Y-94859500D01*
X100303413Y-94859500D01*
X100296961Y-94860872D01*
X100296956Y-94860872D01*
X100210012Y-94879353D01*
X100116612Y-94899206D01*
X100110582Y-94901891D01*
X100110581Y-94901891D01*
X99948178Y-94974197D01*
X99948176Y-94974198D01*
X99942148Y-94976882D01*
X99787647Y-95089134D01*
X99659860Y-95231056D01*
X99564373Y-95396444D01*
X99505358Y-95578072D01*
X99485396Y-95768000D01*
X99505358Y-95957928D01*
X99564373Y-96139556D01*
X99659860Y-96304944D01*
X99733037Y-96386215D01*
X99763753Y-96450221D01*
X99765400Y-96470524D01*
X99765400Y-99762406D01*
X99745398Y-99830527D01*
X99728495Y-99851501D01*
X95302900Y-104277095D01*
X95240588Y-104311121D01*
X95213805Y-104314000D01*
X95157913Y-104314000D01*
X95151461Y-104315372D01*
X95151456Y-104315372D01*
X95064512Y-104333853D01*
X94971112Y-104353706D01*
X94965082Y-104356391D01*
X94965081Y-104356391D01*
X94802678Y-104428697D01*
X94802676Y-104428698D01*
X94796648Y-104431382D01*
X94642147Y-104543634D01*
X94514360Y-104685556D01*
X94418873Y-104850944D01*
X94359858Y-105032572D01*
X94339896Y-105222500D01*
X82497272Y-105222500D01*
X82514120Y-105181550D01*
X82523322Y-105171282D01*
X94344300Y-93350305D01*
X94406612Y-93316279D01*
X94433395Y-93313400D01*
X101181000Y-93313400D01*
X101249121Y-93333402D01*
X101268347Y-93349743D01*
X101268620Y-93349440D01*
X101273532Y-93353863D01*
X101277947Y-93358766D01*
X101432448Y-93471018D01*
X101438476Y-93473702D01*
X101438478Y-93473703D01*
X101600881Y-93546009D01*
X101606912Y-93548694D01*
X101700312Y-93568547D01*
X101787256Y-93587028D01*
X101787261Y-93587028D01*
X101793713Y-93588400D01*
X101984687Y-93588400D01*
X101991139Y-93587028D01*
X101991144Y-93587028D01*
X102078087Y-93568547D01*
X102171488Y-93548694D01*
X102177519Y-93546009D01*
X102339922Y-93473703D01*
X102339924Y-93473702D01*
X102345952Y-93471018D01*
X102500453Y-93358766D01*
X102523291Y-93333402D01*
X102623821Y-93221752D01*
X102623822Y-93221751D01*
X102628240Y-93216844D01*
X102723727Y-93051456D01*
X102782742Y-92869828D01*
X102784875Y-92849540D01*
X102802014Y-92686465D01*
X102802704Y-92679900D01*
X102802014Y-92673335D01*
X102783432Y-92496535D01*
X102783432Y-92496533D01*
X102782742Y-92489972D01*
X102723727Y-92308344D01*
X102718984Y-92300128D01*
X102669504Y-92214428D01*
X102628240Y-92142956D01*
X102612082Y-92125010D01*
X102504875Y-92005945D01*
X102504874Y-92005944D01*
X102500453Y-92001034D01*
X102345952Y-91888782D01*
X102339924Y-91886098D01*
X102339922Y-91886097D01*
X102177519Y-91813791D01*
X102177518Y-91813791D01*
X102171488Y-91811106D01*
X102078088Y-91791253D01*
X101991144Y-91772772D01*
X101991139Y-91772772D01*
X101984687Y-91771400D01*
X101793713Y-91771400D01*
X101787261Y-91772772D01*
X101787256Y-91772772D01*
X101700312Y-91791253D01*
X101606912Y-91811106D01*
X101600882Y-91813791D01*
X101600881Y-91813791D01*
X101438478Y-91886097D01*
X101438476Y-91886098D01*
X101432448Y-91888782D01*
X101277947Y-92001034D01*
X101273532Y-92005937D01*
X101268620Y-92010360D01*
X101267495Y-92009111D01*
X101214186Y-92041951D01*
X101181000Y-92046400D01*
X94197567Y-92046400D01*
X94186384Y-92045873D01*
X94178891Y-92044198D01*
X94170965Y-92044447D01*
X94170964Y-92044447D01*
X94110814Y-92046338D01*
X94106855Y-92046400D01*
X94078944Y-92046400D01*
X94075010Y-92046897D01*
X94075009Y-92046897D01*
X94074944Y-92046905D01*
X94063107Y-92047838D01*
X94030849Y-92048852D01*
X94026830Y-92048978D01*
X94018911Y-92049227D01*
X93999457Y-92054879D01*
X93980100Y-92058887D01*
X93967870Y-92060432D01*
X93967869Y-92060432D01*
X93960003Y-92061426D01*
X93952632Y-92064345D01*
X93952630Y-92064345D01*
X93918888Y-92077704D01*
X93907658Y-92081549D01*
X93872817Y-92091671D01*
X93872816Y-92091671D01*
X93865207Y-92093882D01*
X93858388Y-92097915D01*
X93858383Y-92097917D01*
X93847772Y-92104193D01*
X93830024Y-92112888D01*
X93811183Y-92120348D01*
X93804767Y-92125010D01*
X93804766Y-92125010D01*
X93775413Y-92146336D01*
X93765493Y-92152852D01*
X93734265Y-92171320D01*
X93734262Y-92171322D01*
X93727438Y-92175358D01*
X93713117Y-92189679D01*
X93698084Y-92202519D01*
X93681693Y-92214428D01*
X93676642Y-92220534D01*
X93653502Y-92248505D01*
X93645512Y-92257284D01*
X81625700Y-104277095D01*
X81563388Y-104311121D01*
X81536605Y-104314000D01*
X81480713Y-104314000D01*
X81474261Y-104315372D01*
X81474256Y-104315372D01*
X81387312Y-104333853D01*
X81293912Y-104353706D01*
X81287882Y-104356391D01*
X81287881Y-104356391D01*
X81125478Y-104428697D01*
X81125476Y-104428698D01*
X81119448Y-104431382D01*
X80964947Y-104543634D01*
X80837160Y-104685556D01*
X80741673Y-104850944D01*
X80682658Y-105032572D01*
X80662696Y-105222500D01*
X79876304Y-105222500D01*
X96074999Y-89023805D01*
X96137311Y-88989779D01*
X96164094Y-88986900D01*
X101637700Y-88986900D01*
X101705821Y-89006902D01*
X101725047Y-89023243D01*
X101725320Y-89022940D01*
X101730232Y-89027363D01*
X101734647Y-89032266D01*
X101746181Y-89040646D01*
X101860466Y-89123679D01*
X101889148Y-89144518D01*
X101895176Y-89147202D01*
X101895178Y-89147203D01*
X102010832Y-89198695D01*
X102063612Y-89222194D01*
X102157012Y-89242047D01*
X102243956Y-89260528D01*
X102243961Y-89260528D01*
X102250413Y-89261900D01*
X102441387Y-89261900D01*
X102447839Y-89260528D01*
X102447844Y-89260528D01*
X102534788Y-89242047D01*
X102628188Y-89222194D01*
X102680968Y-89198695D01*
X102796622Y-89147203D01*
X102796624Y-89147202D01*
X102802652Y-89144518D01*
X102957153Y-89032266D01*
X102991716Y-88993880D01*
X103080521Y-88895252D01*
X103080522Y-88895251D01*
X103084940Y-88890344D01*
X103180427Y-88724956D01*
X103239442Y-88543328D01*
X103242962Y-88509842D01*
X103258714Y-88359965D01*
X103259404Y-88353400D01*
X103255607Y-88317270D01*
X103268380Y-88247431D01*
X103316882Y-88195585D01*
X103380917Y-88178100D01*
X114888923Y-88178100D01*
X114957044Y-88198102D01*
X115003537Y-88251758D01*
X115013641Y-88322032D01*
X114984147Y-88386612D01*
X114954005Y-88411990D01*
X114924778Y-88429620D01*
X114924776Y-88429621D01*
X114917090Y-88434258D01*
X114888425Y-88465430D01*
X114879825Y-88473925D01*
X114854982Y-88496215D01*
X114854980Y-88496217D01*
X114848300Y-88502211D01*
X114826876Y-88536765D01*
X114814998Y-88555923D01*
X114812677Y-88559529D01*
X114810698Y-88562490D01*
X114155963Y-89542369D01*
X114152615Y-89547137D01*
X114117593Y-89594640D01*
X114109569Y-89616566D01*
X114103041Y-89634406D01*
X114098347Y-89645546D01*
X114080045Y-89683744D01*
X114077610Y-89698617D01*
X114069828Y-89746137D01*
X114069063Y-89750356D01*
X113838461Y-90909673D01*
X113837193Y-90915357D01*
X113823015Y-90972647D01*
X113823391Y-90981618D01*
X113824788Y-91014948D01*
X113824715Y-91027039D01*
X113824655Y-91028156D01*
X113822424Y-91069339D01*
X113824474Y-91078078D01*
X113836861Y-91130890D01*
X113837769Y-91135082D01*
X114068369Y-92294390D01*
X114069373Y-92300128D01*
X114078200Y-92358491D01*
X114096036Y-92396916D01*
X114100589Y-92408102D01*
X114102606Y-92413828D01*
X114114656Y-92448047D01*
X114119893Y-92455334D01*
X114119897Y-92455343D01*
X114151543Y-92499382D01*
X114153978Y-92502894D01*
X114728447Y-93362645D01*
X114810699Y-93485744D01*
X114813818Y-93490654D01*
X114844300Y-93541186D01*
X114875472Y-93569851D01*
X114883967Y-93578451D01*
X114906257Y-93603294D01*
X114906259Y-93603296D01*
X114912253Y-93609976D01*
X114919884Y-93614707D01*
X114965965Y-93643278D01*
X114969572Y-93645600D01*
X115952411Y-94302313D01*
X115957179Y-94305661D01*
X115970503Y-94315484D01*
X116004682Y-94340683D01*
X116032640Y-94350914D01*
X116044448Y-94355235D01*
X116055588Y-94359929D01*
X116093786Y-94378231D01*
X116138065Y-94385481D01*
X116156179Y-94388448D01*
X116160398Y-94389213D01*
X116968560Y-94549966D01*
X117319719Y-94619816D01*
X117325399Y-94621083D01*
X117382689Y-94635261D01*
X117391660Y-94634885D01*
X117424990Y-94633488D01*
X117437082Y-94633561D01*
X117470417Y-94635367D01*
X117470420Y-94635367D01*
X117479380Y-94635852D01*
X117540939Y-94621413D01*
X117545113Y-94620509D01*
X117545747Y-94620383D01*
X117912648Y-94547402D01*
X118704432Y-94389907D01*
X118710170Y-94388903D01*
X118741266Y-94384200D01*
X118768533Y-94380076D01*
X118806958Y-94362240D01*
X118818144Y-94357687D01*
X118849619Y-94346603D01*
X118849620Y-94346602D01*
X118858089Y-94343620D01*
X118865376Y-94338383D01*
X118865385Y-94338379D01*
X118909424Y-94306733D01*
X118912948Y-94304290D01*
X118934957Y-94289584D01*
X119895796Y-93647571D01*
X119900696Y-93644458D01*
X119920528Y-93632495D01*
X119943540Y-93618614D01*
X119943542Y-93618613D01*
X119951228Y-93613976D01*
X119979893Y-93582804D01*
X119988493Y-93574309D01*
X120013336Y-93552019D01*
X120013338Y-93552017D01*
X120020018Y-93546023D01*
X120053320Y-93492311D01*
X120055642Y-93488704D01*
X120056004Y-93488163D01*
X120170853Y-93316279D01*
X120712355Y-92505865D01*
X120715703Y-92501097D01*
X120745398Y-92460819D01*
X120750725Y-92453594D01*
X120765277Y-92413828D01*
X120769972Y-92402686D01*
X120788273Y-92364490D01*
X120798490Y-92302097D01*
X120799255Y-92297878D01*
X120989059Y-91343666D01*
X121029858Y-91138557D01*
X121031126Y-91132873D01*
X121043146Y-91084302D01*
X121045303Y-91075587D01*
X121043530Y-91033286D01*
X121043603Y-91021194D01*
X121045409Y-90987858D01*
X121045409Y-90987855D01*
X121045894Y-90978896D01*
X121031459Y-90917355D01*
X121030551Y-90913162D01*
X120799947Y-89753836D01*
X120798943Y-89748096D01*
X120791460Y-89698617D01*
X120790118Y-89689743D01*
X120772283Y-89651320D01*
X120767730Y-89640135D01*
X120765713Y-89634406D01*
X120753662Y-89600187D01*
X120748425Y-89592900D01*
X120748421Y-89592891D01*
X120716775Y-89548852D01*
X120714332Y-89545328D01*
X120709114Y-89537518D01*
X120057613Y-88562480D01*
X120054494Y-88557570D01*
X120028656Y-88514736D01*
X120028655Y-88514734D01*
X120024018Y-88507048D01*
X119992846Y-88478383D01*
X119984351Y-88469783D01*
X119962061Y-88444940D01*
X119962059Y-88444938D01*
X119956065Y-88438258D01*
X119912403Y-88411187D01*
X119865047Y-88358291D01*
X119853806Y-88288190D01*
X119882250Y-88223140D01*
X119941347Y-88183795D01*
X119978798Y-88178100D01*
X130705006Y-88178100D01*
X130773127Y-88198102D01*
X130794101Y-88215005D01*
X141761578Y-99182483D01*
X141795604Y-99244795D01*
X141797793Y-99258406D01*
X141815158Y-99423628D01*
X141874173Y-99605256D01*
X141969660Y-99770644D01*
X141974078Y-99775551D01*
X141974079Y-99775552D01*
X142023579Y-99830527D01*
X142097447Y-99912566D01*
X142251948Y-100024818D01*
X142257974Y-100027501D01*
X142257981Y-100027505D01*
X142335602Y-100062063D01*
X142389698Y-100108043D01*
X142410348Y-100175970D01*
X142390996Y-100244278D01*
X142363060Y-100275564D01*
X142352844Y-100283736D01*
X142336084Y-100290607D01*
X142350378Y-100298775D01*
X142350379Y-100298776D01*
X142813162Y-100563223D01*
X143118529Y-100737718D01*
X143135419Y-100737482D01*
X143135420Y-100737482D01*
X148718876Y-100659392D01*
X148718881Y-100659392D01*
X148723356Y-100659329D01*
X152211675Y-100110605D01*
X152208564Y-100053039D01*
X152134264Y-98678494D01*
X152134264Y-98678493D01*
X152133286Y-98660405D01*
X150850662Y-98202325D01*
X150499719Y-98076988D01*
X150499718Y-98076988D01*
X150487113Y-98072486D01*
X150473774Y-98073559D01*
X150473772Y-98073559D01*
X147086900Y-98346066D01*
X147086899Y-98346066D01*
X147077183Y-98346848D01*
X147068166Y-98350545D01*
X147068165Y-98350545D01*
X145574125Y-98963073D01*
X144102861Y-99566263D01*
X143723526Y-99721783D01*
X143652909Y-99729116D01*
X143589537Y-99697107D01*
X143553531Y-99635919D01*
X143555896Y-99566265D01*
X143602242Y-99423628D01*
X143622204Y-99233700D01*
X143608039Y-99098930D01*
X143602932Y-99050335D01*
X143602932Y-99050333D01*
X143602242Y-99043772D01*
X143543227Y-98862144D01*
X143447740Y-98696756D01*
X143415010Y-98660405D01*
X143324375Y-98559745D01*
X143324374Y-98559744D01*
X143319953Y-98554834D01*
X143165452Y-98442582D01*
X143159424Y-98439898D01*
X143159422Y-98439897D01*
X142997019Y-98367591D01*
X142997018Y-98367591D01*
X142990988Y-98364906D01*
X142896350Y-98344790D01*
X142810644Y-98326572D01*
X142810639Y-98326572D01*
X142804187Y-98325200D01*
X142748294Y-98325200D01*
X142680173Y-98305198D01*
X142659199Y-98288295D01*
X142043574Y-97672670D01*
X225192160Y-97672670D01*
X225197887Y-97680320D01*
X225369042Y-97785205D01*
X225377837Y-97789687D01*
X225587988Y-97876734D01*
X225597373Y-97879783D01*
X225818554Y-97932885D01*
X225828301Y-97934428D01*
X226055070Y-97952275D01*
X226064930Y-97952275D01*
X226291699Y-97934428D01*
X226301446Y-97932885D01*
X226522627Y-97879783D01*
X226532012Y-97876734D01*
X226742163Y-97789687D01*
X226750958Y-97785205D01*
X226918445Y-97682568D01*
X226927907Y-97672110D01*
X226924124Y-97663334D01*
X226072812Y-96812022D01*
X226058868Y-96804408D01*
X226057035Y-96804539D01*
X226050420Y-96808790D01*
X225198920Y-97660290D01*
X225192160Y-97672670D01*
X142043574Y-97672670D01*
X140815834Y-96444930D01*
X224547725Y-96444930D01*
X224565572Y-96671699D01*
X224567115Y-96681446D01*
X224620217Y-96902627D01*
X224623266Y-96912012D01*
X224710313Y-97122163D01*
X224714795Y-97130958D01*
X224817432Y-97298445D01*
X224827890Y-97307907D01*
X224836666Y-97304124D01*
X225687978Y-96452812D01*
X225694356Y-96441132D01*
X226424408Y-96441132D01*
X226424539Y-96442965D01*
X226428790Y-96449580D01*
X227280290Y-97301080D01*
X227292670Y-97307840D01*
X227300320Y-97302113D01*
X227405205Y-97130958D01*
X227409687Y-97122163D01*
X227496734Y-96912012D01*
X227499783Y-96902627D01*
X227552885Y-96681446D01*
X227554428Y-96671699D01*
X227572275Y-96444930D01*
X227572275Y-96435070D01*
X227554428Y-96208301D01*
X227552885Y-96198554D01*
X227499783Y-95977373D01*
X227496734Y-95967988D01*
X227409687Y-95757837D01*
X227405205Y-95749042D01*
X227302568Y-95581555D01*
X227292110Y-95572093D01*
X227283334Y-95575876D01*
X226432022Y-96427188D01*
X226424408Y-96441132D01*
X225694356Y-96441132D01*
X225695592Y-96438868D01*
X225695461Y-96437035D01*
X225691210Y-96430420D01*
X224839710Y-95578920D01*
X224827330Y-95572160D01*
X224819680Y-95577887D01*
X224714795Y-95749042D01*
X224710313Y-95757837D01*
X224623266Y-95967988D01*
X224620217Y-95977373D01*
X224567115Y-96198554D01*
X224565572Y-96208301D01*
X224547725Y-96435070D01*
X224547725Y-96444930D01*
X140815834Y-96444930D01*
X139578794Y-95207890D01*
X225192093Y-95207890D01*
X225195876Y-95216666D01*
X226047188Y-96067978D01*
X226061132Y-96075592D01*
X226062965Y-96075461D01*
X226069580Y-96071210D01*
X226921080Y-95219710D01*
X226927840Y-95207330D01*
X226922113Y-95199680D01*
X226750958Y-95094795D01*
X226742163Y-95090313D01*
X226532012Y-95003266D01*
X226522627Y-95000217D01*
X226301446Y-94947115D01*
X226291699Y-94945572D01*
X226064930Y-94927725D01*
X226055070Y-94927725D01*
X225828301Y-94945572D01*
X225818554Y-94947115D01*
X225597373Y-95000217D01*
X225587988Y-95003266D01*
X225377837Y-95090313D01*
X225369042Y-95094795D01*
X225201555Y-95197432D01*
X225192093Y-95207890D01*
X139578794Y-95207890D01*
X132078493Y-87707588D01*
X156648187Y-87707588D01*
X156650237Y-87716327D01*
X156662624Y-87769139D01*
X156663532Y-87773331D01*
X156894132Y-88932639D01*
X156895136Y-88938377D01*
X156903963Y-88996740D01*
X156921799Y-89035165D01*
X156926352Y-89046351D01*
X156928369Y-89052077D01*
X156940419Y-89086296D01*
X156945656Y-89093583D01*
X156945660Y-89093592D01*
X156977306Y-89137631D01*
X156979741Y-89141143D01*
X157577804Y-90036205D01*
X157636462Y-90123993D01*
X157639581Y-90128903D01*
X157670063Y-90179435D01*
X157701235Y-90208100D01*
X157709730Y-90216700D01*
X157732020Y-90241543D01*
X157732022Y-90241545D01*
X157738016Y-90248225D01*
X157745647Y-90252956D01*
X157791728Y-90281527D01*
X157795335Y-90283849D01*
X158778174Y-90940562D01*
X158782942Y-90943910D01*
X158808530Y-90962774D01*
X158830445Y-90978932D01*
X158854837Y-90987858D01*
X158870211Y-90993484D01*
X158881351Y-90998178D01*
X158919549Y-91016480D01*
X158963828Y-91023730D01*
X158981942Y-91026697D01*
X158986161Y-91027462D01*
X159940373Y-91217266D01*
X160145482Y-91258065D01*
X160151162Y-91259332D01*
X160208452Y-91273510D01*
X160217423Y-91273134D01*
X160250753Y-91271737D01*
X160262845Y-91271810D01*
X160296180Y-91273616D01*
X160296183Y-91273616D01*
X160305143Y-91274101D01*
X160366702Y-91259662D01*
X160370876Y-91258758D01*
X160371510Y-91258632D01*
X160975149Y-91138561D01*
X161530195Y-91028156D01*
X161535933Y-91027152D01*
X161575326Y-91021194D01*
X161594296Y-91018325D01*
X161632721Y-91000489D01*
X161643907Y-90995936D01*
X161675382Y-90984852D01*
X161675383Y-90984851D01*
X161683852Y-90981869D01*
X161691139Y-90976632D01*
X161691148Y-90976628D01*
X161735187Y-90944982D01*
X161738711Y-90942539D01*
X161741670Y-90940562D01*
X162721559Y-90285820D01*
X162726459Y-90282707D01*
X162746291Y-90270744D01*
X162769303Y-90256863D01*
X162769305Y-90256862D01*
X162776991Y-90252225D01*
X162805656Y-90221053D01*
X162814256Y-90212558D01*
X162839099Y-90190268D01*
X162839101Y-90190266D01*
X162845781Y-90184272D01*
X162879083Y-90130560D01*
X162881405Y-90126953D01*
X162881767Y-90126412D01*
X163134445Y-89748252D01*
X163538118Y-89144114D01*
X163541466Y-89139346D01*
X163571161Y-89099068D01*
X163576488Y-89091843D01*
X163591040Y-89052077D01*
X163595735Y-89040935D01*
X163614036Y-89002739D01*
X163624253Y-88940346D01*
X163625018Y-88936127D01*
X163835036Y-87880291D01*
X163855621Y-87776806D01*
X163856889Y-87771122D01*
X163857815Y-87767382D01*
X163871066Y-87713836D01*
X163870428Y-87698626D01*
X163869293Y-87671535D01*
X163869366Y-87659443D01*
X163871172Y-87626107D01*
X163871172Y-87626104D01*
X163871657Y-87617145D01*
X163857222Y-87555604D01*
X163856314Y-87551411D01*
X163625710Y-86392085D01*
X163624706Y-86386345D01*
X163617223Y-86336866D01*
X163615881Y-86327992D01*
X163598046Y-86289569D01*
X163593493Y-86278384D01*
X163591476Y-86272655D01*
X163579425Y-86238436D01*
X163574188Y-86231149D01*
X163574184Y-86231140D01*
X163542538Y-86187101D01*
X163540095Y-86183577D01*
X163539734Y-86183036D01*
X162883376Y-85200729D01*
X162880257Y-85195819D01*
X162854419Y-85152985D01*
X162854418Y-85152983D01*
X162849781Y-85145297D01*
X162818609Y-85116632D01*
X162810114Y-85108032D01*
X162787824Y-85083189D01*
X162787822Y-85083187D01*
X162781828Y-85076507D01*
X162728116Y-85043205D01*
X162724509Y-85040883D01*
X161741670Y-84384170D01*
X161736902Y-84380822D01*
X161696624Y-84351127D01*
X161689399Y-84345800D01*
X161649633Y-84331248D01*
X161638491Y-84326553D01*
X161633657Y-84324237D01*
X161600295Y-84308252D01*
X161556016Y-84301002D01*
X161537902Y-84298035D01*
X161533683Y-84297270D01*
X160579471Y-84107466D01*
X160374362Y-84066667D01*
X160368678Y-84065399D01*
X160311392Y-84051222D01*
X160302421Y-84051598D01*
X160269091Y-84052995D01*
X160257000Y-84052922D01*
X160223663Y-84051116D01*
X160223660Y-84051116D01*
X160214700Y-84050631D01*
X160153162Y-84065065D01*
X160148975Y-84065972D01*
X159414004Y-84212167D01*
X158989641Y-84296578D01*
X158983904Y-84297581D01*
X158925548Y-84306407D01*
X158887125Y-84324242D01*
X158875945Y-84328793D01*
X158835992Y-84342863D01*
X158828705Y-84348100D01*
X158828696Y-84348104D01*
X158784657Y-84379750D01*
X158781145Y-84382185D01*
X157914942Y-84960965D01*
X157798295Y-85038906D01*
X157793385Y-85042025D01*
X157773553Y-85053988D01*
X157750541Y-85067869D01*
X157750539Y-85067870D01*
X157742853Y-85072507D01*
X157726643Y-85090135D01*
X157714188Y-85103679D01*
X157705588Y-85112174D01*
X157680745Y-85134464D01*
X157680743Y-85134466D01*
X157674063Y-85140460D01*
X157651277Y-85177211D01*
X157640761Y-85194172D01*
X157638440Y-85197778D01*
X157636461Y-85200739D01*
X156981726Y-86180618D01*
X156978378Y-86185386D01*
X156977114Y-86187101D01*
X156943356Y-86232889D01*
X156940272Y-86241317D01*
X156928804Y-86272655D01*
X156924110Y-86283795D01*
X156905808Y-86321993D01*
X156903373Y-86336866D01*
X156895591Y-86384386D01*
X156894826Y-86388605D01*
X156761620Y-87058280D01*
X156675718Y-87490140D01*
X156664224Y-87547922D01*
X156662956Y-87553606D01*
X156648778Y-87610896D01*
X156649154Y-87619867D01*
X156650551Y-87653197D01*
X156650478Y-87665288D01*
X156648187Y-87707588D01*
X132078493Y-87707588D01*
X131523252Y-87152347D01*
X131515712Y-87144061D01*
X131511600Y-87137582D01*
X131461948Y-87090956D01*
X131459107Y-87088202D01*
X131439370Y-87068465D01*
X131436173Y-87065985D01*
X131427151Y-87058280D01*
X131400700Y-87033441D01*
X131394921Y-87028014D01*
X131387975Y-87024195D01*
X131387972Y-87024193D01*
X131377166Y-87018252D01*
X131360647Y-87007401D01*
X131360183Y-87007041D01*
X131344641Y-86994986D01*
X131337372Y-86991841D01*
X131337368Y-86991838D01*
X131304063Y-86977426D01*
X131293413Y-86972209D01*
X131254660Y-86950905D01*
X131235037Y-86945867D01*
X131216334Y-86939463D01*
X131205020Y-86934567D01*
X131205019Y-86934567D01*
X131197745Y-86931419D01*
X131189922Y-86930180D01*
X131189912Y-86930177D01*
X131154076Y-86924501D01*
X131142456Y-86922095D01*
X131107311Y-86913072D01*
X131107310Y-86913072D01*
X131099630Y-86911100D01*
X131079376Y-86911100D01*
X131059665Y-86909549D01*
X131047486Y-86907620D01*
X131039657Y-86906380D01*
X131031765Y-86907126D01*
X130995639Y-86910541D01*
X130983781Y-86911100D01*
X97634141Y-86911100D01*
X97566020Y-86891098D01*
X97560080Y-86887036D01*
X97474094Y-86824563D01*
X97474093Y-86824562D01*
X97468752Y-86820682D01*
X97462722Y-86817997D01*
X97456999Y-86814693D01*
X97458008Y-86812946D01*
X97411204Y-86773159D01*
X97390560Y-86705230D01*
X97409917Y-86636924D01*
X97427459Y-86614945D01*
X101002099Y-83040305D01*
X101064411Y-83006279D01*
X101091194Y-83003400D01*
X224543748Y-83003400D01*
X224611869Y-83023402D01*
X224658362Y-83077058D01*
X224668466Y-83147332D01*
X224660157Y-83177618D01*
X224622789Y-83267832D01*
X224622787Y-83267839D01*
X224620895Y-83272406D01*
X224565465Y-83503289D01*
X224546835Y-83740000D01*
X224565465Y-83976711D01*
X224566619Y-83981518D01*
X224566620Y-83981524D01*
X224583779Y-84052995D01*
X224620895Y-84207594D01*
X224622788Y-84212165D01*
X224622789Y-84212167D01*
X224694035Y-84384170D01*
X224711760Y-84426963D01*
X224714346Y-84431183D01*
X224833241Y-84625202D01*
X224833245Y-84625208D01*
X224835824Y-84629416D01*
X224990031Y-84809969D01*
X225170584Y-84964176D01*
X225174792Y-84966755D01*
X225174798Y-84966759D01*
X225368817Y-85085654D01*
X225373037Y-85088240D01*
X225377607Y-85090133D01*
X225377611Y-85090135D01*
X225529346Y-85152985D01*
X225592406Y-85179105D01*
X225655165Y-85194172D01*
X225818476Y-85233380D01*
X225818482Y-85233381D01*
X225823289Y-85234535D01*
X226060000Y-85253165D01*
X226296711Y-85234535D01*
X226301518Y-85233381D01*
X226301524Y-85233380D01*
X226464835Y-85194172D01*
X226527594Y-85179105D01*
X226590654Y-85152985D01*
X226742389Y-85090135D01*
X226742393Y-85090133D01*
X226746963Y-85088240D01*
X226751183Y-85085654D01*
X226945202Y-84966759D01*
X226945208Y-84966755D01*
X226949416Y-84964176D01*
X227129969Y-84809969D01*
X227284176Y-84629416D01*
X227286755Y-84625208D01*
X227286759Y-84625202D01*
X227405654Y-84431183D01*
X227408240Y-84426963D01*
X227425966Y-84384170D01*
X227497211Y-84212167D01*
X227497212Y-84212165D01*
X227499105Y-84207594D01*
X227536221Y-84052995D01*
X227553380Y-83981524D01*
X227553381Y-83981518D01*
X227554535Y-83976711D01*
X227565058Y-83843013D01*
X227590342Y-83776673D01*
X227647480Y-83734533D01*
X227690669Y-83726900D01*
X234207833Y-83726900D01*
X234219016Y-83727427D01*
X234226509Y-83729102D01*
X234234435Y-83728853D01*
X234234436Y-83728853D01*
X234294586Y-83726962D01*
X234298545Y-83726900D01*
X234326456Y-83726900D01*
X234330391Y-83726403D01*
X234330456Y-83726395D01*
X234342293Y-83725462D01*
X234374551Y-83724448D01*
X234378570Y-83724322D01*
X234386489Y-83724073D01*
X234405943Y-83718421D01*
X234425300Y-83714413D01*
X234437530Y-83712868D01*
X234437531Y-83712868D01*
X234445397Y-83711874D01*
X234452768Y-83708955D01*
X234452770Y-83708955D01*
X234486512Y-83695596D01*
X234497742Y-83691751D01*
X234532583Y-83681629D01*
X234532584Y-83681629D01*
X234540193Y-83679418D01*
X234547012Y-83675385D01*
X234547017Y-83675383D01*
X234557628Y-83669107D01*
X234575376Y-83660412D01*
X234594217Y-83652952D01*
X234629987Y-83626964D01*
X234639907Y-83620448D01*
X234671135Y-83601980D01*
X234671138Y-83601978D01*
X234677962Y-83597942D01*
X234692283Y-83583621D01*
X234707317Y-83570780D01*
X234717294Y-83563531D01*
X234723707Y-83558872D01*
X234751898Y-83524795D01*
X234759888Y-83516016D01*
X235739291Y-82536613D01*
X235801603Y-82502587D01*
X235872418Y-82507652D01*
X235908871Y-82528764D01*
X235955326Y-82567332D01*
X236148200Y-82680038D01*
X236356892Y-82759730D01*
X236361960Y-82760761D01*
X236361963Y-82760762D01*
X236409159Y-82770364D01*
X236575797Y-82804267D01*
X236580972Y-82804457D01*
X236580974Y-82804457D01*
X236793873Y-82812264D01*
X236793877Y-82812264D01*
X236799037Y-82812453D01*
X236804157Y-82811797D01*
X236804159Y-82811797D01*
X237015488Y-82784725D01*
X237015489Y-82784725D01*
X237020616Y-82784068D01*
X237025566Y-82782583D01*
X237229629Y-82721361D01*
X237229634Y-82721359D01*
X237234584Y-82719874D01*
X237435194Y-82621596D01*
X237617060Y-82491873D01*
X237662764Y-82446329D01*
X237771635Y-82337837D01*
X237775296Y-82334189D01*
X237905653Y-82152777D01*
X237926043Y-82111522D01*
X238002336Y-81957153D01*
X238002337Y-81957151D01*
X238004630Y-81952511D01*
X238060115Y-81769889D01*
X238068065Y-81743723D01*
X238068065Y-81743721D01*
X238069570Y-81738769D01*
X238098729Y-81517290D01*
X238100356Y-81450700D01*
X238082052Y-81228061D01*
X238027631Y-81011402D01*
X237938554Y-80806540D01*
X237817214Y-80618977D01*
X237666870Y-80453751D01*
X237662819Y-80450552D01*
X237662815Y-80450548D01*
X237495614Y-80318500D01*
X237495610Y-80318498D01*
X237491559Y-80315298D01*
X237450253Y-80292496D01*
X237400284Y-80242064D01*
X237385512Y-80172621D01*
X237410628Y-80106216D01*
X237437980Y-80079609D01*
X237511270Y-80027332D01*
X237617060Y-79951873D01*
X237662764Y-79906329D01*
X237771635Y-79797837D01*
X237775296Y-79794189D01*
X237905653Y-79612777D01*
X237947228Y-79528657D01*
X238002336Y-79417153D01*
X238002337Y-79417151D01*
X238004630Y-79412511D01*
X238044708Y-79280600D01*
X238068065Y-79203723D01*
X238068065Y-79203721D01*
X238069570Y-79198769D01*
X238098729Y-78977290D01*
X238100356Y-78910700D01*
X238082052Y-78688061D01*
X238027631Y-78471402D01*
X237938554Y-78266540D01*
X237817214Y-78078977D01*
X237666870Y-77913751D01*
X237662819Y-77910552D01*
X237662815Y-77910548D01*
X237495614Y-77778500D01*
X237495610Y-77778498D01*
X237491559Y-77775298D01*
X237472740Y-77764909D01*
X237389162Y-77718772D01*
X237295989Y-77667338D01*
X237291120Y-77665614D01*
X237291116Y-77665612D01*
X237090287Y-77594495D01*
X237090283Y-77594494D01*
X237085412Y-77592769D01*
X237080319Y-77591862D01*
X237080316Y-77591861D01*
X236870573Y-77554500D01*
X236870567Y-77554499D01*
X236865484Y-77553594D01*
X236791652Y-77552692D01*
X236647281Y-77550928D01*
X236647279Y-77550928D01*
X236642111Y-77550865D01*
X236421291Y-77584655D01*
X236208956Y-77654057D01*
X236151780Y-77683821D01*
X236056544Y-77733398D01*
X236010807Y-77757207D01*
X236006674Y-77760310D01*
X236006671Y-77760312D01*
X235961686Y-77794088D01*
X235832165Y-77891335D01*
X235677829Y-78052838D01*
X235570401Y-78210321D01*
X235515493Y-78255321D01*
X235444968Y-78263492D01*
X235381221Y-78232238D01*
X235360524Y-78207754D01*
X235280022Y-78083317D01*
X235280020Y-78083314D01*
X235277214Y-78078977D01*
X235126870Y-77913751D01*
X235122819Y-77910552D01*
X235122815Y-77910548D01*
X234955614Y-77778500D01*
X234955610Y-77778498D01*
X234951559Y-77775298D01*
X234932740Y-77764909D01*
X234849162Y-77718772D01*
X234755989Y-77667338D01*
X234751120Y-77665614D01*
X234751116Y-77665612D01*
X234550287Y-77594495D01*
X234550283Y-77594494D01*
X234545412Y-77592769D01*
X234540319Y-77591862D01*
X234540316Y-77591861D01*
X234330573Y-77554500D01*
X234330567Y-77554499D01*
X234325484Y-77553594D01*
X234251652Y-77552692D01*
X234107281Y-77550928D01*
X234107279Y-77550928D01*
X234102111Y-77550865D01*
X233881291Y-77584655D01*
X233668956Y-77654057D01*
X233638120Y-77670109D01*
X233568462Y-77683821D01*
X233502447Y-77657696D01*
X233490872Y-77647134D01*
X233487572Y-77642593D01*
X233453507Y-77614412D01*
X233444726Y-77606422D01*
X233169747Y-77331442D01*
X233162213Y-77323163D01*
X233158100Y-77316682D01*
X233108447Y-77270055D01*
X233105606Y-77267301D01*
X233085870Y-77247565D01*
X233082673Y-77245085D01*
X233073651Y-77237380D01*
X233060222Y-77224769D01*
X233041421Y-77207114D01*
X233034475Y-77203295D01*
X233034472Y-77203293D01*
X233023666Y-77197352D01*
X233007147Y-77186501D01*
X233006683Y-77186141D01*
X232991141Y-77174086D01*
X232983872Y-77170941D01*
X232983868Y-77170938D01*
X232950563Y-77156526D01*
X232939913Y-77151309D01*
X232901160Y-77130005D01*
X232881537Y-77124967D01*
X232862834Y-77118563D01*
X232851520Y-77113667D01*
X232851519Y-77113667D01*
X232844245Y-77110519D01*
X232836422Y-77109280D01*
X232836412Y-77109277D01*
X232800576Y-77103601D01*
X232788956Y-77101195D01*
X232753811Y-77092172D01*
X232753810Y-77092172D01*
X232746130Y-77090200D01*
X232725876Y-77090200D01*
X232706165Y-77088649D01*
X232693986Y-77086720D01*
X232686157Y-77085480D01*
X232656886Y-77088247D01*
X232642139Y-77089641D01*
X232630281Y-77090200D01*
X103489067Y-77090200D01*
X103477884Y-77089673D01*
X103470391Y-77087998D01*
X103462465Y-77088247D01*
X103462464Y-77088247D01*
X103402314Y-77090138D01*
X103398355Y-77090200D01*
X103370444Y-77090200D01*
X103366510Y-77090697D01*
X103366509Y-77090697D01*
X103366444Y-77090705D01*
X103354607Y-77091638D01*
X103322790Y-77092638D01*
X103318329Y-77092778D01*
X103310410Y-77093027D01*
X103292754Y-77098156D01*
X103290958Y-77098678D01*
X103271606Y-77102686D01*
X103268591Y-77103067D01*
X103251503Y-77105226D01*
X103244134Y-77108143D01*
X103244132Y-77108144D01*
X103210397Y-77121500D01*
X103199169Y-77125345D01*
X103156707Y-77137682D01*
X103149884Y-77141717D01*
X103149882Y-77141718D01*
X103139272Y-77147993D01*
X103121524Y-77156688D01*
X103102683Y-77164148D01*
X103096267Y-77168810D01*
X103096266Y-77168810D01*
X103066913Y-77190136D01*
X103056993Y-77196652D01*
X103025765Y-77215120D01*
X103025762Y-77215122D01*
X103018938Y-77219158D01*
X103004617Y-77233479D01*
X102989584Y-77246319D01*
X102973193Y-77258228D01*
X102963408Y-77270056D01*
X102945002Y-77292305D01*
X102937012Y-77301084D01*
X101902900Y-78335195D01*
X101840588Y-78369221D01*
X101813805Y-78372100D01*
X101757913Y-78372100D01*
X101751461Y-78373472D01*
X101751456Y-78373472D01*
X101664513Y-78391953D01*
X101571112Y-78411806D01*
X101565082Y-78414491D01*
X101565081Y-78414491D01*
X101402678Y-78486797D01*
X101402676Y-78486798D01*
X101396648Y-78489482D01*
X101242147Y-78601734D01*
X101237732Y-78606637D01*
X101232820Y-78611060D01*
X101231695Y-78609811D01*
X101178386Y-78642651D01*
X101145200Y-78647100D01*
X97749995Y-78647100D01*
X97681874Y-78627098D01*
X97660900Y-78610195D01*
X96331052Y-77280347D01*
X96323512Y-77272061D01*
X96319400Y-77265582D01*
X96269748Y-77218956D01*
X96266907Y-77216202D01*
X96247170Y-77196465D01*
X96243973Y-77193985D01*
X96234951Y-77186280D01*
X96221522Y-77173669D01*
X96202721Y-77156014D01*
X96195775Y-77152195D01*
X96195772Y-77152193D01*
X96184966Y-77146252D01*
X96168447Y-77135401D01*
X96158949Y-77128034D01*
X96152441Y-77122986D01*
X96145172Y-77119841D01*
X96145168Y-77119838D01*
X96111863Y-77105426D01*
X96101213Y-77100209D01*
X96062460Y-77078905D01*
X96042837Y-77073867D01*
X96024134Y-77067463D01*
X96012820Y-77062567D01*
X96012819Y-77062567D01*
X96005545Y-77059419D01*
X95997722Y-77058180D01*
X95997712Y-77058177D01*
X95961876Y-77052501D01*
X95950256Y-77050095D01*
X95915111Y-77041072D01*
X95915110Y-77041072D01*
X95907430Y-77039100D01*
X95887176Y-77039100D01*
X95867465Y-77037549D01*
X95855286Y-77035620D01*
X95847457Y-77034380D01*
X95818186Y-77037147D01*
X95803439Y-77038541D01*
X95791581Y-77039100D01*
X73054067Y-77039100D01*
X73042884Y-77038573D01*
X73035391Y-77036898D01*
X73027465Y-77037147D01*
X73027464Y-77037147D01*
X72967314Y-77039038D01*
X72963355Y-77039100D01*
X72935444Y-77039100D01*
X72931510Y-77039597D01*
X72931509Y-77039597D01*
X72931444Y-77039605D01*
X72919607Y-77040538D01*
X72887349Y-77041552D01*
X72883330Y-77041678D01*
X72875411Y-77041927D01*
X72855957Y-77047579D01*
X72836600Y-77051587D01*
X72824370Y-77053132D01*
X72824369Y-77053132D01*
X72816503Y-77054126D01*
X72809132Y-77057045D01*
X72809130Y-77057045D01*
X72775388Y-77070404D01*
X72764158Y-77074249D01*
X72729317Y-77084371D01*
X72729316Y-77084371D01*
X72721707Y-77086582D01*
X72714888Y-77090615D01*
X72714883Y-77090617D01*
X72704272Y-77096893D01*
X72686524Y-77105588D01*
X72667683Y-77113048D01*
X72661267Y-77117710D01*
X72661266Y-77117710D01*
X72631913Y-77139036D01*
X72621993Y-77145552D01*
X72590765Y-77164020D01*
X72590762Y-77164022D01*
X72583938Y-77168058D01*
X72569617Y-77182379D01*
X72554584Y-77195219D01*
X72538193Y-77207128D01*
X72533142Y-77213233D01*
X72533137Y-77213238D01*
X72510001Y-77241204D01*
X72502013Y-77249982D01*
X71967693Y-77784302D01*
X71905381Y-77818328D01*
X71834566Y-77813263D01*
X71800505Y-77794088D01*
X71788114Y-77784302D01*
X71723659Y-77733398D01*
X71577045Y-77652463D01*
X71527075Y-77602031D01*
X71512303Y-77532589D01*
X71537419Y-77466183D01*
X71548844Y-77453060D01*
X75064900Y-73937005D01*
X75127212Y-73902979D01*
X75153995Y-73900100D01*
X101390000Y-73900100D01*
X101458121Y-73920102D01*
X101477347Y-73936443D01*
X101477620Y-73936140D01*
X101482532Y-73940563D01*
X101486947Y-73945466D01*
X101641448Y-74057718D01*
X101647476Y-74060402D01*
X101647478Y-74060403D01*
X101809881Y-74132709D01*
X101815912Y-74135394D01*
X101909312Y-74155247D01*
X101996256Y-74173728D01*
X101996261Y-74173728D01*
X102002713Y-74175100D01*
X102193687Y-74175100D01*
X102200139Y-74173728D01*
X102200144Y-74173728D01*
X102287088Y-74155247D01*
X102380488Y-74135394D01*
X102386519Y-74132709D01*
X102548922Y-74060403D01*
X102548924Y-74060402D01*
X102554952Y-74057718D01*
X102709453Y-73945466D01*
X102733366Y-73918908D01*
X102832821Y-73808452D01*
X102832822Y-73808451D01*
X102837240Y-73803544D01*
X102932727Y-73638156D01*
X102991742Y-73456528D01*
X102999071Y-73386802D01*
X103011014Y-73273165D01*
X103011704Y-73266600D01*
X102991742Y-73076672D01*
X102932727Y-72895044D01*
X102837240Y-72729656D01*
X102821082Y-72711710D01*
X102713875Y-72592645D01*
X102713874Y-72592644D01*
X102709453Y-72587734D01*
X102610357Y-72515736D01*
X102560294Y-72479363D01*
X102560293Y-72479362D01*
X102554952Y-72475482D01*
X102548924Y-72472798D01*
X102548922Y-72472797D01*
X102386519Y-72400491D01*
X102386518Y-72400491D01*
X102380488Y-72397806D01*
X102287087Y-72377953D01*
X102200144Y-72359472D01*
X102200139Y-72359472D01*
X102193687Y-72358100D01*
X102002713Y-72358100D01*
X101996261Y-72359472D01*
X101996256Y-72359472D01*
X101909313Y-72377953D01*
X101815912Y-72397806D01*
X101809882Y-72400491D01*
X101809881Y-72400491D01*
X101647478Y-72472797D01*
X101647476Y-72472798D01*
X101641448Y-72475482D01*
X101636107Y-72479362D01*
X101636106Y-72479363D01*
X101572182Y-72525807D01*
X101486947Y-72587734D01*
X101482532Y-72592637D01*
X101477620Y-72597060D01*
X101476495Y-72595811D01*
X101423186Y-72628651D01*
X101390000Y-72633100D01*
X74918167Y-72633100D01*
X74906984Y-72632573D01*
X74899491Y-72630898D01*
X74891565Y-72631147D01*
X74891564Y-72631147D01*
X74831414Y-72633038D01*
X74827455Y-72633100D01*
X74799544Y-72633100D01*
X74795610Y-72633597D01*
X74795609Y-72633597D01*
X74795544Y-72633605D01*
X74783707Y-72634538D01*
X74751449Y-72635552D01*
X74747430Y-72635678D01*
X74739511Y-72635927D01*
X74720057Y-72641579D01*
X74700700Y-72645587D01*
X74688470Y-72647132D01*
X74688469Y-72647132D01*
X74680603Y-72648126D01*
X74673232Y-72651045D01*
X74673230Y-72651045D01*
X74639488Y-72664404D01*
X74628258Y-72668249D01*
X74593417Y-72678371D01*
X74593416Y-72678371D01*
X74585807Y-72680582D01*
X74578988Y-72684615D01*
X74578983Y-72684617D01*
X74568372Y-72690893D01*
X74550624Y-72699588D01*
X74531783Y-72707048D01*
X74525367Y-72711710D01*
X74525366Y-72711710D01*
X74496013Y-72733036D01*
X74486093Y-72739552D01*
X74454865Y-72758020D01*
X74454862Y-72758022D01*
X74448038Y-72762058D01*
X74433717Y-72776379D01*
X74418684Y-72789219D01*
X74402293Y-72801128D01*
X74397242Y-72807234D01*
X74374102Y-72835205D01*
X74366112Y-72843984D01*
X69666740Y-77543355D01*
X69604428Y-77577381D01*
X69533613Y-77572316D01*
X69528236Y-77569857D01*
X69526005Y-77568185D01*
X69389616Y-77517055D01*
X69327434Y-77510300D01*
X67531166Y-77510300D01*
X67468984Y-77517055D01*
X67332595Y-77568185D01*
X67216039Y-77655539D01*
X67128685Y-77772095D01*
X67077555Y-77908484D01*
X67070800Y-77970666D01*
X67070800Y-79766934D01*
X64529259Y-79766934D01*
X64529259Y-69943965D01*
X66147057Y-69943965D01*
X66160741Y-70335827D01*
X66212599Y-70724484D01*
X66213299Y-70727468D01*
X66213300Y-70727474D01*
X66239255Y-70838133D01*
X66302136Y-71106225D01*
X66428496Y-71477407D01*
X66590475Y-71834487D01*
X66786525Y-72174056D01*
X66788314Y-72176554D01*
X66788316Y-72176558D01*
X67002325Y-72475482D01*
X67014776Y-72492874D01*
X67016802Y-72495189D01*
X67016805Y-72495192D01*
X67269107Y-72783393D01*
X67273049Y-72787896D01*
X67558878Y-73056308D01*
X67696837Y-73162550D01*
X67840474Y-73273165D01*
X67869536Y-73295546D01*
X67872139Y-73297173D01*
X67872144Y-73297176D01*
X67991576Y-73371805D01*
X68202056Y-73503328D01*
X68553266Y-73677670D01*
X68919812Y-73816907D01*
X69298195Y-73919712D01*
X69596419Y-73970153D01*
X69681783Y-73984591D01*
X69681786Y-73984591D01*
X69684805Y-73985102D01*
X69839444Y-73995916D01*
X70072885Y-74012240D01*
X70072893Y-74012240D01*
X70075951Y-74012454D01*
X70328037Y-74005413D01*
X70464825Y-74001592D01*
X70464828Y-74001592D01*
X70467899Y-74001506D01*
X70470952Y-74001120D01*
X70470956Y-74001120D01*
X70612576Y-73983229D01*
X70856908Y-73952362D01*
X70859912Y-73951680D01*
X70859915Y-73951679D01*
X71236269Y-73866174D01*
X71236275Y-73866172D01*
X71239265Y-73865493D01*
X71242184Y-73864522D01*
X71608396Y-73742700D01*
X71608402Y-73742698D01*
X71611320Y-73741727D01*
X71752735Y-73678765D01*
X71966722Y-73583492D01*
X71966728Y-73583489D01*
X71969522Y-73582245D01*
X71972191Y-73580729D01*
X72307784Y-73390086D01*
X72307790Y-73390083D01*
X72310452Y-73388570D01*
X72630855Y-73162550D01*
X72756390Y-73054192D01*
X72925347Y-72908353D01*
X72925351Y-72908349D01*
X72927674Y-72906344D01*
X72987059Y-72843984D01*
X73157077Y-72665446D01*
X73198074Y-72622395D01*
X73221318Y-72592645D01*
X73437565Y-72315860D01*
X73437567Y-72315857D01*
X73439475Y-72313415D01*
X73649574Y-71982354D01*
X73826363Y-71632370D01*
X73858437Y-71549678D01*
X73967041Y-71269681D01*
X73967044Y-71269672D01*
X73968156Y-71266805D01*
X74073600Y-70889148D01*
X74141688Y-70503004D01*
X74154788Y-70332747D01*
X74171619Y-70114013D01*
X74171619Y-70114002D01*
X74171769Y-70112059D01*
X74173334Y-70000000D01*
X74170594Y-69943965D01*
X74154330Y-69611440D01*
X74154180Y-69608367D01*
X74096901Y-69220473D01*
X74002043Y-68840019D01*
X73870512Y-68470637D01*
X73703564Y-68115854D01*
X73701997Y-68113225D01*
X73701992Y-68113216D01*
X73504361Y-67781689D01*
X73502791Y-67779055D01*
X73500977Y-67776595D01*
X73500972Y-67776587D01*
X73271933Y-67465926D01*
X73271931Y-67465923D01*
X73270111Y-67463455D01*
X73007744Y-67172068D01*
X72718195Y-66907673D01*
X72404228Y-66672795D01*
X72356015Y-66643596D01*
X72071467Y-66471267D01*
X72071458Y-66471262D01*
X72068839Y-66469676D01*
X71715229Y-66300255D01*
X71712339Y-66299203D01*
X71712334Y-66299201D01*
X71349674Y-66167204D01*
X71349671Y-66167203D01*
X71346775Y-66166149D01*
X71070563Y-66095229D01*
X70969977Y-66069403D01*
X70969974Y-66069402D01*
X70966993Y-66068637D01*
X70579508Y-66008651D01*
X70188018Y-65986764D01*
X70184939Y-65986893D01*
X70184936Y-65986893D01*
X69929188Y-65997612D01*
X69796261Y-66003183D01*
X69793217Y-66003611D01*
X69793215Y-66003611D01*
X69670995Y-66020788D01*
X69407976Y-66057753D01*
X69026869Y-66149953D01*
X68656579Y-66278902D01*
X68300638Y-66443369D01*
X67962446Y-66641785D01*
X67802444Y-66758033D01*
X67647711Y-66870453D01*
X67647705Y-66870458D01*
X67645230Y-66872256D01*
X67642944Y-66874285D01*
X67642941Y-66874288D01*
X67563123Y-66945154D01*
X67352017Y-67132583D01*
X67349938Y-67134828D01*
X67349931Y-67134835D01*
X67261569Y-67230258D01*
X67085608Y-67420279D01*
X66848544Y-67732599D01*
X66643089Y-68066562D01*
X66471203Y-68418980D01*
X66334527Y-68786489D01*
X66234367Y-69165581D01*
X66171677Y-69552638D01*
X66171483Y-69555718D01*
X66171483Y-69555720D01*
X66149443Y-69906035D01*
X66147057Y-69943965D01*
X64529259Y-69943965D01*
X64529259Y-66134652D01*
X64531420Y-66111414D01*
X64694032Y-65244834D01*
X64711280Y-65200884D01*
X65137183Y-64525208D01*
X65170947Y-64489575D01*
X65795434Y-64047257D01*
X65842265Y-64026789D01*
X66633363Y-63859983D01*
X66659359Y-63857272D01*
X83534721Y-63857272D01*
X83602842Y-63877274D01*
G37*
%TD.AperFunction*%
%TA.AperFunction,Conductor*%
G36*
X230362980Y-80754802D02*
G01*
X230409473Y-80808458D01*
X230419577Y-80878732D01*
X230409147Y-80913850D01*
X230380539Y-80975483D01*
X230376975Y-80985170D01*
X230321589Y-81184883D01*
X230323112Y-81193307D01*
X230335492Y-81196700D01*
X231785200Y-81196700D01*
X231853321Y-81216702D01*
X231899814Y-81270358D01*
X231911200Y-81322700D01*
X231911200Y-81578700D01*
X231891198Y-81646821D01*
X231837542Y-81693314D01*
X231785200Y-81704700D01*
X230340425Y-81704700D01*
X230326894Y-81708673D01*
X230325457Y-81718666D01*
X230353523Y-81843199D01*
X230348987Y-81914050D01*
X230306866Y-81971202D01*
X230240532Y-81996508D01*
X230230606Y-81996900D01*
X228090694Y-81996900D01*
X228022573Y-81976898D01*
X228001599Y-81959995D01*
X226991500Y-80949895D01*
X226957474Y-80887583D01*
X226962539Y-80816767D01*
X227005086Y-80759932D01*
X227071606Y-80735121D01*
X227080595Y-80734800D01*
X230294859Y-80734800D01*
X230362980Y-80754802D01*
G37*
%TD.AperFunction*%
%TD*%
%TA.AperFunction,NonConductor*%
G36*
X69884850Y-96162492D02*
G01*
X69919517Y-96190480D01*
X69944718Y-96219573D01*
X69952080Y-96226783D01*
X70115934Y-96362816D01*
X70124381Y-96368731D01*
X70193469Y-96409103D01*
X70242193Y-96460742D01*
X70255264Y-96530525D01*
X70228533Y-96596296D01*
X70188084Y-96629652D01*
X70175107Y-96636407D01*
X70170974Y-96639510D01*
X70170971Y-96639512D01*
X70047067Y-96732542D01*
X69996465Y-96770535D01*
X69842129Y-96932038D01*
X69734701Y-97089521D01*
X69679793Y-97134521D01*
X69609268Y-97142692D01*
X69545521Y-97111438D01*
X69524824Y-97086954D01*
X69444322Y-96962517D01*
X69444320Y-96962514D01*
X69441514Y-96958177D01*
X69438032Y-96954350D01*
X69294298Y-96796388D01*
X69263246Y-96732542D01*
X69271641Y-96662043D01*
X69316817Y-96607275D01*
X69343261Y-96593606D01*
X69449797Y-96553667D01*
X69458205Y-96550515D01*
X69574761Y-96463161D01*
X69662115Y-96346605D01*
X69706298Y-96228748D01*
X69748940Y-96171984D01*
X69815501Y-96147284D01*
X69884850Y-96162492D01*
G37*
%TD.AperFunction*%
%TA.AperFunction,NonConductor*%
G36*
X72253251Y-95924578D02*
G01*
X72281079Y-95956411D01*
X72293925Y-95977373D01*
X72341487Y-96054988D01*
X72487750Y-96223838D01*
X72659626Y-96366532D01*
X72693306Y-96386213D01*
X72732945Y-96409376D01*
X72781669Y-96461014D01*
X72794740Y-96530797D01*
X72768009Y-96596569D01*
X72727555Y-96629927D01*
X72715107Y-96636407D01*
X72710974Y-96639510D01*
X72710971Y-96639512D01*
X72587067Y-96732542D01*
X72536465Y-96770535D01*
X72382129Y-96932038D01*
X72274701Y-97089521D01*
X72219793Y-97134521D01*
X72149268Y-97142692D01*
X72085521Y-97111438D01*
X72064824Y-97086954D01*
X71984322Y-96962517D01*
X71984320Y-96962514D01*
X71981514Y-96958177D01*
X71831170Y-96792951D01*
X71827119Y-96789752D01*
X71827115Y-96789748D01*
X71659914Y-96657700D01*
X71659910Y-96657698D01*
X71655859Y-96654498D01*
X71614069Y-96631429D01*
X71564098Y-96580997D01*
X71549326Y-96511554D01*
X71574442Y-96445148D01*
X71601794Y-96418541D01*
X71776828Y-96293692D01*
X71784700Y-96287039D01*
X71935552Y-96136712D01*
X71942230Y-96128865D01*
X72069522Y-95951719D01*
X72070779Y-95952622D01*
X72117873Y-95909262D01*
X72187811Y-95897045D01*
X72253251Y-95924578D01*
G37*
%TD.AperFunction*%
%TA.AperFunction,NonConductor*%
G36*
X95580927Y-78326102D02*
G01*
X95601901Y-78343005D01*
X96511601Y-79252705D01*
X96545627Y-79315017D01*
X96540562Y-79385832D01*
X96498015Y-79442668D01*
X96431495Y-79467479D01*
X96422506Y-79467800D01*
X76231495Y-79467800D01*
X76163374Y-79447798D01*
X76142400Y-79430895D01*
X75232700Y-78521195D01*
X75198674Y-78458883D01*
X75203739Y-78388068D01*
X75246286Y-78331232D01*
X75312806Y-78306421D01*
X75321795Y-78306100D01*
X95512806Y-78306100D01*
X95580927Y-78326102D01*
G37*
%TD.AperFunction*%
%TA.AperFunction,NonConductor*%
G36*
X230240821Y-78377202D02*
G01*
X230287314Y-78430858D01*
X230298700Y-78483200D01*
X230298700Y-79341800D01*
X230278698Y-79409921D01*
X230225042Y-79456414D01*
X230172700Y-79467800D01*
X102887166Y-79467800D01*
X102819045Y-79447798D01*
X102772552Y-79394142D01*
X102761856Y-79328631D01*
X102764307Y-79305309D01*
X102791319Y-79239652D01*
X102800522Y-79229382D01*
X103635801Y-78394104D01*
X103698113Y-78360079D01*
X103724896Y-78357200D01*
X230172700Y-78357200D01*
X230240821Y-78377202D01*
G37*
%TD.AperFunction*%
%TA.AperFunction,NonConductor*%
G36*
X72321326Y-79543944D02*
G01*
X72349175Y-79575794D01*
X72409287Y-79673888D01*
X72461168Y-79733781D01*
X72490649Y-79798364D01*
X72480534Y-79868637D01*
X72455024Y-79905372D01*
X72005910Y-80354485D01*
X71943598Y-80388510D01*
X71872782Y-80383445D01*
X71838722Y-80364270D01*
X71822719Y-80351631D01*
X71750781Y-80294818D01*
X71727715Y-80276601D01*
X71727713Y-80276600D01*
X71723659Y-80273398D01*
X71682353Y-80250596D01*
X71632384Y-80200164D01*
X71617612Y-80130721D01*
X71642728Y-80064316D01*
X71670080Y-80037709D01*
X71728965Y-79995707D01*
X71849160Y-79909973D01*
X72007396Y-79752289D01*
X72137753Y-79570877D01*
X72139076Y-79571828D01*
X72185945Y-79528657D01*
X72255880Y-79516425D01*
X72321326Y-79543944D01*
G37*
%TD.AperFunction*%
%TA.AperFunction,NonConductor*%
G36*
X69952450Y-79781926D02*
G01*
X69987117Y-79809914D01*
X70015550Y-79842738D01*
X70187426Y-79985432D01*
X70205010Y-79995707D01*
X70260745Y-80028276D01*
X70309469Y-80079914D01*
X70322540Y-80149697D01*
X70295809Y-80215469D01*
X70255355Y-80248827D01*
X70242907Y-80255307D01*
X70238774Y-80258410D01*
X70238771Y-80258412D01*
X70068400Y-80386330D01*
X70064265Y-80389435D01*
X70027192Y-80428230D01*
X69925551Y-80534591D01*
X69909929Y-80550938D01*
X69907015Y-80555210D01*
X69907014Y-80555211D01*
X69802198Y-80708866D01*
X69747287Y-80753869D01*
X69676762Y-80762040D01*
X69613015Y-80730786D01*
X69592318Y-80706302D01*
X69511726Y-80581726D01*
X69505436Y-80573557D01*
X69361593Y-80415477D01*
X69330541Y-80351631D01*
X69338935Y-80281133D01*
X69384112Y-80226364D01*
X69410556Y-80212695D01*
X69517597Y-80172567D01*
X69526005Y-80169415D01*
X69642561Y-80082061D01*
X69729915Y-79965505D01*
X69735025Y-79951873D01*
X69773898Y-79848182D01*
X69816540Y-79791418D01*
X69883102Y-79766718D01*
X69952450Y-79781926D01*
G37*
%TD.AperFunction*%
%TA.AperFunction,NonConductor*%
G36*
X235871325Y-79966746D02*
G01*
X235907777Y-79987857D01*
X235917233Y-79995707D01*
X235955326Y-80027332D01*
X235959789Y-80029940D01*
X236028645Y-80070176D01*
X236077369Y-80121814D01*
X236090440Y-80191597D01*
X236063709Y-80257369D01*
X236023255Y-80290727D01*
X236010807Y-80297207D01*
X236006674Y-80300310D01*
X236006671Y-80300312D01*
X235849181Y-80418559D01*
X235832165Y-80431335D01*
X235677829Y-80592838D01*
X235570401Y-80750321D01*
X235515493Y-80795321D01*
X235444968Y-80803492D01*
X235381221Y-80772238D01*
X235360524Y-80747754D01*
X235327507Y-80696718D01*
X235277214Y-80618977D01*
X235273830Y-80615258D01*
X235248130Y-80549121D01*
X235262275Y-80479547D01*
X235284580Y-80449325D01*
X235738198Y-79995707D01*
X235800510Y-79961681D01*
X235871325Y-79966746D01*
G37*
%TD.AperFunction*%
%TA.AperFunction,NonConductor*%
G36*
X100296807Y-81734702D02*
G01*
X100343300Y-81788358D01*
X100353404Y-81858632D01*
X100325771Y-81921015D01*
X100311312Y-81938493D01*
X100303322Y-81947273D01*
X96375400Y-85875195D01*
X96313088Y-85909221D01*
X96286305Y-85912100D01*
X96230413Y-85912100D01*
X96223961Y-85913472D01*
X96223956Y-85913472D01*
X96137012Y-85931953D01*
X96043612Y-85951806D01*
X96037582Y-85954491D01*
X96037581Y-85954491D01*
X95875178Y-86026797D01*
X95875176Y-86026798D01*
X95869148Y-86029482D01*
X95714647Y-86141734D01*
X95710232Y-86146637D01*
X95705320Y-86151060D01*
X95704195Y-86149811D01*
X95650886Y-86182651D01*
X95617700Y-86187100D01*
X79235694Y-86187100D01*
X79167573Y-86167098D01*
X79146599Y-86150195D01*
X74926200Y-81929795D01*
X74892174Y-81867483D01*
X74897239Y-81796667D01*
X74939786Y-81739832D01*
X75006306Y-81715021D01*
X75015295Y-81714700D01*
X100228686Y-81714700D01*
X100296807Y-81734702D01*
G37*
%TD.AperFunction*%
M02*
