%TF.GenerationSoftware,KiCad,Pcbnew,7.0.1-0*%
%TF.CreationDate,2023-04-22T13:11:18-04:00*%
%TF.ProjectId,WrightFlyer,57726967-6874-4466-9c79-65722e6b6963,v04*%
%TF.SameCoordinates,Original*%
%TF.FileFunction,Legend,Top*%
%TF.FilePolarity,Positive*%
%FSLAX46Y46*%
G04 Gerber Fmt 4.6, Leading zero omitted, Abs format (unit mm)*
G04 Created by KiCad (PCBNEW 7.0.1-0) date 2023-04-22 13:11:18*
%MOMM*%
%LPD*%
G01*
G04 APERTURE LIST*
%ADD10C,0.300000*%
%ADD11C,0.100000*%
%ADD12R,1.524000X1.524000*%
%ADD13C,1.524000*%
%ADD14R,2.000000X2.000000*%
%ADD15C,2.000000*%
G04 APERTURE END LIST*
D10*
X131721430Y-65233928D02*
X132078573Y-66733928D01*
X132078573Y-66733928D02*
X132364287Y-65662500D01*
X132364287Y-65662500D02*
X132650002Y-66733928D01*
X132650002Y-66733928D02*
X133007145Y-65233928D01*
X133578573Y-66733928D02*
X133578573Y-65733928D01*
X133578573Y-66019642D02*
X133650002Y-65876785D01*
X133650002Y-65876785D02*
X133721431Y-65805357D01*
X133721431Y-65805357D02*
X133864288Y-65733928D01*
X133864288Y-65733928D02*
X134007145Y-65733928D01*
X134507144Y-66733928D02*
X134507144Y-65733928D01*
X134507144Y-65233928D02*
X134435716Y-65305357D01*
X134435716Y-65305357D02*
X134507144Y-65376785D01*
X134507144Y-65376785D02*
X134578573Y-65305357D01*
X134578573Y-65305357D02*
X134507144Y-65233928D01*
X134507144Y-65233928D02*
X134507144Y-65376785D01*
X135864288Y-65733928D02*
X135864288Y-66948214D01*
X135864288Y-66948214D02*
X135792859Y-67091071D01*
X135792859Y-67091071D02*
X135721430Y-67162500D01*
X135721430Y-67162500D02*
X135578573Y-67233928D01*
X135578573Y-67233928D02*
X135364288Y-67233928D01*
X135364288Y-67233928D02*
X135221430Y-67162500D01*
X135864288Y-66662500D02*
X135721430Y-66733928D01*
X135721430Y-66733928D02*
X135435716Y-66733928D01*
X135435716Y-66733928D02*
X135292859Y-66662500D01*
X135292859Y-66662500D02*
X135221430Y-66591071D01*
X135221430Y-66591071D02*
X135150002Y-66448214D01*
X135150002Y-66448214D02*
X135150002Y-66019642D01*
X135150002Y-66019642D02*
X135221430Y-65876785D01*
X135221430Y-65876785D02*
X135292859Y-65805357D01*
X135292859Y-65805357D02*
X135435716Y-65733928D01*
X135435716Y-65733928D02*
X135721430Y-65733928D01*
X135721430Y-65733928D02*
X135864288Y-65805357D01*
X136578573Y-66733928D02*
X136578573Y-65233928D01*
X137221431Y-66733928D02*
X137221431Y-65948214D01*
X137221431Y-65948214D02*
X137150002Y-65805357D01*
X137150002Y-65805357D02*
X137007145Y-65733928D01*
X137007145Y-65733928D02*
X136792859Y-65733928D01*
X136792859Y-65733928D02*
X136650002Y-65805357D01*
X136650002Y-65805357D02*
X136578573Y-65876785D01*
X137721431Y-65733928D02*
X138292859Y-65733928D01*
X137935716Y-65233928D02*
X137935716Y-66519642D01*
X137935716Y-66519642D02*
X138007145Y-66662500D01*
X138007145Y-66662500D02*
X138150002Y-66733928D01*
X138150002Y-66733928D02*
X138292859Y-66733928D01*
X140435716Y-65948214D02*
X139935716Y-65948214D01*
X139935716Y-66733928D02*
X139935716Y-65233928D01*
X139935716Y-65233928D02*
X140650002Y-65233928D01*
X141435716Y-66733928D02*
X141292859Y-66662500D01*
X141292859Y-66662500D02*
X141221430Y-66519642D01*
X141221430Y-66519642D02*
X141221430Y-65233928D01*
X141864287Y-65733928D02*
X142221430Y-66733928D01*
X142578573Y-65733928D02*
X142221430Y-66733928D01*
X142221430Y-66733928D02*
X142078573Y-67091071D01*
X142078573Y-67091071D02*
X142007144Y-67162500D01*
X142007144Y-67162500D02*
X141864287Y-67233928D01*
X143721430Y-66662500D02*
X143578573Y-66733928D01*
X143578573Y-66733928D02*
X143292859Y-66733928D01*
X143292859Y-66733928D02*
X143150001Y-66662500D01*
X143150001Y-66662500D02*
X143078573Y-66519642D01*
X143078573Y-66519642D02*
X143078573Y-65948214D01*
X143078573Y-65948214D02*
X143150001Y-65805357D01*
X143150001Y-65805357D02*
X143292859Y-65733928D01*
X143292859Y-65733928D02*
X143578573Y-65733928D01*
X143578573Y-65733928D02*
X143721430Y-65805357D01*
X143721430Y-65805357D02*
X143792859Y-65948214D01*
X143792859Y-65948214D02*
X143792859Y-66091071D01*
X143792859Y-66091071D02*
X143078573Y-66233928D01*
X144435715Y-66733928D02*
X144435715Y-65733928D01*
X144435715Y-66019642D02*
X144507144Y-65876785D01*
X144507144Y-65876785D02*
X144578573Y-65805357D01*
X144578573Y-65805357D02*
X144721430Y-65733928D01*
X144721430Y-65733928D02*
X144864287Y-65733928D01*
X146507143Y-66162500D02*
X147650001Y-66162500D01*
X150292858Y-66733928D02*
X149435715Y-66733928D01*
X149864286Y-66733928D02*
X149864286Y-65233928D01*
X149864286Y-65233928D02*
X149721429Y-65448214D01*
X149721429Y-65448214D02*
X149578572Y-65591071D01*
X149578572Y-65591071D02*
X149435715Y-65662500D01*
X150864286Y-65376785D02*
X150935714Y-65305357D01*
X150935714Y-65305357D02*
X151078572Y-65233928D01*
X151078572Y-65233928D02*
X151435714Y-65233928D01*
X151435714Y-65233928D02*
X151578572Y-65305357D01*
X151578572Y-65305357D02*
X151650000Y-65376785D01*
X151650000Y-65376785D02*
X151721429Y-65519642D01*
X151721429Y-65519642D02*
X151721429Y-65662500D01*
X151721429Y-65662500D02*
X151650000Y-65876785D01*
X151650000Y-65876785D02*
X150792857Y-66733928D01*
X150792857Y-66733928D02*
X151721429Y-66733928D01*
X152650000Y-65233928D02*
X152792857Y-65233928D01*
X152792857Y-65233928D02*
X152935714Y-65305357D01*
X152935714Y-65305357D02*
X153007143Y-65376785D01*
X153007143Y-65376785D02*
X153078571Y-65519642D01*
X153078571Y-65519642D02*
X153150000Y-65805357D01*
X153150000Y-65805357D02*
X153150000Y-66162500D01*
X153150000Y-66162500D02*
X153078571Y-66448214D01*
X153078571Y-66448214D02*
X153007143Y-66591071D01*
X153007143Y-66591071D02*
X152935714Y-66662500D01*
X152935714Y-66662500D02*
X152792857Y-66733928D01*
X152792857Y-66733928D02*
X152650000Y-66733928D01*
X152650000Y-66733928D02*
X152507143Y-66662500D01*
X152507143Y-66662500D02*
X152435714Y-66591071D01*
X152435714Y-66591071D02*
X152364285Y-66448214D01*
X152364285Y-66448214D02*
X152292857Y-66162500D01*
X152292857Y-66162500D02*
X152292857Y-65805357D01*
X152292857Y-65805357D02*
X152364285Y-65519642D01*
X152364285Y-65519642D02*
X152435714Y-65376785D01*
X152435714Y-65376785D02*
X152507143Y-65305357D01*
X152507143Y-65305357D02*
X152650000Y-65233928D01*
X155221428Y-66019642D02*
X155221428Y-66733928D01*
X154721428Y-65233928D02*
X155221428Y-66019642D01*
X155221428Y-66019642D02*
X155721428Y-65233928D01*
X156792856Y-66662500D02*
X156649999Y-66733928D01*
X156649999Y-66733928D02*
X156364285Y-66733928D01*
X156364285Y-66733928D02*
X156221427Y-66662500D01*
X156221427Y-66662500D02*
X156149999Y-66519642D01*
X156149999Y-66519642D02*
X156149999Y-65948214D01*
X156149999Y-65948214D02*
X156221427Y-65805357D01*
X156221427Y-65805357D02*
X156364285Y-65733928D01*
X156364285Y-65733928D02*
X156649999Y-65733928D01*
X156649999Y-65733928D02*
X156792856Y-65805357D01*
X156792856Y-65805357D02*
X156864285Y-65948214D01*
X156864285Y-65948214D02*
X156864285Y-66091071D01*
X156864285Y-66091071D02*
X156149999Y-66233928D01*
X158149999Y-66733928D02*
X158149999Y-65948214D01*
X158149999Y-65948214D02*
X158078570Y-65805357D01*
X158078570Y-65805357D02*
X157935713Y-65733928D01*
X157935713Y-65733928D02*
X157649999Y-65733928D01*
X157649999Y-65733928D02*
X157507141Y-65805357D01*
X158149999Y-66662500D02*
X158007141Y-66733928D01*
X158007141Y-66733928D02*
X157649999Y-66733928D01*
X157649999Y-66733928D02*
X157507141Y-66662500D01*
X157507141Y-66662500D02*
X157435713Y-66519642D01*
X157435713Y-66519642D02*
X157435713Y-66376785D01*
X157435713Y-66376785D02*
X157507141Y-66233928D01*
X157507141Y-66233928D02*
X157649999Y-66162500D01*
X157649999Y-66162500D02*
X158007141Y-66162500D01*
X158007141Y-66162500D02*
X158149999Y-66091071D01*
X158864284Y-66733928D02*
X158864284Y-65733928D01*
X158864284Y-66019642D02*
X158935713Y-65876785D01*
X158935713Y-65876785D02*
X159007142Y-65805357D01*
X159007142Y-65805357D02*
X159149999Y-65733928D01*
X159149999Y-65733928D02*
X159292856Y-65733928D01*
X160864284Y-66305357D02*
X161578570Y-66305357D01*
X160721427Y-66733928D02*
X161221427Y-65233928D01*
X161221427Y-65233928D02*
X161721427Y-66733928D01*
X162221426Y-65733928D02*
X162221426Y-66733928D01*
X162221426Y-65876785D02*
X162292855Y-65805357D01*
X162292855Y-65805357D02*
X162435712Y-65733928D01*
X162435712Y-65733928D02*
X162649998Y-65733928D01*
X162649998Y-65733928D02*
X162792855Y-65805357D01*
X162792855Y-65805357D02*
X162864284Y-65948214D01*
X162864284Y-65948214D02*
X162864284Y-66733928D01*
X163578569Y-65733928D02*
X163578569Y-66733928D01*
X163578569Y-65876785D02*
X163649998Y-65805357D01*
X163649998Y-65805357D02*
X163792855Y-65733928D01*
X163792855Y-65733928D02*
X164007141Y-65733928D01*
X164007141Y-65733928D02*
X164149998Y-65805357D01*
X164149998Y-65805357D02*
X164221427Y-65948214D01*
X164221427Y-65948214D02*
X164221427Y-66733928D01*
X164935712Y-66733928D02*
X164935712Y-65733928D01*
X164935712Y-65233928D02*
X164864284Y-65305357D01*
X164864284Y-65305357D02*
X164935712Y-65376785D01*
X164935712Y-65376785D02*
X165007141Y-65305357D01*
X165007141Y-65305357D02*
X164935712Y-65233928D01*
X164935712Y-65233928D02*
X164935712Y-65376785D01*
X165507141Y-65733928D02*
X165864284Y-66733928D01*
X165864284Y-66733928D02*
X166221427Y-65733928D01*
X167364284Y-66662500D02*
X167221427Y-66733928D01*
X167221427Y-66733928D02*
X166935713Y-66733928D01*
X166935713Y-66733928D02*
X166792855Y-66662500D01*
X166792855Y-66662500D02*
X166721427Y-66519642D01*
X166721427Y-66519642D02*
X166721427Y-65948214D01*
X166721427Y-65948214D02*
X166792855Y-65805357D01*
X166792855Y-65805357D02*
X166935713Y-65733928D01*
X166935713Y-65733928D02*
X167221427Y-65733928D01*
X167221427Y-65733928D02*
X167364284Y-65805357D01*
X167364284Y-65805357D02*
X167435713Y-65948214D01*
X167435713Y-65948214D02*
X167435713Y-66091071D01*
X167435713Y-66091071D02*
X166721427Y-66233928D01*
X168078569Y-66733928D02*
X168078569Y-65733928D01*
X168078569Y-66019642D02*
X168149998Y-65876785D01*
X168149998Y-65876785D02*
X168221427Y-65805357D01*
X168221427Y-65805357D02*
X168364284Y-65733928D01*
X168364284Y-65733928D02*
X168507141Y-65733928D01*
X168935712Y-66662500D02*
X169078569Y-66733928D01*
X169078569Y-66733928D02*
X169364283Y-66733928D01*
X169364283Y-66733928D02*
X169507140Y-66662500D01*
X169507140Y-66662500D02*
X169578569Y-66519642D01*
X169578569Y-66519642D02*
X169578569Y-66448214D01*
X169578569Y-66448214D02*
X169507140Y-66305357D01*
X169507140Y-66305357D02*
X169364283Y-66233928D01*
X169364283Y-66233928D02*
X169149998Y-66233928D01*
X169149998Y-66233928D02*
X169007140Y-66162500D01*
X169007140Y-66162500D02*
X168935712Y-66019642D01*
X168935712Y-66019642D02*
X168935712Y-65948214D01*
X168935712Y-65948214D02*
X169007140Y-65805357D01*
X169007140Y-65805357D02*
X169149998Y-65733928D01*
X169149998Y-65733928D02*
X169364283Y-65733928D01*
X169364283Y-65733928D02*
X169507140Y-65805357D01*
X170864284Y-66733928D02*
X170864284Y-65948214D01*
X170864284Y-65948214D02*
X170792855Y-65805357D01*
X170792855Y-65805357D02*
X170649998Y-65733928D01*
X170649998Y-65733928D02*
X170364284Y-65733928D01*
X170364284Y-65733928D02*
X170221426Y-65805357D01*
X170864284Y-66662500D02*
X170721426Y-66733928D01*
X170721426Y-66733928D02*
X170364284Y-66733928D01*
X170364284Y-66733928D02*
X170221426Y-66662500D01*
X170221426Y-66662500D02*
X170149998Y-66519642D01*
X170149998Y-66519642D02*
X170149998Y-66376785D01*
X170149998Y-66376785D02*
X170221426Y-66233928D01*
X170221426Y-66233928D02*
X170364284Y-66162500D01*
X170364284Y-66162500D02*
X170721426Y-66162500D01*
X170721426Y-66162500D02*
X170864284Y-66091071D01*
X171578569Y-66733928D02*
X171578569Y-65733928D01*
X171578569Y-66019642D02*
X171649998Y-65876785D01*
X171649998Y-65876785D02*
X171721427Y-65805357D01*
X171721427Y-65805357D02*
X171864284Y-65733928D01*
X171864284Y-65733928D02*
X172007141Y-65733928D01*
X172364283Y-65733928D02*
X172721426Y-66733928D01*
X173078569Y-65733928D02*
X172721426Y-66733928D01*
X172721426Y-66733928D02*
X172578569Y-67091071D01*
X172578569Y-67091071D02*
X172507140Y-67162500D01*
X172507140Y-67162500D02*
X172364283Y-67233928D01*
X211100526Y-114521741D02*
X211100526Y-112521741D01*
X211100526Y-112521741D02*
X211576716Y-112521741D01*
X211576716Y-112521741D02*
X211862431Y-112616979D01*
X211862431Y-112616979D02*
X212052907Y-112807455D01*
X212052907Y-112807455D02*
X212148145Y-112997931D01*
X212148145Y-112997931D02*
X212243383Y-113378883D01*
X212243383Y-113378883D02*
X212243383Y-113664598D01*
X212243383Y-113664598D02*
X212148145Y-114045550D01*
X212148145Y-114045550D02*
X212052907Y-114236026D01*
X212052907Y-114236026D02*
X211862431Y-114426503D01*
X211862431Y-114426503D02*
X211576716Y-114521741D01*
X211576716Y-114521741D02*
X211100526Y-114521741D01*
X213862431Y-114426503D02*
X213671955Y-114521741D01*
X213671955Y-114521741D02*
X213291002Y-114521741D01*
X213291002Y-114521741D02*
X213100526Y-114426503D01*
X213100526Y-114426503D02*
X213005288Y-114236026D01*
X213005288Y-114236026D02*
X213005288Y-113474122D01*
X213005288Y-113474122D02*
X213100526Y-113283645D01*
X213100526Y-113283645D02*
X213291002Y-113188407D01*
X213291002Y-113188407D02*
X213671955Y-113188407D01*
X213671955Y-113188407D02*
X213862431Y-113283645D01*
X213862431Y-113283645D02*
X213957669Y-113474122D01*
X213957669Y-113474122D02*
X213957669Y-113664598D01*
X213957669Y-113664598D02*
X213005288Y-113855074D01*
X215671955Y-114426503D02*
X215481479Y-114521741D01*
X215481479Y-114521741D02*
X215100526Y-114521741D01*
X215100526Y-114521741D02*
X214910050Y-114426503D01*
X214910050Y-114426503D02*
X214814812Y-114331264D01*
X214814812Y-114331264D02*
X214719574Y-114140788D01*
X214719574Y-114140788D02*
X214719574Y-113569360D01*
X214719574Y-113569360D02*
X214814812Y-113378883D01*
X214814812Y-113378883D02*
X214910050Y-113283645D01*
X214910050Y-113283645D02*
X215100526Y-113188407D01*
X215100526Y-113188407D02*
X215481479Y-113188407D01*
X215481479Y-113188407D02*
X215671955Y-113283645D01*
X217291003Y-114426503D02*
X217100527Y-114521741D01*
X217100527Y-114521741D02*
X216719574Y-114521741D01*
X216719574Y-114521741D02*
X216529098Y-114426503D01*
X216529098Y-114426503D02*
X216433860Y-114236026D01*
X216433860Y-114236026D02*
X216433860Y-113474122D01*
X216433860Y-113474122D02*
X216529098Y-113283645D01*
X216529098Y-113283645D02*
X216719574Y-113188407D01*
X216719574Y-113188407D02*
X217100527Y-113188407D01*
X217100527Y-113188407D02*
X217291003Y-113283645D01*
X217291003Y-113283645D02*
X217386241Y-113474122D01*
X217386241Y-113474122D02*
X217386241Y-113664598D01*
X217386241Y-113664598D02*
X216433860Y-113855074D01*
X218243384Y-114521741D02*
X218243384Y-113188407D01*
X218243384Y-113378883D02*
X218338622Y-113283645D01*
X218338622Y-113283645D02*
X218529098Y-113188407D01*
X218529098Y-113188407D02*
X218814813Y-113188407D01*
X218814813Y-113188407D02*
X219005289Y-113283645D01*
X219005289Y-113283645D02*
X219100527Y-113474122D01*
X219100527Y-113474122D02*
X219100527Y-114521741D01*
X219100527Y-113474122D02*
X219195765Y-113283645D01*
X219195765Y-113283645D02*
X219386241Y-113188407D01*
X219386241Y-113188407D02*
X219671955Y-113188407D01*
X219671955Y-113188407D02*
X219862432Y-113283645D01*
X219862432Y-113283645D02*
X219957670Y-113474122D01*
X219957670Y-113474122D02*
X219957670Y-114521741D01*
X220910051Y-114521741D02*
X220910051Y-112521741D01*
X220910051Y-113283645D02*
X221100527Y-113188407D01*
X221100527Y-113188407D02*
X221481480Y-113188407D01*
X221481480Y-113188407D02*
X221671956Y-113283645D01*
X221671956Y-113283645D02*
X221767194Y-113378883D01*
X221767194Y-113378883D02*
X221862432Y-113569360D01*
X221862432Y-113569360D02*
X221862432Y-114140788D01*
X221862432Y-114140788D02*
X221767194Y-114331264D01*
X221767194Y-114331264D02*
X221671956Y-114426503D01*
X221671956Y-114426503D02*
X221481480Y-114521741D01*
X221481480Y-114521741D02*
X221100527Y-114521741D01*
X221100527Y-114521741D02*
X220910051Y-114426503D01*
X223481480Y-114426503D02*
X223291004Y-114521741D01*
X223291004Y-114521741D02*
X222910051Y-114521741D01*
X222910051Y-114521741D02*
X222719575Y-114426503D01*
X222719575Y-114426503D02*
X222624337Y-114236026D01*
X222624337Y-114236026D02*
X222624337Y-113474122D01*
X222624337Y-113474122D02*
X222719575Y-113283645D01*
X222719575Y-113283645D02*
X222910051Y-113188407D01*
X222910051Y-113188407D02*
X223291004Y-113188407D01*
X223291004Y-113188407D02*
X223481480Y-113283645D01*
X223481480Y-113283645D02*
X223576718Y-113474122D01*
X223576718Y-113474122D02*
X223576718Y-113664598D01*
X223576718Y-113664598D02*
X222624337Y-113855074D01*
X224433861Y-114521741D02*
X224433861Y-113188407D01*
X224433861Y-113569360D02*
X224529099Y-113378883D01*
X224529099Y-113378883D02*
X224624337Y-113283645D01*
X224624337Y-113283645D02*
X224814813Y-113188407D01*
X224814813Y-113188407D02*
X225005290Y-113188407D01*
X228243385Y-114521741D02*
X227100528Y-114521741D01*
X227671956Y-114521741D02*
X227671956Y-112521741D01*
X227671956Y-112521741D02*
X227481480Y-112807455D01*
X227481480Y-112807455D02*
X227291004Y-112997931D01*
X227291004Y-112997931D02*
X227100528Y-113093169D01*
X228910052Y-112521741D02*
X230243385Y-112521741D01*
X230243385Y-112521741D02*
X229386242Y-114521741D01*
X231100528Y-114426503D02*
X231100528Y-114521741D01*
X231100528Y-114521741D02*
X231005290Y-114712217D01*
X231005290Y-114712217D02*
X230910052Y-114807455D01*
X234529100Y-114521741D02*
X233386243Y-114521741D01*
X233957671Y-114521741D02*
X233957671Y-112521741D01*
X233957671Y-112521741D02*
X233767195Y-112807455D01*
X233767195Y-112807455D02*
X233576719Y-112997931D01*
X233576719Y-112997931D02*
X233386243Y-113093169D01*
X235481481Y-114521741D02*
X235862433Y-114521741D01*
X235862433Y-114521741D02*
X236052910Y-114426503D01*
X236052910Y-114426503D02*
X236148148Y-114331264D01*
X236148148Y-114331264D02*
X236338624Y-114045550D01*
X236338624Y-114045550D02*
X236433862Y-113664598D01*
X236433862Y-113664598D02*
X236433862Y-112902693D01*
X236433862Y-112902693D02*
X236338624Y-112712217D01*
X236338624Y-112712217D02*
X236243386Y-112616979D01*
X236243386Y-112616979D02*
X236052910Y-112521741D01*
X236052910Y-112521741D02*
X235671957Y-112521741D01*
X235671957Y-112521741D02*
X235481481Y-112616979D01*
X235481481Y-112616979D02*
X235386243Y-112712217D01*
X235386243Y-112712217D02*
X235291005Y-112902693D01*
X235291005Y-112902693D02*
X235291005Y-113378883D01*
X235291005Y-113378883D02*
X235386243Y-113569360D01*
X235386243Y-113569360D02*
X235481481Y-113664598D01*
X235481481Y-113664598D02*
X235671957Y-113759836D01*
X235671957Y-113759836D02*
X236052910Y-113759836D01*
X236052910Y-113759836D02*
X236243386Y-113664598D01*
X236243386Y-113664598D02*
X236338624Y-113569360D01*
X236338624Y-113569360D02*
X236433862Y-113378883D01*
X237671957Y-112521741D02*
X237862434Y-112521741D01*
X237862434Y-112521741D02*
X238052910Y-112616979D01*
X238052910Y-112616979D02*
X238148148Y-112712217D01*
X238148148Y-112712217D02*
X238243386Y-112902693D01*
X238243386Y-112902693D02*
X238338624Y-113283645D01*
X238338624Y-113283645D02*
X238338624Y-113759836D01*
X238338624Y-113759836D02*
X238243386Y-114140788D01*
X238243386Y-114140788D02*
X238148148Y-114331264D01*
X238148148Y-114331264D02*
X238052910Y-114426503D01*
X238052910Y-114426503D02*
X237862434Y-114521741D01*
X237862434Y-114521741D02*
X237671957Y-114521741D01*
X237671957Y-114521741D02*
X237481481Y-114426503D01*
X237481481Y-114426503D02*
X237386243Y-114331264D01*
X237386243Y-114331264D02*
X237291005Y-114140788D01*
X237291005Y-114140788D02*
X237195767Y-113759836D01*
X237195767Y-113759836D02*
X237195767Y-113283645D01*
X237195767Y-113283645D02*
X237291005Y-112902693D01*
X237291005Y-112902693D02*
X237386243Y-112712217D01*
X237386243Y-112712217D02*
X237481481Y-112616979D01*
X237481481Y-112616979D02*
X237671957Y-112521741D01*
X239005291Y-112521741D02*
X240243386Y-112521741D01*
X240243386Y-112521741D02*
X239576719Y-113283645D01*
X239576719Y-113283645D02*
X239862434Y-113283645D01*
X239862434Y-113283645D02*
X240052910Y-113378883D01*
X240052910Y-113378883D02*
X240148148Y-113474122D01*
X240148148Y-113474122D02*
X240243386Y-113664598D01*
X240243386Y-113664598D02*
X240243386Y-114140788D01*
X240243386Y-114140788D02*
X240148148Y-114331264D01*
X240148148Y-114331264D02*
X240052910Y-114426503D01*
X240052910Y-114426503D02*
X239862434Y-114521741D01*
X239862434Y-114521741D02*
X239291005Y-114521741D01*
X239291005Y-114521741D02*
X239100529Y-114426503D01*
X239100529Y-114426503D02*
X239005291Y-114331264D01*
%TO.C,svg2mod*%
G36*
X72941011Y-110233165D02*
G01*
X72638704Y-110248670D01*
X71433093Y-86898674D01*
X71735400Y-86883172D01*
X72941011Y-110233165D01*
G37*
G36*
X116050976Y-105028368D02*
G01*
X116011185Y-105120353D01*
X73027762Y-86644995D01*
X73067036Y-86553528D01*
X116050976Y-105028368D01*
G37*
G36*
X100724780Y-107189992D02*
G01*
X100654498Y-107261308D01*
X79139534Y-85932894D01*
X79209814Y-85862097D01*
X100724780Y-107189992D01*
G37*
G36*
X80869210Y-108663228D02*
G01*
X80569486Y-108675637D01*
X79655847Y-86568462D01*
X79955570Y-86556060D01*
X80869210Y-108663228D01*
G37*
G36*
X93694783Y-107674152D02*
G01*
X93395576Y-107691721D01*
X92043206Y-84451797D01*
X92342929Y-84434226D01*
X93694783Y-107674152D01*
G37*
G36*
X114850016Y-105225255D02*
G01*
X114780254Y-105297087D01*
X92563522Y-83782121D01*
X92632768Y-83710291D01*
X114850016Y-105225255D01*
G37*
G36*
X120183540Y-105227324D02*
G01*
X120110160Y-105295018D01*
X99389978Y-82797685D01*
X99463873Y-82729989D01*
X120183540Y-105227324D01*
G37*
G36*
X101295352Y-106176039D02*
G01*
X100995629Y-106193105D01*
X99680465Y-83282360D01*
X99979671Y-83264789D01*
X101295352Y-106176039D01*
G37*
G36*
X100309818Y-82605965D02*
G01*
X80852608Y-110061137D01*
X80770959Y-110003259D01*
X100228170Y-82548088D01*
X100309818Y-82605965D01*
G37*
G36*
X113097734Y-105188506D02*
G01*
X112798528Y-105207635D01*
X111263738Y-81565669D01*
X111563461Y-81546547D01*
X113097734Y-105188506D01*
G37*
G36*
X120568014Y-104823213D02*
G01*
X120473963Y-104857320D01*
X111681218Y-80442273D01*
X111775267Y-80408167D01*
X120568014Y-104823213D01*
G37*
G36*
X129915762Y-104295596D02*
G01*
X129835664Y-104356059D01*
X112202632Y-80922864D01*
X112282214Y-80862919D01*
X129915762Y-104295596D01*
G37*
G36*
X112412439Y-81026734D02*
G01*
X72282071Y-110493151D01*
X72222643Y-110412535D01*
X112353011Y-80946118D01*
X112412439Y-81026734D01*
G37*
G36*
X125437536Y-90648316D02*
G01*
X125431345Y-90948041D01*
X116609144Y-90755287D01*
X116615865Y-90455048D01*
X125437536Y-90648316D01*
G37*
G36*
X131853112Y-110544827D02*
G01*
X131827263Y-110641463D01*
X116719657Y-106619485D01*
X116745507Y-106522851D01*
X131853112Y-110544827D01*
G37*
G36*
X134751125Y-110450776D02*
G01*
X134728900Y-110548444D01*
X117376472Y-106619485D01*
X117398697Y-106522335D01*
X134751125Y-110450776D01*
G37*
G36*
X123775635Y-104522923D02*
G01*
X123533790Y-104630926D01*
X117650944Y-91512863D01*
X117892273Y-91404344D01*
X123775635Y-104522923D01*
G37*
G36*
X120223398Y-103837165D02*
G01*
X119924191Y-103855263D01*
X118535644Y-80724892D01*
X118834851Y-80706805D01*
X120223398Y-103837165D01*
G37*
G36*
X119720519Y-79517782D02*
G01*
X101339214Y-106739375D01*
X101256531Y-106683048D01*
X119637837Y-79461971D01*
X119720519Y-79517782D01*
G37*
G36*
X137738541Y-99788896D02*
G01*
X137695134Y-99878812D01*
X119769613Y-91147562D01*
X119813020Y-91057646D01*
X137738541Y-99788896D01*
G37*
G36*
X120008357Y-79829894D02*
G01*
X113319878Y-105647956D01*
X113223241Y-105623164D01*
X119911723Y-79804586D01*
X120008357Y-79829894D01*
G37*
G36*
X122095634Y-80328534D02*
G01*
X117929997Y-90194598D01*
X117686083Y-90091762D01*
X121851720Y-80225698D01*
X122095634Y-80328534D01*
G37*
G36*
X124880477Y-90190981D02*
G01*
X124621061Y-90242141D01*
X122648055Y-80229832D01*
X122907471Y-80178672D01*
X124880477Y-90190981D01*
G37*
G36*
X125969750Y-91034392D02*
G01*
X125849862Y-91270035D01*
X124030852Y-90343993D01*
X124150740Y-90108350D01*
X125969750Y-91034392D01*
G37*
G36*
X124882543Y-91176972D02*
G01*
X123786486Y-104587523D01*
X123522937Y-104566330D01*
X124618995Y-91155779D01*
X124882543Y-91176972D01*
G37*
G36*
X124983248Y-90601848D02*
G01*
X124917103Y-91329452D01*
X124653551Y-91305693D01*
X124719697Y-90578089D01*
X124983248Y-90601848D01*
G37*
G36*
X125089185Y-90670590D02*
G01*
X124845271Y-90773941D01*
X124564151Y-90112483D01*
X124808065Y-90009131D01*
X125089185Y-90670590D01*
G37*
G36*
X138383463Y-109992922D02*
G01*
X138306983Y-110246139D01*
X124978597Y-106244316D01*
X125055077Y-105991099D01*
X138383463Y-109992922D01*
G37*
G36*
X125974401Y-90181730D02*
G01*
X125097969Y-90859724D01*
X124935705Y-90650952D01*
X125812138Y-89972958D01*
X125974401Y-90181730D01*
G37*
G36*
X126364559Y-81712480D02*
G01*
X112847554Y-106033991D01*
X112760221Y-105985416D01*
X126277225Y-81663904D01*
X126364559Y-81712480D01*
G37*
G36*
X132171441Y-89491850D02*
G01*
X132083588Y-89538358D01*
X126626557Y-79252682D01*
X126714409Y-79206173D01*
X132171441Y-89491850D01*
G37*
G36*
X132336805Y-93393938D02*
G01*
X132248953Y-93441478D01*
X126824994Y-83288094D01*
X126912847Y-83240552D01*
X132336805Y-93393938D01*
G37*
G36*
X132526974Y-92711292D02*
G01*
X132455659Y-92966572D01*
X127263211Y-91511364D01*
X127334526Y-91256083D01*
X132526974Y-92711292D01*
G37*
G36*
X132767269Y-103515282D02*
G01*
X132678385Y-103560759D01*
X127419791Y-93407373D01*
X127508675Y-93361897D01*
X132767269Y-103515282D01*
G37*
G36*
X131278988Y-104342105D02*
G01*
X131190104Y-104387581D01*
X127783593Y-97739925D01*
X127872477Y-97694449D01*
X131278988Y-104342105D01*
G37*
G36*
X141283545Y-98780172D02*
G01*
X141198796Y-98833398D01*
X128430065Y-78627913D01*
X128514814Y-78574687D01*
X141283545Y-98780172D01*
G37*
G36*
X130052772Y-103544676D02*
G01*
X129753565Y-103562774D01*
X128328329Y-79518765D01*
X128628051Y-79501194D01*
X130052772Y-103544676D01*
G37*
G36*
X129453259Y-91273136D02*
G01*
X128742192Y-92844099D01*
X128501379Y-92734546D01*
X129212446Y-91163582D01*
X129453259Y-91273136D01*
G37*
G36*
X130587622Y-110864654D02*
G01*
X130361797Y-111002113D01*
X130145273Y-110645545D01*
X130371616Y-110508086D01*
X130587622Y-110864654D01*
G37*
G36*
X130694595Y-111083245D02*
G01*
X130255863Y-111095125D01*
X130249143Y-110830542D01*
X130687359Y-110818662D01*
X130694595Y-111083245D01*
G37*
G36*
X131098185Y-109859547D02*
G01*
X130355595Y-110666217D01*
X130160775Y-110487417D01*
X130903365Y-109680228D01*
X131098185Y-109859547D01*
G37*
G36*
X132405533Y-92972774D02*
G01*
X128403710Y-103456888D01*
X128310693Y-103420715D01*
X132312516Y-92936600D01*
X132405533Y-92972774D01*
G37*
G36*
X134700027Y-108767625D02*
G01*
X127941267Y-109282322D01*
X127921635Y-109018254D01*
X134679879Y-108504074D01*
X134700027Y-108767625D01*
G37*
G36*
X134954797Y-110624876D02*
G01*
X134691248Y-110642444D01*
X134557922Y-108644633D01*
X134821989Y-108627065D01*
X134954797Y-110624876D01*
G37*
G36*
X144109213Y-92696822D02*
G01*
X144024462Y-92749532D01*
X135127847Y-78528178D01*
X135212598Y-78475468D01*
X144109213Y-92696822D01*
G37*
G36*
X136593973Y-100292690D02*
G01*
X136294250Y-100310259D01*
X135051949Y-78787542D01*
X135351156Y-78770490D01*
X136593973Y-100292690D01*
G37*
G36*
X135960939Y-84269895D02*
G01*
X134962033Y-84323122D01*
X134734656Y-80047931D01*
X135733045Y-79994704D01*
X135960939Y-84269895D01*
G37*
G36*
X140687265Y-110284844D02*
G01*
X140479009Y-110448142D01*
X137930328Y-107197177D01*
X138138581Y-107033879D01*
X140687265Y-110284844D01*
G37*
G36*
X138260022Y-110526689D02*
G01*
X137995439Y-110533938D01*
X137901903Y-107119160D01*
X138166487Y-107111910D01*
X138260022Y-110526689D01*
G37*
G36*
X139172562Y-99961494D02*
G01*
X138973092Y-99970807D01*
X138675436Y-93686953D01*
X138874905Y-93677640D01*
X139172562Y-99961494D01*
G37*
G36*
X139909017Y-105661869D02*
G01*
X135231784Y-110737011D01*
X135036963Y-110557179D01*
X139714196Y-105482553D01*
X139909017Y-105661869D01*
G37*
G36*
X146815055Y-96410240D02*
G01*
X146535485Y-96519277D01*
X139483204Y-78394802D01*
X139762774Y-78286281D01*
X146815055Y-96410240D01*
G37*
G36*
X140931687Y-110732879D02*
G01*
X137662635Y-110802641D01*
X137657476Y-110538058D01*
X140926525Y-110468295D01*
X140931687Y-110732879D01*
G37*
G36*
X141323400Y-110759750D02*
G01*
X141059335Y-110768005D01*
X140895521Y-105716635D01*
X141160104Y-105708380D01*
X141323400Y-110759750D01*
G37*
G36*
X141223149Y-110428504D02*
G01*
X130699244Y-111083245D01*
X130682707Y-110819178D01*
X141206613Y-110163921D01*
X141223149Y-110428504D01*
G37*
G36*
X141661299Y-77498784D02*
G01*
X130249076Y-103831025D01*
X130157091Y-103791750D01*
X141569316Y-77458993D01*
X141661299Y-77498784D01*
G37*
G36*
X143523043Y-98222247D02*
G01*
X143293995Y-98323227D01*
X141921297Y-78130736D01*
X142221020Y-78111615D01*
X143523043Y-98222247D01*
G37*
G36*
X148606611Y-87570003D02*
G01*
X148522897Y-87623747D01*
X142139824Y-77734945D01*
X142223538Y-77681201D01*
X148606611Y-87570003D01*
G37*
G36*
X147057870Y-91483458D02*
G01*
X146962784Y-91515499D01*
X142200284Y-77393364D01*
X142295370Y-77361324D01*
X147057870Y-91483458D01*
G37*
G36*
X147553964Y-80165804D02*
G01*
X138409818Y-99751687D01*
X138319384Y-99709314D01*
X147463529Y-80123429D01*
X147553964Y-80165804D01*
G37*
G36*
X148414376Y-83045742D02*
G01*
X146000053Y-92074649D01*
X145903935Y-92048799D01*
X148318258Y-83019893D01*
X148414376Y-83045742D01*
G37*
G36*
X157747656Y-91296909D02*
G01*
X157662391Y-91349616D01*
X148729084Y-76896753D01*
X148814351Y-76844560D01*
X157747656Y-91296909D01*
G37*
G36*
X151997168Y-109538118D02*
G01*
X151755323Y-109645605D01*
X149721338Y-105065006D01*
X149963184Y-104957519D01*
X151997168Y-109538118D01*
G37*
G36*
X150454110Y-109654392D02*
G01*
X150189527Y-109661615D01*
X150057235Y-104849506D01*
X150321818Y-104842283D01*
X150454110Y-109654392D01*
G37*
G36*
X152785751Y-109370687D02*
G01*
X152521167Y-109383096D01*
X152306193Y-104719815D01*
X152570777Y-104707406D01*
X152785751Y-109370687D01*
G37*
G36*
X153055501Y-104883105D02*
G01*
X150773470Y-110009407D01*
X150531625Y-109901920D01*
X152813656Y-104775618D01*
X153055501Y-104883105D01*
G37*
G36*
X153695256Y-109584111D02*
G01*
X153430672Y-109599615D01*
X153149553Y-104737897D01*
X153414136Y-104722392D01*
X153695256Y-109584111D01*
G37*
G36*
X155926579Y-76610466D02*
G01*
X149378657Y-91343417D01*
X149287191Y-91303108D01*
X155835113Y-76569641D01*
X155926579Y-76610466D01*
G37*
G36*
X157969930Y-102008857D02*
G01*
X157670724Y-102029018D01*
X155989688Y-77254302D01*
X156288895Y-77234149D01*
X157969930Y-102008857D01*
G37*
G36*
X156737964Y-109866265D02*
G01*
X156473381Y-109879706D01*
X156291480Y-106192076D01*
X156556063Y-106178635D01*
X156737964Y-109866265D01*
G37*
G36*
X165415921Y-87738985D02*
G01*
X165335308Y-87798413D01*
X157150277Y-76760327D01*
X157230893Y-76700383D01*
X165415921Y-87738985D01*
G37*
G36*
X157981299Y-104516205D02*
G01*
X153417237Y-110072455D01*
X153212598Y-109905021D01*
X157776660Y-104348771D01*
X157981299Y-104516205D01*
G37*
G36*
X166313608Y-100698350D02*
G01*
X166062460Y-100782064D01*
X158133229Y-77030544D01*
X158384376Y-76946828D01*
X166313608Y-100698350D01*
G37*
G36*
X159681454Y-109669894D02*
G01*
X159416870Y-109679207D01*
X159234969Y-104354468D01*
X159499553Y-104345154D01*
X159681454Y-109669894D01*
G37*
G36*
X169586792Y-108585724D02*
G01*
X169545451Y-108676674D01*
X159623576Y-104178758D01*
X159664917Y-104087807D01*
X169586792Y-108585724D01*
G37*
G36*
X165654216Y-101571165D02*
G01*
X165406169Y-101663147D01*
X160254028Y-87777691D01*
X160502075Y-87685707D01*
X165654216Y-101571165D01*
G37*
G36*
X160791915Y-95584500D02*
G01*
X159270560Y-99288666D01*
X159025615Y-99188416D01*
X160546969Y-95484249D01*
X160791915Y-95584500D01*
G37*
G36*
X162201649Y-98224134D02*
G01*
X161948432Y-98301646D01*
X161088536Y-95490449D01*
X161341753Y-95412936D01*
X162201649Y-98224134D01*
G37*
G36*
X163926156Y-100805331D02*
G01*
X163626434Y-100821338D01*
X162347956Y-76703948D01*
X162647163Y-76688446D01*
X163926156Y-100805331D01*
G37*
G36*
X162801610Y-76283871D02*
G01*
X155411882Y-92092725D01*
X155320932Y-92050349D01*
X162711178Y-76241496D01*
X162801610Y-76283871D01*
G37*
G36*
X173413948Y-90591989D02*
G01*
X173333335Y-90651417D01*
X162716410Y-76198553D01*
X162796510Y-76139642D01*
X173413948Y-90591989D01*
G37*
G36*
X163610413Y-76772162D02*
G01*
X160540834Y-86601536D01*
X160288651Y-86522988D01*
X163357715Y-76693614D01*
X163610413Y-76772162D01*
G37*
G36*
X165807696Y-87238706D02*
G01*
X165545695Y-87274363D01*
X164083769Y-76641421D01*
X164345770Y-76605247D01*
X165807696Y-87238706D01*
G37*
G36*
X165882110Y-88099111D02*
G01*
X165662484Y-101619216D01*
X165397901Y-101615088D01*
X165617526Y-88094985D01*
X165882110Y-88099111D01*
G37*
G36*
X169132040Y-108901464D02*
G01*
X168883993Y-108992934D01*
X167031910Y-103965850D01*
X167279956Y-103874381D01*
X169132040Y-108901464D01*
G37*
G36*
X167969254Y-94881185D02*
G01*
X164589617Y-97991589D01*
X164454224Y-97844311D01*
X167833861Y-94733907D01*
X167969254Y-94881185D01*
G37*
G36*
X167903097Y-95383996D02*
G01*
X164441810Y-95582949D01*
X164426835Y-95318885D01*
X167888122Y-95119929D01*
X167903097Y-95383996D01*
G37*
G36*
X168242624Y-95774669D02*
G01*
X166839091Y-97925959D01*
X166671660Y-97816922D01*
X168074674Y-95665116D01*
X168242624Y-95774669D01*
G37*
G36*
X168726819Y-95087880D02*
G01*
X168724702Y-95287868D01*
X168210006Y-95281676D01*
X168212652Y-95081688D01*
X168726819Y-95087880D01*
G37*
G36*
X168910800Y-94759228D02*
G01*
X168770240Y-95273927D01*
X168611075Y-95230517D01*
X168751634Y-94715820D01*
X168910800Y-94759228D01*
G37*
G36*
X169001232Y-95284777D02*
G01*
X168112914Y-97833977D01*
X167923780Y-97768347D01*
X168812613Y-95219147D01*
X169001232Y-95284777D01*
G37*
G36*
X169686011Y-108528362D02*
G01*
X169421428Y-108538708D01*
X169239527Y-103825817D01*
X169504110Y-103815472D01*
X169686011Y-108528362D01*
G37*
G36*
X170638860Y-97602982D02*
G01*
X170543774Y-97632954D01*
X169535050Y-94408345D01*
X169630136Y-94378373D01*
X170638860Y-97602982D01*
G37*
G36*
X172862495Y-97189571D02*
G01*
X172784982Y-97252616D01*
X170238368Y-94077616D01*
X170315880Y-94014571D01*
X172862495Y-97189571D01*
G37*
G36*
X170606370Y-103122491D02*
G01*
X150035015Y-109571710D01*
X150005041Y-109476624D01*
X170576395Y-103027405D01*
X170606370Y-103122491D01*
G37*
G36*
X171533959Y-103022754D02*
G01*
X153641511Y-109306608D01*
X153608438Y-109212559D01*
X171500886Y-102928705D01*
X171533959Y-103022754D01*
G37*
G36*
X173734278Y-75645150D02*
G01*
X155773615Y-91454521D01*
X155707470Y-91379072D01*
X173668133Y-75570219D01*
X173734278Y-75645150D01*
G37*
G36*
X173931746Y-75258042D02*
G01*
X165513140Y-90318621D01*
X165425807Y-90270047D01*
X173844415Y-75208950D01*
X173931746Y-75258042D01*
G37*
G36*
X181560223Y-101647117D02*
G01*
X181463586Y-101672966D01*
X174213900Y-74685468D01*
X174310536Y-74659113D01*
X181560223Y-101647117D01*
G37*
G36*
X225546168Y-99930955D02*
G01*
X225503276Y-100021387D01*
X174381331Y-75980479D01*
X174424222Y-75890045D01*
X225546168Y-99930955D01*
G37*
G36*
X176276824Y-100950532D02*
G01*
X175977618Y-100968100D01*
X174515692Y-75754652D01*
X174815414Y-75737600D01*
X176276824Y-100950532D01*
G37*
G36*
X174971476Y-103552955D02*
G01*
X155623820Y-109340715D01*
X155594882Y-109244597D01*
X174942539Y-103456837D01*
X174971476Y-103552955D01*
G37*
G36*
X175293365Y-87985998D02*
G01*
X166876307Y-88597847D01*
X166864930Y-88447986D01*
X175281988Y-87836137D01*
X175293365Y-87985998D01*
G37*
G36*
X175570924Y-103518332D02*
G01*
X161382643Y-109206873D01*
X161345434Y-109113856D01*
X175533716Y-103425315D01*
X175570924Y-103518332D01*
G37*
G36*
X180204749Y-74774362D02*
G01*
X176042213Y-98862297D01*
X175943510Y-98845232D01*
X180106565Y-74757298D01*
X180204749Y-74774362D01*
G37*
G36*
X204279248Y-100315426D02*
G01*
X204207419Y-100384673D01*
X180072973Y-75174843D01*
X180144805Y-75105597D01*
X204279248Y-100315426D01*
G37*
G36*
X182050631Y-100146447D02*
G01*
X181750908Y-100164016D01*
X180289498Y-75389817D01*
X180588705Y-75371730D01*
X182050631Y-100146447D01*
G37*
G36*
X180899796Y-74604852D02*
G01*
X171124683Y-90554267D01*
X171039416Y-90502073D01*
X180814532Y-74552659D01*
X180899796Y-74604852D01*
G37*
G36*
X183482585Y-98515021D02*
G01*
X183283631Y-98537246D01*
X182348287Y-90165147D01*
X182546724Y-90142922D01*
X183482585Y-98515021D01*
G37*
G36*
X195741196Y-102737552D02*
G01*
X168940764Y-108444181D01*
X168920100Y-108345994D01*
X195720532Y-102639884D01*
X195741196Y-102737552D01*
G37*
G36*
X199809237Y-100437904D02*
G01*
X199510030Y-100457536D01*
X197828997Y-74805874D01*
X198128204Y-74786237D01*
X199809237Y-100437904D01*
G37*
G36*
X198341627Y-73535150D02*
G01*
X177855538Y-97950197D01*
X177778541Y-97886117D01*
X198265144Y-73471072D01*
X198341627Y-73535150D01*
G37*
G36*
X230003259Y-100922624D02*
G01*
X229932981Y-100993939D01*
X202851945Y-74052948D01*
X202922226Y-73982151D01*
X230003259Y-100922624D01*
G37*
G36*
X204851825Y-99708231D02*
G01*
X204552618Y-99725799D01*
X203090692Y-74658597D01*
X203390414Y-74641026D01*
X204851825Y-99708231D01*
G37*
G36*
X203861188Y-74142348D02*
G01*
X182626824Y-100568640D01*
X182548791Y-100506114D01*
X203783673Y-74079820D01*
X203861188Y-74142348D01*
G37*
G36*
X222368583Y-74201776D02*
G01*
X179151067Y-98055617D01*
X179102490Y-97967768D01*
X222320008Y-74113926D01*
X222368583Y-74201776D01*
G37*
G36*
X226045363Y-100218798D02*
G01*
X225746156Y-100238430D01*
X223992257Y-73636952D01*
X224291463Y-73616799D01*
X226045363Y-100218798D01*
G37*
G36*
X229116492Y-74519069D02*
G01*
X206245020Y-99635365D01*
X206170606Y-99568185D01*
X229042594Y-74451373D01*
X229116492Y-74519069D01*
G37*
G36*
X230430625Y-100513358D02*
G01*
X230130900Y-100528334D01*
X228871031Y-74653429D01*
X229170753Y-74638959D01*
X230430625Y-100513358D01*
G37*
G36*
X130525028Y-91444708D02*
G01*
X130125052Y-92213137D01*
X130076994Y-93110754D01*
X129812410Y-93096282D01*
X129863570Y-92141816D01*
X130290417Y-91322745D01*
X130525028Y-91444708D01*
G37*
G36*
X131491438Y-109018770D02*
G01*
X131212385Y-109625970D01*
X134819918Y-109426498D01*
X134834390Y-109691082D01*
X130789160Y-109914324D01*
X131250630Y-108908185D01*
X131491438Y-109018770D01*
G37*
G36*
X159987378Y-109740691D02*
G01*
X153637378Y-110137566D01*
X140201506Y-110972657D01*
X140184969Y-110708074D01*
X153620842Y-109873499D01*
X159970842Y-109476624D01*
X159987378Y-109740691D01*
G37*
G36*
X133816300Y-91297940D02*
G01*
X134830707Y-108775944D01*
X133414774Y-108697913D01*
X132546610Y-108433845D01*
X132462377Y-102635232D01*
X131916674Y-93906567D01*
X131486726Y-85622318D01*
X131040242Y-79501245D01*
X131022671Y-78095646D01*
X132104777Y-77716858D01*
X132658748Y-77524105D01*
X132821528Y-77467778D01*
X133816300Y-91297940D01*
G37*
G36*
X168234644Y-94877893D02*
G01*
X168316495Y-95129295D01*
X168374960Y-95310537D01*
X168287262Y-95409928D01*
X168269720Y-95702253D01*
X168187868Y-95854264D01*
X168000781Y-95813338D01*
X167994937Y-95795799D01*
X167784461Y-95556092D01*
X167749382Y-95392389D01*
X167813694Y-95111756D01*
X168070941Y-94801889D01*
X168234644Y-94877893D01*
G37*
G36*
X126823513Y-79528583D02*
G01*
X127269998Y-87135354D01*
X127551118Y-92393947D01*
X128080284Y-97404496D01*
X128460623Y-102828454D01*
X128874034Y-107574418D01*
X128907107Y-109062699D01*
X126889659Y-108864261D01*
X126592003Y-102811918D01*
X126277810Y-97040694D01*
X125896850Y-93446539D01*
X125768225Y-89985397D01*
X125569444Y-86816585D01*
X125335584Y-82677248D01*
X125113416Y-79134256D01*
X124971430Y-78586005D01*
X125963618Y-78420641D01*
X126757368Y-78404104D01*
X126823513Y-79528583D01*
G37*
G36*
X178533022Y-88788999D02*
G01*
X180385105Y-89252020D01*
X182237188Y-90045770D01*
X182567918Y-90376499D01*
X180252813Y-91104103D01*
X172976772Y-93683791D01*
X168809584Y-94742126D01*
X164973126Y-95205147D01*
X159615311Y-95734314D01*
X153728331Y-96131189D01*
X150222602Y-96263481D01*
X145393956Y-95866606D01*
X142549685Y-95172074D01*
X139903852Y-94212957D01*
X138845519Y-93683791D01*
X140829894Y-92757749D01*
X144004894Y-91567124D01*
X146452290Y-91104103D01*
X150156456Y-90707228D01*
X155778852Y-90442645D01*
X159747602Y-90111916D01*
X164906980Y-89648895D01*
X169206459Y-89318166D01*
X173572084Y-88722853D01*
X176151772Y-88325979D01*
X178533022Y-88788999D01*
G37*
G36*
X165226269Y-87234623D02*
G01*
X165729599Y-87266146D01*
X165977646Y-87150390D01*
X166357984Y-86918880D01*
X166473739Y-87117317D01*
X166242229Y-87332291D01*
X166225692Y-87844922D01*
X166093401Y-88059895D01*
X166022604Y-88085217D01*
X166556422Y-88655207D01*
X166143010Y-88787499D01*
X165547698Y-88804035D01*
X165084677Y-88440233D01*
X165015430Y-88312593D01*
X153778907Y-98244802D01*
X153603723Y-98046365D01*
X164886239Y-88074365D01*
X164869703Y-88043359D01*
X164796839Y-87825285D01*
X162240406Y-87696093D01*
X162273479Y-87051172D01*
X164780303Y-87207234D01*
X164798379Y-87093391D01*
X164822297Y-86969856D01*
X164853166Y-86836198D01*
X165226269Y-87234623D01*
G37*
G36*
X127286475Y-92620857D02*
G01*
X125078858Y-92189359D01*
X124229300Y-91852946D01*
X123842759Y-91153248D01*
X123842759Y-91085033D01*
X124107332Y-91085033D01*
X124415323Y-91642105D01*
X125153262Y-91934078D01*
X127344342Y-92362476D01*
X132091341Y-93561369D01*
X132062919Y-92074122D01*
X125841075Y-89934717D01*
X125434900Y-89723360D01*
X124941907Y-89618974D01*
X124645283Y-89717677D01*
X124485086Y-89824645D01*
X124272181Y-90158991D01*
X124107332Y-90488689D01*
X124107332Y-91085033D01*
X123842759Y-91085033D01*
X123842759Y-90426676D01*
X124041713Y-90028769D01*
X124291829Y-89635511D01*
X124513520Y-89487714D01*
X124528496Y-89477898D01*
X124926403Y-89345088D01*
X125524827Y-89472212D01*
X125945474Y-89690803D01*
X132324412Y-91883953D01*
X132362136Y-93902433D01*
X132091341Y-93834058D01*
X127286475Y-92620857D01*
G37*
G36*
X135120095Y-92950553D02*
G01*
X137947314Y-94055395D01*
X140636555Y-94921493D01*
X142341876Y-95399500D01*
X145960779Y-96200999D01*
X147540010Y-96577721D01*
X147275427Y-96532247D01*
X146941081Y-96653169D01*
X146174718Y-96983899D01*
X145847090Y-97459839D01*
X145820735Y-97451052D01*
X145717383Y-97552340D01*
X145667255Y-97746126D01*
X145653820Y-97768346D01*
X145516876Y-97779715D01*
X145379417Y-97779199D01*
X145349445Y-97817439D01*
X145152042Y-97826742D01*
X145073493Y-97835526D01*
X144823380Y-97669127D01*
X144232719Y-97282071D01*
X143317012Y-96840238D01*
X142433861Y-96365848D01*
X141371395Y-95900245D01*
X140195756Y-95557112D01*
X138605155Y-95260490D01*
X136387204Y-94813487D01*
X133819917Y-94238331D01*
X133751705Y-93539148D01*
X133767723Y-93542765D01*
X133659204Y-92239486D01*
X135120095Y-92950553D01*
G37*
G36*
X148851354Y-77817835D02*
G01*
X148909488Y-77947026D01*
X148980545Y-78715713D01*
X149025762Y-79232477D01*
X149070977Y-79329370D01*
X149232468Y-79536076D01*
X149309980Y-79813837D01*
X149309980Y-80072219D01*
X149213087Y-80259546D01*
X149090358Y-80492090D01*
X149129114Y-81829218D01*
X149226007Y-83405349D01*
X149381037Y-86034387D01*
X149497308Y-88476097D01*
X149691094Y-91802767D01*
X149878422Y-95206954D01*
X150073674Y-97268704D01*
X148940910Y-96866754D01*
X148794746Y-94747392D01*
X147808147Y-80679199D01*
X147649889Y-80537307D01*
X147449642Y-80408116D01*
X147294615Y-80188491D01*
X147249397Y-79846135D01*
X147301073Y-79548995D01*
X147481942Y-79329370D01*
X147695106Y-79200179D01*
X147901812Y-79167882D01*
X148114976Y-79167882D01*
X148134344Y-78980555D01*
X147972853Y-78496088D01*
X147727391Y-77837213D01*
X147572361Y-77643427D01*
X148851354Y-77817835D01*
G37*
G36*
X170704591Y-108863817D02*
G01*
X170324565Y-109004133D01*
X169482666Y-109080138D01*
X168827856Y-109208762D01*
X167635165Y-109360771D01*
X165436874Y-109413388D01*
X163554295Y-109430930D01*
X162712396Y-109530323D01*
X162460994Y-109787570D01*
X161361849Y-109793417D01*
X161110450Y-109612175D01*
X159952834Y-109734952D01*
X140193240Y-110840373D01*
X135134354Y-110647011D01*
X135151896Y-110360530D01*
X136490748Y-110120823D01*
X139080757Y-110021432D01*
X140969184Y-109904503D01*
X143132396Y-109805112D01*
X147154803Y-109641409D01*
X149703887Y-109430933D01*
X151364298Y-109524479D01*
X152116029Y-109401702D01*
X154513816Y-109203264D01*
X157076967Y-109104045D01*
X159259779Y-109004827D01*
X160152748Y-109013082D01*
X161525277Y-108963472D01*
X164592790Y-108773303D01*
X166428337Y-108665816D01*
X167189011Y-108649287D01*
X168859194Y-108483923D01*
X169394969Y-108401942D01*
X170090705Y-108401942D01*
X170833213Y-108372708D01*
X170704591Y-108863817D01*
G37*
G36*
X126763048Y-108984665D02*
G01*
X126459709Y-102818633D01*
X126146032Y-97051026D01*
X125764662Y-93455897D01*
X125635987Y-89992028D01*
X125437549Y-86824262D01*
X125203454Y-82684980D01*
X124982281Y-79154963D01*
X124862438Y-78692975D01*
X125135758Y-78692975D01*
X125244795Y-79113104D01*
X125467521Y-82669476D01*
X125701617Y-86808758D01*
X125900570Y-89978589D01*
X126028726Y-93437294D01*
X126409583Y-97030357D01*
X126724292Y-102805197D01*
X127016265Y-108743852D01*
X128771712Y-108916453D01*
X128741740Y-107581649D01*
X128328844Y-102838786D01*
X127948506Y-97415863D01*
X127419339Y-92404281D01*
X127137704Y-87142588D01*
X126691219Y-79536334D01*
X126632826Y-78538979D01*
X125976016Y-78552932D01*
X125135758Y-78692975D01*
X124862438Y-78692975D01*
X124843269Y-78619079D01*
X124807097Y-78479035D01*
X125951211Y-78288349D01*
X126881904Y-78269228D01*
X126955803Y-79520831D01*
X127402287Y-87128118D01*
X127682891Y-92383612D01*
X128212057Y-97393124D01*
X128592396Y-102818117D01*
X129006323Y-107567181D01*
X129042497Y-109208939D01*
X128771712Y-109182297D01*
X126763048Y-108984665D01*
G37*
G36*
X166415862Y-86252771D02*
G01*
X166719201Y-86426404D01*
X166962081Y-86790206D01*
X167161034Y-87227905D01*
X167161034Y-87724515D01*
X167201343Y-88089351D01*
X166910921Y-88587511D01*
X166198819Y-89149750D01*
X164774617Y-90354845D01*
X163018651Y-91781116D01*
X159729963Y-94375271D01*
X156297616Y-97186988D01*
X154106535Y-99086095D01*
X153933418Y-98886107D01*
X156127084Y-96984933D01*
X159564598Y-94169084D01*
X162853287Y-91574926D01*
X164605635Y-90151241D01*
X166031388Y-88944595D01*
X166707832Y-88410780D01*
X166928492Y-88031474D01*
X166896451Y-87738985D01*
X166896451Y-87285266D01*
X166730054Y-86918880D01*
X166533683Y-86625358D01*
X166325943Y-86505985D01*
X165927002Y-86439840D01*
X165542528Y-86471879D01*
X165135318Y-86777287D01*
X164669196Y-87135921D01*
X163542651Y-88335331D01*
X161350019Y-90527962D01*
X160216756Y-91734089D01*
X157399356Y-94478109D01*
X156082642Y-95685271D01*
X155903841Y-95490450D01*
X157217971Y-94285871D01*
X160028137Y-91548571D01*
X161159850Y-90343476D01*
X163352481Y-88150846D01*
X164491431Y-86939034D01*
X164975121Y-86566447D01*
X165444859Y-86214530D01*
X165937855Y-86173189D01*
X166415862Y-86252771D01*
G37*
G36*
X223594866Y-72217401D02*
G01*
X227625629Y-72424107D01*
X229744362Y-72785842D01*
X231191302Y-73664341D01*
X231656389Y-74181106D01*
X230726212Y-74491164D01*
X229020891Y-74646194D01*
X226333716Y-74594517D01*
X221527808Y-74594517D01*
X214758195Y-74646194D01*
X207316789Y-74594517D01*
X202872617Y-74594517D01*
X185302630Y-75214634D01*
X171660052Y-75938104D01*
X148715715Y-77695103D01*
X147630508Y-77488397D01*
X143858129Y-77901809D01*
X134659726Y-78780308D01*
X132696020Y-78987014D01*
X130318905Y-79245396D01*
X124427791Y-79917189D01*
X117968237Y-80692336D01*
X108614804Y-81829217D01*
X100708310Y-83069452D01*
X89907934Y-84671421D01*
X83396704Y-85963332D01*
X78642472Y-86635125D01*
X75696915Y-86893508D01*
X73371476Y-86790155D01*
X72182918Y-86790155D01*
X70942684Y-86893508D01*
X69647672Y-86635125D01*
X69857478Y-85756626D01*
X74094946Y-84981480D01*
X92543432Y-81725865D01*
X106237686Y-79762160D01*
X112232153Y-78987014D01*
X114402564Y-78987014D01*
X117709856Y-78263544D01*
X127425025Y-77126662D01*
X138122045Y-75989781D01*
X149904274Y-75007928D01*
X160446264Y-74232782D01*
X171866757Y-73457636D01*
X175897518Y-73405959D01*
X179824927Y-72889195D01*
X195276181Y-72424107D01*
X207885230Y-72114048D01*
X217652075Y-72114048D01*
X223594866Y-72217401D01*
G37*
G36*
X150219499Y-96395770D02*
G01*
X145372766Y-95997344D01*
X142511443Y-95298680D01*
X139851655Y-94334914D01*
X138786604Y-93802131D01*
X138558194Y-93687926D01*
X139149385Y-93687926D01*
X139956054Y-94091000D01*
X142587934Y-95045463D01*
X145415152Y-95735862D01*
X150225711Y-96131186D01*
X153721622Y-95998895D01*
X159604465Y-95602536D01*
X164958661Y-95073888D01*
X168785301Y-94611899D01*
X172938537Y-93557182D01*
X180210962Y-90978529D01*
X182319876Y-90315520D01*
X182161745Y-90157392D01*
X180342735Y-89377594D01*
X178504087Y-88918190D01*
X176149192Y-88460336D01*
X173591211Y-88853594D01*
X169220416Y-89449941D01*
X164917838Y-89780671D01*
X159758979Y-90243691D01*
X155787644Y-90574421D01*
X150166799Y-90839004D01*
X146471419Y-91234844D01*
X144040560Y-91694764D01*
X140881062Y-92879706D01*
X139149385Y-93687926D01*
X138558194Y-93687926D01*
X138541658Y-93679658D01*
X140778731Y-92635792D01*
X143969233Y-91439484D01*
X146433166Y-90973362D01*
X150146119Y-90575452D01*
X155770065Y-90310869D01*
X159736230Y-89980140D01*
X164896121Y-89517119D01*
X169192502Y-89186390D01*
X173552957Y-88592112D01*
X176154351Y-88191619D01*
X178561954Y-88659808D01*
X180427475Y-89126446D01*
X182312632Y-89934150D01*
X182815959Y-90437477D01*
X180294665Y-91229677D01*
X173015007Y-93810399D01*
X168833868Y-94872349D01*
X164987591Y-95336402D01*
X159626161Y-95866087D01*
X153735047Y-96263478D01*
X150225711Y-96395536D01*
X150219499Y-96395770D01*
G37*
G36*
X168987302Y-94536861D02*
G01*
X168987883Y-94664133D01*
X168989003Y-94791691D01*
X168990642Y-94919525D01*
X168992782Y-95047625D01*
X168995403Y-95175981D01*
X168998486Y-95304582D01*
X169002010Y-95433420D01*
X169005958Y-95562483D01*
X169010309Y-95691762D01*
X169015043Y-95821248D01*
X169020142Y-95950929D01*
X169025587Y-96080796D01*
X169031357Y-96210839D01*
X169037433Y-96341049D01*
X169043796Y-96471414D01*
X169050426Y-96601925D01*
X169057305Y-96732573D01*
X169064412Y-96863346D01*
X169071728Y-96994236D01*
X169079235Y-97125232D01*
X169086911Y-97256324D01*
X169094739Y-97387502D01*
X169102698Y-97518756D01*
X169110769Y-97650076D01*
X169118933Y-97781453D01*
X169127171Y-97912876D01*
X169135462Y-98044335D01*
X169143788Y-98175820D01*
X169152129Y-98307322D01*
X168987796Y-98317667D01*
X168979452Y-98186165D01*
X168971117Y-98054659D01*
X168962810Y-97923159D01*
X168954552Y-97791674D01*
X168946361Y-97660215D01*
X168938259Y-97528789D01*
X168930265Y-97397408D01*
X168922399Y-97266080D01*
X168914680Y-97134815D01*
X168907129Y-97003624D01*
X168899765Y-96872515D01*
X168892609Y-96741498D01*
X168885680Y-96610583D01*
X168878998Y-96479779D01*
X168872583Y-96349096D01*
X168866455Y-96218543D01*
X168860634Y-96088131D01*
X168855139Y-95957869D01*
X168849991Y-95827765D01*
X168845209Y-95697831D01*
X168840814Y-95568076D01*
X168836824Y-95438508D01*
X168833261Y-95309138D01*
X168830143Y-95179976D01*
X168827492Y-95051031D01*
X168825326Y-94922312D01*
X168823665Y-94793830D01*
X168822530Y-94665593D01*
X168821940Y-94537612D01*
X168821916Y-94409896D01*
X168987280Y-94409885D01*
X168987302Y-94536861D01*
G37*
G36*
X148814942Y-96962661D02*
G01*
X148663013Y-94756594D01*
X147680126Y-80741945D01*
X147569540Y-80642726D01*
X147356117Y-80505267D01*
X147167495Y-80238100D01*
X147116564Y-79848976D01*
X147382991Y-79848976D01*
X147421747Y-80138881D01*
X147543188Y-80310964D01*
X147730256Y-80431887D01*
X147936443Y-80616371D01*
X148926565Y-94737991D01*
X149067124Y-96770941D01*
X149922369Y-97074799D01*
X149746670Y-95217030D01*
X149559085Y-91810003D01*
X149365299Y-88483075D01*
X149249025Y-86041363D01*
X149093996Y-83413100D01*
X148996846Y-81835419D01*
X148957055Y-80461342D01*
X149096065Y-80198309D01*
X149177712Y-80040179D01*
X149177712Y-79831923D01*
X149112082Y-79596795D01*
X148957571Y-79398875D01*
X148896077Y-79267100D01*
X148849050Y-78727598D01*
X148779803Y-77981390D01*
X148760673Y-77939016D01*
X147860987Y-77816543D01*
X148097675Y-78452163D01*
X148268723Y-78965826D01*
X148234100Y-79300173D01*
X147912157Y-79300173D01*
X147741107Y-79327045D01*
X147569543Y-79430914D01*
X147425364Y-79606097D01*
X147382991Y-79848976D01*
X147116564Y-79848976D01*
X147115820Y-79843292D01*
X147176798Y-79491892D01*
X147394357Y-79227826D01*
X147649122Y-79073313D01*
X147891483Y-79035590D01*
X147995869Y-79035590D01*
X147999996Y-78995282D01*
X147848067Y-78540013D01*
X147610874Y-77903359D01*
X147262058Y-77467726D01*
X148942072Y-77696653D01*
X149039221Y-77912661D01*
X149112085Y-78703827D01*
X149155495Y-79197854D01*
X149184433Y-79259865D01*
X149352898Y-79475356D01*
X149442298Y-79795750D01*
X149442298Y-80104258D01*
X149330160Y-80320782D01*
X149223708Y-80522837D01*
X149261432Y-81823016D01*
X149358066Y-83397597D01*
X149513096Y-86027411D01*
X149629367Y-88469123D01*
X149823153Y-91795533D01*
X150010224Y-95196876D01*
X150205560Y-97256181D01*
X150225192Y-97462887D01*
X149922369Y-97355473D01*
X148814942Y-96962661D01*
G37*
G36*
X134994006Y-110774270D02*
G01*
X135009505Y-110520021D01*
X135274609Y-110520021D01*
X140192137Y-110708124D01*
X159941838Y-109603282D01*
X161146931Y-109475126D01*
X161404280Y-109661160D01*
X162404736Y-109655477D01*
X162650198Y-109404329D01*
X163545752Y-109298908D01*
X165434525Y-109281337D01*
X167625090Y-109228630D01*
X168806412Y-109078251D01*
X169463737Y-108949058D01*
X170295209Y-108874128D01*
X170593900Y-108763540D01*
X170659530Y-108511876D01*
X170093155Y-108534098D01*
X169404825Y-108534098D01*
X168875659Y-108615230D01*
X167201859Y-108781111D01*
X167196692Y-108781627D01*
X166433430Y-108798163D01*
X164600468Y-108905650D01*
X161531921Y-109095819D01*
X160154227Y-109145429D01*
X159262293Y-109137161D01*
X157082581Y-109236379D01*
X154522013Y-109335598D01*
X152131978Y-109533004D01*
X151371301Y-109657543D01*
X149705770Y-109563492D01*
X147162773Y-109773298D01*
X143138211Y-109937112D01*
X140976071Y-110036847D01*
X139087295Y-110153637D01*
X136505025Y-110252856D01*
X135277710Y-110472481D01*
X135274609Y-110520021D01*
X135009505Y-110520021D01*
X135026044Y-110248720D01*
X136476604Y-109988788D01*
X139073859Y-109889569D01*
X140962117Y-109772264D01*
X143126842Y-109673045D01*
X147146752Y-109509231D01*
X149702151Y-109298392D01*
X151357347Y-109391409D01*
X152099937Y-109270487D01*
X154505476Y-109071015D01*
X157071212Y-108971796D01*
X159257126Y-108872577D01*
X160151126Y-108880846D01*
X161518485Y-108831236D01*
X164584964Y-108641067D01*
X166423095Y-108533580D01*
X167180156Y-108517043D01*
X168842586Y-108352713D01*
X169384672Y-108269515D01*
X170087987Y-108269515D01*
X171006277Y-108233341D01*
X170815076Y-108964046D01*
X170354121Y-109134578D01*
X169501459Y-109211575D01*
X168848787Y-109339734D01*
X167645243Y-109492694D01*
X165439176Y-109545921D01*
X163562804Y-109562976D01*
X162774221Y-109656509D01*
X162516874Y-109919541D01*
X161319532Y-109925743D01*
X161074067Y-109749010D01*
X159963542Y-109866831D01*
X140194206Y-110972707D01*
X140192137Y-110972628D01*
X134994006Y-110774270D01*
G37*
G36*
X73368375Y-86940016D02*
G01*
X72189119Y-86940016D01*
X70933899Y-87044919D01*
X69465771Y-86751914D01*
X69521564Y-86518337D01*
X69829573Y-86518337D01*
X70951469Y-86742096D01*
X72176717Y-86640293D01*
X73374576Y-86640293D01*
X75693815Y-86743129D01*
X78625419Y-86486297D01*
X83371382Y-85815537D01*
X89882097Y-84523626D01*
X100685572Y-82921140D01*
X108594132Y-81680389D01*
X117950150Y-80543508D01*
X124410222Y-79768361D01*
X130302369Y-79096568D01*
X132680002Y-78837669D01*
X134644740Y-78630963D01*
X143842628Y-77752464D01*
X147636710Y-77336985D01*
X148723984Y-77544208D01*
X171650249Y-75788243D01*
X185295928Y-75064773D01*
X202870048Y-74444655D01*
X207317323Y-74444655D01*
X214758211Y-74496332D01*
X221527308Y-74444655D01*
X226335282Y-74444655D01*
X229015739Y-74495815D01*
X230695224Y-74343370D01*
X231391822Y-74111343D01*
X231094681Y-73781130D01*
X229691152Y-72928986D01*
X227609106Y-72573452D01*
X223589714Y-72367263D01*
X217650541Y-72263910D01*
X207888863Y-72263910D01*
X207885238Y-72263910D01*
X195280313Y-72573969D01*
X179836812Y-73039056D01*
X175908371Y-73555821D01*
X171872956Y-73607497D01*
X160456601Y-74382644D01*
X149916159Y-75157274D01*
X138135999Y-76139126D01*
X127441562Y-77275490D01*
X117734661Y-78411855D01*
X114418582Y-79136875D01*
X112241971Y-79136875D01*
X106257840Y-79910988D01*
X92567203Y-81874176D01*
X74121301Y-85129274D01*
X69980468Y-85886334D01*
X69829573Y-86518337D01*
X69521564Y-86518337D01*
X69734489Y-85626918D01*
X74068591Y-84833685D01*
X92519662Y-81577553D01*
X106217533Y-79613332D01*
X112222334Y-78837152D01*
X114386544Y-78837152D01*
X117685051Y-78115232D01*
X127408489Y-76977834D01*
X138108093Y-75840436D01*
X149892386Y-74858584D01*
X160435929Y-74082920D01*
X171860555Y-73307774D01*
X175886667Y-73256098D01*
X179813042Y-72739333D01*
X195272045Y-72274245D01*
X207881613Y-71964187D01*
X207883164Y-71964187D01*
X217653626Y-71964187D01*
X223600033Y-72067540D01*
X227642163Y-72274762D01*
X229797588Y-72642698D01*
X231287936Y-73547553D01*
X231920973Y-74250869D01*
X230757219Y-74638959D01*
X229026058Y-74796572D01*
X226332166Y-74744379D01*
X221528324Y-74744379D01*
X214758195Y-74796055D01*
X207316273Y-74744379D01*
X202875199Y-74744379D01*
X185309348Y-75364496D01*
X171669870Y-76087966D01*
X148707447Y-77845998D01*
X147624309Y-77639809D01*
X143873634Y-78051154D01*
X134674712Y-78929653D01*
X132712041Y-79136359D01*
X130335442Y-79394224D01*
X124445362Y-80066018D01*
X117986324Y-80841164D01*
X108635473Y-81978045D01*
X100731046Y-83217763D01*
X89933773Y-84819216D01*
X83422025Y-86111126D01*
X78659525Y-86783954D01*
X75700016Y-87043886D01*
X75693815Y-87043610D01*
X73368375Y-86940016D01*
G37*
G36*
X142424559Y-105557017D02*
G01*
X135413100Y-105854674D01*
X129692520Y-106251033D01*
X125229743Y-106515616D01*
X119246130Y-107077856D01*
X108167737Y-108202335D01*
X100495852Y-109028642D01*
X90309913Y-110252340D01*
X80718766Y-111376819D01*
X75482393Y-112006755D01*
X72127042Y-111840356D01*
X70769502Y-111689461D01*
X70976725Y-111067275D01*
X70898176Y-110478164D01*
X72764212Y-110111261D01*
X80699645Y-108538747D01*
X87038276Y-107873156D01*
X91964590Y-107277844D01*
X101128373Y-106053630D01*
X112106513Y-104632010D01*
X116936709Y-104069255D01*
X123883572Y-103374724D01*
X130862992Y-102680192D01*
X134830707Y-102349463D01*
X135086507Y-102321039D01*
X134809520Y-103473424D01*
X134994522Y-104027914D01*
X135804808Y-103970036D01*
X136322090Y-103400560D01*
X136330874Y-103381441D01*
X136377318Y-103280834D01*
X136424570Y-103172579D01*
X136465750Y-103054329D01*
X136471952Y-103033657D01*
X136455932Y-102635750D01*
X136581506Y-102522062D01*
X136791828Y-102397004D01*
X137176818Y-102348945D01*
X137176818Y-102500874D01*
X137249166Y-102984048D01*
X137394893Y-103604684D01*
X137680664Y-103722505D01*
X138153504Y-103722505D01*
X138330753Y-103344233D01*
X138426871Y-102817133D01*
X138553480Y-102309673D01*
X138745715Y-102056456D01*
X138966373Y-102167044D01*
X139353429Y-102433177D01*
X140811738Y-102336025D01*
X143081368Y-101868356D01*
X144968591Y-101705057D01*
X146309595Y-101572250D01*
X146455322Y-101444607D01*
X146823775Y-101427038D01*
X146871834Y-101583100D01*
X148655705Y-101475097D01*
X148623687Y-101135065D01*
X154822770Y-101135065D01*
X155344703Y-101125247D01*
X156587004Y-101066853D01*
X156618010Y-100346483D01*
X156185993Y-100205407D01*
X155890922Y-100159414D01*
X155535904Y-100535620D01*
X154822770Y-101135065D01*
X148623687Y-101135065D01*
X148548218Y-100333566D01*
X148295520Y-99407006D01*
X148147724Y-99139321D01*
X148407658Y-98870089D01*
X148720301Y-98319735D01*
X148776109Y-97947146D01*
X148740970Y-97459839D01*
X148562170Y-96961160D01*
X148201469Y-96735336D01*
X149560559Y-97059863D01*
X150719662Y-97364237D01*
X151351664Y-97530118D01*
X151414193Y-97455188D01*
X151818302Y-96955477D01*
X152360388Y-96487805D01*
X153136051Y-96204619D01*
X153818697Y-96142606D01*
X154692545Y-96363781D01*
X155199491Y-96698127D01*
X155650109Y-97112055D01*
X156033032Y-97655692D01*
X156135352Y-97987971D01*
X156176693Y-98236018D01*
X157514596Y-98224133D01*
X157553352Y-99581673D01*
X157561620Y-99876744D01*
X157828788Y-98392598D01*
X157846875Y-98292345D01*
X164591165Y-97769896D01*
X169355216Y-97442784D01*
X172532801Y-96882095D01*
X175353299Y-96552916D01*
X177942289Y-96646968D01*
X180728166Y-97024724D01*
X182866537Y-98023111D01*
X183647367Y-98673718D01*
X180678557Y-99338793D01*
X178280252Y-100126860D01*
X189667670Y-99780626D01*
X197854252Y-99640067D01*
X204701380Y-99584774D01*
X216938875Y-99546534D01*
X223819592Y-99593558D01*
X225300640Y-99699495D01*
X227608508Y-99991984D01*
X230865158Y-100448802D01*
X232700186Y-100848778D01*
X233375080Y-101064787D01*
X233427275Y-101706608D01*
X232749280Y-101822363D01*
X229871936Y-101915896D01*
X226943432Y-101857502D01*
X225477371Y-101787740D01*
X222514762Y-102055940D01*
X216887715Y-102406822D01*
X211985171Y-102664172D01*
X206370012Y-102734451D01*
X199401961Y-102816617D01*
X195041503Y-102956661D01*
X188809325Y-103097221D01*
X174272227Y-103638788D01*
X167229246Y-104002590D01*
X157506843Y-104564830D01*
X154822770Y-104741402D01*
X142424559Y-105557017D01*
G37*
D11*
%TO.C,J4*%
X70930000Y-77105500D02*
X72430000Y-77105500D01*
X72430000Y-77105500D02*
X72430000Y-77605500D01*
X72430000Y-77605500D02*
X70930000Y-77605500D01*
X70930000Y-77605500D02*
X70930000Y-77105500D01*
G36*
X70930000Y-77105500D02*
G01*
X72430000Y-77105500D01*
X72430000Y-77605500D01*
X70930000Y-77605500D01*
X70930000Y-77105500D01*
G37*
%TO.C,J5*%
X233387800Y-77252900D02*
X234887800Y-77252900D01*
X234887800Y-77252900D02*
X234887800Y-77752900D01*
X234887800Y-77752900D02*
X233387800Y-77752900D01*
X233387800Y-77752900D02*
X233387800Y-77252900D01*
G36*
X233387800Y-77252900D02*
G01*
X234887800Y-77252900D01*
X234887800Y-77752900D01*
X233387800Y-77752900D01*
X233387800Y-77252900D01*
G37*
%TD*%
%LPC*%
%TO.C,svg2mod*%
G36*
X148104319Y-96674873D02*
G01*
X148562172Y-96961160D01*
X148740973Y-97459839D01*
X148776112Y-97947146D01*
X148720303Y-98319735D01*
X148407661Y-98870089D01*
X148147726Y-99139321D01*
X148295523Y-99407006D01*
X148548221Y-100333566D01*
X148655708Y-101475097D01*
X146871837Y-101583100D01*
X146758148Y-101213615D01*
X146717841Y-101175891D01*
X146533871Y-101375879D01*
X146309597Y-101572250D01*
X144968594Y-101705057D01*
X143081371Y-101868356D01*
X140811741Y-102336025D01*
X139353431Y-102433177D01*
X138966375Y-102167044D01*
X138745718Y-102056456D01*
X138553482Y-102309673D01*
X138426874Y-102817133D01*
X138330756Y-103344233D01*
X138153506Y-103722505D01*
X137680667Y-103722505D01*
X137394896Y-103604684D01*
X137249168Y-102984048D01*
X137176821Y-102500874D01*
X137176821Y-102348945D01*
X136791831Y-102397004D01*
X136581508Y-102522062D01*
X136455934Y-102635750D01*
X136471942Y-103033657D01*
X136465750Y-103054321D01*
X136424570Y-103172571D01*
X136377318Y-103280826D01*
X136330874Y-103381433D01*
X136322090Y-103400563D01*
X135804808Y-103970039D01*
X134994522Y-104027916D01*
X134809520Y-103473426D01*
X135105109Y-102243011D01*
X135769669Y-101293715D01*
X136357229Y-100182671D01*
X136817667Y-100102058D01*
X137141160Y-100278789D01*
X137270354Y-100381627D01*
X137499795Y-100345454D01*
X137638289Y-99973899D01*
X137900290Y-99670041D01*
X138237218Y-99670041D01*
X138520407Y-99797166D01*
X138759151Y-100001805D01*
X138827363Y-100045728D01*
X139454717Y-99969248D01*
X139885180Y-99895868D01*
X140092918Y-99599244D01*
X140343034Y-99366702D01*
X140852563Y-99038555D01*
X141326435Y-98857688D01*
X141909346Y-98699557D01*
X142320691Y-98574502D01*
X142635916Y-98642714D01*
X142723765Y-98474765D01*
X143136145Y-98362111D01*
X143756778Y-98113548D01*
X144633726Y-97886173D01*
X145152042Y-97826745D01*
X145631600Y-97804520D01*
X145803682Y-97522884D01*
X146174718Y-96983899D01*
X146941081Y-96653169D01*
X147275427Y-96532247D01*
X148104319Y-96674873D01*
G37*
%TD*%
D12*
%TO.C,J4*%
X69140000Y-78835500D03*
D13*
X69140000Y-81375500D03*
X71680000Y-78835500D03*
X71680000Y-81375500D03*
X74220000Y-78835500D03*
X74220000Y-81375500D03*
%TD*%
D12*
%TO.C,J5*%
X231597800Y-78982900D03*
D13*
X231597800Y-81522900D03*
X234137800Y-78982900D03*
X234137800Y-81522900D03*
X236677800Y-78982900D03*
X236677800Y-81522900D03*
%TD*%
D12*
%TO.C,J3*%
X70195800Y-89836200D03*
D13*
X72735800Y-89836200D03*
X70195800Y-92376200D03*
X72735800Y-92376200D03*
X70195800Y-94916200D03*
X72735800Y-94916200D03*
%TD*%
D14*
%TO.C,BT1*%
X225403500Y-84458400D03*
D15*
X225403500Y-97158400D03*
%TD*%
M02*
