%TF.GenerationSoftware,KiCad,Pcbnew,7.0.1-0*%
%TF.CreationDate,2023-03-26T18:30:06-04:00*%
%TF.ProjectId,WrightFlyer,57726967-6874-4466-9c79-65722e6b6963,v02*%
%TF.SameCoordinates,Original*%
%TF.FileFunction,Legend,Top*%
%TF.FilePolarity,Positive*%
%FSLAX46Y46*%
G04 Gerber Fmt 4.6, Leading zero omitted, Abs format (unit mm)*
G04 Created by KiCad (PCBNEW 7.0.1-0) date 2023-03-26 18:30:06*
%MOMM*%
%LPD*%
G01*
G04 APERTURE LIST*
%ADD10C,0.300000*%
%ADD11C,0.150000*%
%ADD12C,0.120000*%
G04 APERTURE END LIST*
D10*
X131721430Y-65233928D02*
X132078573Y-66733928D01*
X132078573Y-66733928D02*
X132364287Y-65662500D01*
X132364287Y-65662500D02*
X132650002Y-66733928D01*
X132650002Y-66733928D02*
X133007145Y-65233928D01*
X133578573Y-66733928D02*
X133578573Y-65733928D01*
X133578573Y-66019642D02*
X133650002Y-65876785D01*
X133650002Y-65876785D02*
X133721431Y-65805357D01*
X133721431Y-65805357D02*
X133864288Y-65733928D01*
X133864288Y-65733928D02*
X134007145Y-65733928D01*
X134507144Y-66733928D02*
X134507144Y-65733928D01*
X134507144Y-65233928D02*
X134435716Y-65305357D01*
X134435716Y-65305357D02*
X134507144Y-65376785D01*
X134507144Y-65376785D02*
X134578573Y-65305357D01*
X134578573Y-65305357D02*
X134507144Y-65233928D01*
X134507144Y-65233928D02*
X134507144Y-65376785D01*
X135864288Y-65733928D02*
X135864288Y-66948214D01*
X135864288Y-66948214D02*
X135792859Y-67091071D01*
X135792859Y-67091071D02*
X135721430Y-67162500D01*
X135721430Y-67162500D02*
X135578573Y-67233928D01*
X135578573Y-67233928D02*
X135364288Y-67233928D01*
X135364288Y-67233928D02*
X135221430Y-67162500D01*
X135864288Y-66662500D02*
X135721430Y-66733928D01*
X135721430Y-66733928D02*
X135435716Y-66733928D01*
X135435716Y-66733928D02*
X135292859Y-66662500D01*
X135292859Y-66662500D02*
X135221430Y-66591071D01*
X135221430Y-66591071D02*
X135150002Y-66448214D01*
X135150002Y-66448214D02*
X135150002Y-66019642D01*
X135150002Y-66019642D02*
X135221430Y-65876785D01*
X135221430Y-65876785D02*
X135292859Y-65805357D01*
X135292859Y-65805357D02*
X135435716Y-65733928D01*
X135435716Y-65733928D02*
X135721430Y-65733928D01*
X135721430Y-65733928D02*
X135864288Y-65805357D01*
X136578573Y-66733928D02*
X136578573Y-65233928D01*
X137221431Y-66733928D02*
X137221431Y-65948214D01*
X137221431Y-65948214D02*
X137150002Y-65805357D01*
X137150002Y-65805357D02*
X137007145Y-65733928D01*
X137007145Y-65733928D02*
X136792859Y-65733928D01*
X136792859Y-65733928D02*
X136650002Y-65805357D01*
X136650002Y-65805357D02*
X136578573Y-65876785D01*
X137721431Y-65733928D02*
X138292859Y-65733928D01*
X137935716Y-65233928D02*
X137935716Y-66519642D01*
X137935716Y-66519642D02*
X138007145Y-66662500D01*
X138007145Y-66662500D02*
X138150002Y-66733928D01*
X138150002Y-66733928D02*
X138292859Y-66733928D01*
X140435716Y-65948214D02*
X139935716Y-65948214D01*
X139935716Y-66733928D02*
X139935716Y-65233928D01*
X139935716Y-65233928D02*
X140650002Y-65233928D01*
X141435716Y-66733928D02*
X141292859Y-66662500D01*
X141292859Y-66662500D02*
X141221430Y-66519642D01*
X141221430Y-66519642D02*
X141221430Y-65233928D01*
X141864287Y-65733928D02*
X142221430Y-66733928D01*
X142578573Y-65733928D02*
X142221430Y-66733928D01*
X142221430Y-66733928D02*
X142078573Y-67091071D01*
X142078573Y-67091071D02*
X142007144Y-67162500D01*
X142007144Y-67162500D02*
X141864287Y-67233928D01*
X143721430Y-66662500D02*
X143578573Y-66733928D01*
X143578573Y-66733928D02*
X143292859Y-66733928D01*
X143292859Y-66733928D02*
X143150001Y-66662500D01*
X143150001Y-66662500D02*
X143078573Y-66519642D01*
X143078573Y-66519642D02*
X143078573Y-65948214D01*
X143078573Y-65948214D02*
X143150001Y-65805357D01*
X143150001Y-65805357D02*
X143292859Y-65733928D01*
X143292859Y-65733928D02*
X143578573Y-65733928D01*
X143578573Y-65733928D02*
X143721430Y-65805357D01*
X143721430Y-65805357D02*
X143792859Y-65948214D01*
X143792859Y-65948214D02*
X143792859Y-66091071D01*
X143792859Y-66091071D02*
X143078573Y-66233928D01*
X144435715Y-66733928D02*
X144435715Y-65733928D01*
X144435715Y-66019642D02*
X144507144Y-65876785D01*
X144507144Y-65876785D02*
X144578573Y-65805357D01*
X144578573Y-65805357D02*
X144721430Y-65733928D01*
X144721430Y-65733928D02*
X144864287Y-65733928D01*
X146507143Y-66162500D02*
X147650001Y-66162500D01*
X150292858Y-66733928D02*
X149435715Y-66733928D01*
X149864286Y-66733928D02*
X149864286Y-65233928D01*
X149864286Y-65233928D02*
X149721429Y-65448214D01*
X149721429Y-65448214D02*
X149578572Y-65591071D01*
X149578572Y-65591071D02*
X149435715Y-65662500D01*
X150864286Y-65376785D02*
X150935714Y-65305357D01*
X150935714Y-65305357D02*
X151078572Y-65233928D01*
X151078572Y-65233928D02*
X151435714Y-65233928D01*
X151435714Y-65233928D02*
X151578572Y-65305357D01*
X151578572Y-65305357D02*
X151650000Y-65376785D01*
X151650000Y-65376785D02*
X151721429Y-65519642D01*
X151721429Y-65519642D02*
X151721429Y-65662500D01*
X151721429Y-65662500D02*
X151650000Y-65876785D01*
X151650000Y-65876785D02*
X150792857Y-66733928D01*
X150792857Y-66733928D02*
X151721429Y-66733928D01*
X152650000Y-65233928D02*
X152792857Y-65233928D01*
X152792857Y-65233928D02*
X152935714Y-65305357D01*
X152935714Y-65305357D02*
X153007143Y-65376785D01*
X153007143Y-65376785D02*
X153078571Y-65519642D01*
X153078571Y-65519642D02*
X153150000Y-65805357D01*
X153150000Y-65805357D02*
X153150000Y-66162500D01*
X153150000Y-66162500D02*
X153078571Y-66448214D01*
X153078571Y-66448214D02*
X153007143Y-66591071D01*
X153007143Y-66591071D02*
X152935714Y-66662500D01*
X152935714Y-66662500D02*
X152792857Y-66733928D01*
X152792857Y-66733928D02*
X152650000Y-66733928D01*
X152650000Y-66733928D02*
X152507143Y-66662500D01*
X152507143Y-66662500D02*
X152435714Y-66591071D01*
X152435714Y-66591071D02*
X152364285Y-66448214D01*
X152364285Y-66448214D02*
X152292857Y-66162500D01*
X152292857Y-66162500D02*
X152292857Y-65805357D01*
X152292857Y-65805357D02*
X152364285Y-65519642D01*
X152364285Y-65519642D02*
X152435714Y-65376785D01*
X152435714Y-65376785D02*
X152507143Y-65305357D01*
X152507143Y-65305357D02*
X152650000Y-65233928D01*
X155221428Y-66019642D02*
X155221428Y-66733928D01*
X154721428Y-65233928D02*
X155221428Y-66019642D01*
X155221428Y-66019642D02*
X155721428Y-65233928D01*
X156792856Y-66662500D02*
X156649999Y-66733928D01*
X156649999Y-66733928D02*
X156364285Y-66733928D01*
X156364285Y-66733928D02*
X156221427Y-66662500D01*
X156221427Y-66662500D02*
X156149999Y-66519642D01*
X156149999Y-66519642D02*
X156149999Y-65948214D01*
X156149999Y-65948214D02*
X156221427Y-65805357D01*
X156221427Y-65805357D02*
X156364285Y-65733928D01*
X156364285Y-65733928D02*
X156649999Y-65733928D01*
X156649999Y-65733928D02*
X156792856Y-65805357D01*
X156792856Y-65805357D02*
X156864285Y-65948214D01*
X156864285Y-65948214D02*
X156864285Y-66091071D01*
X156864285Y-66091071D02*
X156149999Y-66233928D01*
X158149999Y-66733928D02*
X158149999Y-65948214D01*
X158149999Y-65948214D02*
X158078570Y-65805357D01*
X158078570Y-65805357D02*
X157935713Y-65733928D01*
X157935713Y-65733928D02*
X157649999Y-65733928D01*
X157649999Y-65733928D02*
X157507141Y-65805357D01*
X158149999Y-66662500D02*
X158007141Y-66733928D01*
X158007141Y-66733928D02*
X157649999Y-66733928D01*
X157649999Y-66733928D02*
X157507141Y-66662500D01*
X157507141Y-66662500D02*
X157435713Y-66519642D01*
X157435713Y-66519642D02*
X157435713Y-66376785D01*
X157435713Y-66376785D02*
X157507141Y-66233928D01*
X157507141Y-66233928D02*
X157649999Y-66162500D01*
X157649999Y-66162500D02*
X158007141Y-66162500D01*
X158007141Y-66162500D02*
X158149999Y-66091071D01*
X158864284Y-66733928D02*
X158864284Y-65733928D01*
X158864284Y-66019642D02*
X158935713Y-65876785D01*
X158935713Y-65876785D02*
X159007142Y-65805357D01*
X159007142Y-65805357D02*
X159149999Y-65733928D01*
X159149999Y-65733928D02*
X159292856Y-65733928D01*
X160864284Y-66305357D02*
X161578570Y-66305357D01*
X160721427Y-66733928D02*
X161221427Y-65233928D01*
X161221427Y-65233928D02*
X161721427Y-66733928D01*
X162221426Y-65733928D02*
X162221426Y-66733928D01*
X162221426Y-65876785D02*
X162292855Y-65805357D01*
X162292855Y-65805357D02*
X162435712Y-65733928D01*
X162435712Y-65733928D02*
X162649998Y-65733928D01*
X162649998Y-65733928D02*
X162792855Y-65805357D01*
X162792855Y-65805357D02*
X162864284Y-65948214D01*
X162864284Y-65948214D02*
X162864284Y-66733928D01*
X163578569Y-65733928D02*
X163578569Y-66733928D01*
X163578569Y-65876785D02*
X163649998Y-65805357D01*
X163649998Y-65805357D02*
X163792855Y-65733928D01*
X163792855Y-65733928D02*
X164007141Y-65733928D01*
X164007141Y-65733928D02*
X164149998Y-65805357D01*
X164149998Y-65805357D02*
X164221427Y-65948214D01*
X164221427Y-65948214D02*
X164221427Y-66733928D01*
X164935712Y-66733928D02*
X164935712Y-65733928D01*
X164935712Y-65233928D02*
X164864284Y-65305357D01*
X164864284Y-65305357D02*
X164935712Y-65376785D01*
X164935712Y-65376785D02*
X165007141Y-65305357D01*
X165007141Y-65305357D02*
X164935712Y-65233928D01*
X164935712Y-65233928D02*
X164935712Y-65376785D01*
X165507141Y-65733928D02*
X165864284Y-66733928D01*
X165864284Y-66733928D02*
X166221427Y-65733928D01*
X167364284Y-66662500D02*
X167221427Y-66733928D01*
X167221427Y-66733928D02*
X166935713Y-66733928D01*
X166935713Y-66733928D02*
X166792855Y-66662500D01*
X166792855Y-66662500D02*
X166721427Y-66519642D01*
X166721427Y-66519642D02*
X166721427Y-65948214D01*
X166721427Y-65948214D02*
X166792855Y-65805357D01*
X166792855Y-65805357D02*
X166935713Y-65733928D01*
X166935713Y-65733928D02*
X167221427Y-65733928D01*
X167221427Y-65733928D02*
X167364284Y-65805357D01*
X167364284Y-65805357D02*
X167435713Y-65948214D01*
X167435713Y-65948214D02*
X167435713Y-66091071D01*
X167435713Y-66091071D02*
X166721427Y-66233928D01*
X168078569Y-66733928D02*
X168078569Y-65733928D01*
X168078569Y-66019642D02*
X168149998Y-65876785D01*
X168149998Y-65876785D02*
X168221427Y-65805357D01*
X168221427Y-65805357D02*
X168364284Y-65733928D01*
X168364284Y-65733928D02*
X168507141Y-65733928D01*
X168935712Y-66662500D02*
X169078569Y-66733928D01*
X169078569Y-66733928D02*
X169364283Y-66733928D01*
X169364283Y-66733928D02*
X169507140Y-66662500D01*
X169507140Y-66662500D02*
X169578569Y-66519642D01*
X169578569Y-66519642D02*
X169578569Y-66448214D01*
X169578569Y-66448214D02*
X169507140Y-66305357D01*
X169507140Y-66305357D02*
X169364283Y-66233928D01*
X169364283Y-66233928D02*
X169149998Y-66233928D01*
X169149998Y-66233928D02*
X169007140Y-66162500D01*
X169007140Y-66162500D02*
X168935712Y-66019642D01*
X168935712Y-66019642D02*
X168935712Y-65948214D01*
X168935712Y-65948214D02*
X169007140Y-65805357D01*
X169007140Y-65805357D02*
X169149998Y-65733928D01*
X169149998Y-65733928D02*
X169364283Y-65733928D01*
X169364283Y-65733928D02*
X169507140Y-65805357D01*
X170864284Y-66733928D02*
X170864284Y-65948214D01*
X170864284Y-65948214D02*
X170792855Y-65805357D01*
X170792855Y-65805357D02*
X170649998Y-65733928D01*
X170649998Y-65733928D02*
X170364284Y-65733928D01*
X170364284Y-65733928D02*
X170221426Y-65805357D01*
X170864284Y-66662500D02*
X170721426Y-66733928D01*
X170721426Y-66733928D02*
X170364284Y-66733928D01*
X170364284Y-66733928D02*
X170221426Y-66662500D01*
X170221426Y-66662500D02*
X170149998Y-66519642D01*
X170149998Y-66519642D02*
X170149998Y-66376785D01*
X170149998Y-66376785D02*
X170221426Y-66233928D01*
X170221426Y-66233928D02*
X170364284Y-66162500D01*
X170364284Y-66162500D02*
X170721426Y-66162500D01*
X170721426Y-66162500D02*
X170864284Y-66091071D01*
X171578569Y-66733928D02*
X171578569Y-65733928D01*
X171578569Y-66019642D02*
X171649998Y-65876785D01*
X171649998Y-65876785D02*
X171721427Y-65805357D01*
X171721427Y-65805357D02*
X171864284Y-65733928D01*
X171864284Y-65733928D02*
X172007141Y-65733928D01*
X172364283Y-65733928D02*
X172721426Y-66733928D01*
X173078569Y-65733928D02*
X172721426Y-66733928D01*
X172721426Y-66733928D02*
X172578569Y-67091071D01*
X172578569Y-67091071D02*
X172507140Y-67162500D01*
X172507140Y-67162500D02*
X172364283Y-67233928D01*
X211100526Y-114521741D02*
X211100526Y-112521741D01*
X211100526Y-112521741D02*
X211576716Y-112521741D01*
X211576716Y-112521741D02*
X211862431Y-112616979D01*
X211862431Y-112616979D02*
X212052907Y-112807455D01*
X212052907Y-112807455D02*
X212148145Y-112997931D01*
X212148145Y-112997931D02*
X212243383Y-113378883D01*
X212243383Y-113378883D02*
X212243383Y-113664598D01*
X212243383Y-113664598D02*
X212148145Y-114045550D01*
X212148145Y-114045550D02*
X212052907Y-114236026D01*
X212052907Y-114236026D02*
X211862431Y-114426503D01*
X211862431Y-114426503D02*
X211576716Y-114521741D01*
X211576716Y-114521741D02*
X211100526Y-114521741D01*
X213862431Y-114426503D02*
X213671955Y-114521741D01*
X213671955Y-114521741D02*
X213291002Y-114521741D01*
X213291002Y-114521741D02*
X213100526Y-114426503D01*
X213100526Y-114426503D02*
X213005288Y-114236026D01*
X213005288Y-114236026D02*
X213005288Y-113474122D01*
X213005288Y-113474122D02*
X213100526Y-113283645D01*
X213100526Y-113283645D02*
X213291002Y-113188407D01*
X213291002Y-113188407D02*
X213671955Y-113188407D01*
X213671955Y-113188407D02*
X213862431Y-113283645D01*
X213862431Y-113283645D02*
X213957669Y-113474122D01*
X213957669Y-113474122D02*
X213957669Y-113664598D01*
X213957669Y-113664598D02*
X213005288Y-113855074D01*
X215671955Y-114426503D02*
X215481479Y-114521741D01*
X215481479Y-114521741D02*
X215100526Y-114521741D01*
X215100526Y-114521741D02*
X214910050Y-114426503D01*
X214910050Y-114426503D02*
X214814812Y-114331264D01*
X214814812Y-114331264D02*
X214719574Y-114140788D01*
X214719574Y-114140788D02*
X214719574Y-113569360D01*
X214719574Y-113569360D02*
X214814812Y-113378883D01*
X214814812Y-113378883D02*
X214910050Y-113283645D01*
X214910050Y-113283645D02*
X215100526Y-113188407D01*
X215100526Y-113188407D02*
X215481479Y-113188407D01*
X215481479Y-113188407D02*
X215671955Y-113283645D01*
X217291003Y-114426503D02*
X217100527Y-114521741D01*
X217100527Y-114521741D02*
X216719574Y-114521741D01*
X216719574Y-114521741D02*
X216529098Y-114426503D01*
X216529098Y-114426503D02*
X216433860Y-114236026D01*
X216433860Y-114236026D02*
X216433860Y-113474122D01*
X216433860Y-113474122D02*
X216529098Y-113283645D01*
X216529098Y-113283645D02*
X216719574Y-113188407D01*
X216719574Y-113188407D02*
X217100527Y-113188407D01*
X217100527Y-113188407D02*
X217291003Y-113283645D01*
X217291003Y-113283645D02*
X217386241Y-113474122D01*
X217386241Y-113474122D02*
X217386241Y-113664598D01*
X217386241Y-113664598D02*
X216433860Y-113855074D01*
X218243384Y-114521741D02*
X218243384Y-113188407D01*
X218243384Y-113378883D02*
X218338622Y-113283645D01*
X218338622Y-113283645D02*
X218529098Y-113188407D01*
X218529098Y-113188407D02*
X218814813Y-113188407D01*
X218814813Y-113188407D02*
X219005289Y-113283645D01*
X219005289Y-113283645D02*
X219100527Y-113474122D01*
X219100527Y-113474122D02*
X219100527Y-114521741D01*
X219100527Y-113474122D02*
X219195765Y-113283645D01*
X219195765Y-113283645D02*
X219386241Y-113188407D01*
X219386241Y-113188407D02*
X219671955Y-113188407D01*
X219671955Y-113188407D02*
X219862432Y-113283645D01*
X219862432Y-113283645D02*
X219957670Y-113474122D01*
X219957670Y-113474122D02*
X219957670Y-114521741D01*
X220910051Y-114521741D02*
X220910051Y-112521741D01*
X220910051Y-113283645D02*
X221100527Y-113188407D01*
X221100527Y-113188407D02*
X221481480Y-113188407D01*
X221481480Y-113188407D02*
X221671956Y-113283645D01*
X221671956Y-113283645D02*
X221767194Y-113378883D01*
X221767194Y-113378883D02*
X221862432Y-113569360D01*
X221862432Y-113569360D02*
X221862432Y-114140788D01*
X221862432Y-114140788D02*
X221767194Y-114331264D01*
X221767194Y-114331264D02*
X221671956Y-114426503D01*
X221671956Y-114426503D02*
X221481480Y-114521741D01*
X221481480Y-114521741D02*
X221100527Y-114521741D01*
X221100527Y-114521741D02*
X220910051Y-114426503D01*
X223481480Y-114426503D02*
X223291004Y-114521741D01*
X223291004Y-114521741D02*
X222910051Y-114521741D01*
X222910051Y-114521741D02*
X222719575Y-114426503D01*
X222719575Y-114426503D02*
X222624337Y-114236026D01*
X222624337Y-114236026D02*
X222624337Y-113474122D01*
X222624337Y-113474122D02*
X222719575Y-113283645D01*
X222719575Y-113283645D02*
X222910051Y-113188407D01*
X222910051Y-113188407D02*
X223291004Y-113188407D01*
X223291004Y-113188407D02*
X223481480Y-113283645D01*
X223481480Y-113283645D02*
X223576718Y-113474122D01*
X223576718Y-113474122D02*
X223576718Y-113664598D01*
X223576718Y-113664598D02*
X222624337Y-113855074D01*
X224433861Y-114521741D02*
X224433861Y-113188407D01*
X224433861Y-113569360D02*
X224529099Y-113378883D01*
X224529099Y-113378883D02*
X224624337Y-113283645D01*
X224624337Y-113283645D02*
X224814813Y-113188407D01*
X224814813Y-113188407D02*
X225005290Y-113188407D01*
X228243385Y-114521741D02*
X227100528Y-114521741D01*
X227671956Y-114521741D02*
X227671956Y-112521741D01*
X227671956Y-112521741D02*
X227481480Y-112807455D01*
X227481480Y-112807455D02*
X227291004Y-112997931D01*
X227291004Y-112997931D02*
X227100528Y-113093169D01*
X228910052Y-112521741D02*
X230243385Y-112521741D01*
X230243385Y-112521741D02*
X229386242Y-114521741D01*
X231100528Y-114426503D02*
X231100528Y-114521741D01*
X231100528Y-114521741D02*
X231005290Y-114712217D01*
X231005290Y-114712217D02*
X230910052Y-114807455D01*
X234529100Y-114521741D02*
X233386243Y-114521741D01*
X233957671Y-114521741D02*
X233957671Y-112521741D01*
X233957671Y-112521741D02*
X233767195Y-112807455D01*
X233767195Y-112807455D02*
X233576719Y-112997931D01*
X233576719Y-112997931D02*
X233386243Y-113093169D01*
X235481481Y-114521741D02*
X235862433Y-114521741D01*
X235862433Y-114521741D02*
X236052910Y-114426503D01*
X236052910Y-114426503D02*
X236148148Y-114331264D01*
X236148148Y-114331264D02*
X236338624Y-114045550D01*
X236338624Y-114045550D02*
X236433862Y-113664598D01*
X236433862Y-113664598D02*
X236433862Y-112902693D01*
X236433862Y-112902693D02*
X236338624Y-112712217D01*
X236338624Y-112712217D02*
X236243386Y-112616979D01*
X236243386Y-112616979D02*
X236052910Y-112521741D01*
X236052910Y-112521741D02*
X235671957Y-112521741D01*
X235671957Y-112521741D02*
X235481481Y-112616979D01*
X235481481Y-112616979D02*
X235386243Y-112712217D01*
X235386243Y-112712217D02*
X235291005Y-112902693D01*
X235291005Y-112902693D02*
X235291005Y-113378883D01*
X235291005Y-113378883D02*
X235386243Y-113569360D01*
X235386243Y-113569360D02*
X235481481Y-113664598D01*
X235481481Y-113664598D02*
X235671957Y-113759836D01*
X235671957Y-113759836D02*
X236052910Y-113759836D01*
X236052910Y-113759836D02*
X236243386Y-113664598D01*
X236243386Y-113664598D02*
X236338624Y-113569360D01*
X236338624Y-113569360D02*
X236433862Y-113378883D01*
X237671957Y-112521741D02*
X237862434Y-112521741D01*
X237862434Y-112521741D02*
X238052910Y-112616979D01*
X238052910Y-112616979D02*
X238148148Y-112712217D01*
X238148148Y-112712217D02*
X238243386Y-112902693D01*
X238243386Y-112902693D02*
X238338624Y-113283645D01*
X238338624Y-113283645D02*
X238338624Y-113759836D01*
X238338624Y-113759836D02*
X238243386Y-114140788D01*
X238243386Y-114140788D02*
X238148148Y-114331264D01*
X238148148Y-114331264D02*
X238052910Y-114426503D01*
X238052910Y-114426503D02*
X237862434Y-114521741D01*
X237862434Y-114521741D02*
X237671957Y-114521741D01*
X237671957Y-114521741D02*
X237481481Y-114426503D01*
X237481481Y-114426503D02*
X237386243Y-114331264D01*
X237386243Y-114331264D02*
X237291005Y-114140788D01*
X237291005Y-114140788D02*
X237195767Y-113759836D01*
X237195767Y-113759836D02*
X237195767Y-113283645D01*
X237195767Y-113283645D02*
X237291005Y-112902693D01*
X237291005Y-112902693D02*
X237386243Y-112712217D01*
X237386243Y-112712217D02*
X237481481Y-112616979D01*
X237481481Y-112616979D02*
X237671957Y-112521741D01*
X239005291Y-112521741D02*
X240243386Y-112521741D01*
X240243386Y-112521741D02*
X239576719Y-113283645D01*
X239576719Y-113283645D02*
X239862434Y-113283645D01*
X239862434Y-113283645D02*
X240052910Y-113378883D01*
X240052910Y-113378883D02*
X240148148Y-113474122D01*
X240148148Y-113474122D02*
X240243386Y-113664598D01*
X240243386Y-113664598D02*
X240243386Y-114140788D01*
X240243386Y-114140788D02*
X240148148Y-114331264D01*
X240148148Y-114331264D02*
X240052910Y-114426503D01*
X240052910Y-114426503D02*
X239862434Y-114521741D01*
X239862434Y-114521741D02*
X239291005Y-114521741D01*
X239291005Y-114521741D02*
X239100529Y-114426503D01*
X239100529Y-114426503D02*
X239005291Y-114331264D01*
D11*
%TO.C,J4*%
X63989319Y-92412333D02*
X64703604Y-92412333D01*
X64703604Y-92412333D02*
X64846461Y-92459952D01*
X64846461Y-92459952D02*
X64941700Y-92555190D01*
X64941700Y-92555190D02*
X64989319Y-92698047D01*
X64989319Y-92698047D02*
X64989319Y-92793285D01*
X64322652Y-91507571D02*
X64989319Y-91507571D01*
X63941700Y-91745666D02*
X64655985Y-91983761D01*
X64655985Y-91983761D02*
X64655985Y-91364714D01*
%TO.C,svg2mod*%
G36*
X72605104Y-110027318D02*
G01*
X72302797Y-110042822D01*
X71097186Y-86692826D01*
X71399493Y-86677324D01*
X72605104Y-110027318D01*
G37*
G36*
X80533302Y-108457381D02*
G01*
X80233579Y-108469790D01*
X79319940Y-86362613D01*
X79619663Y-86350212D01*
X80533302Y-108457381D01*
G37*
G36*
X93358875Y-107468305D02*
G01*
X93059669Y-107485873D01*
X91707299Y-84245949D01*
X92007021Y-84228378D01*
X93358875Y-107468305D01*
G37*
G36*
X100959444Y-105970191D02*
G01*
X100659722Y-105987257D01*
X99344557Y-83076511D01*
X99643764Y-83058940D01*
X100959444Y-105970191D01*
G37*
G36*
X112761827Y-104982658D02*
G01*
X112462620Y-105001787D01*
X110927831Y-81359820D01*
X111227553Y-81340699D01*
X112761827Y-104982658D01*
G37*
G36*
X125101629Y-90442468D02*
G01*
X125095437Y-90742193D01*
X116273237Y-90549439D01*
X116279957Y-90249200D01*
X125101629Y-90442468D01*
G37*
G36*
X123439728Y-104317075D02*
G01*
X123197883Y-104425078D01*
X117315036Y-91307015D01*
X117556365Y-91198496D01*
X123439728Y-104317075D01*
G37*
G36*
X119887490Y-103631317D02*
G01*
X119588283Y-103649415D01*
X118199737Y-80519044D01*
X118498944Y-80500957D01*
X119887490Y-103631317D01*
G37*
G36*
X121759727Y-80122685D02*
G01*
X117594090Y-89988750D01*
X117350176Y-89885914D01*
X121515813Y-80019850D01*
X121759727Y-80122685D01*
G37*
G36*
X124544570Y-89985133D02*
G01*
X124285154Y-90036293D01*
X122312148Y-80023984D01*
X122571564Y-79972824D01*
X124544570Y-89985133D01*
G37*
G36*
X124546636Y-90971124D02*
G01*
X123450578Y-104381676D01*
X123187030Y-104360482D01*
X124283087Y-90949931D01*
X124546636Y-90971124D01*
G37*
G36*
X129716864Y-103338828D02*
G01*
X129417658Y-103356926D01*
X127992421Y-79312917D01*
X128292144Y-79295346D01*
X129716864Y-103338828D01*
G37*
G36*
X130251714Y-110658807D02*
G01*
X130025890Y-110796265D01*
X129809365Y-110439697D01*
X130035708Y-110302238D01*
X130251714Y-110658807D01*
G37*
G36*
X130358688Y-110877397D02*
G01*
X129919956Y-110889277D01*
X129913235Y-110624694D01*
X130351451Y-110612814D01*
X130358688Y-110877397D01*
G37*
G36*
X130762278Y-109653699D02*
G01*
X130019688Y-110460369D01*
X129824867Y-110281569D01*
X130567457Y-109474381D01*
X130762278Y-109653699D01*
G37*
G36*
X134364120Y-108561777D02*
G01*
X127605360Y-109076474D01*
X127585727Y-108812406D01*
X134343972Y-108298226D01*
X134364120Y-108561777D01*
G37*
G36*
X134618890Y-110419028D02*
G01*
X134355341Y-110436596D01*
X134222015Y-108438786D01*
X134486082Y-108421217D01*
X134618890Y-110419028D01*
G37*
G36*
X136258065Y-100086842D02*
G01*
X135958343Y-100104411D01*
X134716042Y-78581694D01*
X135015249Y-78564641D01*
X136258065Y-100086842D01*
G37*
G36*
X135625031Y-84064047D02*
G01*
X134626126Y-84117274D01*
X134398748Y-79842083D01*
X135397138Y-79788856D01*
X135625031Y-84064047D01*
G37*
G36*
X140351357Y-110078996D02*
G01*
X140143101Y-110242294D01*
X137594420Y-106991330D01*
X137802674Y-106828031D01*
X140351357Y-110078996D01*
G37*
G36*
X137924115Y-110320841D02*
G01*
X137659532Y-110328091D01*
X137565996Y-106913312D01*
X137830579Y-106906062D01*
X137924115Y-110320841D01*
G37*
G36*
X139573109Y-105456021D02*
G01*
X134895877Y-110531164D01*
X134701056Y-110351332D01*
X139378289Y-105276705D01*
X139573109Y-105456021D01*
G37*
G36*
X146479147Y-96204392D02*
G01*
X146199578Y-96313429D01*
X139147297Y-78188954D01*
X139426866Y-78080433D01*
X146479147Y-96204392D01*
G37*
G36*
X140595780Y-110527031D02*
G01*
X137326728Y-110596793D01*
X137321569Y-110332210D01*
X140590618Y-110262447D01*
X140595780Y-110527031D01*
G37*
G36*
X140987493Y-110553902D02*
G01*
X140723428Y-110562157D01*
X140559614Y-105510788D01*
X140824197Y-105502533D01*
X140987493Y-110553902D01*
G37*
G36*
X140887242Y-110222657D02*
G01*
X130363337Y-110877397D01*
X130346800Y-110613330D01*
X140870705Y-109958073D01*
X140887242Y-110222657D01*
G37*
G36*
X143456076Y-102424674D02*
G01*
X143156869Y-102443804D01*
X141585390Y-77924888D01*
X141885113Y-77905767D01*
X143456076Y-102424674D01*
G37*
G36*
X151661260Y-109332270D02*
G01*
X151419415Y-109439757D01*
X149385431Y-104859158D01*
X149627276Y-104751671D01*
X151661260Y-109332270D01*
G37*
G36*
X150118203Y-109448544D02*
G01*
X149853619Y-109455767D01*
X149721328Y-104643658D01*
X149985911Y-104636435D01*
X150118203Y-109448544D01*
G37*
G36*
X152449843Y-109164839D02*
G01*
X152185260Y-109177248D01*
X151970286Y-104513967D01*
X152234869Y-104501558D01*
X152449843Y-109164839D01*
G37*
G36*
X152719594Y-104677257D02*
G01*
X150437563Y-109803559D01*
X150195718Y-109696072D01*
X152477749Y-104569770D01*
X152719594Y-104677257D01*
G37*
G36*
X153359348Y-109378263D02*
G01*
X153094765Y-109393767D01*
X152813645Y-104532049D01*
X153078229Y-104516544D01*
X153359348Y-109378263D01*
G37*
G36*
X157634023Y-101803009D02*
G01*
X157334816Y-101823171D01*
X155653781Y-77048454D01*
X155952987Y-77028301D01*
X157634023Y-101803009D01*
G37*
G36*
X156402057Y-109660417D02*
G01*
X156137473Y-109673858D01*
X155955572Y-105986228D01*
X156220156Y-105972787D01*
X156402057Y-109660417D01*
G37*
G36*
X157645392Y-104310357D02*
G01*
X153081330Y-109866607D01*
X152876690Y-109699173D01*
X157440753Y-104142923D01*
X157645392Y-104310357D01*
G37*
G36*
X165977701Y-100492502D02*
G01*
X165726553Y-100576216D01*
X157797321Y-76824696D01*
X158048469Y-76740980D01*
X165977701Y-100492502D01*
G37*
G36*
X159345546Y-109464046D02*
G01*
X159080963Y-109473359D01*
X158899062Y-104148620D01*
X159163645Y-104139307D01*
X159345546Y-109464046D01*
G37*
G36*
X165318309Y-101365317D02*
G01*
X165070262Y-101457299D01*
X159918121Y-87571843D01*
X160166167Y-87479859D01*
X165318309Y-101365317D01*
G37*
G36*
X163590249Y-100599483D02*
G01*
X163290526Y-100615491D01*
X162012049Y-76498100D01*
X162311256Y-76482598D01*
X163590249Y-100599483D01*
G37*
G36*
X163274506Y-76566313D02*
G01*
X160204926Y-86395688D01*
X159952744Y-86317139D01*
X163021807Y-76487765D01*
X163274506Y-76566313D01*
G37*
G36*
X165471788Y-87032858D02*
G01*
X165209787Y-87068515D01*
X163747861Y-76435572D01*
X164009862Y-76399399D01*
X165471788Y-87032858D01*
G37*
G36*
X164770539Y-88026596D02*
G01*
X153443065Y-98038904D01*
X153267882Y-97840467D01*
X164595356Y-87828675D01*
X164770539Y-88026596D01*
G37*
G36*
X165546202Y-87893263D02*
G01*
X165326577Y-101413368D01*
X165061994Y-101409241D01*
X165281619Y-87889136D01*
X165546202Y-87893263D01*
G37*
G36*
X168796132Y-108695617D02*
G01*
X168548085Y-108787086D01*
X166696002Y-103760003D01*
X166944049Y-103668533D01*
X168796132Y-108695617D01*
G37*
G36*
X169350104Y-108322515D02*
G01*
X169085520Y-108332860D01*
X168903619Y-103619969D01*
X169168203Y-103609624D01*
X169350104Y-108322515D01*
G37*
G36*
X175940917Y-100744684D02*
G01*
X175641710Y-100762252D01*
X174179784Y-75548804D01*
X174479507Y-75531751D01*
X175940917Y-100744684D01*
G37*
G36*
X181714723Y-99940599D02*
G01*
X181415001Y-99958168D01*
X179953590Y-75183969D01*
X180252797Y-75165882D01*
X181714723Y-99940599D01*
G37*
G36*
X199473329Y-100232056D02*
G01*
X199174122Y-100251688D01*
X197493090Y-74600026D01*
X197792296Y-74580388D01*
X199473329Y-100232056D01*
G37*
G36*
X204515917Y-99502383D02*
G01*
X204216710Y-99519952D01*
X202754784Y-74452749D01*
X203054507Y-74435178D01*
X204515917Y-99502383D01*
G37*
G36*
X225709455Y-100012950D02*
G01*
X225410248Y-100032582D01*
X223656349Y-73431104D01*
X223955556Y-73410951D01*
X225709455Y-100012950D01*
G37*
G36*
X230094717Y-100307510D02*
G01*
X229794992Y-100322486D01*
X228535123Y-74447580D01*
X228834846Y-74433110D01*
X230094717Y-100307510D01*
G37*
G36*
X131155531Y-108812922D02*
G01*
X130876477Y-109420123D01*
X134484010Y-109220651D01*
X134498483Y-109485234D01*
X130453253Y-109708476D01*
X130914723Y-108702337D01*
X131155531Y-108812922D01*
G37*
G36*
X159651471Y-109534843D02*
G01*
X153301471Y-109931718D01*
X139865598Y-110766809D01*
X139849062Y-110502226D01*
X153284934Y-109667651D01*
X159634934Y-109270776D01*
X159651471Y-109534843D01*
G37*
G36*
X133348509Y-91100862D02*
G01*
X134354111Y-108429954D01*
X133102189Y-108360757D01*
X132341512Y-108129247D01*
X132258830Y-102424169D01*
X131713127Y-93692916D01*
X131283179Y-85408152D01*
X130836695Y-79289662D01*
X130820158Y-77983282D01*
X131812346Y-77636016D01*
X132366293Y-77443392D01*
X133348509Y-91100862D01*
G37*
G36*
X126487606Y-79322735D02*
G01*
X126934090Y-86929506D01*
X127215210Y-92188099D01*
X127744377Y-97198648D01*
X128124715Y-102622606D01*
X128538127Y-107368570D01*
X128571200Y-108856851D01*
X126553752Y-108658414D01*
X126256096Y-102606070D01*
X125941903Y-96834846D01*
X125560943Y-93240691D01*
X125432318Y-89779549D01*
X125233537Y-86610737D01*
X124999677Y-82471400D01*
X124777509Y-78928408D01*
X124635523Y-78380157D01*
X125627710Y-78214792D01*
X126421460Y-78198256D01*
X126487606Y-79322735D01*
G37*
G36*
X178197114Y-88583151D02*
G01*
X180049198Y-89046172D01*
X181901281Y-89839922D01*
X182232010Y-90170651D01*
X179916906Y-90898255D01*
X172640864Y-93477943D01*
X168473677Y-94536278D01*
X164637218Y-94999299D01*
X159279403Y-95528466D01*
X153392424Y-95925341D01*
X149886695Y-96057633D01*
X145058049Y-95660758D01*
X142213778Y-94966226D01*
X139567945Y-94007109D01*
X138509611Y-93477943D01*
X140493986Y-92551901D01*
X143668986Y-91361276D01*
X146116382Y-90898255D01*
X149820549Y-90501380D01*
X155442945Y-90236797D01*
X159411695Y-89906068D01*
X164571072Y-89443047D01*
X168870552Y-89112318D01*
X173236177Y-88517005D01*
X175815864Y-88120131D01*
X178197114Y-88583151D01*
G37*
G36*
X133078930Y-108492012D02*
G01*
X132210766Y-108227947D01*
X132126533Y-102429334D01*
X131580830Y-93700669D01*
X131150882Y-85416419D01*
X130704398Y-79295346D01*
X130689167Y-78076816D01*
X130953479Y-78076816D01*
X130968984Y-79283977D01*
X131415468Y-85399883D01*
X131845416Y-93685164D01*
X132391119Y-102418999D01*
X132472251Y-108030542D01*
X133125441Y-108229498D01*
X134213230Y-108289442D01*
X133216392Y-91109612D01*
X132246942Y-77625164D01*
X131855748Y-77761073D01*
X130953479Y-78076816D01*
X130689167Y-78076816D01*
X130686829Y-77889747D01*
X131768936Y-77510959D01*
X132322907Y-77318206D01*
X132485686Y-77261878D01*
X133480456Y-91092041D01*
X134494864Y-108570045D01*
X134213230Y-108554524D01*
X133078930Y-108492012D01*
G37*
G36*
X148515447Y-77611986D02*
G01*
X148573581Y-77741177D01*
X148644637Y-78509865D01*
X148689855Y-79026629D01*
X148735069Y-79123522D01*
X148896560Y-79330228D01*
X148974073Y-79607989D01*
X148974073Y-79866371D01*
X148877180Y-80053698D01*
X148754450Y-80286242D01*
X148793206Y-81623370D01*
X148890099Y-83199501D01*
X149045129Y-85828539D01*
X149161400Y-88270249D01*
X149355187Y-91596919D01*
X149542514Y-95001106D01*
X149737766Y-97062856D01*
X148605003Y-96660906D01*
X148458839Y-94541544D01*
X147472240Y-80473351D01*
X147313982Y-80331459D01*
X147113734Y-80202268D01*
X146958707Y-79982643D01*
X146913490Y-79640287D01*
X146965166Y-79343147D01*
X147146035Y-79123522D01*
X147359199Y-78994331D01*
X147565905Y-78962033D01*
X147779069Y-78962033D01*
X147798436Y-78774706D01*
X147636945Y-78290240D01*
X147391483Y-77631365D01*
X147236453Y-77437578D01*
X148515447Y-77611986D01*
G37*
G36*
X170368683Y-108657969D02*
G01*
X169988657Y-108798286D01*
X169146758Y-108874290D01*
X168491949Y-109002914D01*
X167299257Y-109154923D01*
X165100967Y-109207540D01*
X163218388Y-109225082D01*
X162376489Y-109324476D01*
X162125087Y-109581722D01*
X161025942Y-109587569D01*
X160774542Y-109406327D01*
X159616927Y-109529104D01*
X139857333Y-110634526D01*
X134798446Y-110441163D01*
X134815988Y-110154683D01*
X136154841Y-109914975D01*
X138744850Y-109815585D01*
X140633276Y-109698655D01*
X142796488Y-109599264D01*
X146818896Y-109435561D01*
X149367979Y-109225085D01*
X151028390Y-109318631D01*
X151780122Y-109195854D01*
X154177908Y-108997416D01*
X156741059Y-108898198D01*
X158923872Y-108798979D01*
X159816841Y-108807234D01*
X161189369Y-108757624D01*
X164256882Y-108567455D01*
X166092429Y-108459968D01*
X166853104Y-108443440D01*
X168523286Y-108278075D01*
X169059062Y-108196094D01*
X169754797Y-108196094D01*
X170497305Y-108166860D01*
X170368683Y-108657969D01*
G37*
G36*
X126427141Y-108778818D02*
G01*
X126123801Y-102612785D01*
X125810125Y-96845178D01*
X125428754Y-93250049D01*
X125300079Y-89786180D01*
X125101642Y-86618414D01*
X124867546Y-82479132D01*
X124646373Y-78949115D01*
X124526530Y-78487127D01*
X124799850Y-78487127D01*
X124908888Y-78907256D01*
X125131614Y-82463628D01*
X125365709Y-86602910D01*
X125564663Y-89772741D01*
X125692819Y-93231446D01*
X126073676Y-96824509D01*
X126388385Y-102599350D01*
X126680358Y-108538004D01*
X128435805Y-108710605D01*
X128405833Y-107375801D01*
X127992937Y-102632938D01*
X127612599Y-97210015D01*
X127083432Y-92198433D01*
X126801796Y-86936740D01*
X126355312Y-79330486D01*
X126296918Y-78333131D01*
X125640109Y-78347083D01*
X124799850Y-78487127D01*
X124526530Y-78487127D01*
X124507361Y-78413230D01*
X124471190Y-78273187D01*
X125615304Y-78082501D01*
X126545997Y-78063380D01*
X126619895Y-79314983D01*
X127066380Y-86922270D01*
X127346983Y-92177764D01*
X127876150Y-97187276D01*
X128256489Y-102612269D01*
X128670416Y-107361334D01*
X128706590Y-109003092D01*
X128435805Y-108976449D01*
X126427141Y-108778818D01*
G37*
G36*
X166080018Y-86046872D02*
G01*
X166383360Y-86220504D01*
X166626239Y-86584306D01*
X166825193Y-87022006D01*
X166825193Y-87518616D01*
X166865499Y-87883452D01*
X166575080Y-88381613D01*
X165862977Y-88943852D01*
X164438776Y-90148947D01*
X162682810Y-91575215D01*
X159394121Y-94169373D01*
X155961774Y-96981087D01*
X153770693Y-98880197D01*
X153597577Y-98680209D01*
X155791242Y-96779032D01*
X159228757Y-93963183D01*
X162517445Y-91369028D01*
X164269794Y-89945342D01*
X165695546Y-88738697D01*
X166371991Y-88204879D01*
X166592648Y-87825574D01*
X166560610Y-87533086D01*
X166560610Y-87079367D01*
X166394210Y-86712981D01*
X166197842Y-86419459D01*
X165990102Y-86300086D01*
X165591160Y-86233940D01*
X165206686Y-86265980D01*
X164799477Y-86571387D01*
X164333355Y-86930022D01*
X163206809Y-88129432D01*
X161014178Y-90322064D01*
X159880915Y-91528191D01*
X157063515Y-94272208D01*
X155746800Y-95479370D01*
X155568000Y-95284552D01*
X156882130Y-94079973D01*
X159692296Y-91342673D01*
X160824009Y-90137578D01*
X163016640Y-87944947D01*
X164155589Y-86733135D01*
X164639279Y-86360547D01*
X165109018Y-86008631D01*
X165602011Y-85967290D01*
X166080018Y-86046872D01*
G37*
G36*
X134731031Y-92866094D02*
G01*
X137567033Y-93974036D01*
X140262476Y-94842203D01*
X141973999Y-95321760D01*
X145595484Y-96123778D01*
X149192582Y-96982462D01*
X150350192Y-97286482D01*
X151063466Y-97473571D01*
X151180399Y-97333255D01*
X151577962Y-96842146D01*
X152092455Y-96397813D01*
X152829115Y-96128872D01*
X153472233Y-96070407D01*
X154302440Y-96280880D01*
X154781854Y-96596594D01*
X155214498Y-96994157D01*
X155576983Y-97508650D01*
X155670526Y-97812669D01*
X155728991Y-98163462D01*
X157050304Y-98151767D01*
X157085383Y-99379537D01*
X157129664Y-100952422D01*
X156383800Y-100852861D01*
X156418882Y-100046041D01*
X155881000Y-99870646D01*
X155506823Y-99812179D01*
X155109260Y-100233128D01*
X154302440Y-100911326D01*
X153179908Y-100923021D01*
X148175285Y-101145202D01*
X145669898Y-97306135D01*
X143420940Y-96561995D01*
X145372242Y-97727828D01*
X145190341Y-97942789D01*
X144487541Y-97463232D01*
X143048869Y-96520653D01*
X142155900Y-96041096D01*
X141081031Y-95569807D01*
X139890406Y-95222541D01*
X138294637Y-94924885D01*
X136078752Y-94478401D01*
X133606551Y-93924427D01*
X133565210Y-93502747D01*
X136781551Y-94230351D01*
X135127906Y-93701185D01*
X133556942Y-93246432D01*
X133474260Y-92254245D01*
X134731031Y-92866094D01*
G37*
G36*
X223258958Y-72011553D02*
G01*
X227289721Y-72218259D01*
X229408454Y-72579994D01*
X230855394Y-73458493D01*
X231320482Y-73975257D01*
X230390305Y-74285316D01*
X228684983Y-74440345D01*
X225997808Y-74388669D01*
X221191901Y-74388669D01*
X214422288Y-74440345D01*
X206980881Y-74388669D01*
X202536709Y-74388669D01*
X184966722Y-75008786D01*
X171324144Y-75732256D01*
X148379808Y-77489254D01*
X147294601Y-77282549D01*
X143522222Y-77695960D01*
X134323818Y-78574460D01*
X132360113Y-78781165D01*
X129982998Y-79039548D01*
X124091883Y-79711341D01*
X117632330Y-80486488D01*
X108278896Y-81623369D01*
X100372403Y-82863603D01*
X89572026Y-84465573D01*
X83060797Y-85757484D01*
X78306565Y-86429277D01*
X75361008Y-86687660D01*
X73035569Y-86584306D01*
X71847011Y-86584306D01*
X70606776Y-86687660D01*
X69311765Y-86429277D01*
X69521571Y-85550778D01*
X73759039Y-84775631D01*
X92207525Y-81520016D01*
X105901779Y-79556312D01*
X111896245Y-78781165D01*
X114066657Y-78781165D01*
X117373948Y-78057695D01*
X127089118Y-76920814D01*
X137786137Y-75783932D01*
X149568367Y-74802080D01*
X160110356Y-74026934D01*
X171530850Y-73251787D01*
X175561610Y-73200111D01*
X179489019Y-72683346D01*
X194940273Y-72218259D01*
X207549323Y-71908200D01*
X217316168Y-71908200D01*
X223258958Y-72011553D01*
G37*
G36*
X149883591Y-96189922D02*
G01*
X145036858Y-95791496D01*
X142175535Y-95092832D01*
X139515748Y-94129066D01*
X138450697Y-93596283D01*
X138222287Y-93482078D01*
X138813477Y-93482078D01*
X139620147Y-93885152D01*
X142252026Y-94839615D01*
X145079245Y-95530014D01*
X149889804Y-95925338D01*
X153385714Y-95793047D01*
X159268558Y-95396688D01*
X164622754Y-94868040D01*
X168449393Y-94406051D01*
X172602629Y-93351334D01*
X179875054Y-90772681D01*
X181983969Y-90109672D01*
X181825838Y-89951544D01*
X180006827Y-89171746D01*
X178168179Y-88712342D01*
X175813285Y-88254488D01*
X173255303Y-88647746D01*
X168884508Y-89244093D01*
X164581931Y-89574822D01*
X159423072Y-90037843D01*
X155451737Y-90368572D01*
X149830892Y-90633156D01*
X146135512Y-91028996D01*
X143704652Y-91488916D01*
X140545154Y-92673858D01*
X138813477Y-93482078D01*
X138222287Y-93482078D01*
X138205751Y-93473810D01*
X140442824Y-92429944D01*
X143633326Y-91233636D01*
X146097258Y-90767514D01*
X149810212Y-90369604D01*
X155434158Y-90105021D01*
X159400323Y-89774292D01*
X164560214Y-89311271D01*
X168856595Y-88980542D01*
X173217050Y-88386264D01*
X175818444Y-87985771D01*
X178226046Y-88453960D01*
X180091568Y-88920598D01*
X181976724Y-89728302D01*
X182480052Y-90231629D01*
X179958758Y-91023829D01*
X172679099Y-93604551D01*
X168497960Y-94666501D01*
X164651683Y-95130554D01*
X159290254Y-95660239D01*
X153399139Y-96057630D01*
X149889804Y-96189688D01*
X149883591Y-96189922D01*
G37*
G36*
X177594981Y-96573210D02*
G01*
X180354540Y-96947387D01*
X182459287Y-97929602D01*
X183020553Y-98397324D01*
X180307767Y-99005363D01*
X177033715Y-100081122D01*
X189334795Y-99706946D01*
X197519926Y-99566629D01*
X204366197Y-99511085D01*
X216602970Y-99473083D01*
X223478478Y-99519856D01*
X224951802Y-99625094D01*
X227255333Y-99917419D01*
X230505999Y-100373447D01*
X232330113Y-100771013D01*
X232914766Y-100958100D01*
X232949844Y-101390744D01*
X232400273Y-101484287D01*
X229535478Y-101577830D01*
X226612216Y-101519365D01*
X225138894Y-101449209D01*
X222168859Y-101718147D01*
X216544505Y-102068939D01*
X211645120Y-102326186D01*
X206032461Y-102396345D01*
X199063407Y-102478197D01*
X194701902Y-102618513D01*
X188469512Y-102758830D01*
X173930708Y-103300601D01*
X166886177Y-103664403D01*
X157162736Y-104226643D01*
X142081486Y-105218830D01*
X135070028Y-105516487D01*
X129348413Y-105913362D01*
X124883570Y-106177945D01*
X118897372Y-106740185D01*
X107817945Y-107864664D01*
X100145028Y-108691487D01*
X89958567Y-109915184D01*
X80367422Y-111039664D01*
X75141901Y-111668049D01*
X71801536Y-111502684D01*
X70610911Y-111370393D01*
X70776275Y-110874299D01*
X70710129Y-110378205D01*
X72453799Y-110035012D01*
X80383412Y-108463569D01*
X86717422Y-107798518D01*
X91645286Y-107203205D01*
X100809696Y-105978798D01*
X111786695Y-104557372D01*
X116615340Y-103995132D01*
X123560653Y-103300601D01*
X130539038Y-102606070D01*
X134507788Y-102275341D01*
X138641903Y-101812320D01*
X142875236Y-101481591D01*
X145884872Y-101382372D01*
X151441122Y-101117789D01*
X155012997Y-101051643D01*
X157129664Y-100952424D01*
X157623265Y-98210235D01*
X164264915Y-97695742D01*
X169035676Y-97368336D01*
X172216181Y-96807070D01*
X175022514Y-96479664D01*
X177594981Y-96573210D01*
G37*
G36*
X148479035Y-96756813D02*
G01*
X148327106Y-94550746D01*
X147344218Y-80536097D01*
X147233633Y-80436878D01*
X147020210Y-80299419D01*
X146831588Y-80032252D01*
X146780656Y-79643128D01*
X147047083Y-79643128D01*
X147085839Y-79933033D01*
X147207281Y-80105116D01*
X147394349Y-80226038D01*
X147600536Y-80410523D01*
X148590657Y-94532143D01*
X148731217Y-96565093D01*
X149586461Y-96868951D01*
X149410762Y-95011182D01*
X149223178Y-91604155D01*
X149029392Y-88277226D01*
X148913118Y-85835515D01*
X148758088Y-83207252D01*
X148660938Y-81629570D01*
X148621148Y-80255494D01*
X148760157Y-79992461D01*
X148841805Y-79834331D01*
X148841805Y-79626075D01*
X148776175Y-79390947D01*
X148621664Y-79193027D01*
X148560169Y-79061252D01*
X148513142Y-78521750D01*
X148443895Y-77775542D01*
X148424766Y-77733167D01*
X147525079Y-77610694D01*
X147761768Y-78246314D01*
X147932816Y-78759978D01*
X147898192Y-79094325D01*
X147576250Y-79094325D01*
X147405199Y-79121196D01*
X147233636Y-79225066D01*
X147089456Y-79400249D01*
X147047083Y-79643128D01*
X146780656Y-79643128D01*
X146779912Y-79637444D01*
X146840891Y-79286044D01*
X147058450Y-79021977D01*
X147313214Y-78867465D01*
X147555575Y-78829741D01*
X147659961Y-78829741D01*
X147664089Y-78789434D01*
X147512160Y-78334164D01*
X147274966Y-77697511D01*
X146926150Y-77261878D01*
X148606164Y-77490805D01*
X148703314Y-77706812D01*
X148776178Y-78497978D01*
X148819588Y-78992005D01*
X148848525Y-79054017D01*
X149016991Y-79269508D01*
X149106391Y-79589902D01*
X149106391Y-79898410D01*
X148994253Y-80114934D01*
X148887800Y-80316989D01*
X148925524Y-81617168D01*
X149022158Y-83191749D01*
X149177188Y-85821562D01*
X149293459Y-88263275D01*
X149487245Y-91589685D01*
X149674316Y-94991028D01*
X149869653Y-97050333D01*
X149889285Y-97257039D01*
X149586461Y-97149625D01*
X148479035Y-96756813D01*
G37*
G36*
X147720419Y-96595081D02*
G01*
X148117294Y-96843128D01*
X148274390Y-97281344D01*
X148307463Y-97736096D01*
X148257137Y-98069932D01*
X147964812Y-98584427D01*
X147649100Y-98911831D01*
X147836187Y-99250929D01*
X148081742Y-100151295D01*
X148175285Y-101145202D01*
X146631804Y-101238746D01*
X146538260Y-100934729D01*
X146374557Y-100782718D01*
X146105616Y-101075045D01*
X145918529Y-101238746D01*
X144620600Y-101367370D01*
X142726329Y-101531073D01*
X140457879Y-101998793D01*
X139054714Y-102092339D01*
X138698077Y-101846785D01*
X138370671Y-101683082D01*
X138095885Y-102045566D01*
X137961413Y-102583445D01*
X137867870Y-103097941D01*
X137733401Y-103384419D01*
X137370916Y-103384419D01*
X137172135Y-103302570D01*
X137043510Y-102752996D01*
X136973351Y-102285273D01*
X136973351Y-101992948D01*
X136412085Y-102063105D01*
X136166533Y-102209269D01*
X135985291Y-102372972D01*
X136002832Y-102811461D01*
X135874205Y-103121314D01*
X135406485Y-103635807D01*
X134751673Y-103682580D01*
X134611357Y-103261631D01*
X134891990Y-102092326D01*
X135546802Y-101156881D01*
X136108065Y-100095738D01*
X136459091Y-100034651D01*
X136731942Y-100183479D01*
X136897307Y-100315771D01*
X137261109Y-100257893D01*
X137418205Y-99836213D01*
X137624911Y-99596435D01*
X137872958Y-99596435D01*
X138112736Y-99703922D01*
X138344247Y-99902359D01*
X138460002Y-99976773D01*
X139137997Y-99894091D01*
X139625822Y-99811409D01*
X139857333Y-99480679D01*
X140088843Y-99265705D01*
X140576669Y-98951513D01*
X141031421Y-98777880D01*
X141610197Y-98620784D01*
X141990536Y-98505028D01*
X142370874Y-98587711D01*
X142478361Y-98381005D01*
X142842163Y-98281786D01*
X143462281Y-98033739D01*
X144322177Y-97810497D01*
X144826538Y-97752620D01*
X145372242Y-97727828D01*
X145578947Y-97388831D01*
X145926213Y-96884469D01*
X146653817Y-96570276D01*
X146951473Y-96462789D01*
X147720419Y-96595081D01*
G37*
G36*
X134658164Y-110568385D02*
G01*
X134673665Y-110314123D01*
X134938768Y-110314123D01*
X139856296Y-110502226D01*
X159605994Y-109397384D01*
X160811089Y-109269225D01*
X161068439Y-109455262D01*
X162068895Y-109449573D01*
X162314357Y-109198428D01*
X163209910Y-109093008D01*
X165098683Y-109075439D01*
X167289248Y-109022729D01*
X168470570Y-108872350D01*
X169127896Y-108743160D01*
X169959368Y-108668230D01*
X170258058Y-108557642D01*
X170323688Y-108305978D01*
X169757303Y-108328171D01*
X169068973Y-108328171D01*
X168539807Y-108409303D01*
X166866007Y-108575186D01*
X166860848Y-108575716D01*
X166097586Y-108592252D01*
X164264624Y-108699739D01*
X161196077Y-108889908D01*
X159818383Y-108939518D01*
X158926449Y-108931263D01*
X156746735Y-109030481D01*
X154186169Y-109129700D01*
X151796134Y-109327103D01*
X151035457Y-109451645D01*
X149369924Y-109357594D01*
X146826929Y-109567400D01*
X142802368Y-109731214D01*
X140640224Y-109830949D01*
X138751451Y-109947739D01*
X136169181Y-110046958D01*
X134941864Y-110266580D01*
X134938768Y-110314123D01*
X134673665Y-110314123D01*
X134690203Y-110042835D01*
X136140760Y-109782903D01*
X138738018Y-109683685D01*
X140626275Y-109566379D01*
X142791001Y-109467160D01*
X146810911Y-109303346D01*
X149366310Y-109092505D01*
X151021506Y-109185525D01*
X151764096Y-109064602D01*
X154169635Y-108865130D01*
X156735371Y-108765911D01*
X158921282Y-108666692D01*
X159815285Y-108674947D01*
X161182644Y-108625338D01*
X164249122Y-108435169D01*
X166087254Y-108327682D01*
X166844314Y-108311145D01*
X168506744Y-108146815D01*
X169048831Y-108063614D01*
X169752146Y-108063614D01*
X170670435Y-108027441D01*
X170479234Y-108758156D01*
X170018280Y-108928688D01*
X169165618Y-109005687D01*
X168512946Y-109133843D01*
X167309402Y-109286807D01*
X165103335Y-109340033D01*
X163226963Y-109357099D01*
X162438380Y-109450634D01*
X162181033Y-109713667D01*
X160983690Y-109719858D01*
X160738226Y-109543125D01*
X159627701Y-109660946D01*
X139858365Y-110766823D01*
X139856296Y-110766744D01*
X134658164Y-110568385D01*
G37*
G36*
X144414169Y-97573293D02*
G01*
X142981181Y-96634332D01*
X142098031Y-96159942D01*
X141035562Y-95694336D01*
X139859926Y-95351206D01*
X138269325Y-95054581D01*
X136051370Y-94607581D01*
X133484086Y-94032422D01*
X133415874Y-93333242D01*
X133431881Y-93336867D01*
X133360109Y-92474902D01*
X133625152Y-92474902D01*
X133680907Y-93144628D01*
X135166604Y-93574576D01*
X136821800Y-94104262D01*
X136752553Y-94359542D01*
X133715015Y-93672247D01*
X133728958Y-93816424D01*
X136106076Y-94349207D01*
X138319892Y-94795176D01*
X139920827Y-95093864D01*
X141126438Y-95445265D01*
X142213712Y-95922237D01*
X143116499Y-96406962D01*
X143392968Y-96588347D01*
X143462215Y-96436418D01*
X145755099Y-97195029D01*
X148244868Y-101009783D01*
X153173767Y-100790674D01*
X153176413Y-100790674D01*
X154253868Y-100779297D01*
X155018162Y-100136960D01*
X155458444Y-99670838D01*
X155912165Y-99741635D01*
X156555536Y-99951442D01*
X156521429Y-100737956D01*
X156993234Y-100800485D01*
X156952927Y-99383516D01*
X156921921Y-98285392D01*
X155617091Y-98296770D01*
X155541645Y-97843052D01*
X155456894Y-97567615D01*
X155114279Y-97081856D01*
X154700352Y-96701001D01*
X154248182Y-96403861D01*
X153461668Y-96204392D01*
X152858087Y-96259168D01*
X152160455Y-96513933D01*
X151673146Y-96934578D01*
X151282472Y-97417236D01*
X151111425Y-97622910D01*
X150316640Y-97414654D01*
X149160638Y-97110796D01*
X145566025Y-96252451D01*
X141941958Y-95449916D01*
X140224233Y-94968809D01*
X137522589Y-94098576D01*
X134677802Y-92987532D01*
X133625152Y-92474902D01*
X133360109Y-92474902D01*
X133323363Y-92033587D01*
X134784265Y-92744647D01*
X137611483Y-93849489D01*
X140300724Y-94715584D01*
X142006046Y-95193593D01*
X145624948Y-95995093D01*
X149224728Y-96853957D01*
X150383831Y-97158331D01*
X151015833Y-97324212D01*
X151078362Y-97249282D01*
X151482471Y-96749568D01*
X152024557Y-96281899D01*
X152800220Y-95998710D01*
X153482866Y-95936700D01*
X154356714Y-96157875D01*
X154863661Y-96492221D01*
X155314278Y-96906149D01*
X155697201Y-97449785D01*
X155799521Y-97782065D01*
X155840862Y-98030112D01*
X157178765Y-98018232D01*
X157217521Y-99375772D01*
X157266096Y-101104348D01*
X156246521Y-100967921D01*
X156282177Y-100140582D01*
X155850162Y-99999506D01*
X155555091Y-99953514D01*
X155200073Y-100329717D01*
X154351031Y-101043369D01*
X153181075Y-101055249D01*
X148244868Y-101274390D01*
X148105933Y-101280558D01*
X145584639Y-97417228D01*
X144521656Y-97065311D01*
X145573788Y-97694215D01*
X145214119Y-98119512D01*
X145166573Y-98087047D01*
X144613977Y-97709725D01*
X145083885Y-97709725D01*
X145166573Y-97766058D01*
X145170701Y-97761401D01*
X145083885Y-97709725D01*
X144613977Y-97709725D01*
X144414169Y-97573293D01*
G37*
G36*
X73032468Y-86734168D02*
G01*
X71853212Y-86734168D01*
X70597991Y-86839071D01*
X69129864Y-86546066D01*
X69185656Y-86312489D01*
X69493666Y-86312489D01*
X70615561Y-86536247D01*
X71840809Y-86434445D01*
X73038669Y-86434445D01*
X75357907Y-86537281D01*
X78289511Y-86280449D01*
X83035475Y-85609689D01*
X89546190Y-84317778D01*
X100349665Y-82715292D01*
X108258224Y-81474541D01*
X117614243Y-80337659D01*
X124074315Y-79562513D01*
X129966462Y-78890719D01*
X132344095Y-78631821D01*
X134308832Y-78425115D01*
X143506720Y-77546615D01*
X147300803Y-77131137D01*
X148388076Y-77338359D01*
X171314341Y-75582394D01*
X184960020Y-74858924D01*
X202534140Y-74238807D01*
X206981416Y-74238807D01*
X214422303Y-74290484D01*
X221191401Y-74238807D01*
X225999375Y-74238807D01*
X228679831Y-74289967D01*
X230359317Y-74137521D01*
X231055914Y-73905494D01*
X230758774Y-73575282D01*
X229355244Y-72723137D01*
X227273198Y-72367604D01*
X223253807Y-72161415D01*
X217314633Y-72058062D01*
X207552955Y-72058062D01*
X207549331Y-72058062D01*
X194944406Y-72368120D01*
X179500904Y-72833208D01*
X175572463Y-73349972D01*
X171537049Y-73401649D01*
X160120693Y-74176795D01*
X149580252Y-74951425D01*
X137800091Y-75933277D01*
X127105654Y-77069642D01*
X117398753Y-78206007D01*
X114082675Y-78931027D01*
X111906064Y-78931027D01*
X105921932Y-79705140D01*
X92231295Y-81668328D01*
X73785394Y-84923426D01*
X69644561Y-85680486D01*
X69493666Y-86312489D01*
X69185656Y-86312489D01*
X69398581Y-85421070D01*
X73732684Y-84627837D01*
X92183755Y-81371705D01*
X105881626Y-79407484D01*
X111886427Y-78631304D01*
X114050636Y-78631304D01*
X117349144Y-77909384D01*
X127072581Y-76771986D01*
X137772186Y-75634588D01*
X149556479Y-74652735D01*
X160100022Y-73877072D01*
X171524648Y-73101926D01*
X175550760Y-73050249D01*
X179477134Y-72533485D01*
X194936138Y-72068397D01*
X207545706Y-71758338D01*
X207547256Y-71758338D01*
X217317718Y-71758338D01*
X223264125Y-71861691D01*
X227306255Y-72068914D01*
X229461681Y-72436850D01*
X230952028Y-73341704D01*
X231585065Y-74045020D01*
X230421311Y-74433110D01*
X228690150Y-74590723D01*
X225996258Y-74538530D01*
X221192417Y-74538530D01*
X214422288Y-74590207D01*
X206980365Y-74538530D01*
X202539292Y-74538530D01*
X184973440Y-75158648D01*
X171333963Y-75882118D01*
X148371540Y-77640150D01*
X147288402Y-77433961D01*
X143537727Y-77845305D01*
X134338804Y-78723805D01*
X132376133Y-78930510D01*
X129999534Y-79188376D01*
X124109454Y-79860169D01*
X117650417Y-80635316D01*
X108299566Y-81772197D01*
X100395138Y-83011915D01*
X89597866Y-84613368D01*
X83086118Y-85905278D01*
X78323618Y-86578105D01*
X75364109Y-86838038D01*
X75357907Y-86837762D01*
X73032468Y-86734168D01*
G37*
G36*
X71791189Y-111634458D02*
G01*
X70433650Y-111483560D01*
X70509034Y-111257220D01*
X70788182Y-111257220D01*
X71811892Y-111370906D01*
X75137270Y-111535239D01*
X80351939Y-110908404D01*
X89943086Y-109783925D01*
X100130060Y-108560227D01*
X107804012Y-107732885D01*
X118884471Y-106608406D01*
X124873254Y-106046167D01*
X129340164Y-105781583D01*
X135062813Y-105384192D01*
X142074271Y-105086536D01*
X157154487Y-104094349D01*
X166878959Y-103532109D01*
X173925041Y-103168307D01*
X188465755Y-102626737D01*
X194698449Y-102486177D01*
X199060457Y-102346135D01*
X206031091Y-102263969D01*
X211641083Y-102193690D01*
X216536909Y-101936857D01*
X222158789Y-101585974D01*
X225135867Y-101316740D01*
X226616915Y-101387021D01*
X229534565Y-101445414D01*
X232387104Y-101352397D01*
X232808268Y-101280566D01*
X232790171Y-101057324D01*
X232295627Y-100898677D01*
X230482816Y-100503871D01*
X227238053Y-100048600D01*
X224938970Y-99756629D01*
X223473427Y-99652243D01*
X216602528Y-99605216D01*
X204367100Y-99643456D01*
X197521522Y-99698752D01*
X189338041Y-99839312D01*
X177037501Y-100213448D01*
X176992543Y-99955583D01*
X180272445Y-98877612D01*
X182729660Y-98327258D01*
X182387561Y-98042005D01*
X180316887Y-97075657D01*
X177583720Y-96705137D01*
X175027803Y-96612117D01*
X172235221Y-96938195D01*
X169051953Y-97499919D01*
X164274467Y-97827547D01*
X157735329Y-98334494D01*
X157241302Y-101079546D01*
X155017148Y-101183932D01*
X151445273Y-101250078D01*
X145890058Y-101514661D01*
X142882489Y-101613880D01*
X138654323Y-101944093D01*
X134520727Y-102407114D01*
X130550942Y-102737843D01*
X123573591Y-103432374D01*
X116629829Y-104126906D01*
X111802734Y-104688627D01*
X100827174Y-106109730D01*
X91661843Y-107334460D01*
X86732428Y-107929772D01*
X80403099Y-108594332D01*
X72479551Y-110164779D01*
X70857945Y-110484139D01*
X70911689Y-110887216D01*
X70788182Y-111257220D01*
X70509034Y-111257220D01*
X70640872Y-110861377D01*
X70562324Y-110272266D01*
X72428360Y-109905363D01*
X80363793Y-108332849D01*
X86702424Y-107667258D01*
X91628739Y-107071946D01*
X100792521Y-105847729D01*
X111770661Y-104426112D01*
X116600857Y-103863354D01*
X123547720Y-103168823D01*
X130527140Y-102474292D01*
X134494856Y-102143562D01*
X138629486Y-101680542D01*
X142867989Y-101349297D01*
X145879691Y-101250078D01*
X151436973Y-100985494D01*
X155008848Y-100919349D01*
X157018028Y-100825297D01*
X157492936Y-98186698D01*
X157511034Y-98086447D01*
X164255324Y-97563998D01*
X169019375Y-97236886D01*
X172196960Y-96676197D01*
X175017458Y-96347018D01*
X177606437Y-96441069D01*
X180392312Y-96818823D01*
X182530685Y-97817212D01*
X183311515Y-98467817D01*
X180342703Y-99132895D01*
X177944400Y-99920959D01*
X189331818Y-99574728D01*
X197518400Y-99434168D01*
X204365528Y-99378873D01*
X216603023Y-99340633D01*
X223483740Y-99387660D01*
X224964788Y-99493596D01*
X227272656Y-99786085D01*
X230529306Y-100242904D01*
X232364334Y-100642880D01*
X233039228Y-100858886D01*
X233091423Y-101500710D01*
X232413428Y-101616465D01*
X229536084Y-101709998D01*
X226607580Y-101651604D01*
X225141519Y-101581841D01*
X222178910Y-101850042D01*
X216551863Y-102200924D01*
X211649319Y-102458274D01*
X206034160Y-102528552D01*
X199066109Y-102610719D01*
X194705651Y-102750760D01*
X188473473Y-102891320D01*
X173936375Y-103432890D01*
X166893395Y-103796692D01*
X157170991Y-104358932D01*
X142088707Y-105351119D01*
X135077249Y-105648776D01*
X129356668Y-106045135D01*
X124893891Y-106309718D01*
X118910278Y-106871958D01*
X107831883Y-107996437D01*
X100160001Y-108822741D01*
X89974058Y-110046439D01*
X80382913Y-111170918D01*
X75146540Y-111800854D01*
X75137270Y-111800394D01*
X71791189Y-111634458D01*
G37*
G36*
X134658680Y-103822018D02*
G01*
X134473678Y-103267531D01*
X134476534Y-103255641D01*
X134748586Y-103255641D01*
X134844704Y-103543478D01*
X135344414Y-103507820D01*
X135760927Y-103049451D01*
X135869445Y-102789519D01*
X135850845Y-102316163D01*
X136087523Y-102102221D01*
X136368127Y-101935306D01*
X137105550Y-101843324D01*
X137105550Y-102275338D01*
X137173762Y-102728024D01*
X137285384Y-103206031D01*
X137397004Y-103252024D01*
X137649186Y-103252024D01*
X137740653Y-103057203D01*
X137832119Y-102555423D01*
X137974230Y-101986985D01*
X138331830Y-101515696D01*
X138765397Y-101732736D01*
X139091991Y-101957529D01*
X140440228Y-101867610D01*
X142707274Y-101399940D01*
X144608450Y-101235608D01*
X145863155Y-101111068D01*
X146013015Y-100980327D01*
X146367001Y-100595337D01*
X146654320Y-100861987D01*
X146727702Y-101100215D01*
X148030463Y-101021668D01*
X147950881Y-100175208D01*
X147712653Y-99300842D01*
X147486310Y-98890016D01*
X147857864Y-98504510D01*
X148130200Y-98025984D01*
X148174642Y-97730913D01*
X148143636Y-97308718D01*
X148008243Y-96930961D01*
X147672347Y-96721155D01*
X146963345Y-96599198D01*
X146702376Y-96693249D01*
X146013531Y-96990905D01*
X145690035Y-97460644D01*
X145448706Y-97857003D01*
X144836857Y-97884393D01*
X144346449Y-97940720D01*
X143503606Y-98159827D01*
X142884005Y-98407357D01*
X142568780Y-98493657D01*
X142441656Y-98738603D01*
X141996203Y-98641450D01*
X141646871Y-98747905D01*
X141072231Y-98903967D01*
X140636597Y-99070366D01*
X140170475Y-99370605D01*
X139957570Y-99568010D01*
X139702287Y-99932844D01*
X139157102Y-100024829D01*
X138428464Y-100113714D01*
X138265165Y-100008809D01*
X138041407Y-99816573D01*
X137844520Y-99728724D01*
X137685358Y-99728724D01*
X137533944Y-99904423D01*
X137358245Y-100376231D01*
X136860082Y-100455812D01*
X136658547Y-100294064D01*
X136436336Y-100173142D01*
X136194491Y-100214999D01*
X135659641Y-101225789D01*
X135014720Y-102147698D01*
X134748586Y-103255641D01*
X134476534Y-103255641D01*
X134769268Y-102037115D01*
X135433827Y-101087819D01*
X136021388Y-99976776D01*
X136481826Y-99896160D01*
X136805319Y-100072894D01*
X136934510Y-100175729D01*
X137163954Y-100139555D01*
X137302447Y-99768004D01*
X137564446Y-99464146D01*
X137901377Y-99464146D01*
X138184563Y-99591270D01*
X138423310Y-99795909D01*
X138491522Y-99839833D01*
X139118873Y-99763352D01*
X139549339Y-99689973D01*
X139757077Y-99393348D01*
X140007193Y-99160806D01*
X140516722Y-98832659D01*
X140990593Y-98651793D01*
X141573505Y-98493662D01*
X141984850Y-98368604D01*
X142300075Y-98436819D01*
X142387924Y-98268869D01*
X142800304Y-98156215D01*
X143420937Y-97907652D01*
X144297885Y-97680275D01*
X144816201Y-97620846D01*
X145295759Y-97598621D01*
X145467841Y-97316986D01*
X145838877Y-96778000D01*
X146605240Y-96447271D01*
X146939586Y-96326346D01*
X147768478Y-96468980D01*
X148226331Y-96755267D01*
X148405131Y-97253943D01*
X148440271Y-97741253D01*
X148384462Y-98113839D01*
X148071817Y-98664194D01*
X147811885Y-98933429D01*
X147959681Y-99201113D01*
X148212377Y-100127670D01*
X148319864Y-101269205D01*
X146535996Y-101377207D01*
X146422307Y-101007719D01*
X146382000Y-100969998D01*
X146198030Y-101169986D01*
X145973756Y-101366354D01*
X144632752Y-101499164D01*
X142745530Y-101662460D01*
X140475899Y-102130132D01*
X139017590Y-102227285D01*
X138630534Y-101961151D01*
X138409877Y-101850563D01*
X138217638Y-102103777D01*
X138091033Y-102611240D01*
X137994915Y-103138340D01*
X137817665Y-103516612D01*
X137344826Y-103516612D01*
X137059054Y-103398788D01*
X136913327Y-102778155D01*
X136840980Y-102294981D01*
X136840980Y-102143052D01*
X136455990Y-102191111D01*
X136245667Y-102316169D01*
X136120093Y-102429855D01*
X136136100Y-102827764D01*
X136129909Y-102848428D01*
X135995033Y-103175538D01*
X135986248Y-103194667D01*
X135468967Y-103764141D01*
X134844704Y-103808731D01*
X134658680Y-103822018D01*
G37*
D12*
%TO.C,J4*%
X65966700Y-94679000D02*
X73706700Y-94679000D01*
X65966700Y-94679000D02*
X65966700Y-92079000D01*
X73706700Y-94679000D02*
X73706700Y-89479000D01*
X65966700Y-92079000D02*
X68566700Y-92079000D01*
X68566700Y-92079000D02*
X68566700Y-89479000D01*
X65966700Y-90809000D02*
X65966700Y-89479000D01*
X65966700Y-89479000D02*
X67296700Y-89479000D01*
X68566700Y-89479000D02*
X73706700Y-89479000D01*
%TD*%
M02*
