%TF.GenerationSoftware,KiCad,Pcbnew,7.0.1-0*%
%TF.CreationDate,2023-03-26T18:30:06-04:00*%
%TF.ProjectId,WrightFlyer,57726967-6874-4466-9c79-65722e6b6963,v02*%
%TF.SameCoordinates,Original*%
%TF.FileFunction,Copper,L2,Bot*%
%TF.FilePolarity,Positive*%
%FSLAX46Y46*%
G04 Gerber Fmt 4.6, Leading zero omitted, Abs format (unit mm)*
G04 Created by KiCad (PCBNEW 7.0.1-0) date 2023-03-26 18:30:06*
%MOMM*%
%LPD*%
G01*
G04 APERTURE LIST*
G04 Aperture macros list*
%AMRoundRect*
0 Rectangle with rounded corners*
0 $1 Rounding radius*
0 $2 $3 $4 $5 $6 $7 $8 $9 X,Y pos of 4 corners*
0 Add a 4 corners polygon primitive as box body*
4,1,4,$2,$3,$4,$5,$6,$7,$8,$9,$2,$3,0*
0 Add four circle primitives for the rounded corners*
1,1,$1+$1,$2,$3*
1,1,$1+$1,$4,$5*
1,1,$1+$1,$6,$7*
1,1,$1+$1,$8,$9*
0 Add four rect primitives between the rounded corners*
20,1,$1+$1,$2,$3,$4,$5,0*
20,1,$1+$1,$4,$5,$6,$7,0*
20,1,$1+$1,$6,$7,$8,$9,0*
20,1,$1+$1,$8,$9,$2,$3,0*%
%AMFreePoly0*
4,1,13,0.900000,0.500000,2.600000,0.500000,2.600000,-0.500000,0.900000,-0.500000,0.400000,-1.000000,-0.400000,-1.000000,-0.900000,-0.500000,-2.600000,-0.500000,-2.600000,0.500000,-0.900000,0.500000,-0.400000,1.000000,0.400000,1.000000,0.900000,0.500000,0.900000,0.500000,$1*%
G04 Aperture macros list end*
%ADD10C,0.300000*%
%TA.AperFunction,NonConductor*%
%ADD11C,0.300000*%
%TD*%
%ADD12C,0.150000*%
%TA.AperFunction,NonConductor*%
%ADD13C,0.150000*%
%TD*%
%TA.AperFunction,ComponentPad*%
%ADD14R,1.700000X1.700000*%
%TD*%
%TA.AperFunction,ComponentPad*%
%ADD15O,1.700000X1.700000*%
%TD*%
%TA.AperFunction,ComponentPad*%
%ADD16R,1.524000X1.524000*%
%TD*%
%TA.AperFunction,ComponentPad*%
%ADD17C,1.524000*%
%TD*%
%TA.AperFunction,SMDPad,CuDef*%
%ADD18R,1.200000X2.500000*%
%TD*%
%TA.AperFunction,SMDPad,CuDef*%
%ADD19RoundRect,0.250000X0.350000X0.450000X-0.350000X0.450000X-0.350000X-0.450000X0.350000X-0.450000X0*%
%TD*%
%TA.AperFunction,SMDPad,CuDef*%
%ADD20RoundRect,0.250000X0.337500X0.475000X-0.337500X0.475000X-0.337500X-0.475000X0.337500X-0.475000X0*%
%TD*%
%TA.AperFunction,SMDPad,CuDef*%
%ADD21RoundRect,0.381000X0.381000X-0.762000X0.381000X0.762000X-0.381000X0.762000X-0.381000X-0.762000X0*%
%TD*%
%TA.AperFunction,SMDPad,CuDef*%
%ADD22RoundRect,0.250000X-0.337500X-0.475000X0.337500X-0.475000X0.337500X0.475000X-0.337500X0.475000X0*%
%TD*%
%TA.AperFunction,SMDPad,CuDef*%
%ADD23RoundRect,0.250000X-0.350000X-0.450000X0.350000X-0.450000X0.350000X0.450000X-0.350000X0.450000X0*%
%TD*%
%TA.AperFunction,SMDPad,CuDef*%
%ADD24R,2.000000X1.100000*%
%TD*%
%TA.AperFunction,SMDPad,CuDef*%
%ADD25R,0.800000X0.800000*%
%TD*%
%TA.AperFunction,SMDPad,CuDef*%
%ADD26R,1.400000X0.800000*%
%TD*%
%TA.AperFunction,ComponentPad*%
%ADD27C,2.000000*%
%TD*%
%TA.AperFunction,SMDPad,CuDef*%
%ADD28R,1.500000X0.900000*%
%TD*%
%TA.AperFunction,SMDPad,CuDef*%
%ADD29R,0.900000X1.500000*%
%TD*%
%TA.AperFunction,SMDPad,CuDef*%
%ADD30R,0.900000X0.900000*%
%TD*%
%TA.AperFunction,SMDPad,CuDef*%
%ADD31R,2.500000X1.200000*%
%TD*%
%TA.AperFunction,SMDPad,CuDef*%
%ADD32RoundRect,0.150000X-0.587500X-0.150000X0.587500X-0.150000X0.587500X0.150000X-0.587500X0.150000X0*%
%TD*%
%TA.AperFunction,SMDPad,CuDef*%
%ADD33R,1.500000X0.700000*%
%TD*%
%TA.AperFunction,SMDPad,CuDef*%
%ADD34FreePoly0,180.000000*%
%TD*%
%TA.AperFunction,ViaPad*%
%ADD35C,0.800000*%
%TD*%
%TA.AperFunction,Conductor*%
%ADD36C,0.250000*%
%TD*%
G04 APERTURE END LIST*
D10*
D11*
X83324847Y-64991216D02*
X82967704Y-65991216D01*
X82967704Y-65991216D02*
X82610561Y-64991216D01*
X81753418Y-64491216D02*
X81610561Y-64491216D01*
X81610561Y-64491216D02*
X81467704Y-64562645D01*
X81467704Y-64562645D02*
X81396276Y-64634073D01*
X81396276Y-64634073D02*
X81324847Y-64776930D01*
X81324847Y-64776930D02*
X81253418Y-65062645D01*
X81253418Y-65062645D02*
X81253418Y-65419788D01*
X81253418Y-65419788D02*
X81324847Y-65705502D01*
X81324847Y-65705502D02*
X81396276Y-65848359D01*
X81396276Y-65848359D02*
X81467704Y-65919788D01*
X81467704Y-65919788D02*
X81610561Y-65991216D01*
X81610561Y-65991216D02*
X81753418Y-65991216D01*
X81753418Y-65991216D02*
X81896276Y-65919788D01*
X81896276Y-65919788D02*
X81967704Y-65848359D01*
X81967704Y-65848359D02*
X82039133Y-65705502D01*
X82039133Y-65705502D02*
X82110561Y-65419788D01*
X82110561Y-65419788D02*
X82110561Y-65062645D01*
X82110561Y-65062645D02*
X82039133Y-64776930D01*
X82039133Y-64776930D02*
X81967704Y-64634073D01*
X81967704Y-64634073D02*
X81896276Y-64562645D01*
X81896276Y-64562645D02*
X81753418Y-64491216D01*
X80681990Y-64634073D02*
X80610562Y-64562645D01*
X80610562Y-64562645D02*
X80467705Y-64491216D01*
X80467705Y-64491216D02*
X80110562Y-64491216D01*
X80110562Y-64491216D02*
X79967705Y-64562645D01*
X79967705Y-64562645D02*
X79896276Y-64634073D01*
X79896276Y-64634073D02*
X79824847Y-64776930D01*
X79824847Y-64776930D02*
X79824847Y-64919788D01*
X79824847Y-64919788D02*
X79896276Y-65134073D01*
X79896276Y-65134073D02*
X80753419Y-65991216D01*
X80753419Y-65991216D02*
X79824847Y-65991216D01*
D12*
D13*
X173032713Y-112479867D02*
X172461285Y-112479867D01*
X172746999Y-113479867D02*
X172746999Y-112479867D01*
X172127951Y-113479867D02*
X172127951Y-112479867D01*
X171699380Y-113479867D02*
X171699380Y-112956057D01*
X171699380Y-112956057D02*
X171746999Y-112860819D01*
X171746999Y-112860819D02*
X171842237Y-112813200D01*
X171842237Y-112813200D02*
X171985094Y-112813200D01*
X171985094Y-112813200D02*
X172080332Y-112860819D01*
X172080332Y-112860819D02*
X172127951Y-112908438D01*
X170842237Y-113432248D02*
X170937475Y-113479867D01*
X170937475Y-113479867D02*
X171127951Y-113479867D01*
X171127951Y-113479867D02*
X171223189Y-113432248D01*
X171223189Y-113432248D02*
X171270808Y-113337009D01*
X171270808Y-113337009D02*
X171270808Y-112956057D01*
X171270808Y-112956057D02*
X171223189Y-112860819D01*
X171223189Y-112860819D02*
X171127951Y-112813200D01*
X171127951Y-112813200D02*
X170937475Y-112813200D01*
X170937475Y-112813200D02*
X170842237Y-112860819D01*
X170842237Y-112860819D02*
X170794618Y-112956057D01*
X170794618Y-112956057D02*
X170794618Y-113051295D01*
X170794618Y-113051295D02*
X171270808Y-113146533D01*
X169175570Y-113479867D02*
X169175570Y-112479867D01*
X169175570Y-113432248D02*
X169270808Y-113479867D01*
X169270808Y-113479867D02*
X169461284Y-113479867D01*
X169461284Y-113479867D02*
X169556522Y-113432248D01*
X169556522Y-113432248D02*
X169604141Y-113384628D01*
X169604141Y-113384628D02*
X169651760Y-113289390D01*
X169651760Y-113289390D02*
X169651760Y-113003676D01*
X169651760Y-113003676D02*
X169604141Y-112908438D01*
X169604141Y-112908438D02*
X169556522Y-112860819D01*
X169556522Y-112860819D02*
X169461284Y-112813200D01*
X169461284Y-112813200D02*
X169270808Y-112813200D01*
X169270808Y-112813200D02*
X169175570Y-112860819D01*
X168270808Y-112813200D02*
X168270808Y-113479867D01*
X168699379Y-112813200D02*
X168699379Y-113337009D01*
X168699379Y-113337009D02*
X168651760Y-113432248D01*
X168651760Y-113432248D02*
X168556522Y-113479867D01*
X168556522Y-113479867D02*
X168413665Y-113479867D01*
X168413665Y-113479867D02*
X168318427Y-113432248D01*
X168318427Y-113432248D02*
X168270808Y-113384628D01*
X167794617Y-113479867D02*
X167794617Y-112813200D01*
X167794617Y-113003676D02*
X167746998Y-112908438D01*
X167746998Y-112908438D02*
X167699379Y-112860819D01*
X167699379Y-112860819D02*
X167604141Y-112813200D01*
X167604141Y-112813200D02*
X167508903Y-112813200D01*
X166746998Y-113479867D02*
X166746998Y-112956057D01*
X166746998Y-112956057D02*
X166794617Y-112860819D01*
X166794617Y-112860819D02*
X166889855Y-112813200D01*
X166889855Y-112813200D02*
X167080331Y-112813200D01*
X167080331Y-112813200D02*
X167175569Y-112860819D01*
X166746998Y-113432248D02*
X166842236Y-113479867D01*
X166842236Y-113479867D02*
X167080331Y-113479867D01*
X167080331Y-113479867D02*
X167175569Y-113432248D01*
X167175569Y-113432248D02*
X167223188Y-113337009D01*
X167223188Y-113337009D02*
X167223188Y-113241771D01*
X167223188Y-113241771D02*
X167175569Y-113146533D01*
X167175569Y-113146533D02*
X167080331Y-113098914D01*
X167080331Y-113098914D02*
X166842236Y-113098914D01*
X166842236Y-113098914D02*
X166746998Y-113051295D01*
X166413664Y-112813200D02*
X166032712Y-112813200D01*
X166270807Y-112479867D02*
X166270807Y-113337009D01*
X166270807Y-113337009D02*
X166223188Y-113432248D01*
X166223188Y-113432248D02*
X166127950Y-113479867D01*
X166127950Y-113479867D02*
X166032712Y-113479867D01*
X165699378Y-113479867D02*
X165699378Y-112813200D01*
X165699378Y-112479867D02*
X165746997Y-112527486D01*
X165746997Y-112527486D02*
X165699378Y-112575105D01*
X165699378Y-112575105D02*
X165651759Y-112527486D01*
X165651759Y-112527486D02*
X165699378Y-112479867D01*
X165699378Y-112479867D02*
X165699378Y-112575105D01*
X165080331Y-113479867D02*
X165175569Y-113432248D01*
X165175569Y-113432248D02*
X165223188Y-113384628D01*
X165223188Y-113384628D02*
X165270807Y-113289390D01*
X165270807Y-113289390D02*
X165270807Y-113003676D01*
X165270807Y-113003676D02*
X165223188Y-112908438D01*
X165223188Y-112908438D02*
X165175569Y-112860819D01*
X165175569Y-112860819D02*
X165080331Y-112813200D01*
X165080331Y-112813200D02*
X164937474Y-112813200D01*
X164937474Y-112813200D02*
X164842236Y-112860819D01*
X164842236Y-112860819D02*
X164794617Y-112908438D01*
X164794617Y-112908438D02*
X164746998Y-113003676D01*
X164746998Y-113003676D02*
X164746998Y-113289390D01*
X164746998Y-113289390D02*
X164794617Y-113384628D01*
X164794617Y-113384628D02*
X164842236Y-113432248D01*
X164842236Y-113432248D02*
X164937474Y-113479867D01*
X164937474Y-113479867D02*
X165080331Y-113479867D01*
X164318426Y-112813200D02*
X164318426Y-113479867D01*
X164318426Y-112908438D02*
X164270807Y-112860819D01*
X164270807Y-112860819D02*
X164175569Y-112813200D01*
X164175569Y-112813200D02*
X164032712Y-112813200D01*
X164032712Y-112813200D02*
X163937474Y-112860819D01*
X163937474Y-112860819D02*
X163889855Y-112956057D01*
X163889855Y-112956057D02*
X163889855Y-113479867D01*
X162651759Y-113479867D02*
X162651759Y-112813200D01*
X162651759Y-112479867D02*
X162699378Y-112527486D01*
X162699378Y-112527486D02*
X162651759Y-112575105D01*
X162651759Y-112575105D02*
X162604140Y-112527486D01*
X162604140Y-112527486D02*
X162651759Y-112479867D01*
X162651759Y-112479867D02*
X162651759Y-112575105D01*
X162175569Y-112813200D02*
X162175569Y-113479867D01*
X162175569Y-112908438D02*
X162127950Y-112860819D01*
X162127950Y-112860819D02*
X162032712Y-112813200D01*
X162032712Y-112813200D02*
X161889855Y-112813200D01*
X161889855Y-112813200D02*
X161794617Y-112860819D01*
X161794617Y-112860819D02*
X161746998Y-112956057D01*
X161746998Y-112956057D02*
X161746998Y-113479867D01*
X160556521Y-113432248D02*
X160461283Y-113479867D01*
X160461283Y-113479867D02*
X160270807Y-113479867D01*
X160270807Y-113479867D02*
X160175569Y-113432248D01*
X160175569Y-113432248D02*
X160127950Y-113337009D01*
X160127950Y-113337009D02*
X160127950Y-113289390D01*
X160127950Y-113289390D02*
X160175569Y-113194152D01*
X160175569Y-113194152D02*
X160270807Y-113146533D01*
X160270807Y-113146533D02*
X160413664Y-113146533D01*
X160413664Y-113146533D02*
X160508902Y-113098914D01*
X160508902Y-113098914D02*
X160556521Y-113003676D01*
X160556521Y-113003676D02*
X160556521Y-112956057D01*
X160556521Y-112956057D02*
X160508902Y-112860819D01*
X160508902Y-112860819D02*
X160413664Y-112813200D01*
X160413664Y-112813200D02*
X160270807Y-112813200D01*
X160270807Y-112813200D02*
X160175569Y-112860819D01*
X159318426Y-113432248D02*
X159413664Y-113479867D01*
X159413664Y-113479867D02*
X159604140Y-113479867D01*
X159604140Y-113479867D02*
X159699378Y-113432248D01*
X159699378Y-113432248D02*
X159746997Y-113337009D01*
X159746997Y-113337009D02*
X159746997Y-112956057D01*
X159746997Y-112956057D02*
X159699378Y-112860819D01*
X159699378Y-112860819D02*
X159604140Y-112813200D01*
X159604140Y-112813200D02*
X159413664Y-112813200D01*
X159413664Y-112813200D02*
X159318426Y-112860819D01*
X159318426Y-112860819D02*
X159270807Y-112956057D01*
X159270807Y-112956057D02*
X159270807Y-113051295D01*
X159270807Y-113051295D02*
X159746997Y-113146533D01*
X158413664Y-113432248D02*
X158508902Y-113479867D01*
X158508902Y-113479867D02*
X158699378Y-113479867D01*
X158699378Y-113479867D02*
X158794616Y-113432248D01*
X158794616Y-113432248D02*
X158842235Y-113384628D01*
X158842235Y-113384628D02*
X158889854Y-113289390D01*
X158889854Y-113289390D02*
X158889854Y-113003676D01*
X158889854Y-113003676D02*
X158842235Y-112908438D01*
X158842235Y-112908438D02*
X158794616Y-112860819D01*
X158794616Y-112860819D02*
X158699378Y-112813200D01*
X158699378Y-112813200D02*
X158508902Y-112813200D01*
X158508902Y-112813200D02*
X158413664Y-112860819D01*
X157842235Y-113479867D02*
X157937473Y-113432248D01*
X157937473Y-113432248D02*
X157985092Y-113384628D01*
X157985092Y-113384628D02*
X158032711Y-113289390D01*
X158032711Y-113289390D02*
X158032711Y-113003676D01*
X158032711Y-113003676D02*
X157985092Y-112908438D01*
X157985092Y-112908438D02*
X157937473Y-112860819D01*
X157937473Y-112860819D02*
X157842235Y-112813200D01*
X157842235Y-112813200D02*
X157699378Y-112813200D01*
X157699378Y-112813200D02*
X157604140Y-112860819D01*
X157604140Y-112860819D02*
X157556521Y-112908438D01*
X157556521Y-112908438D02*
X157508902Y-113003676D01*
X157508902Y-113003676D02*
X157508902Y-113289390D01*
X157508902Y-113289390D02*
X157556521Y-113384628D01*
X157556521Y-113384628D02*
X157604140Y-113432248D01*
X157604140Y-113432248D02*
X157699378Y-113479867D01*
X157699378Y-113479867D02*
X157842235Y-113479867D01*
X157080330Y-112813200D02*
X157080330Y-113479867D01*
X157080330Y-112908438D02*
X157032711Y-112860819D01*
X157032711Y-112860819D02*
X156937473Y-112813200D01*
X156937473Y-112813200D02*
X156794616Y-112813200D01*
X156794616Y-112813200D02*
X156699378Y-112860819D01*
X156699378Y-112860819D02*
X156651759Y-112956057D01*
X156651759Y-112956057D02*
X156651759Y-113479867D01*
X155746997Y-113479867D02*
X155746997Y-112479867D01*
X155746997Y-113432248D02*
X155842235Y-113479867D01*
X155842235Y-113479867D02*
X156032711Y-113479867D01*
X156032711Y-113479867D02*
X156127949Y-113432248D01*
X156127949Y-113432248D02*
X156175568Y-113384628D01*
X156175568Y-113384628D02*
X156223187Y-113289390D01*
X156223187Y-113289390D02*
X156223187Y-113003676D01*
X156223187Y-113003676D02*
X156175568Y-112908438D01*
X156175568Y-112908438D02*
X156127949Y-112860819D01*
X156127949Y-112860819D02*
X156032711Y-112813200D01*
X156032711Y-112813200D02*
X155842235Y-112813200D01*
X155842235Y-112813200D02*
X155746997Y-112860819D01*
X155318425Y-113432248D02*
X155223187Y-113479867D01*
X155223187Y-113479867D02*
X155032711Y-113479867D01*
X155032711Y-113479867D02*
X154937473Y-113432248D01*
X154937473Y-113432248D02*
X154889854Y-113337009D01*
X154889854Y-113337009D02*
X154889854Y-113289390D01*
X154889854Y-113289390D02*
X154937473Y-113194152D01*
X154937473Y-113194152D02*
X155032711Y-113146533D01*
X155032711Y-113146533D02*
X155175568Y-113146533D01*
X155175568Y-113146533D02*
X155270806Y-113098914D01*
X155270806Y-113098914D02*
X155318425Y-113003676D01*
X155318425Y-113003676D02*
X155318425Y-112956057D01*
X155318425Y-112956057D02*
X155270806Y-112860819D01*
X155270806Y-112860819D02*
X155175568Y-112813200D01*
X155175568Y-112813200D02*
X155032711Y-112813200D01*
X155032711Y-112813200D02*
X154937473Y-112860819D01*
X153556520Y-113479867D02*
X153651758Y-113432248D01*
X153651758Y-113432248D02*
X153699377Y-113384628D01*
X153699377Y-113384628D02*
X153746996Y-113289390D01*
X153746996Y-113289390D02*
X153746996Y-113003676D01*
X153746996Y-113003676D02*
X153699377Y-112908438D01*
X153699377Y-112908438D02*
X153651758Y-112860819D01*
X153651758Y-112860819D02*
X153556520Y-112813200D01*
X153556520Y-112813200D02*
X153413663Y-112813200D01*
X153413663Y-112813200D02*
X153318425Y-112860819D01*
X153318425Y-112860819D02*
X153270806Y-112908438D01*
X153270806Y-112908438D02*
X153223187Y-113003676D01*
X153223187Y-113003676D02*
X153223187Y-113289390D01*
X153223187Y-113289390D02*
X153270806Y-113384628D01*
X153270806Y-113384628D02*
X153318425Y-113432248D01*
X153318425Y-113432248D02*
X153413663Y-113479867D01*
X153413663Y-113479867D02*
X153556520Y-113479867D01*
X152937472Y-112813200D02*
X152556520Y-112813200D01*
X152794615Y-113479867D02*
X152794615Y-112622724D01*
X152794615Y-112622724D02*
X152746996Y-112527486D01*
X152746996Y-112527486D02*
X152651758Y-112479867D01*
X152651758Y-112479867D02*
X152556520Y-112479867D01*
X151604138Y-112813200D02*
X151223186Y-112813200D01*
X151461281Y-112479867D02*
X151461281Y-113337009D01*
X151461281Y-113337009D02*
X151413662Y-113432248D01*
X151413662Y-113432248D02*
X151318424Y-113479867D01*
X151318424Y-113479867D02*
X151223186Y-113479867D01*
X150889852Y-113479867D02*
X150889852Y-112479867D01*
X150461281Y-113479867D02*
X150461281Y-112956057D01*
X150461281Y-112956057D02*
X150508900Y-112860819D01*
X150508900Y-112860819D02*
X150604138Y-112813200D01*
X150604138Y-112813200D02*
X150746995Y-112813200D01*
X150746995Y-112813200D02*
X150842233Y-112860819D01*
X150842233Y-112860819D02*
X150889852Y-112908438D01*
X149604138Y-113432248D02*
X149699376Y-113479867D01*
X149699376Y-113479867D02*
X149889852Y-113479867D01*
X149889852Y-113479867D02*
X149985090Y-113432248D01*
X149985090Y-113432248D02*
X150032709Y-113337009D01*
X150032709Y-113337009D02*
X150032709Y-112956057D01*
X150032709Y-112956057D02*
X149985090Y-112860819D01*
X149985090Y-112860819D02*
X149889852Y-112813200D01*
X149889852Y-112813200D02*
X149699376Y-112813200D01*
X149699376Y-112813200D02*
X149604138Y-112860819D01*
X149604138Y-112860819D02*
X149556519Y-112956057D01*
X149556519Y-112956057D02*
X149556519Y-113051295D01*
X149556519Y-113051295D02*
X150032709Y-113146533D01*
X148508899Y-112813200D02*
X148127947Y-112813200D01*
X148366042Y-113479867D02*
X148366042Y-112622724D01*
X148366042Y-112622724D02*
X148318423Y-112527486D01*
X148318423Y-112527486D02*
X148223185Y-112479867D01*
X148223185Y-112479867D02*
X148127947Y-112479867D01*
X147794613Y-113479867D02*
X147794613Y-112813200D01*
X147794613Y-112479867D02*
X147842232Y-112527486D01*
X147842232Y-112527486D02*
X147794613Y-112575105D01*
X147794613Y-112575105D02*
X147746994Y-112527486D01*
X147746994Y-112527486D02*
X147794613Y-112479867D01*
X147794613Y-112479867D02*
X147794613Y-112575105D01*
X147318423Y-113479867D02*
X147318423Y-112813200D01*
X147318423Y-113003676D02*
X147270804Y-112908438D01*
X147270804Y-112908438D02*
X147223185Y-112860819D01*
X147223185Y-112860819D02*
X147127947Y-112813200D01*
X147127947Y-112813200D02*
X147032709Y-112813200D01*
X146746994Y-113432248D02*
X146651756Y-113479867D01*
X146651756Y-113479867D02*
X146461280Y-113479867D01*
X146461280Y-113479867D02*
X146366042Y-113432248D01*
X146366042Y-113432248D02*
X146318423Y-113337009D01*
X146318423Y-113337009D02*
X146318423Y-113289390D01*
X146318423Y-113289390D02*
X146366042Y-113194152D01*
X146366042Y-113194152D02*
X146461280Y-113146533D01*
X146461280Y-113146533D02*
X146604137Y-113146533D01*
X146604137Y-113146533D02*
X146699375Y-113098914D01*
X146699375Y-113098914D02*
X146746994Y-113003676D01*
X146746994Y-113003676D02*
X146746994Y-112956057D01*
X146746994Y-112956057D02*
X146699375Y-112860819D01*
X146699375Y-112860819D02*
X146604137Y-112813200D01*
X146604137Y-112813200D02*
X146461280Y-112813200D01*
X146461280Y-112813200D02*
X146366042Y-112860819D01*
X146032708Y-112813200D02*
X145651756Y-112813200D01*
X145889851Y-112479867D02*
X145889851Y-113337009D01*
X145889851Y-113337009D02*
X145842232Y-113432248D01*
X145842232Y-113432248D02*
X145746994Y-113479867D01*
X145746994Y-113479867D02*
X145651756Y-113479867D01*
X144127946Y-112813200D02*
X144127946Y-113479867D01*
X144366041Y-112432248D02*
X144604136Y-113146533D01*
X144604136Y-113146533D02*
X143985089Y-113146533D01*
X173032713Y-114433200D02*
X172651761Y-114433200D01*
X172889856Y-115099867D02*
X172889856Y-114242724D01*
X172889856Y-114242724D02*
X172842237Y-114147486D01*
X172842237Y-114147486D02*
X172746999Y-114099867D01*
X172746999Y-114099867D02*
X172651761Y-114099867D01*
X172175570Y-115099867D02*
X172270808Y-115052248D01*
X172270808Y-115052248D02*
X172318427Y-114957009D01*
X172318427Y-114957009D02*
X172318427Y-114099867D01*
X171794617Y-115099867D02*
X171794617Y-114433200D01*
X171794617Y-114099867D02*
X171842236Y-114147486D01*
X171842236Y-114147486D02*
X171794617Y-114195105D01*
X171794617Y-114195105D02*
X171746998Y-114147486D01*
X171746998Y-114147486D02*
X171794617Y-114099867D01*
X171794617Y-114099867D02*
X171794617Y-114195105D01*
X170889856Y-114433200D02*
X170889856Y-115242724D01*
X170889856Y-115242724D02*
X170937475Y-115337962D01*
X170937475Y-115337962D02*
X170985094Y-115385581D01*
X170985094Y-115385581D02*
X171080332Y-115433200D01*
X171080332Y-115433200D02*
X171223189Y-115433200D01*
X171223189Y-115433200D02*
X171318427Y-115385581D01*
X170889856Y-115052248D02*
X170985094Y-115099867D01*
X170985094Y-115099867D02*
X171175570Y-115099867D01*
X171175570Y-115099867D02*
X171270808Y-115052248D01*
X171270808Y-115052248D02*
X171318427Y-115004628D01*
X171318427Y-115004628D02*
X171366046Y-114909390D01*
X171366046Y-114909390D02*
X171366046Y-114623676D01*
X171366046Y-114623676D02*
X171318427Y-114528438D01*
X171318427Y-114528438D02*
X171270808Y-114480819D01*
X171270808Y-114480819D02*
X171175570Y-114433200D01*
X171175570Y-114433200D02*
X170985094Y-114433200D01*
X170985094Y-114433200D02*
X170889856Y-114480819D01*
X170413665Y-115099867D02*
X170413665Y-114099867D01*
X169985094Y-115099867D02*
X169985094Y-114576057D01*
X169985094Y-114576057D02*
X170032713Y-114480819D01*
X170032713Y-114480819D02*
X170127951Y-114433200D01*
X170127951Y-114433200D02*
X170270808Y-114433200D01*
X170270808Y-114433200D02*
X170366046Y-114480819D01*
X170366046Y-114480819D02*
X170413665Y-114528438D01*
X169651760Y-114433200D02*
X169270808Y-114433200D01*
X169508903Y-114099867D02*
X169508903Y-114957009D01*
X169508903Y-114957009D02*
X169461284Y-115052248D01*
X169461284Y-115052248D02*
X169366046Y-115099867D01*
X169366046Y-115099867D02*
X169270808Y-115099867D01*
X168985093Y-115052248D02*
X168889855Y-115099867D01*
X168889855Y-115099867D02*
X168699379Y-115099867D01*
X168699379Y-115099867D02*
X168604141Y-115052248D01*
X168604141Y-115052248D02*
X168556522Y-114957009D01*
X168556522Y-114957009D02*
X168556522Y-114909390D01*
X168556522Y-114909390D02*
X168604141Y-114814152D01*
X168604141Y-114814152D02*
X168699379Y-114766533D01*
X168699379Y-114766533D02*
X168842236Y-114766533D01*
X168842236Y-114766533D02*
X168937474Y-114718914D01*
X168937474Y-114718914D02*
X168985093Y-114623676D01*
X168985093Y-114623676D02*
X168985093Y-114576057D01*
X168985093Y-114576057D02*
X168937474Y-114480819D01*
X168937474Y-114480819D02*
X168842236Y-114433200D01*
X168842236Y-114433200D02*
X168699379Y-114433200D01*
X168699379Y-114433200D02*
X168604141Y-114480819D01*
X167366045Y-115099867D02*
X167366045Y-114433200D01*
X167366045Y-114528438D02*
X167318426Y-114480819D01*
X167318426Y-114480819D02*
X167223188Y-114433200D01*
X167223188Y-114433200D02*
X167080331Y-114433200D01*
X167080331Y-114433200D02*
X166985093Y-114480819D01*
X166985093Y-114480819D02*
X166937474Y-114576057D01*
X166937474Y-114576057D02*
X166937474Y-115099867D01*
X166937474Y-114576057D02*
X166889855Y-114480819D01*
X166889855Y-114480819D02*
X166794617Y-114433200D01*
X166794617Y-114433200D02*
X166651760Y-114433200D01*
X166651760Y-114433200D02*
X166556521Y-114480819D01*
X166556521Y-114480819D02*
X166508902Y-114576057D01*
X166508902Y-114576057D02*
X166508902Y-115099867D01*
X166032712Y-115099867D02*
X166032712Y-114433200D01*
X166032712Y-114099867D02*
X166080331Y-114147486D01*
X166080331Y-114147486D02*
X166032712Y-114195105D01*
X166032712Y-114195105D02*
X165985093Y-114147486D01*
X165985093Y-114147486D02*
X166032712Y-114099867D01*
X166032712Y-114099867D02*
X166032712Y-114195105D01*
X165127951Y-114433200D02*
X165127951Y-115242724D01*
X165127951Y-115242724D02*
X165175570Y-115337962D01*
X165175570Y-115337962D02*
X165223189Y-115385581D01*
X165223189Y-115385581D02*
X165318427Y-115433200D01*
X165318427Y-115433200D02*
X165461284Y-115433200D01*
X165461284Y-115433200D02*
X165556522Y-115385581D01*
X165127951Y-115052248D02*
X165223189Y-115099867D01*
X165223189Y-115099867D02*
X165413665Y-115099867D01*
X165413665Y-115099867D02*
X165508903Y-115052248D01*
X165508903Y-115052248D02*
X165556522Y-115004628D01*
X165556522Y-115004628D02*
X165604141Y-114909390D01*
X165604141Y-114909390D02*
X165604141Y-114623676D01*
X165604141Y-114623676D02*
X165556522Y-114528438D01*
X165556522Y-114528438D02*
X165508903Y-114480819D01*
X165508903Y-114480819D02*
X165413665Y-114433200D01*
X165413665Y-114433200D02*
X165223189Y-114433200D01*
X165223189Y-114433200D02*
X165127951Y-114480819D01*
X164651760Y-115099867D02*
X164651760Y-114099867D01*
X164223189Y-115099867D02*
X164223189Y-114576057D01*
X164223189Y-114576057D02*
X164270808Y-114480819D01*
X164270808Y-114480819D02*
X164366046Y-114433200D01*
X164366046Y-114433200D02*
X164508903Y-114433200D01*
X164508903Y-114433200D02*
X164604141Y-114480819D01*
X164604141Y-114480819D02*
X164651760Y-114528438D01*
X163889855Y-114433200D02*
X163508903Y-114433200D01*
X163746998Y-114099867D02*
X163746998Y-114957009D01*
X163746998Y-114957009D02*
X163699379Y-115052248D01*
X163699379Y-115052248D02*
X163604141Y-115099867D01*
X163604141Y-115099867D02*
X163508903Y-115099867D01*
X162413664Y-115099867D02*
X162413664Y-114433200D01*
X162413664Y-114528438D02*
X162366045Y-114480819D01*
X162366045Y-114480819D02*
X162270807Y-114433200D01*
X162270807Y-114433200D02*
X162127950Y-114433200D01*
X162127950Y-114433200D02*
X162032712Y-114480819D01*
X162032712Y-114480819D02*
X161985093Y-114576057D01*
X161985093Y-114576057D02*
X161985093Y-115099867D01*
X161985093Y-114576057D02*
X161937474Y-114480819D01*
X161937474Y-114480819D02*
X161842236Y-114433200D01*
X161842236Y-114433200D02*
X161699379Y-114433200D01*
X161699379Y-114433200D02*
X161604140Y-114480819D01*
X161604140Y-114480819D02*
X161556521Y-114576057D01*
X161556521Y-114576057D02*
X161556521Y-115099867D01*
X160651760Y-115099867D02*
X160651760Y-114576057D01*
X160651760Y-114576057D02*
X160699379Y-114480819D01*
X160699379Y-114480819D02*
X160794617Y-114433200D01*
X160794617Y-114433200D02*
X160985093Y-114433200D01*
X160985093Y-114433200D02*
X161080331Y-114480819D01*
X160651760Y-115052248D02*
X160746998Y-115099867D01*
X160746998Y-115099867D02*
X160985093Y-115099867D01*
X160985093Y-115099867D02*
X161080331Y-115052248D01*
X161080331Y-115052248D02*
X161127950Y-114957009D01*
X161127950Y-114957009D02*
X161127950Y-114861771D01*
X161127950Y-114861771D02*
X161080331Y-114766533D01*
X161080331Y-114766533D02*
X160985093Y-114718914D01*
X160985093Y-114718914D02*
X160746998Y-114718914D01*
X160746998Y-114718914D02*
X160651760Y-114671295D01*
X160175569Y-115099867D02*
X160175569Y-114099867D01*
X160080331Y-114718914D02*
X159794617Y-115099867D01*
X159794617Y-114433200D02*
X160175569Y-114814152D01*
X158985093Y-115052248D02*
X159080331Y-115099867D01*
X159080331Y-115099867D02*
X159270807Y-115099867D01*
X159270807Y-115099867D02*
X159366045Y-115052248D01*
X159366045Y-115052248D02*
X159413664Y-114957009D01*
X159413664Y-114957009D02*
X159413664Y-114576057D01*
X159413664Y-114576057D02*
X159366045Y-114480819D01*
X159366045Y-114480819D02*
X159270807Y-114433200D01*
X159270807Y-114433200D02*
X159080331Y-114433200D01*
X159080331Y-114433200D02*
X158985093Y-114480819D01*
X158985093Y-114480819D02*
X158937474Y-114576057D01*
X158937474Y-114576057D02*
X158937474Y-114671295D01*
X158937474Y-114671295D02*
X159413664Y-114766533D01*
X157318426Y-115099867D02*
X157318426Y-114576057D01*
X157318426Y-114576057D02*
X157366045Y-114480819D01*
X157366045Y-114480819D02*
X157461283Y-114433200D01*
X157461283Y-114433200D02*
X157651759Y-114433200D01*
X157651759Y-114433200D02*
X157746997Y-114480819D01*
X157318426Y-115052248D02*
X157413664Y-115099867D01*
X157413664Y-115099867D02*
X157651759Y-115099867D01*
X157651759Y-115099867D02*
X157746997Y-115052248D01*
X157746997Y-115052248D02*
X157794616Y-114957009D01*
X157794616Y-114957009D02*
X157794616Y-114861771D01*
X157794616Y-114861771D02*
X157746997Y-114766533D01*
X157746997Y-114766533D02*
X157651759Y-114718914D01*
X157651759Y-114718914D02*
X157413664Y-114718914D01*
X157413664Y-114718914D02*
X157318426Y-114671295D01*
X155651759Y-114433200D02*
X155651759Y-115242724D01*
X155651759Y-115242724D02*
X155699378Y-115337962D01*
X155699378Y-115337962D02*
X155746997Y-115385581D01*
X155746997Y-115385581D02*
X155842235Y-115433200D01*
X155842235Y-115433200D02*
X155985092Y-115433200D01*
X155985092Y-115433200D02*
X156080330Y-115385581D01*
X155651759Y-115052248D02*
X155746997Y-115099867D01*
X155746997Y-115099867D02*
X155937473Y-115099867D01*
X155937473Y-115099867D02*
X156032711Y-115052248D01*
X156032711Y-115052248D02*
X156080330Y-115004628D01*
X156080330Y-115004628D02*
X156127949Y-114909390D01*
X156127949Y-114909390D02*
X156127949Y-114623676D01*
X156127949Y-114623676D02*
X156080330Y-114528438D01*
X156080330Y-114528438D02*
X156032711Y-114480819D01*
X156032711Y-114480819D02*
X155937473Y-114433200D01*
X155937473Y-114433200D02*
X155746997Y-114433200D01*
X155746997Y-114433200D02*
X155651759Y-114480819D01*
X155032711Y-115099867D02*
X155127949Y-115052248D01*
X155127949Y-115052248D02*
X155175568Y-115004628D01*
X155175568Y-115004628D02*
X155223187Y-114909390D01*
X155223187Y-114909390D02*
X155223187Y-114623676D01*
X155223187Y-114623676D02*
X155175568Y-114528438D01*
X155175568Y-114528438D02*
X155127949Y-114480819D01*
X155127949Y-114480819D02*
X155032711Y-114433200D01*
X155032711Y-114433200D02*
X154889854Y-114433200D01*
X154889854Y-114433200D02*
X154794616Y-114480819D01*
X154794616Y-114480819D02*
X154746997Y-114528438D01*
X154746997Y-114528438D02*
X154699378Y-114623676D01*
X154699378Y-114623676D02*
X154699378Y-114909390D01*
X154699378Y-114909390D02*
X154746997Y-115004628D01*
X154746997Y-115004628D02*
X154794616Y-115052248D01*
X154794616Y-115052248D02*
X154889854Y-115099867D01*
X154889854Y-115099867D02*
X155032711Y-115099867D01*
X154127949Y-115099867D02*
X154223187Y-115052248D01*
X154223187Y-115052248D02*
X154270806Y-115004628D01*
X154270806Y-115004628D02*
X154318425Y-114909390D01*
X154318425Y-114909390D02*
X154318425Y-114623676D01*
X154318425Y-114623676D02*
X154270806Y-114528438D01*
X154270806Y-114528438D02*
X154223187Y-114480819D01*
X154223187Y-114480819D02*
X154127949Y-114433200D01*
X154127949Y-114433200D02*
X153985092Y-114433200D01*
X153985092Y-114433200D02*
X153889854Y-114480819D01*
X153889854Y-114480819D02*
X153842235Y-114528438D01*
X153842235Y-114528438D02*
X153794616Y-114623676D01*
X153794616Y-114623676D02*
X153794616Y-114909390D01*
X153794616Y-114909390D02*
X153842235Y-115004628D01*
X153842235Y-115004628D02*
X153889854Y-115052248D01*
X153889854Y-115052248D02*
X153985092Y-115099867D01*
X153985092Y-115099867D02*
X154127949Y-115099867D01*
X152937473Y-115099867D02*
X152937473Y-114099867D01*
X152937473Y-115052248D02*
X153032711Y-115099867D01*
X153032711Y-115099867D02*
X153223187Y-115099867D01*
X153223187Y-115099867D02*
X153318425Y-115052248D01*
X153318425Y-115052248D02*
X153366044Y-115004628D01*
X153366044Y-115004628D02*
X153413663Y-114909390D01*
X153413663Y-114909390D02*
X153413663Y-114623676D01*
X153413663Y-114623676D02*
X153366044Y-114528438D01*
X153366044Y-114528438D02*
X153318425Y-114480819D01*
X153318425Y-114480819D02*
X153223187Y-114433200D01*
X153223187Y-114433200D02*
X153032711Y-114433200D01*
X153032711Y-114433200D02*
X152937473Y-114480819D01*
X151699377Y-115099867D02*
X151699377Y-114433200D01*
X151699377Y-114099867D02*
X151746996Y-114147486D01*
X151746996Y-114147486D02*
X151699377Y-114195105D01*
X151699377Y-114195105D02*
X151651758Y-114147486D01*
X151651758Y-114147486D02*
X151699377Y-114099867D01*
X151699377Y-114099867D02*
X151699377Y-114195105D01*
X151223187Y-114433200D02*
X151223187Y-115433200D01*
X151223187Y-114480819D02*
X151127949Y-114433200D01*
X151127949Y-114433200D02*
X150937473Y-114433200D01*
X150937473Y-114433200D02*
X150842235Y-114480819D01*
X150842235Y-114480819D02*
X150794616Y-114528438D01*
X150794616Y-114528438D02*
X150746997Y-114623676D01*
X150746997Y-114623676D02*
X150746997Y-114909390D01*
X150746997Y-114909390D02*
X150794616Y-115004628D01*
X150794616Y-115004628D02*
X150842235Y-115052248D01*
X150842235Y-115052248D02*
X150937473Y-115099867D01*
X150937473Y-115099867D02*
X151127949Y-115099867D01*
X151127949Y-115099867D02*
X151223187Y-115052248D01*
X150413663Y-114433200D02*
X150175568Y-115099867D01*
X150175568Y-115099867D02*
X149937473Y-114433200D01*
X149127949Y-114433200D02*
X149127949Y-115099867D01*
X149366044Y-114052248D02*
X149604139Y-114766533D01*
X149604139Y-114766533D02*
X148985092Y-114766533D01*
X147413663Y-115099867D02*
X147413663Y-114576057D01*
X147413663Y-114576057D02*
X147461282Y-114480819D01*
X147461282Y-114480819D02*
X147556520Y-114433200D01*
X147556520Y-114433200D02*
X147746996Y-114433200D01*
X147746996Y-114433200D02*
X147842234Y-114480819D01*
X147413663Y-115052248D02*
X147508901Y-115099867D01*
X147508901Y-115099867D02*
X147746996Y-115099867D01*
X147746996Y-115099867D02*
X147842234Y-115052248D01*
X147842234Y-115052248D02*
X147889853Y-114957009D01*
X147889853Y-114957009D02*
X147889853Y-114861771D01*
X147889853Y-114861771D02*
X147842234Y-114766533D01*
X147842234Y-114766533D02*
X147746996Y-114718914D01*
X147746996Y-114718914D02*
X147508901Y-114718914D01*
X147508901Y-114718914D02*
X147413663Y-114671295D01*
X146508901Y-115099867D02*
X146508901Y-114099867D01*
X146508901Y-115052248D02*
X146604139Y-115099867D01*
X146604139Y-115099867D02*
X146794615Y-115099867D01*
X146794615Y-115099867D02*
X146889853Y-115052248D01*
X146889853Y-115052248D02*
X146937472Y-115004628D01*
X146937472Y-115004628D02*
X146985091Y-114909390D01*
X146985091Y-114909390D02*
X146985091Y-114623676D01*
X146985091Y-114623676D02*
X146937472Y-114528438D01*
X146937472Y-114528438D02*
X146889853Y-114480819D01*
X146889853Y-114480819D02*
X146794615Y-114433200D01*
X146794615Y-114433200D02*
X146604139Y-114433200D01*
X146604139Y-114433200D02*
X146508901Y-114480819D01*
X145604139Y-115099867D02*
X145604139Y-114099867D01*
X145604139Y-115052248D02*
X145699377Y-115099867D01*
X145699377Y-115099867D02*
X145889853Y-115099867D01*
X145889853Y-115099867D02*
X145985091Y-115052248D01*
X145985091Y-115052248D02*
X146032710Y-115004628D01*
X146032710Y-115004628D02*
X146080329Y-114909390D01*
X146080329Y-114909390D02*
X146080329Y-114623676D01*
X146080329Y-114623676D02*
X146032710Y-114528438D01*
X146032710Y-114528438D02*
X145985091Y-114480819D01*
X145985091Y-114480819D02*
X145889853Y-114433200D01*
X145889853Y-114433200D02*
X145699377Y-114433200D01*
X145699377Y-114433200D02*
X145604139Y-114480819D01*
X145127948Y-115099867D02*
X145127948Y-114433200D01*
X145127948Y-114623676D02*
X145080329Y-114528438D01*
X145080329Y-114528438D02*
X145032710Y-114480819D01*
X145032710Y-114480819D02*
X144937472Y-114433200D01*
X144937472Y-114433200D02*
X144842234Y-114433200D01*
X144127948Y-115052248D02*
X144223186Y-115099867D01*
X144223186Y-115099867D02*
X144413662Y-115099867D01*
X144413662Y-115099867D02*
X144508900Y-115052248D01*
X144508900Y-115052248D02*
X144556519Y-114957009D01*
X144556519Y-114957009D02*
X144556519Y-114576057D01*
X144556519Y-114576057D02*
X144508900Y-114480819D01*
X144508900Y-114480819D02*
X144413662Y-114433200D01*
X144413662Y-114433200D02*
X144223186Y-114433200D01*
X144223186Y-114433200D02*
X144127948Y-114480819D01*
X144127948Y-114480819D02*
X144080329Y-114576057D01*
X144080329Y-114576057D02*
X144080329Y-114671295D01*
X144080329Y-114671295D02*
X144556519Y-114766533D01*
X143699376Y-115052248D02*
X143604138Y-115099867D01*
X143604138Y-115099867D02*
X143413662Y-115099867D01*
X143413662Y-115099867D02*
X143318424Y-115052248D01*
X143318424Y-115052248D02*
X143270805Y-114957009D01*
X143270805Y-114957009D02*
X143270805Y-114909390D01*
X143270805Y-114909390D02*
X143318424Y-114814152D01*
X143318424Y-114814152D02*
X143413662Y-114766533D01*
X143413662Y-114766533D02*
X143556519Y-114766533D01*
X143556519Y-114766533D02*
X143651757Y-114718914D01*
X143651757Y-114718914D02*
X143699376Y-114623676D01*
X143699376Y-114623676D02*
X143699376Y-114576057D01*
X143699376Y-114576057D02*
X143651757Y-114480819D01*
X143651757Y-114480819D02*
X143556519Y-114433200D01*
X143556519Y-114433200D02*
X143413662Y-114433200D01*
X143413662Y-114433200D02*
X143318424Y-114480819D01*
X142889852Y-115052248D02*
X142794614Y-115099867D01*
X142794614Y-115099867D02*
X142604138Y-115099867D01*
X142604138Y-115099867D02*
X142508900Y-115052248D01*
X142508900Y-115052248D02*
X142461281Y-114957009D01*
X142461281Y-114957009D02*
X142461281Y-114909390D01*
X142461281Y-114909390D02*
X142508900Y-114814152D01*
X142508900Y-114814152D02*
X142604138Y-114766533D01*
X142604138Y-114766533D02*
X142746995Y-114766533D01*
X142746995Y-114766533D02*
X142842233Y-114718914D01*
X142842233Y-114718914D02*
X142889852Y-114623676D01*
X142889852Y-114623676D02*
X142889852Y-114576057D01*
X142889852Y-114576057D02*
X142842233Y-114480819D01*
X142842233Y-114480819D02*
X142746995Y-114433200D01*
X142746995Y-114433200D02*
X142604138Y-114433200D01*
X142604138Y-114433200D02*
X142508900Y-114480819D01*
D14*
%TO.P,J4,1,Pin_1*%
%TO.N,Programming_TX*%
X67296700Y-90809000D03*
D15*
%TO.P,J4,2,Pin_2*%
%TO.N,Programming_RX*%
X67296700Y-93349000D03*
%TO.P,J4,3,Pin_3*%
%TO.N,GND*%
X69836700Y-90809000D03*
%TO.P,J4,4,Pin_4*%
%TO.N,VBUS*%
X69836700Y-93349000D03*
%TO.P,J4,5,Pin_5*%
%TO.N,EN*%
X72376700Y-90809000D03*
%TO.P,J4,6,Pin_6*%
%TO.N,Boot_Button*%
X72376700Y-93349000D03*
%TD*%
D16*
%TO.P,J5,1,Pin_1*%
%TO.N,VDD33*%
X69140000Y-78835500D03*
D17*
%TO.P,J5,2,Pin_2*%
%TO.N,GND*%
X69140000Y-81375500D03*
%TO.P,J5,3,Pin_3*%
%TO.N,SDA*%
X71680000Y-78835500D03*
%TO.P,J5,4,Pin_4*%
%TO.N,SCL*%
X71680000Y-81375500D03*
%TO.P,J5,5,Pin_5*%
%TO.N,GPIO1*%
X74220000Y-78835500D03*
%TO.P,J5,6,Pin_6*%
%TO.N,GPIO2*%
X74220000Y-81375500D03*
%TD*%
D16*
%TO.P,J6,1,Pin_1*%
%TO.N,VDD33*%
X231597800Y-78982900D03*
D17*
%TO.P,J6,2,Pin_2*%
%TO.N,GND*%
X231597800Y-81522900D03*
%TO.P,J6,3,Pin_3*%
%TO.N,SDA*%
X234137800Y-78982900D03*
%TO.P,J6,4,Pin_4*%
%TO.N,SCL*%
X234137800Y-81522900D03*
%TO.P,J6,5,Pin_5*%
%TO.N,GPIO1*%
X236677800Y-78982900D03*
%TO.P,J6,6,Pin_6*%
%TO.N,GPIO2*%
X236677800Y-81522900D03*
%TD*%
D18*
%TO.P,SW4,1,A*%
%TO.N,VBUS*%
X237450000Y-111235700D03*
X237450000Y-105735700D03*
%TO.P,SW4,2,B*%
%TO.N,Net-(SW4-B)*%
X234950000Y-111235700D03*
X234950000Y-105735700D03*
%TO.P,SW4,3,C*%
%TO.N,unconnected-(SW4-C-Pad3)*%
X232450000Y-111235700D03*
X232450000Y-105735700D03*
%TD*%
D19*
%TO.P,R7,1*%
%TO.N,Net-(D2-G)*%
X135777700Y-102870000D03*
%TO.P,R7,2*%
%TO.N,LED_G*%
X133777700Y-102870000D03*
%TD*%
D20*
%TO.P,C5,1*%
%TO.N,VBUS*%
X125730000Y-68580000D03*
%TO.P,C5,2*%
%TO.N,GND*%
X123655000Y-68580000D03*
%TD*%
D21*
%TO.P,J2,1,Pin_1*%
%TO.N,GND*%
X153026534Y-89590200D03*
%TO.P,J2,2,Pin_2*%
%TO.N,Net-(D1-K)*%
X153062000Y-85590200D03*
%TD*%
D20*
%TO.P,C2,1*%
%TO.N,VDD33*%
X114300000Y-73660000D03*
%TO.P,C2,2*%
%TO.N,GND*%
X112225000Y-73660000D03*
%TD*%
D22*
%TO.P,C1,1*%
%TO.N,GND*%
X112225000Y-78740000D03*
%TO.P,C1,2*%
%TO.N,EN*%
X114300000Y-78740000D03*
%TD*%
D23*
%TO.P,R2,1*%
%TO.N,Net-(R2-Pad1)*%
X90710000Y-100330000D03*
%TO.P,R2,2*%
%TO.N,Net-(SW3-B)*%
X92710000Y-100330000D03*
%TD*%
D20*
%TO.P,C3,1*%
%TO.N,VDD33*%
X114300000Y-68580000D03*
%TO.P,C3,2*%
%TO.N,GND*%
X112225000Y-68580000D03*
%TD*%
D24*
%TO.P,D1,1,K*%
%TO.N,Net-(D1-K)*%
X139680000Y-91440000D03*
D25*
%TO.P,D1,2,A*%
%TO.N,GND*%
X137780000Y-91440000D03*
%TD*%
D18*
%TO.P,SW3,3,C*%
%TO.N,unconnected-(SW3-C-Pad3)*%
X87710000Y-106260000D03*
X87710000Y-111760000D03*
%TO.P,SW3,2,B*%
%TO.N,Net-(SW3-B)*%
X90210000Y-106260000D03*
X90210000Y-111760000D03*
%TO.P,SW3,1,A*%
%TO.N,Net-(Q1-B)*%
X92710000Y-106260000D03*
X92710000Y-111760000D03*
%TD*%
%TO.P,SW1,1,A*%
%TO.N,unconnected-(SW1-A-Pad1)*%
X110490000Y-111760000D03*
X110490000Y-106260000D03*
%TO.P,SW1,2,B*%
%TO.N,WiFi_On{slash}Off*%
X107990000Y-111760000D03*
X107990000Y-106260000D03*
%TO.P,SW1,3,C*%
%TO.N,GND*%
X105490000Y-111760000D03*
X105490000Y-106260000D03*
%TD*%
D26*
%TO.P,D2,1,R*%
%TO.N,Net-(D2-R)*%
X150711000Y-99991300D03*
%TO.P,D2,2,A*%
%TO.N,VDD33*%
X145511000Y-99991300D03*
%TO.P,D2,3,G*%
%TO.N,Net-(D2-G)*%
X145511000Y-98541300D03*
%TO.P,D2,4,B*%
%TO.N,Net-(D2-B)*%
X150711000Y-98541300D03*
%TD*%
D27*
%TO.P,BT1,1,+*%
%TO.N,VBUS*%
X224247500Y-85090000D03*
%TO.P,BT1,2,-*%
%TO.N,GND*%
X224247500Y-97790000D03*
%TD*%
D19*
%TO.P,R5,1*%
%TO.N,VDD33*%
X85090000Y-97790000D03*
%TO.P,R5,2*%
%TO.N,EN*%
X83090000Y-97790000D03*
%TD*%
D21*
%TO.P,J1,1,Pin_1*%
%TO.N,Net-(D1-K)*%
X122788534Y-92176900D03*
%TO.P,J1,2,Pin_2*%
%TO.N,GND*%
X122824000Y-88176900D03*
%TD*%
D28*
%TO.P,U1,1,GND*%
%TO.N,GND*%
X105130000Y-71120000D03*
%TO.P,U1,2,3V3*%
%TO.N,VDD33*%
X105130000Y-72390000D03*
%TO.P,U1,3,EN*%
%TO.N,EN*%
X105130000Y-73660000D03*
%TO.P,U1,4,GPIO4/TOUCH4/ADC1_CH3*%
%TO.N,LED_R*%
X105130000Y-74930000D03*
%TO.P,U1,5,GPIO5/TOUCH5/ADC1_CH4*%
%TO.N,LED_G*%
X105130000Y-76200000D03*
%TO.P,U1,6,GPIO6/TOUCH6/ADC1_CH5*%
%TO.N,LED_B*%
X105130000Y-77470000D03*
%TO.P,U1,7,GPIO7/TOUCH7/ADC1_CH6*%
%TO.N,unconnected-(U1-GPIO7{slash}TOUCH7{slash}ADC1_CH6-Pad7)*%
X105130000Y-78740000D03*
%TO.P,U1,8,GPIO15/U0RTS/ADC2_CH4/XTAL_32K_P*%
%TO.N,unconnected-(U1-GPIO15{slash}U0RTS{slash}ADC2_CH4{slash}XTAL_32K_P-Pad8)*%
X105130000Y-80010000D03*
%TO.P,U1,9,GPIO16/U0CTS/ADC2_CH5/XTAL_32K_N*%
%TO.N,unconnected-(U1-GPIO16{slash}U0CTS{slash}ADC2_CH5{slash}XTAL_32K_N-Pad9)*%
X105130000Y-81280000D03*
%TO.P,U1,10,GPIO17/U1TXD/ADC2_CH6/DAC_1*%
%TO.N,unconnected-(U1-GPIO17{slash}U1TXD{slash}ADC2_CH6{slash}DAC_1-Pad10)*%
X105130000Y-82550000D03*
%TO.P,U1,11,GPIO18/U1RXD/ADC2_CH7/DAC_2/CLK_OUT3*%
%TO.N,unconnected-(U1-GPIO18{slash}U1RXD{slash}ADC2_CH7{slash}DAC_2{slash}CLK_OUT3-Pad11)*%
X105130000Y-83820000D03*
%TO.P,U1,12,GPIO8/TOUCH8/ADC1_CH7*%
%TO.N,SDA*%
X105130000Y-85090000D03*
%TO.P,U1,13,GPIO19/U1RTS/ADC2_CH8/CLK_OUT2/USB_D-*%
%TO.N,unconnected-(U1-GPIO19{slash}U1RTS{slash}ADC2_CH8{slash}CLK_OUT2{slash}USB_D--Pad13)*%
X105130000Y-86360000D03*
%TO.P,U1,14,GPIO20/U1CTS/ADC2_CH9/CLK_OUT1/USB_D+*%
%TO.N,unconnected-(U1-GPIO20{slash}U1CTS{slash}ADC2_CH9{slash}CLK_OUT1{slash}USB_D+-Pad14)*%
X105130000Y-87630000D03*
D29*
%TO.P,U1,15,GPIO3/TOUCH3/ADC1_CH2*%
%TO.N,unconnected-(U1-GPIO3{slash}TOUCH3{slash}ADC1_CH2-Pad15)*%
X103365000Y-88880000D03*
%TO.P,U1,16,GPIO46*%
%TO.N,unconnected-(U1-GPIO46-Pad16)*%
X102095000Y-88880000D03*
%TO.P,U1,17,GPIO9/TOUCH9/ADC1_CH8/FSPIHD*%
%TO.N,SCL*%
X100825000Y-88880000D03*
%TO.P,U1,18,GPIO10/TOUCH10/ADC1_CH9/FSPICS0/FSPIIO4*%
%TO.N,MOTOR_CTRL_MCU*%
X99555000Y-88880000D03*
%TO.P,U1,19,GPIO11/TOUCH11/ADC2_CH0/FSPID/FSPIIO5*%
%TO.N,MOTOR_CTRL_MCU_BACKUP*%
X98285000Y-88880000D03*
%TO.P,U1,20,GPIO12/TOUCH12/ADC2_CH1/FSPICLK/FSPIIO6*%
%TO.N,WiFi_On{slash}Off*%
X97015000Y-88880000D03*
%TO.P,U1,21,GPIO13/TOUCH13/ADC2_CH2/FSPIQ/FSPIIO7*%
%TO.N,GPIO1*%
X95745000Y-88880000D03*
%TO.P,U1,22,GPIO14/TOUCH14/ADC2_CH3/FSPIWP/FSPIDQS*%
%TO.N,GPIO2*%
X94475000Y-88880000D03*
%TO.P,U1,23,GPIO21*%
%TO.N,unconnected-(U1-GPIO21-Pad23)*%
X93205000Y-88880000D03*
%TO.P,U1,24,SPIIO4/GPIO33/FSPIHD*%
%TO.N,unconnected-(U1-SPIIO4{slash}GPIO33{slash}FSPIHD-Pad24)*%
X91935000Y-88880000D03*
%TO.P,U1,25,SPIIO5/GPIO34/FSPICS0*%
%TO.N,unconnected-(U1-SPIIO5{slash}GPIO34{slash}FSPICS0-Pad25)*%
X90665000Y-88880000D03*
%TO.P,U1,26,GPIO45*%
%TO.N,unconnected-(U1-GPIO45-Pad26)*%
X89395000Y-88880000D03*
D28*
%TO.P,U1,27,GPIO0*%
%TO.N,Boot_Button*%
X87630000Y-87630000D03*
%TO.P,U1,28,SPIIO6/GPIO35/FSPID*%
%TO.N,unconnected-(U1-SPIIO6{slash}GPIO35{slash}FSPID-Pad28)*%
X87630000Y-86360000D03*
%TO.P,U1,29,SPIIO7/GPIO36/FSPICLK*%
%TO.N,unconnected-(U1-SPIIO7{slash}GPIO36{slash}FSPICLK-Pad29)*%
X87630000Y-85090000D03*
%TO.P,U1,30,SPIDQS/GPIO37/FSPIQ*%
%TO.N,unconnected-(U1-SPIDQS{slash}GPIO37{slash}FSPIQ-Pad30)*%
X87630000Y-83820000D03*
%TO.P,U1,31,GPIO38/FSPIWP*%
%TO.N,unconnected-(U1-GPIO38{slash}FSPIWP-Pad31)*%
X87630000Y-82550000D03*
%TO.P,U1,32,MTCK/GPIO39/CLK_OUT3*%
%TO.N,unconnected-(U1-MTCK{slash}GPIO39{slash}CLK_OUT3-Pad32)*%
X87630000Y-81280000D03*
%TO.P,U1,33,MTDO/GPIO40/CLK_OUT2*%
%TO.N,unconnected-(U1-MTDO{slash}GPIO40{slash}CLK_OUT2-Pad33)*%
X87630000Y-80010000D03*
%TO.P,U1,34,MTDI/GPIO41/CLK_OUT1*%
%TO.N,unconnected-(U1-MTDI{slash}GPIO41{slash}CLK_OUT1-Pad34)*%
X87630000Y-78740000D03*
%TO.P,U1,35,MTMS/GPIO42*%
%TO.N,unconnected-(U1-MTMS{slash}GPIO42-Pad35)*%
X87630000Y-77470000D03*
%TO.P,U1,36,U0RXD/GPIO44/CLK_OUT2*%
%TO.N,Programming_RX*%
X87630000Y-76200000D03*
%TO.P,U1,37,U0TXD/GPIO43/CLK_OUT1*%
%TO.N,Programming_TX*%
X87630000Y-74930000D03*
%TO.P,U1,38,GPIO2/TOUCH2/ADC1_CH1*%
%TO.N,unconnected-(U1-GPIO2{slash}TOUCH2{slash}ADC1_CH1-Pad38)*%
X87630000Y-73660000D03*
%TO.P,U1,39,GPIO1/TOUCH1/ADC1_CH0*%
%TO.N,unconnected-(U1-GPIO1{slash}TOUCH1{slash}ADC1_CH0-Pad39)*%
X87630000Y-72390000D03*
%TO.P,U1,40,GND*%
%TO.N,GND*%
X87630000Y-71120000D03*
D30*
%TO.P,U1,41,GND*%
X99280000Y-80240000D03*
X99280000Y-78840000D03*
X99280000Y-77440000D03*
X97880000Y-80240000D03*
X97880000Y-78840000D03*
X97880000Y-77440000D03*
X96480000Y-80240000D03*
X96480000Y-78840000D03*
X96480000Y-77440000D03*
%TD*%
D23*
%TO.P,R1,1*%
%TO.N,WiFi_On{slash}Off*%
X90710000Y-95250000D03*
%TO.P,R1,2*%
%TO.N,VDD33*%
X92710000Y-95250000D03*
%TD*%
D31*
%TO.P,SW2,1,1*%
%TO.N,VBUS*%
X72810000Y-102490000D03*
X67310000Y-102490000D03*
%TO.P,SW2,2,2*%
%TO.N,MOTOR_CTRL_MCU_BACKUP*%
X72810000Y-104490000D03*
X67310000Y-104490000D03*
%TO.P,SW2,3,3*%
%TO.N,Net-(R2-Pad1)*%
X72810000Y-108490000D03*
X67310000Y-108490000D03*
%TO.P,SW2,4,4*%
%TO.N,MOTOR_CTRL_MCU*%
X72810000Y-110490000D03*
X67310000Y-110490000D03*
%TD*%
D19*
%TO.P,R8,1*%
%TO.N,Net-(D2-R)*%
X135890000Y-107950000D03*
%TO.P,R8,2*%
%TO.N,LED_R*%
X133890000Y-107950000D03*
%TD*%
D32*
%TO.P,Q1,1,B*%
%TO.N,Net-(Q1-B)*%
X132745000Y-92390000D03*
%TO.P,Q1,2,E*%
%TO.N,Net-(D1-K)*%
X132745000Y-90490000D03*
%TO.P,Q1,3,C*%
%TO.N,VBUS*%
X134620000Y-91440000D03*
%TD*%
D19*
%TO.P,R3,1*%
%TO.N,VDD33*%
X104140000Y-92710000D03*
%TO.P,R3,2*%
%TO.N,SDA*%
X102140000Y-92710000D03*
%TD*%
D33*
%TO.P,U2,1,CE*%
%TO.N,Net-(SW4-B)*%
X132660000Y-69620000D03*
D34*
%TO.P,U2,2,GND*%
%TO.N,GND*%
X130810000Y-71120000D03*
D33*
%TO.P,U2,3,NC*%
%TO.N,unconnected-(U2-NC-Pad3)*%
X132660000Y-72620000D03*
%TO.P,U2,4,Vin*%
%TO.N,VBUS*%
X128960000Y-72620000D03*
%TO.P,U2,5,Vout*%
%TO.N,VDD33*%
X128960000Y-69620000D03*
%TD*%
D19*
%TO.P,R4,1*%
%TO.N,VDD33*%
X104140000Y-96520000D03*
%TO.P,R4,2*%
%TO.N,SCL*%
X102140000Y-96520000D03*
%TD*%
D20*
%TO.P,C4,1*%
%TO.N,GND*%
X125730000Y-73660000D03*
%TO.P,C4,2*%
%TO.N,VDD33*%
X123655000Y-73660000D03*
%TD*%
D19*
%TO.P,R6,1*%
%TO.N,Net-(D2-B)*%
X135890000Y-97790000D03*
%TO.P,R6,2*%
%TO.N,LED_B*%
X133890000Y-97790000D03*
%TD*%
D35*
%TO.N,GND*%
X72390000Y-85090000D03*
X119380000Y-69850000D03*
X116840000Y-76200000D03*
X109220000Y-76200000D03*
X83820000Y-72390000D03*
X107950000Y-71120000D03*
X93980000Y-73660000D03*
X127000000Y-88900000D03*
%TO.N,LED_B*%
X111261600Y-82084600D03*
X115038600Y-82679700D03*
%TO.N,EN*%
X113299100Y-81491500D03*
%TO.N,VDD33*%
X143765900Y-100015000D03*
X104788200Y-94619600D03*
X93915600Y-94676500D03*
X121240500Y-87884600D03*
%TO.N,VBUS*%
X133117200Y-87668700D03*
%TO.N,WiFi_On{slash}Off*%
X95849800Y-92719400D03*
X99749400Y-94338500D03*
%TD*%
D36*
%TO.N,Programming_TX*%
X68471800Y-90441800D02*
X68471800Y-90809000D01*
X83983600Y-74930000D02*
X68471800Y-90441800D01*
X87630000Y-74930000D02*
X83983600Y-74930000D01*
X67296700Y-90809000D02*
X68471800Y-90809000D01*
%TO.N,Programming_RX*%
X68471800Y-92983700D02*
X68471800Y-93349000D01*
X69376500Y-92079000D02*
X68471800Y-92983700D01*
X70251300Y-92079000D02*
X69376500Y-92079000D01*
X71074300Y-91256000D02*
X70251300Y-92079000D01*
X71074300Y-90435900D02*
X71074300Y-91256000D01*
X85310200Y-76200000D02*
X71074300Y-90435900D01*
X87630000Y-76200000D02*
X85310200Y-76200000D01*
X67296700Y-93349000D02*
X68471800Y-93349000D01*
%TO.N,Boot_Button*%
X79270800Y-87630000D02*
X73551800Y-93349000D01*
X87630000Y-87630000D02*
X79270800Y-87630000D01*
X72376700Y-93349000D02*
X73551800Y-93349000D01*
%TO.N,GPIO2*%
X65734800Y-89860700D02*
X74220000Y-81375500D01*
X65734800Y-103313600D02*
X65734800Y-89860700D01*
X65836400Y-103415200D02*
X65734800Y-103313600D01*
X79096800Y-103415200D02*
X65836400Y-103415200D01*
X84090000Y-98422000D02*
X79096800Y-103415200D01*
X84090000Y-97161800D02*
X84090000Y-98422000D01*
X91296700Y-89955100D02*
X84090000Y-97161800D01*
X94475000Y-89955100D02*
X91296700Y-89955100D01*
X94475000Y-88880000D02*
X94475000Y-89955100D01*
%TO.N,GPIO1*%
X82710700Y-70344800D02*
X74220000Y-78835500D01*
X88582900Y-70344800D02*
X82710700Y-70344800D01*
X94475000Y-76236900D02*
X88582900Y-70344800D01*
X94475000Y-80180900D02*
X94475000Y-76236900D01*
X95745000Y-81450900D02*
X94475000Y-80180900D01*
X95745000Y-88880000D02*
X95745000Y-81450900D01*
%TO.N,LED_R*%
X105130000Y-74930000D02*
X106205100Y-74930000D01*
X120108600Y-94168600D02*
X133890000Y-107950000D01*
X120108600Y-89326300D02*
X120108600Y-94168600D01*
X112574000Y-81791700D02*
X120108600Y-89326300D01*
X112574000Y-81298900D02*
X112574000Y-81791700D01*
X106205100Y-74930000D02*
X112574000Y-81298900D01*
%TO.N,LED_G*%
X105130000Y-76200000D02*
X106205100Y-76200000D01*
X106402500Y-76200000D02*
X106205100Y-76200000D01*
X111986700Y-81784200D02*
X106402500Y-76200000D01*
X111986700Y-90982200D02*
X111986700Y-81784200D01*
X129997100Y-108992600D02*
X111986700Y-90982200D01*
X134462700Y-108992600D02*
X129997100Y-108992600D01*
X134816200Y-108639100D02*
X134462700Y-108992600D01*
X134816200Y-103908500D02*
X134816200Y-108639100D01*
X133777700Y-102870000D02*
X134816200Y-103908500D01*
%TO.N,LED_B*%
X106647000Y-77470000D02*
X111261600Y-82084600D01*
X105130000Y-77470000D02*
X106647000Y-77470000D01*
X126155800Y-97790000D02*
X133890000Y-97790000D01*
X120970100Y-92604300D02*
X126155800Y-97790000D01*
X120970100Y-88639500D02*
X120970100Y-92604300D01*
X115038600Y-82708000D02*
X120970100Y-88639500D01*
X115038600Y-82679700D02*
X115038600Y-82708000D01*
%TO.N,Net-(R2-Pad1)*%
X67310000Y-108490000D02*
X72810000Y-108490000D01*
X82550000Y-108490000D02*
X90710000Y-100330000D01*
X72810000Y-108490000D02*
X82550000Y-108490000D01*
%TO.N,Net-(D1-K)*%
X131547900Y-92176900D02*
X122788500Y-92176900D01*
X132745000Y-90979800D02*
X131547900Y-92176900D01*
X132745000Y-90490000D02*
X132745000Y-90979800D01*
X138899800Y-92220200D02*
X139680000Y-91440000D01*
X133985400Y-92220200D02*
X138899800Y-92220200D01*
X132745000Y-90979800D02*
X133985400Y-92220200D01*
X148087300Y-90564900D02*
X153062000Y-85590200D01*
X139680000Y-90564900D02*
X148087300Y-90564900D01*
X139680000Y-91440000D02*
X139680000Y-90564900D01*
%TO.N,unconnected-(SW4-C-Pad3)*%
X232450000Y-105735700D02*
X232450000Y-111235700D01*
%TO.N,SCL*%
X100825000Y-77624600D02*
X100825000Y-88880000D01*
X93086500Y-69886100D02*
X100825000Y-77624600D01*
X81599200Y-69886100D02*
X93086500Y-69886100D01*
X72950000Y-78535300D02*
X81599200Y-69886100D01*
X72950000Y-80105500D02*
X72950000Y-78535300D01*
X71680000Y-81375500D02*
X72950000Y-80105500D01*
X100825000Y-95205000D02*
X102140000Y-96520000D01*
X100825000Y-88880000D02*
X100825000Y-95205000D01*
%TO.N,SDA*%
X104054900Y-76146000D02*
X101246600Y-73337700D01*
X104054900Y-85090000D02*
X104054900Y-76146000D01*
X105180900Y-69403400D02*
X101246600Y-73337700D01*
X109673500Y-69403400D02*
X105180900Y-69403400D01*
X112057300Y-67019600D02*
X109673500Y-69403400D01*
X222174500Y-67019600D02*
X112057300Y-67019600D01*
X234137800Y-78982900D02*
X222174500Y-67019600D01*
X81079600Y-69435900D02*
X71680000Y-78835500D01*
X97344800Y-69435900D02*
X81079600Y-69435900D01*
X101246600Y-73337700D02*
X97344800Y-69435900D01*
X104705000Y-85090000D02*
X104054900Y-85090000D01*
X104705000Y-85090000D02*
X105130000Y-85090000D01*
X106205100Y-88644900D02*
X102140000Y-92710000D01*
X106205100Y-85090000D02*
X106205100Y-88644900D01*
X105130000Y-85090000D02*
X106205100Y-85090000D01*
%TO.N,EN*%
X72011400Y-91984100D02*
X72376700Y-91984100D01*
X71195500Y-92800000D02*
X72011400Y-91984100D01*
X71195500Y-93837700D02*
X71195500Y-92800000D01*
X75147800Y-97790000D02*
X71195500Y-93837700D01*
X83090000Y-97790000D02*
X75147800Y-97790000D01*
X72376700Y-90809000D02*
X72376700Y-91984100D01*
X114300000Y-78740000D02*
X113606800Y-78740000D01*
X113606800Y-78480100D02*
X113606800Y-78740000D01*
X108786700Y-73660000D02*
X113606800Y-78480100D01*
X105130000Y-73660000D02*
X108786700Y-73660000D01*
X113606800Y-81183800D02*
X113299100Y-81491500D01*
X113606800Y-78740000D02*
X113606800Y-81183800D01*
%TO.N,Net-(SW4-B)*%
X234950000Y-105735700D02*
X234950000Y-111235700D01*
X200409400Y-69620000D02*
X234950000Y-104160600D01*
X132660000Y-69620000D02*
X200409400Y-69620000D01*
X234950000Y-105735700D02*
X234950000Y-104160600D01*
%TO.N,VDD33*%
X114300000Y-71120000D02*
X113030000Y-72390000D01*
X114300000Y-68580000D02*
X114300000Y-71120000D01*
X105130000Y-72390000D02*
X113030000Y-72390000D01*
X113030000Y-72390000D02*
X114300000Y-73660000D01*
X90170000Y-97790000D02*
X85090000Y-97790000D01*
X92710000Y-95250000D02*
X90170000Y-97790000D01*
X144462200Y-100015000D02*
X144485900Y-99991300D01*
X143765900Y-100015000D02*
X144462200Y-100015000D01*
X145511000Y-99991300D02*
X144485900Y-99991300D01*
X104140000Y-95267800D02*
X104140000Y-96520000D01*
X104788200Y-94619600D02*
X104140000Y-95267800D01*
X104140000Y-93971400D02*
X104140000Y-92710000D01*
X104788200Y-94619600D02*
X104140000Y-93971400D01*
X128422500Y-69620000D02*
X127884900Y-69620000D01*
X128422500Y-69620000D02*
X128960000Y-69620000D01*
X220472600Y-68944800D02*
X230510700Y-78982900D01*
X130710300Y-68944800D02*
X220472600Y-68944800D01*
X130035100Y-69620000D02*
X130710300Y-68944800D01*
X128960000Y-69620000D02*
X130035100Y-69620000D01*
X231597800Y-78982900D02*
X230510700Y-78982900D01*
X93283500Y-94676500D02*
X92710000Y-95250000D01*
X93915600Y-94676500D02*
X93283500Y-94676500D01*
X124692500Y-72622500D02*
X123655000Y-73660000D01*
X124692500Y-67978100D02*
X124692500Y-72622500D01*
X125171300Y-67499300D02*
X124692500Y-67978100D01*
X126281100Y-67499300D02*
X125171300Y-67499300D01*
X127884900Y-69103100D02*
X126281100Y-67499300D01*
X127884900Y-69620000D02*
X127884900Y-69103100D01*
X121240500Y-73660000D02*
X121240500Y-87884600D01*
X123655000Y-73660000D02*
X121240500Y-73660000D01*
X121240500Y-73660000D02*
X114300000Y-73660000D01*
%TO.N,Net-(Q1-B)*%
X92710000Y-106260000D02*
X92710000Y-111760000D01*
X138944500Y-113335100D02*
X92710000Y-113335100D01*
X151736200Y-100543400D02*
X138944500Y-113335100D01*
X151736200Y-97977900D02*
X151736200Y-100543400D01*
X146811900Y-93053600D02*
X151736200Y-97977900D01*
X133408600Y-93053600D02*
X146811900Y-93053600D01*
X132745000Y-92390000D02*
X133408600Y-93053600D01*
X92710000Y-111760000D02*
X92710000Y-113335100D01*
%TO.N,MOTOR_CTRL_MCU_BACKUP*%
X67310000Y-104490000D02*
X72810000Y-104490000D01*
X98285000Y-91358700D02*
X98285000Y-88880000D01*
X91518400Y-98125300D02*
X98285000Y-91358700D01*
X91174100Y-98125300D02*
X91518400Y-98125300D01*
X84809400Y-104490000D02*
X91174100Y-98125300D01*
X72810000Y-104490000D02*
X84809400Y-104490000D01*
%TO.N,Net-(SW3-B)*%
X92710000Y-102184900D02*
X90210000Y-104684900D01*
X92710000Y-100330000D02*
X92710000Y-102184900D01*
X90210000Y-105472400D02*
X90210000Y-104684900D01*
X90210000Y-105472400D02*
X90210000Y-106260000D01*
X90210000Y-106260000D02*
X90210000Y-111760000D01*
%TO.N,VBUS*%
X237450000Y-105735700D02*
X237450000Y-111235700D01*
X237450000Y-98292500D02*
X237450000Y-105735700D01*
X224247500Y-85090000D02*
X237450000Y-98292500D01*
X72810000Y-102490000D02*
X71234900Y-102490000D01*
X67310000Y-102490000D02*
X68885100Y-102490000D01*
X127884900Y-70734900D02*
X125730000Y-68580000D01*
X127884900Y-72620000D02*
X127884900Y-70734900D01*
X128960000Y-72620000D02*
X127884900Y-72620000D01*
X128960000Y-72620000D02*
X130035100Y-72620000D01*
X134620000Y-89171500D02*
X133117200Y-87668700D01*
X134620000Y-91440000D02*
X134620000Y-89171500D01*
X133117200Y-75702100D02*
X130035100Y-72620000D01*
X133117200Y-87668700D02*
X133117200Y-75702100D01*
X68885100Y-102490000D02*
X70060000Y-101315100D01*
X69836700Y-101091800D02*
X70060000Y-101315100D01*
X69836700Y-93349000D02*
X69836700Y-101091800D01*
X70060000Y-101315100D02*
X71234900Y-102490000D01*
%TO.N,unconnected-(SW1-A-Pad1)*%
X110490000Y-106260000D02*
X110490000Y-111760000D01*
%TO.N,Net-(D2-B)*%
X136450000Y-97230000D02*
X135890000Y-97790000D01*
X149775100Y-97230000D02*
X136450000Y-97230000D01*
X150711000Y-98165900D02*
X149775100Y-97230000D01*
X150711000Y-98541300D02*
X150711000Y-98165900D01*
%TO.N,MOTOR_CTRL_MCU*%
X67310000Y-110490000D02*
X72810000Y-110490000D01*
X99555000Y-91864200D02*
X99555000Y-88880000D01*
X91710000Y-99709200D02*
X99555000Y-91864200D01*
X91710000Y-101971600D02*
X91710000Y-99709200D01*
X88635200Y-105046400D02*
X91710000Y-101971600D01*
X88635200Y-107697600D02*
X88635200Y-105046400D01*
X85842800Y-110490000D02*
X88635200Y-107697600D01*
X72810000Y-110490000D02*
X85842800Y-110490000D01*
%TO.N,Net-(D2-G)*%
X140106400Y-98541300D02*
X135777700Y-102870000D01*
X145511000Y-98541300D02*
X140106400Y-98541300D01*
%TO.N,WiFi_On{slash}Off*%
X97015000Y-88880000D02*
X97015000Y-89842500D01*
X107990000Y-111760000D02*
X107990000Y-106260000D01*
X107990000Y-106260000D02*
X107990000Y-104684900D01*
X94994000Y-91863500D02*
X95849800Y-92719400D01*
X97015000Y-89842500D02*
X94994000Y-91863500D01*
X92250100Y-93709900D02*
X90710000Y-95250000D01*
X93147600Y-93709900D02*
X92250100Y-93709900D01*
X94994000Y-91863500D02*
X93147600Y-93709900D01*
X99749400Y-96444300D02*
X107990000Y-104684900D01*
X99749400Y-94338500D02*
X99749400Y-96444300D01*
%TO.N,Net-(D2-R)*%
X143181200Y-107950000D02*
X135890000Y-107950000D01*
X150711000Y-100420200D02*
X143181200Y-107950000D01*
X150711000Y-99991300D02*
X150711000Y-100420200D01*
%TD*%
%TA.AperFunction,Conductor*%
%TO.N,GND*%
G36*
X84998924Y-62863583D02*
G01*
X85044242Y-62908366D01*
X85061341Y-62969741D01*
X85062341Y-63053793D01*
X85128648Y-68629881D01*
X85129208Y-68676926D01*
X85113092Y-68739547D01*
X85067642Y-68785541D01*
X85005217Y-68802400D01*
X81163233Y-68802400D01*
X81142490Y-68800110D01*
X81071569Y-68802339D01*
X81067674Y-68802400D01*
X81039741Y-68802400D01*
X81035637Y-68802918D01*
X81024005Y-68803833D01*
X80979710Y-68805225D01*
X80960101Y-68810922D01*
X80941061Y-68814865D01*
X80920805Y-68817425D01*
X80879605Y-68833736D01*
X80868561Y-68837517D01*
X80826010Y-68849881D01*
X80826007Y-68849882D01*
X80808427Y-68860277D01*
X80790970Y-68868830D01*
X80771978Y-68876349D01*
X80736134Y-68902391D01*
X80726377Y-68908801D01*
X80688238Y-68931357D01*
X80673800Y-68945795D01*
X80659011Y-68958425D01*
X80642494Y-68970425D01*
X80614244Y-69004573D01*
X80606383Y-69013211D01*
X72061403Y-77558190D01*
X72005816Y-77590284D01*
X71941629Y-77590284D01*
X71901461Y-77579521D01*
X71679999Y-77560146D01*
X71458539Y-77579521D01*
X71243802Y-77637060D01*
X71042323Y-77731012D01*
X70860218Y-77858523D01*
X70703023Y-78015718D01*
X70636075Y-78111331D01*
X70588858Y-78151658D01*
X70528010Y-78164038D01*
X70468790Y-78145366D01*
X70426047Y-78100324D01*
X70410500Y-78040208D01*
X70410500Y-78024866D01*
X70408464Y-78005926D01*
X70403989Y-77964299D01*
X70403988Y-77964297D01*
X70403988Y-77964294D01*
X70352889Y-77827296D01*
X70265261Y-77710238D01*
X70148203Y-77622610D01*
X70011205Y-77571511D01*
X69980919Y-77568255D01*
X69950638Y-77565000D01*
X68329362Y-77565000D01*
X68302445Y-77567893D01*
X68268794Y-77571511D01*
X68131796Y-77622610D01*
X68014738Y-77710238D01*
X67927110Y-77827296D01*
X67876011Y-77964294D01*
X67872455Y-77997377D01*
X67869500Y-78024862D01*
X67869500Y-79646138D01*
X67871715Y-79666742D01*
X67876011Y-79706705D01*
X67927110Y-79843703D01*
X68014738Y-79960761D01*
X68131796Y-80048389D01*
X68268794Y-80099488D01*
X68268797Y-80099488D01*
X68268799Y-80099489D01*
X68329362Y-80106000D01*
X68329366Y-80106000D01*
X68359525Y-80106000D01*
X68419641Y-80121547D01*
X68464683Y-80164290D01*
X68483355Y-80223511D01*
X68470975Y-80284358D01*
X68442324Y-80317903D01*
X68441811Y-80323758D01*
X69140000Y-81021946D01*
X69140001Y-81021946D01*
X69838187Y-80323758D01*
X69837675Y-80317905D01*
X69809023Y-80284358D01*
X69796644Y-80223510D01*
X69815316Y-80164290D01*
X69860358Y-80121547D01*
X69920474Y-80106000D01*
X69950634Y-80106000D01*
X69950638Y-80106000D01*
X70011201Y-80099489D01*
X70011203Y-80099488D01*
X70011205Y-80099488D01*
X70091333Y-80069601D01*
X70148204Y-80048389D01*
X70265261Y-79960761D01*
X70352889Y-79843704D01*
X70377324Y-79778192D01*
X70403988Y-79706705D01*
X70403988Y-79706703D01*
X70403989Y-79706701D01*
X70410500Y-79646138D01*
X70410500Y-79630792D01*
X70426047Y-79570676D01*
X70468790Y-79525634D01*
X70528010Y-79506962D01*
X70588858Y-79519342D01*
X70636073Y-79559668D01*
X70703023Y-79655281D01*
X70860219Y-79812477D01*
X71042323Y-79939988D01*
X71114188Y-79973499D01*
X71156260Y-79993118D01*
X71208436Y-80038875D01*
X71227855Y-80105500D01*
X71208436Y-80172125D01*
X71156260Y-80217882D01*
X71042323Y-80271012D01*
X70860218Y-80398523D01*
X70703023Y-80555718D01*
X70575513Y-80737821D01*
X70517692Y-80861818D01*
X70471934Y-80913993D01*
X70405309Y-80933412D01*
X70338684Y-80913992D01*
X70292928Y-80861816D01*
X70237099Y-80742090D01*
X70191740Y-80677311D01*
X69493553Y-81375500D01*
X69493553Y-81375501D01*
X70191740Y-82073686D01*
X70237097Y-82008912D01*
X70292927Y-81889184D01*
X70338684Y-81837008D01*
X70405309Y-81817588D01*
X70471934Y-81837007D01*
X70517692Y-81889183D01*
X70529731Y-81915000D01*
X70575512Y-82013177D01*
X70703023Y-82195281D01*
X70860219Y-82352477D01*
X71042323Y-82479988D01*
X71243804Y-82573940D01*
X71458537Y-82631478D01*
X71569268Y-82641165D01*
X71679998Y-82650853D01*
X71679998Y-82650852D01*
X71680000Y-82650853D01*
X71744705Y-82645192D01*
X71803962Y-82654577D01*
X71851878Y-82690684D01*
X71877234Y-82745059D01*
X71874094Y-82804974D01*
X71843193Y-82856401D01*
X65345980Y-89353613D01*
X65329696Y-89366661D01*
X65281139Y-89418368D01*
X65278433Y-89421161D01*
X65258661Y-89440933D01*
X65256121Y-89444208D01*
X65248552Y-89453069D01*
X65218214Y-89485377D01*
X65208382Y-89503263D01*
X65197701Y-89519523D01*
X65185185Y-89535659D01*
X65167586Y-89576328D01*
X65162448Y-89586817D01*
X65141103Y-89625643D01*
X65136026Y-89645418D01*
X65129725Y-89663823D01*
X65121618Y-89682556D01*
X65114688Y-89726310D01*
X65112320Y-89737746D01*
X65101300Y-89780670D01*
X65101300Y-89801084D01*
X65099773Y-89820483D01*
X65096580Y-89840641D01*
X65100750Y-89884757D01*
X65101300Y-89896426D01*
X65101300Y-103229967D01*
X65099010Y-103250708D01*
X65101239Y-103321617D01*
X65101300Y-103325513D01*
X65101300Y-103353455D01*
X65101818Y-103357556D01*
X65102734Y-103369197D01*
X65104126Y-103413488D01*
X65109822Y-103433092D01*
X65113767Y-103452144D01*
X65116325Y-103472398D01*
X65132638Y-103513601D01*
X65136421Y-103524649D01*
X65148782Y-103567193D01*
X65159174Y-103584766D01*
X65167731Y-103602233D01*
X65175248Y-103621218D01*
X65201291Y-103657063D01*
X65207705Y-103666827D01*
X65230258Y-103704962D01*
X65244690Y-103719394D01*
X65257326Y-103734189D01*
X65269326Y-103750705D01*
X65269327Y-103750706D01*
X65269328Y-103750707D01*
X65303459Y-103778942D01*
X65312100Y-103786805D01*
X65329315Y-103804020D01*
X65342356Y-103820298D01*
X65344399Y-103822216D01*
X65344400Y-103822218D01*
X65377161Y-103852982D01*
X65394068Y-103868859D01*
X65396864Y-103871569D01*
X65416630Y-103891335D01*
X65419911Y-103893880D01*
X65428770Y-103901447D01*
X65461079Y-103931786D01*
X65478964Y-103941618D01*
X65495227Y-103952301D01*
X65503501Y-103958719D01*
X65538855Y-104002146D01*
X65551500Y-104056698D01*
X65551500Y-105138634D01*
X65558011Y-105199205D01*
X65609110Y-105336203D01*
X65696738Y-105453261D01*
X65813796Y-105540889D01*
X65950794Y-105591988D01*
X65950797Y-105591988D01*
X65950799Y-105591989D01*
X66011362Y-105598500D01*
X68608634Y-105598500D01*
X68608638Y-105598500D01*
X68669201Y-105591989D01*
X68669203Y-105591988D01*
X68669205Y-105591988D01*
X68747124Y-105562924D01*
X68806204Y-105540889D01*
X68923261Y-105453261D01*
X69010889Y-105336204D01*
X69029682Y-105285818D01*
X69060138Y-105204166D01*
X69086576Y-105161930D01*
X69127507Y-105133512D01*
X69176319Y-105123500D01*
X70943681Y-105123500D01*
X70992493Y-105133512D01*
X71033424Y-105161930D01*
X71059862Y-105204166D01*
X71109110Y-105336203D01*
X71196738Y-105453261D01*
X71313796Y-105540889D01*
X71450794Y-105591988D01*
X71450797Y-105591988D01*
X71450799Y-105591989D01*
X71511362Y-105598500D01*
X74108634Y-105598500D01*
X74108638Y-105598500D01*
X74169201Y-105591989D01*
X74169203Y-105591988D01*
X74169205Y-105591988D01*
X74247124Y-105562924D01*
X74306204Y-105540889D01*
X74423261Y-105453261D01*
X74510889Y-105336204D01*
X74529682Y-105285818D01*
X74560138Y-105204166D01*
X74586576Y-105161930D01*
X74627507Y-105133512D01*
X74676319Y-105123500D01*
X84721233Y-105123500D01*
X84777528Y-105137015D01*
X84821551Y-105174615D01*
X84843706Y-105228102D01*
X84839164Y-105285818D01*
X84808914Y-105335181D01*
X82323914Y-107820181D01*
X82283686Y-107847061D01*
X82236233Y-107856500D01*
X74676319Y-107856500D01*
X74627507Y-107846488D01*
X74586576Y-107818070D01*
X74560138Y-107775834D01*
X74510889Y-107643796D01*
X74423261Y-107526738D01*
X74306203Y-107439110D01*
X74169205Y-107388011D01*
X74138919Y-107384755D01*
X74108638Y-107381500D01*
X71511362Y-107381500D01*
X71484445Y-107384393D01*
X71450794Y-107388011D01*
X71313796Y-107439110D01*
X71196738Y-107526738D01*
X71109110Y-107643796D01*
X71059862Y-107775834D01*
X71033424Y-107818070D01*
X70992493Y-107846488D01*
X70943681Y-107856500D01*
X69176319Y-107856500D01*
X69127507Y-107846488D01*
X69086576Y-107818070D01*
X69060138Y-107775834D01*
X69010889Y-107643796D01*
X68923261Y-107526738D01*
X68806203Y-107439110D01*
X68669205Y-107388011D01*
X68638919Y-107384755D01*
X68608638Y-107381500D01*
X66011362Y-107381500D01*
X65984445Y-107384393D01*
X65950794Y-107388011D01*
X65813796Y-107439110D01*
X65696738Y-107526738D01*
X65609110Y-107643796D01*
X65558011Y-107780794D01*
X65557154Y-107788767D01*
X65551500Y-107841362D01*
X65551500Y-109138638D01*
X65553432Y-109156607D01*
X65558011Y-109199205D01*
X65609110Y-109336203D01*
X65668613Y-109415690D01*
X65690512Y-109463642D01*
X65690512Y-109516358D01*
X65668613Y-109564310D01*
X65609110Y-109643796D01*
X65558011Y-109780794D01*
X65557041Y-109789819D01*
X65551735Y-109839182D01*
X65551500Y-109841366D01*
X65551500Y-111138634D01*
X65558011Y-111199205D01*
X65609110Y-111336203D01*
X65696738Y-111453261D01*
X65813796Y-111540889D01*
X65950794Y-111591988D01*
X65950797Y-111591988D01*
X65950799Y-111591989D01*
X66011362Y-111598500D01*
X68608634Y-111598500D01*
X68608638Y-111598500D01*
X68669201Y-111591989D01*
X68669203Y-111591988D01*
X68669205Y-111591988D01*
X68747124Y-111562924D01*
X68806204Y-111540889D01*
X68923261Y-111453261D01*
X69010889Y-111336204D01*
X69025688Y-111296525D01*
X69060138Y-111204166D01*
X69086576Y-111161930D01*
X69127507Y-111133512D01*
X69176319Y-111123500D01*
X70943681Y-111123500D01*
X70992493Y-111133512D01*
X71033424Y-111161930D01*
X71059862Y-111204166D01*
X71109110Y-111336203D01*
X71196738Y-111453261D01*
X71313796Y-111540889D01*
X71450794Y-111591988D01*
X71450797Y-111591988D01*
X71450799Y-111591989D01*
X71511362Y-111598500D01*
X74108634Y-111598500D01*
X74108638Y-111598500D01*
X74169201Y-111591989D01*
X74169203Y-111591988D01*
X74169205Y-111591988D01*
X74247124Y-111562924D01*
X74306204Y-111540889D01*
X74423261Y-111453261D01*
X74510889Y-111336204D01*
X74525688Y-111296525D01*
X74560138Y-111204166D01*
X74586576Y-111161930D01*
X74627507Y-111133512D01*
X74676319Y-111123500D01*
X85759167Y-111123500D01*
X85779908Y-111125789D01*
X85782705Y-111125701D01*
X85782709Y-111125702D01*
X85850817Y-111123560D01*
X85854713Y-111123500D01*
X85882654Y-111123500D01*
X85882656Y-111123500D01*
X85886756Y-111122981D01*
X85898406Y-111122064D01*
X85942689Y-111120673D01*
X85962298Y-111114975D01*
X85981331Y-111111033D01*
X86001597Y-111108474D01*
X86042806Y-111092157D01*
X86053837Y-111088380D01*
X86096393Y-111076018D01*
X86113960Y-111065628D01*
X86131432Y-111057068D01*
X86150417Y-111049552D01*
X86186275Y-111023498D01*
X86196023Y-111017096D01*
X86234162Y-110994542D01*
X86248600Y-110980103D01*
X86263388Y-110967472D01*
X86279907Y-110955472D01*
X86308159Y-110921319D01*
X86315993Y-110912709D01*
X86389822Y-110838880D01*
X86439183Y-110808634D01*
X86496898Y-110804092D01*
X86550386Y-110826247D01*
X86587985Y-110870270D01*
X86601500Y-110926565D01*
X86601500Y-113058634D01*
X86608011Y-113119205D01*
X86659110Y-113256203D01*
X86746738Y-113373261D01*
X86863796Y-113460889D01*
X87000794Y-113511988D01*
X87000797Y-113511988D01*
X87000799Y-113511989D01*
X87061362Y-113518500D01*
X88358634Y-113518500D01*
X88358638Y-113518500D01*
X88419201Y-113511989D01*
X88419203Y-113511988D01*
X88419205Y-113511988D01*
X88497124Y-113482924D01*
X88556204Y-113460889D01*
X88673261Y-113373261D01*
X88760889Y-113256204D01*
X88811989Y-113119201D01*
X88818500Y-113058638D01*
X88818500Y-110461362D01*
X88811989Y-110400799D01*
X88811988Y-110400797D01*
X88811988Y-110400794D01*
X88760889Y-110263796D01*
X88673261Y-110146738D01*
X88556203Y-110059110D01*
X88419205Y-110008011D01*
X88388919Y-110004755D01*
X88358638Y-110001500D01*
X88358634Y-110001500D01*
X87526566Y-110001500D01*
X87470271Y-109987985D01*
X87426248Y-109950385D01*
X87404093Y-109896898D01*
X87408635Y-109839182D01*
X87438885Y-109789819D01*
X88229676Y-108999028D01*
X89024018Y-108204685D01*
X89040297Y-108191644D01*
X89042214Y-108189602D01*
X89042218Y-108189600D01*
X89088891Y-108139896D01*
X89091539Y-108137164D01*
X89111335Y-108117370D01*
X89113879Y-108114088D01*
X89121451Y-108105224D01*
X89151786Y-108072921D01*
X89161619Y-108055032D01*
X89172300Y-108038772D01*
X89184814Y-108022641D01*
X89186411Y-108018948D01*
X89219279Y-107974245D01*
X89268353Y-107948352D01*
X89323806Y-107946452D01*
X89346416Y-107956469D01*
X89347092Y-107954659D01*
X89495834Y-108010138D01*
X89538070Y-108036576D01*
X89566488Y-108077507D01*
X89576500Y-108126319D01*
X89576500Y-109893681D01*
X89566488Y-109942493D01*
X89538070Y-109983424D01*
X89495834Y-110009862D01*
X89363796Y-110059110D01*
X89246738Y-110146738D01*
X89159110Y-110263796D01*
X89108011Y-110400794D01*
X89101500Y-110461366D01*
X89101500Y-113058634D01*
X89108011Y-113119205D01*
X89159110Y-113256203D01*
X89246738Y-113373261D01*
X89363796Y-113460889D01*
X89500794Y-113511988D01*
X89500797Y-113511988D01*
X89500799Y-113511989D01*
X89561362Y-113518500D01*
X90858634Y-113518500D01*
X90858638Y-113518500D01*
X90919201Y-113511989D01*
X90919203Y-113511988D01*
X90919205Y-113511988D01*
X90997124Y-113482924D01*
X91056204Y-113460889D01*
X91173261Y-113373261D01*
X91260889Y-113256204D01*
X91311989Y-113119201D01*
X91318500Y-113058638D01*
X91318500Y-110461362D01*
X91311989Y-110400799D01*
X91311988Y-110400797D01*
X91311988Y-110400794D01*
X91260889Y-110263796D01*
X91173261Y-110146738D01*
X91056203Y-110059110D01*
X90924166Y-110009862D01*
X90881930Y-109983424D01*
X90853512Y-109942493D01*
X90843500Y-109893681D01*
X90843500Y-108126319D01*
X90853512Y-108077507D01*
X90881930Y-108036576D01*
X90924166Y-108010138D01*
X91016525Y-107975688D01*
X91056204Y-107960889D01*
X91173261Y-107873261D01*
X91260889Y-107756204D01*
X91282924Y-107697124D01*
X91311988Y-107619205D01*
X91311988Y-107619203D01*
X91311989Y-107619201D01*
X91318500Y-107558638D01*
X91318500Y-104961362D01*
X91311989Y-104900799D01*
X91311988Y-104900797D01*
X91311988Y-104900794D01*
X91260890Y-104763799D01*
X91260889Y-104763796D01*
X91225149Y-104716054D01*
X91202135Y-104662309D01*
X91206306Y-104603990D01*
X91236735Y-104554067D01*
X93098818Y-102691985D01*
X93115097Y-102678944D01*
X93117014Y-102676902D01*
X93117018Y-102676900D01*
X93163691Y-102627196D01*
X93166339Y-102624464D01*
X93186135Y-102604670D01*
X93188679Y-102601388D01*
X93196251Y-102592524D01*
X93226586Y-102560221D01*
X93236419Y-102542332D01*
X93247100Y-102526072D01*
X93259614Y-102509941D01*
X93277207Y-102469281D01*
X93282343Y-102458795D01*
X93303695Y-102419960D01*
X93308773Y-102400177D01*
X93315070Y-102381785D01*
X93323181Y-102363045D01*
X93330112Y-102319276D01*
X93332478Y-102307853D01*
X93343500Y-102264930D01*
X93343500Y-102244516D01*
X93345027Y-102225117D01*
X93347262Y-102211004D01*
X93348220Y-102204957D01*
X93344050Y-102160843D01*
X93343500Y-102149174D01*
X93343500Y-101565524D01*
X93359223Y-101505092D01*
X93402401Y-101459986D01*
X93533652Y-101379030D01*
X93659030Y-101253652D01*
X93752115Y-101102738D01*
X93807887Y-100934426D01*
X93818500Y-100830545D01*
X93818499Y-99829456D01*
X93807887Y-99725574D01*
X93752115Y-99557262D01*
X93659030Y-99406348D01*
X93659029Y-99406347D01*
X93659028Y-99406345D01*
X93533654Y-99280971D01*
X93481955Y-99249083D01*
X93382738Y-99187885D01*
X93382734Y-99187883D01*
X93382733Y-99187883D01*
X93381638Y-99187520D01*
X93371426Y-99180909D01*
X93370402Y-99180277D01*
X93370415Y-99180254D01*
X93329222Y-99153585D01*
X93299990Y-99098409D01*
X93301353Y-99035982D01*
X93332965Y-98982137D01*
X99943816Y-92371286D01*
X99960098Y-92358243D01*
X99962014Y-92356202D01*
X99962018Y-92356200D01*
X99977107Y-92340130D01*
X100026229Y-92308084D01*
X100084585Y-92302197D01*
X100139118Y-92323788D01*
X100177629Y-92368026D01*
X100191500Y-92425014D01*
X100191500Y-93350547D01*
X100179421Y-93403930D01*
X100145536Y-93446913D01*
X100096447Y-93471121D01*
X100041719Y-93471837D01*
X99844889Y-93430000D01*
X99844887Y-93430000D01*
X99653913Y-93430000D01*
X99653911Y-93430000D01*
X99467114Y-93469704D01*
X99292648Y-93547381D01*
X99138148Y-93659633D01*
X99010357Y-93801558D01*
X98914872Y-93966943D01*
X98855858Y-94148570D01*
X98837173Y-94326348D01*
X98835896Y-94338500D01*
X98839963Y-94377194D01*
X98855858Y-94528429D01*
X98914872Y-94710056D01*
X99010357Y-94875441D01*
X99010360Y-94875444D01*
X99084051Y-94957287D01*
X99107664Y-94995819D01*
X99115900Y-95040257D01*
X99115900Y-96360667D01*
X99113610Y-96381408D01*
X99115839Y-96452317D01*
X99115900Y-96456213D01*
X99115900Y-96484155D01*
X99116418Y-96488256D01*
X99117334Y-96499897D01*
X99118726Y-96544188D01*
X99124422Y-96563792D01*
X99128367Y-96582844D01*
X99130925Y-96603098D01*
X99147238Y-96644301D01*
X99151021Y-96655349D01*
X99163382Y-96697893D01*
X99173774Y-96715466D01*
X99182331Y-96732933D01*
X99189848Y-96751918D01*
X99215891Y-96787763D01*
X99222305Y-96797527D01*
X99244858Y-96835662D01*
X99259290Y-96850094D01*
X99271926Y-96864889D01*
X99283926Y-96881405D01*
X99318067Y-96909649D01*
X99326708Y-96917512D01*
X106963261Y-104554065D01*
X106993692Y-104603989D01*
X106997863Y-104662308D01*
X106974848Y-104716055D01*
X106939110Y-104763796D01*
X106888011Y-104900794D01*
X106881500Y-104961366D01*
X106881500Y-107558634D01*
X106888011Y-107619205D01*
X106939110Y-107756203D01*
X107026738Y-107873261D01*
X107143796Y-107960889D01*
X107275834Y-108010138D01*
X107318070Y-108036576D01*
X107346488Y-108077507D01*
X107356500Y-108126319D01*
X107356500Y-109893681D01*
X107346488Y-109942493D01*
X107318070Y-109983424D01*
X107275834Y-110009862D01*
X107143796Y-110059110D01*
X107026738Y-110146738D01*
X106939110Y-110263796D01*
X106888011Y-110400794D01*
X106881500Y-110461366D01*
X106881500Y-112577600D01*
X106864887Y-112639600D01*
X106819500Y-112684987D01*
X106757500Y-112701600D01*
X106714000Y-112701600D01*
X106652000Y-112684987D01*
X106606613Y-112639600D01*
X106590000Y-112577600D01*
X106590000Y-112010000D01*
X104390000Y-112010000D01*
X104390000Y-112577600D01*
X104373387Y-112639600D01*
X104328000Y-112684987D01*
X104266000Y-112701600D01*
X93942500Y-112701600D01*
X93880500Y-112684987D01*
X93835113Y-112639600D01*
X93818500Y-112577600D01*
X93818500Y-111510000D01*
X104390000Y-111510000D01*
X105240000Y-111510000D01*
X105240000Y-110010000D01*
X105740000Y-110010000D01*
X105740000Y-111510000D01*
X106590000Y-111510000D01*
X106590000Y-110462176D01*
X106583597Y-110402624D01*
X106533352Y-110267910D01*
X106447188Y-110152811D01*
X106332089Y-110066647D01*
X106197375Y-110016402D01*
X106137824Y-110010000D01*
X105740000Y-110010000D01*
X105240000Y-110010000D01*
X104842176Y-110010000D01*
X104782624Y-110016402D01*
X104647910Y-110066647D01*
X104532811Y-110152811D01*
X104446647Y-110267910D01*
X104396402Y-110402624D01*
X104390000Y-110462176D01*
X104390000Y-111510000D01*
X93818500Y-111510000D01*
X93818500Y-110461366D01*
X93811988Y-110400794D01*
X93760889Y-110263796D01*
X93673261Y-110146738D01*
X93556203Y-110059110D01*
X93424166Y-110009862D01*
X93381930Y-109983424D01*
X93353512Y-109942493D01*
X93343500Y-109893681D01*
X93343500Y-108126319D01*
X93353512Y-108077507D01*
X93381930Y-108036576D01*
X93424166Y-108010138D01*
X93516525Y-107975688D01*
X93556204Y-107960889D01*
X93673261Y-107873261D01*
X93760889Y-107756204D01*
X93782924Y-107697124D01*
X93811988Y-107619205D01*
X93811988Y-107619203D01*
X93811989Y-107619201D01*
X93818500Y-107558638D01*
X93818500Y-106510000D01*
X104390000Y-106510000D01*
X104390000Y-107557824D01*
X104396402Y-107617375D01*
X104446647Y-107752089D01*
X104532811Y-107867188D01*
X104647910Y-107953352D01*
X104782624Y-108003597D01*
X104842176Y-108010000D01*
X105240000Y-108010000D01*
X105240000Y-106510000D01*
X105740000Y-106510000D01*
X105740000Y-108010000D01*
X106137824Y-108010000D01*
X106197375Y-108003597D01*
X106332089Y-107953352D01*
X106447188Y-107867188D01*
X106533352Y-107752089D01*
X106583597Y-107617375D01*
X106590000Y-107557824D01*
X106590000Y-106510000D01*
X105740000Y-106510000D01*
X105240000Y-106510000D01*
X104390000Y-106510000D01*
X93818500Y-106510000D01*
X93818500Y-106010000D01*
X104390000Y-106010000D01*
X105240000Y-106010000D01*
X105240000Y-104510000D01*
X105740000Y-104510000D01*
X105740000Y-106010000D01*
X106590000Y-106010000D01*
X106590000Y-104962176D01*
X106583597Y-104902624D01*
X106533352Y-104767910D01*
X106447188Y-104652811D01*
X106332089Y-104566647D01*
X106197375Y-104516402D01*
X106137824Y-104510000D01*
X105740000Y-104510000D01*
X105240000Y-104510000D01*
X104842176Y-104510000D01*
X104782624Y-104516402D01*
X104647910Y-104566647D01*
X104532811Y-104652811D01*
X104446647Y-104767910D01*
X104396402Y-104902624D01*
X104390000Y-104962176D01*
X104390000Y-106010000D01*
X93818500Y-106010000D01*
X93818500Y-104961362D01*
X93811989Y-104900799D01*
X93811988Y-104900797D01*
X93811988Y-104900794D01*
X93760889Y-104763796D01*
X93673261Y-104646738D01*
X93556203Y-104559110D01*
X93419205Y-104508011D01*
X93388919Y-104504755D01*
X93358638Y-104501500D01*
X92061362Y-104501500D01*
X92034445Y-104504393D01*
X92000794Y-104508011D01*
X91863796Y-104559110D01*
X91746738Y-104646738D01*
X91659110Y-104763796D01*
X91608011Y-104900794D01*
X91601500Y-104961366D01*
X91601500Y-107558634D01*
X91608011Y-107619205D01*
X91659110Y-107756203D01*
X91746738Y-107873261D01*
X91863796Y-107960889D01*
X91995834Y-108010138D01*
X92038070Y-108036576D01*
X92066488Y-108077507D01*
X92076500Y-108126319D01*
X92076500Y-109893681D01*
X92066488Y-109942493D01*
X92038070Y-109983424D01*
X91995834Y-110009862D01*
X91863796Y-110059110D01*
X91746738Y-110146738D01*
X91659110Y-110263796D01*
X91608011Y-110400794D01*
X91601500Y-110461366D01*
X91601500Y-113058634D01*
X91608011Y-113119205D01*
X91659110Y-113256203D01*
X91746738Y-113373261D01*
X91863796Y-113460889D01*
X92000794Y-113511988D01*
X92000797Y-113511988D01*
X92000799Y-113511989D01*
X92025155Y-113514607D01*
X92070286Y-113528502D01*
X92106951Y-113558263D01*
X92129830Y-113599573D01*
X92132234Y-113606971D01*
X92132235Y-113606973D01*
X92132236Y-113606975D01*
X92136753Y-113614092D01*
X92147344Y-113634878D01*
X92150447Y-113642716D01*
X92183497Y-113688207D01*
X92187873Y-113694647D01*
X92217999Y-113742117D01*
X92224146Y-113747890D01*
X92239578Y-113765395D01*
X92244526Y-113772205D01*
X92244527Y-113772206D01*
X92244528Y-113772207D01*
X92278816Y-113800572D01*
X92287843Y-113808040D01*
X92293687Y-113813192D01*
X92334679Y-113851686D01*
X92342057Y-113855742D01*
X92361364Y-113868862D01*
X92367857Y-113874234D01*
X92397042Y-113887967D01*
X92418736Y-113898175D01*
X92425659Y-113901702D01*
X92433038Y-113905759D01*
X92474939Y-113928795D01*
X92483096Y-113930889D01*
X92505060Y-113938796D01*
X92512682Y-113942383D01*
X92567926Y-113952921D01*
X92575510Y-113954616D01*
X92629970Y-113968600D01*
X92638393Y-113968600D01*
X92661627Y-113970796D01*
X92669906Y-113972375D01*
X92726015Y-113968844D01*
X92733801Y-113968600D01*
X138860867Y-113968600D01*
X138881608Y-113970889D01*
X138884405Y-113970801D01*
X138884409Y-113970802D01*
X138952517Y-113968660D01*
X138956413Y-113968600D01*
X138984354Y-113968600D01*
X138984356Y-113968600D01*
X138988456Y-113968081D01*
X139000106Y-113967164D01*
X139044389Y-113965773D01*
X139063998Y-113960075D01*
X139083031Y-113956133D01*
X139103297Y-113953574D01*
X139144506Y-113937257D01*
X139155537Y-113933480D01*
X139198093Y-113921118D01*
X139215660Y-113910728D01*
X139233132Y-113902168D01*
X139252117Y-113894652D01*
X139287975Y-113868598D01*
X139297723Y-113862196D01*
X139335862Y-113839642D01*
X139350300Y-113825203D01*
X139365088Y-113812572D01*
X139381607Y-113800572D01*
X139409859Y-113766419D01*
X139417703Y-113757799D01*
X141232766Y-111942737D01*
X141282130Y-111912487D01*
X141339846Y-111907945D01*
X141393333Y-111930100D01*
X141430933Y-111974123D01*
X141444448Y-112030418D01*
X141444448Y-115976105D01*
X173779309Y-115976105D01*
X173779309Y-112534334D01*
X231341500Y-112534334D01*
X231348011Y-112594905D01*
X231399110Y-112731903D01*
X231486738Y-112848961D01*
X231603796Y-112936589D01*
X231740794Y-112987688D01*
X231740797Y-112987688D01*
X231740799Y-112987689D01*
X231801362Y-112994200D01*
X233098634Y-112994200D01*
X233098638Y-112994200D01*
X233159201Y-112987689D01*
X233159203Y-112987688D01*
X233159205Y-112987688D01*
X233237124Y-112958624D01*
X233296204Y-112936589D01*
X233413261Y-112848961D01*
X233500889Y-112731904D01*
X233551989Y-112594901D01*
X233558500Y-112534338D01*
X233558500Y-109937062D01*
X233551989Y-109876499D01*
X233551988Y-109876497D01*
X233551988Y-109876494D01*
X233500889Y-109739496D01*
X233413261Y-109622438D01*
X233296203Y-109534810D01*
X233164166Y-109485562D01*
X233121930Y-109459124D01*
X233093512Y-109418193D01*
X233083500Y-109369381D01*
X233083500Y-107602019D01*
X233093512Y-107553207D01*
X233121930Y-107512276D01*
X233164166Y-107485838D01*
X233256525Y-107451388D01*
X233296204Y-107436589D01*
X233413261Y-107348961D01*
X233500889Y-107231904D01*
X233551989Y-107094901D01*
X233558500Y-107034338D01*
X233558500Y-104437062D01*
X233551989Y-104376499D01*
X233551988Y-104376497D01*
X233551988Y-104376494D01*
X233500889Y-104239496D01*
X233413261Y-104122438D01*
X233296203Y-104034810D01*
X233159205Y-103983711D01*
X233128919Y-103980455D01*
X233098638Y-103977200D01*
X231801362Y-103977200D01*
X231774445Y-103980093D01*
X231740794Y-103983711D01*
X231603796Y-104034810D01*
X231486738Y-104122438D01*
X231399110Y-104239496D01*
X231348011Y-104376494D01*
X231341500Y-104437066D01*
X231341500Y-107034334D01*
X231348011Y-107094905D01*
X231399110Y-107231903D01*
X231486738Y-107348961D01*
X231603796Y-107436589D01*
X231735834Y-107485838D01*
X231778070Y-107512276D01*
X231806488Y-107553207D01*
X231816500Y-107602019D01*
X231816500Y-109369381D01*
X231806488Y-109418193D01*
X231778070Y-109459124D01*
X231735834Y-109485562D01*
X231603796Y-109534810D01*
X231486738Y-109622438D01*
X231399110Y-109739496D01*
X231348011Y-109876494D01*
X231341500Y-109937066D01*
X231341500Y-112534334D01*
X173779309Y-112534334D01*
X173779309Y-111678391D01*
X141796475Y-111678391D01*
X141740180Y-111664876D01*
X141696157Y-111627276D01*
X141674002Y-111573789D01*
X141678544Y-111516073D01*
X141708794Y-111466710D01*
X144301852Y-108873652D01*
X152125016Y-101050486D01*
X152141297Y-101037444D01*
X152143214Y-101035402D01*
X152143218Y-101035400D01*
X152189907Y-100985679D01*
X152192555Y-100982947D01*
X152212335Y-100963169D01*
X152214861Y-100959911D01*
X152222457Y-100951017D01*
X152252786Y-100918721D01*
X152262624Y-100900824D01*
X152273300Y-100884571D01*
X152285814Y-100868440D01*
X152303416Y-100827760D01*
X152308534Y-100817313D01*
X152329895Y-100778460D01*
X152334972Y-100758682D01*
X152341272Y-100740282D01*
X152349381Y-100721545D01*
X152356312Y-100677776D01*
X152358678Y-100666353D01*
X152369700Y-100623430D01*
X152369700Y-100603016D01*
X152371227Y-100583617D01*
X152371302Y-100583140D01*
X152374420Y-100563457D01*
X152370250Y-100519343D01*
X152369700Y-100507674D01*
X152369700Y-99013610D01*
X223377442Y-99013610D01*
X223424266Y-99050055D01*
X223642893Y-99168368D01*
X223878006Y-99249083D01*
X224123207Y-99290000D01*
X224371793Y-99290000D01*
X224616993Y-99249083D01*
X224852106Y-99168368D01*
X225070733Y-99050053D01*
X225117556Y-99013609D01*
X224247500Y-98143553D01*
X223377442Y-99013609D01*
X223377442Y-99013610D01*
X152369700Y-99013610D01*
X152369700Y-98061533D01*
X152371989Y-98040790D01*
X152371901Y-98037994D01*
X152371902Y-98037991D01*
X152369760Y-97969868D01*
X152369700Y-97965974D01*
X152369700Y-97938047D01*
X152369700Y-97938044D01*
X152369182Y-97933947D01*
X152368265Y-97922298D01*
X152368163Y-97919044D01*
X152366874Y-97878011D01*
X152361174Y-97858394D01*
X152357233Y-97839364D01*
X152354674Y-97819103D01*
X152343151Y-97790000D01*
X222742358Y-97790000D01*
X222762886Y-98037732D01*
X222823913Y-98278721D01*
X222923768Y-98506370D01*
X223024063Y-98659882D01*
X223024064Y-98659882D01*
X223893947Y-97790001D01*
X224601053Y-97790001D01*
X225470934Y-98659882D01*
X225571230Y-98506369D01*
X225671086Y-98278721D01*
X225732113Y-98037732D01*
X225752641Y-97790000D01*
X225732113Y-97542267D01*
X225671086Y-97301278D01*
X225571230Y-97073630D01*
X225470934Y-96920116D01*
X224601053Y-97790000D01*
X224601053Y-97790001D01*
X223893947Y-97790001D01*
X223893947Y-97789999D01*
X223024064Y-96920116D01*
X222923766Y-97073634D01*
X222823913Y-97301278D01*
X222762886Y-97542267D01*
X222742358Y-97790000D01*
X152343151Y-97790000D01*
X152338363Y-97777907D01*
X152334581Y-97766860D01*
X152322218Y-97724308D01*
X152322218Y-97724307D01*
X152311822Y-97706729D01*
X152303269Y-97689271D01*
X152295752Y-97670283D01*
X152269703Y-97634430D01*
X152263299Y-97624680D01*
X152240742Y-97586538D01*
X152226307Y-97572103D01*
X152213669Y-97557306D01*
X152201672Y-97540793D01*
X152167524Y-97512543D01*
X152158885Y-97504681D01*
X151220594Y-96566390D01*
X223377442Y-96566390D01*
X224247500Y-97436447D01*
X224247501Y-97436447D01*
X225117557Y-96566390D01*
X225117556Y-96566388D01*
X225070735Y-96529947D01*
X224852106Y-96411631D01*
X224616993Y-96330916D01*
X224371793Y-96290000D01*
X224123207Y-96290000D01*
X223878006Y-96330916D01*
X223642893Y-96411631D01*
X223424264Y-96529946D01*
X223377442Y-96566388D01*
X223377442Y-96566390D01*
X151220594Y-96566390D01*
X147318988Y-92664783D01*
X147305944Y-92648501D01*
X147254248Y-92599956D01*
X147251451Y-92597245D01*
X147231673Y-92577467D01*
X147228395Y-92574924D01*
X147219522Y-92567345D01*
X147187221Y-92537014D01*
X147169333Y-92527180D01*
X147153069Y-92516496D01*
X147136940Y-92503985D01*
X147096277Y-92486389D01*
X147085783Y-92481248D01*
X147046962Y-92459905D01*
X147035286Y-92456907D01*
X147027184Y-92454827D01*
X147008779Y-92448526D01*
X146992686Y-92441562D01*
X146990045Y-92440419D01*
X146990043Y-92440418D01*
X146990042Y-92440418D01*
X146946283Y-92433487D01*
X146934843Y-92431118D01*
X146891931Y-92420100D01*
X146891930Y-92420100D01*
X146871516Y-92420100D01*
X146852117Y-92418573D01*
X146831958Y-92415380D01*
X146831957Y-92415380D01*
X146799218Y-92418474D01*
X146787843Y-92419550D01*
X146776174Y-92420100D01*
X141240893Y-92420100D01*
X141183418Y-92405975D01*
X141139037Y-92366820D01*
X141117860Y-92311553D01*
X141124712Y-92252766D01*
X141181988Y-92099205D01*
X141181988Y-92099203D01*
X141181989Y-92099201D01*
X141188500Y-92038638D01*
X141188500Y-91322400D01*
X141205113Y-91260400D01*
X141250500Y-91215013D01*
X141312500Y-91198400D01*
X148003667Y-91198400D01*
X148024408Y-91200689D01*
X148027205Y-91200601D01*
X148027209Y-91200602D01*
X148095317Y-91198460D01*
X148099213Y-91198400D01*
X148127154Y-91198400D01*
X148127156Y-91198400D01*
X148131256Y-91197881D01*
X148142906Y-91196964D01*
X148187189Y-91195573D01*
X148206798Y-91189875D01*
X148225831Y-91185933D01*
X148246097Y-91183374D01*
X148287306Y-91167057D01*
X148298337Y-91163280D01*
X148340893Y-91150918D01*
X148358460Y-91140528D01*
X148375932Y-91131968D01*
X148394917Y-91124452D01*
X148430775Y-91098398D01*
X148440523Y-91091996D01*
X148478662Y-91069442D01*
X148493100Y-91055003D01*
X148507888Y-91042372D01*
X148524407Y-91030372D01*
X148552659Y-90996219D01*
X148560503Y-90987599D01*
X149707902Y-89840200D01*
X151764535Y-89840200D01*
X151764535Y-90428808D01*
X151767451Y-90471833D01*
X151813699Y-90657802D01*
X151898842Y-90829477D01*
X152018899Y-90978834D01*
X152168256Y-91098891D01*
X152339931Y-91184034D01*
X152525898Y-91230282D01*
X152568928Y-91233200D01*
X152776534Y-91233200D01*
X152776534Y-89840200D01*
X153276534Y-89840200D01*
X153276534Y-91233199D01*
X153484142Y-91233199D01*
X153527167Y-91230282D01*
X153713136Y-91184034D01*
X153884811Y-91098891D01*
X154034168Y-90978834D01*
X154154225Y-90829477D01*
X154239368Y-90657802D01*
X154285616Y-90471835D01*
X154288534Y-90428806D01*
X154288534Y-89840200D01*
X153276534Y-89840200D01*
X152776534Y-89840200D01*
X151764535Y-89840200D01*
X149707902Y-89840200D01*
X150207902Y-89340200D01*
X151764534Y-89340200D01*
X152776534Y-89340200D01*
X152776534Y-87947201D01*
X152568926Y-87947201D01*
X152525900Y-87950117D01*
X152339931Y-87996365D01*
X152168256Y-88081508D01*
X152018899Y-88201565D01*
X151898842Y-88350922D01*
X151813699Y-88522597D01*
X151767451Y-88708564D01*
X151764534Y-88751594D01*
X151764534Y-89340200D01*
X150207902Y-89340200D01*
X151600902Y-87947200D01*
X153276534Y-87947200D01*
X153276534Y-89340200D01*
X154288533Y-89340200D01*
X154288533Y-88751592D01*
X154285616Y-88708566D01*
X154239368Y-88522597D01*
X154154225Y-88350922D01*
X154034168Y-88201565D01*
X153884811Y-88081508D01*
X153713136Y-87996365D01*
X153527169Y-87950117D01*
X153484140Y-87947200D01*
X153276534Y-87947200D01*
X151600902Y-87947200D01*
X152310196Y-87237906D01*
X152365782Y-87205814D01*
X152429968Y-87205814D01*
X152541085Y-87235588D01*
X152618742Y-87241700D01*
X153505255Y-87241700D01*
X153505258Y-87241700D01*
X153582915Y-87235588D01*
X153763524Y-87187194D01*
X153792312Y-87172526D01*
X156098876Y-87172526D01*
X156107273Y-87190280D01*
X156334881Y-88334541D01*
X156334885Y-88334588D01*
X156337324Y-88346823D01*
X156999069Y-89337194D01*
X156999160Y-89337385D01*
X157009430Y-89352701D01*
X157635061Y-89770734D01*
X157989388Y-90007488D01*
X158004898Y-90017851D01*
X158004995Y-90017930D01*
X158014579Y-90024320D01*
X158015052Y-90024636D01*
X158015053Y-90024637D01*
X158015308Y-90024807D01*
X158015310Y-90024807D01*
X158015311Y-90024808D01*
X158073001Y-90036308D01*
X158073116Y-90036305D01*
X159195851Y-90259632D01*
X159207656Y-90262588D01*
X159212576Y-90264080D01*
X159232284Y-90254760D01*
X159714870Y-90158767D01*
X160357583Y-90030923D01*
X160357636Y-90030925D01*
X160388034Y-90024866D01*
X160388035Y-90024867D01*
X160388336Y-90024807D01*
X160388382Y-90024775D01*
X160388884Y-90024443D01*
X160413749Y-90008043D01*
X160414250Y-90007491D01*
X161245018Y-89452390D01*
X161394212Y-89352702D01*
X161418824Y-89315999D01*
X161418998Y-89315604D01*
X162066320Y-88346823D01*
X162066380Y-88346522D01*
X162066379Y-88346521D01*
X162066397Y-88346432D01*
X162072438Y-88316123D01*
X162072436Y-88316070D01*
X162302332Y-87160310D01*
X162302293Y-87160115D01*
X162297780Y-87137428D01*
X162103352Y-86159968D01*
X162066320Y-85973795D01*
X162066150Y-85973540D01*
X162066149Y-85973539D01*
X162066020Y-85973347D01*
X162059449Y-85963488D01*
X162059364Y-85963385D01*
X162057694Y-85960886D01*
X161616819Y-85301069D01*
X161394213Y-84967916D01*
X161394045Y-84967804D01*
X160922747Y-84652893D01*
X160388591Y-84295981D01*
X160388497Y-84295918D01*
X160388336Y-84295811D01*
X160388335Y-84295810D01*
X160388034Y-84295751D01*
X159201824Y-84059799D01*
X159201822Y-84059799D01*
X159201821Y-84059799D01*
X159201819Y-84059799D01*
X158026433Y-84293598D01*
X158020867Y-84294146D01*
X158010236Y-84296792D01*
X158000087Y-84305979D01*
X157009599Y-84967804D01*
X157009430Y-84967916D01*
X156344108Y-85963641D01*
X156331544Y-85978948D01*
X156329985Y-86010689D01*
X156101094Y-87161396D01*
X156101086Y-87161439D01*
X156098876Y-87172526D01*
X153792312Y-87172526D01*
X153930125Y-87102307D01*
X154075436Y-86984636D01*
X154193107Y-86839325D01*
X154277994Y-86672724D01*
X154326388Y-86492115D01*
X154332500Y-86414458D01*
X154332500Y-84765942D01*
X154326388Y-84688285D01*
X154277994Y-84507676D01*
X154193107Y-84341075D01*
X154075436Y-84195764D01*
X153930125Y-84078093D01*
X153763524Y-83993206D01*
X153582915Y-83944812D01*
X153505258Y-83938700D01*
X152618742Y-83938700D01*
X152541084Y-83944812D01*
X152541085Y-83944812D01*
X152360476Y-83993206D01*
X152193874Y-84078093D01*
X152048564Y-84195764D01*
X151930893Y-84341074D01*
X151846006Y-84507676D01*
X151797612Y-84688285D01*
X151791500Y-84765945D01*
X151791500Y-85913433D01*
X151782061Y-85960886D01*
X151755181Y-86001114D01*
X147861214Y-89895081D01*
X147820986Y-89921961D01*
X147773533Y-89931400D01*
X139751607Y-89931400D01*
X139728373Y-89929204D01*
X139720093Y-89927624D01*
X139666418Y-89931001D01*
X139663984Y-89931155D01*
X139656199Y-89931400D01*
X139640138Y-89931400D01*
X139624210Y-89933411D01*
X139616466Y-89934143D01*
X139560347Y-89937674D01*
X139552327Y-89940280D01*
X139529564Y-89945368D01*
X139521204Y-89946424D01*
X139468938Y-89967117D01*
X139461614Y-89969754D01*
X139408124Y-89987135D01*
X139401002Y-89991655D01*
X139380221Y-90002243D01*
X139372385Y-90005345D01*
X139326905Y-90038388D01*
X139320467Y-90042763D01*
X139272980Y-90072900D01*
X139267205Y-90079050D01*
X139249710Y-90094474D01*
X139242893Y-90099427D01*
X139207051Y-90142751D01*
X139201903Y-90148590D01*
X139163413Y-90189579D01*
X139159354Y-90196963D01*
X139146241Y-90216258D01*
X139140867Y-90222753D01*
X139116925Y-90273631D01*
X139113392Y-90280564D01*
X139093235Y-90317233D01*
X139047694Y-90364231D01*
X138984571Y-90381500D01*
X138631362Y-90381500D01*
X138604445Y-90384393D01*
X138570794Y-90388011D01*
X138433799Y-90439109D01*
X138329139Y-90517456D01*
X138287635Y-90537770D01*
X138241576Y-90541478D01*
X138227826Y-90540000D01*
X137332177Y-90540000D01*
X137272624Y-90546402D01*
X137248829Y-90555276D01*
X137248829Y-90555277D01*
X138045871Y-91352319D01*
X138077965Y-91407906D01*
X138077965Y-91472092D01*
X138045873Y-91527679D01*
X138023174Y-91550379D01*
X137982945Y-91577261D01*
X137935491Y-91586700D01*
X137624509Y-91586700D01*
X137577056Y-91577261D01*
X137536828Y-91550381D01*
X136895277Y-90908829D01*
X136895276Y-90908829D01*
X136886402Y-90932624D01*
X136880000Y-90992177D01*
X136880000Y-91462700D01*
X136863387Y-91524700D01*
X136818000Y-91570087D01*
X136756000Y-91586700D01*
X135990000Y-91586700D01*
X135928000Y-91570087D01*
X135882613Y-91524700D01*
X135866000Y-91462700D01*
X135866000Y-91223501D01*
X135864817Y-91208473D01*
X135863062Y-91186169D01*
X135852886Y-91151144D01*
X135816645Y-91026399D01*
X135731952Y-90883191D01*
X135614308Y-90765547D01*
X135471100Y-90680854D01*
X135342905Y-90643610D01*
X135296476Y-90618401D01*
X135264755Y-90576153D01*
X135253500Y-90524534D01*
X135253500Y-89255133D01*
X135255789Y-89234391D01*
X135255701Y-89231594D01*
X135255702Y-89231591D01*
X135253560Y-89163482D01*
X135253500Y-89159587D01*
X135253500Y-89131646D01*
X135252982Y-89127549D01*
X135252064Y-89115890D01*
X135251163Y-89087217D01*
X135250673Y-89071610D01*
X135244978Y-89052011D01*
X135241033Y-89032962D01*
X135238474Y-89012703D01*
X135222162Y-88971505D01*
X135218377Y-88960449D01*
X135206018Y-88917906D01*
X135195627Y-88900336D01*
X135187066Y-88882861D01*
X135179552Y-88863884D01*
X135179552Y-88863883D01*
X135153503Y-88828030D01*
X135147099Y-88818280D01*
X135124542Y-88780138D01*
X135110107Y-88765703D01*
X135097469Y-88750906D01*
X135085472Y-88734393D01*
X135051324Y-88706143D01*
X135042685Y-88698281D01*
X134063820Y-87719415D01*
X134039580Y-87685117D01*
X134028181Y-87644700D01*
X134010742Y-87478772D01*
X133973416Y-87363894D01*
X133951727Y-87297143D01*
X133856242Y-87131758D01*
X133827579Y-87099925D01*
X133782548Y-87049912D01*
X133758936Y-87011381D01*
X133750700Y-86966943D01*
X133750700Y-75785734D01*
X133752989Y-75764991D01*
X133752901Y-75762195D01*
X133752902Y-75762192D01*
X133750760Y-75694069D01*
X133750700Y-75690175D01*
X133750700Y-75662247D01*
X133750700Y-75662244D01*
X133750182Y-75658147D01*
X133749265Y-75646498D01*
X133748726Y-75629340D01*
X133747874Y-75602211D01*
X133742177Y-75582601D01*
X133738233Y-75563560D01*
X133735674Y-75543303D01*
X133719361Y-75502102D01*
X133715586Y-75491075D01*
X133703219Y-75448507D01*
X133692822Y-75430928D01*
X133684264Y-75413457D01*
X133676752Y-75394484D01*
X133676752Y-75394483D01*
X133650705Y-75358632D01*
X133644298Y-75348878D01*
X133621743Y-75310739D01*
X133621742Y-75310738D01*
X133607301Y-75296297D01*
X133594672Y-75281510D01*
X133582672Y-75264993D01*
X133548524Y-75236743D01*
X133539885Y-75228881D01*
X132001185Y-73690181D01*
X131970935Y-73640818D01*
X131966393Y-73583102D01*
X131988548Y-73529615D01*
X132032571Y-73492015D01*
X132088866Y-73478500D01*
X133458634Y-73478500D01*
X133458638Y-73478500D01*
X133519201Y-73471989D01*
X133519203Y-73471988D01*
X133519205Y-73471988D01*
X133597124Y-73442924D01*
X133656204Y-73420889D01*
X133773261Y-73333261D01*
X133860889Y-73216204D01*
X133886515Y-73147500D01*
X133911988Y-73079205D01*
X133911988Y-73079203D01*
X133911989Y-73079201D01*
X133918500Y-73018638D01*
X133918500Y-72221362D01*
X133911989Y-72160799D01*
X133911988Y-72160797D01*
X133911988Y-72160794D01*
X133860889Y-72023796D01*
X133773261Y-71906738D01*
X133656203Y-71819110D01*
X133519205Y-71768011D01*
X133488919Y-71764755D01*
X133458638Y-71761500D01*
X131861362Y-71761500D01*
X131834445Y-71764393D01*
X131800794Y-71768011D01*
X131663796Y-71819110D01*
X131546738Y-71906738D01*
X131459110Y-72023796D01*
X131408011Y-72160794D01*
X131404393Y-72194445D01*
X131402204Y-72214819D01*
X131401500Y-72221366D01*
X131401500Y-72791133D01*
X131387985Y-72847428D01*
X131350385Y-72891451D01*
X131296898Y-72913606D01*
X131239182Y-72909064D01*
X131189819Y-72878814D01*
X130542188Y-72231183D01*
X130529144Y-72214901D01*
X130477448Y-72166356D01*
X130474651Y-72163645D01*
X130454873Y-72143867D01*
X130451595Y-72141324D01*
X130442722Y-72133745D01*
X130410421Y-72103414D01*
X130392533Y-72093580D01*
X130376269Y-72082896D01*
X130360140Y-72070385D01*
X130319477Y-72052789D01*
X130308983Y-72047648D01*
X130270162Y-72026305D01*
X130258486Y-72023307D01*
X130250384Y-72021227D01*
X130231979Y-72014926D01*
X130213245Y-72006819D01*
X130213243Y-72006818D01*
X130213242Y-72006818D01*
X130189136Y-72003000D01*
X130144501Y-71986714D01*
X130109267Y-71954837D01*
X130073261Y-71906738D01*
X129956203Y-71819110D01*
X129819205Y-71768011D01*
X129788919Y-71764755D01*
X129758638Y-71761500D01*
X129758634Y-71761500D01*
X128642400Y-71761500D01*
X128580400Y-71744887D01*
X128535013Y-71699500D01*
X128518400Y-71637500D01*
X128518400Y-70818533D01*
X128520689Y-70797790D01*
X128520601Y-70794994D01*
X128520602Y-70794991D01*
X128518460Y-70726868D01*
X128518400Y-70722974D01*
X128518400Y-70695047D01*
X128518400Y-70695044D01*
X128517882Y-70690947D01*
X128516965Y-70679298D01*
X128515082Y-70619352D01*
X128515273Y-70619345D01*
X128513274Y-70580222D01*
X128536095Y-70528048D01*
X128579831Y-70491577D01*
X128635256Y-70478500D01*
X129758634Y-70478500D01*
X129758638Y-70478500D01*
X129819201Y-70471989D01*
X129819203Y-70471988D01*
X129819205Y-70471988D01*
X129897124Y-70442924D01*
X129956204Y-70420889D01*
X130073261Y-70333261D01*
X130107500Y-70287521D01*
X130144410Y-70254652D01*
X130191225Y-70238811D01*
X130193897Y-70238474D01*
X130235106Y-70222157D01*
X130246137Y-70218380D01*
X130288693Y-70206018D01*
X130306260Y-70195628D01*
X130323732Y-70187068D01*
X130342717Y-70179552D01*
X130378575Y-70153498D01*
X130388323Y-70147096D01*
X130426462Y-70124542D01*
X130440900Y-70110103D01*
X130455688Y-70097472D01*
X130472207Y-70085472D01*
X130500459Y-70051319D01*
X130508293Y-70042709D01*
X130936388Y-69614616D01*
X130976614Y-69587739D01*
X131024067Y-69578300D01*
X131277500Y-69578300D01*
X131339500Y-69594913D01*
X131384887Y-69640300D01*
X131401500Y-69702300D01*
X131401500Y-70018638D01*
X131404531Y-70046827D01*
X131408011Y-70079205D01*
X131459110Y-70216203D01*
X131546738Y-70333261D01*
X131663796Y-70420889D01*
X131800794Y-70471988D01*
X131800797Y-70471988D01*
X131800799Y-70471989D01*
X131861362Y-70478500D01*
X133458634Y-70478500D01*
X133458638Y-70478500D01*
X133519201Y-70471989D01*
X133519203Y-70471988D01*
X133519205Y-70471988D01*
X133597124Y-70442924D01*
X133656204Y-70420889D01*
X133773261Y-70333261D01*
X133795772Y-70303188D01*
X133839534Y-70266616D01*
X133895039Y-70253500D01*
X200095634Y-70253500D01*
X200143087Y-70262939D01*
X200183315Y-70289819D01*
X233923261Y-104029766D01*
X233953692Y-104079690D01*
X233957863Y-104138009D01*
X233934848Y-104191757D01*
X233899109Y-104239498D01*
X233848011Y-104376494D01*
X233841500Y-104437066D01*
X233841500Y-107034334D01*
X233848011Y-107094905D01*
X233899110Y-107231903D01*
X233986738Y-107348961D01*
X234103796Y-107436589D01*
X234235834Y-107485838D01*
X234278070Y-107512276D01*
X234306488Y-107553207D01*
X234316500Y-107602019D01*
X234316500Y-109369381D01*
X234306488Y-109418193D01*
X234278070Y-109459124D01*
X234235834Y-109485562D01*
X234103796Y-109534810D01*
X233986738Y-109622438D01*
X233899110Y-109739496D01*
X233848011Y-109876494D01*
X233841500Y-109937066D01*
X233841500Y-112534334D01*
X233848011Y-112594905D01*
X233899110Y-112731903D01*
X233986738Y-112848961D01*
X234103796Y-112936589D01*
X234240794Y-112987688D01*
X234240797Y-112987688D01*
X234240799Y-112987689D01*
X234301362Y-112994200D01*
X235598634Y-112994200D01*
X235598638Y-112994200D01*
X235659201Y-112987689D01*
X235659203Y-112987688D01*
X235659205Y-112987688D01*
X235737124Y-112958624D01*
X235796204Y-112936589D01*
X235913261Y-112848961D01*
X236000889Y-112731904D01*
X236051989Y-112594901D01*
X236058500Y-112534338D01*
X236058500Y-109937062D01*
X236051989Y-109876499D01*
X236051988Y-109876497D01*
X236051988Y-109876494D01*
X236000889Y-109739496D01*
X235913261Y-109622438D01*
X235796203Y-109534810D01*
X235664166Y-109485562D01*
X235621930Y-109459124D01*
X235593512Y-109418193D01*
X235583500Y-109369381D01*
X235583500Y-107602019D01*
X235593512Y-107553207D01*
X235621930Y-107512276D01*
X235664166Y-107485838D01*
X235756525Y-107451388D01*
X235796204Y-107436589D01*
X235913261Y-107348961D01*
X236000889Y-107231904D01*
X236051989Y-107094901D01*
X236058500Y-107034338D01*
X236058500Y-104437062D01*
X236051989Y-104376499D01*
X236051988Y-104376497D01*
X236051988Y-104376494D01*
X236000889Y-104239496D01*
X235913261Y-104122438D01*
X235796203Y-104034810D01*
X235659200Y-103983710D01*
X235637681Y-103981396D01*
X235591401Y-103966879D01*
X235554230Y-103935719D01*
X235545767Y-103919441D01*
X235543992Y-103920491D01*
X235532736Y-103901458D01*
X235525622Y-103889429D01*
X235517069Y-103871971D01*
X235509552Y-103852983D01*
X235483503Y-103817130D01*
X235477099Y-103807380D01*
X235454542Y-103769238D01*
X235440107Y-103754803D01*
X235427469Y-103740006D01*
X235415472Y-103723493D01*
X235381324Y-103695243D01*
X235372685Y-103687381D01*
X216775305Y-85090000D01*
X222734335Y-85090000D01*
X222752965Y-85326712D01*
X222808394Y-85557593D01*
X222846340Y-85649201D01*
X222899260Y-85776963D01*
X223023324Y-85979416D01*
X223177531Y-86159969D01*
X223358084Y-86314176D01*
X223560537Y-86438240D01*
X223779906Y-86529105D01*
X224010789Y-86584535D01*
X224247500Y-86603165D01*
X224484211Y-86584535D01*
X224708541Y-86530678D01*
X224771144Y-86531908D01*
X224825167Y-86563571D01*
X236780181Y-98518585D01*
X236807061Y-98558813D01*
X236816500Y-98606266D01*
X236816500Y-103869381D01*
X236806488Y-103918193D01*
X236778070Y-103959124D01*
X236735834Y-103985562D01*
X236603796Y-104034810D01*
X236486738Y-104122438D01*
X236399110Y-104239496D01*
X236348011Y-104376494D01*
X236341500Y-104437066D01*
X236341500Y-107034334D01*
X236348011Y-107094905D01*
X236399110Y-107231903D01*
X236486738Y-107348961D01*
X236603796Y-107436589D01*
X236735834Y-107485838D01*
X236778070Y-107512276D01*
X236806488Y-107553207D01*
X236816500Y-107602019D01*
X236816500Y-109369381D01*
X236806488Y-109418193D01*
X236778070Y-109459124D01*
X236735834Y-109485562D01*
X236603796Y-109534810D01*
X236486738Y-109622438D01*
X236399110Y-109739496D01*
X236348011Y-109876494D01*
X236341500Y-109937066D01*
X236341500Y-112534334D01*
X236348011Y-112594905D01*
X236399110Y-112731903D01*
X236486738Y-112848961D01*
X236603796Y-112936589D01*
X236740794Y-112987688D01*
X236740797Y-112987688D01*
X236740799Y-112987689D01*
X236801362Y-112994200D01*
X238098634Y-112994200D01*
X238098638Y-112994200D01*
X238159201Y-112987689D01*
X238159203Y-112987688D01*
X238159205Y-112987688D01*
X238237124Y-112958624D01*
X238296204Y-112936589D01*
X238413261Y-112848961D01*
X238500889Y-112731904D01*
X238551989Y-112594901D01*
X238558500Y-112534338D01*
X238558500Y-109937062D01*
X238551989Y-109876499D01*
X238551988Y-109876497D01*
X238551988Y-109876494D01*
X238500889Y-109739496D01*
X238413261Y-109622438D01*
X238296203Y-109534810D01*
X238164166Y-109485562D01*
X238121930Y-109459124D01*
X238093512Y-109418193D01*
X238083500Y-109369381D01*
X238083500Y-107602019D01*
X238093512Y-107553207D01*
X238121930Y-107512276D01*
X238164166Y-107485838D01*
X238256525Y-107451388D01*
X238296204Y-107436589D01*
X238413261Y-107348961D01*
X238500889Y-107231904D01*
X238551989Y-107094901D01*
X238558500Y-107034338D01*
X238558500Y-104437062D01*
X238551989Y-104376499D01*
X238551988Y-104376497D01*
X238551988Y-104376494D01*
X238500889Y-104239496D01*
X238413261Y-104122438D01*
X238296203Y-104034810D01*
X238164166Y-103985562D01*
X238121930Y-103959124D01*
X238093512Y-103918193D01*
X238083500Y-103869381D01*
X238083500Y-98376134D01*
X238085789Y-98355391D01*
X238085701Y-98352595D01*
X238085702Y-98352592D01*
X238083560Y-98284469D01*
X238083500Y-98280575D01*
X238083500Y-98252647D01*
X238083500Y-98252644D01*
X238082982Y-98248547D01*
X238082065Y-98236898D01*
X238080812Y-98197018D01*
X238080674Y-98192611D01*
X238074977Y-98173001D01*
X238071033Y-98153960D01*
X238068474Y-98133703D01*
X238052161Y-98092502D01*
X238048386Y-98081475D01*
X238036019Y-98038907D01*
X238025622Y-98021328D01*
X238017064Y-98003857D01*
X238009552Y-97984884D01*
X238009552Y-97984883D01*
X237983505Y-97949032D01*
X237977098Y-97939278D01*
X237954543Y-97901139D01*
X237948500Y-97895096D01*
X237940101Y-97886697D01*
X237927472Y-97871910D01*
X237915472Y-97855393D01*
X237881324Y-97827143D01*
X237872685Y-97819281D01*
X225721072Y-85667667D01*
X225689409Y-85613645D01*
X225688179Y-85551039D01*
X225726894Y-85389778D01*
X225742035Y-85326711D01*
X225760665Y-85090000D01*
X225742035Y-84853289D01*
X225686605Y-84622406D01*
X225595740Y-84403037D01*
X225471676Y-84200584D01*
X225317469Y-84020031D01*
X225136916Y-83865824D01*
X224934463Y-83741760D01*
X224824778Y-83696327D01*
X224715093Y-83650894D01*
X224484212Y-83595465D01*
X224247500Y-83576835D01*
X224010787Y-83595465D01*
X223779906Y-83650894D01*
X223560535Y-83741761D01*
X223358085Y-83865823D01*
X223177531Y-84020031D01*
X223023323Y-84200585D01*
X222899261Y-84403035D01*
X222808394Y-84622406D01*
X222752965Y-84853287D01*
X222734335Y-85090000D01*
X216775305Y-85090000D01*
X214259945Y-82574640D01*
X230899612Y-82574640D01*
X230964393Y-82620001D01*
X231164518Y-82713320D01*
X231377821Y-82770475D01*
X231597799Y-82789721D01*
X231817778Y-82770475D01*
X232031081Y-82713320D01*
X232231208Y-82620000D01*
X232295987Y-82574640D01*
X231597801Y-81876453D01*
X231597800Y-81876453D01*
X230899612Y-82574640D01*
X214259945Y-82574640D01*
X213208204Y-81522899D01*
X230330978Y-81522899D01*
X230350224Y-81742878D01*
X230407379Y-81956181D01*
X230500698Y-82156306D01*
X230546058Y-82221087D01*
X231244246Y-81522900D01*
X231244246Y-81522898D01*
X230546058Y-80824712D01*
X230500700Y-80889489D01*
X230407378Y-81089619D01*
X230350224Y-81302921D01*
X230330978Y-81522899D01*
X213208204Y-81522899D01*
X201475286Y-69789981D01*
X201445036Y-69740618D01*
X201440494Y-69682902D01*
X201462649Y-69629415D01*
X201506672Y-69591815D01*
X201562967Y-69578300D01*
X220158834Y-69578300D01*
X220206287Y-69587739D01*
X220246515Y-69614619D01*
X230003610Y-79371714D01*
X230016659Y-79388001D01*
X230018699Y-79389916D01*
X230018700Y-79389918D01*
X230068401Y-79436590D01*
X230071134Y-79439238D01*
X230090930Y-79459034D01*
X230094193Y-79461565D01*
X230103069Y-79469145D01*
X230135379Y-79499486D01*
X230153272Y-79509322D01*
X230169531Y-79520003D01*
X230185659Y-79532513D01*
X230226325Y-79550110D01*
X230236808Y-79555247D01*
X230263039Y-79569668D01*
X230310032Y-79615208D01*
X230327300Y-79678329D01*
X230327300Y-79793538D01*
X230329336Y-79812473D01*
X230333811Y-79854105D01*
X230384910Y-79991103D01*
X230472538Y-80108161D01*
X230589596Y-80195789D01*
X230726594Y-80246888D01*
X230726597Y-80246888D01*
X230726599Y-80246889D01*
X230787162Y-80253400D01*
X230787166Y-80253400D01*
X230817325Y-80253400D01*
X230877441Y-80268947D01*
X230922483Y-80311690D01*
X230941155Y-80370911D01*
X230928775Y-80431758D01*
X230900124Y-80465303D01*
X230899611Y-80471158D01*
X231597800Y-81169346D01*
X231597801Y-81169346D01*
X232295987Y-80471158D01*
X232295475Y-80465305D01*
X232266823Y-80431758D01*
X232254444Y-80370910D01*
X232273116Y-80311690D01*
X232318158Y-80268947D01*
X232378274Y-80253400D01*
X232408434Y-80253400D01*
X232408438Y-80253400D01*
X232469001Y-80246889D01*
X232469003Y-80246888D01*
X232469005Y-80246888D01*
X232546924Y-80217824D01*
X232606004Y-80195789D01*
X232723061Y-80108161D01*
X232810689Y-79991104D01*
X232842016Y-79907115D01*
X232861788Y-79854105D01*
X232861788Y-79854103D01*
X232861789Y-79854101D01*
X232868300Y-79793538D01*
X232868300Y-79778192D01*
X232883847Y-79718076D01*
X232926590Y-79673034D01*
X232985810Y-79654362D01*
X233046658Y-79666742D01*
X233093873Y-79707068D01*
X233160823Y-79802681D01*
X233318019Y-79959877D01*
X233500123Y-80087388D01*
X233581093Y-80125145D01*
X233614060Y-80140518D01*
X233666236Y-80186275D01*
X233685655Y-80252900D01*
X233666236Y-80319525D01*
X233614060Y-80365282D01*
X233500123Y-80418412D01*
X233318018Y-80545923D01*
X233160823Y-80703118D01*
X233033313Y-80885221D01*
X232975492Y-81009218D01*
X232929734Y-81061393D01*
X232863109Y-81080812D01*
X232796484Y-81061392D01*
X232750728Y-81009216D01*
X232694899Y-80889490D01*
X232649540Y-80824711D01*
X231951353Y-81522899D01*
X232649540Y-82221086D01*
X232694897Y-82156312D01*
X232750727Y-82036584D01*
X232796484Y-81984408D01*
X232863109Y-81964988D01*
X232929734Y-81984407D01*
X232975492Y-82036583D01*
X232997883Y-82084600D01*
X233033312Y-82160577D01*
X233160823Y-82342681D01*
X233318019Y-82499877D01*
X233500123Y-82627388D01*
X233701604Y-82721340D01*
X233916337Y-82778878D01*
X234137800Y-82798253D01*
X234359263Y-82778878D01*
X234573996Y-82721340D01*
X234775477Y-82627388D01*
X234957581Y-82499877D01*
X235114777Y-82342681D01*
X235242288Y-82160577D01*
X235295418Y-82046638D01*
X235341175Y-81994463D01*
X235407800Y-81975044D01*
X235474425Y-81994463D01*
X235520181Y-82046638D01*
X235573312Y-82160577D01*
X235700823Y-82342681D01*
X235858019Y-82499877D01*
X236040123Y-82627388D01*
X236241604Y-82721340D01*
X236456337Y-82778878D01*
X236677800Y-82798253D01*
X236899263Y-82778878D01*
X237113996Y-82721340D01*
X237315477Y-82627388D01*
X237497581Y-82499877D01*
X237654777Y-82342681D01*
X237782288Y-82160577D01*
X237876240Y-81959096D01*
X237933778Y-81744363D01*
X237953153Y-81522900D01*
X237933778Y-81301437D01*
X237876240Y-81086704D01*
X237782288Y-80885224D01*
X237654777Y-80703119D01*
X237497581Y-80545923D01*
X237315477Y-80418412D01*
X237315476Y-80418411D01*
X237315474Y-80418410D01*
X237201539Y-80365281D01*
X237149363Y-80319523D01*
X237129944Y-80252898D01*
X237149364Y-80186273D01*
X237201538Y-80140518D01*
X237315477Y-80087388D01*
X237497581Y-79959877D01*
X237654777Y-79802681D01*
X237782288Y-79620577D01*
X237876240Y-79419096D01*
X237933778Y-79204363D01*
X237953153Y-78982900D01*
X237933778Y-78761437D01*
X237876240Y-78546704D01*
X237782288Y-78345224D01*
X237654777Y-78163119D01*
X237497581Y-78005923D01*
X237315477Y-77878412D01*
X237205858Y-77827296D01*
X237113997Y-77784460D01*
X236899260Y-77726921D01*
X236677800Y-77707546D01*
X236456339Y-77726921D01*
X236241602Y-77784460D01*
X236040123Y-77878412D01*
X235858018Y-78005923D01*
X235700823Y-78163118D01*
X235573312Y-78345223D01*
X235520182Y-78459161D01*
X235474425Y-78511337D01*
X235407800Y-78530756D01*
X235341175Y-78511337D01*
X235295418Y-78459161D01*
X235285930Y-78438814D01*
X235242288Y-78345224D01*
X235114777Y-78163119D01*
X234957581Y-78005923D01*
X234775477Y-77878412D01*
X234665858Y-77827296D01*
X234573997Y-77784460D01*
X234359260Y-77726921D01*
X234137800Y-77707546D01*
X233916335Y-77726921D01*
X233876167Y-77737684D01*
X233811981Y-77737684D01*
X233756394Y-77705590D01*
X226050805Y-70000000D01*
X232714696Y-70000000D01*
X232733897Y-70366406D01*
X232791293Y-70728788D01*
X232886258Y-71083200D01*
X233017744Y-71425735D01*
X233184320Y-71752656D01*
X233384146Y-72060363D01*
X233451765Y-72143865D01*
X233615051Y-72345506D01*
X233874494Y-72604949D01*
X234005882Y-72711345D01*
X234159636Y-72835853D01*
X234465349Y-73034384D01*
X234467348Y-73035682D01*
X234794264Y-73202255D01*
X235136801Y-73333742D01*
X235491206Y-73428705D01*
X235491209Y-73428705D01*
X235491211Y-73428706D01*
X235853593Y-73486102D01*
X235903373Y-73488710D01*
X236220000Y-73505304D01*
X236551645Y-73487923D01*
X236586406Y-73486102D01*
X236948788Y-73428706D01*
X236948788Y-73428705D01*
X236948794Y-73428705D01*
X237303199Y-73333742D01*
X237645736Y-73202255D01*
X237972652Y-73035682D01*
X238280366Y-72835851D01*
X238565506Y-72604949D01*
X238824949Y-72345506D01*
X239055851Y-72060366D01*
X239255682Y-71752652D01*
X239422255Y-71425736D01*
X239553742Y-71083199D01*
X239648705Y-70728794D01*
X239654050Y-70695047D01*
X239706102Y-70366406D01*
X239709415Y-70303190D01*
X239725304Y-70000000D01*
X239706102Y-69633596D01*
X239703096Y-69614619D01*
X239648706Y-69271211D01*
X239604316Y-69105545D01*
X239553742Y-68916801D01*
X239422255Y-68574264D01*
X239255682Y-68247348D01*
X239130784Y-68055021D01*
X239055853Y-67939636D01*
X238942741Y-67799955D01*
X238824949Y-67654494D01*
X238565506Y-67395051D01*
X238422935Y-67279599D01*
X238280363Y-67164146D01*
X237972656Y-66964320D01*
X237645735Y-66797744D01*
X237303200Y-66666258D01*
X236948788Y-66571293D01*
X236586406Y-66513897D01*
X236220000Y-66494696D01*
X235853593Y-66513897D01*
X235491211Y-66571293D01*
X235136799Y-66666258D01*
X234794264Y-66797744D01*
X234467343Y-66964320D01*
X234159636Y-67164146D01*
X233874490Y-67395054D01*
X233615054Y-67654490D01*
X233384146Y-67939636D01*
X233184320Y-68247343D01*
X233017744Y-68574264D01*
X232886258Y-68916799D01*
X232791293Y-69271211D01*
X232733897Y-69633593D01*
X232714696Y-70000000D01*
X226050805Y-70000000D01*
X222681588Y-66630783D01*
X222668544Y-66614501D01*
X222616848Y-66565956D01*
X222614051Y-66563245D01*
X222594273Y-66543467D01*
X222590995Y-66540924D01*
X222582122Y-66533345D01*
X222549821Y-66503014D01*
X222531933Y-66493180D01*
X222515669Y-66482496D01*
X222499540Y-66469985D01*
X222458877Y-66452389D01*
X222448383Y-66447248D01*
X222409562Y-66425905D01*
X222397886Y-66422907D01*
X222389784Y-66420827D01*
X222371379Y-66414526D01*
X222352645Y-66406419D01*
X222352643Y-66406418D01*
X222352642Y-66406418D01*
X222308883Y-66399487D01*
X222297443Y-66397118D01*
X222254531Y-66386100D01*
X222254530Y-66386100D01*
X222234116Y-66386100D01*
X222214717Y-66384573D01*
X222194558Y-66381380D01*
X222194557Y-66381380D01*
X222167920Y-66383898D01*
X222150443Y-66385550D01*
X222138774Y-66386100D01*
X112140933Y-66386100D01*
X112120191Y-66383810D01*
X112117391Y-66383898D01*
X112049283Y-66386039D01*
X112045387Y-66386100D01*
X112017444Y-66386100D01*
X112013342Y-66386618D01*
X112001703Y-66387534D01*
X111957410Y-66388926D01*
X111937807Y-66394622D01*
X111918755Y-66398567D01*
X111898499Y-66401126D01*
X111857297Y-66417438D01*
X111846251Y-66421221D01*
X111803702Y-66433583D01*
X111786131Y-66443974D01*
X111768670Y-66452529D01*
X111749683Y-66460047D01*
X111713842Y-66486087D01*
X111704080Y-66492499D01*
X111665939Y-66515055D01*
X111651496Y-66529498D01*
X111636709Y-66542127D01*
X111620192Y-66554128D01*
X111591952Y-66588263D01*
X111584092Y-66596901D01*
X109447414Y-68733581D01*
X109407186Y-68760461D01*
X109359733Y-68769900D01*
X108112848Y-68769900D01*
X108051274Y-68753532D01*
X108005956Y-68708749D01*
X107988857Y-68647374D01*
X107962305Y-66414526D01*
X107921376Y-62972688D01*
X107937492Y-62910068D01*
X107982942Y-62864074D01*
X108045367Y-62847215D01*
X239856485Y-62847215D01*
X239882068Y-62849883D01*
X240828560Y-63049454D01*
X240874648Y-63069597D01*
X241667984Y-63631510D01*
X241701212Y-63666577D01*
X242232999Y-64510229D01*
X242249973Y-64553482D01*
X242439274Y-65562289D01*
X242441401Y-65585158D01*
X242441401Y-113587521D01*
X242439274Y-113610390D01*
X242249973Y-114619195D01*
X242232999Y-114662448D01*
X241701212Y-115506100D01*
X241667984Y-115541167D01*
X240874648Y-116103080D01*
X240828561Y-116123223D01*
X240038063Y-116289903D01*
X239882067Y-116322796D01*
X239856485Y-116325464D01*
X65548075Y-116325464D01*
X65522492Y-116322796D01*
X65320471Y-116280199D01*
X64575998Y-116123223D01*
X64529911Y-116103080D01*
X63736574Y-115541167D01*
X63703346Y-115506100D01*
X63171560Y-114662449D01*
X63154586Y-114619196D01*
X63030904Y-113960080D01*
X62965286Y-113610390D01*
X62963159Y-113587521D01*
X62963159Y-82427240D01*
X68441812Y-82427240D01*
X68506593Y-82472601D01*
X68706718Y-82565920D01*
X68920021Y-82623075D01*
X69140000Y-82642321D01*
X69359978Y-82623075D01*
X69573281Y-82565920D01*
X69773408Y-82472600D01*
X69838187Y-82427240D01*
X69140001Y-81729053D01*
X69140000Y-81729053D01*
X68441812Y-82427240D01*
X62963159Y-82427240D01*
X62963159Y-81375500D01*
X67873178Y-81375500D01*
X67892424Y-81595478D01*
X67949579Y-81808781D01*
X68042898Y-82008906D01*
X68088258Y-82073687D01*
X68786446Y-81375501D01*
X68786446Y-81375500D01*
X68088258Y-80677311D01*
X68088258Y-80677312D01*
X68042900Y-80742089D01*
X67949578Y-80942219D01*
X67892424Y-81155521D01*
X67873178Y-81375500D01*
X62963159Y-81375500D01*
X62963159Y-70000000D01*
X66654696Y-70000000D01*
X66673897Y-70366406D01*
X66731293Y-70728788D01*
X66826258Y-71083200D01*
X66957744Y-71425735D01*
X67124320Y-71752656D01*
X67324146Y-72060363D01*
X67391765Y-72143865D01*
X67555051Y-72345506D01*
X67814494Y-72604949D01*
X67945882Y-72711345D01*
X68099636Y-72835853D01*
X68405349Y-73034384D01*
X68407348Y-73035682D01*
X68734264Y-73202255D01*
X69076801Y-73333742D01*
X69431206Y-73428705D01*
X69431209Y-73428705D01*
X69431211Y-73428706D01*
X69793593Y-73486102D01*
X69843373Y-73488710D01*
X70160000Y-73505304D01*
X70491645Y-73487923D01*
X70526406Y-73486102D01*
X70888788Y-73428706D01*
X70888788Y-73428705D01*
X70888794Y-73428705D01*
X71243199Y-73333742D01*
X71585736Y-73202255D01*
X71912652Y-73035682D01*
X72220366Y-72835851D01*
X72505506Y-72604949D01*
X72764949Y-72345506D01*
X72995851Y-72060366D01*
X73195682Y-71752652D01*
X73362255Y-71425736D01*
X73493742Y-71083199D01*
X73588705Y-70728794D01*
X73594050Y-70695047D01*
X73646102Y-70366406D01*
X73649415Y-70303190D01*
X73665304Y-70000000D01*
X73646102Y-69633596D01*
X73643096Y-69614619D01*
X73588706Y-69271211D01*
X73544316Y-69105545D01*
X73493742Y-68916801D01*
X73362255Y-68574264D01*
X73195682Y-68247348D01*
X73070784Y-68055021D01*
X72995853Y-67939636D01*
X72882741Y-67799955D01*
X72764949Y-67654494D01*
X72505506Y-67395051D01*
X72362935Y-67279599D01*
X72220363Y-67164146D01*
X71912656Y-66964320D01*
X71585735Y-66797744D01*
X71243200Y-66666258D01*
X70888788Y-66571293D01*
X70526406Y-66513897D01*
X70160000Y-66494696D01*
X69793593Y-66513897D01*
X69431211Y-66571293D01*
X69076799Y-66666258D01*
X68734264Y-66797744D01*
X68407343Y-66964320D01*
X68099636Y-67164146D01*
X67814490Y-67395054D01*
X67555054Y-67654490D01*
X67324146Y-67939636D01*
X67124320Y-68247343D01*
X66957744Y-68574264D01*
X66826258Y-68916799D01*
X66731293Y-69271211D01*
X66673897Y-69633593D01*
X66654696Y-70000000D01*
X62963159Y-70000000D01*
X62963159Y-65585158D01*
X62965286Y-65562289D01*
X63154586Y-64553481D01*
X63171560Y-64510228D01*
X63703346Y-63666577D01*
X63736574Y-63631510D01*
X63993542Y-63449502D01*
X78591349Y-63449502D01*
X78591349Y-67145074D01*
X84486920Y-67145074D01*
X84486920Y-63449502D01*
X78591349Y-63449502D01*
X63993542Y-63449502D01*
X64529911Y-63069597D01*
X64575997Y-63049454D01*
X65522491Y-62849883D01*
X65548075Y-62847215D01*
X84937350Y-62847215D01*
X84998924Y-62863583D01*
G37*
%TD.AperFunction*%
%TA.AperFunction,Conductor*%
G36*
X119415890Y-91660602D02*
G01*
X119459290Y-91705740D01*
X119475100Y-91766329D01*
X119475100Y-94084967D01*
X119472810Y-94105708D01*
X119475039Y-94176617D01*
X119475100Y-94180513D01*
X119475100Y-94208455D01*
X119475618Y-94212556D01*
X119476534Y-94224197D01*
X119477926Y-94268488D01*
X119483622Y-94288092D01*
X119487567Y-94307144D01*
X119490125Y-94327398D01*
X119506438Y-94368601D01*
X119510221Y-94379649D01*
X119522582Y-94422193D01*
X119532974Y-94439766D01*
X119541531Y-94457233D01*
X119549048Y-94476218D01*
X119575091Y-94512063D01*
X119581505Y-94521827D01*
X119604058Y-94559962D01*
X119618490Y-94574394D01*
X119631126Y-94589189D01*
X119643126Y-94605705D01*
X119677267Y-94633949D01*
X119685908Y-94641812D01*
X132745181Y-107701086D01*
X132772061Y-107741314D01*
X132781500Y-107788767D01*
X132781500Y-108046482D01*
X132781501Y-108235100D01*
X132764888Y-108297100D01*
X132719501Y-108342487D01*
X132657501Y-108359100D01*
X130310866Y-108359100D01*
X130263413Y-108349661D01*
X130223185Y-108322781D01*
X115600196Y-93699792D01*
X115568533Y-93645770D01*
X115567303Y-93583164D01*
X115596821Y-93527940D01*
X115649559Y-93494180D01*
X115712066Y-93490494D01*
X116370092Y-93621383D01*
X116381895Y-93624339D01*
X116386813Y-93625831D01*
X116406520Y-93616510D01*
X117531820Y-93392674D01*
X117531873Y-93392676D01*
X117562271Y-93386617D01*
X117562272Y-93386618D01*
X117562573Y-93386558D01*
X117562619Y-93386526D01*
X117563121Y-93386194D01*
X117587986Y-93369794D01*
X117588487Y-93369242D01*
X118424854Y-92810400D01*
X118568449Y-92714453D01*
X118593061Y-92677750D01*
X118593235Y-92677355D01*
X119240557Y-91708574D01*
X119240556Y-91708574D01*
X119247998Y-91697438D01*
X119294805Y-91655844D01*
X119355968Y-91642425D01*
X119415890Y-91660602D01*
G37*
%TD.AperFunction*%
%TA.AperFunction,Conductor*%
G36*
X70816993Y-94375097D02*
G01*
X70867658Y-94405762D01*
X74640710Y-98178814D01*
X74653759Y-98195101D01*
X74655799Y-98197016D01*
X74655800Y-98197018D01*
X74705501Y-98243690D01*
X74708234Y-98246338D01*
X74728030Y-98266134D01*
X74731293Y-98268665D01*
X74740169Y-98276245D01*
X74772479Y-98306586D01*
X74790372Y-98316422D01*
X74806631Y-98327103D01*
X74822759Y-98339613D01*
X74863425Y-98357210D01*
X74873906Y-98362346D01*
X74895367Y-98374144D01*
X74912740Y-98383695D01*
X74932510Y-98388771D01*
X74950915Y-98395071D01*
X74969655Y-98403181D01*
X75013430Y-98410113D01*
X75024841Y-98412477D01*
X75067770Y-98423500D01*
X75088184Y-98423500D01*
X75107583Y-98425027D01*
X75127743Y-98428220D01*
X75171856Y-98424050D01*
X75183526Y-98423500D01*
X81912206Y-98423500D01*
X81962422Y-98434123D01*
X82004034Y-98464171D01*
X82029911Y-98508495D01*
X82047885Y-98562738D01*
X82107804Y-98659882D01*
X82140971Y-98713654D01*
X82266345Y-98839028D01*
X82266347Y-98839029D01*
X82266348Y-98839030D01*
X82417262Y-98932115D01*
X82426764Y-98935263D01*
X82479182Y-98969194D01*
X82508419Y-99024371D01*
X82507058Y-99086800D01*
X82475443Y-99140650D01*
X78870714Y-102745381D01*
X78830486Y-102772261D01*
X78783033Y-102781700D01*
X74692500Y-102781700D01*
X74630500Y-102765087D01*
X74585113Y-102719700D01*
X74568500Y-102657700D01*
X74568500Y-101841366D01*
X74568500Y-101841362D01*
X74561989Y-101780799D01*
X74561988Y-101780797D01*
X74561988Y-101780794D01*
X74510889Y-101643796D01*
X74423261Y-101526738D01*
X74306203Y-101439110D01*
X74169205Y-101388011D01*
X74138919Y-101384755D01*
X74108638Y-101381500D01*
X71511362Y-101381500D01*
X71484445Y-101384393D01*
X71450794Y-101388011D01*
X71313798Y-101439109D01*
X71266057Y-101474848D01*
X71212309Y-101497863D01*
X71153990Y-101493692D01*
X71104066Y-101463261D01*
X70558585Y-100917780D01*
X70543710Y-100899800D01*
X70538973Y-100892829D01*
X70512195Y-100869221D01*
X70481186Y-100827236D01*
X70470200Y-100776209D01*
X70470200Y-94624729D01*
X70487677Y-94561255D01*
X70535183Y-94515674D01*
X70582276Y-94490189D01*
X70703817Y-94395588D01*
X70757883Y-94371427D01*
X70816993Y-94375097D01*
G37*
%TD.AperFunction*%
%TA.AperFunction,Conductor*%
G36*
X95246362Y-90138500D02*
G01*
X95523734Y-90138500D01*
X95580029Y-90152015D01*
X95624052Y-90189615D01*
X95646207Y-90243102D01*
X95641665Y-90300818D01*
X95611415Y-90350180D01*
X95441794Y-90519801D01*
X94596695Y-91364898D01*
X94578713Y-91379774D01*
X94571760Y-91384498D01*
X94534556Y-91426693D01*
X94529237Y-91432357D01*
X94517865Y-91443730D01*
X94517862Y-91443733D01*
X92921514Y-93040081D01*
X92881286Y-93066961D01*
X92833833Y-93076400D01*
X92333733Y-93076400D01*
X92312991Y-93074110D01*
X92310191Y-93074198D01*
X92242083Y-93076339D01*
X92238187Y-93076400D01*
X92210244Y-93076400D01*
X92206142Y-93076918D01*
X92194503Y-93077834D01*
X92150210Y-93079226D01*
X92130607Y-93084922D01*
X92111555Y-93088867D01*
X92091299Y-93091426D01*
X92050097Y-93107738D01*
X92039051Y-93111521D01*
X91996502Y-93123883D01*
X91978931Y-93134274D01*
X91961470Y-93142829D01*
X91942483Y-93150347D01*
X91906642Y-93176387D01*
X91896880Y-93182799D01*
X91858739Y-93205355D01*
X91844296Y-93219798D01*
X91829509Y-93232427D01*
X91812992Y-93244428D01*
X91784752Y-93278563D01*
X91776892Y-93287201D01*
X91058912Y-94005181D01*
X91018684Y-94032061D01*
X90971231Y-94041500D01*
X90309455Y-94041500D01*
X90205574Y-94052112D01*
X90037263Y-94107884D01*
X89886345Y-94200971D01*
X89760971Y-94326345D01*
X89667884Y-94477263D01*
X89612112Y-94645573D01*
X89601500Y-94749455D01*
X89601500Y-95750544D01*
X89612112Y-95854425D01*
X89667884Y-96022736D01*
X89760971Y-96173654D01*
X89886345Y-96299028D01*
X89886347Y-96299029D01*
X89886348Y-96299030D01*
X90037262Y-96392115D01*
X90096159Y-96411631D01*
X90205573Y-96447887D01*
X90248935Y-96452317D01*
X90309455Y-96458500D01*
X90309455Y-96458499D01*
X90315740Y-96459142D01*
X90315575Y-96460749D01*
X90362498Y-96472000D01*
X90406536Y-96509594D01*
X90428703Y-96563085D01*
X90424166Y-96620809D01*
X90393913Y-96670180D01*
X89943914Y-97120181D01*
X89903686Y-97147061D01*
X89856233Y-97156500D01*
X86267794Y-97156500D01*
X86217578Y-97145877D01*
X86175966Y-97115829D01*
X86150088Y-97071503D01*
X86132115Y-97017262D01*
X86039030Y-96866348D01*
X86039029Y-96866347D01*
X86039028Y-96866345D01*
X85913654Y-96740971D01*
X85843813Y-96697893D01*
X85762738Y-96647885D01*
X85756085Y-96645680D01*
X85703667Y-96611749D01*
X85674432Y-96556572D01*
X85675794Y-96494143D01*
X85707406Y-96440296D01*
X91522785Y-90624919D01*
X91563014Y-90598039D01*
X91610467Y-90588600D01*
X94403393Y-90588600D01*
X94426627Y-90590796D01*
X94434906Y-90592375D01*
X94491015Y-90588844D01*
X94498801Y-90588600D01*
X94514855Y-90588600D01*
X94514856Y-90588600D01*
X94530800Y-90586585D01*
X94538484Y-90585858D01*
X94594650Y-90582325D01*
X94602653Y-90579724D01*
X94625444Y-90574629D01*
X94626066Y-90574550D01*
X94633797Y-90573574D01*
X94680009Y-90555277D01*
X94686066Y-90552879D01*
X94693372Y-90550247D01*
X94746875Y-90532864D01*
X94753989Y-90528348D01*
X94774780Y-90517754D01*
X94782617Y-90514652D01*
X94828104Y-90481602D01*
X94834543Y-90477228D01*
X94852590Y-90465775D01*
X94882018Y-90447100D01*
X94887787Y-90440956D01*
X94905290Y-90425524D01*
X94912107Y-90420572D01*
X94947953Y-90377239D01*
X94953082Y-90371422D01*
X94991586Y-90330421D01*
X94995645Y-90323035D01*
X95008762Y-90303735D01*
X95014133Y-90297244D01*
X95038075Y-90246362D01*
X95041595Y-90239453D01*
X95065635Y-90195725D01*
X95096674Y-90158767D01*
X95139474Y-90136457D01*
X95187548Y-90132177D01*
X95246362Y-90138500D01*
G37*
%TD.AperFunction*%
%TA.AperFunction,Conductor*%
G36*
X84817514Y-75582808D02*
G01*
X84863270Y-75634718D01*
X84874084Y-75703065D01*
X84846589Y-75766565D01*
X84844826Y-75768695D01*
X84836983Y-75777311D01*
X70861121Y-89753172D01*
X70812444Y-89783197D01*
X70755468Y-89788182D01*
X70702316Y-89767066D01*
X70514276Y-89635399D01*
X70442781Y-89602060D01*
X70396810Y-89565164D01*
X70373070Y-89511210D01*
X70376925Y-89452390D01*
X70407501Y-89402002D01*
X84209685Y-75599819D01*
X84249914Y-75572939D01*
X84297367Y-75563500D01*
X84751065Y-75563500D01*
X84817514Y-75582808D01*
G37*
%TD.AperFunction*%
%TA.AperFunction,Conductor*%
G36*
X87818000Y-70994913D02*
G01*
X87863387Y-71040300D01*
X87880000Y-71102300D01*
X87880000Y-71246000D01*
X87863387Y-71308000D01*
X87818000Y-71353387D01*
X87756000Y-71370000D01*
X86380000Y-71370000D01*
X86380000Y-71617824D01*
X86386402Y-71677379D01*
X86394655Y-71699506D01*
X86402473Y-71742838D01*
X86394656Y-71786169D01*
X86378011Y-71830797D01*
X86378010Y-71830799D01*
X86378011Y-71830799D01*
X86371500Y-71891362D01*
X86371500Y-72888638D01*
X86371848Y-72891871D01*
X86378011Y-72949204D01*
X86390119Y-72981667D01*
X86397937Y-73024998D01*
X86390120Y-73068329D01*
X86378011Y-73100795D01*
X86374992Y-73128879D01*
X86372991Y-73147500D01*
X86371500Y-73161366D01*
X86371500Y-74158638D01*
X86371565Y-74159242D01*
X86371500Y-74159615D01*
X86371500Y-74165284D01*
X86370512Y-74165284D01*
X86359814Y-74226679D01*
X86314070Y-74277605D01*
X86248276Y-74296500D01*
X84067233Y-74296500D01*
X84046490Y-74294210D01*
X83975569Y-74296439D01*
X83971674Y-74296500D01*
X83943741Y-74296500D01*
X83939637Y-74297018D01*
X83928005Y-74297933D01*
X83883710Y-74299325D01*
X83864101Y-74305022D01*
X83845061Y-74308965D01*
X83824805Y-74311525D01*
X83783605Y-74327836D01*
X83772561Y-74331617D01*
X83730010Y-74343981D01*
X83730007Y-74343982D01*
X83712427Y-74354377D01*
X83694970Y-74362930D01*
X83675978Y-74370449D01*
X83640134Y-74396491D01*
X83630377Y-74402901D01*
X83592238Y-74425457D01*
X83577800Y-74439895D01*
X83563011Y-74452525D01*
X83546494Y-74464525D01*
X83518244Y-74498673D01*
X83510383Y-74507311D01*
X68534235Y-89483458D01*
X68495366Y-89509765D01*
X68449504Y-89519742D01*
X68403220Y-89511959D01*
X68392904Y-89508111D01*
X68255901Y-89457011D01*
X68195338Y-89450500D01*
X68195334Y-89450500D01*
X67340266Y-89450500D01*
X67283971Y-89436985D01*
X67239948Y-89399385D01*
X67217793Y-89345898D01*
X67222335Y-89288182D01*
X67252585Y-89238819D01*
X70530518Y-85960886D01*
X73838596Y-82652807D01*
X73894182Y-82620715D01*
X73958369Y-82620715D01*
X73998537Y-82631478D01*
X74220000Y-82650853D01*
X74441463Y-82631478D01*
X74656196Y-82573940D01*
X74857677Y-82479988D01*
X75039781Y-82352477D01*
X75196977Y-82195281D01*
X75324488Y-82013177D01*
X75418440Y-81811696D01*
X75475978Y-81596963D01*
X75495353Y-81375500D01*
X75475978Y-81154037D01*
X75418440Y-80939304D01*
X75324488Y-80737824D01*
X75196977Y-80555719D01*
X75039781Y-80398523D01*
X74857677Y-80271012D01*
X74743738Y-80217881D01*
X74691563Y-80172125D01*
X74672144Y-80105500D01*
X74691563Y-80038875D01*
X74743739Y-79993118D01*
X74750183Y-79990113D01*
X74857677Y-79939988D01*
X75039781Y-79812477D01*
X75196977Y-79655281D01*
X75324488Y-79473177D01*
X75418440Y-79271696D01*
X75475978Y-79056963D01*
X75495353Y-78835500D01*
X75475978Y-78614037D01*
X75465214Y-78573870D01*
X75465214Y-78509683D01*
X75497306Y-78454096D01*
X82936785Y-71014619D01*
X82977014Y-70987739D01*
X83024467Y-70978300D01*
X87756000Y-70978300D01*
X87818000Y-70994913D01*
G37*
%TD.AperFunction*%
%TA.AperFunction,Conductor*%
G36*
X97078487Y-70078839D02*
G01*
X97118715Y-70105719D01*
X100748012Y-73735016D01*
X100762888Y-73752998D01*
X100767625Y-73759968D01*
X100809813Y-73797162D01*
X100815491Y-73802495D01*
X103385081Y-76372086D01*
X103411961Y-76412314D01*
X103421400Y-76459767D01*
X103421400Y-85018393D01*
X103419204Y-85041627D01*
X103417624Y-85049906D01*
X103421155Y-85106014D01*
X103421400Y-85113801D01*
X103421400Y-85129863D01*
X103423411Y-85145792D01*
X103424143Y-85153535D01*
X103427674Y-85209650D01*
X103430278Y-85217664D01*
X103435369Y-85240435D01*
X103436425Y-85248796D01*
X103457121Y-85301069D01*
X103459758Y-85308395D01*
X103477134Y-85361871D01*
X103477135Y-85361873D01*
X103477136Y-85361875D01*
X103481653Y-85368992D01*
X103492244Y-85389778D01*
X103495347Y-85397616D01*
X103528397Y-85443107D01*
X103532773Y-85449547D01*
X103562899Y-85497017D01*
X103569046Y-85502790D01*
X103584478Y-85520295D01*
X103589426Y-85527105D01*
X103589427Y-85527106D01*
X103589428Y-85527107D01*
X103626281Y-85557594D01*
X103632743Y-85562940D01*
X103638587Y-85568092D01*
X103679579Y-85606586D01*
X103686957Y-85610642D01*
X103706264Y-85623762D01*
X103712757Y-85629134D01*
X103741942Y-85642867D01*
X103763636Y-85653075D01*
X103770559Y-85656602D01*
X103809450Y-85677983D01*
X103814272Y-85680634D01*
X103851233Y-85711673D01*
X103873543Y-85754473D01*
X103877822Y-85802548D01*
X103871500Y-85861362D01*
X103871500Y-86858638D01*
X103875220Y-86893245D01*
X103878011Y-86919204D01*
X103890119Y-86951667D01*
X103897937Y-86994998D01*
X103890120Y-87038329D01*
X103878011Y-87070795D01*
X103871500Y-87131366D01*
X103871500Y-87497500D01*
X103854887Y-87559500D01*
X103809500Y-87604887D01*
X103747500Y-87621500D01*
X102866362Y-87621500D01*
X102836080Y-87624755D01*
X102805795Y-87628011D01*
X102773329Y-87640120D01*
X102729998Y-87647937D01*
X102686667Y-87640119D01*
X102654204Y-87628011D01*
X102628245Y-87625220D01*
X102593638Y-87621500D01*
X101596362Y-87621500D01*
X101595757Y-87621564D01*
X101595385Y-87621500D01*
X101589716Y-87621500D01*
X101589716Y-87620512D01*
X101528321Y-87609814D01*
X101477395Y-87564070D01*
X101458500Y-87498276D01*
X101458500Y-77708234D01*
X101460789Y-77687491D01*
X101460701Y-77684695D01*
X101460702Y-77684692D01*
X101458560Y-77616569D01*
X101458500Y-77612675D01*
X101458500Y-77584747D01*
X101458500Y-77584744D01*
X101457982Y-77580647D01*
X101457065Y-77568998D01*
X101455674Y-77524711D01*
X101449977Y-77505101D01*
X101446033Y-77486060D01*
X101443474Y-77465803D01*
X101427161Y-77424602D01*
X101423386Y-77413575D01*
X101411019Y-77371007D01*
X101400622Y-77353428D01*
X101392064Y-77335957D01*
X101384552Y-77316984D01*
X101384552Y-77316983D01*
X101358505Y-77281132D01*
X101352098Y-77271378D01*
X101329543Y-77233239D01*
X101329542Y-77233238D01*
X101315101Y-77218797D01*
X101302472Y-77204010D01*
X101290472Y-77187493D01*
X101256324Y-77159243D01*
X101247685Y-77151381D01*
X94377386Y-70281081D01*
X94347136Y-70231718D01*
X94342594Y-70174002D01*
X94364749Y-70120515D01*
X94408772Y-70082915D01*
X94465067Y-70069400D01*
X97031034Y-70069400D01*
X97078487Y-70078839D01*
G37*
%TD.AperFunction*%
%TA.AperFunction,Conductor*%
G36*
X89043579Y-71722237D02*
G01*
X89095476Y-71753280D01*
X91500829Y-74158634D01*
X93805181Y-76462986D01*
X93832061Y-76503214D01*
X93841500Y-76550667D01*
X93841500Y-80097267D01*
X93839210Y-80118008D01*
X93841439Y-80188917D01*
X93841500Y-80192813D01*
X93841500Y-80220755D01*
X93842018Y-80224856D01*
X93842934Y-80236497D01*
X93844326Y-80280788D01*
X93850022Y-80300392D01*
X93853967Y-80319444D01*
X93856525Y-80339698D01*
X93872838Y-80380901D01*
X93876621Y-80391949D01*
X93888982Y-80434493D01*
X93899374Y-80452066D01*
X93907931Y-80469533D01*
X93915448Y-80488518D01*
X93941491Y-80524363D01*
X93947905Y-80534127D01*
X93970458Y-80572262D01*
X93984890Y-80586694D01*
X93997526Y-80601489D01*
X94009526Y-80618005D01*
X94043667Y-80646249D01*
X94052308Y-80654112D01*
X95075181Y-81676985D01*
X95102061Y-81717213D01*
X95111500Y-81764666D01*
X95111500Y-87498276D01*
X95092605Y-87564070D01*
X95041679Y-87609814D01*
X94980284Y-87620512D01*
X94980284Y-87621500D01*
X94974615Y-87621500D01*
X94974242Y-87621564D01*
X94973638Y-87621500D01*
X93976362Y-87621500D01*
X93946080Y-87624755D01*
X93915795Y-87628011D01*
X93883329Y-87640120D01*
X93839998Y-87647937D01*
X93796667Y-87640119D01*
X93764204Y-87628011D01*
X93738245Y-87625220D01*
X93703638Y-87621500D01*
X92706362Y-87621500D01*
X92676080Y-87624755D01*
X92645795Y-87628011D01*
X92613329Y-87640120D01*
X92569998Y-87647937D01*
X92526667Y-87640119D01*
X92494204Y-87628011D01*
X92468245Y-87625220D01*
X92433638Y-87621500D01*
X91436362Y-87621500D01*
X91406080Y-87624755D01*
X91375795Y-87628011D01*
X91343329Y-87640120D01*
X91299998Y-87647937D01*
X91256667Y-87640119D01*
X91224204Y-87628011D01*
X91198245Y-87625220D01*
X91163638Y-87621500D01*
X90166362Y-87621500D01*
X90136080Y-87624755D01*
X90105795Y-87628011D01*
X90073329Y-87640120D01*
X90029998Y-87647937D01*
X89986667Y-87640119D01*
X89954204Y-87628011D01*
X89928245Y-87625220D01*
X89893638Y-87621500D01*
X89012500Y-87621500D01*
X88950500Y-87604887D01*
X88905113Y-87559500D01*
X88888500Y-87497500D01*
X88888500Y-87131366D01*
X88887865Y-87125458D01*
X88881989Y-87070799D01*
X88879054Y-87062929D01*
X88869880Y-87038332D01*
X88862062Y-86994998D01*
X88869881Y-86951664D01*
X88881988Y-86919203D01*
X88881987Y-86919203D01*
X88881989Y-86919201D01*
X88888500Y-86858638D01*
X88888500Y-85861362D01*
X88881989Y-85800799D01*
X88869879Y-85768332D01*
X88862061Y-85725000D01*
X88869879Y-85681667D01*
X88881989Y-85649201D01*
X88888500Y-85588638D01*
X88888500Y-84591362D01*
X88881989Y-84530799D01*
X88869879Y-84498331D01*
X88862061Y-84455000D01*
X88869879Y-84411667D01*
X88881989Y-84379201D01*
X88888500Y-84318638D01*
X88888500Y-83321362D01*
X88881989Y-83260799D01*
X88869879Y-83228331D01*
X88862061Y-83184998D01*
X88869881Y-83141662D01*
X88879043Y-83117100D01*
X88881989Y-83109201D01*
X88888500Y-83048638D01*
X88888500Y-82051362D01*
X88881989Y-81990799D01*
X88870165Y-81959097D01*
X88869880Y-81958332D01*
X88862062Y-81914998D01*
X88869881Y-81871664D01*
X88881988Y-81839203D01*
X88881987Y-81839203D01*
X88881989Y-81839201D01*
X88888500Y-81778638D01*
X88888500Y-80781362D01*
X88881989Y-80720799D01*
X88869879Y-80688331D01*
X88862061Y-80645000D01*
X88869879Y-80601667D01*
X88881989Y-80569201D01*
X88888500Y-80508638D01*
X88888500Y-79511362D01*
X88881989Y-79450799D01*
X88869879Y-79418331D01*
X88862061Y-79374998D01*
X88869881Y-79331662D01*
X88881988Y-79299203D01*
X88881987Y-79299203D01*
X88881989Y-79299201D01*
X88888500Y-79238638D01*
X88888500Y-78241362D01*
X88881989Y-78180799D01*
X88869879Y-78148331D01*
X88862061Y-78105000D01*
X88869879Y-78061667D01*
X88881989Y-78029201D01*
X88888500Y-77968638D01*
X88888500Y-76971362D01*
X88881989Y-76910799D01*
X88869879Y-76878332D01*
X88862061Y-76835000D01*
X88869879Y-76791667D01*
X88881989Y-76759201D01*
X88888500Y-76698638D01*
X88888500Y-75701362D01*
X88881989Y-75640799D01*
X88869879Y-75608332D01*
X88862061Y-75565000D01*
X88869879Y-75521667D01*
X88881989Y-75489201D01*
X88888500Y-75428638D01*
X88888500Y-74431362D01*
X88881989Y-74370799D01*
X88869879Y-74338331D01*
X88862061Y-74295000D01*
X88869879Y-74251667D01*
X88881989Y-74219201D01*
X88888500Y-74158638D01*
X88888500Y-73161362D01*
X88881989Y-73100799D01*
X88879058Y-73092940D01*
X88869880Y-73068332D01*
X88862062Y-73024998D01*
X88869881Y-72981664D01*
X88881988Y-72949203D01*
X88881987Y-72949203D01*
X88881989Y-72949201D01*
X88888500Y-72888638D01*
X88888500Y-71891362D01*
X88884506Y-71854214D01*
X88892899Y-71794328D01*
X88928619Y-71745531D01*
X88983171Y-71719432D01*
X89043579Y-71722237D01*
G37*
%TD.AperFunction*%
%TA.AperFunction,Conductor*%
G36*
X111075500Y-73040113D02*
G01*
X111120887Y-73085500D01*
X111137500Y-73147500D01*
X111137500Y-73410000D01*
X112351000Y-73410000D01*
X112413000Y-73426613D01*
X112458387Y-73472000D01*
X112475000Y-73534000D01*
X112475000Y-74884999D01*
X112612479Y-74884999D01*
X112715195Y-74874506D01*
X112881622Y-74819357D01*
X113030845Y-74727316D01*
X113165066Y-74593096D01*
X113166256Y-74594286D01*
X113197067Y-74564786D01*
X113257500Y-74549060D01*
X113317935Y-74564781D01*
X113353141Y-74598483D01*
X113353221Y-74598404D01*
X113356864Y-74602047D01*
X113363044Y-74607963D01*
X113363468Y-74608651D01*
X113488845Y-74734028D01*
X113488847Y-74734029D01*
X113488848Y-74734030D01*
X113639762Y-74827115D01*
X113723917Y-74855000D01*
X113808073Y-74882887D01*
X113817702Y-74883870D01*
X113911955Y-74893500D01*
X114688044Y-74893499D01*
X114791926Y-74882887D01*
X114960238Y-74827115D01*
X115111152Y-74734030D01*
X115236530Y-74608652D01*
X115329615Y-74457738D01*
X115355872Y-74378495D01*
X115381750Y-74334171D01*
X115423362Y-74304123D01*
X115473578Y-74293500D01*
X120483000Y-74293500D01*
X120545000Y-74310113D01*
X120590387Y-74355500D01*
X120607000Y-74417500D01*
X120607000Y-87081133D01*
X120593485Y-87137428D01*
X120555885Y-87181451D01*
X120502398Y-87203606D01*
X120444682Y-87199064D01*
X120395319Y-87168814D01*
X115988544Y-82762039D01*
X115964304Y-82727741D01*
X115952904Y-82687319D01*
X115952103Y-82679703D01*
X115952104Y-82679700D01*
X115932142Y-82489772D01*
X115887532Y-82352477D01*
X115873127Y-82308143D01*
X115777642Y-82142758D01*
X115710936Y-82068674D01*
X115649853Y-82000834D01*
X115496181Y-81889184D01*
X115495351Y-81888581D01*
X115320885Y-81810904D01*
X115134089Y-81771200D01*
X115134087Y-81771200D01*
X114943113Y-81771200D01*
X114943111Y-81771200D01*
X114756314Y-81810904D01*
X114581848Y-81888581D01*
X114427348Y-82000833D01*
X114299557Y-82142758D01*
X114205180Y-82306226D01*
X114166684Y-82347328D01*
X114113978Y-82367165D01*
X114057935Y-82361645D01*
X114010112Y-82331907D01*
X113964287Y-82286082D01*
X113932771Y-82232580D01*
X113931146Y-82170507D01*
X113959816Y-82115431D01*
X114038140Y-82028444D01*
X114046955Y-82013177D01*
X114133627Y-81863056D01*
X114141378Y-81839201D01*
X114192642Y-81681428D01*
X114212604Y-81491500D01*
X114206489Y-81433328D01*
X114216010Y-81371119D01*
X114219981Y-81361945D01*
X114226912Y-81318176D01*
X114229278Y-81306753D01*
X114240300Y-81263830D01*
X114240300Y-81243416D01*
X114241827Y-81224017D01*
X114242966Y-81216824D01*
X114245020Y-81203857D01*
X114240850Y-81159743D01*
X114240300Y-81148074D01*
X114240300Y-80097500D01*
X114256913Y-80035500D01*
X114302300Y-79990113D01*
X114364300Y-79973500D01*
X114688044Y-79973499D01*
X114771251Y-79964999D01*
X114791926Y-79962887D01*
X114960238Y-79907115D01*
X115111152Y-79814030D01*
X115236530Y-79688652D01*
X115329615Y-79537738D01*
X115385387Y-79369426D01*
X115396000Y-79265545D01*
X115395999Y-78214456D01*
X115385387Y-78110574D01*
X115329615Y-77942262D01*
X115236530Y-77791348D01*
X115236529Y-77791347D01*
X115236528Y-77791345D01*
X115111154Y-77665971D01*
X115027915Y-77614629D01*
X114960238Y-77572885D01*
X114960237Y-77572884D01*
X114960236Y-77572884D01*
X114791926Y-77517112D01*
X114697673Y-77507483D01*
X114688044Y-77506500D01*
X113911955Y-77506500D01*
X113808072Y-77517112D01*
X113679110Y-77559846D01*
X113611510Y-77562798D01*
X113552426Y-77529821D01*
X109932605Y-73910000D01*
X111137501Y-73910000D01*
X111137501Y-74184979D01*
X111147993Y-74287695D01*
X111203142Y-74454122D01*
X111295183Y-74603345D01*
X111419154Y-74727316D01*
X111568377Y-74819357D01*
X111734803Y-74874506D01*
X111837521Y-74885000D01*
X111975000Y-74885000D01*
X111975000Y-73910000D01*
X111137501Y-73910000D01*
X109932605Y-73910000D01*
X109293788Y-73271183D01*
X109280741Y-73254898D01*
X109262632Y-73237893D01*
X109230584Y-73188771D01*
X109224697Y-73130415D01*
X109246287Y-73075882D01*
X109290526Y-73037371D01*
X109347514Y-73023500D01*
X111013500Y-73023500D01*
X111075500Y-73040113D01*
G37*
%TD.AperFunction*%
%TA.AperFunction,Conductor*%
G36*
X108520387Y-74302939D02*
G01*
X108560615Y-74329819D01*
X111608789Y-77377994D01*
X111640403Y-77431841D01*
X111641767Y-77494267D01*
X111612535Y-77549443D01*
X111579395Y-77570898D01*
X111580713Y-77573034D01*
X111419154Y-77672683D01*
X111295183Y-77796654D01*
X111203142Y-77945877D01*
X111147993Y-78112303D01*
X111137500Y-78215021D01*
X111137500Y-78490000D01*
X112351000Y-78490000D01*
X112413000Y-78506613D01*
X112458387Y-78552000D01*
X112475000Y-78614000D01*
X112475000Y-78866000D01*
X112458387Y-78928000D01*
X112413000Y-78973387D01*
X112351000Y-78990000D01*
X111212366Y-78990000D01*
X111164913Y-78980561D01*
X111124685Y-78953681D01*
X109779817Y-77608813D01*
X106712188Y-74541183D01*
X106699141Y-74524898D01*
X106681032Y-74507893D01*
X106648984Y-74458771D01*
X106643097Y-74400415D01*
X106664687Y-74345882D01*
X106708926Y-74307371D01*
X106765914Y-74293500D01*
X108472934Y-74293500D01*
X108520387Y-74302939D01*
G37*
%TD.AperFunction*%
%TA.AperFunction,Conductor*%
G36*
X104367117Y-69091726D02*
G01*
X104411140Y-69129326D01*
X104433295Y-69182813D01*
X104428753Y-69240529D01*
X104398503Y-69289892D01*
X101334281Y-72354114D01*
X101278694Y-72386208D01*
X101214506Y-72386208D01*
X101158919Y-72354114D01*
X98094697Y-69289892D01*
X98064447Y-69240529D01*
X98059905Y-69182813D01*
X98082060Y-69129326D01*
X98126083Y-69091726D01*
X98182378Y-69078211D01*
X104310822Y-69078211D01*
X104367117Y-69091726D01*
G37*
%TD.AperFunction*%
%TA.AperFunction,Conductor*%
G36*
X112413000Y-68346613D02*
G01*
X112458387Y-68392000D01*
X112475000Y-68454000D01*
X112475000Y-69804999D01*
X112612479Y-69804999D01*
X112715195Y-69794506D01*
X112881622Y-69739357D01*
X113030845Y-69647316D01*
X113165066Y-69513096D01*
X113166256Y-69514286D01*
X113197067Y-69484786D01*
X113257500Y-69469060D01*
X113317935Y-69484781D01*
X113353141Y-69518483D01*
X113353221Y-69518404D01*
X113356864Y-69522047D01*
X113363044Y-69527963D01*
X113363468Y-69528651D01*
X113488845Y-69654028D01*
X113488847Y-69654029D01*
X113488848Y-69654030D01*
X113607597Y-69727275D01*
X113650777Y-69772382D01*
X113666500Y-69832814D01*
X113666500Y-70806233D01*
X113657061Y-70853686D01*
X113630181Y-70893914D01*
X112803914Y-71720181D01*
X112763686Y-71747061D01*
X112716233Y-71756500D01*
X106503137Y-71756500D01*
X106437343Y-71737605D01*
X106391600Y-71686680D01*
X106380760Y-71624474D01*
X106380000Y-71624474D01*
X106380000Y-71620115D01*
X106379848Y-71619243D01*
X106380000Y-71617829D01*
X106380000Y-71370000D01*
X105004000Y-71370000D01*
X104942000Y-71353387D01*
X104896613Y-71308000D01*
X104880000Y-71246000D01*
X104880000Y-70994000D01*
X104896613Y-70932000D01*
X104942000Y-70886613D01*
X105004000Y-70870000D01*
X106380000Y-70870000D01*
X106380000Y-70622176D01*
X106373597Y-70562624D01*
X106323352Y-70427910D01*
X106237189Y-70312811D01*
X106166865Y-70260167D01*
X106128382Y-70212411D01*
X106117492Y-70152054D01*
X106136861Y-70093860D01*
X106181749Y-70052068D01*
X106241176Y-70036900D01*
X109589867Y-70036900D01*
X109610608Y-70039189D01*
X109613405Y-70039101D01*
X109613409Y-70039102D01*
X109681517Y-70036960D01*
X109685413Y-70036900D01*
X109713354Y-70036900D01*
X109713356Y-70036900D01*
X109717456Y-70036381D01*
X109729106Y-70035464D01*
X109773389Y-70034073D01*
X109792998Y-70028375D01*
X109812031Y-70024433D01*
X109832297Y-70021874D01*
X109873506Y-70005557D01*
X109884537Y-70001780D01*
X109927093Y-69989418D01*
X109944660Y-69979028D01*
X109962132Y-69970468D01*
X109981117Y-69962952D01*
X110016975Y-69936898D01*
X110026723Y-69930496D01*
X110064862Y-69907942D01*
X110079300Y-69893503D01*
X110094088Y-69880872D01*
X110110607Y-69868872D01*
X110138859Y-69834719D01*
X110146703Y-69826099D01*
X110927990Y-69044813D01*
X110988388Y-69011535D01*
X111057228Y-69015670D01*
X111113213Y-69055942D01*
X111139024Y-69119895D01*
X111147993Y-69207695D01*
X111203142Y-69374122D01*
X111295183Y-69523345D01*
X111419154Y-69647316D01*
X111568377Y-69739357D01*
X111734803Y-69794506D01*
X111837521Y-69805000D01*
X111975000Y-69805000D01*
X111975000Y-68454000D01*
X111991613Y-68392000D01*
X112037000Y-68346613D01*
X112099000Y-68330000D01*
X112351000Y-68330000D01*
X112413000Y-68346613D01*
G37*
%TD.AperFunction*%
%TD*%
%TA.AperFunction,NonConductor*%
G36*
X122561876Y-67666697D02*
G01*
X122605950Y-67704507D01*
X122627977Y-67758237D01*
X122623126Y-67816104D01*
X122577993Y-67952303D01*
X122567500Y-68055021D01*
X122567500Y-68330000D01*
X123781000Y-68330000D01*
X123843000Y-68346613D01*
X123888387Y-68392000D01*
X123905000Y-68454000D01*
X123905000Y-69804999D01*
X123935000Y-69804999D01*
X123997000Y-69821612D01*
X124042387Y-69866999D01*
X124059000Y-69928999D01*
X124059000Y-72302500D01*
X124042387Y-72364500D01*
X123997000Y-72409887D01*
X123935000Y-72426500D01*
X123266955Y-72426500D01*
X123163074Y-72437112D01*
X122994763Y-72492884D01*
X122843845Y-72585971D01*
X122718471Y-72711345D01*
X122676867Y-72778797D01*
X122625385Y-72862262D01*
X122606327Y-72919778D01*
X122599128Y-72941503D01*
X122573250Y-72985829D01*
X122531638Y-73015877D01*
X122481422Y-73026500D01*
X121320530Y-73026500D01*
X121312107Y-73026500D01*
X121288873Y-73024304D01*
X121280593Y-73022724D01*
X121226918Y-73026101D01*
X121224484Y-73026255D01*
X121216699Y-73026500D01*
X115473578Y-73026500D01*
X115423362Y-73015877D01*
X115381750Y-72985829D01*
X115355872Y-72941503D01*
X115351271Y-72927617D01*
X115329615Y-72862262D01*
X115236530Y-72711348D01*
X115236529Y-72711347D01*
X115236528Y-72711345D01*
X115111154Y-72585971D01*
X114960236Y-72492884D01*
X114791926Y-72437112D01*
X114697673Y-72427483D01*
X114688045Y-72426500D01*
X114688044Y-72426500D01*
X114188765Y-72426500D01*
X114132470Y-72412985D01*
X114088447Y-72375385D01*
X114066292Y-72321898D01*
X114070834Y-72264182D01*
X114101084Y-72214819D01*
X114361066Y-71954837D01*
X114688816Y-71627086D01*
X114705097Y-71614044D01*
X114707014Y-71612002D01*
X114707018Y-71612000D01*
X114753706Y-71562279D01*
X114756323Y-71559579D01*
X114776134Y-71539770D01*
X114778672Y-71536497D01*
X114786241Y-71527634D01*
X114816586Y-71495321D01*
X114826422Y-71477427D01*
X114837102Y-71461168D01*
X114849613Y-71445041D01*
X114867211Y-71404372D01*
X114872341Y-71393900D01*
X114893695Y-71355060D01*
X114898772Y-71335282D01*
X114905072Y-71316882D01*
X114913181Y-71298145D01*
X114920112Y-71254376D01*
X114922478Y-71242953D01*
X114933500Y-71200030D01*
X114933500Y-71179616D01*
X114935027Y-71160217D01*
X114935102Y-71159740D01*
X114938220Y-71140057D01*
X114934050Y-71095943D01*
X114933500Y-71084274D01*
X114933500Y-69832814D01*
X114949223Y-69772382D01*
X114992402Y-69727275D01*
X115111152Y-69654030D01*
X115236530Y-69528652D01*
X115329615Y-69377738D01*
X115385387Y-69209426D01*
X115396000Y-69105545D01*
X115396000Y-68830000D01*
X122567501Y-68830000D01*
X122567501Y-69104979D01*
X122577993Y-69207695D01*
X122633142Y-69374122D01*
X122725183Y-69523345D01*
X122849154Y-69647316D01*
X122998377Y-69739357D01*
X123164803Y-69794506D01*
X123267521Y-69805000D01*
X123405000Y-69805000D01*
X123405000Y-68830000D01*
X122567501Y-68830000D01*
X115396000Y-68830000D01*
X115395999Y-68054456D01*
X115385387Y-67950574D01*
X115385387Y-67950572D01*
X115340829Y-67816103D01*
X115335978Y-67758236D01*
X115358005Y-67704507D01*
X115402080Y-67666697D01*
X115458535Y-67653100D01*
X122505420Y-67653100D01*
X122561876Y-67666697D01*
G37*
%TD.AperFunction*%
%TA.AperFunction,NonConductor*%
G36*
X221908187Y-67662539D02*
G01*
X221948415Y-67689419D01*
X231759714Y-77500719D01*
X231789964Y-77550082D01*
X231794506Y-77607798D01*
X231772351Y-77661285D01*
X231728328Y-77698885D01*
X231672033Y-77712400D01*
X230787162Y-77712400D01*
X230760245Y-77715293D01*
X230726594Y-77718911D01*
X230589596Y-77770010D01*
X230458266Y-77868323D01*
X230457165Y-77866853D01*
X230420504Y-77894294D01*
X230350815Y-77899275D01*
X230289496Y-77865791D01*
X220979688Y-68555983D01*
X220966644Y-68539701D01*
X220914948Y-68491156D01*
X220912151Y-68488445D01*
X220892373Y-68468667D01*
X220889095Y-68466124D01*
X220880222Y-68458545D01*
X220847921Y-68428214D01*
X220830033Y-68418380D01*
X220813769Y-68407696D01*
X220797640Y-68395185D01*
X220756977Y-68377589D01*
X220746483Y-68372448D01*
X220707662Y-68351105D01*
X220695986Y-68348107D01*
X220687884Y-68346027D01*
X220669479Y-68339726D01*
X220650745Y-68331619D01*
X220650743Y-68331618D01*
X220650742Y-68331618D01*
X220606983Y-68324687D01*
X220595543Y-68322318D01*
X220552631Y-68311300D01*
X220552630Y-68311300D01*
X220532216Y-68311300D01*
X220512817Y-68309773D01*
X220492658Y-68306580D01*
X220492657Y-68306580D01*
X220466020Y-68309098D01*
X220448543Y-68310750D01*
X220436874Y-68311300D01*
X130793933Y-68311300D01*
X130773191Y-68309010D01*
X130770391Y-68309098D01*
X130702283Y-68311239D01*
X130698387Y-68311300D01*
X130670444Y-68311300D01*
X130666342Y-68311818D01*
X130654703Y-68312734D01*
X130610411Y-68314126D01*
X130590808Y-68319822D01*
X130571756Y-68323767D01*
X130551504Y-68326325D01*
X130510300Y-68342638D01*
X130499255Y-68346419D01*
X130456710Y-68358780D01*
X130456706Y-68358782D01*
X130456707Y-68358782D01*
X130439127Y-68369177D01*
X130421670Y-68377730D01*
X130402678Y-68385249D01*
X130366834Y-68411291D01*
X130357077Y-68417701D01*
X130318938Y-68440257D01*
X130304500Y-68454695D01*
X130289711Y-68467325D01*
X130273194Y-68479325D01*
X130244944Y-68513473D01*
X130237083Y-68522111D01*
X130000812Y-68758381D01*
X129939489Y-68791866D01*
X129869798Y-68786882D01*
X129819202Y-68768011D01*
X129807088Y-68766708D01*
X129758638Y-68761500D01*
X129758634Y-68761500D01*
X128489599Y-68761500D01*
X128428158Y-68745208D01*
X128402946Y-68720387D01*
X128400519Y-68722815D01*
X128375007Y-68697303D01*
X128362369Y-68682506D01*
X128350372Y-68665993D01*
X128316224Y-68637743D01*
X128307585Y-68629881D01*
X127542486Y-67864781D01*
X127512236Y-67815418D01*
X127507694Y-67757702D01*
X127529849Y-67704215D01*
X127573872Y-67666615D01*
X127630167Y-67653100D01*
X221860734Y-67653100D01*
X221908187Y-67662539D01*
G37*
%TD.AperFunction*%
%TA.AperFunction,NonConductor*%
G36*
X92820187Y-70529039D02*
G01*
X92860415Y-70555919D01*
X98614073Y-76309577D01*
X98646756Y-76367450D01*
X98644858Y-76433888D01*
X98608925Y-76489801D01*
X98549280Y-76519127D01*
X98483060Y-76513440D01*
X98437379Y-76496402D01*
X98377824Y-76490000D01*
X98130000Y-76490000D01*
X98130000Y-77190000D01*
X99406000Y-77190000D01*
X99468000Y-77206613D01*
X99513387Y-77252000D01*
X99530000Y-77314000D01*
X99530000Y-81190000D01*
X99777824Y-81190000D01*
X99837375Y-81183597D01*
X99972089Y-81133352D01*
X99993189Y-81117557D01*
X100056448Y-81093318D01*
X100123004Y-81105940D01*
X100172995Y-81151657D01*
X100191500Y-81216824D01*
X100191500Y-87498276D01*
X100172605Y-87564070D01*
X100121679Y-87609814D01*
X100060284Y-87620512D01*
X100060284Y-87621500D01*
X100054615Y-87621500D01*
X100054242Y-87621564D01*
X100053638Y-87621500D01*
X99056362Y-87621500D01*
X99026080Y-87624755D01*
X98995795Y-87628011D01*
X98963329Y-87640120D01*
X98919998Y-87647937D01*
X98876667Y-87640119D01*
X98844204Y-87628011D01*
X98818245Y-87625220D01*
X98783638Y-87621500D01*
X97786362Y-87621500D01*
X97756080Y-87624755D01*
X97725795Y-87628011D01*
X97693329Y-87640120D01*
X97649998Y-87647937D01*
X97606667Y-87640119D01*
X97574204Y-87628011D01*
X97548245Y-87625220D01*
X97513638Y-87621500D01*
X96516362Y-87621500D01*
X96515757Y-87621564D01*
X96515385Y-87621500D01*
X96509716Y-87621500D01*
X96509716Y-87620512D01*
X96448321Y-87609814D01*
X96397395Y-87564070D01*
X96378500Y-87498276D01*
X96378500Y-81534533D01*
X96380789Y-81513791D01*
X96380701Y-81510994D01*
X96380702Y-81510991D01*
X96378560Y-81442882D01*
X96378500Y-81438987D01*
X96378500Y-81411046D01*
X96377982Y-81406949D01*
X96377064Y-81395290D01*
X96376442Y-81375500D01*
X96375673Y-81351010D01*
X96369978Y-81331411D01*
X96366033Y-81312362D01*
X96363474Y-81292103D01*
X96347162Y-81250904D01*
X96343377Y-81239850D01*
X96341578Y-81233658D01*
X96331018Y-81197307D01*
X96322910Y-81183597D01*
X96320624Y-81179731D01*
X96312064Y-81162257D01*
X96308810Y-81154039D01*
X96304552Y-81143283D01*
X96278510Y-81107440D01*
X96272095Y-81097673D01*
X96247267Y-81055689D01*
X96230000Y-80992570D01*
X96230000Y-80490000D01*
X96730000Y-80490000D01*
X96730000Y-81190000D01*
X96977824Y-81190000D01*
X97037375Y-81183597D01*
X97136666Y-81146564D01*
X97180000Y-81138746D01*
X97223334Y-81146564D01*
X97322624Y-81183597D01*
X97382176Y-81190000D01*
X97630000Y-81190000D01*
X97630000Y-80490000D01*
X98130000Y-80490000D01*
X98130000Y-81190000D01*
X98377824Y-81190000D01*
X98437375Y-81183597D01*
X98536666Y-81146564D01*
X98580000Y-81138746D01*
X98623334Y-81146564D01*
X98722624Y-81183597D01*
X98782176Y-81190000D01*
X99030000Y-81190000D01*
X99030000Y-80490000D01*
X98130000Y-80490000D01*
X97630000Y-80490000D01*
X96730000Y-80490000D01*
X96230000Y-80490000D01*
X96230000Y-79090000D01*
X96730000Y-79090000D01*
X96730000Y-79990000D01*
X97630000Y-79990000D01*
X97630000Y-79090000D01*
X98130000Y-79090000D01*
X98130000Y-79990000D01*
X99030000Y-79990000D01*
X99030000Y-79090000D01*
X98130000Y-79090000D01*
X97630000Y-79090000D01*
X96730000Y-79090000D01*
X96230000Y-79090000D01*
X95530000Y-79090000D01*
X95530000Y-79337824D01*
X95536402Y-79397377D01*
X95573435Y-79496666D01*
X95581253Y-79539999D01*
X95573435Y-79583332D01*
X95536402Y-79682622D01*
X95530000Y-79742176D01*
X95530000Y-80040633D01*
X95516485Y-80096928D01*
X95478885Y-80140951D01*
X95425398Y-80163106D01*
X95367682Y-80158564D01*
X95318319Y-80128314D01*
X95144819Y-79954814D01*
X95117939Y-79914586D01*
X95108500Y-79867133D01*
X95108500Y-77690000D01*
X95530000Y-77690000D01*
X95530000Y-77937824D01*
X95536402Y-77997377D01*
X95573435Y-78096666D01*
X95581253Y-78139999D01*
X95573435Y-78183332D01*
X95536402Y-78282622D01*
X95530000Y-78342176D01*
X95530000Y-78590000D01*
X96230000Y-78590000D01*
X96230000Y-77690000D01*
X96730000Y-77690000D01*
X96730000Y-78590000D01*
X97630000Y-78590000D01*
X97630000Y-77690000D01*
X98130000Y-77690000D01*
X98130000Y-78590000D01*
X99030000Y-78590000D01*
X99030000Y-77690000D01*
X98130000Y-77690000D01*
X97630000Y-77690000D01*
X96730000Y-77690000D01*
X96230000Y-77690000D01*
X95530000Y-77690000D01*
X95108500Y-77690000D01*
X95108500Y-77190000D01*
X95530000Y-77190000D01*
X96230000Y-77190000D01*
X96230000Y-76490000D01*
X96730000Y-76490000D01*
X96730000Y-77190000D01*
X97630000Y-77190000D01*
X97630000Y-76490000D01*
X97382176Y-76490000D01*
X97322622Y-76496402D01*
X97223333Y-76533435D01*
X97180000Y-76541253D01*
X97136667Y-76533435D01*
X97037377Y-76496402D01*
X96977824Y-76490000D01*
X96730000Y-76490000D01*
X96230000Y-76490000D01*
X95982176Y-76490000D01*
X95922624Y-76496402D01*
X95787910Y-76546647D01*
X95672811Y-76632811D01*
X95586647Y-76747910D01*
X95536402Y-76882624D01*
X95530000Y-76942176D01*
X95530000Y-77190000D01*
X95108500Y-77190000D01*
X95108500Y-76320534D01*
X95110789Y-76299791D01*
X95110701Y-76296995D01*
X95110702Y-76296992D01*
X95108560Y-76228869D01*
X95108500Y-76224975D01*
X95108500Y-76197047D01*
X95108500Y-76197044D01*
X95107982Y-76192947D01*
X95107065Y-76181298D01*
X95105674Y-76137011D01*
X95099974Y-76117394D01*
X95096033Y-76098364D01*
X95093474Y-76078103D01*
X95077163Y-76036907D01*
X95073381Y-76025860D01*
X95061018Y-75983308D01*
X95061018Y-75983307D01*
X95050622Y-75965729D01*
X95042069Y-75948271D01*
X95034552Y-75929283D01*
X95008503Y-75893430D01*
X95002099Y-75883680D01*
X94979542Y-75845538D01*
X94965107Y-75831103D01*
X94952469Y-75816306D01*
X94940472Y-75799793D01*
X94906324Y-75771543D01*
X94897685Y-75763681D01*
X89865286Y-70731281D01*
X89835036Y-70681918D01*
X89830494Y-70624202D01*
X89852649Y-70570715D01*
X89896672Y-70533115D01*
X89952967Y-70519600D01*
X92772734Y-70519600D01*
X92820187Y-70529039D01*
G37*
%TD.AperFunction*%
%TA.AperFunction,NonConductor*%
G36*
X112782518Y-82915235D02*
G01*
X112831881Y-82945485D01*
X117250290Y-87363894D01*
X117281953Y-87417916D01*
X117283183Y-87480522D01*
X117253665Y-87535746D01*
X117200927Y-87569506D01*
X117138418Y-87573192D01*
X116376061Y-87421550D01*
X116376059Y-87421550D01*
X116376058Y-87421550D01*
X116376056Y-87421550D01*
X115200670Y-87655349D01*
X115195104Y-87655897D01*
X115184473Y-87658543D01*
X115174324Y-87667730D01*
X114183836Y-88329555D01*
X114183667Y-88329667D01*
X113518345Y-89325392D01*
X113505781Y-89340699D01*
X113504222Y-89372440D01*
X113275331Y-90523147D01*
X113275323Y-90523190D01*
X113273113Y-90534277D01*
X113281510Y-90552031D01*
X113407624Y-91186049D01*
X113403938Y-91248558D01*
X113370178Y-91301296D01*
X113314954Y-91330814D01*
X113252348Y-91329584D01*
X113198326Y-91297921D01*
X112656519Y-90756114D01*
X112629639Y-90715886D01*
X112620200Y-90668433D01*
X112620200Y-83033166D01*
X112633715Y-82976871D01*
X112671315Y-82932848D01*
X112724802Y-82910693D01*
X112782518Y-82915235D01*
G37*
%TD.AperFunction*%
%TA.AperFunction,NonConductor*%
G36*
X126063685Y-69822938D02*
G01*
X126103913Y-69849818D01*
X127215081Y-70960986D01*
X127241961Y-71001214D01*
X127251400Y-71048667D01*
X127251400Y-72548393D01*
X127249204Y-72571627D01*
X127247624Y-72579906D01*
X127251155Y-72636014D01*
X127251400Y-72643801D01*
X127251400Y-72659863D01*
X127253411Y-72675792D01*
X127254143Y-72683535D01*
X127257674Y-72739650D01*
X127260278Y-72747664D01*
X127265369Y-72770435D01*
X127266425Y-72778796D01*
X127287121Y-72831069D01*
X127289758Y-72838395D01*
X127307134Y-72891871D01*
X127307135Y-72891873D01*
X127307136Y-72891875D01*
X127311653Y-72898992D01*
X127322244Y-72919778D01*
X127325347Y-72927616D01*
X127358397Y-72973107D01*
X127362773Y-72979547D01*
X127392899Y-73027017D01*
X127399046Y-73032790D01*
X127414478Y-73050295D01*
X127419426Y-73057105D01*
X127419427Y-73057106D01*
X127419428Y-73057107D01*
X127459754Y-73090467D01*
X127462743Y-73092940D01*
X127468587Y-73098092D01*
X127509579Y-73136586D01*
X127516957Y-73140642D01*
X127536264Y-73153762D01*
X127542757Y-73159134D01*
X127571942Y-73172867D01*
X127593636Y-73183075D01*
X127600559Y-73186602D01*
X127604504Y-73188771D01*
X127649839Y-73213695D01*
X127657996Y-73215789D01*
X127679960Y-73223696D01*
X127687582Y-73227283D01*
X127733481Y-73236038D01*
X127775937Y-73252674D01*
X127809511Y-73283531D01*
X127846739Y-73333262D01*
X127963796Y-73420889D01*
X128100794Y-73471988D01*
X128100797Y-73471988D01*
X128100799Y-73471989D01*
X128161362Y-73478500D01*
X129758634Y-73478500D01*
X129758638Y-73478500D01*
X129819201Y-73471989D01*
X129869797Y-73453116D01*
X129916081Y-73445333D01*
X129961944Y-73455309D01*
X130000813Y-73481617D01*
X132447381Y-75928185D01*
X132474261Y-75968413D01*
X132483700Y-76015866D01*
X132483700Y-86966943D01*
X132475464Y-87011381D01*
X132451851Y-87049912D01*
X132433363Y-87070447D01*
X132378157Y-87131758D01*
X132282672Y-87297143D01*
X132223658Y-87478770D01*
X132203696Y-87668700D01*
X132223658Y-87858629D01*
X132282672Y-88040256D01*
X132378157Y-88205641D01*
X132378160Y-88205644D01*
X132505947Y-88347566D01*
X132637659Y-88443261D01*
X132660448Y-88459818D01*
X132834914Y-88537495D01*
X133021711Y-88577200D01*
X133021713Y-88577200D01*
X133078434Y-88577200D01*
X133125887Y-88586639D01*
X133166115Y-88613519D01*
X133950181Y-89397585D01*
X133977061Y-89437813D01*
X133986500Y-89485266D01*
X133986500Y-89763377D01*
X133972985Y-89819672D01*
X133935385Y-89863695D01*
X133881898Y-89885850D01*
X133824182Y-89881308D01*
X133774819Y-89851058D01*
X133739308Y-89815547D01*
X133596100Y-89730854D01*
X133436334Y-89684438D01*
X133417666Y-89682968D01*
X133399002Y-89681500D01*
X132090998Y-89681500D01*
X132077594Y-89682555D01*
X132053665Y-89684438D01*
X131893899Y-89730854D01*
X131750691Y-89815547D01*
X131633047Y-89933191D01*
X131548354Y-90076399D01*
X131501938Y-90236165D01*
X131499000Y-90273501D01*
X131499000Y-90706499D01*
X131501938Y-90743834D01*
X131548354Y-90903600D01*
X131639471Y-91057671D01*
X131656189Y-91109123D01*
X131649408Y-91162795D01*
X131620420Y-91208473D01*
X131321811Y-91507083D01*
X131281586Y-91533961D01*
X131234133Y-91543400D01*
X124183034Y-91543400D01*
X124121034Y-91526787D01*
X124075647Y-91481400D01*
X124059034Y-91419400D01*
X124059034Y-91352645D01*
X124059034Y-91352642D01*
X124052922Y-91274985D01*
X124004528Y-91094376D01*
X123919641Y-90927775D01*
X123801970Y-90782464D01*
X123656659Y-90664793D01*
X123490058Y-90579906D01*
X123309449Y-90531512D01*
X123231792Y-90525400D01*
X122345276Y-90525400D01*
X122267618Y-90531512D01*
X122267619Y-90531512D01*
X122087010Y-90579906D01*
X121920408Y-90664793D01*
X121852487Y-90719795D01*
X121807638Y-90756114D01*
X121805636Y-90757735D01*
X121742175Y-90784509D01*
X121674217Y-90773290D01*
X121622730Y-90727537D01*
X121603600Y-90661369D01*
X121603600Y-89653025D01*
X121618364Y-89594344D01*
X121659139Y-89549637D01*
X121716217Y-89529549D01*
X121776006Y-89538863D01*
X121803678Y-89559792D01*
X121805855Y-89557085D01*
X121965722Y-89685591D01*
X122137397Y-89770734D01*
X122323364Y-89816982D01*
X122366394Y-89819900D01*
X122574000Y-89819900D01*
X122574000Y-88426900D01*
X123074000Y-88426900D01*
X123074000Y-89819899D01*
X123281608Y-89819899D01*
X123324633Y-89816982D01*
X123510602Y-89770734D01*
X123682277Y-89685591D01*
X123831634Y-89565534D01*
X123951691Y-89416177D01*
X124036834Y-89244502D01*
X124083082Y-89058535D01*
X124086000Y-89015506D01*
X124086000Y-88426900D01*
X123074000Y-88426900D01*
X122574000Y-88426900D01*
X122574000Y-86533901D01*
X122366392Y-86533901D01*
X122323366Y-86536817D01*
X122137397Y-86583065D01*
X122053095Y-86624876D01*
X121992125Y-86637649D01*
X121932638Y-86619163D01*
X121889647Y-86574084D01*
X121879219Y-86533900D01*
X123074000Y-86533900D01*
X123074000Y-87926900D01*
X124085999Y-87926900D01*
X124085999Y-87338292D01*
X124083082Y-87295266D01*
X124036834Y-87109297D01*
X123951691Y-86937622D01*
X123831634Y-86788265D01*
X123682277Y-86668208D01*
X123510602Y-86583065D01*
X123324635Y-86536817D01*
X123281606Y-86533900D01*
X123074000Y-86533900D01*
X121879219Y-86533900D01*
X121874000Y-86513788D01*
X121874000Y-74417500D01*
X121890613Y-74355500D01*
X121936000Y-74310113D01*
X121998000Y-74293500D01*
X122481422Y-74293500D01*
X122531638Y-74304123D01*
X122573250Y-74334171D01*
X122599127Y-74378495D01*
X122625385Y-74457738D01*
X122691413Y-74564786D01*
X122718471Y-74608654D01*
X122843845Y-74734028D01*
X122843847Y-74734029D01*
X122843848Y-74734030D01*
X122994762Y-74827115D01*
X123078917Y-74855000D01*
X123163073Y-74882887D01*
X123172702Y-74883870D01*
X123266955Y-74893500D01*
X124043044Y-74893499D01*
X124146926Y-74882887D01*
X124315238Y-74827115D01*
X124466152Y-74734030D01*
X124591530Y-74608652D01*
X124591953Y-74607965D01*
X124598143Y-74602039D01*
X124601779Y-74598404D01*
X124601858Y-74598483D01*
X124637057Y-74564785D01*
X124697489Y-74549060D01*
X124757923Y-74564781D01*
X124788744Y-74594285D01*
X124789934Y-74593096D01*
X124924154Y-74727316D01*
X125073377Y-74819357D01*
X125239803Y-74874506D01*
X125342521Y-74885000D01*
X125480000Y-74885000D01*
X125480000Y-73910000D01*
X125980000Y-73910000D01*
X125980000Y-74884999D01*
X126117479Y-74884999D01*
X126220195Y-74874506D01*
X126386622Y-74819357D01*
X126535845Y-74727316D01*
X126659816Y-74603345D01*
X126751857Y-74454122D01*
X126807006Y-74287696D01*
X126817500Y-74184979D01*
X126817500Y-73910000D01*
X125980000Y-73910000D01*
X125480000Y-73910000D01*
X125480000Y-72435001D01*
X125450000Y-72435001D01*
X125449996Y-72435000D01*
X125980000Y-72435000D01*
X125980000Y-73410000D01*
X126817499Y-73410000D01*
X126817499Y-73135021D01*
X126807006Y-73032304D01*
X126751857Y-72865877D01*
X126659816Y-72716654D01*
X126535845Y-72592683D01*
X126386622Y-72500642D01*
X126220196Y-72445493D01*
X126117479Y-72435000D01*
X125980000Y-72435000D01*
X125449996Y-72435000D01*
X125388000Y-72418388D01*
X125342613Y-72373001D01*
X125326000Y-72311001D01*
X125326000Y-69937500D01*
X125342613Y-69875500D01*
X125388000Y-69830113D01*
X125450000Y-69813500D01*
X125833788Y-69813499D01*
X126016232Y-69813499D01*
X126063685Y-69822938D01*
G37*
%TD.AperFunction*%
%TA.AperFunction,NonConductor*%
G36*
X86314070Y-76852395D02*
G01*
X86359814Y-76903321D01*
X86370512Y-76964716D01*
X86371500Y-76964716D01*
X86371500Y-76970385D01*
X86371564Y-76970757D01*
X86371500Y-76971362D01*
X86371500Y-77968638D01*
X86375509Y-78005926D01*
X86378011Y-78029202D01*
X86390120Y-78061669D01*
X86397937Y-78105000D01*
X86390120Y-78148331D01*
X86378011Y-78180797D01*
X86371500Y-78241366D01*
X86371500Y-79238634D01*
X86378011Y-79299202D01*
X86390120Y-79331669D01*
X86397937Y-79375000D01*
X86390120Y-79418331D01*
X86378011Y-79450797D01*
X86378011Y-79450798D01*
X86378011Y-79450799D01*
X86371500Y-79511362D01*
X86371500Y-80508638D01*
X86375509Y-80545926D01*
X86378011Y-80569202D01*
X86390120Y-80601669D01*
X86397937Y-80645000D01*
X86390120Y-80688331D01*
X86378011Y-80720797D01*
X86378011Y-80720798D01*
X86378011Y-80720799D01*
X86371500Y-80781362D01*
X86371500Y-81778638D01*
X86376708Y-81827088D01*
X86378011Y-81839202D01*
X86390120Y-81871669D01*
X86397937Y-81915000D01*
X86390120Y-81958331D01*
X86378011Y-81990797D01*
X86371500Y-82051366D01*
X86371500Y-83048634D01*
X86378011Y-83109202D01*
X86390120Y-83141669D01*
X86397937Y-83185000D01*
X86390120Y-83228331D01*
X86378011Y-83260797D01*
X86371500Y-83321366D01*
X86371500Y-84318634D01*
X86378011Y-84379202D01*
X86390120Y-84411669D01*
X86397937Y-84455000D01*
X86390120Y-84498331D01*
X86378011Y-84530797D01*
X86378011Y-84530798D01*
X86378011Y-84530799D01*
X86371500Y-84591362D01*
X86371500Y-85588638D01*
X86374473Y-85616291D01*
X86378011Y-85649204D01*
X86390119Y-85681667D01*
X86397937Y-85724998D01*
X86390120Y-85768329D01*
X86378011Y-85800795D01*
X86371500Y-85861366D01*
X86371500Y-86858638D01*
X86371565Y-86859242D01*
X86371500Y-86859615D01*
X86371500Y-86865284D01*
X86370512Y-86865284D01*
X86359814Y-86926679D01*
X86314070Y-86977605D01*
X86248276Y-86996500D01*
X79354428Y-86996500D01*
X79333692Y-86994211D01*
X79330891Y-86994299D01*
X79308619Y-86994999D01*
X79262801Y-86996439D01*
X79258906Y-86996500D01*
X79230944Y-86996500D01*
X79226832Y-86997019D01*
X79215201Y-86997934D01*
X79170910Y-86999326D01*
X79151307Y-87005022D01*
X79132255Y-87008967D01*
X79111999Y-87011526D01*
X79070797Y-87027838D01*
X79059751Y-87031621D01*
X79017202Y-87043983D01*
X78999631Y-87054374D01*
X78982170Y-87062929D01*
X78963183Y-87070447D01*
X78927342Y-87096487D01*
X78917580Y-87102899D01*
X78879439Y-87125455D01*
X78864996Y-87139898D01*
X78850209Y-87152527D01*
X78833692Y-87164528D01*
X78805452Y-87198663D01*
X78797592Y-87207301D01*
X73563331Y-92441562D01*
X73506090Y-92474087D01*
X73440268Y-92472726D01*
X73384422Y-92437865D01*
X73299940Y-92346094D01*
X73255562Y-92311553D01*
X73122275Y-92207810D01*
X73085767Y-92188053D01*
X73038262Y-92142471D01*
X73020786Y-92078997D01*
X73038264Y-92015523D01*
X73085767Y-91969945D01*
X73122276Y-91950189D01*
X73299940Y-91811906D01*
X73452422Y-91646268D01*
X73575560Y-91457791D01*
X73665996Y-91251616D01*
X73721264Y-91033368D01*
X73739856Y-90809000D01*
X73721264Y-90584632D01*
X73665996Y-90366384D01*
X73575560Y-90160209D01*
X73452422Y-89971732D01*
X73299940Y-89806094D01*
X73122276Y-89667811D01*
X73019374Y-89612123D01*
X72976737Y-89574077D01*
X72955689Y-89520948D01*
X72960703Y-89464021D01*
X72990711Y-89415391D01*
X85536285Y-76869819D01*
X85576514Y-76842939D01*
X85623967Y-76833500D01*
X86248276Y-76833500D01*
X86314070Y-76852395D01*
G37*
%TD.AperFunction*%
%TA.AperFunction,NonConductor*%
G36*
X86375607Y-88276616D02*
G01*
X86419369Y-88313190D01*
X86516738Y-88443261D01*
X86633796Y-88530889D01*
X86770794Y-88581988D01*
X86770797Y-88581988D01*
X86770799Y-88581989D01*
X86831362Y-88588500D01*
X86831366Y-88588500D01*
X88312500Y-88588500D01*
X88374500Y-88605113D01*
X88419887Y-88650500D01*
X88436500Y-88712500D01*
X88436500Y-89678638D01*
X88437124Y-89684438D01*
X88443011Y-89739205D01*
X88494110Y-89876203D01*
X88581738Y-89993261D01*
X88698796Y-90080889D01*
X88835794Y-90131988D01*
X88835797Y-90131988D01*
X88835799Y-90131989D01*
X88896362Y-90138500D01*
X89893633Y-90138500D01*
X89893638Y-90138500D01*
X89906914Y-90137072D01*
X89966800Y-90145462D01*
X90015599Y-90181181D01*
X90041701Y-90235734D01*
X90038896Y-90296143D01*
X90007852Y-90348042D01*
X83775713Y-96580180D01*
X83716629Y-96613156D01*
X83649030Y-96610206D01*
X83594425Y-96592112D01*
X83501157Y-96582584D01*
X83490544Y-96581500D01*
X82689455Y-96581500D01*
X82585574Y-96592112D01*
X82417263Y-96647884D01*
X82266345Y-96740971D01*
X82140971Y-96866345D01*
X82047884Y-97017264D01*
X82029912Y-97071503D01*
X82004034Y-97115829D01*
X81962422Y-97145877D01*
X81912206Y-97156500D01*
X75461567Y-97156500D01*
X75414114Y-97147061D01*
X75373886Y-97120181D01*
X72994348Y-94740643D01*
X72964338Y-94692010D01*
X72959325Y-94635084D01*
X72980373Y-94581955D01*
X73023009Y-94543909D01*
X73122276Y-94490189D01*
X73299940Y-94351906D01*
X73452422Y-94186268D01*
X73550713Y-94035821D01*
X73593798Y-93995530D01*
X73650627Y-93979706D01*
X73651689Y-93979673D01*
X73671298Y-93973975D01*
X73690331Y-93970033D01*
X73710597Y-93967474D01*
X73751806Y-93951157D01*
X73762837Y-93947380D01*
X73805393Y-93935018D01*
X73822960Y-93924628D01*
X73840432Y-93916068D01*
X73859417Y-93908552D01*
X73895275Y-93882498D01*
X73905023Y-93876096D01*
X73943162Y-93853542D01*
X73957600Y-93839103D01*
X73972388Y-93826472D01*
X73988907Y-93814472D01*
X74017159Y-93780319D01*
X74025003Y-93771699D01*
X79496884Y-88299819D01*
X79537113Y-88272939D01*
X79584566Y-88263500D01*
X86320102Y-88263500D01*
X86375607Y-88276616D01*
G37*
%TD.AperFunction*%
%TA.AperFunction,NonConductor*%
G36*
X131491315Y-92813386D02*
G01*
X131503095Y-92816019D01*
X131502544Y-92818483D01*
X131542808Y-92828149D01*
X131589805Y-92873690D01*
X131633048Y-92946809D01*
X131750691Y-93064452D01*
X131893899Y-93149145D01*
X132053665Y-93195561D01*
X132053669Y-93195562D01*
X132090998Y-93198500D01*
X132606233Y-93198500D01*
X132653686Y-93207939D01*
X132693914Y-93234819D01*
X132901510Y-93442414D01*
X132914554Y-93458697D01*
X132916600Y-93460618D01*
X132966285Y-93507275D01*
X132969049Y-93509954D01*
X132988830Y-93529735D01*
X132992111Y-93532280D01*
X133000970Y-93539847D01*
X133033279Y-93570186D01*
X133051164Y-93580018D01*
X133067425Y-93590699D01*
X133083559Y-93603214D01*
X133124225Y-93620810D01*
X133134712Y-93625948D01*
X133173540Y-93647295D01*
X133193308Y-93652370D01*
X133211719Y-93658673D01*
X133230455Y-93666781D01*
X133274226Y-93673713D01*
X133285641Y-93676077D01*
X133328570Y-93687100D01*
X133348984Y-93687100D01*
X133368383Y-93688627D01*
X133388543Y-93691820D01*
X133432656Y-93687650D01*
X133444326Y-93687100D01*
X146498134Y-93687100D01*
X146545587Y-93696539D01*
X146585815Y-93723419D01*
X149247214Y-96384819D01*
X149277464Y-96434182D01*
X149282006Y-96491898D01*
X149259851Y-96545385D01*
X149215828Y-96582985D01*
X149159533Y-96596500D01*
X136533634Y-96596500D01*
X136512891Y-96594210D01*
X136441970Y-96596439D01*
X136438075Y-96596500D01*
X136427674Y-96596500D01*
X136407950Y-96593317D01*
X136407933Y-96593493D01*
X136394426Y-96592113D01*
X136290544Y-96581500D01*
X135489455Y-96581500D01*
X135385574Y-96592112D01*
X135217263Y-96647884D01*
X135066345Y-96740971D01*
X134977681Y-96829636D01*
X134922094Y-96861730D01*
X134857906Y-96861730D01*
X134802319Y-96829636D01*
X134713654Y-96740971D01*
X134562736Y-96647884D01*
X134394426Y-96592112D01*
X134300173Y-96582483D01*
X134290544Y-96581500D01*
X133489455Y-96581500D01*
X133385574Y-96592112D01*
X133217263Y-96647884D01*
X133066345Y-96740971D01*
X132940971Y-96866345D01*
X132847884Y-97017264D01*
X132829912Y-97071503D01*
X132804034Y-97115829D01*
X132762422Y-97145877D01*
X132712206Y-97156500D01*
X126469567Y-97156500D01*
X126422114Y-97147061D01*
X126381886Y-97120181D01*
X123283505Y-94021800D01*
X123251411Y-93966212D01*
X123251411Y-93902025D01*
X123283505Y-93846437D01*
X123339090Y-93814345D01*
X123490058Y-93773894D01*
X123656659Y-93689007D01*
X123801970Y-93571336D01*
X123919641Y-93426025D01*
X124004528Y-93259424D01*
X124052922Y-93078815D01*
X124059034Y-93001158D01*
X124059034Y-92934400D01*
X124075647Y-92872400D01*
X124121034Y-92827013D01*
X124183034Y-92810400D01*
X131464267Y-92810400D01*
X131491315Y-92813386D01*
G37*
%TD.AperFunction*%
%TA.AperFunction,NonConductor*%
G36*
X68625718Y-94006560D02*
G01*
X68670507Y-94047792D01*
X68694795Y-94084967D01*
X68754672Y-94176617D01*
X68760978Y-94186268D01*
X68913460Y-94351906D01*
X69091124Y-94490189D01*
X69138217Y-94515674D01*
X69185723Y-94561255D01*
X69203200Y-94624729D01*
X69203200Y-101008167D01*
X69200910Y-101028908D01*
X69203139Y-101099817D01*
X69203200Y-101103713D01*
X69203200Y-101131655D01*
X69203718Y-101135756D01*
X69204634Y-101147397D01*
X69206519Y-101207344D01*
X69204272Y-101207414D01*
X69204936Y-101249840D01*
X69172515Y-101306679D01*
X69091184Y-101388011D01*
X69015932Y-101463262D01*
X68966009Y-101493692D01*
X68907689Y-101497863D01*
X68853942Y-101474847D01*
X68806203Y-101439110D01*
X68669205Y-101388011D01*
X68638919Y-101384755D01*
X68608638Y-101381500D01*
X68608634Y-101381500D01*
X66492300Y-101381500D01*
X66430300Y-101364887D01*
X66384913Y-101319500D01*
X66368300Y-101257500D01*
X66368300Y-94599348D01*
X66384488Y-94538089D01*
X66428826Y-94492825D01*
X66489737Y-94475374D01*
X66551314Y-94490292D01*
X66749126Y-94597342D01*
X66962065Y-94670444D01*
X67184131Y-94707500D01*
X67409269Y-94707500D01*
X67631335Y-94670444D01*
X67844274Y-94597342D01*
X68042276Y-94490189D01*
X68219940Y-94351906D01*
X68372422Y-94186268D01*
X68462892Y-94047792D01*
X68507682Y-94006560D01*
X68566700Y-93991615D01*
X68625718Y-94006560D01*
G37*
%TD.AperFunction*%
%TA.AperFunction,NonConductor*%
G36*
X89736929Y-98437015D02*
G01*
X89780952Y-98474615D01*
X89803107Y-98528102D01*
X89798565Y-98585818D01*
X89768315Y-98635180D01*
X87153655Y-101249840D01*
X84583314Y-103820181D01*
X84543086Y-103847061D01*
X84495633Y-103856500D01*
X79850765Y-103856500D01*
X79794470Y-103842985D01*
X79750447Y-103805385D01*
X79728292Y-103751898D01*
X79732834Y-103694182D01*
X79763084Y-103644819D01*
X82043016Y-101364887D01*
X84407140Y-99000762D01*
X84466223Y-98967787D01*
X84533823Y-98970739D01*
X84585573Y-98987887D01*
X84595202Y-98988870D01*
X84689455Y-98998500D01*
X85490544Y-98998499D01*
X85594426Y-98987887D01*
X85762738Y-98932115D01*
X85913652Y-98839030D01*
X86039030Y-98713652D01*
X86132115Y-98562738D01*
X86150088Y-98508495D01*
X86175966Y-98464171D01*
X86217578Y-98434123D01*
X86267794Y-98423500D01*
X89680634Y-98423500D01*
X89736929Y-98437015D01*
G37*
%TD.AperFunction*%
%TA.AperFunction,NonConductor*%
G36*
X120904418Y-93453635D02*
G01*
X120953781Y-93483885D01*
X125648710Y-98178814D01*
X125661759Y-98195101D01*
X125663799Y-98197016D01*
X125663800Y-98197018D01*
X125713501Y-98243690D01*
X125716234Y-98246338D01*
X125736030Y-98266134D01*
X125739293Y-98268665D01*
X125748169Y-98276245D01*
X125780479Y-98306586D01*
X125798372Y-98316422D01*
X125814631Y-98327103D01*
X125830759Y-98339613D01*
X125871425Y-98357210D01*
X125881906Y-98362346D01*
X125903367Y-98374144D01*
X125920740Y-98383695D01*
X125940510Y-98388771D01*
X125958915Y-98395071D01*
X125977655Y-98403181D01*
X126021430Y-98410113D01*
X126032841Y-98412477D01*
X126075770Y-98423500D01*
X126096184Y-98423500D01*
X126115583Y-98425027D01*
X126135743Y-98428220D01*
X126179856Y-98424050D01*
X126191526Y-98423500D01*
X132712206Y-98423500D01*
X132762422Y-98434123D01*
X132804034Y-98464171D01*
X132829911Y-98508495D01*
X132847885Y-98562738D01*
X132907804Y-98659882D01*
X132940971Y-98713654D01*
X133066345Y-98839028D01*
X133066347Y-98839029D01*
X133066348Y-98839030D01*
X133217262Y-98932115D01*
X133301418Y-98960001D01*
X133385573Y-98987887D01*
X133395202Y-98988870D01*
X133489455Y-98998500D01*
X134290544Y-98998499D01*
X134394426Y-98987887D01*
X134562738Y-98932115D01*
X134713652Y-98839030D01*
X134713654Y-98839027D01*
X134802319Y-98750364D01*
X134857906Y-98718270D01*
X134922094Y-98718270D01*
X134977681Y-98750364D01*
X135066345Y-98839028D01*
X135066347Y-98839029D01*
X135066348Y-98839030D01*
X135217262Y-98932115D01*
X135301418Y-98960001D01*
X135385573Y-98987887D01*
X135395202Y-98988870D01*
X135489455Y-98998500D01*
X136290544Y-98998499D01*
X136394426Y-98987887D01*
X136562738Y-98932115D01*
X136713652Y-98839030D01*
X136839030Y-98713652D01*
X136932115Y-98562738D01*
X136987887Y-98394426D01*
X136998500Y-98290545D01*
X136998500Y-97987500D01*
X137015113Y-97925500D01*
X137060500Y-97880113D01*
X137122500Y-97863500D01*
X139581433Y-97863500D01*
X139647876Y-97882804D01*
X139693632Y-97934705D01*
X139704455Y-98003044D01*
X139676975Y-98066543D01*
X139669293Y-98075827D01*
X139669293Y-98075828D01*
X139649137Y-98100191D01*
X139641053Y-98109963D01*
X139633192Y-98118601D01*
X136126612Y-101625181D01*
X136086384Y-101652061D01*
X136038931Y-101661500D01*
X135377155Y-101661500D01*
X135273274Y-101672112D01*
X135104963Y-101727884D01*
X134954045Y-101820971D01*
X134865381Y-101909636D01*
X134809794Y-101941730D01*
X134745606Y-101941730D01*
X134690019Y-101909636D01*
X134601354Y-101820971D01*
X134450436Y-101727884D01*
X134282126Y-101672112D01*
X134187873Y-101662483D01*
X134178244Y-101661500D01*
X133377155Y-101661500D01*
X133273274Y-101672112D01*
X133104963Y-101727884D01*
X132954045Y-101820971D01*
X132828671Y-101946345D01*
X132735584Y-102097263D01*
X132679812Y-102265573D01*
X132669200Y-102369455D01*
X132669200Y-103370544D01*
X132679812Y-103474425D01*
X132735584Y-103642736D01*
X132828671Y-103793654D01*
X132954045Y-103919028D01*
X132954047Y-103919029D01*
X132954048Y-103919030D01*
X133104962Y-104012115D01*
X133189117Y-104040000D01*
X133273273Y-104067887D01*
X133282902Y-104068870D01*
X133377155Y-104078500D01*
X134038932Y-104078499D01*
X134086385Y-104087938D01*
X134126613Y-104114818D01*
X134146381Y-104134586D01*
X134173261Y-104174814D01*
X134182700Y-104222267D01*
X134182700Y-106617500D01*
X134166087Y-106679500D01*
X134120700Y-106724887D01*
X134058700Y-106741500D01*
X133628766Y-106741500D01*
X133581313Y-106732061D01*
X133541085Y-106705181D01*
X120778419Y-93942514D01*
X120751539Y-93902286D01*
X120742100Y-93854833D01*
X120742100Y-93571566D01*
X120755615Y-93515271D01*
X120793215Y-93471248D01*
X120846702Y-93449093D01*
X120904418Y-93453635D01*
G37*
%TD.AperFunction*%
%TA.AperFunction,NonConductor*%
G36*
X143076540Y-99187732D02*
G01*
X143120175Y-99223830D01*
X143143209Y-99275565D01*
X143140837Y-99332147D01*
X143113554Y-99381773D01*
X143026859Y-99478055D01*
X142931372Y-99643443D01*
X142872358Y-99825070D01*
X142852396Y-100015000D01*
X142872358Y-100204929D01*
X142931372Y-100386556D01*
X143026857Y-100551941D01*
X143026860Y-100551944D01*
X143154647Y-100693866D01*
X143267982Y-100776209D01*
X143309148Y-100806118D01*
X143483614Y-100883795D01*
X143670411Y-100923500D01*
X143670413Y-100923500D01*
X143861387Y-100923500D01*
X143861389Y-100923500D01*
X144048185Y-100883795D01*
X144048186Y-100883794D01*
X144048188Y-100883794D01*
X144222652Y-100806118D01*
X144297843Y-100751487D01*
X144345524Y-100730395D01*
X144397662Y-100730767D01*
X144445039Y-100752539D01*
X144447737Y-100754559D01*
X144447739Y-100754561D01*
X144564796Y-100842189D01*
X144564797Y-100842189D01*
X144564798Y-100842190D01*
X144701794Y-100893288D01*
X144701797Y-100893288D01*
X144701799Y-100893289D01*
X144762362Y-100899800D01*
X146259638Y-100899800D01*
X146259642Y-100899800D01*
X146322379Y-100893055D01*
X146376701Y-100899342D01*
X146423036Y-100928384D01*
X146440632Y-100945869D01*
X146440633Y-100945870D01*
X146440633Y-100945869D01*
X146440634Y-100945870D01*
X146449738Y-100945840D01*
X148997889Y-100937647D01*
X149054295Y-100951017D01*
X149098462Y-100988567D01*
X149120733Y-101042091D01*
X149116241Y-101099888D01*
X149085966Y-101149327D01*
X142955114Y-107280181D01*
X142914886Y-107307061D01*
X142867433Y-107316500D01*
X137067794Y-107316500D01*
X137017578Y-107305877D01*
X136975966Y-107275829D01*
X136950088Y-107231503D01*
X136932115Y-107177262D01*
X136839030Y-107026348D01*
X136839029Y-107026347D01*
X136839028Y-107026345D01*
X136713654Y-106900971D01*
X136562736Y-106807884D01*
X136394426Y-106752112D01*
X136300173Y-106742483D01*
X136290545Y-106741500D01*
X136290544Y-106741500D01*
X136290535Y-106741500D01*
X135573699Y-106741500D01*
X135511700Y-106724888D01*
X135466313Y-106679501D01*
X135449700Y-106617501D01*
X135449700Y-104202500D01*
X135466313Y-104140500D01*
X135511700Y-104095113D01*
X135573700Y-104078500D01*
X136178244Y-104078499D01*
X136178243Y-104078499D01*
X136282126Y-104067887D01*
X136450438Y-104012115D01*
X136601352Y-103919030D01*
X136726730Y-103793652D01*
X136819815Y-103642738D01*
X136875587Y-103474426D01*
X136886200Y-103370545D01*
X136886199Y-102708764D01*
X136895638Y-102661312D01*
X136922515Y-102621087D01*
X140332484Y-99211119D01*
X140372713Y-99184239D01*
X140420166Y-99174800D01*
X143021405Y-99174800D01*
X143076540Y-99187732D01*
G37*
%TD.AperFunction*%
%TA.AperFunction,NonConductor*%
G36*
X86550385Y-105533448D02*
G01*
X86587985Y-105577471D01*
X86601500Y-105633766D01*
X86601500Y-107558634D01*
X86608011Y-107619205D01*
X86659110Y-107756203D01*
X86746738Y-107873261D01*
X86863796Y-107960889D01*
X87000794Y-108011988D01*
X87000797Y-108011988D01*
X87000799Y-108011989D01*
X87061362Y-108018500D01*
X87119034Y-108018500D01*
X87175329Y-108032015D01*
X87219352Y-108069615D01*
X87241507Y-108123102D01*
X87236965Y-108180818D01*
X87206715Y-108230180D01*
X86387343Y-109049552D01*
X85616714Y-109820181D01*
X85576486Y-109847061D01*
X85529033Y-109856500D01*
X74676319Y-109856500D01*
X74627507Y-109846488D01*
X74586576Y-109818070D01*
X74560138Y-109775834D01*
X74510890Y-109643798D01*
X74501175Y-109630820D01*
X74451384Y-109564307D01*
X74429487Y-109516358D01*
X74429487Y-109463642D01*
X74451386Y-109415690D01*
X74510889Y-109336204D01*
X74516824Y-109320290D01*
X74560138Y-109204166D01*
X74586576Y-109161930D01*
X74627507Y-109133512D01*
X74676319Y-109123500D01*
X82466367Y-109123500D01*
X82487108Y-109125789D01*
X82489905Y-109125701D01*
X82489909Y-109125702D01*
X82558017Y-109123560D01*
X82561913Y-109123500D01*
X82589854Y-109123500D01*
X82589856Y-109123500D01*
X82593956Y-109122981D01*
X82605606Y-109122064D01*
X82649889Y-109120673D01*
X82669498Y-109114975D01*
X82688531Y-109111033D01*
X82708797Y-109108474D01*
X82750006Y-109092157D01*
X82761037Y-109088380D01*
X82803593Y-109076018D01*
X82821160Y-109065628D01*
X82838632Y-109057068D01*
X82857617Y-109049552D01*
X82893475Y-109023498D01*
X82903223Y-109017096D01*
X82941362Y-108994542D01*
X82955800Y-108980103D01*
X82970588Y-108967472D01*
X82987107Y-108955472D01*
X83015359Y-108921319D01*
X83023203Y-108912699D01*
X86389818Y-105546085D01*
X86439182Y-105515835D01*
X86496898Y-105511293D01*
X86550385Y-105533448D01*
G37*
%TD.AperFunction*%
%TA.AperFunction,NonConductor*%
G36*
X106550818Y-78288835D02*
G01*
X106600180Y-78319084D01*
X108457775Y-80176680D01*
X110314978Y-82033883D01*
X110339217Y-82068180D01*
X110350618Y-82108602D01*
X110368058Y-82274529D01*
X110427072Y-82456156D01*
X110522557Y-82621541D01*
X110541268Y-82642321D01*
X110650347Y-82763466D01*
X110707478Y-82804974D01*
X110804848Y-82875718D01*
X110979314Y-82953395D01*
X111166111Y-82993100D01*
X111166113Y-82993100D01*
X111229200Y-82993100D01*
X111291200Y-83009713D01*
X111336587Y-83055100D01*
X111353200Y-83117100D01*
X111353200Y-90898567D01*
X111350910Y-90919308D01*
X111353139Y-90990217D01*
X111353200Y-90994113D01*
X111353200Y-91022055D01*
X111353718Y-91026156D01*
X111354634Y-91037797D01*
X111356026Y-91082088D01*
X111361722Y-91101692D01*
X111365667Y-91120744D01*
X111368225Y-91140998D01*
X111384538Y-91182201D01*
X111388321Y-91193249D01*
X111400682Y-91235793D01*
X111411074Y-91253366D01*
X111419631Y-91270833D01*
X111427148Y-91289818D01*
X111453191Y-91325663D01*
X111459605Y-91335427D01*
X111482158Y-91373562D01*
X111496590Y-91387994D01*
X111509226Y-91402789D01*
X111521226Y-91419305D01*
X111521227Y-91419306D01*
X111521228Y-91419307D01*
X111550754Y-91443733D01*
X111555367Y-91447549D01*
X111564008Y-91455412D01*
X129490012Y-109381417D01*
X129503056Y-109397698D01*
X129505099Y-109399616D01*
X129505100Y-109399618D01*
X129554784Y-109446274D01*
X129557548Y-109448953D01*
X129577330Y-109468735D01*
X129580611Y-109471280D01*
X129589470Y-109478847D01*
X129621779Y-109509186D01*
X129639664Y-109519018D01*
X129655925Y-109529699D01*
X129672059Y-109542214D01*
X129712725Y-109559810D01*
X129723212Y-109564948D01*
X129762040Y-109586295D01*
X129780277Y-109590977D01*
X129781808Y-109591370D01*
X129800219Y-109597673D01*
X129818955Y-109605781D01*
X129862726Y-109612713D01*
X129874141Y-109615077D01*
X129917070Y-109626100D01*
X129937484Y-109626100D01*
X129956883Y-109627627D01*
X129977043Y-109630820D01*
X130021156Y-109626650D01*
X130032826Y-109626100D01*
X134379067Y-109626100D01*
X134399808Y-109628389D01*
X134402605Y-109628301D01*
X134402609Y-109628302D01*
X134470717Y-109626160D01*
X134474613Y-109626100D01*
X134502554Y-109626100D01*
X134502556Y-109626100D01*
X134506656Y-109625581D01*
X134518306Y-109624664D01*
X134562589Y-109623273D01*
X134582198Y-109617575D01*
X134601231Y-109613633D01*
X134621497Y-109611074D01*
X134662706Y-109594757D01*
X134673737Y-109590980D01*
X134716293Y-109578618D01*
X134733860Y-109568228D01*
X134751332Y-109559668D01*
X134770317Y-109552152D01*
X134806175Y-109526098D01*
X134815923Y-109519696D01*
X134854062Y-109497142D01*
X134868500Y-109482703D01*
X134883288Y-109470072D01*
X134899807Y-109458072D01*
X134928059Y-109423919D01*
X134935903Y-109415299D01*
X135194597Y-109156605D01*
X135253680Y-109123630D01*
X135321278Y-109126581D01*
X135385574Y-109147887D01*
X135489455Y-109158500D01*
X136290544Y-109158499D01*
X136394426Y-109147887D01*
X136562738Y-109092115D01*
X136713652Y-108999030D01*
X136839030Y-108873652D01*
X136932115Y-108722738D01*
X136950088Y-108668495D01*
X136975966Y-108624171D01*
X137017578Y-108594123D01*
X137067794Y-108583500D01*
X142500833Y-108583500D01*
X142557128Y-108597015D01*
X142601151Y-108634615D01*
X142623306Y-108688102D01*
X142618764Y-108745818D01*
X142588514Y-108795181D01*
X138718414Y-112665281D01*
X138678186Y-112692161D01*
X138630733Y-112701600D01*
X111722500Y-112701600D01*
X111660500Y-112684987D01*
X111615113Y-112639600D01*
X111598500Y-112577600D01*
X111598500Y-110461366D01*
X111591988Y-110400794D01*
X111540889Y-110263796D01*
X111453261Y-110146738D01*
X111336203Y-110059110D01*
X111204166Y-110009862D01*
X111161930Y-109983424D01*
X111133512Y-109942493D01*
X111123500Y-109893681D01*
X111123500Y-108126319D01*
X111133512Y-108077507D01*
X111161930Y-108036576D01*
X111204166Y-108010138D01*
X111296525Y-107975688D01*
X111336204Y-107960889D01*
X111453261Y-107873261D01*
X111540889Y-107756204D01*
X111562924Y-107697124D01*
X111591988Y-107619205D01*
X111591988Y-107619203D01*
X111591989Y-107619201D01*
X111598500Y-107558638D01*
X111598500Y-104961362D01*
X111591989Y-104900799D01*
X111591988Y-104900797D01*
X111591988Y-104900794D01*
X111540889Y-104763796D01*
X111453261Y-104646738D01*
X111336203Y-104559110D01*
X111199205Y-104508011D01*
X111168919Y-104504755D01*
X111138638Y-104501500D01*
X109841362Y-104501500D01*
X109814445Y-104504393D01*
X109780794Y-104508011D01*
X109643796Y-104559110D01*
X109526738Y-104646738D01*
X109439110Y-104763796D01*
X109388011Y-104900794D01*
X109381500Y-104961366D01*
X109381500Y-107558634D01*
X109388011Y-107619205D01*
X109439110Y-107756203D01*
X109526738Y-107873261D01*
X109643796Y-107960889D01*
X109775834Y-108010138D01*
X109818070Y-108036576D01*
X109846488Y-108077507D01*
X109856500Y-108126319D01*
X109856500Y-109893681D01*
X109846488Y-109942493D01*
X109818070Y-109983424D01*
X109775834Y-110009862D01*
X109643796Y-110059110D01*
X109526738Y-110146738D01*
X109439110Y-110263796D01*
X109388011Y-110400794D01*
X109381500Y-110461366D01*
X109381500Y-112577600D01*
X109364887Y-112639600D01*
X109319500Y-112684987D01*
X109257500Y-112701600D01*
X109222500Y-112701600D01*
X109160500Y-112684987D01*
X109115113Y-112639600D01*
X109098500Y-112577600D01*
X109098500Y-110461366D01*
X109091988Y-110400794D01*
X109040889Y-110263796D01*
X108953261Y-110146738D01*
X108836203Y-110059110D01*
X108704166Y-110009862D01*
X108661930Y-109983424D01*
X108633512Y-109942493D01*
X108623500Y-109893681D01*
X108623500Y-108126319D01*
X108633512Y-108077507D01*
X108661930Y-108036576D01*
X108704166Y-108010138D01*
X108796525Y-107975688D01*
X108836204Y-107960889D01*
X108953261Y-107873261D01*
X109040889Y-107756204D01*
X109062924Y-107697124D01*
X109091988Y-107619205D01*
X109091988Y-107619203D01*
X109091989Y-107619201D01*
X109098500Y-107558638D01*
X109098500Y-104961362D01*
X109091989Y-104900799D01*
X109091988Y-104900797D01*
X109091988Y-104900794D01*
X109040889Y-104763796D01*
X108953261Y-104646738D01*
X108836203Y-104559110D01*
X108699200Y-104508010D01*
X108677681Y-104505696D01*
X108631401Y-104491179D01*
X108594230Y-104460019D01*
X108585766Y-104443739D01*
X108583991Y-104444789D01*
X108565624Y-104413731D01*
X108557064Y-104396257D01*
X108549552Y-104377284D01*
X108549552Y-104377283D01*
X108523510Y-104341440D01*
X108517095Y-104331673D01*
X108494544Y-104293539D01*
X108490824Y-104289819D01*
X108480101Y-104279096D01*
X108467469Y-104264305D01*
X108455474Y-104247795D01*
X108445445Y-104239498D01*
X108421324Y-104219543D01*
X108412696Y-104211691D01*
X102141185Y-97940180D01*
X102110935Y-97890817D01*
X102106393Y-97833101D01*
X102128548Y-97779614D01*
X102172571Y-97742014D01*
X102228866Y-97728499D01*
X102540545Y-97728499D01*
X102592484Y-97723193D01*
X102644426Y-97717887D01*
X102812738Y-97662115D01*
X102963652Y-97569030D01*
X103052319Y-97480362D01*
X103107905Y-97448269D01*
X103172092Y-97448269D01*
X103227680Y-97480363D01*
X103316345Y-97569028D01*
X103316347Y-97569029D01*
X103316348Y-97569030D01*
X103467262Y-97662115D01*
X103549185Y-97689261D01*
X103635573Y-97717887D01*
X103645202Y-97718870D01*
X103739455Y-97728500D01*
X104540544Y-97728499D01*
X104644426Y-97717887D01*
X104812738Y-97662115D01*
X104963652Y-97569030D01*
X105089030Y-97443652D01*
X105182115Y-97292738D01*
X105237887Y-97124426D01*
X105248500Y-97020545D01*
X105248499Y-96019456D01*
X105237887Y-95915574D01*
X105182115Y-95747262D01*
X105107240Y-95625872D01*
X105088795Y-95558851D01*
X105109312Y-95492435D01*
X105162345Y-95447496D01*
X105244952Y-95410718D01*
X105399453Y-95298466D01*
X105527240Y-95156544D01*
X105540597Y-95133410D01*
X105622727Y-94991156D01*
X105638452Y-94942759D01*
X105681742Y-94809528D01*
X105701704Y-94619600D01*
X105681742Y-94429672D01*
X105638784Y-94297461D01*
X105622727Y-94248043D01*
X105527242Y-94082658D01*
X105471868Y-94021159D01*
X105399453Y-93940734D01*
X105281221Y-93854833D01*
X105244951Y-93828481D01*
X105157893Y-93789721D01*
X105104860Y-93744781D01*
X105084343Y-93678365D01*
X105102788Y-93611346D01*
X105182115Y-93482738D01*
X105237887Y-93314426D01*
X105248500Y-93210545D01*
X105248499Y-92209456D01*
X105244477Y-92170089D01*
X105237887Y-92105574D01*
X105210280Y-92022261D01*
X105182115Y-91937262D01*
X105089030Y-91786348D01*
X105089029Y-91786347D01*
X105089028Y-91786345D01*
X104963654Y-91660971D01*
X104886737Y-91613528D01*
X104812738Y-91567885D01*
X104812737Y-91567884D01*
X104812736Y-91567884D01*
X104644426Y-91512112D01*
X104544897Y-91501944D01*
X104540545Y-91501500D01*
X104534260Y-91500858D01*
X104534423Y-91499257D01*
X104487470Y-91487985D01*
X104443447Y-91450385D01*
X104421292Y-91396898D01*
X104425834Y-91339182D01*
X104456084Y-91289819D01*
X105523150Y-90222753D01*
X106593916Y-89151986D01*
X106610197Y-89138944D01*
X106612114Y-89136902D01*
X106612118Y-89136900D01*
X106658807Y-89087179D01*
X106661455Y-89084447D01*
X106681235Y-89064669D01*
X106683761Y-89061411D01*
X106691352Y-89052521D01*
X106721686Y-89020221D01*
X106731524Y-89002324D01*
X106742200Y-88986071D01*
X106754714Y-88969940D01*
X106772316Y-88929260D01*
X106777434Y-88918813D01*
X106798795Y-88879960D01*
X106803872Y-88860182D01*
X106810172Y-88841782D01*
X106818281Y-88823045D01*
X106825212Y-88779276D01*
X106827578Y-88767853D01*
X106838600Y-88724930D01*
X106838600Y-88704516D01*
X106840127Y-88685117D01*
X106840202Y-88684640D01*
X106843320Y-88664957D01*
X106839150Y-88620843D01*
X106838600Y-88609174D01*
X106838600Y-85161607D01*
X106840796Y-85138373D01*
X106842375Y-85130093D01*
X106838845Y-85073986D01*
X106838600Y-85066199D01*
X106838600Y-85050142D01*
X106836588Y-85034222D01*
X106835858Y-85026513D01*
X106832325Y-84970350D01*
X106829721Y-84962338D01*
X106824629Y-84939555D01*
X106823574Y-84931204D01*
X106823574Y-84931203D01*
X106802870Y-84878912D01*
X106800240Y-84871604D01*
X106782865Y-84818128D01*
X106782864Y-84818127D01*
X106782864Y-84818125D01*
X106778345Y-84811004D01*
X106767755Y-84790221D01*
X106764652Y-84782383D01*
X106731616Y-84736913D01*
X106727239Y-84730472D01*
X106697100Y-84682982D01*
X106690954Y-84677210D01*
X106675519Y-84659702D01*
X106670571Y-84652892D01*
X106633719Y-84622406D01*
X106627238Y-84617044D01*
X106621425Y-84611919D01*
X106580421Y-84573414D01*
X106573033Y-84569352D01*
X106553734Y-84556236D01*
X106547244Y-84550867D01*
X106496363Y-84526924D01*
X106489428Y-84523390D01*
X106445728Y-84499365D01*
X106408767Y-84468326D01*
X106386457Y-84425526D01*
X106382177Y-84377450D01*
X106388500Y-84318638D01*
X106388500Y-83321362D01*
X106381989Y-83260799D01*
X106369879Y-83228331D01*
X106362061Y-83184998D01*
X106369881Y-83141662D01*
X106379043Y-83117100D01*
X106381989Y-83109201D01*
X106388500Y-83048638D01*
X106388500Y-82051362D01*
X106381989Y-81990799D01*
X106369879Y-81958331D01*
X106362061Y-81914998D01*
X106369881Y-81871662D01*
X106381988Y-81839203D01*
X106381987Y-81839203D01*
X106381989Y-81839201D01*
X106388500Y-81778638D01*
X106388500Y-80781362D01*
X106381989Y-80720799D01*
X106369879Y-80688331D01*
X106362061Y-80644998D01*
X106369881Y-80601662D01*
X106372890Y-80593597D01*
X106381989Y-80569201D01*
X106388500Y-80508638D01*
X106388500Y-79511362D01*
X106381989Y-79450799D01*
X106369879Y-79418331D01*
X106362061Y-79374998D01*
X106369881Y-79331662D01*
X106381988Y-79299203D01*
X106381987Y-79299203D01*
X106381989Y-79299201D01*
X106388500Y-79238638D01*
X106388500Y-78406766D01*
X106402015Y-78350471D01*
X106439615Y-78306448D01*
X106493102Y-78284293D01*
X106550818Y-78288835D01*
G37*
%TD.AperFunction*%
M02*
