%TF.GenerationSoftware,KiCad,Pcbnew,7.0.1-0*%
%TF.CreationDate,2023-04-13T09:07:15-04:00*%
%TF.ProjectId,WrightFlyer,57726967-6874-4466-9c79-65722e6b6963,v03*%
%TF.SameCoordinates,Original*%
%TF.FileFunction,Profile,NP*%
%FSLAX46Y46*%
G04 Gerber Fmt 4.6, Leading zero omitted, Abs format (unit mm)*
G04 Created by KiCad (PCBNEW 7.0.1-0) date 2023-04-13 09:07:15*
%MOMM*%
%LPD*%
G01*
G04 APERTURE LIST*
%TA.AperFunction,Profile*%
%ADD10C,0.100000*%
%TD*%
%TA.AperFunction,Profile*%
%ADD11C,0.499999*%
%TD*%
%TA.AperFunction,Profile*%
%ADD12C,0.520750*%
%TD*%
G04 APERTURE END LIST*
D10*
X239720000Y-70000000D02*
G75*
G03*
X239720000Y-70000000I-3500000J0D01*
G01*
X73660000Y-70000000D02*
G75*
G03*
X73660000Y-70000000I-3500000J0D01*
G01*
%TO.C,svg2mod*%
D11*
X117562378Y-87658033D02*
X118568090Y-88330029D01*
X119240086Y-89335741D01*
X119476059Y-90522060D01*
X119240086Y-91708379D01*
X118568090Y-92714091D01*
X117562378Y-93386087D01*
X116376059Y-93622060D01*
X115189740Y-93386087D01*
X114184028Y-92714091D01*
X113512032Y-91708379D01*
X113276059Y-90522060D01*
X113512032Y-89335741D01*
X114184028Y-88330029D01*
X115189740Y-87658033D01*
X116376059Y-87422060D01*
X117562378Y-87658033D01*
X160388141Y-84296282D02*
X161393853Y-84968278D01*
X162065849Y-85973990D01*
X162301822Y-87160309D01*
X162065849Y-88346628D01*
X161393853Y-89352340D01*
X160388141Y-90024336D01*
X159201822Y-90260309D01*
X158015503Y-90024336D01*
X157009791Y-89352340D01*
X156337795Y-88346628D01*
X156101822Y-87160309D01*
X156337795Y-85973990D01*
X157009791Y-84968278D01*
X158015503Y-84296282D01*
X159201822Y-84060309D01*
X160388141Y-84296282D01*
D12*
X240853896Y-63054285D02*
X241688453Y-63645395D01*
X242246087Y-64530053D01*
X242441901Y-65573578D01*
X242441901Y-113599101D01*
X242246087Y-114642626D01*
X241688453Y-115527284D01*
X240853896Y-116118394D01*
X239869468Y-116325964D01*
X65535092Y-116325964D01*
X64550665Y-116118394D01*
X63716107Y-115527284D01*
X63158474Y-114642626D01*
X62962659Y-113599101D01*
X62962659Y-65573578D01*
X63158474Y-64530053D01*
X63716107Y-63645395D01*
X64550665Y-63054285D01*
X65535092Y-62846715D01*
X239869468Y-62846715D01*
X240853896Y-63054285D01*
%TD*%
M02*
