%TF.GenerationSoftware,KiCad,Pcbnew,7.0.1-0*%
%TF.CreationDate,2023-04-13T09:07:15-04:00*%
%TF.ProjectId,WrightFlyer,57726967-6874-4466-9c79-65722e6b6963,v03*%
%TF.SameCoordinates,Original*%
%TF.FileFunction,Paste,Bot*%
%TF.FilePolarity,Positive*%
%FSLAX46Y46*%
G04 Gerber Fmt 4.6, Leading zero omitted, Abs format (unit mm)*
G04 Created by KiCad (PCBNEW 7.0.1-0) date 2023-04-13 09:07:15*
%MOMM*%
%LPD*%
G01*
G04 APERTURE LIST*
G04 Aperture macros list*
%AMRoundRect*
0 Rectangle with rounded corners*
0 $1 Rounding radius*
0 $2 $3 $4 $5 $6 $7 $8 $9 X,Y pos of 4 corners*
0 Add a 4 corners polygon primitive as box body*
4,1,4,$2,$3,$4,$5,$6,$7,$8,$9,$2,$3,0*
0 Add four circle primitives for the rounded corners*
1,1,$1+$1,$2,$3*
1,1,$1+$1,$4,$5*
1,1,$1+$1,$6,$7*
1,1,$1+$1,$8,$9*
0 Add four rect primitives between the rounded corners*
20,1,$1+$1,$2,$3,$4,$5,0*
20,1,$1+$1,$4,$5,$6,$7,0*
20,1,$1+$1,$6,$7,$8,$9,0*
20,1,$1+$1,$8,$9,$2,$3,0*%
%AMFreePoly0*
4,1,13,0.900000,0.500000,2.600000,0.500000,2.600000,-0.500000,0.900000,-0.500000,0.400000,-1.000000,-0.400000,-1.000000,-0.900000,-0.500000,-2.600000,-0.500000,-2.600000,0.500000,-0.900000,0.500000,-0.400000,1.000000,0.400000,1.000000,0.900000,0.500000,0.900000,0.500000,$1*%
G04 Aperture macros list end*
%ADD10R,1.200000X2.500000*%
%ADD11RoundRect,0.250000X0.350000X0.450000X-0.350000X0.450000X-0.350000X-0.450000X0.350000X-0.450000X0*%
%ADD12RoundRect,0.250000X-0.475000X0.337500X-0.475000X-0.337500X0.475000X-0.337500X0.475000X0.337500X0*%
%ADD13RoundRect,0.381000X0.381000X-0.762000X0.381000X0.762000X-0.381000X0.762000X-0.381000X-0.762000X0*%
%ADD14RoundRect,0.250000X-0.350000X-0.450000X0.350000X-0.450000X0.350000X0.450000X-0.350000X0.450000X0*%
%ADD15R,1.100000X2.000000*%
%ADD16R,0.800000X0.800000*%
%ADD17R,1.400000X0.800000*%
%ADD18R,1.500000X0.900000*%
%ADD19R,0.900000X1.500000*%
%ADD20R,0.900000X0.900000*%
%ADD21R,2.500000X1.200000*%
%ADD22RoundRect,0.150000X-0.587500X-0.150000X0.587500X-0.150000X0.587500X0.150000X-0.587500X0.150000X0*%
%ADD23R,0.700000X1.500000*%
%ADD24FreePoly0,270.000000*%
G04 APERTURE END LIST*
D10*
%TO.C,SW4*%
X237450000Y-111252000D03*
X237450000Y-105752000D03*
X234950000Y-111252000D03*
X234950000Y-105752000D03*
X232450000Y-111252000D03*
X232450000Y-105752000D03*
%TD*%
D11*
%TO.C,R7*%
X135777700Y-102870000D03*
X133777700Y-102870000D03*
%TD*%
D12*
%TO.C,C5*%
X131064000Y-72093000D03*
X131064000Y-74168000D03*
%TD*%
D13*
%TO.C,J2*%
X153026534Y-89590200D03*
X153062000Y-85590200D03*
%TD*%
D12*
%TO.C,C2*%
X112014000Y-72601000D03*
X112014000Y-74676000D03*
%TD*%
%TO.C,C1*%
X112014000Y-67818000D03*
X112014000Y-69893000D03*
%TD*%
D14*
%TO.C,R2*%
X90710000Y-100330000D03*
X92710000Y-100330000D03*
%TD*%
D12*
%TO.C,C3*%
X112014000Y-77681000D03*
X112014000Y-79756000D03*
%TD*%
D15*
%TO.C,D1*%
X138684000Y-91948000D03*
D16*
X138684000Y-90048000D03*
%TD*%
D10*
%TO.C,SW3*%
X92710000Y-111760000D03*
X92710000Y-106260000D03*
X90210000Y-111760000D03*
X90210000Y-106260000D03*
X87710000Y-111760000D03*
X87710000Y-106260000D03*
%TD*%
%TO.C,SW1*%
X110490000Y-111760000D03*
X110490000Y-106260000D03*
X107990000Y-111760000D03*
X107990000Y-106260000D03*
X105490000Y-111760000D03*
X105490000Y-106260000D03*
%TD*%
D17*
%TO.C,D2*%
X150711000Y-99991300D03*
X145511000Y-99991300D03*
X145511000Y-98541300D03*
X150711000Y-98541300D03*
%TD*%
D11*
%TO.C,R5*%
X85090000Y-97790000D03*
X83090000Y-97790000D03*
%TD*%
D13*
%TO.C,J1*%
X122788534Y-92176900D03*
X122824000Y-88176900D03*
%TD*%
D18*
%TO.C,U1*%
X105130000Y-71120000D03*
X105130000Y-72390000D03*
X105130000Y-73660000D03*
X105130000Y-74930000D03*
X105130000Y-76200000D03*
X105130000Y-77470000D03*
X105130000Y-78740000D03*
X105130000Y-80010000D03*
X105130000Y-81280000D03*
X105130000Y-82550000D03*
X105130000Y-83820000D03*
X105130000Y-85090000D03*
X105130000Y-86360000D03*
X105130000Y-87630000D03*
D19*
X103365000Y-88880000D03*
X102095000Y-88880000D03*
X100825000Y-88880000D03*
X99555000Y-88880000D03*
X98285000Y-88880000D03*
X97015000Y-88880000D03*
X95745000Y-88880000D03*
X94475000Y-88880000D03*
X93205000Y-88880000D03*
X91935000Y-88880000D03*
X90665000Y-88880000D03*
X89395000Y-88880000D03*
D18*
X87630000Y-87630000D03*
X87630000Y-86360000D03*
X87630000Y-85090000D03*
X87630000Y-83820000D03*
X87630000Y-82550000D03*
X87630000Y-81280000D03*
X87630000Y-80010000D03*
X87630000Y-78740000D03*
X87630000Y-77470000D03*
X87630000Y-76200000D03*
X87630000Y-74930000D03*
X87630000Y-73660000D03*
X87630000Y-72390000D03*
X87630000Y-71120000D03*
D20*
X99280000Y-80240000D03*
X99280000Y-78840000D03*
X99280000Y-77440000D03*
X97880000Y-80240000D03*
X97880000Y-78840000D03*
X97880000Y-77440000D03*
X96480000Y-80240000D03*
X96480000Y-78840000D03*
X96480000Y-77440000D03*
%TD*%
D14*
%TO.C,R1*%
X90710000Y-95250000D03*
X92710000Y-95250000D03*
%TD*%
D21*
%TO.C,SW2*%
X72810000Y-102490000D03*
X67310000Y-102490000D03*
X72810000Y-104490000D03*
X67310000Y-104490000D03*
X72810000Y-108490000D03*
X67310000Y-108490000D03*
X72810000Y-110490000D03*
X67310000Y-110490000D03*
%TD*%
D11*
%TO.C,R8*%
X135890000Y-107950000D03*
X133890000Y-107950000D03*
%TD*%
D22*
%TO.C,Q1*%
X132745000Y-92390000D03*
X132745000Y-90490000D03*
X134620000Y-91440000D03*
%TD*%
D11*
%TO.C,R3*%
X104140000Y-92710000D03*
X102140000Y-92710000D03*
%TD*%
D23*
%TO.C,U2*%
X123214000Y-68508000D03*
D24*
X124714000Y-70358000D03*
D23*
X126214000Y-68508000D03*
X126214000Y-72208000D03*
X123214000Y-72208000D03*
%TD*%
D11*
%TO.C,R4*%
X104140000Y-96520000D03*
X102140000Y-96520000D03*
%TD*%
D12*
%TO.C,C4*%
X118110000Y-71839000D03*
X118110000Y-73914000D03*
%TD*%
D11*
%TO.C,R6*%
X135890000Y-97790000D03*
X133890000Y-97790000D03*
%TD*%
M02*
