M48
; DRILL file {KiCad 7.0.1-0} date 2023 April 22, Saturday 13:11:21
; FORMAT={-:-/ absolute / inch / decimal}
; #@! TF.CreationDate,2023-04-22T13:11:21-04:00
; #@! TF.GenerationSoftware,Kicad,Pcbnew,7.0.1-0
; #@! TF.FileFunction,Plated,1,2,PTH
FMAT,2
INCH
; #@! TA.AperFunction,Plated,PTH,ViaDrill
T1C0.0157
; #@! TA.AperFunction,Plated,PTH,ComponentDrill
T2C0.0300
; #@! TA.AperFunction,Plated,PTH,ComponentDrill
T3C0.0402
%
G90
G05
T1
X2.79Y-2.91
X2.8229Y-3.8167
X2.8811Y-4.2014
X3.34Y-2.89
X3.3843Y-3.7713
X3.7254Y-3.1405
X3.87Y-3.38
X3.9338Y-3.4269
X3.9815Y-3.3087
X4.1914Y-3.5145
X4.2035Y-2.9723
X4.2081Y-3.5673
X4.3Y-3.0
X4.3086Y-3.4326
X4.31Y-2.92
X4.59Y-3.01
X4.9175Y-3.8647
X4.9792Y-4.3486
X5.0314Y-4.1606
X5.0469Y-4.0278
X5.0599Y-3.5781
X5.0644Y-4.1246
X5.1063Y-4.061
X5.1314Y-3.9081
X5.2192Y-4.2828
X5.2782Y-2.9615
X5.2915Y-3.4212
X5.5649Y-4.271
X5.81Y-3.43
X5.93Y-3.55
X6.1031Y-3.8827
X6.1183Y-3.9335
X6.2712Y-3.9628
T2
X2.722Y-3.1038
X2.722Y-3.2038
X2.7636Y-3.5369
X2.7636Y-3.6369
X2.7636Y-3.7369
X2.822Y-3.1038
X2.822Y-3.2038
X2.8636Y-3.5369
X2.8636Y-3.6369
X2.8636Y-3.7369
X2.922Y-3.1038
X2.922Y-3.2038
X9.118Y-3.1096
X9.118Y-3.2096
X9.218Y-3.1096
X9.218Y-3.2096
X9.318Y-3.1096
X9.318Y-3.2096
T3
X8.8742Y-3.3251
X8.8742Y-3.8251
T0
M30
