%TF.GenerationSoftware,KiCad,Pcbnew,(6.0.6-0)*%
%TF.CreationDate,2023-03-12T19:28:00-04:00*%
%TF.ProjectId,space_shuttle_SAO,73706163-655f-4736-9875-74746c655f53,v04*%
%TF.SameCoordinates,Original*%
%TF.FileFunction,Copper,L2,Bot*%
%TF.FilePolarity,Positive*%
%FSLAX46Y46*%
G04 Gerber Fmt 4.6, Leading zero omitted, Abs format (unit mm)*
G04 Created by KiCad (PCBNEW (6.0.6-0)) date 2023-03-12 19:28:00*
%MOMM*%
%LPD*%
G01*
G04 APERTURE LIST*
G04 Aperture macros list*
%AMRoundRect*
0 Rectangle with rounded corners*
0 $1 Rounding radius*
0 $2 $3 $4 $5 $6 $7 $8 $9 X,Y pos of 4 corners*
0 Add a 4 corners polygon primitive as box body*
4,1,4,$2,$3,$4,$5,$6,$7,$8,$9,$2,$3,0*
0 Add four circle primitives for the rounded corners*
1,1,$1+$1,$2,$3*
1,1,$1+$1,$4,$5*
1,1,$1+$1,$6,$7*
1,1,$1+$1,$8,$9*
0 Add four rect primitives between the rounded corners*
20,1,$1+$1,$2,$3,$4,$5,0*
20,1,$1+$1,$4,$5,$6,$7,0*
20,1,$1+$1,$6,$7,$8,$9,0*
20,1,$1+$1,$8,$9,$2,$3,0*%
%AMRotRect*
0 Rectangle, with rotation*
0 The origin of the aperture is its center*
0 $1 length*
0 $2 width*
0 $3 Rotation angle, in degrees counterclockwise*
0 Add horizontal line*
21,1,$1,$2,0,0,$3*%
G04 Aperture macros list end*
%ADD10C,0.300000*%
%TA.AperFunction,NonConductor*%
%ADD11C,0.300000*%
%TD*%
%TA.AperFunction,ComponentPad*%
%ADD12RotRect,1.524000X1.524000X350.000000*%
%TD*%
%TA.AperFunction,ComponentPad*%
%ADD13C,1.524000*%
%TD*%
%TA.AperFunction,SMDPad,CuDef*%
%ADD14RotRect,1.400000X2.600000X315.000000*%
%TD*%
%TA.AperFunction,SMDPad,CuDef*%
%ADD15RoundRect,0.249998X-0.662915X-0.220971X-0.220971X-0.662915X0.662915X0.220971X0.220971X0.662915X0*%
%TD*%
%TA.AperFunction,SMDPad,CuDef*%
%ADD16RotRect,1.200000X2.500000X135.000000*%
%TD*%
%TA.AperFunction,SMDPad,CuDef*%
%ADD17RotRect,1.270000X5.080000X320.000000*%
%TD*%
%TA.AperFunction,SMDPad,CuDef*%
%ADD18C,17.800000*%
%TD*%
%TA.AperFunction,Conductor*%
%ADD19C,0.250000*%
%TD*%
%TA.AperFunction,Conductor*%
%ADD20C,0.254000*%
%TD*%
G04 APERTURE END LIST*
D10*
D11*
X110304674Y-115400971D02*
X109947531Y-116400971D01*
X109590388Y-115400971D01*
X108733245Y-114900971D02*
X108590388Y-114900971D01*
X108447531Y-114972400D01*
X108376102Y-115043828D01*
X108304674Y-115186685D01*
X108233245Y-115472400D01*
X108233245Y-115829542D01*
X108304674Y-116115257D01*
X108376102Y-116258114D01*
X108447531Y-116329542D01*
X108590388Y-116400971D01*
X108733245Y-116400971D01*
X108876102Y-116329542D01*
X108947531Y-116258114D01*
X109018960Y-116115257D01*
X109090388Y-115829542D01*
X109090388Y-115472400D01*
X109018960Y-115186685D01*
X108947531Y-115043828D01*
X108876102Y-114972400D01*
X108733245Y-114900971D01*
X106876102Y-114900971D02*
X107590388Y-114900971D01*
X107661817Y-115615257D01*
X107590388Y-115543828D01*
X107447531Y-115472400D01*
X107090388Y-115472400D01*
X106947531Y-115543828D01*
X106876102Y-115615257D01*
X106804674Y-115758114D01*
X106804674Y-116115257D01*
X106876102Y-116258114D01*
X106947531Y-116329542D01*
X107090388Y-116400971D01*
X107447531Y-116400971D01*
X107590388Y-116329542D01*
X107661817Y-116258114D01*
D12*
%TO.P,J1,1,VCC*%
%TO.N,Net-(J1-Pad1)*%
X109070530Y-109659210D03*
D13*
%TO.P,J1,2,GND*%
%TO.N,GND*%
X108629462Y-112160622D03*
%TO.P,J1,3,SDA*%
%TO.N,unconnected-(J1-Pad3)*%
X111571940Y-110100276D03*
%TO.P,J1,4,SCL*%
%TO.N,unconnected-(J1-Pad4)*%
X111130875Y-112601688D03*
%TO.P,J1,5,GPIO_1*%
%TO.N,unconnected-(J1-Pad5)*%
X114073353Y-110541343D03*
%TO.P,J1,6,GPIO_2*%
%TO.N,unconnected-(J1-Pad6)*%
X113632286Y-113042754D03*
%TD*%
D14*
%TO.P,D1,1,K*%
%TO.N,GND*%
X164831724Y-104938524D03*
%TO.P,D1,2,A*%
%TO.N,Net-(D1-Pad2)*%
X168508680Y-108615480D03*
%TD*%
D15*
%TO.P,R1,1*%
%TO.N,Net-(R1-Pad1)*%
X162493232Y-109310712D03*
%TO.P,R1,2*%
%TO.N,Net-(D1-Pad2)*%
X164561520Y-111379000D03*
%TD*%
D16*
%TO.P,SW1,1,A*%
%TO.N,Net-(BT1-Pad1)*%
X118139534Y-86183223D03*
X114250446Y-90072311D03*
%TO.P,SW1,2,B*%
%TO.N,Net-(R1-Pad1)*%
X112482679Y-88304544D03*
X116371767Y-84415456D03*
%TO.P,SW1,3,C*%
%TO.N,Net-(J1-Pad1)*%
X114604000Y-82647689D03*
X110714912Y-86536777D03*
%TD*%
D17*
%TO.P,BT1,1,+*%
%TO.N,Net-(BT1-Pad1)*%
X130334998Y-108661022D03*
X113505002Y-94538978D03*
D18*
%TO.P,BT1,2,-*%
%TO.N,GND*%
X121920000Y-101600000D03*
%TD*%
D19*
%TO.N,Net-(BT1-Pad1)*%
X130334998Y-108661022D02*
X131145000Y-107851020D01*
X131145000Y-107851020D02*
X131145000Y-97778879D01*
X131145000Y-97778879D02*
X124806121Y-91440000D01*
X124806121Y-91440000D02*
X116603980Y-91440000D01*
X116603980Y-91440000D02*
X113505002Y-94538978D01*
D20*
%TO.N,Net-(D1-Pad2)*%
X165745160Y-111379000D02*
X168508680Y-108615480D01*
X164561520Y-111379000D02*
X165745160Y-111379000D01*
%TO.N,Net-(J1-Pad1)*%
X112314449Y-106415291D02*
X112314449Y-106125551D01*
X112314449Y-106125551D02*
X112314449Y-98344449D01*
X112314449Y-98344449D02*
X109220000Y-95250000D01*
X110714912Y-86536777D02*
X114604000Y-82647689D01*
X110714912Y-86536777D02*
X109220000Y-88031689D01*
X109220000Y-88031689D02*
X109220000Y-95250000D01*
X109070530Y-109659210D02*
X112314449Y-106415291D01*
%TO.N,Net-(BT1-Pad1)*%
X114250446Y-93793534D02*
X113505002Y-94538978D01*
X114250446Y-90072311D02*
X118139534Y-86183223D01*
X114250446Y-90072311D02*
X114250446Y-93793534D01*
%TO.N,Net-(R1-Pad1)*%
X112482679Y-88304544D02*
X116371767Y-84415456D01*
X143600712Y-109310712D02*
X162493232Y-109310712D01*
X116371767Y-84415456D02*
X118705456Y-84415456D01*
X118705456Y-84415456D02*
X143600712Y-109310712D01*
%TD*%
%TA.AperFunction,Conductor*%
%TO.N,GND*%
G36*
X102803374Y-68998588D02*
G01*
X103054237Y-69045338D01*
X103805376Y-69185319D01*
X103830697Y-69192855D01*
X104901205Y-69638289D01*
X104922454Y-69649623D01*
X105144475Y-69796910D01*
X105776655Y-70216293D01*
X105797449Y-70233570D01*
X106740647Y-71206210D01*
X107537811Y-72028259D01*
X107537872Y-72028327D01*
X107537935Y-72028415D01*
X107565860Y-72057183D01*
X107590767Y-72082867D01*
X107590849Y-72082930D01*
X107590909Y-72082988D01*
X113419953Y-78087898D01*
X113420476Y-78088477D01*
X113420995Y-78089205D01*
X113448037Y-78116830D01*
X113472646Y-78142181D01*
X113473346Y-78142722D01*
X113473923Y-78143273D01*
X117957763Y-82723702D01*
X118014005Y-82781156D01*
X118028441Y-82798865D01*
X118036977Y-82811528D01*
X118043882Y-82817264D01*
X118068168Y-82837438D01*
X118074967Y-82843704D01*
X118076979Y-82845487D01*
X118080115Y-82848690D01*
X118083669Y-82851413D01*
X118083679Y-82851422D01*
X118098747Y-82862967D01*
X118102622Y-82866058D01*
X118149020Y-82904601D01*
X118156709Y-82907931D01*
X118159801Y-82909748D01*
X118166456Y-82914847D01*
X118174830Y-82918088D01*
X118174831Y-82918089D01*
X118222721Y-82936626D01*
X118227313Y-82938508D01*
X118247252Y-82947144D01*
X118247258Y-82947146D01*
X118251721Y-82949079D01*
X118256429Y-82950302D01*
X118261043Y-82951890D01*
X118261034Y-82951917D01*
X118268142Y-82954208D01*
X118293922Y-82964188D01*
X118293928Y-82964189D01*
X118302292Y-82967427D01*
X118317149Y-82968690D01*
X118321422Y-82969054D01*
X118342432Y-82972651D01*
X119485418Y-83269655D01*
X119498547Y-83273845D01*
X122028597Y-84236750D01*
X122038082Y-84240812D01*
X122937832Y-84670539D01*
X122941862Y-84672553D01*
X123979581Y-85214558D01*
X123991770Y-85221825D01*
X125513509Y-86249573D01*
X125536700Y-86265236D01*
X125549966Y-86275549D01*
X126670374Y-87273179D01*
X126678388Y-87280315D01*
X126690499Y-87292693D01*
X127745369Y-88530636D01*
X127748760Y-88534615D01*
X127756823Y-88545154D01*
X127863502Y-88701005D01*
X127865584Y-88704492D01*
X127866879Y-88708223D01*
X127906696Y-88764163D01*
X127907029Y-88764631D01*
X127908313Y-88766470D01*
X127924431Y-88790017D01*
X127926816Y-88792615D01*
X127929257Y-88795861D01*
X127951343Y-88826891D01*
X127958390Y-88832448D01*
X127958393Y-88832451D01*
X127968440Y-88840373D01*
X127983257Y-88854121D01*
X127997975Y-88870160D01*
X128005655Y-88874804D01*
X128005657Y-88874805D01*
X128026615Y-88887477D01*
X128039440Y-88896359D01*
X128054647Y-88908350D01*
X128065719Y-88917081D01*
X128074043Y-88920437D01*
X128085909Y-88925221D01*
X128103988Y-88934258D01*
X128114936Y-88940878D01*
X128114941Y-88940880D01*
X128122620Y-88945523D01*
X128131297Y-88947825D01*
X128154968Y-88954105D01*
X128169772Y-88959032D01*
X128200811Y-88971546D01*
X128222475Y-88973692D01*
X128242360Y-88977290D01*
X128263407Y-88982874D01*
X128296869Y-88982032D01*
X128312442Y-88982606D01*
X128345758Y-88985906D01*
X128354582Y-88984248D01*
X128367159Y-88981885D01*
X128387255Y-88979758D01*
X128400045Y-88979436D01*
X128400046Y-88979436D01*
X128409019Y-88979210D01*
X128417565Y-88976476D01*
X128417570Y-88976475D01*
X128440896Y-88969012D01*
X128456018Y-88965188D01*
X128480084Y-88960665D01*
X128480087Y-88960664D01*
X128488910Y-88959006D01*
X128508327Y-88949138D01*
X128527007Y-88941460D01*
X128547749Y-88934824D01*
X128555181Y-88929803D01*
X128555192Y-88929798D01*
X128575858Y-88915837D01*
X128580798Y-88912664D01*
X128584342Y-88910503D01*
X128588682Y-88908297D01*
X128611927Y-88891537D01*
X128614983Y-88889404D01*
X128668446Y-88853286D01*
X128672532Y-88848357D01*
X128678377Y-88843625D01*
X128682888Y-88840373D01*
X131730704Y-86642842D01*
X133440732Y-85409881D01*
X133441796Y-85409122D01*
X137568567Y-82498232D01*
X137614186Y-82478124D01*
X137956876Y-82402920D01*
X138169937Y-82356164D01*
X138190415Y-82353404D01*
X138616472Y-82331311D01*
X138633229Y-82331558D01*
X139508857Y-82402920D01*
X139539401Y-82409285D01*
X139958320Y-82552577D01*
X139974603Y-82559458D01*
X140151092Y-82649106D01*
X140163737Y-82656483D01*
X140193936Y-82676539D01*
X140255625Y-82695741D01*
X140258719Y-82696748D01*
X140319860Y-82717538D01*
X140360001Y-82719275D01*
X140373040Y-82720521D01*
X140883189Y-82796212D01*
X140908953Y-82802876D01*
X141977284Y-83203682D01*
X141992944Y-83210812D01*
X142163285Y-83302919D01*
X142669291Y-83576527D01*
X142685347Y-83586853D01*
X143559255Y-84247543D01*
X143582429Y-84270315D01*
X143706921Y-84429118D01*
X143971925Y-84767157D01*
X143988828Y-84788719D01*
X144009576Y-84827754D01*
X144397441Y-86029510D01*
X144399249Y-86035645D01*
X146739840Y-94795225D01*
X146754815Y-94851267D01*
X146754932Y-94851708D01*
X146774555Y-94926976D01*
X146779165Y-94934675D01*
X146789736Y-94952329D01*
X146797522Y-94967603D01*
X146805602Y-94986536D01*
X146809126Y-94994793D01*
X146814823Y-95001726D01*
X146814824Y-95001728D01*
X146825439Y-95014646D01*
X146836188Y-95029905D01*
X146849384Y-95051942D01*
X146871072Y-95072016D01*
X146882827Y-95084484D01*
X146901600Y-95107331D01*
X146909015Y-95112387D01*
X146909016Y-95112388D01*
X146922827Y-95121805D01*
X146937431Y-95133438D01*
X146956279Y-95150884D01*
X146982742Y-95164072D01*
X146997511Y-95172732D01*
X147021941Y-95189391D01*
X147054684Y-95200024D01*
X147055446Y-95200302D01*
X147056449Y-95200801D01*
X147059329Y-95201717D01*
X147059330Y-95201717D01*
X147086078Y-95210221D01*
X147086815Y-95210458D01*
X147156707Y-95233154D01*
X147156714Y-95233156D01*
X147160478Y-95234378D01*
X147161885Y-95234419D01*
X147163199Y-95234740D01*
X158524634Y-98846947D01*
X164469611Y-100737068D01*
X164479663Y-100740741D01*
X165843515Y-101305822D01*
X165867051Y-101318662D01*
X167306620Y-102316378D01*
X167319702Y-102326795D01*
X167952387Y-102903269D01*
X167956856Y-102907547D01*
X167974005Y-102924787D01*
X167978978Y-102928440D01*
X167985003Y-102933376D01*
X167988184Y-102935885D01*
X167991500Y-102938906D01*
X167995209Y-102941426D01*
X167995216Y-102941431D01*
X168012464Y-102953148D01*
X168016260Y-102955830D01*
X168747840Y-103493283D01*
X169226609Y-103845009D01*
X169271373Y-103877895D01*
X169275222Y-103880839D01*
X172447381Y-106404691D01*
X172452091Y-106408629D01*
X172694724Y-106621777D01*
X175184008Y-108808562D01*
X175184010Y-108808564D01*
X175188997Y-108813189D01*
X176733457Y-110325359D01*
X176810336Y-110400631D01*
X176814817Y-110405248D01*
X178481206Y-112212607D01*
X178549114Y-112286260D01*
X178549200Y-112286354D01*
X179390924Y-113201129D01*
X179404712Y-113219127D01*
X179806133Y-113854243D01*
X179818807Y-113880678D01*
X179948601Y-114259051D01*
X179954796Y-114287432D01*
X179997858Y-114719284D01*
X180006024Y-114801182D01*
X180006120Y-114825181D01*
X179976419Y-115149240D01*
X179954424Y-115389217D01*
X179946835Y-115422205D01*
X179786533Y-115846973D01*
X179780428Y-115860633D01*
X179609447Y-116189314D01*
X179581706Y-116225046D01*
X179264769Y-116508759D01*
X179259390Y-116513309D01*
X178947275Y-116762658D01*
X178922358Y-116778184D01*
X178580417Y-116939349D01*
X178126109Y-117153475D01*
X178107584Y-117160485D01*
X178028184Y-117183582D01*
X177293085Y-117397417D01*
X177284831Y-117399518D01*
X177108337Y-117438124D01*
X176608671Y-117547420D01*
X176600626Y-117548908D01*
X176167705Y-117614513D01*
X175388138Y-117732649D01*
X175376393Y-117733868D01*
X174319155Y-117793651D01*
X174120000Y-117804912D01*
X174112332Y-117805112D01*
X173516158Y-117802486D01*
X172408243Y-117797605D01*
X172401079Y-117797368D01*
X170503241Y-117680654D01*
X170496987Y-117680114D01*
X169000836Y-117512838D01*
X168995490Y-117512123D01*
X168969432Y-117508066D01*
X168967376Y-117508066D01*
X168964088Y-117507690D01*
X167941364Y-117352601D01*
X167941368Y-117352575D01*
X167941277Y-117352588D01*
X167509377Y-117286780D01*
X167238195Y-117245460D01*
X167238165Y-117245454D01*
X167238145Y-117245448D01*
X167201414Y-117239856D01*
X167201415Y-117239852D01*
X167201400Y-117239854D01*
X167162948Y-117233995D01*
X167162914Y-117233995D01*
X166948049Y-117201283D01*
X166946913Y-117201104D01*
X166838488Y-117183582D01*
X166837911Y-117183488D01*
X166837164Y-117183364D01*
X166834581Y-117182933D01*
X166832300Y-117182475D01*
X166830152Y-117181790D01*
X166825343Y-117181042D01*
X166825338Y-117181041D01*
X166794400Y-117176229D01*
X166793052Y-117176012D01*
X166764865Y-117171315D01*
X166764862Y-117171315D01*
X166760447Y-117170579D01*
X166758186Y-117170527D01*
X166755860Y-117170237D01*
X166718975Y-117164501D01*
X166717993Y-117164312D01*
X166716919Y-117163976D01*
X166679362Y-117158339D01*
X166678834Y-117158259D01*
X166644333Y-117152894D01*
X166643214Y-117152881D01*
X166642192Y-117152762D01*
X166300897Y-117101543D01*
X166300870Y-117101539D01*
X165221782Y-116939357D01*
X165221709Y-116939343D01*
X165221589Y-116939306D01*
X165221236Y-116939253D01*
X165221230Y-116939252D01*
X165182555Y-116933462D01*
X165146587Y-116928056D01*
X165146465Y-116928055D01*
X165146375Y-116928045D01*
X163575435Y-116692843D01*
X163575011Y-116692779D01*
X150320506Y-114662105D01*
X150319909Y-114661991D01*
X150319240Y-114661782D01*
X150281014Y-114656055D01*
X150245641Y-114650636D01*
X150244938Y-114650629D01*
X150244309Y-114650557D01*
X139391336Y-113024673D01*
X139385150Y-113023575D01*
X139380653Y-113022282D01*
X139375828Y-113021673D01*
X139375827Y-113021673D01*
X139348673Y-113018247D01*
X139345780Y-113017848D01*
X139321354Y-113014189D01*
X139321351Y-113014189D01*
X139316927Y-113013526D01*
X139312447Y-113013497D01*
X139311755Y-113013443D01*
X139305749Y-113012831D01*
X137282570Y-112757574D01*
X137276919Y-112756701D01*
X137272644Y-112755572D01*
X137267806Y-112755069D01*
X137267803Y-112755068D01*
X137240126Y-112752188D01*
X137237398Y-112751874D01*
X137217106Y-112749314D01*
X137208036Y-112748170D01*
X137203638Y-112748244D01*
X137197702Y-112747773D01*
X135587024Y-112580160D01*
X135586545Y-112580076D01*
X135586127Y-112579906D01*
X135546524Y-112575851D01*
X135489869Y-112570050D01*
X135489660Y-112570028D01*
X135479837Y-112569006D01*
X135479835Y-112569006D01*
X135478193Y-112568835D01*
X135478056Y-112568840D01*
X135474791Y-112568506D01*
X135442498Y-112570200D01*
X135440835Y-112570275D01*
X135415516Y-112571252D01*
X135377451Y-112572720D01*
X135377446Y-112572721D01*
X135369502Y-112573027D01*
X135366631Y-112573988D01*
X135363641Y-112574339D01*
X135252691Y-112580161D01*
X133688853Y-112662223D01*
X133683519Y-112662352D01*
X133679322Y-112662010D01*
X133650035Y-112664157D01*
X133646399Y-112664424D01*
X133643788Y-112664588D01*
X133641035Y-112664732D01*
X133613888Y-112666157D01*
X133609772Y-112666968D01*
X133604238Y-112667515D01*
X132733702Y-112731345D01*
X131163588Y-112846469D01*
X131157180Y-112846774D01*
X131155677Y-112846807D01*
X131150815Y-112846539D01*
X131145974Y-112847022D01*
X131145971Y-112847022D01*
X131119687Y-112849644D01*
X131116393Y-112849929D01*
X131092737Y-112851663D01*
X131092731Y-112851664D01*
X131088269Y-112851991D01*
X131083891Y-112852949D01*
X131080878Y-112853387D01*
X131075262Y-112854075D01*
X129902829Y-112971025D01*
X128385735Y-113122356D01*
X128376045Y-113122945D01*
X128360973Y-113123277D01*
X128356181Y-113124132D01*
X128356177Y-113124132D01*
X128346061Y-113125936D01*
X128336443Y-113127272D01*
X128328915Y-113128023D01*
X128328913Y-113128023D01*
X128324456Y-113128468D01*
X128309020Y-113132273D01*
X128300999Y-113133974D01*
X125577763Y-113619691D01*
X125565436Y-113621268D01*
X125562139Y-113621525D01*
X125562138Y-113621525D01*
X125557293Y-113621903D01*
X125552566Y-113623021D01*
X125552559Y-113623022D01*
X125535942Y-113626952D01*
X125529075Y-113628375D01*
X125510549Y-113631680D01*
X125506293Y-113633085D01*
X125506287Y-113633086D01*
X125502052Y-113634484D01*
X125491568Y-113637448D01*
X122264863Y-114400614D01*
X122261632Y-114401332D01*
X113140447Y-116303919D01*
X113130505Y-116305581D01*
X111319247Y-116534327D01*
X111249157Y-116523018D01*
X111196308Y-116475610D01*
X111177460Y-116409320D01*
X111177460Y-113988424D01*
X111197462Y-113920303D01*
X111251118Y-113873810D01*
X111292478Y-113862903D01*
X111314290Y-113860995D01*
X111352338Y-113857666D01*
X111495926Y-113819191D01*
X111561761Y-113801551D01*
X111561763Y-113801550D01*
X111567071Y-113800128D01*
X111597637Y-113785875D01*
X111763565Y-113708502D01*
X111763570Y-113708499D01*
X111768552Y-113706176D01*
X111892065Y-113619691D01*
X111946145Y-113581824D01*
X111946148Y-113581822D01*
X111950656Y-113578665D01*
X112107852Y-113421469D01*
X112117849Y-113407193D01*
X112177499Y-113322003D01*
X112232956Y-113277675D01*
X112303576Y-113270366D01*
X112366936Y-113302397D01*
X112402419Y-113361663D01*
X112429026Y-113460960D01*
X112433846Y-113478950D01*
X112436168Y-113483931D01*
X112436169Y-113483932D01*
X112525472Y-113675443D01*
X112525475Y-113675448D01*
X112527798Y-113680430D01*
X112530954Y-113684937D01*
X112530955Y-113684939D01*
X112651900Y-113857666D01*
X112655309Y-113862535D01*
X112812505Y-114019731D01*
X112817013Y-114022888D01*
X112817016Y-114022890D01*
X112892781Y-114075941D01*
X112994609Y-114147242D01*
X112999591Y-114149565D01*
X112999596Y-114149568D01*
X113191108Y-114238871D01*
X113196090Y-114241194D01*
X113201398Y-114242616D01*
X113201400Y-114242617D01*
X113262733Y-114259051D01*
X113410823Y-114298732D01*
X113632286Y-114318107D01*
X113853749Y-114298732D01*
X114001839Y-114259051D01*
X114063172Y-114242617D01*
X114063174Y-114242616D01*
X114068482Y-114241194D01*
X114073464Y-114238871D01*
X114264976Y-114149568D01*
X114264981Y-114149565D01*
X114269963Y-114147242D01*
X114371791Y-114075941D01*
X114447556Y-114022890D01*
X114447559Y-114022888D01*
X114452067Y-114019731D01*
X114609263Y-113862535D01*
X114612673Y-113857666D01*
X114733617Y-113684939D01*
X114733618Y-113684937D01*
X114736774Y-113680430D01*
X114739097Y-113675448D01*
X114739100Y-113675443D01*
X114828403Y-113483932D01*
X114828404Y-113483931D01*
X114830726Y-113478950D01*
X114835547Y-113460960D01*
X114869659Y-113333651D01*
X114888264Y-113264217D01*
X114907639Y-113042754D01*
X114888264Y-112821291D01*
X114842401Y-112650130D01*
X114832149Y-112611868D01*
X114832148Y-112611866D01*
X114830726Y-112606558D01*
X114828403Y-112601576D01*
X114739100Y-112410065D01*
X114739097Y-112410060D01*
X114736774Y-112405078D01*
X114715066Y-112374076D01*
X114612422Y-112227484D01*
X114612420Y-112227481D01*
X114609263Y-112222973D01*
X114452067Y-112065777D01*
X114447559Y-112062620D01*
X114447556Y-112062618D01*
X114352602Y-111996130D01*
X114308274Y-111940672D01*
X114300965Y-111870053D01*
X114332996Y-111806693D01*
X114392261Y-111771210D01*
X114453024Y-111754929D01*
X114504239Y-111741206D01*
X114504241Y-111741205D01*
X114509549Y-111739783D01*
X114530722Y-111729910D01*
X114706043Y-111648157D01*
X114706048Y-111648154D01*
X114711030Y-111645831D01*
X114840660Y-111555063D01*
X114888623Y-111521479D01*
X114888626Y-111521477D01*
X114893134Y-111518320D01*
X115050330Y-111361124D01*
X115060109Y-111347159D01*
X115174684Y-111183528D01*
X115174685Y-111183526D01*
X115177841Y-111179019D01*
X115180164Y-111174037D01*
X115180167Y-111174032D01*
X115269470Y-110982521D01*
X115269471Y-110982520D01*
X115271793Y-110977539D01*
X115280600Y-110944673D01*
X115310227Y-110834102D01*
X115329331Y-110762806D01*
X115348706Y-110541343D01*
X115329331Y-110319880D01*
X115290856Y-110176292D01*
X115273216Y-110110457D01*
X115273215Y-110110455D01*
X115271793Y-110105147D01*
X115257997Y-110075561D01*
X115180167Y-109908654D01*
X115180164Y-109908649D01*
X115177841Y-109903667D01*
X115121709Y-109823502D01*
X115053489Y-109726073D01*
X115053487Y-109726070D01*
X115050330Y-109721562D01*
X114893134Y-109564366D01*
X114888626Y-109561209D01*
X114888623Y-109561207D01*
X114803681Y-109501730D01*
X114711030Y-109436855D01*
X114706048Y-109434532D01*
X114706043Y-109434529D01*
X114514531Y-109345226D01*
X114514530Y-109345225D01*
X114509549Y-109342903D01*
X114504241Y-109341481D01*
X114504239Y-109341480D01*
X114411109Y-109316526D01*
X114294816Y-109285365D01*
X114073353Y-109265990D01*
X113851890Y-109285365D01*
X113735597Y-109316526D01*
X113642467Y-109341480D01*
X113642465Y-109341481D01*
X113637157Y-109342903D01*
X113632176Y-109345225D01*
X113632175Y-109345226D01*
X113440664Y-109434529D01*
X113440659Y-109434532D01*
X113435677Y-109436855D01*
X113431170Y-109440011D01*
X113431168Y-109440012D01*
X113258083Y-109561207D01*
X113258080Y-109561209D01*
X113253572Y-109564366D01*
X113096376Y-109721562D01*
X113093218Y-109726072D01*
X113093213Y-109726078D01*
X113026728Y-109821029D01*
X112971271Y-109865358D01*
X112900652Y-109872667D01*
X112837291Y-109840637D01*
X112801808Y-109781370D01*
X112771803Y-109669390D01*
X112771802Y-109669388D01*
X112770380Y-109664080D01*
X112725700Y-109568263D01*
X112678754Y-109467587D01*
X112678751Y-109467582D01*
X112676428Y-109462600D01*
X112656773Y-109434529D01*
X112552076Y-109285006D01*
X112552074Y-109285003D01*
X112548917Y-109280495D01*
X112391721Y-109123299D01*
X112387213Y-109120142D01*
X112387210Y-109120140D01*
X112272392Y-109039744D01*
X112209617Y-108995788D01*
X112204635Y-108993465D01*
X112204630Y-108993462D01*
X112013118Y-108904159D01*
X112013117Y-108904158D01*
X112008136Y-108901836D01*
X112002828Y-108900414D01*
X112002826Y-108900413D01*
X111936991Y-108882773D01*
X111793403Y-108844298D01*
X111571940Y-108824923D01*
X111350477Y-108844298D01*
X111206889Y-108882773D01*
X111141054Y-108900413D01*
X111141052Y-108900414D01*
X111135744Y-108901836D01*
X111130763Y-108904158D01*
X111130762Y-108904159D01*
X111016812Y-108957295D01*
X110946620Y-108967956D01*
X110881808Y-108938976D01*
X110842951Y-108879556D01*
X110842388Y-108808562D01*
X110874467Y-108754005D01*
X112707926Y-106920546D01*
X112716252Y-106912969D01*
X112722752Y-106908844D01*
X112769550Y-106859009D01*
X112772304Y-106856168D01*
X112792087Y-106836385D01*
X112794578Y-106833174D01*
X112802287Y-106824147D01*
X112815494Y-106810083D01*
X112832666Y-106791797D01*
X112842471Y-106773962D01*
X112853325Y-106757438D01*
X112860940Y-106747621D01*
X112860941Y-106747620D01*
X112865798Y-106741358D01*
X112878545Y-106711901D01*
X112883418Y-106700641D01*
X112888641Y-106689980D01*
X112906198Y-106658044D01*
X112906200Y-106658039D01*
X112910018Y-106651094D01*
X112911988Y-106643420D01*
X112911991Y-106643413D01*
X112915081Y-106631378D01*
X112921485Y-106612673D01*
X112926416Y-106601278D01*
X112929566Y-106593999D01*
X112936509Y-106550164D01*
X112938916Y-106538542D01*
X112949949Y-106495573D01*
X112949949Y-106475226D01*
X112951500Y-106455515D01*
X112953444Y-106443241D01*
X112954684Y-106435412D01*
X112950508Y-106391235D01*
X112949949Y-106379377D01*
X112949949Y-105161560D01*
X112969951Y-105093439D01*
X113023607Y-105046946D01*
X113093881Y-105036842D01*
X113158461Y-105066336D01*
X113193060Y-105115074D01*
X113286923Y-105351541D01*
X113288554Y-105355292D01*
X113547015Y-105900839D01*
X113548873Y-105904453D01*
X113842019Y-106432217D01*
X113844094Y-106435684D01*
X114170683Y-106943424D01*
X114172999Y-106946781D01*
X114531653Y-107432359D01*
X114534184Y-107435564D01*
X114923434Y-107896995D01*
X114926161Y-107900024D01*
X115344370Y-108335367D01*
X115347303Y-108338229D01*
X115792715Y-108745660D01*
X115795846Y-108748344D01*
X116266614Y-109126175D01*
X116269897Y-109128640D01*
X116764088Y-109475319D01*
X116767515Y-109477562D01*
X117283060Y-109791635D01*
X117286595Y-109793635D01*
X117821368Y-110073802D01*
X117825006Y-110075561D01*
X118376712Y-110320619D01*
X118380502Y-110322158D01*
X118946872Y-110531103D01*
X118950737Y-110532389D01*
X119529415Y-110704350D01*
X119533356Y-110705384D01*
X120121917Y-110839642D01*
X120125912Y-110840419D01*
X120721930Y-110936419D01*
X120725969Y-110936936D01*
X121326918Y-110994272D01*
X121330987Y-110994528D01*
X121934384Y-111012964D01*
X121938470Y-111012956D01*
X122468819Y-110994899D01*
X122483896Y-110989909D01*
X122483927Y-110989871D01*
X122485594Y-110979098D01*
X121655811Y-101494625D01*
X121669800Y-101425020D01*
X121719200Y-101374027D01*
X121770351Y-101358122D01*
X122025376Y-101335811D01*
X122094981Y-101349800D01*
X122145973Y-101399200D01*
X122161878Y-101450350D01*
X122991229Y-110929880D01*
X122997016Y-110944673D01*
X122998197Y-110945528D01*
X123006650Y-110946559D01*
X123146622Y-110932710D01*
X123150658Y-110932179D01*
X123746321Y-110834102D01*
X123750324Y-110833309D01*
X124338425Y-110696995D01*
X124342345Y-110695952D01*
X124920442Y-110521964D01*
X124924275Y-110520674D01*
X125489914Y-110309753D01*
X125493707Y-110308197D01*
X126044544Y-110061219D01*
X126048205Y-110059433D01*
X126581987Y-109777406D01*
X126585493Y-109775406D01*
X127099963Y-109459521D01*
X127103360Y-109457280D01*
X127596367Y-109108858D01*
X127599591Y-109106420D01*
X128069100Y-108726897D01*
X128072167Y-108724250D01*
X128516193Y-108315231D01*
X128519084Y-108312390D01*
X128935787Y-107875573D01*
X128938510Y-107872527D01*
X129326152Y-107409734D01*
X129328646Y-107406554D01*
X129685621Y-106919701D01*
X129687921Y-106916341D01*
X130012732Y-106407472D01*
X130014803Y-106403984D01*
X130275138Y-105931413D01*
X130325527Y-105881398D01*
X130394957Y-105866565D01*
X130461385Y-105891624D01*
X130503719Y-105948618D01*
X130511500Y-105992210D01*
X130511500Y-106625846D01*
X130491498Y-106693967D01*
X130482025Y-106706833D01*
X127795406Y-109908620D01*
X127793513Y-109911447D01*
X127793512Y-109911449D01*
X127783055Y-109927070D01*
X127760611Y-109960596D01*
X127757980Y-109968045D01*
X127757980Y-109968046D01*
X127719218Y-110077810D01*
X127712109Y-110097942D01*
X127704106Y-110243379D01*
X127737243Y-110385217D01*
X127741657Y-110393034D01*
X127741657Y-110393035D01*
X127763788Y-110432232D01*
X127808857Y-110512054D01*
X127852149Y-110557198D01*
X127854759Y-110559388D01*
X127854760Y-110559389D01*
X128166047Y-110820590D01*
X128898771Y-111435419D01*
X128950747Y-111470214D01*
X129088093Y-111518715D01*
X129233530Y-111526719D01*
X129242265Y-111524678D01*
X129242268Y-111524678D01*
X129295687Y-111512198D01*
X163140003Y-111512198D01*
X163140009Y-111519512D01*
X163140009Y-111519516D01*
X163140054Y-111570122D01*
X163140158Y-111689068D01*
X163141848Y-111696189D01*
X163175937Y-111839834D01*
X163180997Y-111861158D01*
X163184277Y-111867695D01*
X163184279Y-111867699D01*
X163205881Y-111910743D01*
X163260330Y-112019239D01*
X163264672Y-112024572D01*
X163264673Y-112024574D01*
X163324596Y-112098178D01*
X163324602Y-112098184D01*
X163326627Y-112100672D01*
X163839848Y-112613893D01*
X163922396Y-112680921D01*
X163928563Y-112684003D01*
X163928564Y-112684003D01*
X164074070Y-112756707D01*
X164074072Y-112756708D01*
X164080615Y-112759977D01*
X164252776Y-112800517D01*
X164260090Y-112800511D01*
X164260094Y-112800511D01*
X164341211Y-112800439D01*
X164429646Y-112800362D01*
X164515691Y-112779943D01*
X164594616Y-112761213D01*
X164594617Y-112761213D01*
X164601737Y-112759523D01*
X164608273Y-112756243D01*
X164608278Y-112756241D01*
X164753669Y-112683276D01*
X164753673Y-112683273D01*
X164759817Y-112680190D01*
X164775386Y-112667515D01*
X164838756Y-112615924D01*
X164838762Y-112615918D01*
X164841250Y-112613893D01*
X165403738Y-112051405D01*
X165466050Y-112017379D01*
X165492833Y-112014500D01*
X165666140Y-112014500D01*
X165677374Y-112015030D01*
X165684879Y-112016708D01*
X165753172Y-112014562D01*
X165757129Y-112014500D01*
X165785143Y-112014500D01*
X165789068Y-112014004D01*
X165789069Y-112014004D01*
X165789164Y-112013992D01*
X165801009Y-112013059D01*
X165830830Y-112012122D01*
X165837442Y-112011914D01*
X165837443Y-112011914D01*
X165845365Y-112011665D01*
X165864909Y-112005987D01*
X165884272Y-112001977D01*
X165896600Y-112000420D01*
X165896602Y-112000420D01*
X165904459Y-111999427D01*
X165911823Y-111996511D01*
X165911828Y-111996510D01*
X165945716Y-111983093D01*
X165956945Y-111979248D01*
X165973625Y-111974402D01*
X165999553Y-111966869D01*
X166006380Y-111962831D01*
X166006383Y-111962830D01*
X166017066Y-111956512D01*
X166034824Y-111947812D01*
X166046375Y-111943239D01*
X166046381Y-111943235D01*
X166053748Y-111940319D01*
X166062541Y-111933931D01*
X166089648Y-111914236D01*
X166099570Y-111907719D01*
X166130928Y-111889174D01*
X166130932Y-111889171D01*
X166137758Y-111885134D01*
X166152142Y-111870750D01*
X166167176Y-111857909D01*
X166177233Y-111850602D01*
X166183647Y-111845942D01*
X166211938Y-111811744D01*
X166219927Y-111802965D01*
X167590661Y-110432232D01*
X167652973Y-110398206D01*
X167723789Y-110403271D01*
X167758211Y-110424135D01*
X167758888Y-110423293D01*
X167801478Y-110457537D01*
X167801481Y-110457539D01*
X167807634Y-110462486D01*
X167940230Y-110522773D01*
X167949113Y-110524045D01*
X167949116Y-110524046D01*
X168075527Y-110542149D01*
X168084416Y-110543422D01*
X168093305Y-110542149D01*
X168219716Y-110524046D01*
X168219719Y-110524045D01*
X168228602Y-110522773D01*
X168361198Y-110462486D01*
X168367351Y-110457539D01*
X168367354Y-110457537D01*
X168407282Y-110425433D01*
X168409944Y-110423293D01*
X170316493Y-108516744D01*
X170329949Y-108500008D01*
X170350737Y-108474154D01*
X170350739Y-108474151D01*
X170355686Y-108467998D01*
X170415973Y-108335402D01*
X170422496Y-108289858D01*
X170435349Y-108200105D01*
X170436622Y-108191216D01*
X170420426Y-108078122D01*
X170417246Y-108055916D01*
X170417245Y-108055913D01*
X170415973Y-108047030D01*
X170355686Y-107914434D01*
X170350739Y-107908281D01*
X170350737Y-107908278D01*
X170318633Y-107868350D01*
X170316493Y-107865688D01*
X169258472Y-106807667D01*
X169238734Y-106791797D01*
X169215882Y-106773423D01*
X169215879Y-106773421D01*
X169209726Y-106768474D01*
X169077130Y-106708187D01*
X169068247Y-106706915D01*
X169068244Y-106706914D01*
X168941833Y-106688811D01*
X168932944Y-106687538D01*
X168924055Y-106688811D01*
X168797644Y-106706914D01*
X168797641Y-106706915D01*
X168788758Y-106708187D01*
X168656162Y-106768474D01*
X168650009Y-106773421D01*
X168650006Y-106773423D01*
X168627154Y-106791797D01*
X168607416Y-106807667D01*
X168472096Y-106942987D01*
X168409784Y-106977013D01*
X168338969Y-106971948D01*
X168282133Y-106929401D01*
X168257322Y-106862881D01*
X168257067Y-106849830D01*
X168257605Y-106833177D01*
X168280080Y-106136440D01*
X167858738Y-105645455D01*
X167677156Y-105433859D01*
X167665400Y-105420160D01*
X167648115Y-105414958D01*
X167648114Y-105414957D01*
X166632008Y-105109139D01*
X166572542Y-105070353D01*
X166543485Y-105005575D01*
X166554063Y-104935370D01*
X166579226Y-104899390D01*
X166636730Y-104841886D01*
X166641292Y-104836802D01*
X166673352Y-104796929D01*
X166681574Y-104783579D01*
X166734818Y-104666474D01*
X166739805Y-104649419D01*
X166757888Y-104523149D01*
X166757888Y-104505371D01*
X166739805Y-104379101D01*
X166734818Y-104362046D01*
X166681572Y-104244937D01*
X166673355Y-104231593D01*
X166641292Y-104191716D01*
X166636736Y-104186638D01*
X166302590Y-103852492D01*
X166288646Y-103844878D01*
X166286813Y-103845009D01*
X166280198Y-103849260D01*
X163745693Y-106383765D01*
X163738079Y-106397709D01*
X163738210Y-106399542D01*
X163742461Y-106406157D01*
X164079834Y-106743530D01*
X164084918Y-106748092D01*
X164124791Y-106780152D01*
X164138141Y-106788374D01*
X164255246Y-106841618D01*
X164272301Y-106846605D01*
X164398571Y-106864688D01*
X164416349Y-106864688D01*
X164542619Y-106846605D01*
X164559674Y-106841618D01*
X164676783Y-106788372D01*
X164690127Y-106780155D01*
X164730004Y-106748092D01*
X164735082Y-106743536D01*
X165012284Y-106466334D01*
X165074596Y-106432308D01*
X165145411Y-106437373D01*
X165202247Y-106479920D01*
X165227058Y-106546440D01*
X165222420Y-106590429D01*
X165196520Y-106680000D01*
X165201674Y-106692256D01*
X165201674Y-106692258D01*
X165503745Y-107410595D01*
X165613080Y-107670600D01*
X165625958Y-107678327D01*
X165625959Y-107678328D01*
X165942663Y-107868350D01*
X166400480Y-108143040D01*
X166414211Y-108141343D01*
X166414212Y-108141343D01*
X166693379Y-108106839D01*
X167031319Y-108065071D01*
X167101377Y-108076567D01*
X167154101Y-108124114D01*
X167172748Y-108192618D01*
X167151400Y-108260329D01*
X167135868Y-108279215D01*
X166700867Y-108714216D01*
X166690671Y-108726897D01*
X166666623Y-108756806D01*
X166666621Y-108756809D01*
X166661674Y-108762962D01*
X166658406Y-108770150D01*
X166608663Y-108879556D01*
X166601387Y-108895558D01*
X166600115Y-108904441D01*
X166600114Y-108904444D01*
X166582011Y-109030855D01*
X166580738Y-109039744D01*
X166582011Y-109048633D01*
X166592252Y-109120140D01*
X166601387Y-109183930D01*
X166661674Y-109316526D01*
X166666621Y-109322679D01*
X166666623Y-109322682D01*
X166700867Y-109365272D01*
X166699492Y-109366377D01*
X166727191Y-109424129D01*
X166718411Y-109494580D01*
X166691928Y-109533499D01*
X165771351Y-110454076D01*
X165709039Y-110488102D01*
X165638224Y-110483037D01*
X165593161Y-110454076D01*
X165283192Y-110144107D01*
X165200644Y-110077079D01*
X165111194Y-110032384D01*
X165048970Y-110001293D01*
X165048968Y-110001292D01*
X165042425Y-109998023D01*
X164870264Y-109957483D01*
X164862950Y-109957489D01*
X164862946Y-109957489D01*
X164781829Y-109957560D01*
X164693394Y-109957638D01*
X164657256Y-109966214D01*
X164530279Y-109996347D01*
X164521303Y-109998477D01*
X164514767Y-110001757D01*
X164514762Y-110001759D01*
X164369371Y-110074724D01*
X164369367Y-110074727D01*
X164363223Y-110077810D01*
X164357890Y-110082152D01*
X164357888Y-110082153D01*
X164284284Y-110142076D01*
X164284278Y-110142082D01*
X164281790Y-110144107D01*
X163326627Y-111099270D01*
X163259599Y-111181818D01*
X163256519Y-111187982D01*
X163200468Y-111300160D01*
X163180543Y-111340036D01*
X163140003Y-111512198D01*
X129295687Y-111512198D01*
X129366629Y-111495624D01*
X129366631Y-111495623D01*
X129375368Y-111493582D01*
X129502205Y-111421967D01*
X129547349Y-111378675D01*
X129558299Y-111365626D01*
X131382104Y-109192099D01*
X132874590Y-107413424D01*
X132909385Y-107361448D01*
X132957887Y-107224102D01*
X132965890Y-107078665D01*
X132932753Y-106936827D01*
X132923084Y-106919701D01*
X132881812Y-106846605D01*
X132861139Y-106809990D01*
X132817847Y-106764846D01*
X132797881Y-106748092D01*
X131823509Y-105930496D01*
X131784182Y-105871386D01*
X131778500Y-105833974D01*
X131778500Y-98691423D01*
X131798502Y-98623302D01*
X131852158Y-98576809D01*
X131922432Y-98566705D01*
X131987012Y-98596199D01*
X131993595Y-98602328D01*
X143095462Y-109704195D01*
X143103038Y-109712521D01*
X143107159Y-109719015D01*
X143112934Y-109724438D01*
X143156977Y-109765797D01*
X143159819Y-109768552D01*
X143179618Y-109788351D01*
X143182743Y-109790775D01*
X143182752Y-109790783D01*
X143182838Y-109790849D01*
X143191863Y-109798557D01*
X143224206Y-109828929D01*
X143231150Y-109832747D01*
X143231152Y-109832748D01*
X143242041Y-109838734D01*
X143258559Y-109849585D01*
X143274645Y-109862062D01*
X143315378Y-109879688D01*
X143326026Y-109884905D01*
X143364909Y-109906281D01*
X143372584Y-109908252D01*
X143372590Y-109908254D01*
X143384623Y-109911343D01*
X143403325Y-109917746D01*
X143422004Y-109925829D01*
X143429830Y-109927069D01*
X143429835Y-109927070D01*
X143465832Y-109932772D01*
X143477452Y-109935178D01*
X143512749Y-109944240D01*
X143520430Y-109946212D01*
X143540778Y-109946212D01*
X143560490Y-109947763D01*
X143580592Y-109950947D01*
X143624767Y-109946771D01*
X143636626Y-109946212D01*
X161128287Y-109946212D01*
X161196408Y-109966214D01*
X161225999Y-109992661D01*
X161256308Y-110029890D01*
X161256314Y-110029896D01*
X161258339Y-110032384D01*
X161771560Y-110545605D01*
X161854108Y-110612633D01*
X161860275Y-110615715D01*
X161860276Y-110615715D01*
X162005782Y-110688419D01*
X162005784Y-110688420D01*
X162012327Y-110691689D01*
X162184488Y-110732229D01*
X162191802Y-110732223D01*
X162191806Y-110732223D01*
X162272923Y-110732151D01*
X162361358Y-110732074D01*
X162513572Y-110695952D01*
X162526328Y-110692925D01*
X162526329Y-110692925D01*
X162533449Y-110691235D01*
X162539985Y-110687955D01*
X162539990Y-110687953D01*
X162685381Y-110614988D01*
X162685385Y-110614985D01*
X162691529Y-110611902D01*
X162732530Y-110578522D01*
X162770468Y-110547636D01*
X162770474Y-110547630D01*
X162772962Y-110545605D01*
X163728125Y-109590442D01*
X163795153Y-109507894D01*
X163831811Y-109434529D01*
X163870938Y-109356223D01*
X163870939Y-109356221D01*
X163874209Y-109349676D01*
X163914749Y-109177514D01*
X163914702Y-109123299D01*
X163914600Y-109007962D01*
X163914594Y-109000644D01*
X163873755Y-108828554D01*
X163870475Y-108822017D01*
X163870473Y-108822013D01*
X163797507Y-108676621D01*
X163794422Y-108670473D01*
X163768235Y-108638307D01*
X163730156Y-108591534D01*
X163730150Y-108591528D01*
X163728125Y-108589040D01*
X163214904Y-108075819D01*
X163132356Y-108008791D01*
X163126188Y-108005709D01*
X162980682Y-107933005D01*
X162980680Y-107933004D01*
X162974137Y-107929735D01*
X162801976Y-107889195D01*
X162794662Y-107889201D01*
X162794658Y-107889201D01*
X162713541Y-107889272D01*
X162625106Y-107889350D01*
X162617984Y-107891040D01*
X162617985Y-107891040D01*
X162461991Y-107928059D01*
X162453015Y-107930189D01*
X162446479Y-107933469D01*
X162446474Y-107933471D01*
X162301083Y-108006436D01*
X162301079Y-108006439D01*
X162294935Y-108009522D01*
X162289602Y-108013864D01*
X162289600Y-108013865D01*
X162215996Y-108073788D01*
X162215990Y-108073794D01*
X162213502Y-108075819D01*
X161651014Y-108638307D01*
X161588702Y-108672333D01*
X161561919Y-108675212D01*
X143916135Y-108675212D01*
X143848014Y-108655210D01*
X143827040Y-108638307D01*
X140560410Y-105371677D01*
X162905560Y-105371677D01*
X162923643Y-105497947D01*
X162928630Y-105515002D01*
X162981876Y-105632111D01*
X162990093Y-105645455D01*
X163022156Y-105685332D01*
X163026712Y-105690410D01*
X163360858Y-106024556D01*
X163374802Y-106032170D01*
X163376635Y-106032039D01*
X163383250Y-106027788D01*
X164459702Y-104951336D01*
X164467316Y-104937392D01*
X164467185Y-104935559D01*
X164462934Y-104928944D01*
X163810747Y-104276757D01*
X163796803Y-104269143D01*
X163794970Y-104269274D01*
X163788355Y-104273525D01*
X163026718Y-105035162D01*
X163022156Y-105040246D01*
X162990096Y-105080119D01*
X162981874Y-105093469D01*
X162928630Y-105210574D01*
X162923643Y-105227629D01*
X162905560Y-105353899D01*
X162905560Y-105371677D01*
X140560410Y-105371677D01*
X139094599Y-103905866D01*
X164162342Y-103905866D01*
X164162473Y-103907699D01*
X164166724Y-103914314D01*
X164818912Y-104566502D01*
X164832856Y-104574116D01*
X164834689Y-104573985D01*
X164841304Y-104569734D01*
X165917755Y-103493283D01*
X165925369Y-103479339D01*
X165925238Y-103477506D01*
X165920987Y-103470891D01*
X165583614Y-103133518D01*
X165578530Y-103128956D01*
X165538657Y-103096896D01*
X165525307Y-103088674D01*
X165408202Y-103035430D01*
X165391147Y-103030443D01*
X165264877Y-103012360D01*
X165247099Y-103012360D01*
X165120829Y-103030443D01*
X165103774Y-103035430D01*
X164986665Y-103088676D01*
X164973321Y-103096893D01*
X164933444Y-103128956D01*
X164928366Y-103133512D01*
X164169956Y-103891922D01*
X164162342Y-103905866D01*
X139094599Y-103905866D01*
X119210706Y-84021973D01*
X119203130Y-84013647D01*
X119199009Y-84007153D01*
X119149190Y-83960370D01*
X119146349Y-83957616D01*
X119126550Y-83937817D01*
X119123425Y-83935393D01*
X119123416Y-83935385D01*
X119123330Y-83935319D01*
X119114305Y-83927611D01*
X119087741Y-83902666D01*
X119081962Y-83897239D01*
X119064125Y-83887433D01*
X119047609Y-83876583D01*
X119031523Y-83864106D01*
X118990790Y-83846480D01*
X118980142Y-83841263D01*
X118968514Y-83834871D01*
X118941259Y-83819887D01*
X118933584Y-83817916D01*
X118933578Y-83817914D01*
X118921545Y-83814825D01*
X118902843Y-83808422D01*
X118884164Y-83800339D01*
X118850328Y-83794980D01*
X118840329Y-83793396D01*
X118828716Y-83790991D01*
X118785738Y-83779956D01*
X118765391Y-83779956D01*
X118745680Y-83778405D01*
X118733406Y-83776461D01*
X118725577Y-83775221D01*
X118717685Y-83775967D01*
X118681400Y-83779397D01*
X118669542Y-83779956D01*
X118239708Y-83779956D01*
X118171587Y-83759954D01*
X118125007Y-83706106D01*
X118115977Y-83686246D01*
X118112707Y-83679054D01*
X118073514Y-83630309D01*
X117156914Y-82713709D01*
X117154253Y-82711569D01*
X117114324Y-82679465D01*
X117114325Y-82679465D01*
X117108169Y-82674516D01*
X117100982Y-82671249D01*
X117100980Y-82671247D01*
X116983742Y-82617943D01*
X116983741Y-82617943D01*
X116975573Y-82614229D01*
X116966690Y-82612957D01*
X116966687Y-82612956D01*
X116840275Y-82594853D01*
X116831386Y-82593580D01*
X116822497Y-82594853D01*
X116696086Y-82612956D01*
X116696083Y-82612957D01*
X116687200Y-82614229D01*
X116554604Y-82674516D01*
X116548451Y-82679463D01*
X116548448Y-82679465D01*
X116527611Y-82696219D01*
X116505858Y-82713709D01*
X114670020Y-84549547D01*
X114667880Y-84552209D01*
X114635776Y-84592137D01*
X114635774Y-84592140D01*
X114630827Y-84598293D01*
X114570540Y-84730889D01*
X114569268Y-84739772D01*
X114569267Y-84739775D01*
X114556668Y-84827755D01*
X114549891Y-84875075D01*
X114551164Y-84883964D01*
X114561719Y-84957665D01*
X114570540Y-85019262D01*
X114574254Y-85027431D01*
X114574255Y-85027434D01*
X114627753Y-85145099D01*
X114637739Y-85215389D01*
X114608138Y-85279921D01*
X114602147Y-85286344D01*
X113353567Y-86534924D01*
X113291255Y-86568950D01*
X113220440Y-86563885D01*
X113212322Y-86560530D01*
X113094657Y-86507032D01*
X113094654Y-86507031D01*
X113086485Y-86503317D01*
X113077602Y-86502045D01*
X113077599Y-86502044D01*
X112951187Y-86483941D01*
X112942298Y-86482668D01*
X112933409Y-86483941D01*
X112806998Y-86502044D01*
X112806995Y-86502045D01*
X112798112Y-86503317D01*
X112665516Y-86563604D01*
X112659363Y-86568551D01*
X112659360Y-86568553D01*
X112649866Y-86576187D01*
X112616770Y-86602797D01*
X110780932Y-88438635D01*
X110778792Y-88441297D01*
X110746688Y-88481225D01*
X110746686Y-88481228D01*
X110741739Y-88487381D01*
X110717961Y-88539679D01*
X110704851Y-88568514D01*
X110681452Y-88619977D01*
X110680180Y-88628860D01*
X110680179Y-88628863D01*
X110672862Y-88679956D01*
X110660803Y-88764163D01*
X110662076Y-88773052D01*
X110679735Y-88896359D01*
X110681452Y-88908350D01*
X110685166Y-88916518D01*
X110685166Y-88916519D01*
X110716312Y-88985021D01*
X110741739Y-89040946D01*
X110780932Y-89089691D01*
X111697532Y-90006291D01*
X111700189Y-90008428D01*
X111700192Y-90008430D01*
X111726808Y-90029830D01*
X111746277Y-90045484D01*
X111753464Y-90048751D01*
X111753466Y-90048753D01*
X111870704Y-90102057D01*
X111878873Y-90105771D01*
X111887756Y-90107043D01*
X111887759Y-90107044D01*
X112014171Y-90125147D01*
X112023060Y-90126420D01*
X112031949Y-90125147D01*
X112158360Y-90107044D01*
X112158363Y-90107043D01*
X112167246Y-90105771D01*
X112299842Y-90045484D01*
X112305995Y-90040537D01*
X112305998Y-90040535D01*
X112345926Y-90008431D01*
X112348588Y-90006291D01*
X114184426Y-88170453D01*
X114197882Y-88153717D01*
X114218670Y-88127863D01*
X114218672Y-88127860D01*
X114223619Y-88121707D01*
X114264917Y-88030875D01*
X114280192Y-87997280D01*
X114280192Y-87997279D01*
X114283906Y-87989111D01*
X114285920Y-87975053D01*
X114303282Y-87853814D01*
X114304555Y-87844925D01*
X114302303Y-87829197D01*
X114285179Y-87709624D01*
X114285178Y-87709621D01*
X114283906Y-87700738D01*
X114280192Y-87692569D01*
X114280191Y-87692566D01*
X114226693Y-87574901D01*
X114216707Y-87504611D01*
X114246308Y-87440079D01*
X114252299Y-87433656D01*
X115500879Y-86185076D01*
X115563191Y-86151050D01*
X115634006Y-86156115D01*
X115642124Y-86159470D01*
X115759789Y-86212968D01*
X115759792Y-86212969D01*
X115767961Y-86216683D01*
X115776844Y-86217955D01*
X115776847Y-86217956D01*
X115903259Y-86236059D01*
X115912148Y-86237332D01*
X115921037Y-86236059D01*
X116047448Y-86217956D01*
X116047451Y-86217955D01*
X116056334Y-86216683D01*
X116188930Y-86156396D01*
X116195083Y-86151449D01*
X116195086Y-86151447D01*
X116235014Y-86119343D01*
X116237676Y-86117203D01*
X117267018Y-85087861D01*
X117329330Y-85053835D01*
X117356113Y-85050956D01*
X117399955Y-85050956D01*
X117468076Y-85070958D01*
X117514569Y-85124614D01*
X117524673Y-85194888D01*
X117495179Y-85259468D01*
X117489050Y-85266051D01*
X116437787Y-86317314D01*
X116435647Y-86319976D01*
X116403543Y-86359904D01*
X116403541Y-86359907D01*
X116398594Y-86366060D01*
X116338307Y-86498656D01*
X116337035Y-86507539D01*
X116337034Y-86507542D01*
X116327204Y-86576187D01*
X116317658Y-86642842D01*
X116318931Y-86651731D01*
X116328653Y-86719614D01*
X116338307Y-86787029D01*
X116342021Y-86795198D01*
X116342022Y-86795201D01*
X116395520Y-86912866D01*
X116405506Y-86983156D01*
X116375905Y-87047688D01*
X116369914Y-87054111D01*
X115121334Y-88302691D01*
X115059022Y-88336717D01*
X114988207Y-88331652D01*
X114980089Y-88328297D01*
X114862424Y-88274799D01*
X114862421Y-88274798D01*
X114854252Y-88271084D01*
X114845369Y-88269812D01*
X114845366Y-88269811D01*
X114718954Y-88251708D01*
X114710065Y-88250435D01*
X114701176Y-88251708D01*
X114574765Y-88269811D01*
X114574762Y-88269812D01*
X114565879Y-88271084D01*
X114557711Y-88274798D01*
X114557710Y-88274798D01*
X114496362Y-88302691D01*
X114433283Y-88331371D01*
X114427130Y-88336318D01*
X114427127Y-88336320D01*
X114410899Y-88349368D01*
X114384537Y-88370564D01*
X112548699Y-90206402D01*
X112546559Y-90209064D01*
X112514455Y-90248992D01*
X112514453Y-90248995D01*
X112509506Y-90255148D01*
X112449219Y-90387744D01*
X112428570Y-90531930D01*
X112449219Y-90676117D01*
X112452933Y-90684285D01*
X112452933Y-90684286D01*
X112471232Y-90724532D01*
X112509506Y-90808713D01*
X112514455Y-90814868D01*
X112545353Y-90853296D01*
X112548699Y-90857458D01*
X113465299Y-91774058D01*
X113514044Y-91813251D01*
X113521236Y-91816521D01*
X113541096Y-91825551D01*
X113594830Y-91871954D01*
X113614946Y-91940252D01*
X113614946Y-92583122D01*
X113594944Y-92651243D01*
X113585471Y-92664109D01*
X110965410Y-95786576D01*
X110930615Y-95838552D01*
X110929541Y-95837833D01*
X110886621Y-95883874D01*
X110817818Y-95901389D01*
X110750469Y-95878926D01*
X110733300Y-95864567D01*
X109892405Y-95023672D01*
X109858379Y-94961360D01*
X109855500Y-94934577D01*
X109855500Y-88417489D01*
X109875502Y-88349368D01*
X109929158Y-88302875D01*
X109999432Y-88292771D01*
X110033650Y-88302788D01*
X110102934Y-88334289D01*
X110102937Y-88334290D01*
X110111106Y-88338004D01*
X110119989Y-88339276D01*
X110119992Y-88339277D01*
X110246404Y-88357380D01*
X110255293Y-88358653D01*
X110264182Y-88357380D01*
X110390593Y-88339277D01*
X110390596Y-88339276D01*
X110399479Y-88338004D01*
X110421256Y-88328103D01*
X110476742Y-88302875D01*
X110532075Y-88277717D01*
X110538228Y-88272770D01*
X110538231Y-88272768D01*
X110574534Y-88243579D01*
X110580821Y-88238524D01*
X112416659Y-86402686D01*
X112440328Y-86373248D01*
X112450903Y-86360096D01*
X112450905Y-86360093D01*
X112455852Y-86353940D01*
X112516139Y-86221344D01*
X112518702Y-86203451D01*
X112535515Y-86086047D01*
X112536788Y-86077158D01*
X112530401Y-86032556D01*
X112517412Y-85941857D01*
X112517411Y-85941854D01*
X112516139Y-85932971D01*
X112512425Y-85924802D01*
X112512424Y-85924799D01*
X112458926Y-85807134D01*
X112448940Y-85736844D01*
X112478541Y-85672312D01*
X112484532Y-85665889D01*
X113733112Y-84417309D01*
X113795424Y-84383283D01*
X113866239Y-84388348D01*
X113874357Y-84391703D01*
X113992022Y-84445201D01*
X113992025Y-84445202D01*
X114000194Y-84448916D01*
X114009077Y-84450188D01*
X114009080Y-84450189D01*
X114135492Y-84468292D01*
X114144381Y-84469565D01*
X114153270Y-84468292D01*
X114279681Y-84450189D01*
X114279684Y-84450188D01*
X114288567Y-84448916D01*
X114308699Y-84439763D01*
X114413975Y-84391897D01*
X114421163Y-84388629D01*
X114427316Y-84383682D01*
X114427319Y-84383680D01*
X114467247Y-84351576D01*
X114469909Y-84349436D01*
X116305747Y-82513598D01*
X116319203Y-82496862D01*
X116339991Y-82471008D01*
X116339993Y-82471005D01*
X116344940Y-82464852D01*
X116405227Y-82332256D01*
X116410021Y-82298786D01*
X116424603Y-82196959D01*
X116425876Y-82188070D01*
X116405227Y-82043883D01*
X116344940Y-81911287D01*
X116305747Y-81862542D01*
X115389147Y-80945942D01*
X115386486Y-80943802D01*
X115346557Y-80911698D01*
X115346558Y-80911698D01*
X115340402Y-80906749D01*
X115333215Y-80903482D01*
X115333213Y-80903480D01*
X115215975Y-80850176D01*
X115215974Y-80850176D01*
X115207806Y-80846462D01*
X115198923Y-80845190D01*
X115198920Y-80845189D01*
X115072508Y-80827086D01*
X115063619Y-80825813D01*
X115054730Y-80827086D01*
X114928319Y-80845189D01*
X114928316Y-80845190D01*
X114919433Y-80846462D01*
X114786837Y-80906749D01*
X114780684Y-80911696D01*
X114780681Y-80911698D01*
X114754827Y-80932486D01*
X114738091Y-80945942D01*
X112902253Y-82781780D01*
X112900113Y-82784442D01*
X112868009Y-82824370D01*
X112868007Y-82824373D01*
X112863060Y-82830526D01*
X112853559Y-82851422D01*
X112807868Y-82951917D01*
X112802773Y-82963122D01*
X112782124Y-83107308D01*
X112783397Y-83116197D01*
X112796360Y-83206712D01*
X112802773Y-83251495D01*
X112806487Y-83259664D01*
X112806488Y-83259667D01*
X112859986Y-83377332D01*
X112869972Y-83447622D01*
X112840371Y-83512154D01*
X112834380Y-83518577D01*
X111585800Y-84767157D01*
X111523488Y-84801183D01*
X111452673Y-84796118D01*
X111444555Y-84792763D01*
X111326890Y-84739265D01*
X111326887Y-84739264D01*
X111318718Y-84735550D01*
X111309835Y-84734278D01*
X111309832Y-84734277D01*
X111183420Y-84716174D01*
X111174531Y-84714901D01*
X111165642Y-84716174D01*
X111039231Y-84734277D01*
X111039228Y-84734278D01*
X111030345Y-84735550D01*
X110897749Y-84795837D01*
X110891596Y-84800784D01*
X110891593Y-84800786D01*
X110884625Y-84806389D01*
X110849003Y-84835030D01*
X109013165Y-86670868D01*
X109011025Y-86673530D01*
X108978921Y-86713458D01*
X108978919Y-86713461D01*
X108973972Y-86719614D01*
X108913685Y-86852210D01*
X108912413Y-86861093D01*
X108912412Y-86861096D01*
X108906729Y-86900781D01*
X108893036Y-86996396D01*
X108894309Y-87005285D01*
X108900382Y-87047688D01*
X108913685Y-87140583D01*
X108917399Y-87148751D01*
X108917399Y-87148752D01*
X108970898Y-87266418D01*
X108980884Y-87336709D01*
X108951283Y-87401240D01*
X108945297Y-87407659D01*
X108826512Y-87526444D01*
X108818193Y-87534014D01*
X108811697Y-87538136D01*
X108806271Y-87543914D01*
X108806270Y-87543915D01*
X108764915Y-87587954D01*
X108762160Y-87590796D01*
X108742361Y-87610595D01*
X108739937Y-87613720D01*
X108739929Y-87613729D01*
X108739863Y-87613815D01*
X108732155Y-87622840D01*
X108701783Y-87655183D01*
X108697965Y-87662127D01*
X108697964Y-87662129D01*
X108691978Y-87673018D01*
X108681127Y-87689536D01*
X108668650Y-87705622D01*
X108651024Y-87746355D01*
X108645807Y-87757003D01*
X108624431Y-87795886D01*
X108622460Y-87803561D01*
X108622458Y-87803567D01*
X108619369Y-87815600D01*
X108612966Y-87834302D01*
X108604883Y-87852981D01*
X108600199Y-87882554D01*
X108597940Y-87896816D01*
X108595535Y-87908429D01*
X108584500Y-87951407D01*
X108584500Y-87971754D01*
X108582949Y-87991465D01*
X108579765Y-88011568D01*
X108580511Y-88019460D01*
X108583941Y-88055745D01*
X108584500Y-88067603D01*
X108584500Y-95170980D01*
X108583970Y-95182214D01*
X108582292Y-95189719D01*
X108582541Y-95197638D01*
X108584438Y-95258012D01*
X108584500Y-95261969D01*
X108584500Y-95289983D01*
X108584996Y-95293908D01*
X108584996Y-95293909D01*
X108585008Y-95294004D01*
X108585941Y-95305849D01*
X108587335Y-95350205D01*
X108589547Y-95357817D01*
X108593013Y-95369748D01*
X108597023Y-95389112D01*
X108599573Y-95409299D01*
X108602489Y-95416663D01*
X108602490Y-95416668D01*
X108615907Y-95450556D01*
X108619752Y-95461785D01*
X108632131Y-95504393D01*
X108636169Y-95511220D01*
X108636170Y-95511223D01*
X108642488Y-95521906D01*
X108651188Y-95539664D01*
X108655761Y-95551215D01*
X108655765Y-95551221D01*
X108658681Y-95558588D01*
X108663339Y-95564999D01*
X108663340Y-95565001D01*
X108684764Y-95594488D01*
X108691281Y-95604410D01*
X108709826Y-95635768D01*
X108709829Y-95635772D01*
X108713866Y-95642598D01*
X108728250Y-95656982D01*
X108741091Y-95672016D01*
X108753058Y-95688487D01*
X108759166Y-95693540D01*
X108787255Y-95716777D01*
X108796035Y-95724767D01*
X111642044Y-98570777D01*
X111676070Y-98633089D01*
X111678949Y-98659872D01*
X111678949Y-106099868D01*
X111658947Y-106167989D01*
X111642044Y-106188963D01*
X109449613Y-108381394D01*
X109387301Y-108415420D01*
X109338638Y-108416385D01*
X108496682Y-108267925D01*
X108496680Y-108267925D01*
X108493324Y-108267333D01*
X108479107Y-108266389D01*
X108438792Y-108263711D01*
X108438790Y-108263711D01*
X108430913Y-108263188D01*
X108374696Y-108273658D01*
X108296542Y-108288214D01*
X108296538Y-108288215D01*
X108287718Y-108289858D01*
X108243209Y-108312390D01*
X108165769Y-108351592D01*
X108165766Y-108351594D01*
X108157764Y-108355645D01*
X108051497Y-108455261D01*
X108040346Y-108474154D01*
X107981476Y-108573894D01*
X107981475Y-108573897D01*
X107977460Y-108580699D01*
X107960010Y-108640764D01*
X107916523Y-108887389D01*
X107694524Y-110146410D01*
X107678653Y-110236416D01*
X107674508Y-110298827D01*
X107679450Y-110325359D01*
X107699534Y-110433198D01*
X107699535Y-110433202D01*
X107701178Y-110442022D01*
X107711538Y-110462486D01*
X107762912Y-110563971D01*
X107762914Y-110563974D01*
X107766965Y-110571976D01*
X107773100Y-110578521D01*
X107773101Y-110578522D01*
X107804392Y-110611902D01*
X107866581Y-110678243D01*
X107912565Y-110705384D01*
X107985214Y-110748264D01*
X107985217Y-110748265D01*
X107992019Y-110752280D01*
X108052084Y-110769730D01*
X108055447Y-110770323D01*
X108073402Y-110773489D01*
X108137015Y-110805015D01*
X108173485Y-110865929D01*
X108171233Y-110936890D01*
X108134789Y-110992142D01*
X108129888Y-110996458D01*
X108134513Y-111010927D01*
X108681447Y-111792029D01*
X108693853Y-111801946D01*
X108695685Y-111802135D01*
X108702936Y-111799098D01*
X109488618Y-111248958D01*
X109496993Y-111238481D01*
X109492508Y-111229949D01*
X109478519Y-111160345D01*
X109504382Y-111094226D01*
X109561886Y-111052587D01*
X109625919Y-111047240D01*
X109647736Y-111051087D01*
X109661953Y-111052031D01*
X109702268Y-111054709D01*
X109702270Y-111054709D01*
X109710147Y-111055232D01*
X109766364Y-111044762D01*
X109844518Y-111030206D01*
X109844522Y-111030205D01*
X109853342Y-111028562D01*
X109929771Y-110989871D01*
X109975291Y-110966828D01*
X109975294Y-110966826D01*
X109983296Y-110962775D01*
X110015369Y-110932710D01*
X110083013Y-110869299D01*
X110089563Y-110863159D01*
X110142489Y-110773489D01*
X110159584Y-110744526D01*
X110159585Y-110744523D01*
X110163600Y-110737721D01*
X110181050Y-110677656D01*
X110182102Y-110671693D01*
X110182525Y-110669293D01*
X110214051Y-110605679D01*
X110274964Y-110569209D01*
X110345925Y-110571460D01*
X110404404Y-110611719D01*
X110420806Y-110637920D01*
X110465126Y-110732965D01*
X110465129Y-110732970D01*
X110467452Y-110737952D01*
X110470608Y-110742459D01*
X110470609Y-110742461D01*
X110591801Y-110915541D01*
X110594963Y-110920057D01*
X110752159Y-111077253D01*
X110756667Y-111080410D01*
X110756670Y-111080412D01*
X110851626Y-111146901D01*
X110895954Y-111202358D01*
X110903263Y-111272978D01*
X110871232Y-111336338D01*
X110811967Y-111371821D01*
X110786386Y-111378675D01*
X110699989Y-111401825D01*
X110699987Y-111401826D01*
X110694679Y-111403248D01*
X110689698Y-111405570D01*
X110689697Y-111405571D01*
X110498186Y-111494874D01*
X110498181Y-111494877D01*
X110493199Y-111497200D01*
X110488692Y-111500356D01*
X110488690Y-111500357D01*
X110315605Y-111621552D01*
X110315602Y-111621554D01*
X110311094Y-111624711D01*
X110153898Y-111781907D01*
X110150741Y-111786415D01*
X110150739Y-111786418D01*
X110083875Y-111881910D01*
X110028418Y-111926238D01*
X109957798Y-111933547D01*
X109894438Y-111901516D01*
X109858955Y-111842250D01*
X109828853Y-111729910D01*
X109825104Y-111719610D01*
X109802490Y-111671114D01*
X109793626Y-111661048D01*
X109779157Y-111665673D01*
X108998055Y-112212607D01*
X108988138Y-112225013D01*
X108987949Y-112226845D01*
X108990986Y-112234096D01*
X109541126Y-113019778D01*
X109551603Y-113028153D01*
X109565051Y-113021084D01*
X109602160Y-112983975D01*
X109609214Y-112975568D01*
X109675918Y-112880305D01*
X109731375Y-112835976D01*
X109801994Y-112828667D01*
X109865355Y-112860697D01*
X109900838Y-112919963D01*
X109932435Y-113037884D01*
X109934757Y-113042865D01*
X109934758Y-113042866D01*
X110024061Y-113234377D01*
X110024064Y-113234382D01*
X110026387Y-113239364D01*
X110029543Y-113243871D01*
X110029544Y-113243873D01*
X110143902Y-113407193D01*
X110153898Y-113421469D01*
X110298734Y-113566305D01*
X110332760Y-113628617D01*
X110327695Y-113699432D01*
X110285148Y-113756268D01*
X110218628Y-113781079D01*
X110209639Y-113781400D01*
X105860460Y-113781400D01*
X105860460Y-116179647D01*
X105840458Y-116247768D01*
X105786802Y-116294261D01*
X105716528Y-116304365D01*
X105699338Y-116300653D01*
X105517135Y-116247768D01*
X104501042Y-115952844D01*
X104492014Y-115949849D01*
X104481923Y-115946073D01*
X104477364Y-115944367D01*
X104463106Y-115941424D01*
X104453460Y-115939032D01*
X104446757Y-115937087D01*
X104446755Y-115937087D01*
X104442443Y-115935835D01*
X104426121Y-115933531D01*
X104418263Y-115932167D01*
X103376038Y-115717018D01*
X103354241Y-115710416D01*
X102602708Y-115406227D01*
X101994079Y-115159880D01*
X101973380Y-115149178D01*
X101545219Y-114874856D01*
X101440655Y-114807862D01*
X101394087Y-114754271D01*
X101383886Y-114684011D01*
X101417642Y-114614605D01*
X102885135Y-113082763D01*
X107761931Y-113082763D01*
X107769000Y-113096211D01*
X107806107Y-113133318D01*
X107814515Y-113140374D01*
X107987527Y-113261518D01*
X107997023Y-113267001D01*
X108188455Y-113356267D01*
X108198747Y-113360013D01*
X108402771Y-113414681D01*
X108413566Y-113416584D01*
X108623987Y-113434994D01*
X108634937Y-113434994D01*
X108845358Y-113416584D01*
X108856153Y-113414681D01*
X109060172Y-113360014D01*
X109070476Y-113356264D01*
X109118969Y-113333651D01*
X109129036Y-113324787D01*
X109124411Y-113310319D01*
X108577477Y-112529215D01*
X108565071Y-112519298D01*
X108563239Y-112519109D01*
X108555988Y-112522146D01*
X107770306Y-113072286D01*
X107761931Y-113082763D01*
X102885135Y-113082763D01*
X103763294Y-112166097D01*
X107355090Y-112166097D01*
X107373500Y-112376518D01*
X107375403Y-112387313D01*
X107430070Y-112591334D01*
X107433820Y-112601634D01*
X107456434Y-112650130D01*
X107465298Y-112660196D01*
X107479767Y-112655571D01*
X108260869Y-112108637D01*
X108270786Y-112096231D01*
X108270975Y-112094399D01*
X108267938Y-112087148D01*
X107717798Y-111301466D01*
X107707321Y-111293091D01*
X107693873Y-111300160D01*
X107656764Y-111337269D01*
X107649710Y-111345676D01*
X107528564Y-111518692D01*
X107523086Y-111528178D01*
X107433817Y-111719615D01*
X107430071Y-111729907D01*
X107375403Y-111933931D01*
X107373500Y-111944726D01*
X107355090Y-112155147D01*
X107355090Y-112166097D01*
X103763294Y-112166097D01*
X106945551Y-108844298D01*
X110806919Y-104813609D01*
X110820429Y-104802169D01*
X110825029Y-104797962D01*
X110832438Y-104792909D01*
X110863671Y-104754894D01*
X110870013Y-104747749D01*
X110878193Y-104739210D01*
X110886921Y-104727027D01*
X110891986Y-104720431D01*
X110919203Y-104687305D01*
X110919206Y-104687300D01*
X110924904Y-104680365D01*
X110928426Y-104672110D01*
X110932602Y-104665230D01*
X110936315Y-104658088D01*
X110941544Y-104650790D01*
X110958710Y-104601826D01*
X110961712Y-104594093D01*
X110978542Y-104554650D01*
X110978543Y-104554647D01*
X110982065Y-104546392D01*
X110983129Y-104537477D01*
X110985205Y-104529705D01*
X110986764Y-104521810D01*
X110989735Y-104513336D01*
X110992469Y-104461540D01*
X110993182Y-104453250D01*
X110995292Y-104435571D01*
X110999327Y-104401761D01*
X110997846Y-104392906D01*
X110997657Y-104384846D01*
X110996939Y-104376843D01*
X110997412Y-104367881D01*
X110985499Y-104317404D01*
X110983855Y-104309241D01*
X110980868Y-104291375D01*
X110977373Y-104280833D01*
X110974345Y-104270138D01*
X110966018Y-104234854D01*
X110963956Y-104226117D01*
X110959525Y-104218310D01*
X110956244Y-104209952D01*
X110956514Y-104209846D01*
X110945098Y-104178103D01*
X110942450Y-104163055D01*
X110940895Y-104154215D01*
X110924369Y-104120746D01*
X110924085Y-104120119D01*
X110923837Y-104119369D01*
X110908179Y-104087955D01*
X110876408Y-104023610D01*
X110875748Y-104022892D01*
X110875313Y-104022019D01*
X110869374Y-104015604D01*
X110869372Y-104015601D01*
X110826599Y-103969400D01*
X110826278Y-103969053D01*
X110802174Y-103942820D01*
X110802167Y-103942813D01*
X110800684Y-103941199D01*
X110800071Y-103940709D01*
X110799590Y-103940227D01*
X110782457Y-103921722D01*
X110776359Y-103915135D01*
X110750085Y-103899406D01*
X110736245Y-103889811D01*
X107915812Y-101640578D01*
X106956838Y-100875817D01*
X106933062Y-100850814D01*
X106914563Y-100825060D01*
X106891067Y-100758063D01*
X106907522Y-100689000D01*
X106919144Y-100672053D01*
X107332889Y-100163296D01*
X107343764Y-100151538D01*
X108070616Y-99459549D01*
X108235229Y-99302832D01*
X108236595Y-99301617D01*
X108238126Y-99300535D01*
X108251941Y-99287145D01*
X108264527Y-99274946D01*
X108265340Y-99274165D01*
X108286375Y-99254139D01*
X108286635Y-99253919D01*
X108289151Y-99252545D01*
X108339409Y-99202386D01*
X108340723Y-99201094D01*
X108344699Y-99197240D01*
X108361581Y-99180877D01*
X108363300Y-99178656D01*
X108365289Y-99176556D01*
X108385894Y-99155992D01*
X108385895Y-99155990D01*
X108392248Y-99149650D01*
X108403293Y-99129521D01*
X108414119Y-99113011D01*
X108422670Y-99101966D01*
X108422671Y-99101964D01*
X108428166Y-99094866D01*
X108431447Y-99086513D01*
X108431451Y-99086506D01*
X108439974Y-99064808D01*
X108446787Y-99050263D01*
X108458000Y-99029827D01*
X108462320Y-99021955D01*
X108467271Y-98999539D01*
X108473027Y-98980656D01*
X108478137Y-98967647D01*
X108481419Y-98959292D01*
X108484315Y-98927127D01*
X108486773Y-98911254D01*
X108491801Y-98888491D01*
X108493737Y-98879726D01*
X108492198Y-98856828D01*
X108492422Y-98837087D01*
X108494481Y-98814222D01*
X108492744Y-98805414D01*
X108492744Y-98805410D01*
X108488234Y-98782538D01*
X108486136Y-98766607D01*
X108484574Y-98743353D01*
X108484574Y-98743352D01*
X108483972Y-98734396D01*
X108476069Y-98712852D01*
X108470743Y-98693839D01*
X108468038Y-98680121D01*
X108466302Y-98671316D01*
X108451412Y-98642658D01*
X108444929Y-98627957D01*
X108436905Y-98606082D01*
X108436901Y-98606075D01*
X108433810Y-98597648D01*
X108420177Y-98579186D01*
X108409727Y-98562430D01*
X108399145Y-98542063D01*
X108392936Y-98535578D01*
X108392933Y-98535574D01*
X108376810Y-98518734D01*
X108366463Y-98506447D01*
X108352619Y-98487700D01*
X108352617Y-98487698D01*
X108347284Y-98480476D01*
X108329017Y-98466582D01*
X108314286Y-98453434D01*
X108304621Y-98443339D01*
X108298412Y-98436854D01*
X108270428Y-98420733D01*
X108257052Y-98411846D01*
X108238491Y-98397729D01*
X108238490Y-98397728D01*
X108231350Y-98392298D01*
X108209913Y-98384088D01*
X108192086Y-98375603D01*
X108179981Y-98368630D01*
X108179978Y-98368629D01*
X108172198Y-98364147D01*
X108138665Y-98356007D01*
X108132541Y-98354356D01*
X108131383Y-98354012D01*
X108126834Y-98352270D01*
X108097899Y-98346064D01*
X108094612Y-98345313D01*
X108039372Y-98331903D01*
X108039371Y-98331903D01*
X108030651Y-98329786D01*
X108024992Y-98330049D01*
X108018674Y-98329071D01*
X107159280Y-98144740D01*
X106628637Y-98030923D01*
X106586388Y-98013364D01*
X106023781Y-97647618D01*
X105977570Y-97593720D01*
X105968621Y-97565238D01*
X105890119Y-97147283D01*
X105888390Y-97113555D01*
X106081260Y-94800380D01*
X106085510Y-94776805D01*
X106086446Y-94773470D01*
X106086446Y-94773467D01*
X106088871Y-94764828D01*
X106088400Y-94721420D01*
X106088828Y-94709598D01*
X106089347Y-94703379D01*
X106088128Y-94682765D01*
X106087915Y-94676699D01*
X106087879Y-94673374D01*
X106087292Y-94619179D01*
X106084680Y-94610593D01*
X106084255Y-94607840D01*
X106084182Y-94607156D01*
X106084012Y-94606485D01*
X106083456Y-94603760D01*
X106082926Y-94594796D01*
X106063536Y-94540596D01*
X106061651Y-94534896D01*
X106044898Y-94479827D01*
X106039975Y-94472310D01*
X106038803Y-94469805D01*
X106038536Y-94469157D01*
X106038190Y-94468570D01*
X106036888Y-94466105D01*
X106033864Y-94457650D01*
X106000061Y-94411096D01*
X105996613Y-94406099D01*
X105970012Y-94365481D01*
X105965097Y-94357976D01*
X105958272Y-94352151D01*
X105956431Y-94350061D01*
X105955998Y-94349520D01*
X105955499Y-94349052D01*
X105953557Y-94347050D01*
X105948283Y-94339787D01*
X105902753Y-94304576D01*
X105898055Y-94300758D01*
X105883675Y-94288485D01*
X105883671Y-94288482D01*
X105879967Y-94285321D01*
X105875286Y-94282438D01*
X105864291Y-94274832D01*
X105840163Y-94256173D01*
X105833060Y-94250680D01*
X105824703Y-94247402D01*
X105824701Y-94247401D01*
X105817829Y-94244706D01*
X105797761Y-94234690D01*
X105615637Y-94122520D01*
X105567499Y-94068444D01*
X105527988Y-93983631D01*
X105517352Y-93913435D01*
X105546356Y-93848633D01*
X105557677Y-93836981D01*
X105869199Y-93555187D01*
X105870620Y-93553987D01*
X105872180Y-93552943D01*
X105899311Y-93527953D01*
X105900042Y-93527287D01*
X105925016Y-93504696D01*
X105926220Y-93503248D01*
X105927548Y-93501946D01*
X106074420Y-93366666D01*
X106253668Y-93201566D01*
X106254720Y-93200722D01*
X106255975Y-93200090D01*
X106258864Y-93197396D01*
X106258874Y-93197388D01*
X106312667Y-93147226D01*
X106313236Y-93146698D01*
X106333780Y-93127776D01*
X106334471Y-93126928D01*
X106335029Y-93126373D01*
X106355937Y-93106877D01*
X106355938Y-93106875D01*
X106362503Y-93100754D01*
X106367084Y-93093039D01*
X106367088Y-93093034D01*
X106375608Y-93078685D01*
X106386307Y-93063378D01*
X106396855Y-93050446D01*
X106396855Y-93050445D01*
X106402531Y-93043487D01*
X106414047Y-93016229D01*
X106421773Y-93000936D01*
X106432287Y-92983229D01*
X106436870Y-92975511D01*
X106443253Y-92950654D01*
X106449228Y-92932953D01*
X106459217Y-92909310D01*
X106461846Y-92910421D01*
X106488059Y-92865488D01*
X106708065Y-92651243D01*
X106916927Y-92447851D01*
X106924305Y-92441214D01*
X106935481Y-92431932D01*
X106945861Y-92420175D01*
X106952394Y-92413313D01*
X106961410Y-92404533D01*
X106964143Y-92400985D01*
X106964148Y-92400980D01*
X106970776Y-92392377D01*
X106976130Y-92385887D01*
X107323487Y-91992416D01*
X107340291Y-91976578D01*
X107351825Y-91967552D01*
X107375837Y-91934081D01*
X107382857Y-91925272D01*
X107383473Y-91924466D01*
X107386442Y-91921102D01*
X107398992Y-91901987D01*
X107401915Y-91897730D01*
X107414231Y-91880563D01*
X107414231Y-91880562D01*
X107417064Y-91876614D01*
X107419256Y-91872276D01*
X107421438Y-91868677D01*
X107425698Y-91861312D01*
X107441214Y-91837681D01*
X107441215Y-91837678D01*
X107446141Y-91830176D01*
X107451567Y-91812418D01*
X107459605Y-91792417D01*
X107504173Y-91704208D01*
X107561365Y-91591011D01*
X107567137Y-91580799D01*
X107585604Y-91551407D01*
X107590380Y-91543806D01*
X107606006Y-91488733D01*
X107607833Y-91482848D01*
X107626151Y-91428590D01*
X107626520Y-91419622D01*
X107627155Y-91416197D01*
X107627205Y-91415981D01*
X107627226Y-91415748D01*
X107627689Y-91412315D01*
X107630140Y-91403679D01*
X107629682Y-91346452D01*
X107629784Y-91340266D01*
X107631768Y-91292024D01*
X107632137Y-91283056D01*
X107629973Y-91274341D01*
X107629623Y-91270890D01*
X107629610Y-91270656D01*
X107629568Y-91270444D01*
X107629046Y-91266997D01*
X107628974Y-91258026D01*
X107626386Y-91249430D01*
X107612466Y-91203203D01*
X107610828Y-91197237D01*
X107597035Y-91141691D01*
X107592514Y-91133936D01*
X107591210Y-91130725D01*
X107591133Y-91130507D01*
X107591027Y-91130304D01*
X107589562Y-91127148D01*
X107586974Y-91118555D01*
X107555745Y-91070574D01*
X107552531Y-91065361D01*
X107523669Y-91015860D01*
X107517157Y-91009689D01*
X107514982Y-91006945D01*
X107514861Y-91006776D01*
X107514697Y-91006606D01*
X107512413Y-91003998D01*
X107507518Y-90996478D01*
X107464091Y-90959202D01*
X107459499Y-90955061D01*
X107444732Y-90941069D01*
X107417933Y-90915678D01*
X107409953Y-90911585D01*
X107407105Y-90909568D01*
X107406933Y-90909434D01*
X107406717Y-90909310D01*
X107403806Y-90907456D01*
X107396993Y-90901608D01*
X107388816Y-90897909D01*
X107388813Y-90897907D01*
X107344840Y-90878014D01*
X107339269Y-90875327D01*
X107296317Y-90853296D01*
X107296315Y-90853295D01*
X107288331Y-90849200D01*
X107279518Y-90847510D01*
X107276215Y-90846372D01*
X107276017Y-90846293D01*
X107275787Y-90846238D01*
X107272461Y-90845272D01*
X107264283Y-90841573D01*
X107207607Y-90833565D01*
X107201505Y-90832550D01*
X107171376Y-90826773D01*
X107145280Y-90821769D01*
X107136341Y-90822621D01*
X107136340Y-90822621D01*
X107097861Y-90826289D01*
X107087684Y-90826845D01*
X106108992Y-90840661D01*
X106040595Y-90821623D01*
X105993350Y-90768629D01*
X105982263Y-90730909D01*
X105938828Y-90396630D01*
X105934394Y-90362503D01*
X105935681Y-90322116D01*
X105947358Y-90262336D01*
X106046829Y-89753072D01*
X106060454Y-89715846D01*
X106113038Y-89621581D01*
X106310685Y-89267268D01*
X106325758Y-89245838D01*
X106358891Y-89207846D01*
X106796023Y-88706598D01*
X106828575Y-88679956D01*
X107038414Y-88560313D01*
X107113285Y-88544389D01*
X107203232Y-88553329D01*
X107237843Y-88556770D01*
X107243261Y-88557635D01*
X107247972Y-88559407D01*
X107311504Y-88564206D01*
X107314804Y-88564455D01*
X107317777Y-88564715D01*
X107344932Y-88567414D01*
X107349422Y-88567220D01*
X107349606Y-88567225D01*
X107355560Y-88567533D01*
X107393216Y-88570377D01*
X107412836Y-88566213D01*
X107433550Y-88563586D01*
X107453603Y-88562720D01*
X107462096Y-88559833D01*
X107462097Y-88559833D01*
X107486912Y-88551398D01*
X107501306Y-88547440D01*
X107512026Y-88545165D01*
X107535701Y-88540141D01*
X107543604Y-88535889D01*
X107543607Y-88535888D01*
X107553369Y-88530636D01*
X107572516Y-88522300D01*
X107583013Y-88518732D01*
X107583016Y-88518730D01*
X107591511Y-88515843D01*
X107598851Y-88510690D01*
X107598856Y-88510687D01*
X107620304Y-88495628D01*
X107633006Y-88487791D01*
X107656067Y-88475384D01*
X107656072Y-88475380D01*
X107663972Y-88471130D01*
X107678261Y-88457049D01*
X107694296Y-88443676D01*
X107703373Y-88437303D01*
X107703374Y-88437302D01*
X107710719Y-88432145D01*
X107732680Y-88404661D01*
X107742671Y-88393574D01*
X107761321Y-88375195D01*
X107761324Y-88375191D01*
X107767718Y-88368890D01*
X107777479Y-88351367D01*
X107789116Y-88334033D01*
X107796038Y-88325370D01*
X107796040Y-88325366D01*
X107801645Y-88318352D01*
X107805055Y-88310048D01*
X107805057Y-88310045D01*
X107815006Y-88285818D01*
X107817886Y-88279840D01*
X107817780Y-88279791D01*
X107819811Y-88275375D01*
X107822182Y-88271118D01*
X107831573Y-88245689D01*
X107833216Y-88241475D01*
X107853567Y-88191919D01*
X107856978Y-88183614D01*
X107857760Y-88176205D01*
X107860516Y-88167315D01*
X107902142Y-88054600D01*
X107912856Y-88032499D01*
X107913850Y-88030875D01*
X107913852Y-88030869D01*
X107918536Y-88023214D01*
X107920882Y-88014554D01*
X107920884Y-88014550D01*
X107930297Y-87979804D01*
X107933712Y-87969113D01*
X107936396Y-87961845D01*
X107940413Y-87943142D01*
X107941983Y-87936672D01*
X107942573Y-87934495D01*
X107947803Y-87915190D01*
X107948575Y-87908210D01*
X107950618Y-87895619D01*
X107957348Y-87864275D01*
X107957348Y-87864274D01*
X107959233Y-87855496D01*
X107958461Y-87844925D01*
X107958154Y-87840730D01*
X107958582Y-87817701D01*
X108044089Y-87044310D01*
X108051217Y-87014268D01*
X108347900Y-86215958D01*
X108359720Y-86192187D01*
X108380430Y-86159664D01*
X108588707Y-85832574D01*
X108711513Y-85639714D01*
X108729201Y-85617796D01*
X109200401Y-85151858D01*
X109258520Y-85094389D01*
X109273793Y-85081514D01*
X109614933Y-84837446D01*
X109994922Y-84565584D01*
X110002406Y-84560623D01*
X110038055Y-84538779D01*
X110038057Y-84538777D01*
X110045710Y-84534088D01*
X110079512Y-84496813D01*
X110085746Y-84490411D01*
X110115603Y-84461848D01*
X110122090Y-84455642D01*
X110126575Y-84447864D01*
X110132115Y-84440803D01*
X110132212Y-84440879D01*
X110132602Y-84440345D01*
X110132499Y-84440275D01*
X110137524Y-84432840D01*
X110143556Y-84426188D01*
X110165545Y-84380908D01*
X110169707Y-84373059D01*
X110194848Y-84329458D01*
X110196968Y-84320739D01*
X110200307Y-84312400D01*
X110200422Y-84312446D01*
X110200645Y-84311826D01*
X110200526Y-84311788D01*
X110203262Y-84303241D01*
X110207185Y-84295163D01*
X110215576Y-84245568D01*
X110217377Y-84236818D01*
X110217822Y-84234991D01*
X110229267Y-84187926D01*
X110228855Y-84178961D01*
X110229718Y-84170028D01*
X110229840Y-84170040D01*
X110229881Y-84169374D01*
X110229758Y-84169371D01*
X110229985Y-84160400D01*
X110231483Y-84151547D01*
X110230436Y-84142631D01*
X110230436Y-84142627D01*
X110225617Y-84101591D01*
X110224890Y-84092681D01*
X110222992Y-84051391D01*
X110222580Y-84042422D01*
X110219667Y-84033930D01*
X110217988Y-84025111D01*
X110218109Y-84025088D01*
X110217962Y-84024443D01*
X110217842Y-84024475D01*
X110215542Y-84015798D01*
X110214495Y-84006883D01*
X110194840Y-83960573D01*
X110191648Y-83952241D01*
X110187663Y-83940623D01*
X110175322Y-83904643D01*
X110143708Y-83859881D01*
X110139612Y-83853701D01*
X102821675Y-72072869D01*
X102818655Y-72067741D01*
X101280423Y-69308745D01*
X101270927Y-69287193D01*
X101234354Y-69177352D01*
X101231811Y-69106401D01*
X101268031Y-69045338D01*
X101331515Y-69013552D01*
X101352568Y-69011554D01*
X102189858Y-69002695D01*
X102778961Y-68996462D01*
X102803374Y-68998588D01*
G37*
%TD.AperFunction*%
%TD*%
M02*
