%TF.GenerationSoftware,KiCad,Pcbnew,(6.0.6-0)*%
%TF.CreationDate,2023-03-12T19:28:00-04:00*%
%TF.ProjectId,space_shuttle_SAO,73706163-655f-4736-9875-74746c655f53,v04*%
%TF.SameCoordinates,Original*%
%TF.FileFunction,Legend,Bot*%
%TF.FilePolarity,Positive*%
%FSLAX46Y46*%
G04 Gerber Fmt 4.6, Leading zero omitted, Abs format (unit mm)*
G04 Created by KiCad (PCBNEW (6.0.6-0)) date 2023-03-12 19:28:00*
%MOMM*%
%LPD*%
G01*
G04 APERTURE LIST*
%ADD10C,0.150000*%
%ADD11C,0.400000*%
%ADD12C,0.120000*%
G04 APERTURE END LIST*
D10*
X110448520Y-79928680D02*
X109863411Y-80338378D01*
X109773702Y-80459325D01*
X109750314Y-80591965D01*
X109793247Y-80736300D01*
X109847873Y-80814315D01*
X109083104Y-79722112D02*
X109356236Y-80112184D01*
X110175388Y-79538608D01*
X108642169Y-78926348D02*
X108630475Y-78992669D01*
X108673407Y-79137003D01*
X108728033Y-79215018D01*
X108848980Y-79304726D01*
X108981621Y-79328115D01*
X109086948Y-79312496D01*
X109270290Y-79242250D01*
X109387312Y-79160311D01*
X109516028Y-79012051D01*
X109566729Y-78918417D01*
X109590117Y-78785776D01*
X109547185Y-78641441D01*
X109492559Y-78563427D01*
X109371612Y-78473718D01*
X109305292Y-78462024D01*
X108973609Y-77822289D02*
X108388500Y-78231987D01*
X108298792Y-78352934D01*
X108275403Y-78485574D01*
X108318336Y-78629909D01*
X108372962Y-78707924D01*
X107608193Y-77615721D02*
X107881325Y-78005793D01*
X108700477Y-77432217D01*
X107167258Y-76819957D02*
X107155564Y-76886278D01*
X107198496Y-77030612D01*
X107253122Y-77108627D01*
X107374069Y-77198336D01*
X107506710Y-77221724D01*
X107612038Y-77206105D01*
X107795380Y-77135859D01*
X107912401Y-77053920D01*
X108041117Y-76905660D01*
X108091818Y-76812026D01*
X108115207Y-76679385D01*
X108072274Y-76535051D01*
X108017648Y-76457036D01*
X107896701Y-76367327D01*
X107830381Y-76355633D01*
X107498698Y-75715898D02*
X106913589Y-76125596D01*
X106823881Y-76246543D01*
X106800493Y-76379183D01*
X106843425Y-76523518D01*
X106898051Y-76601533D01*
X106133283Y-75509330D02*
X106406414Y-75899403D01*
X107225566Y-75325826D01*
X105692347Y-74713566D02*
X105680653Y-74779887D01*
X105723585Y-74924222D01*
X105778212Y-75002236D01*
X105899158Y-75091945D01*
X106031799Y-75115333D01*
X106137127Y-75099714D01*
X106320469Y-75029468D01*
X106437491Y-74947529D01*
X106566206Y-74799269D01*
X106616908Y-74705635D01*
X106640296Y-74572994D01*
X106597364Y-74428660D01*
X106542737Y-74350645D01*
X106421791Y-74260937D01*
X106355470Y-74249242D01*
X106023787Y-73609508D02*
X105438679Y-74019205D01*
X105348970Y-74140152D01*
X105325582Y-74272792D01*
X105368514Y-74417127D01*
X105423140Y-74495142D01*
X104658372Y-73402939D02*
X104931503Y-73793012D01*
X105750655Y-73219435D01*
X104217436Y-72607175D02*
X104205742Y-72673496D01*
X104248674Y-72817831D01*
X104303301Y-72895845D01*
X104424247Y-72985554D01*
X104556888Y-73008942D01*
X104662216Y-72993323D01*
X104845558Y-72923077D01*
X104962580Y-72841138D01*
X105091296Y-72692878D01*
X105141997Y-72599244D01*
X105165385Y-72466603D01*
X105122453Y-72322269D01*
X105067826Y-72244254D01*
X104946880Y-72154546D01*
X104880559Y-72142851D01*
X121977165Y-113563177D02*
X122013843Y-113506698D01*
X122097099Y-113440319D01*
X122190256Y-113420518D01*
X122293314Y-113447295D01*
X122349793Y-113483973D01*
X122416172Y-113567229D01*
X122435973Y-113660386D01*
X122409196Y-113763443D01*
X122372518Y-113819923D01*
X122289262Y-113886302D01*
X122196105Y-113906103D01*
X122093047Y-113879326D01*
X122036568Y-113842648D01*
X121957364Y-113470020D02*
X122036568Y-113842648D01*
X121999891Y-113899127D01*
X121953312Y-113909028D01*
X121850255Y-113882250D01*
X121783875Y-113798994D01*
X121734372Y-113566102D01*
X121797827Y-113406565D01*
X121917762Y-113283706D01*
X122094175Y-113197526D01*
X122290389Y-113204502D01*
X122449926Y-113267957D01*
X122572784Y-113387892D01*
X122658965Y-113564305D01*
X122651989Y-113760519D01*
X122588534Y-113920056D01*
X122468599Y-114042914D01*
X122292186Y-114129095D01*
X122095972Y-114122119D01*
X121936435Y-114058663D01*
X120994966Y-114210096D02*
X121098023Y-114236873D01*
X121284337Y-114197271D01*
X121367593Y-114130892D01*
X121404271Y-114074413D01*
X121431048Y-113971355D01*
X121371645Y-113691884D01*
X121305266Y-113608628D01*
X121248787Y-113571950D01*
X121145729Y-113545173D01*
X120959415Y-113584775D01*
X120876159Y-113651155D01*
X120540209Y-113673880D02*
X120445925Y-114375481D01*
X120074425Y-113772886D02*
X120445925Y-114375481D01*
X120588584Y-114588572D01*
X120645063Y-114625250D01*
X120748121Y-114652028D01*
X119840405Y-114504189D02*
X119632493Y-113526041D01*
X119711697Y-113898669D02*
X119608640Y-113871891D01*
X119422326Y-113911493D01*
X119339070Y-113977873D01*
X119302392Y-114034352D01*
X119275615Y-114137409D01*
X119335018Y-114416880D01*
X119401397Y-114500137D01*
X119457876Y-114536814D01*
X119560934Y-114563592D01*
X119747248Y-114523990D01*
X119830504Y-114457610D01*
X118572886Y-114724925D02*
X118675943Y-114751702D01*
X118862257Y-114712100D01*
X118945513Y-114645721D01*
X118972291Y-114542663D01*
X118893086Y-114170035D01*
X118826707Y-114086779D01*
X118723649Y-114060002D01*
X118537335Y-114099604D01*
X118454079Y-114165984D01*
X118427302Y-114269041D01*
X118447103Y-114362198D01*
X118932689Y-114356349D01*
X118117002Y-114870509D02*
X117978394Y-114218411D01*
X118017996Y-114404725D02*
X117951617Y-114321468D01*
X117895138Y-114284790D01*
X117792080Y-114258013D01*
X117698923Y-114277814D01*
X117512609Y-114317416D02*
X117139982Y-114396621D01*
X117303570Y-114021069D02*
X117481780Y-114859481D01*
X117455003Y-114962538D01*
X117371746Y-115028918D01*
X117278590Y-115048719D01*
X116570012Y-115150649D02*
X116673070Y-115177426D01*
X116859383Y-115137824D01*
X116942640Y-115071445D01*
X116969417Y-114968387D01*
X116890213Y-114595759D01*
X116823833Y-114512503D01*
X116720776Y-114485726D01*
X116534462Y-114525328D01*
X116451205Y-114591708D01*
X116424428Y-114694765D01*
X116444229Y-114787922D01*
X116929815Y-114782073D01*
X116150806Y-115239754D02*
X116067550Y-115306134D01*
X115881236Y-115345736D01*
X115778178Y-115318958D01*
X115711799Y-115235702D01*
X115701898Y-115189124D01*
X115728676Y-115086066D01*
X115811932Y-115019687D01*
X115951667Y-114989985D01*
X116034924Y-114923605D01*
X116061701Y-114820548D01*
X116051800Y-114773969D01*
X115985421Y-114690713D01*
X115882363Y-114663936D01*
X115742628Y-114693637D01*
X115659372Y-114760017D01*
X115323422Y-114782742D02*
X114950794Y-114861947D01*
X115114383Y-114486395D02*
X115292593Y-115324807D01*
X115265815Y-115427865D01*
X115182559Y-115494244D01*
X115089402Y-115514045D01*
X114624745Y-114931251D02*
X114832657Y-115909398D01*
X114634646Y-114977829D02*
X114531588Y-114951052D01*
X114345274Y-114990654D01*
X114262018Y-115057034D01*
X114225340Y-115113513D01*
X114198563Y-115216570D01*
X114257966Y-115496041D01*
X114324346Y-115579297D01*
X114380825Y-115615975D01*
X114483882Y-115642753D01*
X114670196Y-115603150D01*
X114753452Y-115536771D01*
X113878362Y-115771460D02*
X113739754Y-115119361D01*
X113670450Y-114793312D02*
X113726930Y-114829990D01*
X113690252Y-114886469D01*
X113633773Y-114849791D01*
X113670450Y-114793312D01*
X113690252Y-114886469D01*
X113272842Y-115900167D02*
X113356099Y-115833787D01*
X113382876Y-115730730D01*
X113204666Y-114892318D01*
X112760479Y-116009073D02*
X112843736Y-115942694D01*
X112880413Y-115886215D01*
X112907191Y-115783157D01*
X112847787Y-115503686D01*
X112781408Y-115420430D01*
X112724929Y-115383752D01*
X112621871Y-115356975D01*
X112482136Y-115386676D01*
X112398880Y-115453056D01*
X112362202Y-115509535D01*
X112335424Y-115612592D01*
X112394828Y-115892063D01*
X112461207Y-115975320D01*
X112517686Y-116011997D01*
X112620744Y-116038775D01*
X112760479Y-116009073D01*
X112016351Y-115485682D02*
X111643724Y-115564886D01*
X111807312Y-115189334D02*
X111985522Y-116027747D01*
X111958745Y-116130804D01*
X111875489Y-116197184D01*
X111782332Y-116216985D01*
D11*
X167440885Y-116376897D02*
X167622802Y-115345194D01*
X167749669Y-115174150D01*
X167953789Y-115113434D01*
X168328954Y-115179586D01*
X168499999Y-115306453D01*
X167457423Y-116283106D02*
X167628467Y-116409973D01*
X168097423Y-116492663D01*
X168301543Y-116431947D01*
X168428411Y-116260903D01*
X168461486Y-116073321D01*
X168400771Y-115869200D01*
X168229726Y-115742333D01*
X167760770Y-115659644D01*
X167589726Y-115532776D01*
X165769181Y-115985424D02*
X165940225Y-116112291D01*
X166315390Y-116178442D01*
X166519510Y-116117727D01*
X166646377Y-115946682D01*
X166778681Y-115196353D01*
X166717965Y-114992232D01*
X166546921Y-114865365D01*
X166171756Y-114799214D01*
X165967636Y-114859929D01*
X165840769Y-115030974D01*
X165807693Y-115218556D01*
X166712529Y-115571518D01*
X164814731Y-115913836D02*
X165046262Y-114600759D01*
X164980110Y-114975923D02*
X164919394Y-114771803D01*
X164842141Y-114661474D01*
X164671097Y-114534607D01*
X164483514Y-114501531D01*
X163314071Y-115649229D02*
X163518192Y-115588513D01*
X163628521Y-115511260D01*
X163755388Y-115340216D01*
X163854615Y-114777468D01*
X163793900Y-114573348D01*
X163716647Y-114463019D01*
X163545602Y-114336152D01*
X163264228Y-114286538D01*
X163060108Y-114347253D01*
X162949779Y-114424507D01*
X162822912Y-114595551D01*
X162723684Y-115158299D01*
X162784400Y-115362419D01*
X162861653Y-115472748D01*
X163032698Y-115599615D01*
X163314071Y-115649229D01*
X161923741Y-115307369D02*
X161719621Y-115368084D01*
X161344456Y-115301932D01*
X161173411Y-115175065D01*
X161112696Y-114970945D01*
X161129234Y-114877154D01*
X161256101Y-114706109D01*
X161460221Y-114645394D01*
X161741595Y-114695008D01*
X161945715Y-114634292D01*
X162072582Y-114463248D01*
X162089120Y-114369457D01*
X162028405Y-114165336D01*
X161857360Y-114038469D01*
X161575987Y-113988855D01*
X161371866Y-114049571D01*
X160450492Y-113790400D02*
X160103196Y-115760016D01*
X160433954Y-113884192D02*
X160262910Y-113757325D01*
X159887745Y-113691173D01*
X159683624Y-113751888D01*
X159573295Y-113829142D01*
X159446428Y-114000186D01*
X159347201Y-114562933D01*
X159407916Y-114767054D01*
X159485169Y-114877383D01*
X159656214Y-115004250D01*
X160031379Y-115070402D01*
X160235499Y-115009686D01*
X157592807Y-114640416D02*
X157774724Y-113608712D01*
X157901591Y-113437668D01*
X158105712Y-113376952D01*
X158480876Y-113443104D01*
X158651921Y-113569971D01*
X157609345Y-114546624D02*
X157780390Y-114673491D01*
X158249346Y-114756181D01*
X158453466Y-114695466D01*
X158580333Y-114524421D01*
X158613409Y-114336839D01*
X158552693Y-114132718D01*
X158381649Y-114005851D01*
X157912693Y-113923162D01*
X157741648Y-113796295D01*
X155827312Y-114232404D02*
X155998356Y-114359271D01*
X156373521Y-114425423D01*
X156577642Y-114364707D01*
X156687971Y-114287454D01*
X156814838Y-114116409D01*
X156914065Y-113553662D01*
X156853350Y-113349542D01*
X156776097Y-113239213D01*
X156605052Y-113112346D01*
X156229887Y-113046194D01*
X156025767Y-113106909D01*
X154232861Y-113951259D02*
X154403906Y-114078126D01*
X154779071Y-114144278D01*
X154983191Y-114083563D01*
X155110058Y-113912518D01*
X155242361Y-113162188D01*
X155181646Y-112958068D01*
X155010602Y-112831201D01*
X154635437Y-112765049D01*
X154431316Y-112825765D01*
X154304449Y-112996809D01*
X154271373Y-113184392D01*
X155176210Y-113537353D01*
X153697525Y-112599670D02*
X152997038Y-113830057D01*
X152759612Y-112434291D01*
X151777752Y-113615064D02*
X152009283Y-112301987D01*
X152125048Y-111645449D02*
X152202301Y-111755778D01*
X152091972Y-111833031D01*
X152014719Y-111722702D01*
X152125048Y-111645449D01*
X152091972Y-111833031D01*
X150558466Y-113400072D02*
X150762586Y-113339356D01*
X150889453Y-113168312D01*
X151187136Y-111480070D01*
X149526763Y-113218154D02*
X149730883Y-113157439D01*
X149857750Y-112986394D01*
X150155433Y-111298153D01*
X147932312Y-112937010D02*
X148114229Y-111905306D01*
X148241096Y-111734262D01*
X148445217Y-111673546D01*
X148820381Y-111739698D01*
X148991426Y-111866565D01*
X147948850Y-112843218D02*
X148119894Y-112970086D01*
X148588850Y-113052775D01*
X148792971Y-112992060D01*
X148919838Y-112821015D01*
X148952914Y-112633433D01*
X148892198Y-112429312D01*
X148721154Y-112302445D01*
X148252198Y-112219756D01*
X148081153Y-112092889D01*
X146381810Y-111309712D02*
X146100665Y-112904163D01*
X146161381Y-113108283D01*
X146238634Y-113218612D01*
X146409678Y-113345479D01*
X146691052Y-113395093D01*
X146895172Y-113334378D01*
X146166817Y-112528998D02*
X146337861Y-112655865D01*
X146713026Y-112722017D01*
X146917147Y-112661301D01*
X147027476Y-112584048D01*
X147154343Y-112413004D01*
X147253570Y-111850256D01*
X147192855Y-111646136D01*
X147115602Y-111535807D01*
X146944557Y-111408940D01*
X146569392Y-111342788D01*
X146365272Y-111403503D01*
X144478575Y-112231315D02*
X144649619Y-112358182D01*
X145024784Y-112424334D01*
X145228905Y-112363619D01*
X145355772Y-112192574D01*
X145488075Y-111442245D01*
X145427360Y-111238124D01*
X145256315Y-111111257D01*
X144881150Y-111045105D01*
X144677030Y-111105821D01*
X144550163Y-111276865D01*
X144517087Y-111464448D01*
X145421923Y-111817409D01*
X143557201Y-111972145D02*
X143446872Y-112049398D01*
X143524125Y-112159727D01*
X143634454Y-112082474D01*
X143557201Y-111972145D01*
X143524125Y-112159727D01*
X142304839Y-111944734D02*
X142508959Y-111884019D01*
X142619289Y-111806766D01*
X142746156Y-111635721D01*
X142845383Y-111072974D01*
X142784668Y-110868854D01*
X142707415Y-110758524D01*
X142536370Y-110631657D01*
X142254996Y-110582044D01*
X142050876Y-110642759D01*
X141940547Y-110720012D01*
X141813680Y-110891057D01*
X141714452Y-111453804D01*
X141775168Y-111657924D01*
X141852421Y-111768254D01*
X142023465Y-111895121D01*
X142304839Y-111944734D01*
X140804180Y-111680128D02*
X141035711Y-110367051D01*
X140969559Y-110742216D02*
X140908844Y-110538095D01*
X140831590Y-110427766D01*
X140660546Y-110300899D01*
X140472963Y-110267823D01*
X138972304Y-110003216D02*
X138691159Y-111597667D01*
X138751875Y-111801787D01*
X138829128Y-111912117D01*
X139000172Y-112038984D01*
X139281546Y-112088597D01*
X139485666Y-112027882D01*
X138757311Y-111222502D02*
X138928355Y-111349369D01*
X139303520Y-111415521D01*
X139507641Y-111354806D01*
X139617970Y-111277552D01*
X139744837Y-111106508D01*
X139844064Y-110543760D01*
X139783349Y-110339640D01*
X139706096Y-110229311D01*
X139535051Y-110102444D01*
X139159886Y-110036292D01*
X138955766Y-110097008D01*
D10*
X120328134Y-97618629D02*
X120177606Y-97614516D01*
X119953869Y-97533083D01*
X119880661Y-97455762D01*
X119852201Y-97394728D01*
X119840027Y-97288947D01*
X119872600Y-97199453D01*
X119949921Y-97126245D01*
X120010955Y-97097784D01*
X120116736Y-97085610D01*
X120312012Y-97106010D01*
X120417793Y-97093836D01*
X120478827Y-97065375D01*
X120556147Y-96992167D01*
X120588721Y-96902673D01*
X120576547Y-96796892D01*
X120548086Y-96735858D01*
X120474878Y-96658537D01*
X120251142Y-96577104D01*
X120100614Y-96572991D01*
X119514622Y-97069159D02*
X119067149Y-96906293D01*
X119506396Y-97370216D02*
X119535186Y-96316517D01*
X118879935Y-97142203D01*
X118729735Y-96023357D02*
X118550746Y-95958210D01*
X118444965Y-95970384D01*
X118322897Y-96027305D01*
X118213003Y-96190008D01*
X118098996Y-96503239D01*
X118078597Y-96698514D01*
X118135518Y-96820582D01*
X118208726Y-96897903D01*
X118387715Y-96963049D01*
X118493496Y-96950876D01*
X118615564Y-96893954D01*
X118725458Y-96731252D01*
X118839465Y-96418021D01*
X118859864Y-96222745D01*
X118802943Y-96100677D01*
X118729735Y-96023357D01*
X117342570Y-95518470D02*
X116687319Y-96344156D01*
X116716108Y-95290457D01*
X116093430Y-96026648D02*
X116032396Y-96055109D01*
X116060857Y-96116142D01*
X116121891Y-96087682D01*
X116093430Y-96026648D01*
X116060857Y-96116142D01*
X115121164Y-95774122D02*
X115658131Y-95969562D01*
X115389648Y-95871842D02*
X115731668Y-94932150D01*
X115772303Y-95098965D01*
X115829224Y-95221033D01*
X115902432Y-95298353D01*
X114751012Y-95538048D02*
X114689978Y-95566508D01*
X114718439Y-95627542D01*
X114779473Y-95599082D01*
X114751012Y-95538048D01*
X114718439Y-95627542D01*
X114210261Y-94378403D02*
X114389250Y-94443550D01*
X114462458Y-94520870D01*
X114490918Y-94581904D01*
X114531553Y-94748719D01*
X114511154Y-94943995D01*
X114380860Y-95301973D01*
X114303540Y-95375181D01*
X114242506Y-95403642D01*
X114136724Y-95415816D01*
X113957735Y-95350669D01*
X113884527Y-95273348D01*
X113856067Y-95212314D01*
X113843893Y-95106533D01*
X113925326Y-94882797D01*
X114002647Y-94809589D01*
X114063681Y-94781128D01*
X114169462Y-94768954D01*
X114348451Y-94834101D01*
X114421659Y-94911422D01*
X114450120Y-94972456D01*
X114462294Y-95078237D01*
X113331274Y-95122655D02*
X113152284Y-95057509D01*
X113079077Y-94980188D01*
X113050616Y-94919154D01*
X113009982Y-94752339D01*
X113030381Y-94557063D01*
X113160674Y-94199085D01*
X113237995Y-94125877D01*
X113299029Y-94097417D01*
X113404810Y-94085243D01*
X113583799Y-94150389D01*
X113657007Y-94227710D01*
X113685468Y-94288744D01*
X113697642Y-94394525D01*
X113616208Y-94618262D01*
X113538888Y-94691469D01*
X113477854Y-94719930D01*
X113372072Y-94732104D01*
X113193083Y-94666957D01*
X113119875Y-94589637D01*
X113091415Y-94528603D01*
X113079241Y-94422821D01*
%TO.C,D1*%
X170890368Y-110413132D02*
X170183262Y-109706025D01*
X170014903Y-109874384D01*
X169947559Y-110009071D01*
X169947559Y-110143758D01*
X169981231Y-110244773D01*
X170082246Y-110413132D01*
X170183262Y-110514147D01*
X170351620Y-110615163D01*
X170452636Y-110648834D01*
X170587323Y-110648834D01*
X170722010Y-110581491D01*
X170890368Y-110413132D01*
X169812872Y-111490628D02*
X170216933Y-111086567D01*
X170014903Y-111288598D02*
X169307796Y-110581491D01*
X169476155Y-110615163D01*
X169610842Y-110615163D01*
X169711857Y-110581491D01*
%TO.C,R1*%
X162442472Y-111194057D02*
X161870052Y-111295072D01*
X162038411Y-110789996D02*
X161331304Y-111497102D01*
X161600678Y-111766477D01*
X161701693Y-111800148D01*
X161769037Y-111800148D01*
X161870052Y-111766477D01*
X161971067Y-111665461D01*
X162004739Y-111564446D01*
X162004739Y-111497102D01*
X161971067Y-111396087D01*
X161701693Y-111126713D01*
X163115907Y-111867492D02*
X162711846Y-111463431D01*
X162913877Y-111665461D02*
X162206770Y-112372568D01*
X162240442Y-112204209D01*
X162240442Y-112069522D01*
X162206770Y-111968507D01*
%TO.C,SW1*%
X109887560Y-88389018D02*
X110022247Y-88456361D01*
X110190606Y-88624720D01*
X110224278Y-88725735D01*
X110224278Y-88793079D01*
X110190606Y-88894094D01*
X110123263Y-88961437D01*
X110022247Y-88995109D01*
X109954904Y-88995109D01*
X109853889Y-88961437D01*
X109685530Y-88860422D01*
X109584515Y-88826750D01*
X109517171Y-88826750D01*
X109416156Y-88860422D01*
X109348812Y-88927766D01*
X109315141Y-89028781D01*
X109315141Y-89096124D01*
X109348812Y-89197140D01*
X109517171Y-89365498D01*
X109651858Y-89432842D01*
X109853889Y-89702216D02*
X110729354Y-89163468D01*
X110358965Y-89803231D01*
X110998728Y-89432842D01*
X110459980Y-90308307D01*
X111806850Y-90240964D02*
X111402789Y-89836903D01*
X111604820Y-90038933D02*
X110897713Y-90746040D01*
X110931385Y-90577681D01*
X110931385Y-90442994D01*
X110897713Y-90341979D01*
X114216118Y-80636538D02*
X114168977Y-80730819D01*
X114051126Y-80848670D01*
X113980415Y-80872241D01*
X113933275Y-80872241D01*
X113862564Y-80848670D01*
X113815424Y-80801530D01*
X113791853Y-80730819D01*
X113791853Y-80683679D01*
X113815424Y-80612968D01*
X113886134Y-80495117D01*
X113909705Y-80424406D01*
X113909705Y-80377266D01*
X113886134Y-80306555D01*
X113838994Y-80259415D01*
X113768283Y-80235844D01*
X113721143Y-80235844D01*
X113650432Y-80259415D01*
X113532581Y-80377266D01*
X113485441Y-80471547D01*
X113626862Y-80990092D02*
X113391160Y-81225794D01*
X113815424Y-81084373D02*
X113155457Y-80754389D01*
X113485441Y-81414356D01*
X112731193Y-81178653D02*
X112636912Y-81272934D01*
X112613342Y-81343645D01*
X112613342Y-81437926D01*
X112684053Y-81555777D01*
X112849044Y-81720769D01*
X112966896Y-81791479D01*
X113061176Y-81791479D01*
X113131887Y-81767909D01*
X113226168Y-81673628D01*
X113249738Y-81602918D01*
X113249738Y-81508637D01*
X113179028Y-81390786D01*
X113014036Y-81225794D01*
X112896185Y-81155083D01*
X112801904Y-81155083D01*
X112731193Y-81178653D01*
X112966896Y-82027182D02*
X112589772Y-82404305D01*
X112424780Y-82475016D02*
X111929806Y-81980041D01*
X111741244Y-82168603D01*
X111717674Y-82239314D01*
X111717674Y-82286454D01*
X111741244Y-82357165D01*
X111811955Y-82427875D01*
X111882665Y-82451446D01*
X111929806Y-82451446D01*
X112000516Y-82427875D01*
X112189078Y-82239314D01*
X111481971Y-82427875D02*
X111859095Y-83040701D01*
X111411261Y-82781429D01*
X111670533Y-83229263D01*
X111057707Y-82852140D01*
X111081278Y-83818519D02*
X111010567Y-83417825D01*
X111364120Y-83535676D02*
X110869145Y-83040701D01*
X110680584Y-83229263D01*
X110657013Y-83299974D01*
X110657013Y-83347114D01*
X110680584Y-83417825D01*
X110751294Y-83488536D01*
X110822005Y-83512106D01*
X110869145Y-83512106D01*
X110939856Y-83488536D01*
X111128418Y-83299974D01*
X119988311Y-86574961D02*
X119941171Y-86669242D01*
X119941171Y-86716382D01*
X119964741Y-86787093D01*
X120035452Y-86857804D01*
X120106162Y-86881374D01*
X120153303Y-86881374D01*
X120224014Y-86857804D01*
X120412575Y-86669242D01*
X119917601Y-86174267D01*
X119752609Y-86339259D01*
X119729039Y-86409969D01*
X119729039Y-86457110D01*
X119752609Y-86527821D01*
X119799749Y-86574961D01*
X119870460Y-86598531D01*
X119917601Y-86598531D01*
X119988311Y-86574961D01*
X120153303Y-86409969D01*
X119705469Y-87376349D02*
X119446196Y-87117076D01*
X119422626Y-87046366D01*
X119446196Y-86975655D01*
X119540477Y-86881374D01*
X119611188Y-86857804D01*
X119681898Y-87352779D02*
X119752609Y-87329208D01*
X119870460Y-87211357D01*
X119894030Y-87140646D01*
X119870460Y-87069936D01*
X119823320Y-87022795D01*
X119752609Y-86999225D01*
X119681898Y-87022795D01*
X119564047Y-87140646D01*
X119493337Y-87164217D01*
X119210494Y-87211357D02*
X119021932Y-87399919D01*
X118974792Y-87117076D02*
X119399056Y-87541340D01*
X119422626Y-87612051D01*
X119399056Y-87682762D01*
X119351915Y-87729902D01*
X118927651Y-87494200D02*
X118739089Y-87682762D01*
X118691949Y-87399919D02*
X119116213Y-87824183D01*
X119139783Y-87894894D01*
X119116213Y-87965604D01*
X119069072Y-88012745D01*
X118691949Y-88342728D02*
X118762660Y-88319158D01*
X118856940Y-88224877D01*
X118880511Y-88154166D01*
X118856940Y-88083456D01*
X118668379Y-87894894D01*
X118597668Y-87871323D01*
X118526957Y-87894894D01*
X118432676Y-87989175D01*
X118409106Y-88059885D01*
X118432676Y-88130596D01*
X118479817Y-88177736D01*
X118762660Y-87989175D01*
X118479817Y-88602001D02*
X118149834Y-88272017D01*
X118244115Y-88366298D02*
X118173404Y-88342728D01*
X118126263Y-88342728D01*
X118055553Y-88366298D01*
X118008412Y-88413439D01*
X117890561Y-88531290D02*
X118102693Y-88979124D01*
X117654859Y-88766992D02*
X118102693Y-88979124D01*
X118267685Y-89049835D01*
X118314825Y-89049835D01*
X118385536Y-89026265D01*
X117419157Y-89662661D02*
X116924182Y-89167686D01*
X116735620Y-89356248D01*
X116712050Y-89426958D01*
X116712050Y-89474099D01*
X116735620Y-89544810D01*
X116806331Y-89615520D01*
X116877041Y-89639090D01*
X116924182Y-89639090D01*
X116994893Y-89615520D01*
X117183454Y-89426958D01*
X116476348Y-89615520D02*
X116853471Y-90228346D01*
X116405637Y-89969074D01*
X116664909Y-90416908D01*
X116052084Y-90039784D01*
X116075654Y-91006164D02*
X116004943Y-90605470D01*
X116358496Y-90723321D02*
X115863522Y-90228346D01*
X115674960Y-90416908D01*
X115651390Y-90487619D01*
X115651390Y-90534759D01*
X115674960Y-90605470D01*
X115745671Y-90676180D01*
X115816381Y-90699751D01*
X115863522Y-90699751D01*
X115934232Y-90676180D01*
X116122794Y-90487619D01*
D11*
%TO.C,D1*%
X165359722Y-103057380D02*
G75*
G03*
X165359722Y-103057380I-199999J0D01*
G01*
D12*
%TO.C,R1*%
X162369797Y-110474211D02*
X163398021Y-111502435D01*
X163656731Y-109187277D02*
X164684955Y-110215501D01*
%TO.C,svg2mod*%
G36*
X138912307Y-95799322D02*
G01*
X138846565Y-95804370D01*
X138561974Y-95807370D01*
X138415129Y-95799509D01*
X138276157Y-95792070D01*
X137990114Y-95758003D01*
X137989841Y-95757970D01*
X137703756Y-95704970D01*
X137418637Y-95632870D01*
X137103107Y-95520570D01*
X136747313Y-95359770D01*
X136397723Y-95173330D01*
X136100798Y-94984170D01*
X135815829Y-94751430D01*
X135507270Y-94454450D01*
X135220995Y-94140330D01*
X135002879Y-93856200D01*
X134773553Y-93468780D01*
X134577801Y-93049170D01*
X134420995Y-92610470D01*
X134308508Y-92165820D01*
X134265018Y-91796180D01*
X134260844Y-91662370D01*
X134972897Y-91662370D01*
X134976497Y-91782720D01*
X135014577Y-91986310D01*
X135072217Y-92258820D01*
X135148657Y-92523450D01*
X135243727Y-92779890D01*
X135357273Y-93027850D01*
X135489139Y-93267000D01*
X135639161Y-93497050D01*
X135807184Y-93717680D01*
X135993046Y-93928580D01*
X136330459Y-94241370D01*
X136709084Y-94514360D01*
X137112087Y-94736860D01*
X137522633Y-94898160D01*
X137883398Y-94999820D01*
X137990114Y-95022620D01*
X137977400Y-95006150D01*
X139362421Y-95006150D01*
X139400441Y-95011150D01*
X139666657Y-94940250D01*
X140168759Y-94749850D01*
X140636659Y-94498080D01*
X141052309Y-94196280D01*
X141234899Y-94030160D01*
X141397659Y-93855790D01*
X141552925Y-93674090D01*
X141480575Y-93548380D01*
X141103225Y-92978030D01*
X140798221Y-92533380D01*
X140798201Y-92533070D01*
X140709031Y-92766210D01*
X140512857Y-93209820D01*
X140482834Y-93265388D01*
X140252737Y-93691260D01*
X139943340Y-94185410D01*
X139599336Y-94667140D01*
X139369321Y-94976950D01*
X139362421Y-95006150D01*
X137977400Y-95006150D01*
X137736305Y-94693820D01*
X137445659Y-94299520D01*
X137189444Y-93914440D01*
X136967150Y-93537470D01*
X136778266Y-93167530D01*
X136622281Y-92803540D01*
X136498682Y-92444390D01*
X136406962Y-92089020D01*
X136346602Y-91736310D01*
X136327433Y-91586090D01*
X136816567Y-91586090D01*
X136855987Y-91832210D01*
X136916877Y-92131200D01*
X137004757Y-92433570D01*
X137120827Y-92741700D01*
X137266280Y-93058010D01*
X137442314Y-93384880D01*
X137650129Y-93724690D01*
X138165887Y-94452750D01*
X138415129Y-94762560D01*
X138427629Y-93174320D01*
X138427629Y-91586090D01*
X136816567Y-91586090D01*
X136327433Y-91586090D01*
X136327372Y-91585610D01*
X135646298Y-91585610D01*
X135205030Y-91585150D01*
X135205154Y-91585070D01*
X135037797Y-91603670D01*
X134994667Y-91626670D01*
X134972897Y-91662370D01*
X134260844Y-91662370D01*
X134258404Y-91584140D01*
X138904382Y-91584140D01*
X138904407Y-91584840D01*
X138904407Y-93173790D01*
X138912307Y-94761780D01*
X139246442Y-94322560D01*
X139684311Y-93698470D01*
X139879451Y-93374080D01*
X140054481Y-93039800D01*
X140203418Y-92707910D01*
X140320278Y-92390730D01*
X140436607Y-92030690D01*
X140280380Y-91816290D01*
X140158206Y-91648820D01*
X140968845Y-91648820D01*
X141074325Y-91849680D01*
X141327928Y-92244410D01*
X141799015Y-92962330D01*
X141911017Y-93147170D01*
X141997307Y-92954880D01*
X142116703Y-92662130D01*
X142212353Y-92369180D01*
X142283883Y-92077300D01*
X142330923Y-91787740D01*
X142355193Y-91586090D01*
X142355189Y-91585620D01*
X141662020Y-91585620D01*
X141064445Y-91594620D01*
X140983035Y-91613420D01*
X140968895Y-91648695D01*
X140968845Y-91648820D01*
X140158206Y-91648820D01*
X140124152Y-91602140D01*
X139514144Y-91593140D01*
X138904407Y-91584140D01*
X138904382Y-91584140D01*
X134258404Y-91584140D01*
X134250518Y-91331320D01*
X134260284Y-91018220D01*
X134965551Y-91018220D01*
X134981391Y-91051220D01*
X135064541Y-91069020D01*
X135646466Y-91078020D01*
X136327377Y-91078020D01*
X136327383Y-91077980D01*
X136816729Y-91077980D01*
X138427795Y-91077980D01*
X138427795Y-90054530D01*
X138904407Y-90054530D01*
X138904407Y-91077910D01*
X139301465Y-91077910D01*
X139698523Y-91061110D01*
X139301465Y-90549410D01*
X138904407Y-90054530D01*
X138427795Y-90054530D01*
X138427795Y-89490710D01*
X138403883Y-89463019D01*
X138144902Y-89163110D01*
X138098195Y-89109610D01*
X138904311Y-89109610D01*
X139025928Y-89243970D01*
X139516504Y-89825090D01*
X140109426Y-90569260D01*
X140460244Y-91011390D01*
X140482834Y-91025990D01*
X140489834Y-91012090D01*
X140477674Y-90918690D01*
X140394014Y-90524140D01*
X140260302Y-90108390D01*
X140081210Y-89683960D01*
X139861418Y-89263400D01*
X139439235Y-88610800D01*
X139017068Y-88044100D01*
X138906806Y-87916960D01*
X138906711Y-87916990D01*
X138904311Y-89109610D01*
X138098195Y-89109610D01*
X137897470Y-88879690D01*
X137825500Y-88814190D01*
X137784224Y-88798757D01*
X137773080Y-88794590D01*
X137773079Y-88794650D01*
X137738669Y-88808750D01*
X137704059Y-88846650D01*
X137613009Y-88986700D01*
X137349680Y-89440390D01*
X137127908Y-89916800D01*
X136959951Y-90386200D01*
X136858069Y-90818880D01*
X136816729Y-91077980D01*
X136327383Y-91077980D01*
X136348287Y-90927080D01*
X136429747Y-90482230D01*
X136541046Y-90069030D01*
X136658492Y-89768970D01*
X136831049Y-89400100D01*
X137028231Y-89023860D01*
X137219554Y-88701680D01*
X137411353Y-88367350D01*
X137356123Y-88285150D01*
X137324208Y-88250810D01*
X138133970Y-88250810D01*
X138257029Y-88390450D01*
X138403883Y-88533460D01*
X138420693Y-88442160D01*
X138427693Y-88218590D01*
X138415683Y-87901090D01*
X138415676Y-87901090D01*
X138415661Y-87901100D01*
X138268807Y-88075830D01*
X138133970Y-88250810D01*
X137324208Y-88250810D01*
X137223398Y-88142340D01*
X137035685Y-87956550D01*
X137035680Y-87956160D01*
X136826817Y-88072730D01*
X136550790Y-88246560D01*
X136288541Y-88450410D01*
X136042789Y-88680960D01*
X135816252Y-88934880D01*
X135611649Y-89208830D01*
X135431698Y-89499490D01*
X135279117Y-89803540D01*
X135156624Y-90117630D01*
X135029331Y-90607940D01*
X134965551Y-91018220D01*
X134260284Y-91018220D01*
X134265018Y-90866470D01*
X134308508Y-90496830D01*
X134419643Y-90052560D01*
X134572339Y-89624220D01*
X134766472Y-89212110D01*
X135001917Y-88816540D01*
X135245448Y-88499540D01*
X135561852Y-88158170D01*
X135902091Y-87841580D01*
X136033935Y-87740030D01*
X137633524Y-87740030D01*
X137708994Y-87833330D01*
X137784224Y-87904030D01*
X137890459Y-87770160D01*
X137968585Y-87671480D01*
X139366460Y-87671480D01*
X139396330Y-87724580D01*
X139599147Y-87995900D01*
X139955146Y-88494600D01*
X140270818Y-88999860D01*
X140532344Y-89487930D01*
X140725908Y-89935050D01*
X140889945Y-90504200D01*
X140946885Y-90782720D01*
X140968895Y-90978890D01*
X140968895Y-91077190D01*
X142355235Y-91077190D01*
X142329275Y-90860390D01*
X142243225Y-90400410D01*
X142099169Y-89956050D01*
X141901352Y-89533260D01*
X141654015Y-89138000D01*
X141361401Y-88776220D01*
X141027754Y-88453850D01*
X140657318Y-88176860D01*
X140254333Y-87951200D01*
X139841174Y-87787210D01*
X139433538Y-87663980D01*
X139374898Y-87654980D01*
X139374860Y-87654580D01*
X139366460Y-87671480D01*
X137968585Y-87671480D01*
X137996453Y-87636280D01*
X137996448Y-87636130D01*
X137906558Y-87658730D01*
X137725094Y-87699630D01*
X137633524Y-87740030D01*
X136033935Y-87740030D01*
X136217127Y-87598930D01*
X136500020Y-87411690D01*
X136215445Y-87138900D01*
X135843967Y-86798310D01*
X135482704Y-86496190D01*
X135140290Y-86237810D01*
X134825358Y-86028500D01*
X134546541Y-85873520D01*
X134312473Y-85778220D01*
X134131788Y-85747820D01*
X134064158Y-85758620D01*
X134013118Y-85787620D01*
X133968218Y-85849220D01*
X133939278Y-85937420D01*
X133928918Y-86188270D01*
X133981328Y-86529880D01*
X134095811Y-86951920D01*
X134180171Y-87195820D01*
X134229441Y-87297300D01*
X134442871Y-87069930D01*
X134592551Y-86905140D01*
X134626591Y-86885840D01*
X134639951Y-86903140D01*
X134763490Y-88588950D01*
X134094355Y-88033020D01*
X133430027Y-87471800D01*
X133586256Y-87450900D01*
X133893183Y-87427100D01*
X133999773Y-87418100D01*
X134044123Y-87401100D01*
X133900394Y-87037450D01*
X133786887Y-86745970D01*
X133704297Y-86482490D01*
X133652617Y-86246920D01*
X133631847Y-86039120D01*
X133641987Y-85858980D01*
X133683037Y-85706380D01*
X133754997Y-85581210D01*
X133857860Y-85483310D01*
X133998725Y-85417610D01*
X134172237Y-85396310D01*
X134172183Y-85396830D01*
X134394803Y-85422930D01*
X134651138Y-85498930D01*
X134938797Y-85623690D01*
X135255396Y-85795960D01*
X135598542Y-86014540D01*
X135965850Y-86278250D01*
X136354931Y-86585860D01*
X136763397Y-86936200D01*
X137021052Y-87165250D01*
X137292167Y-87074150D01*
X137621396Y-86975750D01*
X137931727Y-86913350D01*
X138265738Y-86880750D01*
X138666008Y-86871750D01*
X139165454Y-86886150D01*
X139537998Y-86943950D01*
X139853164Y-87023350D01*
X140157622Y-87122850D01*
X140450773Y-87241900D01*
X140732017Y-87379900D01*
X141000756Y-87536260D01*
X141256392Y-87710400D01*
X141498327Y-87901730D01*
X141725960Y-88109670D01*
X141938694Y-88333630D01*
X142135929Y-88573010D01*
X142317067Y-88827240D01*
X142481508Y-89095720D01*
X142628657Y-89377870D01*
X142757911Y-89673100D01*
X142868673Y-89980820D01*
X142960343Y-90300450D01*
X143008713Y-90509290D01*
X143035113Y-90698710D01*
X143048793Y-91331800D01*
X143036403Y-91965690D01*
X143010003Y-92153970D01*
X142961053Y-92363140D01*
X142865943Y-92689860D01*
X142748042Y-93016850D01*
X142614432Y-93326190D01*
X142472184Y-93599980D01*
X142327494Y-93851140D01*
X142460407Y-94092450D01*
X142821464Y-94807700D01*
X143139155Y-95528310D01*
X143279363Y-95906390D01*
X143368613Y-96213050D01*
X143415843Y-96486180D01*
X143429973Y-96763710D01*
X143418393Y-97017610D01*
X143377193Y-97198580D01*
X143298333Y-97327290D01*
X143173757Y-97424390D01*
X143032623Y-97481690D01*
X142832220Y-97483690D01*
X142649573Y-97452990D01*
X142446007Y-97382690D01*
X142222534Y-97273410D01*
X141980162Y-97125830D01*
X141719899Y-96940610D01*
X141442759Y-96718420D01*
X140841881Y-96165810D01*
X140349404Y-95678380D01*
X140651283Y-95913200D01*
X141339390Y-96422140D01*
X141929695Y-96802970D01*
X142415454Y-97051740D01*
X142617019Y-97125340D01*
X142789918Y-97164440D01*
X142917904Y-97167440D01*
X143002144Y-97112640D01*
X143040474Y-97067140D01*
X143059824Y-97014240D01*
X143056524Y-96799020D01*
X142990274Y-96437630D01*
X142836994Y-95991780D01*
X142595612Y-95458700D01*
X142265056Y-94835600D01*
X141976395Y-94321010D01*
X141911017Y-94382262D01*
X141687014Y-94592130D01*
X141464159Y-94788140D01*
X141232037Y-94967530D01*
X140991382Y-95130100D01*
X140742922Y-95275700D01*
X140225513Y-95515220D01*
X139685656Y-95684670D01*
X139400441Y-95734900D01*
X139129195Y-95782670D01*
X138912307Y-95799322D01*
G37*
G36*
X135205030Y-91585150D02*
G01*
X135205015Y-91585160D01*
X135205015Y-91585150D01*
X135205030Y-91585150D01*
G37*
%TO.C,BT1*%
X110152421Y-98853352D02*
X111733678Y-96968883D01*
X126668339Y-112711853D02*
X128249596Y-110827384D01*
X115995360Y-91890008D02*
X119637475Y-89789747D01*
X113089950Y-104033480D02*
X110408795Y-101783723D01*
X132511278Y-105748509D02*
X133947185Y-101797019D01*
X115590404Y-92372616D02*
X115995360Y-91890008D01*
X132106322Y-106231117D02*
X132511278Y-105748509D01*
X123737968Y-112968227D02*
X126668339Y-112711853D01*
X110408795Y-101783723D02*
X110152421Y-98853352D01*
X123737968Y-112968227D02*
X121056813Y-110718471D01*
X133941131Y-101781276D02*
G75*
G03*
X132012101Y-98907046I-2018251J729903D01*
G01*
X122827623Y-91178776D02*
G75*
G03*
X119637475Y-89789747I-2104313J-475043D01*
G01*
%TD*%
M02*
