%TF.GenerationSoftware,KiCad,Pcbnew,(6.0.6-0)*%
%TF.CreationDate,2023-03-12T19:28:00-04:00*%
%TF.ProjectId,space_shuttle_SAO,73706163-655f-4736-9875-74746c655f53,v04*%
%TF.SameCoordinates,Original*%
%TF.FileFunction,Copper,L1,Top*%
%TF.FilePolarity,Positive*%
%FSLAX46Y46*%
G04 Gerber Fmt 4.6, Leading zero omitted, Abs format (unit mm)*
G04 Created by KiCad (PCBNEW (6.0.6-0)) date 2023-03-12 19:28:00*
%MOMM*%
%LPD*%
G01*
G04 APERTURE LIST*
G04 Aperture macros list*
%AMRotRect*
0 Rectangle, with rotation*
0 The origin of the aperture is its center*
0 $1 length*
0 $2 width*
0 $3 Rotation angle, in degrees counterclockwise*
0 Add horizontal line*
21,1,$1,$2,0,0,$3*%
G04 Aperture macros list end*
%TA.AperFunction,ComponentPad*%
%ADD10RotRect,1.524000X1.524000X350.000000*%
%TD*%
%TA.AperFunction,ComponentPad*%
%ADD11C,1.524000*%
%TD*%
G04 APERTURE END LIST*
%TO.C,svg2mod*%
G36*
X166065817Y-100926656D02*
G01*
X167585105Y-101980338D01*
X168260517Y-102595803D01*
X169537441Y-103533730D01*
X172728462Y-106072595D01*
X175482298Y-108492085D01*
X177125091Y-110099738D01*
X178868655Y-111991612D01*
X179745088Y-112944009D01*
X180208624Y-113677299D01*
X180380707Y-114179592D01*
X180443752Y-114811594D01*
X180380707Y-115504575D01*
X180181235Y-116031675D01*
X179948174Y-116480745D01*
X179543031Y-116842996D01*
X179166828Y-117143235D01*
X178271274Y-117565433D01*
X177396392Y-117820198D01*
X176683774Y-117976259D01*
X175427003Y-118166945D01*
X174127859Y-118239811D01*
X172390496Y-118232561D01*
X170462448Y-118113705D01*
X168939028Y-117943692D01*
X168866585Y-117932737D01*
X168672090Y-117903307D01*
X168389793Y-117860558D01*
X168053943Y-117809642D01*
X167698792Y-117755714D01*
X167358589Y-117703928D01*
X167067583Y-117659439D01*
X166860026Y-117627399D01*
X166770167Y-117612963D01*
X166703702Y-117602391D01*
X166542987Y-117577825D01*
X166305350Y-117541848D01*
X166008115Y-117497042D01*
X165668609Y-117445989D01*
X165304157Y-117391272D01*
X164932086Y-117335473D01*
X164569721Y-117281173D01*
X164234389Y-117230955D01*
X163943415Y-117187402D01*
X163714125Y-117153096D01*
X163563846Y-117130619D01*
X163509902Y-117122552D01*
X150215621Y-115085983D01*
X139287607Y-113448874D01*
X141566366Y-108065738D01*
X161811370Y-108065738D01*
X161827906Y-108176326D01*
X161876997Y-108260559D01*
X161994821Y-108352025D01*
X162066134Y-108379415D01*
X163335306Y-109032086D01*
X163340466Y-109033145D01*
X163513583Y-109048120D01*
X163698584Y-109010914D01*
X163807103Y-108927714D01*
X163829437Y-108878083D01*
X164300654Y-108878083D01*
X164346128Y-109012960D01*
X164436047Y-109098224D01*
X164548701Y-109134398D01*
X164664972Y-109138023D01*
X164868577Y-109100301D01*
X164957977Y-109070845D01*
X164966762Y-109067220D01*
X166280375Y-107972197D01*
X166285032Y-107964974D01*
X166321206Y-107837850D01*
X166302077Y-107714861D01*
X166252986Y-107582053D01*
X165674726Y-106390394D01*
X165673138Y-106387298D01*
X165670492Y-106383674D01*
X165525800Y-106237946D01*
X165373871Y-106182135D01*
X165280949Y-106182646D01*
X165149173Y-106221920D01*
X165090261Y-106256544D01*
X164478412Y-106580039D01*
X164356458Y-106665823D01*
X164305814Y-106798630D01*
X164300654Y-106957793D01*
X164300654Y-108878083D01*
X163829437Y-108878083D01*
X163862915Y-108803690D01*
X163868603Y-108744262D01*
X163886701Y-106885980D01*
X163886701Y-106885450D01*
X163843809Y-106681846D01*
X163748723Y-106554721D01*
X163608679Y-106472558D01*
X163608150Y-106472558D01*
X162900699Y-106291173D01*
X162898053Y-106291173D01*
X162747243Y-106315951D01*
X162634586Y-106391399D01*
X162539503Y-106506636D01*
X162538974Y-106507694D01*
X161925056Y-107772733D01*
X161839791Y-107931380D01*
X161811370Y-108065738D01*
X141566366Y-108065738D01*
X142495376Y-105871128D01*
X165821360Y-105871128D01*
X165873552Y-106034426D01*
X166398067Y-107269491D01*
X166400184Y-107272586D01*
X166526274Y-107406428D01*
X166672517Y-107469473D01*
X166844083Y-107489634D01*
X166855963Y-107489105D01*
X166866308Y-107483946D01*
X167297291Y-107283442D01*
X167974770Y-106995604D01*
X167980961Y-106992959D01*
X168071912Y-106934049D01*
X168072441Y-106934049D01*
X168169074Y-106867903D01*
X168224886Y-106787803D01*
X168240390Y-106699954D01*
X168225918Y-106619338D01*
X168161322Y-106498415D01*
X168121532Y-106451907D01*
X168120473Y-106451378D01*
X166875587Y-105287108D01*
X166771201Y-105212694D01*
X166659582Y-105192533D01*
X166590311Y-105200891D01*
X166440964Y-105262385D01*
X165939187Y-105550739D01*
X165935563Y-105553834D01*
X165868382Y-105628764D01*
X165831176Y-105710931D01*
X165821360Y-105871128D01*
X142495376Y-105871128D01*
X143048229Y-104565118D01*
X167358209Y-104565118D01*
X167369586Y-104712396D01*
X167454334Y-104877760D01*
X167455393Y-104879877D01*
X167455922Y-104880935D01*
X168448109Y-106251911D01*
X168448109Y-106252440D01*
X168491517Y-106301015D01*
X168607272Y-106387830D01*
X168732846Y-106422453D01*
X168779873Y-106418829D01*
X168873925Y-106375937D01*
X168957639Y-106285505D01*
X168961263Y-106279314D01*
X169289926Y-105405464D01*
X169289926Y-105404406D01*
X169308526Y-105262295D01*
X169279073Y-105132586D01*
X169176753Y-105012698D01*
X168192315Y-104117663D01*
X168092581Y-104026194D01*
X167953571Y-103986922D01*
X167953042Y-103986922D01*
X167763897Y-104025077D01*
X167753049Y-104029734D01*
X167479163Y-104318606D01*
X167478105Y-104319664D01*
X167399558Y-104414232D01*
X167395933Y-104419391D01*
X167358209Y-104565118D01*
X143048229Y-104565118D01*
X143452267Y-103610655D01*
X168147350Y-103610655D01*
X168195927Y-103699539D01*
X168228481Y-103730027D01*
X168223322Y-103725900D01*
X169027925Y-104488127D01*
X169031021Y-104490773D01*
X169093547Y-104550717D01*
X169239277Y-104647869D01*
X169386036Y-104679392D01*
X169438230Y-104666983D01*
X169526596Y-104593085D01*
X169581891Y-104457692D01*
X169671807Y-103875815D01*
X169675935Y-103845327D01*
X168728705Y-103027289D01*
X168689946Y-102993700D01*
X168294111Y-103355375D01*
X168163886Y-103476813D01*
X168147350Y-103610655D01*
X143452267Y-103610655D01*
X147187899Y-94785932D01*
X164624047Y-100329793D01*
X166065817Y-100926656D01*
G37*
%TD*%
D10*
%TO.P,J1,1,VCC*%
%TO.N,Net-(J1-Pad1)*%
X109070530Y-109659210D03*
D11*
%TO.P,J1,2,GND*%
%TO.N,GND*%
X108629462Y-112160622D03*
%TO.P,J1,3,SDA*%
%TO.N,unconnected-(J1-Pad3)*%
X111571940Y-110100276D03*
%TO.P,J1,4,SCL*%
%TO.N,unconnected-(J1-Pad4)*%
X111130875Y-112601688D03*
%TO.P,J1,5,GPIO_1*%
%TO.N,unconnected-(J1-Pad5)*%
X114073353Y-110541343D03*
%TO.P,J1,6,GPIO_2*%
%TO.N,unconnected-(J1-Pad6)*%
X113632286Y-113042754D03*
%TD*%
%TA.AperFunction,Conductor*%
%TO.N,GND*%
G36*
X102803374Y-68998588D02*
G01*
X103054237Y-69045338D01*
X103805376Y-69185319D01*
X103830697Y-69192855D01*
X104901205Y-69638289D01*
X104922454Y-69649623D01*
X105144475Y-69796910D01*
X105776655Y-70216293D01*
X105797449Y-70233570D01*
X106740647Y-71206210D01*
X107537811Y-72028259D01*
X107537872Y-72028327D01*
X107537935Y-72028415D01*
X107565860Y-72057183D01*
X107590767Y-72082867D01*
X107590849Y-72082930D01*
X107590909Y-72082988D01*
X113419953Y-78087898D01*
X113420476Y-78088477D01*
X113420995Y-78089205D01*
X113448037Y-78116830D01*
X113472646Y-78142181D01*
X113473346Y-78142722D01*
X113473923Y-78143273D01*
X117957763Y-82723702D01*
X118014005Y-82781156D01*
X118028441Y-82798865D01*
X118036977Y-82811528D01*
X118043882Y-82817264D01*
X118068168Y-82837438D01*
X118074967Y-82843704D01*
X118076979Y-82845487D01*
X118080115Y-82848690D01*
X118083669Y-82851413D01*
X118083679Y-82851422D01*
X118098747Y-82862967D01*
X118102622Y-82866058D01*
X118149020Y-82904601D01*
X118156709Y-82907931D01*
X118159801Y-82909748D01*
X118166456Y-82914847D01*
X118174830Y-82918088D01*
X118174831Y-82918089D01*
X118222721Y-82936626D01*
X118227313Y-82938508D01*
X118247252Y-82947144D01*
X118247258Y-82947146D01*
X118251721Y-82949079D01*
X118256429Y-82950302D01*
X118261043Y-82951890D01*
X118261034Y-82951917D01*
X118268142Y-82954208D01*
X118293922Y-82964188D01*
X118293928Y-82964189D01*
X118302292Y-82967427D01*
X118317149Y-82968690D01*
X118321422Y-82969054D01*
X118342432Y-82972651D01*
X119485418Y-83269655D01*
X119498547Y-83273845D01*
X122028597Y-84236750D01*
X122038082Y-84240812D01*
X122937832Y-84670539D01*
X122941862Y-84672553D01*
X123979581Y-85214558D01*
X123991770Y-85221825D01*
X125445218Y-86203451D01*
X125536700Y-86265236D01*
X125549966Y-86275549D01*
X126127851Y-86790107D01*
X126678388Y-87280315D01*
X126690499Y-87292693D01*
X127745369Y-88530636D01*
X127748760Y-88534615D01*
X127756823Y-88545154D01*
X127863502Y-88701005D01*
X127865584Y-88704492D01*
X127866879Y-88708223D01*
X127872085Y-88715537D01*
X127872086Y-88715539D01*
X127907029Y-88764631D01*
X127908313Y-88766470D01*
X127924431Y-88790017D01*
X127926816Y-88792615D01*
X127929257Y-88795861D01*
X127951343Y-88826891D01*
X127958390Y-88832448D01*
X127958393Y-88832451D01*
X127968440Y-88840373D01*
X127983257Y-88854121D01*
X127997975Y-88870160D01*
X128005655Y-88874804D01*
X128005657Y-88874805D01*
X128026615Y-88887477D01*
X128039440Y-88896359D01*
X128058673Y-88911525D01*
X128065719Y-88917081D01*
X128074043Y-88920437D01*
X128085909Y-88925221D01*
X128103988Y-88934258D01*
X128114936Y-88940878D01*
X128114941Y-88940880D01*
X128122620Y-88945523D01*
X128131297Y-88947825D01*
X128154968Y-88954105D01*
X128169772Y-88959032D01*
X128200811Y-88971546D01*
X128222475Y-88973692D01*
X128242360Y-88977290D01*
X128263407Y-88982874D01*
X128296869Y-88982032D01*
X128312442Y-88982606D01*
X128345758Y-88985906D01*
X128354582Y-88984248D01*
X128367159Y-88981885D01*
X128387255Y-88979758D01*
X128400045Y-88979436D01*
X128400046Y-88979436D01*
X128409019Y-88979210D01*
X128417565Y-88976476D01*
X128417570Y-88976475D01*
X128440896Y-88969012D01*
X128456018Y-88965188D01*
X128480084Y-88960665D01*
X128480087Y-88960664D01*
X128488910Y-88959006D01*
X128508327Y-88949138D01*
X128527007Y-88941460D01*
X128547749Y-88934824D01*
X128555181Y-88929803D01*
X128555192Y-88929798D01*
X128575858Y-88915837D01*
X128580798Y-88912664D01*
X128584342Y-88910503D01*
X128588682Y-88908297D01*
X128611927Y-88891537D01*
X128614983Y-88889404D01*
X128668446Y-88853286D01*
X128672532Y-88848357D01*
X128678377Y-88843625D01*
X128682888Y-88840373D01*
X132240110Y-86275551D01*
X133440732Y-85409881D01*
X133441796Y-85409122D01*
X137568567Y-82498232D01*
X137614186Y-82478124D01*
X137956876Y-82402920D01*
X138169937Y-82356164D01*
X138190415Y-82353404D01*
X138616472Y-82331311D01*
X138633229Y-82331558D01*
X139508857Y-82402920D01*
X139539401Y-82409285D01*
X139958320Y-82552577D01*
X139974603Y-82559458D01*
X140151092Y-82649106D01*
X140163737Y-82656483D01*
X140193936Y-82676539D01*
X140255625Y-82695741D01*
X140258719Y-82696748D01*
X140319860Y-82717538D01*
X140360001Y-82719275D01*
X140373040Y-82720521D01*
X140883189Y-82796212D01*
X140908953Y-82802876D01*
X141977284Y-83203682D01*
X141992944Y-83210812D01*
X142163285Y-83302919D01*
X142669291Y-83576527D01*
X142685347Y-83586853D01*
X143559255Y-84247543D01*
X143582429Y-84270315D01*
X143706921Y-84429118D01*
X143897761Y-84672553D01*
X143988828Y-84788719D01*
X144009576Y-84827754D01*
X144197211Y-85409122D01*
X144397436Y-86029495D01*
X144399254Y-86035662D01*
X146686856Y-94596936D01*
X146685117Y-94667910D01*
X146681160Y-94678577D01*
X144889407Y-98911254D01*
X138976742Y-112878802D01*
X138931767Y-112933736D01*
X138864232Y-112955635D01*
X138844945Y-112954693D01*
X137282570Y-112757574D01*
X137276919Y-112756701D01*
X137272644Y-112755572D01*
X137267806Y-112755069D01*
X137267803Y-112755068D01*
X137240126Y-112752188D01*
X137237398Y-112751874D01*
X137217106Y-112749314D01*
X137208036Y-112748170D01*
X137203638Y-112748244D01*
X137197702Y-112747773D01*
X135587024Y-112580160D01*
X135586545Y-112580076D01*
X135586127Y-112579906D01*
X135546524Y-112575851D01*
X135489869Y-112570050D01*
X135489660Y-112570028D01*
X135479837Y-112569006D01*
X135479835Y-112569006D01*
X135478193Y-112568835D01*
X135478056Y-112568840D01*
X135474791Y-112568506D01*
X135442498Y-112570200D01*
X135440835Y-112570275D01*
X135415516Y-112571252D01*
X135377451Y-112572720D01*
X135377446Y-112572721D01*
X135369502Y-112573027D01*
X135366631Y-112573988D01*
X135363641Y-112574339D01*
X135252691Y-112580161D01*
X133688853Y-112662223D01*
X133683519Y-112662352D01*
X133679322Y-112662010D01*
X133650035Y-112664157D01*
X133646399Y-112664424D01*
X133643788Y-112664588D01*
X133641035Y-112664732D01*
X133613888Y-112666157D01*
X133609772Y-112666968D01*
X133604238Y-112667515D01*
X132733702Y-112731345D01*
X131163588Y-112846469D01*
X131157180Y-112846774D01*
X131155677Y-112846807D01*
X131150815Y-112846539D01*
X131145974Y-112847022D01*
X131145971Y-112847022D01*
X131119687Y-112849644D01*
X131116393Y-112849929D01*
X131092737Y-112851663D01*
X131092731Y-112851664D01*
X131088269Y-112851991D01*
X131083891Y-112852949D01*
X131080878Y-112853387D01*
X131075262Y-112854075D01*
X129946884Y-112966631D01*
X128385735Y-113122356D01*
X128376045Y-113122945D01*
X128360973Y-113123277D01*
X128356181Y-113124132D01*
X128356177Y-113124132D01*
X128346061Y-113125936D01*
X128336443Y-113127272D01*
X128328915Y-113128023D01*
X128328913Y-113128023D01*
X128324456Y-113128468D01*
X128309020Y-113132273D01*
X128300999Y-113133974D01*
X125577763Y-113619691D01*
X125565436Y-113621268D01*
X125562139Y-113621525D01*
X125562138Y-113621525D01*
X125557293Y-113621903D01*
X125552566Y-113623021D01*
X125552559Y-113623022D01*
X125535942Y-113626952D01*
X125529075Y-113628375D01*
X125510549Y-113631680D01*
X125506293Y-113633085D01*
X125506287Y-113633086D01*
X125502052Y-113634484D01*
X125491568Y-113637448D01*
X122264863Y-114400614D01*
X122261632Y-114401332D01*
X113304664Y-116269665D01*
X113140447Y-116303919D01*
X113130506Y-116305581D01*
X111218765Y-116547017D01*
X111205025Y-116547993D01*
X108660539Y-116589179D01*
X108136742Y-116597657D01*
X108122694Y-116597100D01*
X106042350Y-116397924D01*
X106019237Y-116393504D01*
X105269220Y-116175810D01*
X104501042Y-115952844D01*
X104492014Y-115949849D01*
X104481923Y-115946073D01*
X104477364Y-115944367D01*
X104463106Y-115941424D01*
X104453460Y-115939032D01*
X104446757Y-115937087D01*
X104446755Y-115937087D01*
X104442443Y-115935835D01*
X104426121Y-115933531D01*
X104418263Y-115932167D01*
X103376038Y-115717018D01*
X103354241Y-115710416D01*
X102636141Y-115419759D01*
X101994079Y-115159880D01*
X101973380Y-115149178D01*
X101545219Y-114874856D01*
X101440655Y-114807862D01*
X101394087Y-114754271D01*
X101383886Y-114684011D01*
X101417642Y-114614605D01*
X102885135Y-113082763D01*
X107761931Y-113082763D01*
X107769000Y-113096211D01*
X107806107Y-113133318D01*
X107814515Y-113140374D01*
X107987527Y-113261518D01*
X107997023Y-113267001D01*
X108188455Y-113356267D01*
X108198747Y-113360013D01*
X108402771Y-113414681D01*
X108413566Y-113416584D01*
X108623987Y-113434994D01*
X108634937Y-113434994D01*
X108845358Y-113416584D01*
X108856153Y-113414681D01*
X109060172Y-113360014D01*
X109070476Y-113356264D01*
X109118969Y-113333651D01*
X109129036Y-113324787D01*
X109124411Y-113310319D01*
X108577477Y-112529215D01*
X108565071Y-112519298D01*
X108563239Y-112519109D01*
X108555988Y-112522146D01*
X107770306Y-113072286D01*
X107761931Y-113082763D01*
X102885135Y-113082763D01*
X103763294Y-112166097D01*
X107355090Y-112166097D01*
X107373500Y-112376518D01*
X107375403Y-112387313D01*
X107430070Y-112591334D01*
X107433820Y-112601634D01*
X107456434Y-112650130D01*
X107465298Y-112660196D01*
X107479767Y-112655571D01*
X108260869Y-112108637D01*
X108270786Y-112096231D01*
X108270975Y-112094399D01*
X108267938Y-112087148D01*
X107717798Y-111301466D01*
X107707321Y-111293091D01*
X107693873Y-111300160D01*
X107656764Y-111337269D01*
X107649710Y-111345676D01*
X107528564Y-111518692D01*
X107523086Y-111528178D01*
X107433817Y-111719615D01*
X107430071Y-111729907D01*
X107375403Y-111933931D01*
X107373500Y-111944726D01*
X107355090Y-112155147D01*
X107355090Y-112166097D01*
X103763294Y-112166097D01*
X105552124Y-110298827D01*
X107674508Y-110298827D01*
X107679450Y-110325359D01*
X107699534Y-110433198D01*
X107699535Y-110433202D01*
X107701178Y-110442022D01*
X107733466Y-110505803D01*
X107762912Y-110563971D01*
X107762914Y-110563974D01*
X107766965Y-110571976D01*
X107773100Y-110578521D01*
X107773101Y-110578522D01*
X107828782Y-110637920D01*
X107866581Y-110678243D01*
X107936619Y-110719581D01*
X107985214Y-110748264D01*
X107985217Y-110748265D01*
X107992019Y-110752280D01*
X108052084Y-110769730D01*
X108055447Y-110770323D01*
X108073402Y-110773489D01*
X108137015Y-110805015D01*
X108173485Y-110865929D01*
X108171233Y-110936890D01*
X108134789Y-110992142D01*
X108129888Y-110996458D01*
X108134513Y-111010927D01*
X108681447Y-111792029D01*
X108693853Y-111801946D01*
X108695685Y-111802135D01*
X108702936Y-111799098D01*
X109488618Y-111248958D01*
X109496993Y-111238481D01*
X109492508Y-111229949D01*
X109478519Y-111160345D01*
X109504382Y-111094226D01*
X109561886Y-111052587D01*
X109625919Y-111047240D01*
X109647736Y-111051087D01*
X109661953Y-111052031D01*
X109702268Y-111054709D01*
X109702270Y-111054709D01*
X109710147Y-111055232D01*
X109766364Y-111044762D01*
X109844518Y-111030206D01*
X109844522Y-111030205D01*
X109853342Y-111028562D01*
X109925285Y-110992142D01*
X109975291Y-110966828D01*
X109975294Y-110966826D01*
X109983296Y-110962775D01*
X110089563Y-110863159D01*
X110142489Y-110773489D01*
X110159584Y-110744526D01*
X110159585Y-110744523D01*
X110163600Y-110737721D01*
X110181050Y-110677656D01*
X110182102Y-110671693D01*
X110182525Y-110669293D01*
X110214051Y-110605679D01*
X110274964Y-110569209D01*
X110345925Y-110571460D01*
X110404404Y-110611719D01*
X110420806Y-110637920D01*
X110465126Y-110732965D01*
X110465129Y-110732970D01*
X110467452Y-110737952D01*
X110470608Y-110742459D01*
X110470609Y-110742461D01*
X110591801Y-110915541D01*
X110594963Y-110920057D01*
X110752159Y-111077253D01*
X110756667Y-111080410D01*
X110756670Y-111080412D01*
X110851626Y-111146901D01*
X110895954Y-111202358D01*
X110903263Y-111272978D01*
X110871232Y-111336338D01*
X110811967Y-111371821D01*
X110797754Y-111375629D01*
X110699989Y-111401825D01*
X110699987Y-111401826D01*
X110694679Y-111403248D01*
X110689698Y-111405570D01*
X110689697Y-111405571D01*
X110498186Y-111494874D01*
X110498181Y-111494877D01*
X110493199Y-111497200D01*
X110488692Y-111500356D01*
X110488690Y-111500357D01*
X110315605Y-111621552D01*
X110315602Y-111621554D01*
X110311094Y-111624711D01*
X110153898Y-111781907D01*
X110150741Y-111786415D01*
X110150739Y-111786418D01*
X110083875Y-111881910D01*
X110028418Y-111926238D01*
X109957798Y-111933547D01*
X109894438Y-111901516D01*
X109858955Y-111842250D01*
X109828853Y-111729910D01*
X109825104Y-111719610D01*
X109802490Y-111671114D01*
X109793626Y-111661048D01*
X109779157Y-111665673D01*
X108998055Y-112212607D01*
X108988138Y-112225013D01*
X108987949Y-112226845D01*
X108990986Y-112234096D01*
X109541126Y-113019778D01*
X109551603Y-113028153D01*
X109565051Y-113021084D01*
X109602160Y-112983975D01*
X109609214Y-112975568D01*
X109675918Y-112880305D01*
X109731375Y-112835976D01*
X109801994Y-112828667D01*
X109865355Y-112860697D01*
X109900838Y-112919963D01*
X109932435Y-113037884D01*
X109934757Y-113042865D01*
X109934758Y-113042866D01*
X110024061Y-113234377D01*
X110024064Y-113234382D01*
X110026387Y-113239364D01*
X110029543Y-113243871D01*
X110029544Y-113243873D01*
X110143902Y-113407193D01*
X110153898Y-113421469D01*
X110311094Y-113578665D01*
X110315602Y-113581822D01*
X110315605Y-113581824D01*
X110369685Y-113619691D01*
X110493198Y-113706176D01*
X110498180Y-113708499D01*
X110498185Y-113708502D01*
X110689697Y-113797805D01*
X110694679Y-113800128D01*
X110699987Y-113801550D01*
X110699989Y-113801551D01*
X110765824Y-113819191D01*
X110909412Y-113857666D01*
X111130875Y-113877041D01*
X111352338Y-113857666D01*
X111495926Y-113819191D01*
X111561761Y-113801551D01*
X111561763Y-113801550D01*
X111567071Y-113800128D01*
X111572053Y-113797805D01*
X111763565Y-113708502D01*
X111763570Y-113708499D01*
X111768552Y-113706176D01*
X111892065Y-113619691D01*
X111946145Y-113581824D01*
X111946148Y-113581822D01*
X111950656Y-113578665D01*
X112107852Y-113421469D01*
X112117849Y-113407193D01*
X112177499Y-113322003D01*
X112232956Y-113277675D01*
X112303576Y-113270366D01*
X112366936Y-113302397D01*
X112402419Y-113361663D01*
X112429026Y-113460960D01*
X112433846Y-113478950D01*
X112436168Y-113483931D01*
X112436169Y-113483932D01*
X112525472Y-113675443D01*
X112525475Y-113675448D01*
X112527798Y-113680430D01*
X112530954Y-113684937D01*
X112530955Y-113684939D01*
X112651900Y-113857666D01*
X112655309Y-113862535D01*
X112812505Y-114019731D01*
X112817013Y-114022888D01*
X112817016Y-114022890D01*
X112892781Y-114075941D01*
X112994609Y-114147242D01*
X112999591Y-114149565D01*
X112999596Y-114149568D01*
X113191108Y-114238871D01*
X113196090Y-114241194D01*
X113201398Y-114242616D01*
X113201400Y-114242617D01*
X113267235Y-114260257D01*
X113410823Y-114298732D01*
X113632286Y-114318107D01*
X113853749Y-114298732D01*
X113997337Y-114260257D01*
X114063172Y-114242617D01*
X114063174Y-114242616D01*
X114068482Y-114241194D01*
X114073464Y-114238871D01*
X114264976Y-114149568D01*
X114264981Y-114149565D01*
X114269963Y-114147242D01*
X114371791Y-114075941D01*
X114447556Y-114022890D01*
X114447559Y-114022888D01*
X114452067Y-114019731D01*
X114609263Y-113862535D01*
X114612673Y-113857666D01*
X114733617Y-113684939D01*
X114733618Y-113684937D01*
X114736774Y-113680430D01*
X114739097Y-113675448D01*
X114739100Y-113675443D01*
X114828403Y-113483932D01*
X114828404Y-113483931D01*
X114830726Y-113478950D01*
X114835547Y-113460960D01*
X114869659Y-113333651D01*
X114888264Y-113264217D01*
X114907639Y-113042754D01*
X114888264Y-112821291D01*
X114842401Y-112650130D01*
X114832149Y-112611868D01*
X114832148Y-112611866D01*
X114830726Y-112606558D01*
X114828403Y-112601576D01*
X114739100Y-112410065D01*
X114739097Y-112410060D01*
X114736774Y-112405078D01*
X114715066Y-112374076D01*
X114612422Y-112227484D01*
X114612420Y-112227481D01*
X114609263Y-112222973D01*
X114452067Y-112065777D01*
X114447559Y-112062620D01*
X114447556Y-112062618D01*
X114352602Y-111996130D01*
X114308274Y-111940672D01*
X114300965Y-111870053D01*
X114332996Y-111806693D01*
X114392261Y-111771210D01*
X114453024Y-111754929D01*
X114504239Y-111741206D01*
X114504241Y-111741205D01*
X114509549Y-111739783D01*
X114530722Y-111729910D01*
X114706043Y-111648157D01*
X114706048Y-111648154D01*
X114711030Y-111645831D01*
X114840660Y-111555063D01*
X114888623Y-111521479D01*
X114888626Y-111521477D01*
X114893134Y-111518320D01*
X115050330Y-111361124D01*
X115064872Y-111340357D01*
X115174684Y-111183528D01*
X115174685Y-111183526D01*
X115177841Y-111179019D01*
X115180164Y-111174037D01*
X115180167Y-111174032D01*
X115269470Y-110982521D01*
X115269471Y-110982520D01*
X115271793Y-110977539D01*
X115329331Y-110762806D01*
X115348706Y-110541343D01*
X115329331Y-110319880D01*
X115271793Y-110105147D01*
X115197460Y-109945740D01*
X115180167Y-109908654D01*
X115180164Y-109908649D01*
X115177841Y-109903667D01*
X115133707Y-109840637D01*
X115053489Y-109726073D01*
X115053487Y-109726070D01*
X115050330Y-109721562D01*
X114893134Y-109564366D01*
X114888626Y-109561209D01*
X114888623Y-109561207D01*
X114812858Y-109508156D01*
X114711030Y-109436855D01*
X114706048Y-109434532D01*
X114706043Y-109434529D01*
X114514531Y-109345226D01*
X114514530Y-109345225D01*
X114509549Y-109342903D01*
X114504241Y-109341481D01*
X114504239Y-109341480D01*
X114438404Y-109323840D01*
X114294816Y-109285365D01*
X114073353Y-109265990D01*
X113851890Y-109285365D01*
X113708302Y-109323840D01*
X113642467Y-109341480D01*
X113642465Y-109341481D01*
X113637157Y-109342903D01*
X113632176Y-109345225D01*
X113632175Y-109345226D01*
X113440664Y-109434529D01*
X113440659Y-109434532D01*
X113435677Y-109436855D01*
X113431170Y-109440011D01*
X113431168Y-109440012D01*
X113258083Y-109561207D01*
X113258080Y-109561209D01*
X113253572Y-109564366D01*
X113096376Y-109721562D01*
X113093218Y-109726072D01*
X113093213Y-109726078D01*
X113026728Y-109821029D01*
X112971271Y-109865358D01*
X112900652Y-109872667D01*
X112837291Y-109840637D01*
X112801808Y-109781370D01*
X112771803Y-109669390D01*
X112771802Y-109669388D01*
X112770380Y-109664080D01*
X112725700Y-109568263D01*
X112678754Y-109467587D01*
X112678751Y-109467582D01*
X112676428Y-109462600D01*
X112594242Y-109345226D01*
X112552076Y-109285006D01*
X112552074Y-109285003D01*
X112548917Y-109280495D01*
X112391721Y-109123299D01*
X112387213Y-109120142D01*
X112387210Y-109120140D01*
X112243614Y-109019593D01*
X112209617Y-108995788D01*
X112204635Y-108993465D01*
X112204630Y-108993462D01*
X112013118Y-108904159D01*
X112013117Y-108904158D01*
X112008136Y-108901836D01*
X112002828Y-108900414D01*
X112002826Y-108900413D01*
X111883311Y-108868389D01*
X111793403Y-108844298D01*
X111571940Y-108824923D01*
X111350477Y-108844298D01*
X111260569Y-108868389D01*
X111141054Y-108900413D01*
X111141052Y-108900414D01*
X111135744Y-108901836D01*
X111130763Y-108904158D01*
X111130762Y-108904159D01*
X110939251Y-108993462D01*
X110939246Y-108993465D01*
X110934264Y-108995788D01*
X110929757Y-108998944D01*
X110929755Y-108998945D01*
X110756670Y-109120140D01*
X110756667Y-109120142D01*
X110752159Y-109123299D01*
X110674113Y-109201345D01*
X110611801Y-109235371D01*
X110540986Y-109230306D01*
X110484150Y-109187759D01*
X110459339Y-109121239D01*
X110460932Y-109090373D01*
X110461814Y-109085372D01*
X110461816Y-109085356D01*
X110462407Y-109082004D01*
X110466552Y-109019593D01*
X110456082Y-108963376D01*
X110441526Y-108885222D01*
X110441525Y-108885218D01*
X110439882Y-108876398D01*
X110407594Y-108812617D01*
X110378148Y-108754449D01*
X110378146Y-108754446D01*
X110374095Y-108746444D01*
X110274479Y-108640177D01*
X110173708Y-108580699D01*
X110155846Y-108570156D01*
X110155843Y-108570155D01*
X110149041Y-108566140D01*
X110088976Y-108548690D01*
X109028964Y-108361781D01*
X108496682Y-108267925D01*
X108496680Y-108267925D01*
X108493324Y-108267333D01*
X108479107Y-108266389D01*
X108438792Y-108263711D01*
X108438790Y-108263711D01*
X108430913Y-108263188D01*
X108374696Y-108273658D01*
X108296542Y-108288214D01*
X108296538Y-108288215D01*
X108287718Y-108289858D01*
X108223937Y-108322146D01*
X108165769Y-108351592D01*
X108165766Y-108351594D01*
X108157764Y-108355645D01*
X108151219Y-108361780D01*
X108151218Y-108361781D01*
X108130587Y-108381121D01*
X108051497Y-108455261D01*
X108010159Y-108525299D01*
X107981476Y-108573894D01*
X107981475Y-108573897D01*
X107977460Y-108580699D01*
X107960010Y-108640764D01*
X107880732Y-109090373D01*
X107768640Y-109726078D01*
X107678653Y-110236416D01*
X107674508Y-110298827D01*
X105552124Y-110298827D01*
X106945551Y-108844298D01*
X110806919Y-104813609D01*
X110820429Y-104802169D01*
X110825029Y-104797962D01*
X110832438Y-104792909D01*
X110863671Y-104754894D01*
X110870013Y-104747749D01*
X110878193Y-104739210D01*
X110886921Y-104727027D01*
X110891986Y-104720431D01*
X110919203Y-104687305D01*
X110919206Y-104687300D01*
X110924904Y-104680365D01*
X110928426Y-104672110D01*
X110932602Y-104665230D01*
X110936315Y-104658088D01*
X110941544Y-104650790D01*
X110958710Y-104601826D01*
X110961712Y-104594093D01*
X110978542Y-104554650D01*
X110978543Y-104554647D01*
X110982065Y-104546392D01*
X110983129Y-104537477D01*
X110985205Y-104529705D01*
X110986764Y-104521810D01*
X110989735Y-104513336D01*
X110992469Y-104461540D01*
X110993182Y-104453250D01*
X110995292Y-104435571D01*
X110999327Y-104401761D01*
X110997846Y-104392906D01*
X110997657Y-104384846D01*
X110996939Y-104376843D01*
X110997412Y-104367881D01*
X110985499Y-104317404D01*
X110983855Y-104309241D01*
X110980868Y-104291375D01*
X110977373Y-104280833D01*
X110974345Y-104270138D01*
X110966018Y-104234854D01*
X110963956Y-104226117D01*
X110959525Y-104218310D01*
X110956244Y-104209952D01*
X110956514Y-104209846D01*
X110945098Y-104178103D01*
X110942450Y-104163055D01*
X110940895Y-104154215D01*
X110924369Y-104120746D01*
X110924085Y-104120119D01*
X110923837Y-104119369D01*
X110908179Y-104087955D01*
X110876408Y-104023610D01*
X110875748Y-104022892D01*
X110875313Y-104022019D01*
X110869374Y-104015604D01*
X110869372Y-104015601D01*
X110826599Y-103969400D01*
X110826278Y-103969053D01*
X110802174Y-103942820D01*
X110802167Y-103942813D01*
X110800684Y-103941199D01*
X110800071Y-103940709D01*
X110799590Y-103940227D01*
X110782457Y-103921722D01*
X110776359Y-103915135D01*
X110750085Y-103899406D01*
X110736245Y-103889811D01*
X107915812Y-101640578D01*
X106956838Y-100875817D01*
X106933062Y-100850814D01*
X106914563Y-100825060D01*
X106891067Y-100758063D01*
X106907522Y-100689000D01*
X106919144Y-100672053D01*
X107332889Y-100163296D01*
X107343764Y-100151538D01*
X108070616Y-99459549D01*
X108235229Y-99302832D01*
X108236595Y-99301617D01*
X108238126Y-99300535D01*
X108251941Y-99287145D01*
X108264527Y-99274946D01*
X108265340Y-99274165D01*
X108286375Y-99254139D01*
X108286635Y-99253919D01*
X108289151Y-99252545D01*
X108339409Y-99202386D01*
X108340723Y-99201094D01*
X108344699Y-99197240D01*
X108361581Y-99180877D01*
X108363300Y-99178656D01*
X108365289Y-99176556D01*
X108385894Y-99155992D01*
X108385895Y-99155990D01*
X108392248Y-99149650D01*
X108403293Y-99129521D01*
X108414119Y-99113011D01*
X108422670Y-99101966D01*
X108422671Y-99101964D01*
X108428166Y-99094866D01*
X108431447Y-99086513D01*
X108431451Y-99086506D01*
X108439974Y-99064808D01*
X108446787Y-99050263D01*
X108458000Y-99029827D01*
X108462320Y-99021955D01*
X108467271Y-98999539D01*
X108473027Y-98980656D01*
X108478137Y-98967647D01*
X108481419Y-98959292D01*
X108484315Y-98927127D01*
X108486773Y-98911254D01*
X108491801Y-98888491D01*
X108493737Y-98879726D01*
X108492198Y-98856828D01*
X108492422Y-98837087D01*
X108494481Y-98814222D01*
X108492744Y-98805414D01*
X108492744Y-98805410D01*
X108488234Y-98782538D01*
X108486136Y-98766607D01*
X108484574Y-98743353D01*
X108484574Y-98743352D01*
X108483972Y-98734396D01*
X108476069Y-98712852D01*
X108470743Y-98693839D01*
X108468038Y-98680121D01*
X108466302Y-98671316D01*
X108451412Y-98642658D01*
X108444929Y-98627957D01*
X108436905Y-98606082D01*
X108436901Y-98606075D01*
X108433810Y-98597648D01*
X108420177Y-98579186D01*
X108409727Y-98562430D01*
X108399145Y-98542063D01*
X108392936Y-98535578D01*
X108392933Y-98535574D01*
X108376810Y-98518734D01*
X108366463Y-98506447D01*
X108352619Y-98487700D01*
X108352617Y-98487698D01*
X108347284Y-98480476D01*
X108329017Y-98466582D01*
X108314286Y-98453434D01*
X108304621Y-98443339D01*
X108298412Y-98436854D01*
X108270428Y-98420733D01*
X108257052Y-98411846D01*
X108238491Y-98397729D01*
X108238490Y-98397728D01*
X108231350Y-98392298D01*
X108209913Y-98384088D01*
X108192086Y-98375603D01*
X108179981Y-98368630D01*
X108179978Y-98368629D01*
X108172198Y-98364147D01*
X108138665Y-98356007D01*
X108132541Y-98354356D01*
X108131383Y-98354012D01*
X108126834Y-98352270D01*
X108097899Y-98346064D01*
X108094612Y-98345313D01*
X108039372Y-98331903D01*
X108039371Y-98331903D01*
X108030651Y-98329786D01*
X108024992Y-98330049D01*
X108018674Y-98329071D01*
X107159280Y-98144740D01*
X106628637Y-98030923D01*
X106586388Y-98013364D01*
X106023781Y-97647618D01*
X105977570Y-97593720D01*
X105968621Y-97565238D01*
X105890119Y-97147283D01*
X105888390Y-97113555D01*
X106081260Y-94800380D01*
X106085510Y-94776805D01*
X106086446Y-94773470D01*
X106086446Y-94773467D01*
X106088871Y-94764828D01*
X106088400Y-94721420D01*
X106088828Y-94709598D01*
X106089347Y-94703379D01*
X106088128Y-94682765D01*
X106087915Y-94676699D01*
X106087504Y-94638736D01*
X106087292Y-94619179D01*
X106084680Y-94610593D01*
X106084255Y-94607840D01*
X106084182Y-94607156D01*
X106084012Y-94606485D01*
X106083456Y-94603760D01*
X106082926Y-94594796D01*
X106063536Y-94540596D01*
X106061651Y-94534896D01*
X106044898Y-94479827D01*
X106039975Y-94472310D01*
X106038803Y-94469805D01*
X106038536Y-94469157D01*
X106038190Y-94468570D01*
X106036888Y-94466105D01*
X106033864Y-94457650D01*
X106000061Y-94411096D01*
X105996613Y-94406099D01*
X105970012Y-94365481D01*
X105965097Y-94357976D01*
X105958272Y-94352151D01*
X105956431Y-94350061D01*
X105955998Y-94349520D01*
X105955499Y-94349052D01*
X105953557Y-94347050D01*
X105948283Y-94339787D01*
X105902753Y-94304576D01*
X105898055Y-94300758D01*
X105883675Y-94288485D01*
X105883671Y-94288482D01*
X105879967Y-94285321D01*
X105875286Y-94282438D01*
X105864291Y-94274832D01*
X105840163Y-94256173D01*
X105833060Y-94250680D01*
X105824703Y-94247402D01*
X105824701Y-94247401D01*
X105817829Y-94244706D01*
X105797761Y-94234690D01*
X105615637Y-94122520D01*
X105567499Y-94068444D01*
X105527988Y-93983631D01*
X105517352Y-93913435D01*
X105546356Y-93848633D01*
X105557677Y-93836981D01*
X105869199Y-93555187D01*
X105870620Y-93553987D01*
X105872180Y-93552943D01*
X105899311Y-93527953D01*
X105900042Y-93527287D01*
X105925016Y-93504696D01*
X105926220Y-93503248D01*
X105927548Y-93501946D01*
X106253665Y-93201568D01*
X106254720Y-93200722D01*
X106255975Y-93200090D01*
X106258864Y-93197396D01*
X106258874Y-93197388D01*
X106312667Y-93147226D01*
X106313236Y-93146698D01*
X106333780Y-93127776D01*
X106334471Y-93126928D01*
X106335029Y-93126373D01*
X106355937Y-93106877D01*
X106355938Y-93106875D01*
X106362503Y-93100754D01*
X106367084Y-93093039D01*
X106367088Y-93093034D01*
X106375608Y-93078685D01*
X106386307Y-93063378D01*
X106396855Y-93050446D01*
X106396855Y-93050445D01*
X106402531Y-93043487D01*
X106414047Y-93016229D01*
X106421773Y-93000936D01*
X106432287Y-92983229D01*
X106436870Y-92975511D01*
X106443253Y-92950654D01*
X106449228Y-92932953D01*
X106459217Y-92909310D01*
X106461846Y-92910421D01*
X106488059Y-92865488D01*
X106826629Y-92535784D01*
X106916927Y-92447851D01*
X106924305Y-92441214D01*
X106935481Y-92431932D01*
X106945861Y-92420175D01*
X106952394Y-92413313D01*
X106961410Y-92404533D01*
X106964143Y-92400985D01*
X106964148Y-92400980D01*
X106970776Y-92392377D01*
X106976130Y-92385887D01*
X107323487Y-91992416D01*
X107340291Y-91976578D01*
X107351825Y-91967552D01*
X107375837Y-91934081D01*
X107382857Y-91925272D01*
X107383473Y-91924466D01*
X107386442Y-91921102D01*
X107398992Y-91901987D01*
X107401915Y-91897730D01*
X107414231Y-91880563D01*
X107414231Y-91880562D01*
X107417064Y-91876614D01*
X107419256Y-91872276D01*
X107421438Y-91868677D01*
X107425698Y-91861312D01*
X107441214Y-91837681D01*
X107441215Y-91837678D01*
X107446141Y-91830176D01*
X107451567Y-91812418D01*
X107459605Y-91792417D01*
X107561365Y-91591011D01*
X107567137Y-91580799D01*
X107585604Y-91551407D01*
X107590380Y-91543806D01*
X107606006Y-91488733D01*
X107607833Y-91482848D01*
X107626151Y-91428590D01*
X107626520Y-91419622D01*
X107627155Y-91416197D01*
X107627205Y-91415981D01*
X107627226Y-91415748D01*
X107627689Y-91412315D01*
X107630140Y-91403679D01*
X107629682Y-91346452D01*
X107629784Y-91340266D01*
X107631768Y-91292024D01*
X107632137Y-91283056D01*
X107629973Y-91274341D01*
X107629623Y-91270890D01*
X107629610Y-91270656D01*
X107629568Y-91270444D01*
X107629046Y-91266997D01*
X107628974Y-91258026D01*
X107626386Y-91249430D01*
X107612466Y-91203203D01*
X107610828Y-91197237D01*
X107597035Y-91141691D01*
X107592514Y-91133936D01*
X107591210Y-91130725D01*
X107591133Y-91130507D01*
X107591027Y-91130304D01*
X107589562Y-91127148D01*
X107586974Y-91118555D01*
X107555745Y-91070574D01*
X107552531Y-91065361D01*
X107523669Y-91015860D01*
X107517157Y-91009689D01*
X107514982Y-91006945D01*
X107514861Y-91006776D01*
X107514697Y-91006606D01*
X107512413Y-91003998D01*
X107507518Y-90996478D01*
X107464091Y-90959202D01*
X107459499Y-90955061D01*
X107424446Y-90921849D01*
X107417933Y-90915678D01*
X107409953Y-90911585D01*
X107407105Y-90909568D01*
X107406933Y-90909434D01*
X107406717Y-90909310D01*
X107403806Y-90907456D01*
X107396993Y-90901608D01*
X107388816Y-90897909D01*
X107388813Y-90897907D01*
X107344840Y-90878014D01*
X107339269Y-90875327D01*
X107296317Y-90853296D01*
X107296315Y-90853295D01*
X107288331Y-90849200D01*
X107279518Y-90847510D01*
X107276215Y-90846372D01*
X107276017Y-90846293D01*
X107275787Y-90846238D01*
X107272461Y-90845272D01*
X107264283Y-90841573D01*
X107207607Y-90833565D01*
X107201505Y-90832550D01*
X107171376Y-90826773D01*
X107145280Y-90821769D01*
X107136341Y-90822621D01*
X107136340Y-90822621D01*
X107097861Y-90826289D01*
X107087684Y-90826845D01*
X106108992Y-90840661D01*
X106040595Y-90821623D01*
X105993350Y-90768629D01*
X105982263Y-90730909D01*
X105934394Y-90362505D01*
X105935681Y-90322116D01*
X105951690Y-90240159D01*
X106046829Y-89753072D01*
X106060454Y-89715846D01*
X106213154Y-89442107D01*
X106310685Y-89267268D01*
X106325758Y-89245838D01*
X106553214Y-88985021D01*
X106796023Y-88706598D01*
X106828575Y-88679956D01*
X107038414Y-88560313D01*
X107113285Y-88544389D01*
X107203232Y-88553329D01*
X107237843Y-88556770D01*
X107243261Y-88557635D01*
X107247972Y-88559407D01*
X107311504Y-88564206D01*
X107314804Y-88564455D01*
X107317777Y-88564715D01*
X107344932Y-88567414D01*
X107349422Y-88567220D01*
X107349606Y-88567225D01*
X107355560Y-88567533D01*
X107393216Y-88570377D01*
X107412836Y-88566213D01*
X107433550Y-88563586D01*
X107453603Y-88562720D01*
X107462096Y-88559833D01*
X107462097Y-88559833D01*
X107486912Y-88551398D01*
X107501306Y-88547440D01*
X107512026Y-88545165D01*
X107535701Y-88540141D01*
X107543604Y-88535889D01*
X107543607Y-88535888D01*
X107553369Y-88530636D01*
X107572516Y-88522300D01*
X107583013Y-88518732D01*
X107583016Y-88518730D01*
X107591511Y-88515843D01*
X107598851Y-88510690D01*
X107598856Y-88510687D01*
X107620304Y-88495628D01*
X107633006Y-88487791D01*
X107656067Y-88475384D01*
X107656072Y-88475380D01*
X107663972Y-88471130D01*
X107678261Y-88457049D01*
X107694296Y-88443676D01*
X107703373Y-88437303D01*
X107703374Y-88437302D01*
X107710719Y-88432145D01*
X107732680Y-88404661D01*
X107742671Y-88393574D01*
X107761321Y-88375195D01*
X107761324Y-88375191D01*
X107767718Y-88368890D01*
X107777479Y-88351367D01*
X107789116Y-88334033D01*
X107796038Y-88325370D01*
X107796040Y-88325366D01*
X107801645Y-88318352D01*
X107805055Y-88310048D01*
X107805057Y-88310045D01*
X107815006Y-88285818D01*
X107817886Y-88279840D01*
X107817780Y-88279791D01*
X107819811Y-88275375D01*
X107822182Y-88271118D01*
X107831573Y-88245689D01*
X107833216Y-88241475D01*
X107853567Y-88191919D01*
X107856978Y-88183614D01*
X107857760Y-88176205D01*
X107860516Y-88167315D01*
X107902142Y-88054600D01*
X107912856Y-88032499D01*
X107913850Y-88030875D01*
X107913852Y-88030869D01*
X107918536Y-88023214D01*
X107920882Y-88014554D01*
X107920884Y-88014550D01*
X107930297Y-87979804D01*
X107933712Y-87969113D01*
X107936396Y-87961845D01*
X107940413Y-87943142D01*
X107941983Y-87936672D01*
X107946531Y-87919884D01*
X107947803Y-87915190D01*
X107948575Y-87908210D01*
X107950618Y-87895619D01*
X107957348Y-87864275D01*
X107957348Y-87864274D01*
X107959233Y-87855496D01*
X107958154Y-87840730D01*
X107958582Y-87817701D01*
X108044089Y-87044310D01*
X108051217Y-87014268D01*
X108347900Y-86215958D01*
X108359720Y-86192187D01*
X108459385Y-86035669D01*
X108628389Y-85770256D01*
X108711513Y-85639714D01*
X108729201Y-85617796D01*
X109258517Y-85094391D01*
X109273793Y-85081514D01*
X109848223Y-84670539D01*
X109994922Y-84565584D01*
X110002406Y-84560623D01*
X110038055Y-84538779D01*
X110038057Y-84538777D01*
X110045710Y-84534088D01*
X110079512Y-84496813D01*
X110085746Y-84490411D01*
X110115603Y-84461848D01*
X110122090Y-84455642D01*
X110126575Y-84447864D01*
X110132115Y-84440803D01*
X110132212Y-84440879D01*
X110132602Y-84440345D01*
X110132499Y-84440275D01*
X110137524Y-84432840D01*
X110143556Y-84426188D01*
X110165545Y-84380908D01*
X110169707Y-84373059D01*
X110194848Y-84329458D01*
X110196968Y-84320739D01*
X110200307Y-84312400D01*
X110200422Y-84312446D01*
X110200645Y-84311826D01*
X110200526Y-84311788D01*
X110203262Y-84303241D01*
X110207185Y-84295163D01*
X110215576Y-84245568D01*
X110217377Y-84236818D01*
X110217822Y-84234991D01*
X110229267Y-84187926D01*
X110228855Y-84178961D01*
X110229718Y-84170028D01*
X110229840Y-84170040D01*
X110229881Y-84169374D01*
X110229758Y-84169371D01*
X110229985Y-84160400D01*
X110231483Y-84151547D01*
X110230436Y-84142631D01*
X110230436Y-84142627D01*
X110225617Y-84101591D01*
X110224890Y-84092681D01*
X110222992Y-84051391D01*
X110222580Y-84042422D01*
X110219667Y-84033930D01*
X110217988Y-84025111D01*
X110218109Y-84025088D01*
X110217962Y-84024443D01*
X110217842Y-84024475D01*
X110215542Y-84015798D01*
X110214495Y-84006883D01*
X110194840Y-83960573D01*
X110191648Y-83952241D01*
X110178235Y-83913137D01*
X110175322Y-83904643D01*
X110143708Y-83859881D01*
X110139612Y-83853701D01*
X102821675Y-72072869D01*
X102818655Y-72067741D01*
X101280423Y-69308745D01*
X101270927Y-69287193D01*
X101234354Y-69177352D01*
X101231811Y-69106401D01*
X101268031Y-69045338D01*
X101331515Y-69013552D01*
X101352568Y-69011554D01*
X102189858Y-69002695D01*
X102778961Y-68996462D01*
X102803374Y-68998588D01*
G37*
%TD.AperFunction*%
%TD*%
M02*
