%TF.GenerationSoftware,KiCad,Pcbnew,(7.0.0-0)*%
%TF.CreationDate,2023-07-23T12:51:31-06:00*%
%TF.ProjectId,SAO_pin,53414f5f-7069-46e2-9e6b-696361645f70,rev?*%
%TF.SameCoordinates,Original*%
%TF.FileFunction,Legend,Top*%
%TF.FilePolarity,Positive*%
%FSLAX46Y46*%
G04 Gerber Fmt 4.6, Leading zero omitted, Abs format (unit mm)*
G04 Created by KiCad (PCBNEW (7.0.0-0)) date 2023-07-23 12:51:31*
%MOMM*%
%LPD*%
G01*
G04 APERTURE LIST*
%ADD10C,0.052277*%
%ADD11C,0.120000*%
%ADD12R,1.700000X1.700000*%
%ADD13O,1.700000X1.700000*%
%ADD14C,0.900000*%
G04 APERTURE END LIST*
%TO.C,svg2mod*%
D10*
X95841349Y-91032645D02*
X95796782Y-91277879D01*
X95733574Y-91515873D01*
X95652533Y-91745823D01*
X95554465Y-91966924D01*
X95440176Y-92178374D01*
X95310473Y-92379368D01*
X95166161Y-92569102D01*
X95008048Y-92746774D01*
X94836939Y-92911578D01*
X94653642Y-93062711D01*
X94458961Y-93199370D01*
X94253705Y-93320750D01*
X94038678Y-93426048D01*
X93814688Y-93514460D01*
X93582540Y-93585182D01*
X93343041Y-93637410D01*
X93487348Y-93455047D01*
X93632135Y-93265677D01*
X93775523Y-93069512D01*
X93915637Y-92866766D01*
X94050598Y-92657650D01*
X94178529Y-92442379D01*
X94297553Y-92221164D01*
X94405792Y-91994218D01*
X94501369Y-91761755D01*
X94582406Y-91523985D01*
X94647026Y-91281124D01*
X94693351Y-91033382D01*
X94719505Y-90780974D01*
X95866471Y-90780974D01*
X95841349Y-91032645D01*
X93583058Y-87589995D02*
X93815191Y-87660779D01*
X94039161Y-87749235D01*
X94254161Y-87854561D01*
X94459388Y-87975955D01*
X94654038Y-88112615D01*
X94837306Y-88263740D01*
X95008387Y-88428528D01*
X95166477Y-88606176D01*
X95310772Y-88795883D01*
X95440467Y-88996847D01*
X95554758Y-89208266D01*
X95652840Y-89429338D01*
X95733909Y-89659262D01*
X95797161Y-89897234D01*
X95841790Y-90142455D01*
X95866994Y-90394121D01*
X94719505Y-90394121D01*
X94693352Y-90141610D01*
X94647028Y-89893798D01*
X94582412Y-89650895D01*
X94501384Y-89413109D01*
X94405822Y-89180648D01*
X94297604Y-88953721D01*
X94178611Y-88732536D01*
X94050720Y-88517301D01*
X93915810Y-88308226D01*
X93775761Y-88105518D01*
X93632451Y-87909387D01*
X93487759Y-87720039D01*
X93343564Y-87537685D01*
X93583058Y-87589995D01*
X94306747Y-91028179D02*
X94254713Y-91271239D01*
X94183311Y-91510014D01*
X94094597Y-91744368D01*
X93990628Y-91974163D01*
X93873461Y-92199259D01*
X93745152Y-92419520D01*
X93607759Y-92634807D01*
X93463337Y-92844983D01*
X93313943Y-93049909D01*
X93161634Y-93249448D01*
X93008466Y-93443461D01*
X93008466Y-90780974D01*
X94337357Y-90780974D01*
X94306747Y-91028179D01*
X93161753Y-87925457D02*
X93314161Y-88124496D01*
X93463631Y-88328715D01*
X93608107Y-88538080D01*
X93745533Y-88752557D01*
X93873853Y-88972111D01*
X93991009Y-89196707D01*
X94094945Y-89426312D01*
X94183605Y-89660890D01*
X94254931Y-89900407D01*
X94306867Y-90144829D01*
X94337357Y-90394121D01*
X93008466Y-90394121D01*
X93008466Y-87731634D01*
X93161753Y-87925457D01*
X92626318Y-93443461D02*
X92473031Y-93249458D01*
X92320624Y-93049945D01*
X92171154Y-92845056D01*
X92026677Y-92634923D01*
X91889251Y-92419679D01*
X91760932Y-92199455D01*
X91643775Y-91974385D01*
X91539839Y-91744601D01*
X91451180Y-91510235D01*
X91379854Y-91271420D01*
X91327917Y-91028289D01*
X91297427Y-90780974D01*
X92626318Y-90780974D01*
X92626318Y-93443461D01*
X92626318Y-90394121D02*
X91297427Y-90394121D01*
X91327927Y-90146805D01*
X91379890Y-89903672D01*
X91451253Y-89664851D01*
X91539956Y-89430474D01*
X91643934Y-89200672D01*
X91761128Y-88975574D01*
X91889473Y-88755312D01*
X92026910Y-88540016D01*
X92171374Y-88329818D01*
X92320805Y-88124847D01*
X92473141Y-87925234D01*
X92626318Y-87731111D01*
X92626318Y-90394121D01*
X90943283Y-91033485D02*
X90990868Y-91281297D01*
X91056234Y-91524200D01*
X91137579Y-91761986D01*
X91233104Y-91994447D01*
X91341009Y-92221374D01*
X91459493Y-92442559D01*
X91586756Y-92657793D01*
X91720998Y-92866869D01*
X91860418Y-93069576D01*
X92003215Y-93265708D01*
X92147590Y-93455056D01*
X92291743Y-93637410D01*
X92052244Y-93585182D01*
X91820097Y-93514460D01*
X91596106Y-93426048D01*
X91381080Y-93320750D01*
X91175823Y-93199370D01*
X90981143Y-93062711D01*
X90797845Y-92911578D01*
X90626736Y-92746774D01*
X90468623Y-92569102D01*
X90324312Y-92379368D01*
X90194608Y-92178374D01*
X90080320Y-91966924D01*
X89982251Y-91745823D01*
X89901210Y-91515873D01*
X89838003Y-91277879D01*
X89793435Y-91032645D01*
X89768314Y-90780974D01*
X90915279Y-90780974D01*
X90943283Y-91033485D01*
X92147436Y-87720039D02*
X92002650Y-87909387D01*
X91859261Y-88105518D01*
X91719147Y-88308226D01*
X91584186Y-88517301D01*
X91456255Y-88732536D01*
X91337231Y-88953721D01*
X91228993Y-89180648D01*
X91133416Y-89413109D01*
X91052379Y-89650895D01*
X90987759Y-89893798D01*
X90941433Y-90141610D01*
X90915279Y-90394121D01*
X89768314Y-90394121D01*
X89793435Y-90142450D01*
X89838003Y-89897215D01*
X89901210Y-89659221D01*
X89982251Y-89429272D01*
X90080320Y-89208170D01*
X90194608Y-88996721D01*
X90324312Y-88795727D01*
X90468623Y-88605992D01*
X90626736Y-88428321D01*
X90797845Y-88263517D01*
X90981143Y-88112384D01*
X91175823Y-87975725D01*
X91381080Y-87854345D01*
X91596106Y-87749047D01*
X91820097Y-87660635D01*
X92052244Y-87589913D01*
X92291743Y-87537685D01*
X92147436Y-87720039D01*
G36*
X89758815Y-92574095D02*
G01*
X89643456Y-92379184D01*
X89539880Y-92176691D01*
X89448565Y-91967098D01*
X89369989Y-91750891D01*
X89304629Y-91528551D01*
X89252963Y-91300563D01*
X89215467Y-91067411D01*
X89192620Y-90829578D01*
X89191069Y-90780974D01*
X89768314Y-90780974D01*
X89793435Y-91032645D01*
X89838003Y-91277879D01*
X89901210Y-91515873D01*
X89982251Y-91745823D01*
X90080320Y-91966924D01*
X90194608Y-92178374D01*
X90324312Y-92379368D01*
X90468623Y-92569102D01*
X90626736Y-92746774D01*
X90797845Y-92911578D01*
X90981143Y-93062711D01*
X91175823Y-93199370D01*
X91381080Y-93320750D01*
X91596106Y-93426048D01*
X91820097Y-93514460D01*
X92052244Y-93585182D01*
X92291743Y-93637410D01*
X93343041Y-93637410D01*
X93582540Y-93585182D01*
X93814688Y-93514460D01*
X94038678Y-93426048D01*
X94253705Y-93320750D01*
X94458961Y-93199370D01*
X94653642Y-93062711D01*
X94836939Y-92911578D01*
X95008048Y-92746774D01*
X95166161Y-92569102D01*
X95310473Y-92379368D01*
X95440176Y-92178374D01*
X95554465Y-91966924D01*
X95652533Y-91745823D01*
X95733574Y-91515873D01*
X95796782Y-91277879D01*
X95841349Y-91032645D01*
X95866471Y-90780974D01*
X94719505Y-90780974D01*
X94693351Y-91033485D01*
X94647026Y-91281297D01*
X94582406Y-91524200D01*
X94501369Y-91761986D01*
X94405792Y-91994447D01*
X94337357Y-92137923D01*
X94297553Y-92221374D01*
X94178529Y-92442559D01*
X94050598Y-92657793D01*
X93915637Y-92866869D01*
X93775523Y-93069576D01*
X93632135Y-93265708D01*
X93487348Y-93455056D01*
X93343041Y-93637410D01*
X92291743Y-93637410D01*
X92147693Y-93455047D01*
X92003388Y-93265677D01*
X91860632Y-93069512D01*
X91721229Y-92866766D01*
X91586985Y-92657650D01*
X91459703Y-92442379D01*
X91341189Y-92221164D01*
X91233247Y-91994218D01*
X91137682Y-91761755D01*
X91056298Y-91523985D01*
X90990900Y-91281124D01*
X90943292Y-91033382D01*
X90915279Y-90780974D01*
X91297427Y-90780974D01*
X91327927Y-91028289D01*
X91379890Y-91271420D01*
X91451253Y-91510235D01*
X91539956Y-91744601D01*
X91643934Y-91974385D01*
X91761128Y-92199455D01*
X91889473Y-92419679D01*
X92026910Y-92634923D01*
X92171374Y-92845056D01*
X92320805Y-93049945D01*
X92473141Y-93249458D01*
X92626318Y-93443461D01*
X92626318Y-90780974D01*
X93008466Y-90780974D01*
X93008466Y-93443461D01*
X93161753Y-93249458D01*
X93314161Y-93049945D01*
X93463631Y-92845056D01*
X93608107Y-92634923D01*
X93745533Y-92419679D01*
X93873853Y-92199455D01*
X93991009Y-91974385D01*
X94094945Y-91744601D01*
X94183605Y-91510235D01*
X94254931Y-91271420D01*
X94306867Y-91028289D01*
X94337357Y-90780974D01*
X93008466Y-90780974D01*
X92626318Y-90780974D01*
X91297427Y-90780974D01*
X90915279Y-90780974D01*
X89768314Y-90780974D01*
X89191069Y-90780974D01*
X89184898Y-90587547D01*
X89191069Y-90394121D01*
X89768314Y-90394121D01*
X90915279Y-90394121D01*
X91297427Y-90394121D01*
X92626318Y-90394121D01*
X93008466Y-90394121D01*
X94337357Y-90394121D01*
X94306867Y-90144719D01*
X94254931Y-89900223D01*
X94183605Y-89660661D01*
X94094945Y-89426060D01*
X93991009Y-89196447D01*
X93873853Y-88971849D01*
X93745533Y-88752294D01*
X93608107Y-88537809D01*
X93463631Y-88328421D01*
X93314161Y-88124157D01*
X93161753Y-87925045D01*
X93008466Y-87731111D01*
X93008466Y-90394121D01*
X92626318Y-90394121D01*
X92626318Y-87731634D01*
X92473031Y-87925637D01*
X92320624Y-88125149D01*
X92171154Y-88330038D01*
X92026677Y-88540171D01*
X91889251Y-88755416D01*
X91760932Y-88975639D01*
X91643775Y-89200710D01*
X91539839Y-89430494D01*
X91451180Y-89664860D01*
X91379854Y-89903674D01*
X91327917Y-90146806D01*
X91297427Y-90394121D01*
X90915279Y-90394121D01*
X90941433Y-90141610D01*
X90987759Y-89893798D01*
X91052379Y-89650895D01*
X91133416Y-89413109D01*
X91228993Y-89180648D01*
X91337231Y-88953721D01*
X91456255Y-88732536D01*
X91584186Y-88517301D01*
X91719147Y-88308226D01*
X91859261Y-88105518D01*
X92002650Y-87909387D01*
X92147436Y-87720039D01*
X92291743Y-87537685D01*
X93343041Y-87537685D01*
X93487348Y-87720039D01*
X93632135Y-87909387D01*
X93775523Y-88105518D01*
X93915637Y-88308226D01*
X94050598Y-88517301D01*
X94178529Y-88732536D01*
X94297553Y-88953721D01*
X94405792Y-89180648D01*
X94501369Y-89413109D01*
X94582406Y-89650895D01*
X94647026Y-89893798D01*
X94693351Y-90141610D01*
X94719505Y-90394121D01*
X95866471Y-90394121D01*
X95841349Y-90142450D01*
X95796782Y-89897215D01*
X95733574Y-89659221D01*
X95652533Y-89429272D01*
X95554465Y-89208170D01*
X95440176Y-88996721D01*
X95310473Y-88795727D01*
X95166161Y-88605992D01*
X95008048Y-88428321D01*
X94836939Y-88263517D01*
X94653642Y-88112384D01*
X94458961Y-87975725D01*
X94253705Y-87854345D01*
X94038678Y-87749047D01*
X93814688Y-87660635D01*
X93582540Y-87589913D01*
X93343041Y-87537685D01*
X92291743Y-87537685D01*
X92052250Y-87589995D01*
X91820116Y-87660779D01*
X91596147Y-87749235D01*
X91381146Y-87854561D01*
X91175919Y-87975955D01*
X90981269Y-88112615D01*
X90798001Y-88263740D01*
X90626920Y-88428528D01*
X90468830Y-88606176D01*
X90324535Y-88795883D01*
X90194840Y-88996847D01*
X90080549Y-89208266D01*
X89982467Y-89429338D01*
X89901398Y-89659262D01*
X89838146Y-89897234D01*
X89793517Y-90142455D01*
X89768314Y-90394121D01*
X89191069Y-90394121D01*
X89192620Y-90345517D01*
X89215467Y-90107683D01*
X89252963Y-89874531D01*
X89304629Y-89646544D01*
X89369989Y-89424204D01*
X89448565Y-89207996D01*
X89539880Y-88998404D01*
X89643456Y-88795910D01*
X89758815Y-88600999D01*
X89885482Y-88414155D01*
X90022977Y-88235860D01*
X90170825Y-88066598D01*
X90328547Y-87906853D01*
X90495666Y-87757109D01*
X90671704Y-87617849D01*
X90856185Y-87489556D01*
X91048631Y-87372715D01*
X91248565Y-87267809D01*
X91455509Y-87175321D01*
X91668986Y-87095736D01*
X91888518Y-87029536D01*
X92113628Y-86977205D01*
X92343839Y-86939227D01*
X92578673Y-86916086D01*
X92817654Y-86908265D01*
X93056631Y-86916086D01*
X93291459Y-86939227D01*
X93521658Y-86977205D01*
X93746754Y-87029536D01*
X93966267Y-87095736D01*
X94179722Y-87175321D01*
X94386642Y-87267809D01*
X94586549Y-87372715D01*
X94778967Y-87489556D01*
X94963419Y-87617849D01*
X95139427Y-87757109D01*
X95306515Y-87906853D01*
X95464205Y-88066598D01*
X95612022Y-88235860D01*
X95749487Y-88414155D01*
X95876124Y-88600999D01*
X95991455Y-88795910D01*
X96095005Y-88998404D01*
X96186295Y-89207996D01*
X96264850Y-89424204D01*
X96330191Y-89646544D01*
X96381842Y-89874531D01*
X96419327Y-90107683D01*
X96442167Y-90345517D01*
X96449887Y-90587547D01*
X96442167Y-90829578D01*
X96419327Y-91067411D01*
X96381842Y-91300563D01*
X96330191Y-91528551D01*
X96264850Y-91750891D01*
X96186295Y-91967098D01*
X96095005Y-92176691D01*
X95991455Y-92379184D01*
X95876124Y-92574095D01*
X95866471Y-92588337D01*
X95749487Y-92760940D01*
X95612022Y-92939235D01*
X95464205Y-93108497D01*
X95306515Y-93268241D01*
X95139427Y-93417986D01*
X94963419Y-93557246D01*
X94778967Y-93685538D01*
X94586549Y-93802379D01*
X94386642Y-93907286D01*
X94179722Y-93999773D01*
X93966267Y-94079359D01*
X93746754Y-94145559D01*
X93521658Y-94197890D01*
X93343041Y-94227357D01*
X93291459Y-94235867D01*
X93056631Y-94259009D01*
X93008466Y-94260585D01*
X92817654Y-94266830D01*
X92626318Y-94260568D01*
X92578673Y-94259009D01*
X92343839Y-94235867D01*
X92291743Y-94227273D01*
X92113628Y-94197890D01*
X91888518Y-94145559D01*
X91668986Y-94079359D01*
X91455509Y-93999773D01*
X91248565Y-93907286D01*
X91048631Y-93802379D01*
X90856185Y-93685538D01*
X90671704Y-93557246D01*
X90495666Y-93417986D01*
X90328547Y-93268241D01*
X90170825Y-93108497D01*
X90022977Y-92939235D01*
X89885482Y-92760940D01*
X89768314Y-92588106D01*
X89758815Y-92574095D01*
G37*
G36*
X96669452Y-85724705D02*
G01*
X96715456Y-85741433D01*
X96760414Y-85768095D01*
X96803282Y-85797370D01*
X96839876Y-85834487D01*
X96897904Y-85916040D01*
X96952795Y-86086138D01*
X96959068Y-86244865D01*
X96943189Y-86393398D01*
X96913587Y-86534481D01*
X96849408Y-86751727D01*
X96772242Y-86961326D01*
X96684587Y-87164653D01*
X96588944Y-87363078D01*
X97130015Y-87400718D01*
X96018598Y-88338051D01*
X96122630Y-86887877D01*
X96465570Y-87296686D01*
X96537394Y-87096504D01*
X96601818Y-86895391D01*
X96655753Y-86693789D01*
X96696113Y-86492137D01*
X96712319Y-86244865D01*
X96665269Y-86049870D01*
X96546077Y-85990274D01*
X96340104Y-86029482D01*
X96117206Y-86129985D01*
X95897837Y-86262639D01*
X95683304Y-86411041D01*
X95473868Y-86570030D01*
X95309922Y-86703693D01*
X95148585Y-86841496D01*
X94989708Y-86982938D01*
X94833139Y-87127516D01*
X94678729Y-87274729D01*
X94507496Y-87439105D01*
X94338695Y-87606188D01*
X94172122Y-87775702D01*
X94007576Y-87947371D01*
X93844854Y-88120920D01*
X93683754Y-88296075D01*
X93524075Y-88472558D01*
X93365612Y-88650096D01*
X93208166Y-88828413D01*
X93051562Y-89008049D01*
X92896719Y-89189281D01*
X92743497Y-89371963D01*
X92591760Y-89555948D01*
X92441370Y-89741091D01*
X92292188Y-89927245D01*
X92144078Y-90114264D01*
X91996902Y-90302002D01*
X91850522Y-90490311D01*
X91705133Y-90679403D01*
X91561647Y-90869868D01*
X91419950Y-91061606D01*
X91279931Y-91254519D01*
X91141478Y-91448508D01*
X91004480Y-91643473D01*
X90868824Y-91839316D01*
X90734399Y-92035938D01*
X90601092Y-92233239D01*
X90483431Y-92412225D01*
X90367676Y-92592264D01*
X90253979Y-92773407D01*
X90142490Y-92955705D01*
X90033360Y-93139207D01*
X89926844Y-93324147D01*
X89821984Y-93509740D01*
X89719934Y-93696387D01*
X89621849Y-93884490D01*
X89528883Y-94074449D01*
X89420620Y-94314067D01*
X89323825Y-94556773D01*
X89245262Y-94799969D01*
X89191694Y-95041058D01*
X89191171Y-95256964D01*
X89262791Y-95369360D01*
X89448376Y-95381907D01*
X89682579Y-95315514D01*
X89871777Y-95232159D01*
X90057562Y-95134350D01*
X90240286Y-95025575D01*
X90420300Y-94909323D01*
X90597956Y-94789081D01*
X90773056Y-94663540D01*
X90946474Y-94534912D01*
X91118287Y-94403500D01*
X91288569Y-94269603D01*
X91457396Y-94133523D01*
X91308456Y-94291580D01*
X91156805Y-94447329D01*
X91001993Y-94600217D01*
X90843567Y-94749693D01*
X90681077Y-94895204D01*
X90542813Y-95013893D01*
X90400599Y-95128865D01*
X90253970Y-95239189D01*
X90102656Y-95345061D01*
X89945069Y-95444543D01*
X89778769Y-95535079D01*
X89645592Y-95593957D01*
X89500653Y-95639111D01*
X89338071Y-95660872D01*
X89153531Y-95629701D01*
X89062046Y-95579515D01*
X88986244Y-95506327D01*
X88932921Y-95421115D01*
X88899463Y-95334334D01*
X88872475Y-95168615D01*
X88871756Y-95012305D01*
X88895475Y-94815878D01*
X88934644Y-94627583D01*
X88985198Y-94445096D01*
X89043265Y-94266965D01*
X89107489Y-94092436D01*
X89176011Y-93920231D01*
X89272751Y-93693900D01*
X89375115Y-93470925D01*
X89482569Y-93251022D01*
X89594580Y-93033907D01*
X89710613Y-92819297D01*
X89830136Y-92606907D01*
X89952615Y-92396452D01*
X90077517Y-92187651D01*
X90204307Y-91980217D01*
X90333408Y-91774256D01*
X90465421Y-91570305D01*
X90600086Y-91368204D01*
X90737138Y-91167793D01*
X90876315Y-90968915D01*
X91017356Y-90771409D01*
X91159997Y-90575116D01*
X91303977Y-90379878D01*
X91449032Y-90185534D01*
X91605868Y-89982268D01*
X91764414Y-89780284D01*
X91924728Y-89579661D01*
X92086870Y-89380476D01*
X92250899Y-89182807D01*
X92416875Y-88986733D01*
X92584857Y-88792330D01*
X92754904Y-88599678D01*
X92927076Y-88408853D01*
X93101432Y-88219934D01*
X93278032Y-88032999D01*
X93456934Y-87848125D01*
X93638199Y-87665391D01*
X93821885Y-87484874D01*
X94008052Y-87306652D01*
X94196759Y-87130803D01*
X94388066Y-86957406D01*
X94554296Y-86813739D01*
X94723210Y-86672782D01*
X94895111Y-86534862D01*
X95070299Y-86400304D01*
X95249075Y-86269435D01*
X95432891Y-86143806D01*
X95621148Y-86022845D01*
X95817661Y-85911218D01*
X96026243Y-85813593D01*
X96250710Y-85734637D01*
X96404405Y-85703271D01*
X96576921Y-85703271D01*
X96669452Y-85724705D01*
G37*
G36*
X100584026Y-82755482D02*
G01*
X99126945Y-82755482D01*
X99126945Y-83202057D01*
X100320652Y-83202057D01*
X100320652Y-83491382D01*
X99126945Y-83491382D01*
X99126945Y-83959647D01*
X100584026Y-83959647D01*
X100584026Y-84274534D01*
X98728010Y-84274534D01*
X98728010Y-82436722D01*
X100584026Y-82436722D01*
X100584026Y-82755482D01*
G37*
G36*
X97318145Y-82420727D02*
G01*
X97561415Y-82459912D01*
X97787547Y-82523135D01*
X97992110Y-82608690D01*
X97992110Y-82963858D01*
X97793720Y-82878564D01*
X97579135Y-82808738D01*
X97343199Y-82761570D01*
X97080757Y-82744250D01*
X96887651Y-82756427D01*
X96692695Y-82796480D01*
X96512371Y-82869692D01*
X96363161Y-82981345D01*
X96261548Y-83136721D01*
X96224014Y-83341104D01*
X96265603Y-83556200D01*
X96382894Y-83729355D01*
X96564679Y-83857203D01*
X96799745Y-83936380D01*
X97076883Y-83963520D01*
X97301103Y-83945867D01*
X97525685Y-83885621D01*
X97720784Y-83771853D01*
X97856550Y-83593633D01*
X97223289Y-83593633D01*
X97223289Y-83297337D01*
X97223289Y-83296950D01*
X98303125Y-83296950D01*
X98306998Y-83395715D01*
X98280374Y-83606403D01*
X98204535Y-83790517D01*
X98085531Y-83947588D01*
X97929413Y-84077148D01*
X97742232Y-84178732D01*
X97530037Y-84251870D01*
X97298878Y-84296096D01*
X97054806Y-84310942D01*
X96808434Y-84295105D01*
X96575546Y-84248082D01*
X96362111Y-84170603D01*
X96174099Y-84063399D01*
X96017478Y-83927201D01*
X95898215Y-83762739D01*
X95822281Y-83570745D01*
X95795643Y-83351948D01*
X95823789Y-83125317D01*
X95903450Y-82930979D01*
X96027465Y-82768295D01*
X96188672Y-82636625D01*
X96379907Y-82535329D01*
X96594010Y-82463767D01*
X96823817Y-82421299D01*
X97062165Y-82407286D01*
X97318145Y-82420727D01*
G37*
G36*
X95736771Y-84274534D02*
G01*
X95290197Y-84274534D01*
X95084919Y-83963520D01*
X94081385Y-83963520D01*
X94295570Y-83637787D01*
X94872670Y-83637787D01*
X94462890Y-83011498D01*
X93635584Y-84274534D01*
X93188622Y-84274534D01*
X94462890Y-82407673D01*
X95736771Y-84274534D01*
G37*
G36*
X91764463Y-83930598D02*
G01*
X93104187Y-83930598D01*
X93104187Y-84274534D01*
X91365528Y-84274534D01*
X91365528Y-82436722D01*
X91764463Y-82436722D01*
X91764463Y-83930598D01*
G37*
G36*
X89626480Y-83930598D02*
G01*
X90966205Y-83930598D01*
X90966205Y-84274534D01*
X89227158Y-84274534D01*
X89227158Y-82436722D01*
X89626480Y-82436722D01*
X89626480Y-83930598D01*
G37*
G36*
X88604741Y-84274534D02*
G01*
X88205806Y-84274534D01*
X88205806Y-82436722D01*
X88604741Y-82436722D01*
X88604741Y-84274534D01*
G37*
G36*
X86653446Y-83681554D02*
G01*
X87429626Y-82436722D01*
X87898278Y-82436722D01*
X86653446Y-84311329D01*
X85415972Y-82436722D01*
X85888498Y-82436722D01*
X86653446Y-83681554D01*
G37*
G36*
X103994728Y-79037640D02*
G01*
X102537647Y-79037640D01*
X102537647Y-79484215D01*
X103730966Y-79484215D01*
X103730966Y-79773540D01*
X102537647Y-79773540D01*
X102537647Y-80242191D01*
X103994728Y-80242191D01*
X103994728Y-80557079D01*
X102138324Y-80557079D01*
X102138324Y-78719266D01*
X103994728Y-78719266D01*
X103994728Y-79037640D01*
G37*
G36*
X101027763Y-78699810D02*
G01*
X101245513Y-78731128D01*
X101447504Y-78783724D01*
X101636750Y-78857925D01*
X101636750Y-79235171D01*
X101481382Y-79159535D01*
X101287343Y-79096609D01*
X101058373Y-79053580D01*
X100798212Y-79037640D01*
X100534201Y-79056197D01*
X100311557Y-79110441D01*
X100133240Y-79198231D01*
X100002207Y-79317425D01*
X99921417Y-79465884D01*
X99893830Y-79641465D01*
X99921199Y-79817209D01*
X100001748Y-79965777D01*
X100133143Y-80085038D01*
X100313049Y-80172862D01*
X100539132Y-80227118D01*
X100809057Y-80245677D01*
X101061907Y-80231661D01*
X101291410Y-80193971D01*
X101486563Y-80139141D01*
X101636363Y-80073709D01*
X101636363Y-80429265D01*
X101446627Y-80501227D01*
X101243819Y-80552673D01*
X101025905Y-80583568D01*
X100790853Y-80593874D01*
X100499617Y-80578051D01*
X100239540Y-80531123D01*
X100012986Y-80453902D01*
X99822322Y-80347202D01*
X99669911Y-80211835D01*
X99558118Y-80048612D01*
X99489309Y-79858347D01*
X99465846Y-79641852D01*
X99489309Y-79425356D01*
X99558124Y-79235086D01*
X99669932Y-79071849D01*
X99822370Y-78936454D01*
X100013081Y-78829707D01*
X100239703Y-78752418D01*
X100499876Y-78705394D01*
X100791240Y-78689443D01*
X101027763Y-78699810D01*
G37*
G36*
X99403489Y-80557079D02*
G01*
X98956914Y-80557079D01*
X98751636Y-80245677D01*
X97747714Y-80245677D01*
X97961900Y-79919945D01*
X98539388Y-79919945D01*
X98129608Y-79294043D01*
X97302301Y-80557079D01*
X96855339Y-80557079D01*
X98129608Y-78689830D01*
X99403489Y-80557079D01*
G37*
G36*
X95346745Y-79967585D02*
G01*
X95346745Y-80557079D01*
X94947810Y-80557079D01*
X94947810Y-79619775D01*
X95347132Y-79619775D01*
X96126799Y-79619775D01*
X96371180Y-79575306D01*
X96483789Y-79469038D01*
X96511016Y-79341683D01*
X96483789Y-79216781D01*
X96371180Y-79111416D01*
X96126799Y-79067076D01*
X95347132Y-79067076D01*
X95347132Y-79619775D01*
X94947810Y-79619775D01*
X94947810Y-78719266D01*
X96210846Y-78719266D01*
X96488669Y-78756594D01*
X96693764Y-78856147D01*
X96832413Y-78999277D01*
X96910902Y-79167338D01*
X96935514Y-79341683D01*
X96910753Y-79516390D01*
X96832246Y-79685315D01*
X96693652Y-79829477D01*
X96488632Y-79929894D01*
X96210846Y-79967585D01*
X96126799Y-79967585D01*
X95346745Y-79967585D01*
G37*
G36*
X93762328Y-78698938D02*
G01*
X94005132Y-78721445D01*
X94201241Y-78750125D01*
X94332753Y-78777751D01*
X94314549Y-79110843D01*
X94119586Y-79066875D01*
X93866181Y-79035129D01*
X93556572Y-79022922D01*
X93319378Y-79031473D01*
X93111740Y-79063735D01*
X92964524Y-79129621D01*
X92908593Y-79239044D01*
X92945263Y-79323451D01*
X93045807Y-79375525D01*
X93196030Y-79405050D01*
X93381734Y-79421809D01*
X93588724Y-79435588D01*
X93802802Y-79456172D01*
X94009772Y-79493344D01*
X94195438Y-79556888D01*
X94345603Y-79656591D01*
X94446070Y-79802235D01*
X94482644Y-80003605D01*
X94439858Y-80223984D01*
X94322137Y-80382629D01*
X94145437Y-80489202D01*
X93925713Y-80553364D01*
X93678919Y-80584776D01*
X93421012Y-80593099D01*
X93179787Y-80587816D01*
X92935802Y-80572620D01*
X92700096Y-80548491D01*
X92483708Y-80516411D01*
X92498426Y-80183319D01*
X92712799Y-80217095D01*
X92925393Y-80241175D01*
X93141400Y-80255596D01*
X93366013Y-80260395D01*
X93639863Y-80250410D01*
X93871121Y-80213627D01*
X94030991Y-80139807D01*
X94090680Y-80018710D01*
X94053938Y-79926472D01*
X93953194Y-79868729D01*
X93802670Y-79835495D01*
X93616590Y-79816787D01*
X93409175Y-79802618D01*
X93194649Y-79783004D01*
X92987235Y-79747958D01*
X92801154Y-79687496D01*
X92650630Y-79591633D01*
X92549886Y-79450384D01*
X92513144Y-79253762D01*
X92556832Y-79039042D01*
X92674669Y-78886185D01*
X92846816Y-78785013D01*
X93053435Y-78725349D01*
X93274685Y-78697014D01*
X93490729Y-78689830D01*
X93762328Y-78698938D01*
G37*
G36*
X90586985Y-80576387D02*
G01*
X90344812Y-80527304D01*
X90125887Y-80447429D01*
X89935317Y-80338342D01*
X89778206Y-80201623D01*
X89659663Y-80038851D01*
X89584792Y-79851605D01*
X89558749Y-79641852D01*
X89987072Y-79641852D01*
X90028756Y-79846324D01*
X90146534Y-80012963D01*
X90329493Y-80137399D01*
X90566719Y-80215265D01*
X90847300Y-80242191D01*
X91127880Y-80215265D01*
X91365106Y-80137399D01*
X91548065Y-80012963D01*
X91665843Y-79846324D01*
X91707528Y-79641852D01*
X91665843Y-79434703D01*
X91548065Y-79267730D01*
X91365106Y-79144297D01*
X91127880Y-79067770D01*
X90847300Y-79041513D01*
X90566719Y-79067770D01*
X90329493Y-79144297D01*
X90146534Y-79267730D01*
X90028756Y-79434703D01*
X89987072Y-79641852D01*
X89558749Y-79641852D01*
X89558701Y-79641465D01*
X89584792Y-79429323D01*
X89659663Y-79241138D01*
X89778206Y-79078243D01*
X89935317Y-78941973D01*
X90125887Y-78833662D01*
X90344812Y-78754645D01*
X90586985Y-78706257D01*
X90847300Y-78689830D01*
X91108726Y-78706257D01*
X91351421Y-78754645D01*
X91570414Y-78833662D01*
X91760735Y-78941973D01*
X91917414Y-79078243D01*
X92035481Y-79241138D01*
X92109966Y-79429323D01*
X92135899Y-79641465D01*
X92109950Y-79851494D01*
X92035427Y-80038687D01*
X91917312Y-80201453D01*
X91760590Y-80338197D01*
X91570244Y-80447327D01*
X91351258Y-80527250D01*
X91108615Y-80576371D01*
X90847300Y-80593099D01*
X90586985Y-80576387D01*
G37*
G36*
X88397528Y-79982303D02*
G01*
X87610503Y-79982303D01*
X87610503Y-80557079D01*
X87211568Y-80557079D01*
X87211568Y-79630620D01*
X87610890Y-79630620D01*
X88409148Y-79630620D01*
X88636186Y-79586882D01*
X88739715Y-79480571D01*
X88764316Y-79349042D01*
X88739715Y-79224140D01*
X88636186Y-79118775D01*
X88409148Y-79074435D01*
X87610890Y-79074435D01*
X87610890Y-79630620D01*
X87211568Y-79630620D01*
X87211568Y-78719266D01*
X88467245Y-78719266D01*
X88745071Y-78757360D01*
X88950187Y-78858737D01*
X89088896Y-79004046D01*
X89167499Y-79173932D01*
X89192300Y-79349042D01*
X89153698Y-79572767D01*
X89029627Y-79775490D01*
X88807696Y-79923818D01*
X89232193Y-80557079D01*
X88785619Y-80557079D01*
X88409148Y-79999512D01*
X88397528Y-79982303D01*
G37*
G36*
X86717353Y-79037640D02*
G01*
X85260272Y-79037640D01*
X85260272Y-79484215D01*
X86453979Y-79484215D01*
X86453979Y-79773540D01*
X85260272Y-79773540D01*
X85260272Y-80242191D01*
X86717353Y-80242191D01*
X86717353Y-80557079D01*
X84861337Y-80557079D01*
X84861337Y-78719266D01*
X86717353Y-78719266D01*
X86717353Y-79037640D01*
G37*
G36*
X84553808Y-80557079D02*
G01*
X84107233Y-80557079D01*
X83901956Y-80245677D01*
X82901907Y-80245677D01*
X83116093Y-79919945D01*
X83689707Y-79919945D01*
X83279927Y-79294043D01*
X82869760Y-79919945D01*
X82870147Y-79919945D01*
X82655962Y-80245677D01*
X82653638Y-80245677D01*
X82452234Y-80557079D01*
X82005659Y-80557079D01*
X83279927Y-78689830D01*
X84553808Y-80557079D01*
G37*
D11*
%TO.C,J1*%
X96830000Y-55870000D02*
X96830000Y-50670000D01*
X91690000Y-53270000D02*
X91690000Y-50670000D01*
X89090000Y-55870000D02*
X96830000Y-55870000D01*
X89090000Y-52000000D02*
X89090000Y-50670000D01*
X91690000Y-50670000D02*
X96830000Y-50670000D01*
X89090000Y-55870000D02*
X89090000Y-53270000D01*
X89090000Y-53270000D02*
X91690000Y-53270000D01*
X89090000Y-50670000D02*
X90420000Y-50670000D01*
%TD*%
%LPC*%
D12*
%TO.C,J1*%
X90419999Y-51999999D03*
D13*
X90419999Y-54539999D03*
X92959999Y-51999999D03*
X92959999Y-54539999D03*
X95499999Y-51999999D03*
X95499999Y-54539999D03*
%TD*%
D14*
%TO.C,SW1*%
X82390000Y-55650000D03*
X82390000Y-58650000D03*
%TD*%
M02*
