%TF.GenerationSoftware,KiCad,Pcbnew,(7.0.0-0)*%
%TF.CreationDate,2023-07-23T12:51:31-06:00*%
%TF.ProjectId,SAO_pin,53414f5f-7069-46e2-9e6b-696361645f70,rev?*%
%TF.SameCoordinates,Original*%
%TF.FileFunction,Profile,NP*%
%FSLAX46Y46*%
G04 Gerber Fmt 4.6, Leading zero omitted, Abs format (unit mm)*
G04 Created by KiCad (PCBNEW (7.0.0-0)) date 2023-07-23 12:51:31*
%MOMM*%
%LPD*%
G01*
G04 APERTURE LIST*
%TA.AperFunction,Profile*%
%ADD10C,0.100000*%
%TD*%
%TA.AperFunction,Profile*%
%ADD11C,0.139900*%
%TD*%
G04 APERTURE END LIST*
D10*
X104500000Y-53500000D02*
G75*
G03*
X104500000Y-53500000I-1500000J0D01*
G01*
%TO.C,svg2mod*%
D11*
X100163754Y-37071578D02*
X100296167Y-37076455D01*
X100428421Y-37084581D01*
X100560435Y-37095949D01*
X100692130Y-37110554D01*
X100823428Y-37128386D01*
X100954248Y-37149435D01*
X101084512Y-37173689D01*
X101214142Y-37201131D01*
X101343060Y-37231747D01*
X101471187Y-37265518D01*
X101598447Y-37302422D01*
X101724762Y-37342439D01*
X101850058Y-37385543D01*
X101974258Y-37431710D01*
X102097288Y-37480911D01*
X102219073Y-37533116D01*
X102339540Y-37588294D01*
X102458617Y-37646412D01*
X102576232Y-37707434D01*
X102692314Y-37771325D01*
X102806793Y-37838045D01*
X102919600Y-37907555D01*
X103030667Y-37979812D01*
X103139927Y-38054773D01*
X103247315Y-38132393D01*
X103352766Y-38212625D01*
X103456216Y-38295421D01*
X103557603Y-38380730D01*
X103656865Y-38468502D01*
X103753944Y-38558684D01*
X103848781Y-38651221D01*
X103941317Y-38746057D01*
X104031499Y-38843136D01*
X104119271Y-38942398D01*
X104204580Y-39043785D01*
X104287376Y-39147235D01*
X104367608Y-39252686D01*
X104445228Y-39360074D01*
X104520189Y-39469334D01*
X104592446Y-39580401D01*
X104661956Y-39693208D01*
X104728676Y-39807687D01*
X104792567Y-39923769D01*
X104853589Y-40041384D01*
X104911707Y-40160461D01*
X104966885Y-40280928D01*
X105019091Y-40402713D01*
X105068291Y-40525743D01*
X105114458Y-40649943D01*
X105157562Y-40775239D01*
X105197579Y-40901555D01*
X105234483Y-41028814D01*
X105268254Y-41156941D01*
X105298870Y-41285859D01*
X105326313Y-41415489D01*
X105350566Y-41545753D01*
X105371615Y-41676573D01*
X105389447Y-41807871D01*
X105404052Y-41939566D01*
X105415421Y-42071580D01*
X105423546Y-42203834D01*
X105428423Y-42336247D01*
X105430049Y-42468740D01*
X105430049Y-91531260D01*
X105428423Y-91663753D01*
X105423546Y-91796166D01*
X105415421Y-91928420D01*
X105404052Y-92060434D01*
X105389447Y-92192129D01*
X105371615Y-92323427D01*
X105350566Y-92454247D01*
X105326313Y-92584511D01*
X105298870Y-92714141D01*
X105268254Y-92843059D01*
X105234483Y-92971186D01*
X105197579Y-93098445D01*
X105157562Y-93224761D01*
X105114458Y-93350057D01*
X105068291Y-93474257D01*
X105019091Y-93597287D01*
X104966885Y-93719072D01*
X104911707Y-93839539D01*
X104853589Y-93958616D01*
X104792567Y-94076231D01*
X104728676Y-94192313D01*
X104661956Y-94306792D01*
X104592446Y-94419599D01*
X104520189Y-94530666D01*
X104445228Y-94639926D01*
X104367608Y-94747314D01*
X104287376Y-94852765D01*
X104204580Y-94956215D01*
X104119271Y-95057602D01*
X104031499Y-95156864D01*
X103941317Y-95253943D01*
X103848781Y-95348779D01*
X103753944Y-95441316D01*
X103656865Y-95531498D01*
X103557603Y-95619270D01*
X103456216Y-95704579D01*
X103352766Y-95787375D01*
X103247315Y-95867607D01*
X103139927Y-95945227D01*
X103030667Y-96020188D01*
X102919600Y-96092445D01*
X102806793Y-96161955D01*
X102692314Y-96228675D01*
X102576232Y-96292566D01*
X102458617Y-96353588D01*
X102339540Y-96411706D01*
X102219073Y-96466884D01*
X102097288Y-96519089D01*
X101974258Y-96568290D01*
X101850058Y-96614457D01*
X101724762Y-96657561D01*
X101598447Y-96697578D01*
X101471187Y-96734482D01*
X101343060Y-96768253D01*
X101214142Y-96798869D01*
X101084512Y-96826311D01*
X100954248Y-96850565D01*
X100823428Y-96871614D01*
X100692130Y-96889446D01*
X100560435Y-96904051D01*
X100428421Y-96915419D01*
X100296167Y-96923545D01*
X100163754Y-96928422D01*
X100031261Y-96930048D01*
X85968739Y-96930048D01*
X85836246Y-96928422D01*
X85703833Y-96923545D01*
X85571579Y-96915419D01*
X85439565Y-96904051D01*
X85307870Y-96889446D01*
X85176572Y-96871614D01*
X85045752Y-96850565D01*
X84915488Y-96826311D01*
X84785858Y-96798869D01*
X84656940Y-96768253D01*
X84528813Y-96734482D01*
X84401553Y-96697578D01*
X84275238Y-96657561D01*
X84149942Y-96614457D01*
X84025742Y-96568290D01*
X83902712Y-96519089D01*
X83780927Y-96466884D01*
X83660460Y-96411706D01*
X83541383Y-96353588D01*
X83423768Y-96292566D01*
X83307686Y-96228675D01*
X83193207Y-96161955D01*
X83080400Y-96092445D01*
X82969333Y-96020188D01*
X82860073Y-95945227D01*
X82752685Y-95867607D01*
X82647234Y-95787375D01*
X82543784Y-95704579D01*
X82442397Y-95619270D01*
X82343135Y-95531498D01*
X82246056Y-95441316D01*
X82151219Y-95348779D01*
X82058683Y-95253943D01*
X81968501Y-95156864D01*
X81880729Y-95057602D01*
X81795420Y-94956215D01*
X81712624Y-94852765D01*
X81632392Y-94747314D01*
X81554772Y-94639926D01*
X81479811Y-94530666D01*
X81407554Y-94419599D01*
X81338044Y-94306792D01*
X81271324Y-94192313D01*
X81207433Y-94076231D01*
X81146411Y-93958616D01*
X81088293Y-93839539D01*
X81033115Y-93719072D01*
X80980909Y-93597287D01*
X80931709Y-93474257D01*
X80885542Y-93350057D01*
X80842438Y-93224761D01*
X80802421Y-93098445D01*
X80765517Y-92971186D01*
X80731746Y-92843059D01*
X80701130Y-92714141D01*
X80673687Y-92584511D01*
X80649434Y-92454247D01*
X80628385Y-92323427D01*
X80610553Y-92192129D01*
X80595948Y-92060434D01*
X80584579Y-91928420D01*
X80576454Y-91796166D01*
X80571577Y-91663753D01*
X80569951Y-91531260D01*
X80569951Y-42468740D01*
X80571577Y-42336247D01*
X80576454Y-42203834D01*
X80584579Y-42071580D01*
X80595948Y-41939566D01*
X80610553Y-41807871D01*
X80628385Y-41676573D01*
X80649434Y-41545753D01*
X80673687Y-41415489D01*
X80701130Y-41285859D01*
X80731746Y-41156941D01*
X80765517Y-41028814D01*
X80802421Y-40901555D01*
X80842438Y-40775239D01*
X80885542Y-40649943D01*
X80931709Y-40525743D01*
X80980909Y-40402713D01*
X81033115Y-40280928D01*
X81088293Y-40160461D01*
X81146411Y-40041384D01*
X81207433Y-39923769D01*
X81271324Y-39807687D01*
X81338044Y-39693208D01*
X81407554Y-39580401D01*
X81479811Y-39469334D01*
X81554772Y-39360074D01*
X81632392Y-39252686D01*
X81712624Y-39147235D01*
X81795420Y-39043785D01*
X81880729Y-38942398D01*
X81968501Y-38843136D01*
X82058683Y-38746057D01*
X82151219Y-38651221D01*
X82246056Y-38558684D01*
X82343135Y-38468502D01*
X82442397Y-38380730D01*
X82543784Y-38295421D01*
X82647234Y-38212625D01*
X82752685Y-38132393D01*
X82860073Y-38054773D01*
X82969333Y-37979812D01*
X83080400Y-37907555D01*
X83193207Y-37838045D01*
X83307686Y-37771325D01*
X83423768Y-37707434D01*
X83541383Y-37646412D01*
X83660460Y-37588294D01*
X83780927Y-37533116D01*
X83902712Y-37480911D01*
X84025742Y-37431710D01*
X84149942Y-37385543D01*
X84275238Y-37342439D01*
X84401553Y-37302422D01*
X84528813Y-37265518D01*
X84656940Y-37231747D01*
X84785858Y-37201131D01*
X84915488Y-37173689D01*
X85045752Y-37149435D01*
X85176572Y-37128386D01*
X85307870Y-37110554D01*
X85439565Y-37095949D01*
X85571579Y-37084581D01*
X85703833Y-37076455D01*
X85836246Y-37071578D01*
X85968739Y-37069952D01*
X100031261Y-37069952D01*
X100163754Y-37071578D01*
%TD*%
M02*
