%TF.GenerationSoftware,KiCad,Pcbnew,(7.0.0-0)*%
%TF.CreationDate,2023-07-23T12:51:36-06:00*%
%TF.ProjectId,SAO_pin,53414f5f-7069-46e2-9e6b-696361645f70,rev?*%
%TF.SameCoordinates,Original*%
%TF.FileFunction,Drillmap*%
%TF.FilePolarity,Positive*%
%FSLAX45Y45*%
G04 Gerber Fmt 4.5, Leading zero omitted, Abs format (unit mm)*
G04 Created by KiCad (PCBNEW (7.0.0-0)) date 2023-07-23 12:51:36*
%MOMM*%
%LPD*%
G01*
G04 APERTURE LIST*
%ADD10C,0.100000*%
%ADD11C,0.200000*%
G04 APERTURE END LIST*
D10*
X10450000Y-5350000D02*
G75*
G03*
X10450000Y-5350000I-150000J0D01*
G01*
D11*
D10*
X8992000Y-5150000D02*
X9092000Y-5250000D01*
X9092000Y-5150000D02*
X8992000Y-5250000D01*
X8992000Y-5404000D02*
X9092000Y-5504000D01*
X9092000Y-5404000D02*
X8992000Y-5504000D01*
X9246000Y-5150000D02*
X9346000Y-5250000D01*
X9346000Y-5150000D02*
X9246000Y-5250000D01*
X9246000Y-5404000D02*
X9346000Y-5504000D01*
X9346000Y-5404000D02*
X9246000Y-5504000D01*
X9500000Y-5150000D02*
X9600000Y-5250000D01*
X9600000Y-5150000D02*
X9500000Y-5250000D01*
X9500000Y-5404000D02*
X9600000Y-5504000D01*
X9600000Y-5404000D02*
X9500000Y-5504000D01*
D11*
X8297619Y-9993476D02*
X8297619Y-9793476D01*
X8297619Y-9793476D02*
X8345238Y-9793476D01*
X8345238Y-9793476D02*
X8373810Y-9803000D01*
X8373810Y-9803000D02*
X8392857Y-9822047D01*
X8392857Y-9822047D02*
X8402381Y-9841095D01*
X8402381Y-9841095D02*
X8411905Y-9879190D01*
X8411905Y-9879190D02*
X8411905Y-9907762D01*
X8411905Y-9907762D02*
X8402381Y-9945857D01*
X8402381Y-9945857D02*
X8392857Y-9964905D01*
X8392857Y-9964905D02*
X8373810Y-9983952D01*
X8373810Y-9983952D02*
X8345238Y-9993476D01*
X8345238Y-9993476D02*
X8297619Y-9993476D01*
X8497619Y-9993476D02*
X8497619Y-9860143D01*
X8497619Y-9898238D02*
X8507143Y-9879190D01*
X8507143Y-9879190D02*
X8516667Y-9869666D01*
X8516667Y-9869666D02*
X8535714Y-9860143D01*
X8535714Y-9860143D02*
X8554762Y-9860143D01*
X8621429Y-9993476D02*
X8621429Y-9860143D01*
X8621429Y-9793476D02*
X8611905Y-9803000D01*
X8611905Y-9803000D02*
X8621429Y-9812524D01*
X8621429Y-9812524D02*
X8630952Y-9803000D01*
X8630952Y-9803000D02*
X8621429Y-9793476D01*
X8621429Y-9793476D02*
X8621429Y-9812524D01*
X8745238Y-9993476D02*
X8726191Y-9983952D01*
X8726191Y-9983952D02*
X8716667Y-9964905D01*
X8716667Y-9964905D02*
X8716667Y-9793476D01*
X8850000Y-9993476D02*
X8830952Y-9983952D01*
X8830952Y-9983952D02*
X8821429Y-9964905D01*
X8821429Y-9964905D02*
X8821429Y-9793476D01*
X9046191Y-9993476D02*
X9046191Y-9793476D01*
X9046191Y-9793476D02*
X9112857Y-9936333D01*
X9112857Y-9936333D02*
X9179524Y-9793476D01*
X9179524Y-9793476D02*
X9179524Y-9993476D01*
X9360476Y-9993476D02*
X9360476Y-9888714D01*
X9360476Y-9888714D02*
X9350952Y-9869666D01*
X9350952Y-9869666D02*
X9331905Y-9860143D01*
X9331905Y-9860143D02*
X9293810Y-9860143D01*
X9293810Y-9860143D02*
X9274762Y-9869666D01*
X9360476Y-9983952D02*
X9341429Y-9993476D01*
X9341429Y-9993476D02*
X9293810Y-9993476D01*
X9293810Y-9993476D02*
X9274762Y-9983952D01*
X9274762Y-9983952D02*
X9265238Y-9964905D01*
X9265238Y-9964905D02*
X9265238Y-9945857D01*
X9265238Y-9945857D02*
X9274762Y-9926809D01*
X9274762Y-9926809D02*
X9293810Y-9917286D01*
X9293810Y-9917286D02*
X9341429Y-9917286D01*
X9341429Y-9917286D02*
X9360476Y-9907762D01*
X9455714Y-9860143D02*
X9455714Y-10060143D01*
X9455714Y-9869666D02*
X9474762Y-9860143D01*
X9474762Y-9860143D02*
X9512857Y-9860143D01*
X9512857Y-9860143D02*
X9531905Y-9869666D01*
X9531905Y-9869666D02*
X9541429Y-9879190D01*
X9541429Y-9879190D02*
X9550952Y-9898238D01*
X9550952Y-9898238D02*
X9550952Y-9955381D01*
X9550952Y-9955381D02*
X9541429Y-9974428D01*
X9541429Y-9974428D02*
X9531905Y-9983952D01*
X9531905Y-9983952D02*
X9512857Y-9993476D01*
X9512857Y-9993476D02*
X9474762Y-9993476D01*
X9474762Y-9993476D02*
X9455714Y-9983952D01*
X9636667Y-9974428D02*
X9646191Y-9983952D01*
X9646191Y-9983952D02*
X9636667Y-9993476D01*
X9636667Y-9993476D02*
X9627143Y-9983952D01*
X9627143Y-9983952D02*
X9636667Y-9974428D01*
X9636667Y-9974428D02*
X9636667Y-9993476D01*
X9636667Y-9869666D02*
X9646191Y-9879190D01*
X9646191Y-9879190D02*
X9636667Y-9888714D01*
X9636667Y-9888714D02*
X9627143Y-9879190D01*
X9627143Y-9879190D02*
X9636667Y-9869666D01*
X9636667Y-9869666D02*
X9636667Y-9888714D01*
D10*
X7950000Y-10290000D02*
X8050000Y-10390000D01*
X8050000Y-10290000D02*
X7950000Y-10390000D01*
D11*
X8402381Y-10413476D02*
X8288095Y-10413476D01*
X8345238Y-10413476D02*
X8345238Y-10213476D01*
X8345238Y-10213476D02*
X8326190Y-10242047D01*
X8326190Y-10242047D02*
X8307143Y-10261095D01*
X8307143Y-10261095D02*
X8288095Y-10270619D01*
X8488095Y-10394428D02*
X8497619Y-10403952D01*
X8497619Y-10403952D02*
X8488095Y-10413476D01*
X8488095Y-10413476D02*
X8478572Y-10403952D01*
X8478572Y-10403952D02*
X8488095Y-10394428D01*
X8488095Y-10394428D02*
X8488095Y-10413476D01*
X8621429Y-10213476D02*
X8640476Y-10213476D01*
X8640476Y-10213476D02*
X8659524Y-10223000D01*
X8659524Y-10223000D02*
X8669048Y-10232524D01*
X8669048Y-10232524D02*
X8678572Y-10251571D01*
X8678572Y-10251571D02*
X8688095Y-10289666D01*
X8688095Y-10289666D02*
X8688095Y-10337286D01*
X8688095Y-10337286D02*
X8678572Y-10375381D01*
X8678572Y-10375381D02*
X8669048Y-10394428D01*
X8669048Y-10394428D02*
X8659524Y-10403952D01*
X8659524Y-10403952D02*
X8640476Y-10413476D01*
X8640476Y-10413476D02*
X8621429Y-10413476D01*
X8621429Y-10413476D02*
X8602381Y-10403952D01*
X8602381Y-10403952D02*
X8592857Y-10394428D01*
X8592857Y-10394428D02*
X8583333Y-10375381D01*
X8583333Y-10375381D02*
X8573810Y-10337286D01*
X8573810Y-10337286D02*
X8573810Y-10289666D01*
X8573810Y-10289666D02*
X8583333Y-10251571D01*
X8583333Y-10251571D02*
X8592857Y-10232524D01*
X8592857Y-10232524D02*
X8602381Y-10223000D01*
X8602381Y-10223000D02*
X8621429Y-10213476D01*
X8811905Y-10213476D02*
X8830953Y-10213476D01*
X8830953Y-10213476D02*
X8850000Y-10223000D01*
X8850000Y-10223000D02*
X8859524Y-10232524D01*
X8859524Y-10232524D02*
X8869048Y-10251571D01*
X8869048Y-10251571D02*
X8878572Y-10289666D01*
X8878572Y-10289666D02*
X8878572Y-10337286D01*
X8878572Y-10337286D02*
X8869048Y-10375381D01*
X8869048Y-10375381D02*
X8859524Y-10394428D01*
X8859524Y-10394428D02*
X8850000Y-10403952D01*
X8850000Y-10403952D02*
X8830953Y-10413476D01*
X8830953Y-10413476D02*
X8811905Y-10413476D01*
X8811905Y-10413476D02*
X8792857Y-10403952D01*
X8792857Y-10403952D02*
X8783333Y-10394428D01*
X8783333Y-10394428D02*
X8773810Y-10375381D01*
X8773810Y-10375381D02*
X8764286Y-10337286D01*
X8764286Y-10337286D02*
X8764286Y-10289666D01*
X8764286Y-10289666D02*
X8773810Y-10251571D01*
X8773810Y-10251571D02*
X8783333Y-10232524D01*
X8783333Y-10232524D02*
X8792857Y-10223000D01*
X8792857Y-10223000D02*
X8811905Y-10213476D01*
X9002381Y-10213476D02*
X9021429Y-10213476D01*
X9021429Y-10213476D02*
X9040476Y-10223000D01*
X9040476Y-10223000D02*
X9050000Y-10232524D01*
X9050000Y-10232524D02*
X9059524Y-10251571D01*
X9059524Y-10251571D02*
X9069048Y-10289666D01*
X9069048Y-10289666D02*
X9069048Y-10337286D01*
X9069048Y-10337286D02*
X9059524Y-10375381D01*
X9059524Y-10375381D02*
X9050000Y-10394428D01*
X9050000Y-10394428D02*
X9040476Y-10403952D01*
X9040476Y-10403952D02*
X9021429Y-10413476D01*
X9021429Y-10413476D02*
X9002381Y-10413476D01*
X9002381Y-10413476D02*
X8983333Y-10403952D01*
X8983333Y-10403952D02*
X8973810Y-10394428D01*
X8973810Y-10394428D02*
X8964286Y-10375381D01*
X8964286Y-10375381D02*
X8954762Y-10337286D01*
X8954762Y-10337286D02*
X8954762Y-10289666D01*
X8954762Y-10289666D02*
X8964286Y-10251571D01*
X8964286Y-10251571D02*
X8973810Y-10232524D01*
X8973810Y-10232524D02*
X8983333Y-10223000D01*
X8983333Y-10223000D02*
X9002381Y-10213476D01*
X9154762Y-10413476D02*
X9154762Y-10280143D01*
X9154762Y-10299190D02*
X9164286Y-10289666D01*
X9164286Y-10289666D02*
X9183333Y-10280143D01*
X9183333Y-10280143D02*
X9211905Y-10280143D01*
X9211905Y-10280143D02*
X9230953Y-10289666D01*
X9230953Y-10289666D02*
X9240476Y-10308714D01*
X9240476Y-10308714D02*
X9240476Y-10413476D01*
X9240476Y-10308714D02*
X9250000Y-10289666D01*
X9250000Y-10289666D02*
X9269048Y-10280143D01*
X9269048Y-10280143D02*
X9297619Y-10280143D01*
X9297619Y-10280143D02*
X9316667Y-10289666D01*
X9316667Y-10289666D02*
X9326191Y-10308714D01*
X9326191Y-10308714D02*
X9326191Y-10413476D01*
X9421429Y-10413476D02*
X9421429Y-10280143D01*
X9421429Y-10299190D02*
X9430953Y-10289666D01*
X9430953Y-10289666D02*
X9450000Y-10280143D01*
X9450000Y-10280143D02*
X9478572Y-10280143D01*
X9478572Y-10280143D02*
X9497619Y-10289666D01*
X9497619Y-10289666D02*
X9507143Y-10308714D01*
X9507143Y-10308714D02*
X9507143Y-10413476D01*
X9507143Y-10308714D02*
X9516667Y-10289666D01*
X9516667Y-10289666D02*
X9535714Y-10280143D01*
X9535714Y-10280143D02*
X9564286Y-10280143D01*
X9564286Y-10280143D02*
X9583334Y-10289666D01*
X9583334Y-10289666D02*
X9592857Y-10308714D01*
X9592857Y-10308714D02*
X9592857Y-10413476D01*
X9950953Y-10203952D02*
X9779524Y-10461095D01*
X10175714Y-10213476D02*
X10194762Y-10213476D01*
X10194762Y-10213476D02*
X10213810Y-10223000D01*
X10213810Y-10223000D02*
X10223334Y-10232524D01*
X10223334Y-10232524D02*
X10232857Y-10251571D01*
X10232857Y-10251571D02*
X10242381Y-10289666D01*
X10242381Y-10289666D02*
X10242381Y-10337286D01*
X10242381Y-10337286D02*
X10232857Y-10375381D01*
X10232857Y-10375381D02*
X10223334Y-10394428D01*
X10223334Y-10394428D02*
X10213810Y-10403952D01*
X10213810Y-10403952D02*
X10194762Y-10413476D01*
X10194762Y-10413476D02*
X10175714Y-10413476D01*
X10175714Y-10413476D02*
X10156667Y-10403952D01*
X10156667Y-10403952D02*
X10147143Y-10394428D01*
X10147143Y-10394428D02*
X10137619Y-10375381D01*
X10137619Y-10375381D02*
X10128095Y-10337286D01*
X10128095Y-10337286D02*
X10128095Y-10289666D01*
X10128095Y-10289666D02*
X10137619Y-10251571D01*
X10137619Y-10251571D02*
X10147143Y-10232524D01*
X10147143Y-10232524D02*
X10156667Y-10223000D01*
X10156667Y-10223000D02*
X10175714Y-10213476D01*
X10328095Y-10394428D02*
X10337619Y-10403952D01*
X10337619Y-10403952D02*
X10328095Y-10413476D01*
X10328095Y-10413476D02*
X10318572Y-10403952D01*
X10318572Y-10403952D02*
X10328095Y-10394428D01*
X10328095Y-10394428D02*
X10328095Y-10413476D01*
X10461429Y-10213476D02*
X10480476Y-10213476D01*
X10480476Y-10213476D02*
X10499524Y-10223000D01*
X10499524Y-10223000D02*
X10509048Y-10232524D01*
X10509048Y-10232524D02*
X10518572Y-10251571D01*
X10518572Y-10251571D02*
X10528095Y-10289666D01*
X10528095Y-10289666D02*
X10528095Y-10337286D01*
X10528095Y-10337286D02*
X10518572Y-10375381D01*
X10518572Y-10375381D02*
X10509048Y-10394428D01*
X10509048Y-10394428D02*
X10499524Y-10403952D01*
X10499524Y-10403952D02*
X10480476Y-10413476D01*
X10480476Y-10413476D02*
X10461429Y-10413476D01*
X10461429Y-10413476D02*
X10442381Y-10403952D01*
X10442381Y-10403952D02*
X10432857Y-10394428D01*
X10432857Y-10394428D02*
X10423334Y-10375381D01*
X10423334Y-10375381D02*
X10413810Y-10337286D01*
X10413810Y-10337286D02*
X10413810Y-10289666D01*
X10413810Y-10289666D02*
X10423334Y-10251571D01*
X10423334Y-10251571D02*
X10432857Y-10232524D01*
X10432857Y-10232524D02*
X10442381Y-10223000D01*
X10442381Y-10223000D02*
X10461429Y-10213476D01*
X10594762Y-10213476D02*
X10718572Y-10213476D01*
X10718572Y-10213476D02*
X10651905Y-10289666D01*
X10651905Y-10289666D02*
X10680476Y-10289666D01*
X10680476Y-10289666D02*
X10699524Y-10299190D01*
X10699524Y-10299190D02*
X10709048Y-10308714D01*
X10709048Y-10308714D02*
X10718572Y-10327762D01*
X10718572Y-10327762D02*
X10718572Y-10375381D01*
X10718572Y-10375381D02*
X10709048Y-10394428D01*
X10709048Y-10394428D02*
X10699524Y-10403952D01*
X10699524Y-10403952D02*
X10680476Y-10413476D01*
X10680476Y-10413476D02*
X10623334Y-10413476D01*
X10623334Y-10413476D02*
X10604286Y-10403952D01*
X10604286Y-10403952D02*
X10594762Y-10394428D01*
X10813810Y-10413476D02*
X10851905Y-10413476D01*
X10851905Y-10413476D02*
X10870953Y-10403952D01*
X10870953Y-10403952D02*
X10880476Y-10394428D01*
X10880476Y-10394428D02*
X10899524Y-10365857D01*
X10899524Y-10365857D02*
X10909048Y-10327762D01*
X10909048Y-10327762D02*
X10909048Y-10251571D01*
X10909048Y-10251571D02*
X10899524Y-10232524D01*
X10899524Y-10232524D02*
X10890000Y-10223000D01*
X10890000Y-10223000D02*
X10870953Y-10213476D01*
X10870953Y-10213476D02*
X10832857Y-10213476D01*
X10832857Y-10213476D02*
X10813810Y-10223000D01*
X10813810Y-10223000D02*
X10804286Y-10232524D01*
X10804286Y-10232524D02*
X10794762Y-10251571D01*
X10794762Y-10251571D02*
X10794762Y-10299190D01*
X10794762Y-10299190D02*
X10804286Y-10318238D01*
X10804286Y-10318238D02*
X10813810Y-10327762D01*
X10813810Y-10327762D02*
X10832857Y-10337286D01*
X10832857Y-10337286D02*
X10870953Y-10337286D01*
X10870953Y-10337286D02*
X10890000Y-10327762D01*
X10890000Y-10327762D02*
X10899524Y-10318238D01*
X10899524Y-10318238D02*
X10909048Y-10299190D01*
X11080476Y-10280143D02*
X11080476Y-10413476D01*
X11032857Y-10203952D02*
X10985238Y-10346809D01*
X10985238Y-10346809D02*
X11109048Y-10346809D01*
X11175715Y-10213476D02*
X11175715Y-10251571D01*
X11251905Y-10213476D02*
X11251905Y-10251571D01*
X11514762Y-10489666D02*
X11505238Y-10480143D01*
X11505238Y-10480143D02*
X11486191Y-10451571D01*
X11486191Y-10451571D02*
X11476667Y-10432524D01*
X11476667Y-10432524D02*
X11467143Y-10403952D01*
X11467143Y-10403952D02*
X11457619Y-10356333D01*
X11457619Y-10356333D02*
X11457619Y-10318238D01*
X11457619Y-10318238D02*
X11467143Y-10270619D01*
X11467143Y-10270619D02*
X11476667Y-10242047D01*
X11476667Y-10242047D02*
X11486191Y-10223000D01*
X11486191Y-10223000D02*
X11505238Y-10194428D01*
X11505238Y-10194428D02*
X11514762Y-10184905D01*
X11676667Y-10213476D02*
X11638572Y-10213476D01*
X11638572Y-10213476D02*
X11619524Y-10223000D01*
X11619524Y-10223000D02*
X11610000Y-10232524D01*
X11610000Y-10232524D02*
X11590953Y-10261095D01*
X11590953Y-10261095D02*
X11581429Y-10299190D01*
X11581429Y-10299190D02*
X11581429Y-10375381D01*
X11581429Y-10375381D02*
X11590953Y-10394428D01*
X11590953Y-10394428D02*
X11600476Y-10403952D01*
X11600476Y-10403952D02*
X11619524Y-10413476D01*
X11619524Y-10413476D02*
X11657619Y-10413476D01*
X11657619Y-10413476D02*
X11676667Y-10403952D01*
X11676667Y-10403952D02*
X11686191Y-10394428D01*
X11686191Y-10394428D02*
X11695714Y-10375381D01*
X11695714Y-10375381D02*
X11695714Y-10327762D01*
X11695714Y-10327762D02*
X11686191Y-10308714D01*
X11686191Y-10308714D02*
X11676667Y-10299190D01*
X11676667Y-10299190D02*
X11657619Y-10289666D01*
X11657619Y-10289666D02*
X11619524Y-10289666D01*
X11619524Y-10289666D02*
X11600476Y-10299190D01*
X11600476Y-10299190D02*
X11590953Y-10308714D01*
X11590953Y-10308714D02*
X11581429Y-10327762D01*
X11901429Y-10413476D02*
X11901429Y-10213476D01*
X11987143Y-10413476D02*
X11987143Y-10308714D01*
X11987143Y-10308714D02*
X11977619Y-10289666D01*
X11977619Y-10289666D02*
X11958572Y-10280143D01*
X11958572Y-10280143D02*
X11930000Y-10280143D01*
X11930000Y-10280143D02*
X11910953Y-10289666D01*
X11910953Y-10289666D02*
X11901429Y-10299190D01*
X12110953Y-10413476D02*
X12091905Y-10403952D01*
X12091905Y-10403952D02*
X12082381Y-10394428D01*
X12082381Y-10394428D02*
X12072857Y-10375381D01*
X12072857Y-10375381D02*
X12072857Y-10318238D01*
X12072857Y-10318238D02*
X12082381Y-10299190D01*
X12082381Y-10299190D02*
X12091905Y-10289666D01*
X12091905Y-10289666D02*
X12110953Y-10280143D01*
X12110953Y-10280143D02*
X12139524Y-10280143D01*
X12139524Y-10280143D02*
X12158572Y-10289666D01*
X12158572Y-10289666D02*
X12168095Y-10299190D01*
X12168095Y-10299190D02*
X12177619Y-10318238D01*
X12177619Y-10318238D02*
X12177619Y-10375381D01*
X12177619Y-10375381D02*
X12168095Y-10394428D01*
X12168095Y-10394428D02*
X12158572Y-10403952D01*
X12158572Y-10403952D02*
X12139524Y-10413476D01*
X12139524Y-10413476D02*
X12110953Y-10413476D01*
X12291905Y-10413476D02*
X12272857Y-10403952D01*
X12272857Y-10403952D02*
X12263334Y-10384905D01*
X12263334Y-10384905D02*
X12263334Y-10213476D01*
X12444286Y-10403952D02*
X12425238Y-10413476D01*
X12425238Y-10413476D02*
X12387143Y-10413476D01*
X12387143Y-10413476D02*
X12368095Y-10403952D01*
X12368095Y-10403952D02*
X12358572Y-10384905D01*
X12358572Y-10384905D02*
X12358572Y-10308714D01*
X12358572Y-10308714D02*
X12368095Y-10289666D01*
X12368095Y-10289666D02*
X12387143Y-10280143D01*
X12387143Y-10280143D02*
X12425238Y-10280143D01*
X12425238Y-10280143D02*
X12444286Y-10289666D01*
X12444286Y-10289666D02*
X12453810Y-10308714D01*
X12453810Y-10308714D02*
X12453810Y-10327762D01*
X12453810Y-10327762D02*
X12358572Y-10346809D01*
X12530000Y-10403952D02*
X12549048Y-10413476D01*
X12549048Y-10413476D02*
X12587143Y-10413476D01*
X12587143Y-10413476D02*
X12606191Y-10403952D01*
X12606191Y-10403952D02*
X12615715Y-10384905D01*
X12615715Y-10384905D02*
X12615715Y-10375381D01*
X12615715Y-10375381D02*
X12606191Y-10356333D01*
X12606191Y-10356333D02*
X12587143Y-10346809D01*
X12587143Y-10346809D02*
X12558572Y-10346809D01*
X12558572Y-10346809D02*
X12539524Y-10337286D01*
X12539524Y-10337286D02*
X12530000Y-10318238D01*
X12530000Y-10318238D02*
X12530000Y-10308714D01*
X12530000Y-10308714D02*
X12539524Y-10289666D01*
X12539524Y-10289666D02*
X12558572Y-10280143D01*
X12558572Y-10280143D02*
X12587143Y-10280143D01*
X12587143Y-10280143D02*
X12606191Y-10289666D01*
X12682381Y-10489666D02*
X12691905Y-10480143D01*
X12691905Y-10480143D02*
X12710953Y-10451571D01*
X12710953Y-10451571D02*
X12720476Y-10432524D01*
X12720476Y-10432524D02*
X12730000Y-10403952D01*
X12730000Y-10403952D02*
X12739524Y-10356333D01*
X12739524Y-10356333D02*
X12739524Y-10318238D01*
X12739524Y-10318238D02*
X12730000Y-10270619D01*
X12730000Y-10270619D02*
X12720476Y-10242047D01*
X12720476Y-10242047D02*
X12710953Y-10223000D01*
X12710953Y-10223000D02*
X12691905Y-10194428D01*
X12691905Y-10194428D02*
X12682381Y-10184905D01*
M02*
