%TF.GenerationSoftware,KiCad,Pcbnew,(7.0.0-0)*%
%TF.CreationDate,2023-07-23T12:51:31-06:00*%
%TF.ProjectId,SAO_pin,53414f5f-7069-46e2-9e6b-696361645f70,rev?*%
%TF.SameCoordinates,Original*%
%TF.FileFunction,Copper,L2,Bot*%
%TF.FilePolarity,Positive*%
%FSLAX46Y46*%
G04 Gerber Fmt 4.6, Leading zero omitted, Abs format (unit mm)*
G04 Created by KiCad (PCBNEW (7.0.0-0)) date 2023-07-23 12:51:31*
%MOMM*%
%LPD*%
G01*
G04 APERTURE LIST*
%ADD10C,0.150000*%
%TA.AperFunction,NonConductor*%
%ADD11C,0.150000*%
%TD*%
%TA.AperFunction,ComponentPad*%
%ADD12R,1.700000X1.700000*%
%TD*%
%TA.AperFunction,ComponentPad*%
%ADD13O,1.700000X1.700000*%
%TD*%
%TA.AperFunction,SMDPad,CuDef*%
%ADD14R,5.080000X1.270000*%
%TD*%
%TA.AperFunction,SMDPad,CuDef*%
%ADD15C,17.800000*%
%TD*%
%TA.AperFunction,SMDPad,CuDef*%
%ADD16R,0.800000X1.000000*%
%TD*%
%TA.AperFunction,SMDPad,CuDef*%
%ADD17R,1.500000X0.700000*%
%TD*%
%TA.AperFunction,Conductor*%
%ADD18C,0.250000*%
%TD*%
G04 APERTURE END LIST*
D10*
D11*
X87642857Y-46686190D02*
X87690476Y-46638571D01*
X87690476Y-46638571D02*
X87785714Y-46590952D01*
X87785714Y-46590952D02*
X87880952Y-46590952D01*
X87880952Y-46590952D02*
X87976190Y-46638571D01*
X87976190Y-46638571D02*
X88023809Y-46686190D01*
X88023809Y-46686190D02*
X88071428Y-46781428D01*
X88071428Y-46781428D02*
X88071428Y-46876666D01*
X88071428Y-46876666D02*
X88023809Y-46971904D01*
X88023809Y-46971904D02*
X87976190Y-47019523D01*
X87976190Y-47019523D02*
X87880952Y-47067142D01*
X87880952Y-47067142D02*
X87785714Y-47067142D01*
X87785714Y-47067142D02*
X87690476Y-47019523D01*
X87690476Y-47019523D02*
X87642857Y-46971904D01*
X87642857Y-46590952D02*
X87642857Y-46971904D01*
X87642857Y-46971904D02*
X87595238Y-47019523D01*
X87595238Y-47019523D02*
X87547619Y-47019523D01*
X87547619Y-47019523D02*
X87452380Y-46971904D01*
X87452380Y-46971904D02*
X87404761Y-46876666D01*
X87404761Y-46876666D02*
X87404761Y-46638571D01*
X87404761Y-46638571D02*
X87500000Y-46495714D01*
X87500000Y-46495714D02*
X87642857Y-46400476D01*
X87642857Y-46400476D02*
X87833333Y-46352857D01*
X87833333Y-46352857D02*
X88023809Y-46400476D01*
X88023809Y-46400476D02*
X88166666Y-46495714D01*
X88166666Y-46495714D02*
X88261904Y-46638571D01*
X88261904Y-46638571D02*
X88309523Y-46829047D01*
X88309523Y-46829047D02*
X88261904Y-47019523D01*
X88261904Y-47019523D02*
X88166666Y-47162380D01*
X88166666Y-47162380D02*
X88023809Y-47257619D01*
X88023809Y-47257619D02*
X87833333Y-47305238D01*
X87833333Y-47305238D02*
X87642857Y-47257619D01*
X87642857Y-47257619D02*
X87500000Y-47162380D01*
X86547619Y-47162380D02*
X86547619Y-46638571D01*
X86547619Y-46638571D02*
X86595238Y-46543333D01*
X86595238Y-46543333D02*
X86690476Y-46495714D01*
X86690476Y-46495714D02*
X86880952Y-46495714D01*
X86880952Y-46495714D02*
X86976190Y-46543333D01*
X86547619Y-47114761D02*
X86642857Y-47162380D01*
X86642857Y-47162380D02*
X86880952Y-47162380D01*
X86880952Y-47162380D02*
X86976190Y-47114761D01*
X86976190Y-47114761D02*
X87023809Y-47019523D01*
X87023809Y-47019523D02*
X87023809Y-46924285D01*
X87023809Y-46924285D02*
X86976190Y-46829047D01*
X86976190Y-46829047D02*
X86880952Y-46781428D01*
X86880952Y-46781428D02*
X86642857Y-46781428D01*
X86642857Y-46781428D02*
X86547619Y-46733809D01*
X86166666Y-46495714D02*
X85928571Y-47162380D01*
X85928571Y-47162380D02*
X85690476Y-46495714D01*
X85547619Y-47257619D02*
X84785714Y-47257619D01*
X84547618Y-46495714D02*
X84547618Y-47495714D01*
X84547618Y-46543333D02*
X84452380Y-46495714D01*
X84452380Y-46495714D02*
X84261904Y-46495714D01*
X84261904Y-46495714D02*
X84166666Y-46543333D01*
X84166666Y-46543333D02*
X84119047Y-46590952D01*
X84119047Y-46590952D02*
X84071428Y-46686190D01*
X84071428Y-46686190D02*
X84071428Y-46971904D01*
X84071428Y-46971904D02*
X84119047Y-47067142D01*
X84119047Y-47067142D02*
X84166666Y-47114761D01*
X84166666Y-47114761D02*
X84261904Y-47162380D01*
X84261904Y-47162380D02*
X84452380Y-47162380D01*
X84452380Y-47162380D02*
X84547618Y-47114761D01*
X83214285Y-46495714D02*
X83214285Y-47162380D01*
X83642856Y-46495714D02*
X83642856Y-47019523D01*
X83642856Y-47019523D02*
X83595237Y-47114761D01*
X83595237Y-47114761D02*
X83499999Y-47162380D01*
X83499999Y-47162380D02*
X83357142Y-47162380D01*
X83357142Y-47162380D02*
X83261904Y-47114761D01*
X83261904Y-47114761D02*
X83214285Y-47067142D01*
X82738094Y-47162380D02*
X82738094Y-46162380D01*
X82738094Y-46543333D02*
X82642856Y-46495714D01*
X82642856Y-46495714D02*
X82452380Y-46495714D01*
X82452380Y-46495714D02*
X82357142Y-46543333D01*
X82357142Y-46543333D02*
X82309523Y-46590952D01*
X82309523Y-46590952D02*
X82261904Y-46686190D01*
X82261904Y-46686190D02*
X82261904Y-46971904D01*
X82261904Y-46971904D02*
X82309523Y-47067142D01*
X82309523Y-47067142D02*
X82357142Y-47114761D01*
X82357142Y-47114761D02*
X82452380Y-47162380D01*
X82452380Y-47162380D02*
X82642856Y-47162380D01*
X82642856Y-47162380D02*
X82738094Y-47114761D01*
X81880951Y-47114761D02*
X81785713Y-47162380D01*
X81785713Y-47162380D02*
X81595237Y-47162380D01*
X81595237Y-47162380D02*
X81499999Y-47114761D01*
X81499999Y-47114761D02*
X81452380Y-47019523D01*
X81452380Y-47019523D02*
X81452380Y-46971904D01*
X81452380Y-46971904D02*
X81499999Y-46876666D01*
X81499999Y-46876666D02*
X81595237Y-46829047D01*
X81595237Y-46829047D02*
X81738094Y-46829047D01*
X81738094Y-46829047D02*
X81833332Y-46781428D01*
X81833332Y-46781428D02*
X81880951Y-46686190D01*
X81880951Y-46686190D02*
X81880951Y-46638571D01*
X81880951Y-46638571D02*
X81833332Y-46543333D01*
X81833332Y-46543333D02*
X81738094Y-46495714D01*
X81738094Y-46495714D02*
X81595237Y-46495714D01*
X81595237Y-46495714D02*
X81499999Y-46543333D01*
X88357142Y-48115714D02*
X88119047Y-48782380D01*
X88119047Y-48782380D02*
X87880952Y-48115714D01*
X87547618Y-47877619D02*
X87499999Y-47830000D01*
X87499999Y-47830000D02*
X87404761Y-47782380D01*
X87404761Y-47782380D02*
X87166666Y-47782380D01*
X87166666Y-47782380D02*
X87071428Y-47830000D01*
X87071428Y-47830000D02*
X87023809Y-47877619D01*
X87023809Y-47877619D02*
X86976190Y-47972857D01*
X86976190Y-47972857D02*
X86976190Y-48068095D01*
X86976190Y-48068095D02*
X87023809Y-48210952D01*
X87023809Y-48210952D02*
X87595237Y-48782380D01*
X87595237Y-48782380D02*
X86976190Y-48782380D01*
D12*
%TO.P,J1,1,Pin_1*%
%TO.N,Net-(J1-Pin_1)*%
X90419999Y-51999999D03*
D13*
%TO.P,J1,2,Pin_2*%
%TO.N,GND*%
X90419999Y-54539999D03*
%TO.P,J1,3,Pin_3*%
%TO.N,unconnected-(J1-Pin_3-Pad3)*%
X92959999Y-51999999D03*
%TO.P,J1,4,Pin_4*%
%TO.N,unconnected-(J1-Pin_4-Pad4)*%
X92959999Y-54539999D03*
%TO.P,J1,5,Pin_5*%
%TO.N,unconnected-(J1-Pin_5-Pad5)*%
X95499999Y-51999999D03*
%TO.P,J1,6,Pin_6*%
%TO.N,unconnected-(J1-Pin_6-Pad6)*%
X95499999Y-54539999D03*
%TD*%
D14*
%TO.P,BT1,1,+*%
%TO.N,Net-(BT1-+)*%
X93999999Y-81984999D03*
X93999999Y-60014999D03*
D15*
%TO.P,BT1,2,-*%
%TO.N,GND*%
X94000000Y-71000000D03*
%TD*%
D16*
%TO.P,SW1,*%
%TO.N,*%
X83499999Y-53499999D03*
X81289999Y-60799999D03*
X81289999Y-53499999D03*
X83499999Y-60799999D03*
D17*
%TO.P,SW1,1,A*%
%TO.N,Net-(BT1-+)*%
X84149999Y-59399999D03*
%TO.P,SW1,2,B*%
%TO.N,Net-(J1-Pin_1)*%
X84149999Y-56399999D03*
%TO.P,SW1,3,C*%
%TO.N,unconnected-(SW1-C-Pad3)*%
X84149999Y-54899999D03*
%TD*%
D18*
%TO.N,Net-(BT1-+)*%
X96515000Y-60015000D02*
X94000000Y-60015000D01*
X96790000Y-81985000D02*
X103225000Y-75550000D01*
X90985000Y-81985000D02*
X84775000Y-75775000D01*
X84775000Y-75775000D02*
X84775000Y-60025000D01*
X84775000Y-60025000D02*
X84150000Y-59400000D01*
X103225000Y-66725000D02*
X96515000Y-60015000D01*
X94000000Y-81985000D02*
X90985000Y-81985000D01*
X103225000Y-75550000D02*
X103225000Y-66725000D01*
X94000000Y-81985000D02*
X96790000Y-81985000D01*
%TO.N,GND*%
X94000000Y-71000000D02*
X90420000Y-67420000D01*
X90420000Y-67420000D02*
X90420000Y-54540000D01*
%TO.N,Net-(J1-Pin_1)*%
X84150000Y-56400000D02*
X86020000Y-56400000D01*
X86020000Y-56400000D02*
X90420000Y-52000000D01*
%TD*%
%TA.AperFunction,NonConductor*%
G36*
X100031971Y-37070461D02*
G01*
X100034739Y-37070494D01*
X100162261Y-37072058D01*
X100165230Y-37072132D01*
X100294621Y-37076897D01*
X100297604Y-37077043D01*
X100426865Y-37084985D01*
X100429880Y-37085208D01*
X100558920Y-37096320D01*
X100561847Y-37096608D01*
X100690664Y-37110893D01*
X100693516Y-37111245D01*
X100821960Y-37128691D01*
X100824816Y-37129115D01*
X100952671Y-37149686D01*
X100955597Y-37150193D01*
X101082952Y-37173906D01*
X101085842Y-37174481D01*
X101212594Y-37201314D01*
X101215474Y-37201961D01*
X101341475Y-37231883D01*
X101344368Y-37232608D01*
X101459019Y-37262828D01*
X101469581Y-37265612D01*
X101472512Y-37266423D01*
X101596887Y-37302490D01*
X101599734Y-37303354D01*
X101723128Y-37342445D01*
X101726001Y-37343394D01*
X101848459Y-37385521D01*
X101851300Y-37386537D01*
X101972682Y-37431657D01*
X101975521Y-37432753D01*
X102095658Y-37480798D01*
X102098469Y-37481962D01*
X102217479Y-37532977D01*
X102220262Y-37534210D01*
X102337957Y-37588119D01*
X102340707Y-37589420D01*
X102457063Y-37646210D01*
X102459782Y-37647579D01*
X102574674Y-37707189D01*
X102577312Y-37708598D01*
X102690860Y-37771095D01*
X102693365Y-37772515D01*
X102805085Y-37837628D01*
X102805195Y-37837692D01*
X102807794Y-37839249D01*
X102917879Y-37907082D01*
X102918042Y-37907182D01*
X102920567Y-37908780D01*
X103029092Y-37979383D01*
X103031621Y-37981074D01*
X103138391Y-38054326D01*
X103140880Y-38056079D01*
X103245784Y-38131904D01*
X103248228Y-38133716D01*
X103351264Y-38212110D01*
X103353602Y-38213934D01*
X103454685Y-38294836D01*
X103457037Y-38296766D01*
X103556124Y-38380140D01*
X103558428Y-38382128D01*
X103655383Y-38467859D01*
X103657617Y-38469883D01*
X103699343Y-38508644D01*
X103752480Y-38558007D01*
X103754669Y-38560091D01*
X103847415Y-38650587D01*
X103849511Y-38652684D01*
X103939874Y-38745295D01*
X103941970Y-38747497D01*
X104030116Y-38842383D01*
X104032119Y-38844592D01*
X104117873Y-38941571D01*
X104119858Y-38943872D01*
X104203236Y-39042966D01*
X104205165Y-39045317D01*
X104286040Y-39146366D01*
X104287897Y-39148746D01*
X104366290Y-39251780D01*
X104368060Y-39254166D01*
X104368096Y-39254215D01*
X104443923Y-39359122D01*
X104445675Y-39361611D01*
X104518931Y-39468387D01*
X104520577Y-39470849D01*
X104591189Y-39579385D01*
X104592811Y-39581947D01*
X104660743Y-39692195D01*
X104662307Y-39694804D01*
X104727460Y-39806592D01*
X104728953Y-39809227D01*
X104791401Y-39922689D01*
X104792836Y-39925373D01*
X104852437Y-40040249D01*
X104853805Y-40042967D01*
X104910593Y-40159320D01*
X104911894Y-40162072D01*
X104965792Y-40279747D01*
X104967024Y-40282526D01*
X105018027Y-40401500D01*
X105019193Y-40404315D01*
X105067255Y-40524501D01*
X105068350Y-40527338D01*
X105113456Y-40648683D01*
X105114482Y-40651551D01*
X105156588Y-40773949D01*
X105157542Y-40776837D01*
X105196646Y-40900271D01*
X105197529Y-40903184D01*
X105233565Y-41027449D01*
X105234377Y-41030380D01*
X105267381Y-41155591D01*
X105268121Y-41158545D01*
X105298026Y-41284470D01*
X105298692Y-41287439D01*
X105325506Y-41414095D01*
X105326100Y-41417079D01*
X105349797Y-41544352D01*
X105350317Y-41547352D01*
X105370875Y-41675123D01*
X105371322Y-41678133D01*
X105388744Y-41806412D01*
X105389116Y-41809432D01*
X105403381Y-41938057D01*
X105403680Y-41941085D01*
X105414792Y-42070114D01*
X105415016Y-42073151D01*
X105422954Y-42202365D01*
X105423103Y-42205404D01*
X105427866Y-42334732D01*
X105427941Y-42337774D01*
X105429540Y-42468030D01*
X105429549Y-42469552D01*
X105429549Y-91530448D01*
X105429540Y-91531970D01*
X105427941Y-91662224D01*
X105427866Y-91665266D01*
X105423103Y-91794594D01*
X105422954Y-91797634D01*
X105415015Y-91926852D01*
X105414791Y-91929886D01*
X105403682Y-92058897D01*
X105403383Y-92061928D01*
X105389118Y-92190549D01*
X105388746Y-92193568D01*
X105371321Y-92321865D01*
X105370875Y-92324874D01*
X105350309Y-92452692D01*
X105349797Y-92455646D01*
X105326100Y-92582919D01*
X105325506Y-92585903D01*
X105298692Y-92712559D01*
X105298026Y-92715528D01*
X105268121Y-92841453D01*
X105267381Y-92844407D01*
X105234377Y-92969618D01*
X105233565Y-92972549D01*
X105197529Y-93096814D01*
X105196646Y-93099727D01*
X105157542Y-93223161D01*
X105156588Y-93226049D01*
X105114482Y-93348447D01*
X105113456Y-93351315D01*
X105068350Y-93472660D01*
X105067255Y-93475498D01*
X105019201Y-93595662D01*
X105018035Y-93598476D01*
X104967015Y-93717492D01*
X104965783Y-93720272D01*
X104911894Y-93837927D01*
X104910593Y-93840678D01*
X104853805Y-93957031D01*
X104852437Y-93959749D01*
X104792836Y-94074625D01*
X104791401Y-94077309D01*
X104728953Y-94190771D01*
X104727452Y-94193421D01*
X104662307Y-94305194D01*
X104660743Y-94307803D01*
X104592811Y-94418051D01*
X104591195Y-94420603D01*
X104520616Y-94529091D01*
X104518931Y-94531611D01*
X104445675Y-94638387D01*
X104443923Y-94640876D01*
X104368087Y-94745796D01*
X104366274Y-94748240D01*
X104287913Y-94851232D01*
X104286040Y-94853632D01*
X104205165Y-94954681D01*
X104203236Y-94957032D01*
X104119858Y-95056126D01*
X104117869Y-95058432D01*
X104032161Y-95155360D01*
X104030116Y-95157615D01*
X103941970Y-95252501D01*
X103939874Y-95254703D01*
X103849515Y-95347310D01*
X103847361Y-95349464D01*
X103754684Y-95439893D01*
X103752481Y-95441991D01*
X103657639Y-95530095D01*
X103655383Y-95532139D01*
X103558428Y-95617870D01*
X103556124Y-95619858D01*
X103457037Y-95703232D01*
X103454685Y-95705162D01*
X103353633Y-95786039D01*
X103351233Y-95787912D01*
X103248228Y-95866282D01*
X103245784Y-95868094D01*
X103140880Y-95943919D01*
X103138391Y-95945672D01*
X103031621Y-96018924D01*
X103029092Y-96020615D01*
X102920614Y-96091188D01*
X102918042Y-96092816D01*
X102807805Y-96160742D01*
X102805195Y-96162306D01*
X102693407Y-96227459D01*
X102690799Y-96228937D01*
X102609412Y-96273732D01*
X102577358Y-96291375D01*
X102574674Y-96292809D01*
X102459782Y-96352419D01*
X102457063Y-96353788D01*
X102340707Y-96410578D01*
X102337957Y-96411879D01*
X102220262Y-96465788D01*
X102217479Y-96467021D01*
X102098469Y-96518036D01*
X102095658Y-96519200D01*
X101975521Y-96567245D01*
X101972682Y-96568341D01*
X101851316Y-96613455D01*
X101848448Y-96614481D01*
X101726001Y-96656604D01*
X101723113Y-96657558D01*
X101599779Y-96696630D01*
X101596866Y-96697514D01*
X101472512Y-96733575D01*
X101469581Y-96734386D01*
X101344408Y-96767380D01*
X101341453Y-96768120D01*
X101215474Y-96798037D01*
X101212517Y-96798701D01*
X101085927Y-96825500D01*
X101082944Y-96826093D01*
X100955633Y-96849798D01*
X100952633Y-96850318D01*
X100824888Y-96870872D01*
X100821881Y-96871318D01*
X100693596Y-96888742D01*
X100690585Y-96889114D01*
X100561901Y-96903384D01*
X100558872Y-96903682D01*
X100429886Y-96914789D01*
X100426853Y-96915013D01*
X100297633Y-96922953D01*
X100294592Y-96923102D01*
X100165268Y-96927865D01*
X100162226Y-96927940D01*
X100031971Y-96929539D01*
X100030449Y-96929548D01*
X85969551Y-96929548D01*
X85968029Y-96929539D01*
X85837773Y-96927940D01*
X85834731Y-96927865D01*
X85705406Y-96923102D01*
X85702365Y-96922953D01*
X85573142Y-96915013D01*
X85570109Y-96914789D01*
X85441089Y-96903679D01*
X85438059Y-96903380D01*
X85309448Y-96889117D01*
X85306428Y-96888745D01*
X85178132Y-96871320D01*
X85175123Y-96870874D01*
X85143069Y-96865716D01*
X85047339Y-96850314D01*
X85044366Y-96849798D01*
X84917055Y-96826093D01*
X84914071Y-96825499D01*
X84787453Y-96798694D01*
X84784485Y-96798028D01*
X84658545Y-96768120D01*
X84655590Y-96767380D01*
X84530417Y-96734386D01*
X84527487Y-96733575D01*
X84403145Y-96697518D01*
X84400262Y-96696643D01*
X84276812Y-96657534D01*
X84273949Y-96656588D01*
X84151537Y-96614477D01*
X84148698Y-96613461D01*
X84028420Y-96568752D01*
X84027371Y-96568362D01*
X84024533Y-96567267D01*
X83927687Y-96528538D01*
X83904257Y-96519168D01*
X83901492Y-96518022D01*
X83782520Y-96467021D01*
X83779780Y-96465807D01*
X83662629Y-96412149D01*
X83662070Y-96411893D01*
X83659319Y-96410592D01*
X83542966Y-96353804D01*
X83540248Y-96352436D01*
X83425372Y-96292835D01*
X83422688Y-96291400D01*
X83309226Y-96228952D01*
X83306630Y-96227481D01*
X83218426Y-96176074D01*
X83194803Y-96162306D01*
X83192194Y-96160742D01*
X83081946Y-96092810D01*
X83079430Y-96091217D01*
X82970848Y-96020576D01*
X82968386Y-96018930D01*
X82861610Y-95945674D01*
X82859121Y-95943922D01*
X82811818Y-95909731D01*
X82754165Y-95868059D01*
X82751769Y-95866282D01*
X82648745Y-95787896D01*
X82646385Y-95786055D01*
X82545316Y-95705164D01*
X82542965Y-95703235D01*
X82443871Y-95619857D01*
X82441593Y-95617892D01*
X82344591Y-95532118D01*
X82342382Y-95530115D01*
X82247496Y-95441969D01*
X82245293Y-95439873D01*
X82152603Y-95349431D01*
X82150508Y-95347335D01*
X82060104Y-95254683D01*
X82058006Y-95252480D01*
X81969902Y-95157638D01*
X81967858Y-95155382D01*
X81882127Y-95058427D01*
X81880139Y-95056123D01*
X81796765Y-94957036D01*
X81794835Y-94954684D01*
X81794833Y-94954681D01*
X81713933Y-94853601D01*
X81712109Y-94851263D01*
X81633715Y-94748227D01*
X81631903Y-94745783D01*
X81556078Y-94640879D01*
X81554325Y-94638390D01*
X81481073Y-94531620D01*
X81479382Y-94529091D01*
X81408816Y-94420623D01*
X81408779Y-94420566D01*
X81407181Y-94418041D01*
X81339255Y-94307804D01*
X81339254Y-94307803D01*
X81339248Y-94307793D01*
X81337691Y-94305194D01*
X81272547Y-94193421D01*
X81272514Y-94193364D01*
X81271094Y-94190859D01*
X81208596Y-94077309D01*
X81207188Y-94074673D01*
X81147578Y-93959781D01*
X81146209Y-93957062D01*
X81089419Y-93840706D01*
X81088119Y-93837956D01*
X81034216Y-93720275D01*
X81032982Y-93717492D01*
X80981963Y-93598474D01*
X80980798Y-93595663D01*
X80980798Y-93595662D01*
X80932724Y-93475451D01*
X80931648Y-93472660D01*
X80886542Y-93351315D01*
X80885516Y-93348447D01*
X80843393Y-93226000D01*
X80842439Y-93223112D01*
X80803335Y-93099675D01*
X80802505Y-93096942D01*
X80766412Y-92972476D01*
X80765621Y-92969618D01*
X80763718Y-92962401D01*
X80732607Y-92844367D01*
X80731882Y-92841474D01*
X80701962Y-92715480D01*
X80701296Y-92712512D01*
X80674494Y-92585912D01*
X80673900Y-92582928D01*
X80650187Y-92455567D01*
X80649690Y-92452701D01*
X80629114Y-92324815D01*
X80628688Y-92321947D01*
X80611246Y-92193529D01*
X80610892Y-92190657D01*
X80596607Y-92061844D01*
X80596318Y-92058907D01*
X80596317Y-92058897D01*
X80585200Y-91929804D01*
X80584987Y-91926916D01*
X80577042Y-91797600D01*
X80576895Y-91794594D01*
X80572132Y-91665267D01*
X80572057Y-91662223D01*
X80570460Y-91531970D01*
X80570451Y-91530450D01*
X80570451Y-61893589D01*
X80584575Y-61836114D01*
X80623730Y-61791733D01*
X80678997Y-61770556D01*
X80737783Y-61777407D01*
X80762606Y-61786664D01*
X80782517Y-61794091D01*
X80842127Y-61800500D01*
X81737872Y-61800499D01*
X81797483Y-61794091D01*
X81932331Y-61743796D01*
X82047546Y-61657546D01*
X82133796Y-61542331D01*
X82184091Y-61407483D01*
X82190500Y-61347873D01*
X82190499Y-60252128D01*
X82184091Y-60192517D01*
X82133796Y-60057669D01*
X82047546Y-59942454D01*
X82040447Y-59937140D01*
X81939431Y-59861519D01*
X81939430Y-59861518D01*
X81932331Y-59856204D01*
X81830764Y-59818322D01*
X81804752Y-59808620D01*
X81804750Y-59808619D01*
X81797483Y-59805909D01*
X81789770Y-59805079D01*
X81789767Y-59805079D01*
X81741180Y-59799855D01*
X81741169Y-59799854D01*
X81737873Y-59799500D01*
X81734550Y-59799500D01*
X80845439Y-59799500D01*
X80845420Y-59799500D01*
X80842128Y-59799501D01*
X80838850Y-59799853D01*
X80838838Y-59799854D01*
X80790231Y-59805079D01*
X80790225Y-59805080D01*
X80782517Y-59805909D01*
X80775250Y-59808619D01*
X80775243Y-59808621D01*
X80737783Y-59822593D01*
X80678997Y-59829444D01*
X80623730Y-59808267D01*
X80584575Y-59763886D01*
X80570451Y-59706411D01*
X80570451Y-58735056D01*
X81689500Y-58735056D01*
X81691293Y-58742332D01*
X81691294Y-58742337D01*
X81728415Y-58892944D01*
X81730210Y-58900225D01*
X81733693Y-58906862D01*
X81733695Y-58906866D01*
X81754572Y-58946643D01*
X81809266Y-59050852D01*
X81922071Y-59178183D01*
X82062070Y-59274818D01*
X82076343Y-59280231D01*
X82213185Y-59332128D01*
X82221128Y-59335140D01*
X82347628Y-59350500D01*
X82428623Y-59350500D01*
X82432372Y-59350500D01*
X82558872Y-59335140D01*
X82717930Y-59274818D01*
X82720113Y-59273310D01*
X82779241Y-59259678D01*
X82839648Y-59277504D01*
X82883505Y-59322705D01*
X82899500Y-59383622D01*
X82899500Y-59762818D01*
X82886384Y-59818322D01*
X82849812Y-59862084D01*
X82749551Y-59937140D01*
X82749546Y-59937144D01*
X82742454Y-59942454D01*
X82737144Y-59949546D01*
X82737141Y-59949550D01*
X82661519Y-60050568D01*
X82661516Y-60050572D01*
X82656204Y-60057669D01*
X82653104Y-60065978D01*
X82653104Y-60065980D01*
X82608620Y-60185247D01*
X82608619Y-60185250D01*
X82605909Y-60192517D01*
X82605079Y-60200227D01*
X82605079Y-60200232D01*
X82599855Y-60248819D01*
X82599854Y-60248831D01*
X82599500Y-60252127D01*
X82599500Y-60255448D01*
X82599500Y-60255449D01*
X82599500Y-61344560D01*
X82599500Y-61344578D01*
X82599501Y-61347872D01*
X82599853Y-61351150D01*
X82599854Y-61351161D01*
X82605079Y-61399768D01*
X82605080Y-61399773D01*
X82605909Y-61407483D01*
X82608619Y-61414749D01*
X82608620Y-61414753D01*
X82642217Y-61504831D01*
X82656204Y-61542331D01*
X82661518Y-61549430D01*
X82661519Y-61549431D01*
X82710453Y-61614799D01*
X82742454Y-61657546D01*
X82857669Y-61743796D01*
X82992517Y-61794091D01*
X83052127Y-61800500D01*
X83947872Y-61800499D01*
X84007483Y-61794091D01*
X84007635Y-61795508D01*
X84052394Y-61795207D01*
X84102439Y-61819011D01*
X84137116Y-61862239D01*
X84149500Y-61916255D01*
X84149500Y-75697225D01*
X84148978Y-75708280D01*
X84147327Y-75715667D01*
X84147571Y-75723453D01*
X84147571Y-75723461D01*
X84149439Y-75782873D01*
X84149500Y-75786768D01*
X84149500Y-75814350D01*
X84149988Y-75818219D01*
X84149989Y-75818225D01*
X84150004Y-75818343D01*
X84150918Y-75829966D01*
X84152045Y-75865830D01*
X84152046Y-75865837D01*
X84152291Y-75873627D01*
X84154467Y-75881119D01*
X84154468Y-75881121D01*
X84157879Y-75892862D01*
X84161825Y-75911915D01*
X84164336Y-75931792D01*
X84167206Y-75939042D01*
X84167208Y-75939048D01*
X84180414Y-75972404D01*
X84184197Y-75983451D01*
X84196382Y-76025390D01*
X84200353Y-76032105D01*
X84200354Y-76032107D01*
X84206581Y-76042637D01*
X84215136Y-76060099D01*
X84219642Y-76071480D01*
X84219643Y-76071483D01*
X84222514Y-76078732D01*
X84244440Y-76108912D01*
X84248181Y-76114060D01*
X84254593Y-76123822D01*
X84272856Y-76154702D01*
X84272859Y-76154707D01*
X84276830Y-76161420D01*
X84282345Y-76166935D01*
X84290990Y-76175580D01*
X84303626Y-76190374D01*
X84310819Y-76200275D01*
X84310823Y-76200279D01*
X84315406Y-76206587D01*
X84321415Y-76211558D01*
X84321416Y-76211559D01*
X84349058Y-76234426D01*
X84357699Y-76242289D01*
X90487707Y-82372298D01*
X90495159Y-82380487D01*
X90499214Y-82386877D01*
X90548223Y-82432900D01*
X90551019Y-82435610D01*
X90570529Y-82455120D01*
X90573709Y-82457587D01*
X90582571Y-82465155D01*
X90595880Y-82477654D01*
X90608732Y-82489723D01*
X90608734Y-82489724D01*
X90614418Y-82495062D01*
X90621251Y-82498818D01*
X90621252Y-82498819D01*
X90631973Y-82504713D01*
X90648234Y-82515394D01*
X90664064Y-82527673D01*
X90704155Y-82545021D01*
X90714635Y-82550155D01*
X90752908Y-82571197D01*
X90772316Y-82576180D01*
X90790719Y-82582481D01*
X90801944Y-82587339D01*
X90801946Y-82587339D01*
X90809104Y-82590437D01*
X90852258Y-82597271D01*
X90863655Y-82599632D01*
X90871426Y-82601627D01*
X90916160Y-82623428D01*
X90948722Y-82661063D01*
X90963864Y-82708470D01*
X90965078Y-82719762D01*
X90965079Y-82719769D01*
X90965909Y-82727483D01*
X90968619Y-82734749D01*
X90968620Y-82734753D01*
X91002217Y-82824831D01*
X91016204Y-82862331D01*
X91102454Y-82977546D01*
X91217669Y-83063796D01*
X91352517Y-83114091D01*
X91412127Y-83120500D01*
X96587872Y-83120499D01*
X96647483Y-83114091D01*
X96782331Y-83063796D01*
X96897546Y-82977546D01*
X96983796Y-82862331D01*
X97034091Y-82727483D01*
X97040500Y-82667873D01*
X97040499Y-82638969D01*
X97057771Y-82575839D01*
X97095228Y-82539549D01*
X97093730Y-82537488D01*
X97113821Y-82522890D01*
X97129069Y-82511811D01*
X97138824Y-82505403D01*
X97176420Y-82483170D01*
X97190584Y-82469005D01*
X97205379Y-82456368D01*
X97221587Y-82444594D01*
X97249428Y-82410938D01*
X97257279Y-82402309D01*
X103612311Y-76047278D01*
X103620481Y-76039844D01*
X103626877Y-76035786D01*
X103672918Y-75986756D01*
X103675535Y-75984054D01*
X103695120Y-75964471D01*
X103697585Y-75961292D01*
X103705167Y-75952416D01*
X103735062Y-75920582D01*
X103744713Y-75903023D01*
X103755390Y-75886770D01*
X103767673Y-75870936D01*
X103785018Y-75830852D01*
X103790151Y-75820371D01*
X103811197Y-75782092D01*
X103816179Y-75762684D01*
X103822482Y-75744276D01*
X103830437Y-75725896D01*
X103837271Y-75682744D01*
X103839633Y-75671338D01*
X103850500Y-75629019D01*
X103850500Y-75608983D01*
X103852027Y-75589585D01*
X103853939Y-75577513D01*
X103853938Y-75577513D01*
X103855160Y-75569804D01*
X103851050Y-75526324D01*
X103850500Y-75514655D01*
X103850500Y-66802775D01*
X103851021Y-66791719D01*
X103852673Y-66784333D01*
X103850561Y-66717127D01*
X103850500Y-66713232D01*
X103850500Y-66689541D01*
X103850500Y-66685650D01*
X103849998Y-66681677D01*
X103849080Y-66670018D01*
X103848504Y-66651696D01*
X103847709Y-66626373D01*
X103842120Y-66607140D01*
X103838174Y-66588083D01*
X103836641Y-66575944D01*
X103835664Y-66568208D01*
X103819582Y-66527591D01*
X103815803Y-66516551D01*
X103805795Y-66482102D01*
X103805793Y-66482099D01*
X103803618Y-66474610D01*
X103793417Y-66457360D01*
X103784863Y-66439901D01*
X103777486Y-66421268D01*
X103751808Y-66385925D01*
X103745401Y-66376171D01*
X103727142Y-66345296D01*
X103727141Y-66345294D01*
X103723170Y-66338580D01*
X103709005Y-66324415D01*
X103696370Y-66309622D01*
X103684594Y-66293413D01*
X103678583Y-66288440D01*
X103678581Y-66288438D01*
X103650941Y-66265573D01*
X103642300Y-66257710D01*
X97076818Y-59692227D01*
X97049938Y-59651999D01*
X97040499Y-59604546D01*
X97040499Y-59335439D01*
X97040499Y-59332128D01*
X97034091Y-59272517D01*
X96983796Y-59137669D01*
X96897546Y-59022454D01*
X96782331Y-58936204D01*
X96647483Y-58885909D01*
X96639770Y-58885079D01*
X96639767Y-58885079D01*
X96591180Y-58879855D01*
X96591169Y-58879854D01*
X96587873Y-58879500D01*
X96584550Y-58879500D01*
X91415439Y-58879500D01*
X91415420Y-58879500D01*
X91412128Y-58879501D01*
X91408850Y-58879853D01*
X91408838Y-58879854D01*
X91360231Y-58885079D01*
X91360225Y-58885080D01*
X91352517Y-58885909D01*
X91345252Y-58888618D01*
X91345246Y-58888620D01*
X91217669Y-58936204D01*
X91217005Y-58934423D01*
X91167292Y-58946643D01*
X91106229Y-58929307D01*
X91061747Y-58884024D01*
X91045500Y-58822663D01*
X91045500Y-55815228D01*
X91059511Y-55757971D01*
X91098376Y-55713653D01*
X91249912Y-55607546D01*
X91291401Y-55578495D01*
X91458495Y-55411401D01*
X91588424Y-55225842D01*
X91632743Y-55186976D01*
X91690000Y-55172965D01*
X91747257Y-55186976D01*
X91791575Y-55225842D01*
X91918395Y-55406961D01*
X91918401Y-55406968D01*
X91921505Y-55411401D01*
X92088599Y-55578495D01*
X92093031Y-55581598D01*
X92093033Y-55581600D01*
X92181454Y-55643513D01*
X92282170Y-55714035D01*
X92287070Y-55716320D01*
X92287072Y-55716321D01*
X92333951Y-55738181D01*
X92496337Y-55813903D01*
X92724592Y-55875063D01*
X92960000Y-55895659D01*
X93195408Y-55875063D01*
X93423663Y-55813903D01*
X93637830Y-55714035D01*
X93831401Y-55578495D01*
X93998495Y-55411401D01*
X94128424Y-55225842D01*
X94172743Y-55186976D01*
X94230000Y-55172965D01*
X94287257Y-55186976D01*
X94331575Y-55225842D01*
X94458395Y-55406961D01*
X94458401Y-55406968D01*
X94461505Y-55411401D01*
X94628599Y-55578495D01*
X94633031Y-55581598D01*
X94633033Y-55581600D01*
X94721454Y-55643513D01*
X94822170Y-55714035D01*
X94827070Y-55716320D01*
X94827072Y-55716321D01*
X94873951Y-55738181D01*
X95036337Y-55813903D01*
X95264592Y-55875063D01*
X95500000Y-55895659D01*
X95735408Y-55875063D01*
X95963663Y-55813903D01*
X96177830Y-55714035D01*
X96371401Y-55578495D01*
X96538495Y-55411401D01*
X96674035Y-55217830D01*
X96773903Y-55003663D01*
X96835063Y-54775408D01*
X96855659Y-54540000D01*
X96835063Y-54304592D01*
X96773903Y-54076337D01*
X96674035Y-53862171D01*
X96538495Y-53668599D01*
X96371401Y-53501505D01*
X96369252Y-53500000D01*
X101494357Y-53500000D01*
X101494781Y-53505117D01*
X101514467Y-53742701D01*
X101514468Y-53742709D01*
X101514892Y-53747821D01*
X101516149Y-53752788D01*
X101516151Y-53752795D01*
X101574678Y-53983910D01*
X101575937Y-53988881D01*
X101577997Y-53993577D01*
X101673766Y-54211910D01*
X101673769Y-54211916D01*
X101675827Y-54216607D01*
X101678627Y-54220893D01*
X101678631Y-54220900D01*
X101771377Y-54362858D01*
X101811836Y-54424785D01*
X101815310Y-54428559D01*
X101815311Y-54428560D01*
X101976784Y-54603967D01*
X101976787Y-54603970D01*
X101980256Y-54607738D01*
X102176491Y-54760474D01*
X102395190Y-54878828D01*
X102630386Y-54959571D01*
X102875665Y-55000500D01*
X103119201Y-55000500D01*
X103124335Y-55000500D01*
X103369614Y-54959571D01*
X103604810Y-54878828D01*
X103823509Y-54760474D01*
X104019744Y-54607738D01*
X104188164Y-54424785D01*
X104324173Y-54216607D01*
X104424063Y-53988881D01*
X104485108Y-53747821D01*
X104505643Y-53500000D01*
X104485108Y-53252179D01*
X104424063Y-53011119D01*
X104324173Y-52783393D01*
X104302727Y-52750568D01*
X104225894Y-52632965D01*
X104188164Y-52575215D01*
X104126534Y-52508267D01*
X104023215Y-52396032D01*
X104023211Y-52396029D01*
X104019744Y-52392262D01*
X103823509Y-52239526D01*
X103805938Y-52230017D01*
X103609316Y-52123610D01*
X103609310Y-52123607D01*
X103604810Y-52121172D01*
X103599969Y-52119510D01*
X103599962Y-52119507D01*
X103374465Y-52042094D01*
X103374461Y-52042093D01*
X103369614Y-52040429D01*
X103360768Y-52038952D01*
X103129398Y-52000344D01*
X103129387Y-52000343D01*
X103124335Y-51999500D01*
X102875665Y-51999500D01*
X102870613Y-52000343D01*
X102870601Y-52000344D01*
X102635443Y-52039585D01*
X102635441Y-52039585D01*
X102630386Y-52040429D01*
X102625541Y-52042092D01*
X102625534Y-52042094D01*
X102400037Y-52119507D01*
X102400026Y-52119511D01*
X102395190Y-52121172D01*
X102390693Y-52123605D01*
X102390683Y-52123610D01*
X102181002Y-52237084D01*
X102180995Y-52237088D01*
X102176491Y-52239526D01*
X102172448Y-52242672D01*
X102172440Y-52242678D01*
X101984304Y-52389111D01*
X101980256Y-52392262D01*
X101976793Y-52396023D01*
X101976784Y-52396032D01*
X101815311Y-52571439D01*
X101815305Y-52571446D01*
X101811836Y-52575215D01*
X101809031Y-52579506D01*
X101809028Y-52579512D01*
X101678631Y-52779099D01*
X101678624Y-52779111D01*
X101675827Y-52783393D01*
X101673772Y-52788077D01*
X101673766Y-52788089D01*
X101577997Y-53006422D01*
X101575937Y-53011119D01*
X101574679Y-53016084D01*
X101574678Y-53016089D01*
X101516151Y-53247204D01*
X101516149Y-53247213D01*
X101514892Y-53252179D01*
X101514468Y-53257288D01*
X101514467Y-53257298D01*
X101499939Y-53432634D01*
X101494357Y-53500000D01*
X96369252Y-53500000D01*
X96366968Y-53498401D01*
X96366961Y-53498395D01*
X96185842Y-53371575D01*
X96146976Y-53327257D01*
X96132965Y-53270000D01*
X96146976Y-53212743D01*
X96185842Y-53168425D01*
X96366961Y-53041604D01*
X96366961Y-53041603D01*
X96371401Y-53038495D01*
X96538495Y-52871401D01*
X96674035Y-52677830D01*
X96773903Y-52463663D01*
X96835063Y-52235408D01*
X96855659Y-52000000D01*
X96835063Y-51764592D01*
X96773903Y-51536337D01*
X96674035Y-51322171D01*
X96538495Y-51128599D01*
X96371401Y-50961505D01*
X96366970Y-50958402D01*
X96366966Y-50958399D01*
X96182259Y-50829066D01*
X96182257Y-50829064D01*
X96177830Y-50825965D01*
X96172933Y-50823681D01*
X96172927Y-50823678D01*
X95968572Y-50728386D01*
X95968570Y-50728385D01*
X95963663Y-50726097D01*
X95958438Y-50724697D01*
X95958430Y-50724694D01*
X95740634Y-50666337D01*
X95740630Y-50666336D01*
X95735408Y-50664937D01*
X95730020Y-50664465D01*
X95730017Y-50664465D01*
X95505395Y-50644813D01*
X95500000Y-50644341D01*
X95494605Y-50644813D01*
X95269982Y-50664465D01*
X95269977Y-50664465D01*
X95264592Y-50664937D01*
X95259371Y-50666335D01*
X95259365Y-50666337D01*
X95041569Y-50724694D01*
X95041557Y-50724698D01*
X95036337Y-50726097D01*
X95031432Y-50728383D01*
X95031427Y-50728386D01*
X94827081Y-50823675D01*
X94827077Y-50823677D01*
X94822171Y-50825965D01*
X94817738Y-50829068D01*
X94817731Y-50829073D01*
X94633034Y-50958399D01*
X94633029Y-50958402D01*
X94628599Y-50961505D01*
X94624775Y-50965328D01*
X94624769Y-50965334D01*
X94465334Y-51124769D01*
X94465328Y-51124775D01*
X94461505Y-51128599D01*
X94458402Y-51133029D01*
X94458399Y-51133034D01*
X94331575Y-51314159D01*
X94287257Y-51353025D01*
X94230000Y-51367036D01*
X94172743Y-51353025D01*
X94128425Y-51314159D01*
X94001600Y-51133034D01*
X93998495Y-51128599D01*
X93831401Y-50961505D01*
X93826970Y-50958402D01*
X93826966Y-50958399D01*
X93642259Y-50829066D01*
X93642257Y-50829064D01*
X93637830Y-50825965D01*
X93632933Y-50823681D01*
X93632927Y-50823678D01*
X93428572Y-50728386D01*
X93428570Y-50728385D01*
X93423663Y-50726097D01*
X93418438Y-50724697D01*
X93418430Y-50724694D01*
X93200634Y-50666337D01*
X93200630Y-50666336D01*
X93195408Y-50664937D01*
X93190020Y-50664465D01*
X93190017Y-50664465D01*
X92965395Y-50644813D01*
X92960000Y-50644341D01*
X92954605Y-50644813D01*
X92729982Y-50664465D01*
X92729977Y-50664465D01*
X92724592Y-50664937D01*
X92719371Y-50666335D01*
X92719365Y-50666337D01*
X92501569Y-50724694D01*
X92501557Y-50724698D01*
X92496337Y-50726097D01*
X92491432Y-50728383D01*
X92491427Y-50728386D01*
X92287081Y-50823675D01*
X92287077Y-50823677D01*
X92282171Y-50825965D01*
X92277738Y-50829068D01*
X92277731Y-50829073D01*
X92093034Y-50958399D01*
X92093029Y-50958402D01*
X92088599Y-50961505D01*
X92084774Y-50965329D01*
X92084775Y-50965329D01*
X91966673Y-51083431D01*
X91913926Y-51114726D01*
X91852633Y-51116915D01*
X91797789Y-51089462D01*
X91762810Y-51039082D01*
X91735304Y-50965336D01*
X91713796Y-50907669D01*
X91627546Y-50792454D01*
X91537030Y-50724694D01*
X91519431Y-50711519D01*
X91519430Y-50711518D01*
X91512331Y-50706204D01*
X91405442Y-50666337D01*
X91384752Y-50658620D01*
X91384750Y-50658619D01*
X91377483Y-50655909D01*
X91369770Y-50655079D01*
X91369767Y-50655079D01*
X91321180Y-50649855D01*
X91321169Y-50649854D01*
X91317873Y-50649500D01*
X91314550Y-50649500D01*
X89525439Y-50649500D01*
X89525420Y-50649500D01*
X89522128Y-50649501D01*
X89518850Y-50649853D01*
X89518838Y-50649854D01*
X89470231Y-50655079D01*
X89470225Y-50655080D01*
X89462517Y-50655909D01*
X89455252Y-50658618D01*
X89455246Y-50658620D01*
X89335980Y-50703104D01*
X89335978Y-50703104D01*
X89327669Y-50706204D01*
X89320572Y-50711516D01*
X89320568Y-50711519D01*
X89219550Y-50787141D01*
X89219546Y-50787144D01*
X89212454Y-50792454D01*
X89207144Y-50799546D01*
X89207141Y-50799550D01*
X89131519Y-50900568D01*
X89131516Y-50900572D01*
X89126204Y-50907669D01*
X89123104Y-50915978D01*
X89123104Y-50915980D01*
X89078620Y-51035247D01*
X89078619Y-51035250D01*
X89075909Y-51042517D01*
X89075079Y-51050227D01*
X89075079Y-51050232D01*
X89069855Y-51098819D01*
X89069854Y-51098831D01*
X89069500Y-51102127D01*
X89069500Y-51105449D01*
X89069500Y-52414547D01*
X89060061Y-52462000D01*
X89033181Y-52502228D01*
X85797228Y-55738181D01*
X85757000Y-55765061D01*
X85709547Y-55774500D01*
X85381035Y-55774500D01*
X85325581Y-55761409D01*
X85281835Y-55724900D01*
X85281458Y-55724396D01*
X85259510Y-55676430D01*
X85259486Y-55623677D01*
X85281392Y-55575691D01*
X85343796Y-55492331D01*
X85394091Y-55357483D01*
X85400500Y-55297873D01*
X85400499Y-54502128D01*
X85394091Y-54442517D01*
X85343796Y-54307669D01*
X85257546Y-54192454D01*
X85142331Y-54106204D01*
X85007483Y-54055909D01*
X84999770Y-54055079D01*
X84999767Y-54055079D01*
X84951180Y-54049855D01*
X84951169Y-54049854D01*
X84947873Y-54049500D01*
X84944551Y-54049500D01*
X84524500Y-54049500D01*
X84462500Y-54032887D01*
X84417113Y-53987500D01*
X84400500Y-53925500D01*
X84400499Y-52955439D01*
X84400499Y-52952128D01*
X84394091Y-52892517D01*
X84343796Y-52757669D01*
X84257546Y-52642454D01*
X84244870Y-52632965D01*
X84149431Y-52561519D01*
X84149430Y-52561518D01*
X84142331Y-52556204D01*
X84052215Y-52522593D01*
X84014752Y-52508620D01*
X84014750Y-52508619D01*
X84007483Y-52505909D01*
X83999770Y-52505079D01*
X83999767Y-52505079D01*
X83951180Y-52499855D01*
X83951169Y-52499854D01*
X83947873Y-52499500D01*
X83944550Y-52499500D01*
X83055439Y-52499500D01*
X83055420Y-52499500D01*
X83052128Y-52499501D01*
X83048850Y-52499853D01*
X83048838Y-52499854D01*
X83000231Y-52505079D01*
X83000225Y-52505080D01*
X82992517Y-52505909D01*
X82985252Y-52508618D01*
X82985246Y-52508620D01*
X82865980Y-52553104D01*
X82865978Y-52553104D01*
X82857669Y-52556204D01*
X82850572Y-52561516D01*
X82850568Y-52561519D01*
X82749550Y-52637141D01*
X82749546Y-52637144D01*
X82742454Y-52642454D01*
X82737144Y-52649546D01*
X82737141Y-52649550D01*
X82661519Y-52750568D01*
X82661516Y-52750572D01*
X82656204Y-52757669D01*
X82653104Y-52765978D01*
X82653104Y-52765980D01*
X82608620Y-52885247D01*
X82608619Y-52885250D01*
X82605909Y-52892517D01*
X82605079Y-52900227D01*
X82605079Y-52900232D01*
X82599855Y-52948819D01*
X82599854Y-52948831D01*
X82599500Y-52952127D01*
X82599500Y-52955448D01*
X82599500Y-52955449D01*
X82599500Y-54044560D01*
X82599500Y-54044578D01*
X82599501Y-54047872D01*
X82599853Y-54051150D01*
X82599854Y-54051161D01*
X82605079Y-54099768D01*
X82605080Y-54099773D01*
X82605909Y-54107483D01*
X82608619Y-54114749D01*
X82608620Y-54114753D01*
X82635619Y-54187141D01*
X82656204Y-54242331D01*
X82661518Y-54249430D01*
X82661519Y-54249431D01*
X82706847Y-54309982D01*
X82742454Y-54357546D01*
X82849812Y-54437914D01*
X82886384Y-54481676D01*
X82899500Y-54537180D01*
X82899500Y-54916377D01*
X82883506Y-54977292D01*
X82839651Y-55022493D01*
X82779247Y-55040320D01*
X82720116Y-55026691D01*
X82717930Y-55025182D01*
X82683256Y-55012032D01*
X82565888Y-54967520D01*
X82565882Y-54967518D01*
X82558872Y-54964860D01*
X82551427Y-54963956D01*
X82551423Y-54963955D01*
X82436092Y-54949951D01*
X82436080Y-54949950D01*
X82432372Y-54949500D01*
X82347628Y-54949500D01*
X82343920Y-54949950D01*
X82343907Y-54949951D01*
X82228576Y-54963955D01*
X82228570Y-54963956D01*
X82221128Y-54964860D01*
X82214119Y-54967517D01*
X82214111Y-54967520D01*
X82069087Y-55022520D01*
X82069081Y-55022523D01*
X82062070Y-55025182D01*
X82055897Y-55029442D01*
X82055893Y-55029445D01*
X81928241Y-55117557D01*
X81928235Y-55117562D01*
X81922071Y-55121817D01*
X81917099Y-55127428D01*
X81917098Y-55127430D01*
X81814241Y-55243531D01*
X81814236Y-55243537D01*
X81809266Y-55249148D01*
X81805780Y-55255788D01*
X81805779Y-55255791D01*
X81733695Y-55393133D01*
X81733692Y-55393140D01*
X81730210Y-55399775D01*
X81728416Y-55407050D01*
X81728415Y-55407055D01*
X81691294Y-55557662D01*
X81691293Y-55557668D01*
X81689500Y-55564944D01*
X81689500Y-55735056D01*
X81691293Y-55742332D01*
X81691294Y-55742337D01*
X81724008Y-55875063D01*
X81730210Y-55900225D01*
X81733693Y-55906862D01*
X81733695Y-55906866D01*
X81796129Y-56025823D01*
X81809266Y-56050852D01*
X81922071Y-56178183D01*
X82062070Y-56274818D01*
X82221128Y-56335140D01*
X82347628Y-56350500D01*
X82428623Y-56350500D01*
X82432372Y-56350500D01*
X82558872Y-56335140D01*
X82717930Y-56274818D01*
X82720113Y-56273310D01*
X82779241Y-56259678D01*
X82839648Y-56277504D01*
X82883505Y-56322705D01*
X82899500Y-56383622D01*
X82899500Y-56794560D01*
X82899500Y-56794578D01*
X82899501Y-56797872D01*
X82899853Y-56801150D01*
X82899854Y-56801161D01*
X82905079Y-56849768D01*
X82905080Y-56849773D01*
X82905909Y-56857483D01*
X82908619Y-56864749D01*
X82908620Y-56864753D01*
X82929375Y-56920399D01*
X82956204Y-56992331D01*
X82961518Y-56999430D01*
X82961519Y-56999431D01*
X82980667Y-57025010D01*
X83042454Y-57107546D01*
X83157669Y-57193796D01*
X83292517Y-57244091D01*
X83352127Y-57250500D01*
X84947872Y-57250499D01*
X85007483Y-57244091D01*
X85142331Y-57193796D01*
X85257546Y-57107546D01*
X85281769Y-57075187D01*
X85325531Y-57038616D01*
X85381035Y-57025500D01*
X85942225Y-57025500D01*
X85953280Y-57026021D01*
X85960667Y-57027673D01*
X86027872Y-57025561D01*
X86031768Y-57025500D01*
X86055448Y-57025500D01*
X86059350Y-57025500D01*
X86063313Y-57024999D01*
X86074963Y-57024080D01*
X86118627Y-57022709D01*
X86137861Y-57017119D01*
X86156917Y-57013174D01*
X86176792Y-57010664D01*
X86217395Y-56994587D01*
X86228450Y-56990802D01*
X86270390Y-56978618D01*
X86287629Y-56968422D01*
X86305103Y-56959862D01*
X86316474Y-56955360D01*
X86316476Y-56955358D01*
X86323732Y-56952486D01*
X86359069Y-56926811D01*
X86368824Y-56920403D01*
X86406420Y-56898170D01*
X86420584Y-56884005D01*
X86435379Y-56871368D01*
X86451587Y-56859594D01*
X86479428Y-56825938D01*
X86487279Y-56817309D01*
X88853131Y-54451457D01*
X88902495Y-54421207D01*
X88960211Y-54416665D01*
X89013698Y-54438820D01*
X89051298Y-54482843D01*
X89064522Y-54537927D01*
X89064341Y-54540000D01*
X89064813Y-54545395D01*
X89083354Y-54757321D01*
X89084937Y-54775408D01*
X89086336Y-54780630D01*
X89086337Y-54780634D01*
X89144694Y-54998430D01*
X89144697Y-54998438D01*
X89146097Y-55003663D01*
X89148385Y-55008570D01*
X89148386Y-55008572D01*
X89243678Y-55212927D01*
X89243681Y-55212933D01*
X89245965Y-55217830D01*
X89249064Y-55222257D01*
X89249066Y-55222259D01*
X89378399Y-55406966D01*
X89378402Y-55406970D01*
X89381505Y-55411401D01*
X89548599Y-55578495D01*
X89553031Y-55581598D01*
X89553033Y-55581600D01*
X89741624Y-55713653D01*
X89780489Y-55757971D01*
X89794500Y-55815228D01*
X89794500Y-62514450D01*
X89776858Y-62578199D01*
X89728954Y-62623807D01*
X89551885Y-62718451D01*
X89299025Y-62853608D01*
X89299010Y-62853616D01*
X89297232Y-62854567D01*
X89295525Y-62855628D01*
X89295505Y-62855640D01*
X88776307Y-63178499D01*
X88774564Y-63179583D01*
X88772908Y-63180769D01*
X88772897Y-63180777D01*
X88275921Y-63536904D01*
X88275894Y-63536924D01*
X88274272Y-63538087D01*
X88272715Y-63539364D01*
X88272703Y-63539374D01*
X87800079Y-63927246D01*
X87800055Y-63927266D01*
X87798499Y-63928544D01*
X87797020Y-63929928D01*
X87797002Y-63929945D01*
X87350764Y-64347893D01*
X87350748Y-64347908D01*
X87349282Y-64349282D01*
X87347908Y-64350748D01*
X87347893Y-64350764D01*
X86929945Y-64797002D01*
X86929928Y-64797020D01*
X86928544Y-64798499D01*
X86927266Y-64800055D01*
X86927246Y-64800079D01*
X86539374Y-65272703D01*
X86539364Y-65272715D01*
X86538087Y-65274272D01*
X86536924Y-65275894D01*
X86536904Y-65275921D01*
X86180777Y-65772897D01*
X86180769Y-65772908D01*
X86179583Y-65774564D01*
X86178500Y-65776304D01*
X86178499Y-65776307D01*
X85855640Y-66295505D01*
X85855628Y-66295525D01*
X85854567Y-66297232D01*
X85853616Y-66299010D01*
X85853608Y-66299025D01*
X85633858Y-66710149D01*
X85589290Y-66757423D01*
X85526935Y-66775672D01*
X85463911Y-66759885D01*
X85417521Y-66714398D01*
X85400500Y-66651696D01*
X85400500Y-60102771D01*
X85401020Y-60091718D01*
X85402672Y-60084332D01*
X85400561Y-60017144D01*
X85400500Y-60013250D01*
X85400500Y-59989545D01*
X85400500Y-59985650D01*
X85399998Y-59981681D01*
X85399080Y-59970024D01*
X85397954Y-59934172D01*
X85397709Y-59926372D01*
X85395296Y-59918070D01*
X85395276Y-59917271D01*
X85394311Y-59911176D01*
X85395118Y-59911048D01*
X85393780Y-59858315D01*
X85394091Y-59857483D01*
X85400500Y-59797873D01*
X85400499Y-59002128D01*
X85394091Y-58942517D01*
X85343796Y-58807669D01*
X85257546Y-58692454D01*
X85209500Y-58656487D01*
X85149431Y-58611519D01*
X85149430Y-58611518D01*
X85142331Y-58606204D01*
X85031707Y-58564944D01*
X85014752Y-58558620D01*
X85014750Y-58558619D01*
X85007483Y-58555909D01*
X84999770Y-58555079D01*
X84999767Y-58555079D01*
X84951180Y-58549855D01*
X84951169Y-58549854D01*
X84947873Y-58549500D01*
X84944550Y-58549500D01*
X83355439Y-58549500D01*
X83355420Y-58549500D01*
X83352128Y-58549501D01*
X83348850Y-58549853D01*
X83348838Y-58549854D01*
X83300231Y-58555079D01*
X83300225Y-58555080D01*
X83292517Y-58555909D01*
X83285250Y-58558619D01*
X83285243Y-58558621D01*
X83235886Y-58577030D01*
X83167305Y-58582250D01*
X83106492Y-58550119D01*
X83072157Y-58490523D01*
X83051584Y-58407055D01*
X83049790Y-58399775D01*
X82970734Y-58249148D01*
X82857929Y-58121817D01*
X82851760Y-58117558D01*
X82851758Y-58117557D01*
X82724106Y-58029445D01*
X82724105Y-58029444D01*
X82717930Y-58025182D01*
X82710915Y-58022521D01*
X82710912Y-58022520D01*
X82565888Y-57967520D01*
X82565882Y-57967518D01*
X82558872Y-57964860D01*
X82551427Y-57963956D01*
X82551423Y-57963955D01*
X82436092Y-57949951D01*
X82436080Y-57949950D01*
X82432372Y-57949500D01*
X82347628Y-57949500D01*
X82343920Y-57949950D01*
X82343907Y-57949951D01*
X82228576Y-57963955D01*
X82228570Y-57963956D01*
X82221128Y-57964860D01*
X82214119Y-57967517D01*
X82214111Y-57967520D01*
X82069087Y-58022520D01*
X82069081Y-58022523D01*
X82062070Y-58025182D01*
X82055897Y-58029442D01*
X82055893Y-58029445D01*
X81928241Y-58117557D01*
X81928235Y-58117562D01*
X81922071Y-58121817D01*
X81917099Y-58127428D01*
X81917098Y-58127430D01*
X81814241Y-58243531D01*
X81814236Y-58243537D01*
X81809266Y-58249148D01*
X81805780Y-58255788D01*
X81805779Y-58255791D01*
X81733695Y-58393133D01*
X81733692Y-58393140D01*
X81730210Y-58399775D01*
X81728416Y-58407050D01*
X81728415Y-58407055D01*
X81691294Y-58557662D01*
X81691293Y-58557668D01*
X81689500Y-58564944D01*
X81689500Y-58735056D01*
X80570451Y-58735056D01*
X80570451Y-54593589D01*
X80584575Y-54536114D01*
X80623730Y-54491733D01*
X80678997Y-54470556D01*
X80737783Y-54477407D01*
X80762606Y-54486664D01*
X80782517Y-54494091D01*
X80842127Y-54500500D01*
X81737872Y-54500499D01*
X81797483Y-54494091D01*
X81932331Y-54443796D01*
X82047546Y-54357546D01*
X82133796Y-54242331D01*
X82184091Y-54107483D01*
X82190500Y-54047873D01*
X82190499Y-52952128D01*
X82184091Y-52892517D01*
X82133796Y-52757669D01*
X82047546Y-52642454D01*
X82034870Y-52632965D01*
X81939431Y-52561519D01*
X81939430Y-52561518D01*
X81932331Y-52556204D01*
X81842215Y-52522593D01*
X81804752Y-52508620D01*
X81804750Y-52508619D01*
X81797483Y-52505909D01*
X81789770Y-52505079D01*
X81789767Y-52505079D01*
X81741180Y-52499855D01*
X81741169Y-52499854D01*
X81737873Y-52499500D01*
X81734550Y-52499500D01*
X80845439Y-52499500D01*
X80845420Y-52499500D01*
X80842128Y-52499501D01*
X80838850Y-52499853D01*
X80838838Y-52499854D01*
X80790231Y-52505079D01*
X80790225Y-52505080D01*
X80782517Y-52505909D01*
X80775250Y-52508619D01*
X80775243Y-52508621D01*
X80737783Y-52522593D01*
X80678997Y-52529444D01*
X80623730Y-52508267D01*
X80584575Y-52463886D01*
X80570451Y-52406411D01*
X80570451Y-49767357D01*
X80587064Y-49705357D01*
X80632451Y-49659970D01*
X80694451Y-49643357D01*
X89127031Y-49643357D01*
X89143357Y-49643357D01*
X89143357Y-45361643D01*
X89127031Y-45361643D01*
X80694451Y-45361643D01*
X80632451Y-45345030D01*
X80587064Y-45299643D01*
X80570451Y-45237643D01*
X80570451Y-42469550D01*
X80570460Y-42468030D01*
X80572057Y-42337775D01*
X80572132Y-42334731D01*
X80576897Y-42205362D01*
X80577044Y-42202365D01*
X80584986Y-42073088D01*
X80585201Y-42070183D01*
X80596319Y-41941078D01*
X80596618Y-41938059D01*
X80610883Y-41809432D01*
X80611255Y-41806412D01*
X80628679Y-41678121D01*
X80629114Y-41675181D01*
X80649703Y-41547220D01*
X80650184Y-41544446D01*
X80673907Y-41417030D01*
X80674494Y-41414086D01*
X80701296Y-41287486D01*
X80701962Y-41284518D01*
X80709548Y-41252571D01*
X80731887Y-41158504D01*
X80732602Y-41155650D01*
X80765625Y-41030362D01*
X80766406Y-41027542D01*
X80802512Y-40903034D01*
X80803328Y-40900346D01*
X80842455Y-40776837D01*
X80843393Y-40773998D01*
X80843410Y-40773949D01*
X80885530Y-40651510D01*
X80886527Y-40648724D01*
X80931665Y-40527292D01*
X80932743Y-40524501D01*
X80980836Y-40404239D01*
X80981924Y-40401613D01*
X81033026Y-40282403D01*
X81034185Y-40279787D01*
X81088150Y-40161974D01*
X81089406Y-40159320D01*
X81146222Y-40042907D01*
X81147547Y-40040276D01*
X81207197Y-39925306D01*
X81208579Y-39922720D01*
X81271113Y-39809105D01*
X81272493Y-39806669D01*
X81337718Y-39694757D01*
X81339226Y-39692240D01*
X81407211Y-39581908D01*
X81408755Y-39579468D01*
X81479416Y-39470855D01*
X81481073Y-39468378D01*
X81554325Y-39361608D01*
X81556078Y-39359119D01*
X81631903Y-39254215D01*
X81633686Y-39251809D01*
X81712140Y-39148695D01*
X81713902Y-39146436D01*
X81794883Y-39045255D01*
X81796717Y-39043019D01*
X81880167Y-38943842D01*
X81882127Y-38941571D01*
X81967839Y-38844638D01*
X81967878Y-38844592D01*
X81969845Y-38842422D01*
X82058055Y-38747465D01*
X82060052Y-38745369D01*
X82150567Y-38652603D01*
X82152563Y-38650606D01*
X82245346Y-38560074D01*
X82247496Y-38558029D01*
X82334098Y-38477578D01*
X82342385Y-38469880D01*
X82344546Y-38467919D01*
X82441639Y-38382065D01*
X82443842Y-38380165D01*
X82543004Y-38296730D01*
X82545314Y-38294836D01*
X82646435Y-38213903D01*
X82648694Y-38212140D01*
X82751831Y-38133669D01*
X82754113Y-38131977D01*
X82859144Y-38056059D01*
X82861610Y-38054324D01*
X82945427Y-37996819D01*
X82968399Y-37981059D01*
X82970793Y-37979458D01*
X83079487Y-37908744D01*
X83081887Y-37907224D01*
X83192204Y-37839249D01*
X83194757Y-37837719D01*
X83306691Y-37772481D01*
X83309180Y-37771072D01*
X83411980Y-37714491D01*
X83422688Y-37708598D01*
X83425342Y-37707178D01*
X83540303Y-37647534D01*
X83542909Y-37646222D01*
X83659345Y-37589393D01*
X83662013Y-37588131D01*
X83779848Y-37534160D01*
X83782450Y-37533007D01*
X83901562Y-37481946D01*
X83904187Y-37480858D01*
X84024566Y-37432718D01*
X84027317Y-37431657D01*
X84148770Y-37386510D01*
X84151461Y-37385547D01*
X84274022Y-37343385D01*
X84276739Y-37342487D01*
X84400336Y-37303331D01*
X84403084Y-37302498D01*
X84527487Y-37266423D01*
X84530400Y-37265616D01*
X84655649Y-37232603D01*
X84658504Y-37231888D01*
X84784497Y-37201967D01*
X84787406Y-37201314D01*
X84914149Y-37174483D01*
X84917009Y-37173914D01*
X85044393Y-37150195D01*
X85047261Y-37149697D01*
X85175192Y-37129113D01*
X85178132Y-37128678D01*
X85183934Y-37127890D01*
X85306446Y-37111250D01*
X85309430Y-37110883D01*
X85438095Y-37096614D01*
X85441054Y-37096322D01*
X85570142Y-37085206D01*
X85573109Y-37084987D01*
X85702398Y-37077043D01*
X85705373Y-37076897D01*
X85834771Y-37072131D01*
X85837736Y-37072058D01*
X85965329Y-37070494D01*
X85968029Y-37070461D01*
X85969549Y-37070452D01*
X100030451Y-37070452D01*
X100031971Y-37070461D01*
G37*
%TD.AperFunction*%
%TA.AperFunction,NonConductor*%
G36*
X91913927Y-52885273D02*
G01*
X91966673Y-52916569D01*
X92088599Y-53038495D01*
X92093032Y-53041599D01*
X92093038Y-53041604D01*
X92274158Y-53168425D01*
X92313024Y-53212743D01*
X92327035Y-53270000D01*
X92313024Y-53327257D01*
X92274159Y-53371575D01*
X92093041Y-53498395D01*
X92088599Y-53501505D01*
X92084775Y-53505328D01*
X92084769Y-53505334D01*
X91925334Y-53664769D01*
X91925328Y-53664775D01*
X91921505Y-53668599D01*
X91918402Y-53673029D01*
X91918399Y-53673034D01*
X91791575Y-53854159D01*
X91747257Y-53893025D01*
X91690000Y-53907036D01*
X91632743Y-53893025D01*
X91588425Y-53854159D01*
X91517449Y-53752795D01*
X91458495Y-53668599D01*
X91336569Y-53546673D01*
X91305273Y-53493927D01*
X91303084Y-53432634D01*
X91330537Y-53377789D01*
X91380916Y-53342810D01*
X91512331Y-53293796D01*
X91627546Y-53207546D01*
X91713796Y-53092331D01*
X91762810Y-52960916D01*
X91797789Y-52910537D01*
X91852634Y-52883084D01*
X91913927Y-52885273D01*
G37*
%TD.AperFunction*%
%TA.AperFunction,NonConductor*%
G36*
X94287257Y-52646976D02*
G01*
X94331575Y-52685842D01*
X94458395Y-52866961D01*
X94458401Y-52866968D01*
X94461505Y-52871401D01*
X94628599Y-53038495D01*
X94633032Y-53041599D01*
X94633038Y-53041604D01*
X94814158Y-53168425D01*
X94853024Y-53212743D01*
X94867035Y-53270000D01*
X94853024Y-53327257D01*
X94814159Y-53371575D01*
X94633041Y-53498395D01*
X94628599Y-53501505D01*
X94624775Y-53505328D01*
X94624769Y-53505334D01*
X94465334Y-53664769D01*
X94465328Y-53664775D01*
X94461505Y-53668599D01*
X94458402Y-53673029D01*
X94458399Y-53673034D01*
X94331575Y-53854159D01*
X94287257Y-53893025D01*
X94230000Y-53907036D01*
X94172743Y-53893025D01*
X94128425Y-53854159D01*
X94057449Y-53752795D01*
X93998495Y-53668599D01*
X93831401Y-53501505D01*
X93826968Y-53498401D01*
X93826961Y-53498395D01*
X93645842Y-53371575D01*
X93606976Y-53327257D01*
X93592965Y-53270000D01*
X93606976Y-53212743D01*
X93645842Y-53168425D01*
X93826961Y-53041604D01*
X93826961Y-53041603D01*
X93831401Y-53038495D01*
X93998495Y-52871401D01*
X94128424Y-52685842D01*
X94172743Y-52646976D01*
X94230000Y-52632965D01*
X94287257Y-52646976D01*
G37*
%TD.AperFunction*%
%TA.AperFunction,NonConductor*%
G36*
X91217005Y-61095576D02*
G01*
X91217669Y-61093796D01*
X91352517Y-61144091D01*
X91412127Y-61150500D01*
X96587872Y-61150499D01*
X96647483Y-61144091D01*
X96654755Y-61141378D01*
X96662298Y-61139596D01*
X96662431Y-61140160D01*
X96700683Y-61133725D01*
X96746548Y-61143701D01*
X96785419Y-61170009D01*
X97716898Y-62101489D01*
X97749599Y-62159434D01*
X97747639Y-62225941D01*
X97711584Y-62281861D01*
X97651814Y-62311094D01*
X97585538Y-62305222D01*
X97198187Y-62159434D01*
X97023310Y-62093615D01*
X97021404Y-62093037D01*
X97021384Y-62093030D01*
X96436280Y-61915541D01*
X96436282Y-61915541D01*
X96434332Y-61914950D01*
X95834929Y-61775189D01*
X95832952Y-61774862D01*
X95832939Y-61774860D01*
X95229651Y-61675257D01*
X95229644Y-61675256D01*
X95227669Y-61674930D01*
X95225687Y-61674734D01*
X95225666Y-61674732D01*
X94617158Y-61614799D01*
X94617137Y-61614797D01*
X94615151Y-61614602D01*
X94613143Y-61614536D01*
X94613139Y-61614536D01*
X94002016Y-61594530D01*
X94000000Y-61594464D01*
X93997984Y-61594530D01*
X93386860Y-61614536D01*
X93386854Y-61614536D01*
X93384849Y-61614602D01*
X93382864Y-61614797D01*
X93382841Y-61614799D01*
X92774333Y-61674732D01*
X92774308Y-61674735D01*
X92772331Y-61674930D01*
X92770359Y-61675255D01*
X92770348Y-61675257D01*
X92167060Y-61774860D01*
X92167041Y-61774863D01*
X92165071Y-61775189D01*
X92163111Y-61775645D01*
X92163106Y-61775647D01*
X91567653Y-61914487D01*
X91567648Y-61914488D01*
X91565668Y-61914950D01*
X91563741Y-61915534D01*
X91563728Y-61915538D01*
X91383712Y-61970145D01*
X91205493Y-62024208D01*
X91148301Y-62027721D01*
X91095633Y-62005145D01*
X91058740Y-61961299D01*
X91045500Y-61905547D01*
X91045500Y-61207337D01*
X91061747Y-61145976D01*
X91106229Y-61100693D01*
X91167292Y-61083357D01*
X91217005Y-61095576D01*
G37*
%TD.AperFunction*%
%TA.AperFunction,NonConductor*%
G36*
X85589290Y-75242577D02*
G01*
X85633858Y-75289851D01*
X85767337Y-75539573D01*
X85781597Y-75607755D01*
X85756847Y-75672867D01*
X85700897Y-75714362D01*
X85631405Y-75719145D01*
X85570298Y-75685707D01*
X85436819Y-75552228D01*
X85409939Y-75512000D01*
X85400500Y-75464547D01*
X85400500Y-75348304D01*
X85417521Y-75285602D01*
X85463911Y-75240114D01*
X85526935Y-75224328D01*
X85589290Y-75242577D01*
G37*
%TD.AperFunction*%
%TA.AperFunction,NonConductor*%
G36*
X89460425Y-79232661D02*
G01*
X89840038Y-79435569D01*
X90400657Y-79689582D01*
X90976690Y-79906385D01*
X91565668Y-80085050D01*
X92165071Y-80224811D01*
X92772331Y-80325070D01*
X93384849Y-80385398D01*
X94000000Y-80405536D01*
X94615151Y-80385398D01*
X95227669Y-80325070D01*
X95834929Y-80224811D01*
X96434332Y-80085050D01*
X97023310Y-79906385D01*
X97599343Y-79689582D01*
X98078398Y-79472524D01*
X98145758Y-79462533D01*
X98208238Y-79489619D01*
X98246992Y-79545613D01*
X98250334Y-79613629D01*
X98217254Y-79673153D01*
X96973756Y-80916651D01*
X96923832Y-80947082D01*
X96865513Y-80951253D01*
X96811765Y-80928238D01*
X96796286Y-80916651D01*
X96782331Y-80906204D01*
X96647483Y-80855909D01*
X96639770Y-80855079D01*
X96639767Y-80855079D01*
X96591180Y-80849855D01*
X96591169Y-80849854D01*
X96587873Y-80849500D01*
X96584550Y-80849500D01*
X91415439Y-80849500D01*
X91415420Y-80849500D01*
X91412128Y-80849501D01*
X91408850Y-80849853D01*
X91408838Y-80849854D01*
X91360231Y-80855079D01*
X91360225Y-80855080D01*
X91352517Y-80855909D01*
X91345252Y-80858618D01*
X91345246Y-80858620D01*
X91225980Y-80903104D01*
X91225978Y-80903104D01*
X91217669Y-80906204D01*
X91210572Y-80911516D01*
X91210568Y-80911519D01*
X91109550Y-80987141D01*
X91109546Y-80987144D01*
X91102454Y-80992454D01*
X91097144Y-80999546D01*
X91097143Y-80999548D01*
X91091711Y-81006805D01*
X91035777Y-81048674D01*
X90966086Y-81053658D01*
X90904764Y-81020173D01*
X89314292Y-79429701D01*
X89280854Y-79368594D01*
X89285637Y-79299101D01*
X89327132Y-79243152D01*
X89392244Y-79218402D01*
X89460425Y-79232661D01*
G37*
%TD.AperFunction*%
M02*
