%TF.GenerationSoftware,KiCad,Pcbnew,(7.0.0-0)*%
%TF.CreationDate,2023-07-17T23:39:08-05:00*%
%TF.ProjectId,speaker-SAO,73706561-6b65-4722-9d53-414f2e6b6963,rev?*%
%TF.SameCoordinates,Original*%
%TF.FileFunction,Copper,L2,Bot*%
%TF.FilePolarity,Positive*%
%FSLAX46Y46*%
G04 Gerber Fmt 4.6, Leading zero omitted, Abs format (unit mm)*
G04 Created by KiCad (PCBNEW (7.0.0-0)) date 2023-07-17 23:39:08*
%MOMM*%
%LPD*%
G01*
G04 APERTURE LIST*
G04 Aperture macros list*
%AMRoundRect*
0 Rectangle with rounded corners*
0 $1 Rounding radius*
0 $2 $3 $4 $5 $6 $7 $8 $9 X,Y pos of 4 corners*
0 Add a 4 corners polygon primitive as box body*
4,1,4,$2,$3,$4,$5,$6,$7,$8,$9,$2,$3,0*
0 Add four circle primitives for the rounded corners*
1,1,$1+$1,$2,$3*
1,1,$1+$1,$4,$5*
1,1,$1+$1,$6,$7*
1,1,$1+$1,$8,$9*
0 Add four rect primitives between the rounded corners*
20,1,$1+$1,$2,$3,$4,$5,0*
20,1,$1+$1,$4,$5,$6,$7,0*
20,1,$1+$1,$6,$7,$8,$9,0*
20,1,$1+$1,$8,$9,$2,$3,0*%
G04 Aperture macros list end*
%TA.AperFunction,ComponentPad*%
%ADD10R,1.800000X1.800000*%
%TD*%
%TA.AperFunction,ComponentPad*%
%ADD11C,1.800000*%
%TD*%
%TA.AperFunction,ComponentPad*%
%ADD12R,1.700000X1.700000*%
%TD*%
%TA.AperFunction,ComponentPad*%
%ADD13O,1.700000X1.700000*%
%TD*%
%TA.AperFunction,SMDPad,CuDef*%
%ADD14RoundRect,0.250000X-0.625000X0.400000X-0.625000X-0.400000X0.625000X-0.400000X0.625000X0.400000X0*%
%TD*%
%TA.AperFunction,SMDPad,CuDef*%
%ADD15R,5.080000X1.270000*%
%TD*%
%TA.AperFunction,SMDPad,CuDef*%
%ADD16C,17.800000*%
%TD*%
%TA.AperFunction,SMDPad,CuDef*%
%ADD17R,0.800000X1.000000*%
%TD*%
%TA.AperFunction,SMDPad,CuDef*%
%ADD18R,1.500000X0.700000*%
%TD*%
%TA.AperFunction,Conductor*%
%ADD19C,0.250000*%
%TD*%
G04 APERTURE END LIST*
D10*
X60399999Y-64849999D03*
D11*
X60400000Y-67390000D03*
D12*
X48649999Y-65249999D03*
D13*
X46109999Y-65249999D03*
X48649999Y-67789999D03*
X46109999Y-67789999D03*
X48649999Y-70329999D03*
X46109999Y-70329999D03*
D14*
X54000000Y-65500000D03*
X54000000Y-68600000D03*
D15*
X52577999Y-155192999D03*
X52577999Y-133222999D03*
D16*
X52578000Y-144208000D03*
D17*
X64699999Y-74149999D03*
X62489999Y-74149999D03*
X64699999Y-81449999D03*
X62489999Y-81449999D03*
D18*
X61839999Y-75549999D03*
X61839999Y-78549999D03*
X61839999Y-80049999D03*
D19*
X59050000Y-73250000D02*
X60550000Y-71750000D01*
X46273000Y-133223000D02*
X52578000Y-133223000D01*
X41950000Y-63550000D02*
X41950000Y-128700000D01*
X64200000Y-71750000D02*
X64300000Y-71650000D01*
X41650000Y-135550000D02*
X41650000Y-151800000D01*
X59050000Y-74350000D02*
X59050000Y-73250000D01*
X60550000Y-71750000D02*
X64200000Y-71750000D01*
X62950000Y-61600000D02*
X43900000Y-61600000D01*
X41650000Y-151800000D02*
X45043000Y-155193000D01*
X64300000Y-62950000D02*
X62950000Y-61600000D01*
X41850000Y-128800000D02*
X46273000Y-133223000D01*
X61840000Y-75550000D02*
X60250000Y-75550000D01*
X64300000Y-71650000D02*
X64300000Y-62950000D01*
X46273000Y-133223000D02*
X43977000Y-133223000D01*
X43900000Y-61600000D02*
X41950000Y-63550000D01*
X41950000Y-128700000D02*
X41850000Y-128800000D01*
X60250000Y-75550000D02*
X59050000Y-74350000D01*
X43977000Y-133223000D02*
X41650000Y-135550000D01*
X45043000Y-155193000D02*
X52578000Y-155193000D01*
X61650000Y-135136000D02*
X61650000Y-127550000D01*
X46110000Y-63490000D02*
X46400000Y-63200000D01*
X52578000Y-144208000D02*
X61650000Y-135136000D01*
X61650000Y-127550000D02*
X43650000Y-109550000D01*
X43650000Y-109550000D02*
X43650000Y-65850000D01*
X58750000Y-63200000D02*
X60400000Y-64850000D01*
X46110000Y-65250000D02*
X46110000Y-63490000D01*
X46400000Y-63200000D02*
X58750000Y-63200000D01*
X43650000Y-65850000D02*
X44250000Y-65250000D01*
X44250000Y-65250000D02*
X46110000Y-65250000D01*
X60400000Y-67390000D02*
X55890000Y-67390000D01*
X55890000Y-67390000D02*
X54000000Y-65500000D01*
X55950000Y-83350000D02*
X57150000Y-83350000D01*
X48650000Y-65250000D02*
X51350000Y-67950000D01*
X51350000Y-78750000D02*
X55950000Y-83350000D01*
X57150000Y-83350000D02*
X60450000Y-80050000D01*
X51350000Y-67950000D02*
X51350000Y-78750000D01*
X60450000Y-80050000D02*
X61840000Y-80050000D01*
X61840000Y-78550000D02*
X54000000Y-70710000D01*
X54000000Y-70710000D02*
X54000000Y-68600000D01*
%TA.AperFunction,NonConductor*%
G36*
X47394804Y-63847233D02*
G01*
X47439537Y-63885439D01*
X47462050Y-63939789D01*
X47457434Y-63998436D01*
X47434834Y-64035313D01*
X47436739Y-64036739D01*
X47354510Y-64146582D01*
X47354506Y-64146588D01*
X47349111Y-64153796D01*
X47345964Y-64162231D01*
X47345960Y-64162240D01*
X47305000Y-64272057D01*
X47268468Y-64324095D01*
X47211178Y-64351671D01*
X47147717Y-64347761D01*
X47094244Y-64313361D01*
X47036772Y-64250931D01*
X47036771Y-64250930D01*
X47033240Y-64247094D01*
X46855576Y-64108811D01*
X46851003Y-64106336D01*
X46850995Y-64106331D01*
X46809531Y-64083893D01*
X46761259Y-64037577D01*
X46743500Y-63973079D01*
X46743500Y-63959500D01*
X46760381Y-63896500D01*
X46806500Y-63850381D01*
X46869500Y-63833500D01*
X47337601Y-63833500D01*
X47394804Y-63847233D01*
G37*
%TD.AperFunction*%
%TA.AperFunction,NonConductor*%
G36*
X47268469Y-66175904D02*
G01*
X47305000Y-66227943D01*
X47345959Y-66337757D01*
X47345963Y-66337765D01*
X47349111Y-66346204D01*
X47354508Y-66353414D01*
X47354510Y-66353417D01*
X47430928Y-66455499D01*
X47436739Y-66463261D01*
X47443950Y-66468659D01*
X47541464Y-66541658D01*
X47553796Y-66550889D01*
X47562235Y-66554036D01*
X47562236Y-66554037D01*
X47668806Y-66593786D01*
X47719140Y-66628350D01*
X47747314Y-66682520D01*
X47746711Y-66743576D01*
X47717474Y-66797180D01*
X47577806Y-66948899D01*
X47577802Y-66948902D01*
X47574278Y-66952732D01*
X47571430Y-66957090D01*
X47571427Y-66957095D01*
X47485483Y-67088643D01*
X47439969Y-67130542D01*
X47380000Y-67145728D01*
X47320031Y-67130542D01*
X47274517Y-67088643D01*
X47188572Y-66957095D01*
X47185722Y-66952732D01*
X47124956Y-66886723D01*
X47036772Y-66790930D01*
X47036767Y-66790925D01*
X47033240Y-66787094D01*
X46855576Y-66648811D01*
X46851002Y-66646336D01*
X46850995Y-66646331D01*
X46822320Y-66630814D01*
X46774048Y-66584498D01*
X46756289Y-66520000D01*
X46774048Y-66455502D01*
X46822320Y-66409186D01*
X46850995Y-66393668D01*
X46850994Y-66393668D01*
X46855576Y-66391189D01*
X47033240Y-66252906D01*
X47078227Y-66204038D01*
X47094244Y-66186639D01*
X47147716Y-66152238D01*
X47211178Y-66148328D01*
X47268469Y-66175904D01*
G37*
%TD.AperFunction*%
%TA.AperFunction,NonConductor*%
G36*
X47439968Y-68449457D02*
G01*
X47485481Y-68491354D01*
X47574278Y-68627268D01*
X47577806Y-68631100D01*
X47723227Y-68789069D01*
X47723231Y-68789073D01*
X47726760Y-68792906D01*
X47904424Y-68931189D01*
X47909002Y-68933666D01*
X47909009Y-68933671D01*
X47937680Y-68949187D01*
X47985951Y-68995503D01*
X48003710Y-69060000D01*
X47985951Y-69124497D01*
X47937680Y-69170813D01*
X47909009Y-69186328D01*
X47908993Y-69186338D01*
X47904424Y-69188811D01*
X47900313Y-69192010D01*
X47900311Y-69192012D01*
X47730878Y-69323888D01*
X47730872Y-69323893D01*
X47726760Y-69327094D01*
X47723237Y-69330919D01*
X47723227Y-69330930D01*
X47577806Y-69488899D01*
X47577802Y-69488902D01*
X47574278Y-69492732D01*
X47571430Y-69497090D01*
X47571427Y-69497095D01*
X47485483Y-69628643D01*
X47439969Y-69670542D01*
X47380000Y-69685728D01*
X47320031Y-69670542D01*
X47274517Y-69628643D01*
X47188572Y-69497095D01*
X47185722Y-69492732D01*
X47124956Y-69426723D01*
X47036772Y-69330930D01*
X47036767Y-69330925D01*
X47033240Y-69327094D01*
X46855576Y-69188811D01*
X46851002Y-69186336D01*
X46850995Y-69186331D01*
X46822320Y-69170814D01*
X46774048Y-69124498D01*
X46756289Y-69060000D01*
X46774048Y-68995502D01*
X46822320Y-68949186D01*
X46850990Y-68933671D01*
X46855576Y-68931189D01*
X47033240Y-68792906D01*
X47185722Y-68627268D01*
X47274521Y-68491349D01*
X47320029Y-68449458D01*
X47379998Y-68434271D01*
X47439968Y-68449457D01*
G37*
%TD.AperFunction*%
%TA.AperFunction,NonConductor*%
G36*
X58483624Y-63843091D02*
G01*
X58524501Y-63870405D01*
X58954595Y-64300499D01*
X58981909Y-64341376D01*
X58991500Y-64389594D01*
X58991500Y-65798638D01*
X58991859Y-65801985D01*
X58991860Y-65801988D01*
X58997168Y-65851367D01*
X58997169Y-65851373D01*
X58998011Y-65859201D01*
X59000762Y-65866578D01*
X59000763Y-65866580D01*
X59045962Y-65987763D01*
X59045964Y-65987766D01*
X59049111Y-65996204D01*
X59054508Y-66003414D01*
X59054510Y-66003417D01*
X59117281Y-66087268D01*
X59136739Y-66113261D01*
X59143950Y-66118659D01*
X59205311Y-66164594D01*
X59253796Y-66200889D01*
X59262236Y-66204037D01*
X59262238Y-66204038D01*
X59262241Y-66204039D01*
X59321172Y-66226019D01*
X59371506Y-66260582D01*
X59399681Y-66314752D01*
X59399079Y-66375808D01*
X59369842Y-66429412D01*
X59288214Y-66518084D01*
X59288211Y-66518087D01*
X59284686Y-66521917D01*
X59281838Y-66526275D01*
X59281835Y-66526280D01*
X59168721Y-66699415D01*
X59123207Y-66741314D01*
X59063238Y-66756500D01*
X56204594Y-66756500D01*
X56156376Y-66746909D01*
X56115499Y-66719595D01*
X55420404Y-66024500D01*
X55393090Y-65983623D01*
X55383499Y-65935409D01*
X55383499Y-65049456D01*
X55372887Y-64945574D01*
X55317115Y-64777262D01*
X55300956Y-64751065D01*
X55227883Y-64632595D01*
X55224030Y-64626348D01*
X55098652Y-64500970D01*
X55092404Y-64497116D01*
X54953981Y-64411735D01*
X54953976Y-64411732D01*
X54947738Y-64407885D01*
X54940776Y-64405578D01*
X54940774Y-64405577D01*
X54785951Y-64354275D01*
X54785949Y-64354274D01*
X54779426Y-64352113D01*
X54772589Y-64351414D01*
X54772587Y-64351414D01*
X54678729Y-64341825D01*
X54678723Y-64341824D01*
X54675545Y-64341500D01*
X54672339Y-64341500D01*
X53327661Y-64341500D01*
X53327641Y-64341500D01*
X53324456Y-64341501D01*
X53321279Y-64341825D01*
X53321270Y-64341826D01*
X53227411Y-64351414D01*
X53227405Y-64351415D01*
X53220574Y-64352113D01*
X53214058Y-64354271D01*
X53214049Y-64354274D01*
X53059225Y-64405577D01*
X53059219Y-64405579D01*
X53052262Y-64407885D01*
X53046026Y-64411730D01*
X53046018Y-64411735D01*
X52907595Y-64497116D01*
X52907590Y-64497119D01*
X52901348Y-64500970D01*
X52896158Y-64506159D01*
X52896154Y-64506163D01*
X52781163Y-64621154D01*
X52781159Y-64621158D01*
X52775970Y-64626348D01*
X52772119Y-64632590D01*
X52772116Y-64632595D01*
X52686735Y-64771018D01*
X52686730Y-64771026D01*
X52682885Y-64777262D01*
X52680579Y-64784219D01*
X52680577Y-64784225D01*
X52667672Y-64823172D01*
X52627113Y-64945574D01*
X52616500Y-65049455D01*
X52616500Y-65052659D01*
X52616500Y-65052660D01*
X52616500Y-65947338D01*
X52616500Y-65947357D01*
X52616501Y-65950544D01*
X52616825Y-65953721D01*
X52616826Y-65953729D01*
X52624055Y-66024500D01*
X52627113Y-66054426D01*
X52629272Y-66060943D01*
X52629274Y-66060950D01*
X52678399Y-66209201D01*
X52682885Y-66222738D01*
X52686732Y-66228976D01*
X52686735Y-66228981D01*
X52763489Y-66353417D01*
X52775970Y-66373652D01*
X52901348Y-66499030D01*
X52907596Y-66502883D01*
X52907595Y-66502883D01*
X53046018Y-66588264D01*
X53046020Y-66588265D01*
X53052262Y-66592115D01*
X53220574Y-66647887D01*
X53324455Y-66658500D01*
X54210405Y-66658499D01*
X54258623Y-66668090D01*
X54299500Y-66695404D01*
X54837264Y-67233168D01*
X54868770Y-67285775D01*
X54871712Y-67347024D01*
X54845394Y-67402409D01*
X54796049Y-67438811D01*
X54735364Y-67447611D01*
X54678731Y-67441825D01*
X54678721Y-67441824D01*
X54675545Y-67441500D01*
X54672339Y-67441500D01*
X53327661Y-67441500D01*
X53327641Y-67441500D01*
X53324456Y-67441501D01*
X53321279Y-67441825D01*
X53321270Y-67441826D01*
X53227411Y-67451414D01*
X53227405Y-67451415D01*
X53220574Y-67452113D01*
X53214058Y-67454271D01*
X53214049Y-67454274D01*
X53059225Y-67505577D01*
X53059219Y-67505579D01*
X53052262Y-67507885D01*
X53046026Y-67511730D01*
X53046018Y-67511735D01*
X52907595Y-67597116D01*
X52907590Y-67597119D01*
X52901348Y-67600970D01*
X52896158Y-67606159D01*
X52896154Y-67606163D01*
X52781163Y-67721154D01*
X52781159Y-67721158D01*
X52775970Y-67726348D01*
X52772119Y-67732590D01*
X52772116Y-67732595D01*
X52686735Y-67871018D01*
X52686730Y-67871026D01*
X52682885Y-67877262D01*
X52680579Y-67884219D01*
X52680577Y-67884225D01*
X52629395Y-68038686D01*
X52627113Y-68045574D01*
X52626414Y-68052408D01*
X52626414Y-68052412D01*
X52623536Y-68080585D01*
X52616500Y-68149455D01*
X52616500Y-68152659D01*
X52616500Y-68152660D01*
X52616500Y-69047338D01*
X52616500Y-69047357D01*
X52616501Y-69050544D01*
X52616825Y-69053721D01*
X52616826Y-69053729D01*
X52624055Y-69124498D01*
X52627113Y-69154426D01*
X52629272Y-69160943D01*
X52629274Y-69160950D01*
X52680577Y-69315774D01*
X52682885Y-69322738D01*
X52686732Y-69328976D01*
X52686735Y-69328981D01*
X52772116Y-69467404D01*
X52775970Y-69473652D01*
X52901348Y-69599030D01*
X52907596Y-69602883D01*
X52907595Y-69602883D01*
X53046018Y-69688264D01*
X53046020Y-69688265D01*
X53052262Y-69692115D01*
X53220574Y-69747887D01*
X53253306Y-69751231D01*
X53310756Y-69771984D01*
X53351694Y-69817318D01*
X53366500Y-69876579D01*
X53366500Y-70631233D01*
X53365972Y-70642416D01*
X53364298Y-70649909D01*
X53364547Y-70657833D01*
X53364547Y-70657835D01*
X53366438Y-70717986D01*
X53366500Y-70721945D01*
X53366500Y-70749856D01*
X53366995Y-70753774D01*
X53366997Y-70753806D01*
X53367008Y-70753888D01*
X53367937Y-70765697D01*
X53369077Y-70801969D01*
X53369078Y-70801976D01*
X53369327Y-70809889D01*
X53371537Y-70817498D01*
X53371538Y-70817500D01*
X53374978Y-70829342D01*
X53378986Y-70848693D01*
X53381526Y-70868797D01*
X53384444Y-70876169D01*
X53384445Y-70876170D01*
X53397800Y-70909901D01*
X53401645Y-70921130D01*
X53411771Y-70955986D01*
X53411773Y-70955992D01*
X53413982Y-70963593D01*
X53418014Y-70970411D01*
X53418015Y-70970413D01*
X53424293Y-70981029D01*
X53432990Y-70998782D01*
X53440448Y-71017617D01*
X53445107Y-71024030D01*
X53445108Y-71024031D01*
X53466432Y-71053381D01*
X53472948Y-71063301D01*
X53491422Y-71094538D01*
X53495458Y-71101362D01*
X53501063Y-71106967D01*
X53509778Y-71115682D01*
X53522618Y-71130715D01*
X53523207Y-71131526D01*
X53534528Y-71147107D01*
X53540635Y-71152159D01*
X53540636Y-71152160D01*
X53568598Y-71175292D01*
X53577378Y-71183282D01*
X60544595Y-78150499D01*
X60571909Y-78191376D01*
X60581500Y-78239594D01*
X60581500Y-78948638D01*
X60581859Y-78951985D01*
X60581860Y-78951988D01*
X60587168Y-79001367D01*
X60587169Y-79001373D01*
X60588011Y-79009201D01*
X60590762Y-79016578D01*
X60590763Y-79016580D01*
X60635962Y-79137763D01*
X60635964Y-79137766D01*
X60639111Y-79146204D01*
X60651458Y-79162697D01*
X60690604Y-79214991D01*
X60715235Y-79279270D01*
X60702408Y-79346900D01*
X60655954Y-79397697D01*
X60589736Y-79416500D01*
X60528768Y-79416500D01*
X60517584Y-79415972D01*
X60510092Y-79414298D01*
X60502166Y-79414547D01*
X60442002Y-79416438D01*
X60438044Y-79416500D01*
X60410144Y-79416500D01*
X60406219Y-79416995D01*
X60406198Y-79416997D01*
X60406124Y-79417007D01*
X60394313Y-79417936D01*
X60358034Y-79419076D01*
X60358026Y-79419077D01*
X60350111Y-79419326D01*
X60342500Y-79421536D01*
X60342493Y-79421538D01*
X60330648Y-79424979D01*
X60311303Y-79428985D01*
X60299072Y-79430530D01*
X60299059Y-79430533D01*
X60291203Y-79431526D01*
X60283839Y-79434441D01*
X60283829Y-79434444D01*
X60250092Y-79447802D01*
X60238865Y-79451646D01*
X60204018Y-79461770D01*
X60204013Y-79461772D01*
X60196407Y-79463982D01*
X60189590Y-79468012D01*
X60189581Y-79468017D01*
X60178960Y-79474298D01*
X60161221Y-79482989D01*
X60149749Y-79487531D01*
X60149746Y-79487532D01*
X60142383Y-79490448D01*
X60135976Y-79495102D01*
X60135972Y-79495105D01*
X60106611Y-79516437D01*
X60096693Y-79522951D01*
X60065465Y-79541419D01*
X60065457Y-79541425D01*
X60058638Y-79545458D01*
X60053036Y-79551058D01*
X60053029Y-79551065D01*
X60044308Y-79559786D01*
X60029287Y-79572615D01*
X60019307Y-79579866D01*
X60019298Y-79579873D01*
X60012893Y-79584528D01*
X60007845Y-79590628D01*
X60007836Y-79590638D01*
X59984700Y-79618604D01*
X59976713Y-79627381D01*
X56924500Y-82679595D01*
X56883623Y-82706909D01*
X56835405Y-82716500D01*
X56264595Y-82716500D01*
X56216377Y-82706909D01*
X56175500Y-82679595D01*
X52020405Y-78524500D01*
X51993091Y-78483623D01*
X51983500Y-78435405D01*
X51983500Y-68028768D01*
X51984027Y-68017584D01*
X51985702Y-68010092D01*
X51983561Y-67942001D01*
X51983500Y-67938044D01*
X51983500Y-67914109D01*
X51983500Y-67910144D01*
X51982995Y-67906152D01*
X51982062Y-67894305D01*
X51980674Y-67850111D01*
X51975017Y-67830642D01*
X51971013Y-67811302D01*
X51968474Y-67791203D01*
X51952200Y-67750099D01*
X51948356Y-67738872D01*
X51946532Y-67732595D01*
X51936019Y-67696407D01*
X51925703Y-67678964D01*
X51917005Y-67661209D01*
X51909552Y-67642383D01*
X51883561Y-67606609D01*
X51877055Y-67596705D01*
X51854542Y-67558638D01*
X51840218Y-67544314D01*
X51827382Y-67529286D01*
X51815472Y-67512893D01*
X51809367Y-67507842D01*
X51809360Y-67507835D01*
X51781394Y-67484700D01*
X51772615Y-67476711D01*
X50045405Y-65749500D01*
X50018091Y-65708623D01*
X50008500Y-65660405D01*
X50008500Y-64354731D01*
X50008500Y-64351362D01*
X50001989Y-64290799D01*
X49950889Y-64153796D01*
X49863261Y-64036739D01*
X49863260Y-64036738D01*
X49865165Y-64035313D01*
X49842566Y-63998436D01*
X49837950Y-63939789D01*
X49860463Y-63885439D01*
X49905196Y-63847233D01*
X49962399Y-63833500D01*
X58435406Y-63833500D01*
X58483624Y-63843091D01*
G37*
%TD.AperFunction*%
%TA.AperFunction,NonConductor*%
G36*
X65182896Y-59834708D02*
G01*
X65190870Y-59835892D01*
X65193994Y-59836398D01*
X65271007Y-59849906D01*
X65299361Y-59858411D01*
X65322741Y-59868552D01*
X65331609Y-59872819D01*
X65379052Y-59897991D01*
X65398343Y-59910615D01*
X65421290Y-59928835D01*
X65433499Y-59939905D01*
X65468755Y-59976349D01*
X65479415Y-59988919D01*
X65496866Y-60012459D01*
X65508846Y-60032160D01*
X65532415Y-60080374D01*
X65536408Y-60089429D01*
X65545758Y-60113105D01*
X65553324Y-60141739D01*
X65564269Y-60219117D01*
X65564686Y-60222368D01*
X65565834Y-60232371D01*
X65566657Y-60246739D01*
X65566657Y-73112424D01*
X65547854Y-73178642D01*
X65497057Y-73225096D01*
X65429427Y-73237923D01*
X65365149Y-73213293D01*
X65353416Y-73204510D01*
X65346204Y-73199111D01*
X65337766Y-73195964D01*
X65337763Y-73195962D01*
X65216580Y-73150763D01*
X65216578Y-73150762D01*
X65209201Y-73148011D01*
X65201373Y-73147169D01*
X65201367Y-73147168D01*
X65151988Y-73141860D01*
X65151985Y-73141859D01*
X65148638Y-73141500D01*
X64251362Y-73141500D01*
X64248015Y-73141859D01*
X64248011Y-73141860D01*
X64198632Y-73147168D01*
X64198625Y-73147169D01*
X64190799Y-73148011D01*
X64183423Y-73150761D01*
X64183419Y-73150763D01*
X64062236Y-73195962D01*
X64062230Y-73195965D01*
X64053796Y-73199111D01*
X64046588Y-73204506D01*
X64046582Y-73204510D01*
X63943950Y-73281340D01*
X63943946Y-73281343D01*
X63936739Y-73286739D01*
X63931343Y-73293946D01*
X63931340Y-73293950D01*
X63854510Y-73396582D01*
X63854506Y-73396588D01*
X63849111Y-73403796D01*
X63845965Y-73412230D01*
X63845962Y-73412236D01*
X63800763Y-73533419D01*
X63800761Y-73533423D01*
X63798011Y-73540799D01*
X63797169Y-73548625D01*
X63797168Y-73548632D01*
X63791860Y-73598011D01*
X63791500Y-73601362D01*
X63791500Y-74698638D01*
X63791859Y-74701985D01*
X63791860Y-74701988D01*
X63797168Y-74751367D01*
X63797169Y-74751373D01*
X63798011Y-74759201D01*
X63800762Y-74766578D01*
X63800763Y-74766580D01*
X63845962Y-74887763D01*
X63845964Y-74887766D01*
X63849111Y-74896204D01*
X63854508Y-74903414D01*
X63854510Y-74903417D01*
X63864304Y-74916500D01*
X63936739Y-75013261D01*
X64053796Y-75100889D01*
X64190799Y-75151989D01*
X64251362Y-75158500D01*
X65145269Y-75158500D01*
X65148638Y-75158500D01*
X65209201Y-75151989D01*
X65346204Y-75100889D01*
X65365148Y-75086707D01*
X65429427Y-75062077D01*
X65497057Y-75074904D01*
X65547854Y-75121358D01*
X65566657Y-75187576D01*
X65566657Y-80412424D01*
X65547854Y-80478642D01*
X65497057Y-80525096D01*
X65429427Y-80537923D01*
X65365149Y-80513293D01*
X65353416Y-80504510D01*
X65346204Y-80499111D01*
X65337766Y-80495964D01*
X65337763Y-80495962D01*
X65216580Y-80450763D01*
X65216578Y-80450762D01*
X65209201Y-80448011D01*
X65201373Y-80447169D01*
X65201367Y-80447168D01*
X65151988Y-80441860D01*
X65151985Y-80441859D01*
X65148638Y-80441500D01*
X64251362Y-80441500D01*
X64248015Y-80441859D01*
X64248011Y-80441860D01*
X64198632Y-80447168D01*
X64198625Y-80447169D01*
X64190799Y-80448011D01*
X64183423Y-80450761D01*
X64183419Y-80450763D01*
X64062236Y-80495962D01*
X64062230Y-80495965D01*
X64053796Y-80499111D01*
X64046588Y-80504506D01*
X64046582Y-80504510D01*
X63943950Y-80581340D01*
X63943946Y-80581343D01*
X63936739Y-80586739D01*
X63931343Y-80593946D01*
X63931340Y-80593950D01*
X63854510Y-80696582D01*
X63854506Y-80696588D01*
X63849111Y-80703796D01*
X63845965Y-80712230D01*
X63845962Y-80712236D01*
X63800763Y-80833419D01*
X63800761Y-80833423D01*
X63798011Y-80840799D01*
X63797169Y-80848625D01*
X63797168Y-80848632D01*
X63791860Y-80898011D01*
X63791500Y-80901362D01*
X63791500Y-81998638D01*
X63791859Y-82001985D01*
X63791860Y-82001988D01*
X63797168Y-82051367D01*
X63797169Y-82051373D01*
X63798011Y-82059201D01*
X63800762Y-82066578D01*
X63800763Y-82066580D01*
X63845962Y-82187763D01*
X63845964Y-82187766D01*
X63849111Y-82196204D01*
X63854508Y-82203414D01*
X63854510Y-82203417D01*
X63931340Y-82306049D01*
X63936739Y-82313261D01*
X64053796Y-82400889D01*
X64190799Y-82451989D01*
X64251362Y-82458500D01*
X65145269Y-82458500D01*
X65148638Y-82458500D01*
X65209201Y-82451989D01*
X65346204Y-82400889D01*
X65365148Y-82386707D01*
X65429427Y-82362077D01*
X65497057Y-82374904D01*
X65547854Y-82421358D01*
X65566657Y-82487576D01*
X65566657Y-157491741D01*
X65565578Y-157508194D01*
X65564412Y-157517047D01*
X65563940Y-157520306D01*
X65551711Y-157597512D01*
X65543669Y-157626022D01*
X65533937Y-157649515D01*
X65529795Y-157658499D01*
X65505437Y-157706301D01*
X65493130Y-157725805D01*
X65475305Y-157749032D01*
X65464437Y-157761422D01*
X65428587Y-157797268D01*
X65416194Y-157808136D01*
X65392967Y-157825956D01*
X65373465Y-157838259D01*
X65325663Y-157862611D01*
X65316677Y-157866753D01*
X65293145Y-157876498D01*
X65264677Y-157884529D01*
X65188842Y-157896559D01*
X65185543Y-157897038D01*
X65181227Y-157897606D01*
X65175013Y-157898423D01*
X65158578Y-157899500D01*
X41308258Y-157899500D01*
X41291797Y-157898420D01*
X41290945Y-157898307D01*
X41282933Y-157897252D01*
X41279685Y-157896781D01*
X41202484Y-157884554D01*
X41173979Y-157876515D01*
X41150475Y-157866780D01*
X41141487Y-157862637D01*
X41093684Y-157838280D01*
X41074187Y-157825978D01*
X41050946Y-157808144D01*
X41038561Y-157797282D01*
X41002716Y-157761437D01*
X40991856Y-157749056D01*
X40974016Y-157725805D01*
X40961721Y-157706318D01*
X40937355Y-157658498D01*
X40933218Y-157649523D01*
X40923483Y-157626019D01*
X40915445Y-157597519D01*
X40903211Y-157520274D01*
X40902755Y-157517128D01*
X40901576Y-157508176D01*
X40900500Y-157491743D01*
X40900500Y-152237740D01*
X40917249Y-152174969D01*
X40963043Y-152128886D01*
X41025708Y-152111742D01*
X41088583Y-152128096D01*
X41134953Y-152173600D01*
X41135763Y-152174969D01*
X41145458Y-152191362D01*
X41151063Y-152196967D01*
X41159778Y-152205682D01*
X41172618Y-152220715D01*
X41184528Y-152237107D01*
X41190635Y-152242159D01*
X41190636Y-152242160D01*
X41218598Y-152265292D01*
X41227378Y-152273282D01*
X44539342Y-155585246D01*
X44546884Y-155593533D01*
X44551000Y-155600018D01*
X44556779Y-155605444D01*
X44556780Y-155605446D01*
X44600667Y-155646658D01*
X44603509Y-155649413D01*
X44623231Y-155669135D01*
X44626359Y-155671561D01*
X44626360Y-155671562D01*
X44626414Y-155671604D01*
X44635446Y-155679317D01*
X44667679Y-155709586D01*
X44674624Y-155713404D01*
X44685430Y-155719345D01*
X44701956Y-155730201D01*
X44711690Y-155737751D01*
X44711692Y-155737752D01*
X44717960Y-155742614D01*
X44758530Y-155760170D01*
X44769186Y-155765390D01*
X44807940Y-155786695D01*
X44827566Y-155791734D01*
X44846259Y-155798134D01*
X44864855Y-155806181D01*
X44872686Y-155807421D01*
X44872689Y-155807422D01*
X44889128Y-155810025D01*
X44908525Y-155813097D01*
X44920125Y-155815498D01*
X44962970Y-155826500D01*
X44983224Y-155826500D01*
X45002934Y-155828050D01*
X45022943Y-155831220D01*
X45066961Y-155827058D01*
X45078819Y-155826500D01*
X49411166Y-155826500D01*
X49465547Y-155838839D01*
X49509277Y-155873441D01*
X49533790Y-155923528D01*
X49535168Y-155929361D01*
X49536011Y-155937201D01*
X49538764Y-155944584D01*
X49538765Y-155944585D01*
X49583962Y-156065763D01*
X49583964Y-156065766D01*
X49587111Y-156074204D01*
X49592508Y-156081414D01*
X49592510Y-156081417D01*
X49669340Y-156184049D01*
X49674739Y-156191261D01*
X49791796Y-156278889D01*
X49928799Y-156329989D01*
X49989362Y-156336500D01*
X55163269Y-156336500D01*
X55166638Y-156336500D01*
X55227201Y-156329989D01*
X55364204Y-156278889D01*
X55481261Y-156191261D01*
X55568889Y-156074204D01*
X55619989Y-155937201D01*
X55626500Y-155876638D01*
X55626500Y-154509362D01*
X55619989Y-154448799D01*
X55568889Y-154311796D01*
X55481261Y-154194739D01*
X55474049Y-154189340D01*
X55371417Y-154112510D01*
X55371414Y-154112508D01*
X55364204Y-154107111D01*
X55355766Y-154103964D01*
X55355763Y-154103962D01*
X55234580Y-154058763D01*
X55234578Y-154058762D01*
X55227201Y-154056011D01*
X55219373Y-154055169D01*
X55219367Y-154055168D01*
X55169988Y-154049860D01*
X55169985Y-154049859D01*
X55166638Y-154049500D01*
X49989362Y-154049500D01*
X49986015Y-154049859D01*
X49986011Y-154049860D01*
X49936632Y-154055168D01*
X49936625Y-154055169D01*
X49928799Y-154056011D01*
X49921423Y-154058761D01*
X49921419Y-154058763D01*
X49800236Y-154103962D01*
X49800230Y-154103965D01*
X49791796Y-154107111D01*
X49784588Y-154112506D01*
X49784582Y-154112510D01*
X49681950Y-154189340D01*
X49681946Y-154189343D01*
X49674739Y-154194739D01*
X49669343Y-154201946D01*
X49669340Y-154201950D01*
X49592510Y-154304582D01*
X49592506Y-154304588D01*
X49587111Y-154311796D01*
X49583965Y-154320230D01*
X49583962Y-154320236D01*
X49538765Y-154441414D01*
X49536011Y-154448799D01*
X49535168Y-154456638D01*
X49533790Y-154462472D01*
X49509277Y-154512559D01*
X49465547Y-154547161D01*
X49411166Y-154559500D01*
X45357594Y-154559500D01*
X45309376Y-154549909D01*
X45268499Y-154522595D01*
X42320405Y-151574500D01*
X42293091Y-151533623D01*
X42283500Y-151485405D01*
X42283500Y-135864594D01*
X42293091Y-135816376D01*
X42320405Y-135775499D01*
X44202500Y-133893405D01*
X44243377Y-133866091D01*
X44291595Y-133856500D01*
X46192970Y-133856500D01*
X46213224Y-133856500D01*
X46232934Y-133858050D01*
X46252943Y-133861220D01*
X46296961Y-133857058D01*
X46308819Y-133856500D01*
X46312856Y-133856500D01*
X49411166Y-133856500D01*
X49465547Y-133868839D01*
X49509277Y-133903441D01*
X49533790Y-133953528D01*
X49535168Y-133959361D01*
X49536011Y-133967201D01*
X49538764Y-133974584D01*
X49538765Y-133974585D01*
X49583962Y-134095763D01*
X49583964Y-134095766D01*
X49587111Y-134104204D01*
X49592508Y-134111414D01*
X49592510Y-134111417D01*
X49669340Y-134214049D01*
X49674739Y-134221261D01*
X49791796Y-134308889D01*
X49928799Y-134359989D01*
X49989362Y-134366500D01*
X55163269Y-134366500D01*
X55166638Y-134366500D01*
X55227201Y-134359989D01*
X55364204Y-134308889D01*
X55481261Y-134221261D01*
X55568889Y-134104204D01*
X55619989Y-133967201D01*
X55626500Y-133906638D01*
X55626500Y-132539362D01*
X55619989Y-132478799D01*
X55568889Y-132341796D01*
X55481261Y-132224739D01*
X55474049Y-132219340D01*
X55371417Y-132142510D01*
X55371414Y-132142508D01*
X55364204Y-132137111D01*
X55355766Y-132133964D01*
X55355763Y-132133962D01*
X55234580Y-132088763D01*
X55234578Y-132088762D01*
X55227201Y-132086011D01*
X55219373Y-132085169D01*
X55219367Y-132085168D01*
X55169988Y-132079860D01*
X55169985Y-132079859D01*
X55166638Y-132079500D01*
X49989362Y-132079500D01*
X49986015Y-132079859D01*
X49986011Y-132079860D01*
X49936632Y-132085168D01*
X49936625Y-132085169D01*
X49928799Y-132086011D01*
X49921423Y-132088761D01*
X49921419Y-132088763D01*
X49800236Y-132133962D01*
X49800230Y-132133965D01*
X49791796Y-132137111D01*
X49784588Y-132142506D01*
X49784582Y-132142510D01*
X49681950Y-132219340D01*
X49681946Y-132219343D01*
X49674739Y-132224739D01*
X49669343Y-132231946D01*
X49669340Y-132231950D01*
X49592510Y-132334582D01*
X49592506Y-132334588D01*
X49587111Y-132341796D01*
X49583965Y-132350230D01*
X49583962Y-132350236D01*
X49538765Y-132471414D01*
X49536011Y-132478799D01*
X49535168Y-132486638D01*
X49533790Y-132492472D01*
X49509277Y-132542559D01*
X49465547Y-132577161D01*
X49411166Y-132589500D01*
X46587594Y-132589500D01*
X46539376Y-132579909D01*
X46498499Y-132552595D01*
X42620405Y-128674500D01*
X42593091Y-128633623D01*
X42583500Y-128585405D01*
X42583500Y-63864594D01*
X42593091Y-63816376D01*
X42620405Y-63775499D01*
X44125499Y-62270405D01*
X44166376Y-62243091D01*
X44214594Y-62233500D01*
X62635406Y-62233500D01*
X62683624Y-62243091D01*
X62724501Y-62270405D01*
X63629595Y-63175499D01*
X63656909Y-63216376D01*
X63666500Y-63264594D01*
X63666500Y-70990500D01*
X63649619Y-71053500D01*
X63603500Y-71099619D01*
X63540500Y-71116500D01*
X60628763Y-71116500D01*
X60617579Y-71115972D01*
X60610091Y-71114299D01*
X60602176Y-71114547D01*
X60602168Y-71114547D01*
X60542033Y-71116438D01*
X60538075Y-71116500D01*
X60510144Y-71116500D01*
X60506232Y-71116993D01*
X60506199Y-71116996D01*
X60506101Y-71117009D01*
X60494300Y-71117937D01*
X60458030Y-71119077D01*
X60458022Y-71119078D01*
X60450110Y-71119327D01*
X60442504Y-71121536D01*
X60442501Y-71121537D01*
X60430655Y-71124979D01*
X60411306Y-71128986D01*
X60399062Y-71130533D01*
X60391203Y-71131526D01*
X60383841Y-71134440D01*
X60383832Y-71134443D01*
X60350097Y-71147800D01*
X60338870Y-71151645D01*
X60304012Y-71161772D01*
X60304008Y-71161773D01*
X60296407Y-71163982D01*
X60289593Y-71168011D01*
X60289585Y-71168015D01*
X60278961Y-71174298D01*
X60261220Y-71182989D01*
X60249759Y-71187527D01*
X60249755Y-71187528D01*
X60242383Y-71190448D01*
X60235967Y-71195109D01*
X60235964Y-71195111D01*
X60206625Y-71216427D01*
X60196707Y-71222943D01*
X60165459Y-71241423D01*
X60165456Y-71241425D01*
X60158637Y-71245458D01*
X60153036Y-71251057D01*
X60153029Y-71251064D01*
X60144304Y-71259789D01*
X60129282Y-71272618D01*
X60119311Y-71279863D01*
X60119302Y-71279871D01*
X60112893Y-71284528D01*
X60107846Y-71290628D01*
X60107838Y-71290636D01*
X60084710Y-71318593D01*
X60076723Y-71327370D01*
X58657742Y-72746351D01*
X58649459Y-72753888D01*
X58642982Y-72758000D01*
X58637563Y-72763769D01*
X58637555Y-72763777D01*
X58596370Y-72807635D01*
X58593621Y-72810472D01*
X58576667Y-72827427D01*
X58576660Y-72827434D01*
X58573865Y-72830230D01*
X58571442Y-72833352D01*
X58571426Y-72833371D01*
X58571365Y-72833451D01*
X58563690Y-72842435D01*
X58538838Y-72868902D01*
X58538835Y-72868904D01*
X58533414Y-72874679D01*
X58529600Y-72881614D01*
X58529592Y-72881627D01*
X58523650Y-72892436D01*
X58512803Y-72908949D01*
X58505243Y-72918695D01*
X58505237Y-72918704D01*
X58500386Y-72924959D01*
X58497242Y-72932223D01*
X58497238Y-72932231D01*
X58482824Y-72965540D01*
X58477604Y-72976195D01*
X58460125Y-73007989D01*
X58460121Y-73007997D01*
X58456305Y-73014940D01*
X58454333Y-73022616D01*
X58454331Y-73022624D01*
X58451266Y-73034562D01*
X58444865Y-73053259D01*
X58439968Y-73064576D01*
X58439966Y-73064581D01*
X58436819Y-73071855D01*
X58435579Y-73079680D01*
X58435577Y-73079689D01*
X58429901Y-73115524D01*
X58427495Y-73127144D01*
X58418471Y-73162289D01*
X58418469Y-73162297D01*
X58416500Y-73169970D01*
X58416500Y-73177899D01*
X58416500Y-73190224D01*
X58414949Y-73209935D01*
X58413019Y-73222114D01*
X58413018Y-73222121D01*
X58411780Y-73229943D01*
X58412525Y-73237826D01*
X58412525Y-73237834D01*
X58415941Y-73273961D01*
X58416500Y-73285819D01*
X58416500Y-73926405D01*
X58402767Y-73983608D01*
X58364561Y-74028341D01*
X58310211Y-74050854D01*
X58251564Y-74046238D01*
X58201405Y-74015500D01*
X54670405Y-70484500D01*
X54643091Y-70443623D01*
X54633500Y-70395405D01*
X54633500Y-69876579D01*
X54648306Y-69817318D01*
X54689244Y-69771984D01*
X54746694Y-69751231D01*
X54756985Y-69750179D01*
X54779426Y-69747887D01*
X54947738Y-69692115D01*
X55098652Y-69599030D01*
X55224030Y-69473652D01*
X55317115Y-69322738D01*
X55372887Y-69154426D01*
X55383500Y-69050545D01*
X55383499Y-68149456D01*
X55374258Y-68058998D01*
X55386142Y-67991406D01*
X55431688Y-67940067D01*
X55497386Y-67920215D01*
X55561923Y-67937258D01*
X55564960Y-67939614D01*
X55605530Y-67957170D01*
X55616186Y-67962390D01*
X55654940Y-67983695D01*
X55674566Y-67988734D01*
X55693259Y-67995134D01*
X55711855Y-68003181D01*
X55719686Y-68004421D01*
X55719689Y-68004422D01*
X55736128Y-68007025D01*
X55755525Y-68010097D01*
X55767125Y-68012498D01*
X55809970Y-68023500D01*
X55830224Y-68023500D01*
X55849934Y-68025050D01*
X55869943Y-68028220D01*
X55913961Y-68024058D01*
X55925819Y-68023500D01*
X59063238Y-68023500D01*
X59123207Y-68038686D01*
X59168721Y-68080585D01*
X59284686Y-68258083D01*
X59288214Y-68261915D01*
X59439247Y-68425981D01*
X59439252Y-68425985D01*
X59442780Y-68429818D01*
X59626983Y-68573190D01*
X59832273Y-68684287D01*
X60053049Y-68760080D01*
X60283288Y-68798500D01*
X60511501Y-68798500D01*
X60516712Y-68798500D01*
X60746951Y-68760080D01*
X60967727Y-68684287D01*
X61173017Y-68573190D01*
X61357220Y-68429818D01*
X61515314Y-68258083D01*
X61642984Y-68062669D01*
X61736749Y-67848907D01*
X61794051Y-67622626D01*
X61813327Y-67390000D01*
X61794051Y-67157374D01*
X61736749Y-66931093D01*
X61642984Y-66717331D01*
X61515314Y-66521917D01*
X61430157Y-66429412D01*
X61400921Y-66375809D01*
X61400318Y-66314752D01*
X61428493Y-66260582D01*
X61478827Y-66226019D01*
X61546204Y-66200889D01*
X61663261Y-66113261D01*
X61750889Y-65996204D01*
X61801989Y-65859201D01*
X61808500Y-65798638D01*
X61808500Y-63901362D01*
X61801989Y-63840799D01*
X61750889Y-63703796D01*
X61663261Y-63586739D01*
X61581882Y-63525819D01*
X61553417Y-63504510D01*
X61553414Y-63504508D01*
X61546204Y-63499111D01*
X61537766Y-63495964D01*
X61537763Y-63495962D01*
X61416580Y-63450763D01*
X61416578Y-63450762D01*
X61409201Y-63448011D01*
X61401373Y-63447169D01*
X61401367Y-63447168D01*
X61351988Y-63441860D01*
X61351985Y-63441859D01*
X61348638Y-63441500D01*
X61345269Y-63441500D01*
X59939595Y-63441500D01*
X59891377Y-63431909D01*
X59850500Y-63404595D01*
X59253646Y-62807741D01*
X59246112Y-62799463D01*
X59242000Y-62792982D01*
X59192348Y-62746356D01*
X59189506Y-62743601D01*
X59172574Y-62726669D01*
X59169770Y-62723865D01*
X59166575Y-62721386D01*
X59157554Y-62713682D01*
X59139157Y-62696407D01*
X59125321Y-62683414D01*
X59118377Y-62679596D01*
X59118371Y-62679592D01*
X59107566Y-62673652D01*
X59091047Y-62662801D01*
X59075041Y-62650386D01*
X59067766Y-62647238D01*
X59067763Y-62647236D01*
X59034466Y-62632828D01*
X59023804Y-62627605D01*
X58992007Y-62610124D01*
X58992005Y-62610123D01*
X58985060Y-62606305D01*
X58977383Y-62604334D01*
X58977381Y-62604333D01*
X58965438Y-62601267D01*
X58946734Y-62594863D01*
X58935420Y-62589967D01*
X58935418Y-62589966D01*
X58928145Y-62586819D01*
X58920319Y-62585579D01*
X58920318Y-62585579D01*
X58884475Y-62579902D01*
X58872859Y-62577496D01*
X58830030Y-62566500D01*
X58822101Y-62566500D01*
X58809776Y-62566500D01*
X58790065Y-62564949D01*
X58777885Y-62563019D01*
X58777878Y-62563018D01*
X58770057Y-62561780D01*
X58762173Y-62562525D01*
X58762165Y-62562525D01*
X58726039Y-62565941D01*
X58714181Y-62566500D01*
X46478767Y-62566500D01*
X46467583Y-62565972D01*
X46460091Y-62564298D01*
X46452165Y-62564547D01*
X46392001Y-62566438D01*
X46388043Y-62566500D01*
X46360144Y-62566500D01*
X46356219Y-62566995D01*
X46356198Y-62566997D01*
X46356124Y-62567007D01*
X46344313Y-62567936D01*
X46308034Y-62569076D01*
X46308026Y-62569077D01*
X46300111Y-62569326D01*
X46292500Y-62571536D01*
X46292493Y-62571538D01*
X46280648Y-62574979D01*
X46261303Y-62578985D01*
X46249072Y-62580530D01*
X46249059Y-62580533D01*
X46241203Y-62581526D01*
X46233839Y-62584441D01*
X46233829Y-62584444D01*
X46200092Y-62597802D01*
X46188865Y-62601646D01*
X46154018Y-62611770D01*
X46154013Y-62611772D01*
X46146407Y-62613982D01*
X46139590Y-62618012D01*
X46139581Y-62618017D01*
X46128960Y-62624298D01*
X46111221Y-62632989D01*
X46099749Y-62637531D01*
X46099746Y-62637532D01*
X46092383Y-62640448D01*
X46085976Y-62645102D01*
X46085972Y-62645105D01*
X46056611Y-62666437D01*
X46046693Y-62672951D01*
X46015465Y-62691419D01*
X46015457Y-62691425D01*
X46008638Y-62695458D01*
X46003036Y-62701058D01*
X46003029Y-62701065D01*
X45994308Y-62709786D01*
X45979287Y-62722615D01*
X45969307Y-62729866D01*
X45969298Y-62729873D01*
X45962893Y-62734528D01*
X45957847Y-62740627D01*
X45957841Y-62740633D01*
X45934707Y-62768597D01*
X45926719Y-62777375D01*
X45717738Y-62986355D01*
X45709458Y-62993889D01*
X45702982Y-62998000D01*
X45665988Y-63037393D01*
X45656370Y-63047636D01*
X45653621Y-63050472D01*
X45636667Y-63067427D01*
X45636660Y-63067434D01*
X45633865Y-63070230D01*
X45631442Y-63073352D01*
X45631426Y-63073371D01*
X45631365Y-63073451D01*
X45623690Y-63082435D01*
X45598838Y-63108902D01*
X45598835Y-63108904D01*
X45593414Y-63114679D01*
X45589600Y-63121614D01*
X45589592Y-63121627D01*
X45583650Y-63132436D01*
X45572803Y-63148949D01*
X45565243Y-63158695D01*
X45565237Y-63158704D01*
X45560386Y-63164959D01*
X45557242Y-63172223D01*
X45557238Y-63172231D01*
X45542824Y-63205540D01*
X45537604Y-63216195D01*
X45520125Y-63247989D01*
X45520121Y-63247997D01*
X45516305Y-63254940D01*
X45514333Y-63262616D01*
X45514331Y-63262624D01*
X45511266Y-63274562D01*
X45504865Y-63293259D01*
X45499968Y-63304576D01*
X45499966Y-63304581D01*
X45496819Y-63311855D01*
X45495579Y-63319680D01*
X45495577Y-63319689D01*
X45489901Y-63355524D01*
X45487495Y-63367144D01*
X45478471Y-63402289D01*
X45478469Y-63402297D01*
X45476500Y-63409970D01*
X45476500Y-63417899D01*
X45476500Y-63430224D01*
X45474949Y-63449935D01*
X45473019Y-63462114D01*
X45473018Y-63462121D01*
X45471780Y-63469943D01*
X45472525Y-63477826D01*
X45472525Y-63477834D01*
X45475941Y-63513961D01*
X45476500Y-63525819D01*
X45476500Y-63973079D01*
X45458741Y-64037577D01*
X45410469Y-64083893D01*
X45369004Y-64106331D01*
X45368991Y-64106339D01*
X45364424Y-64108811D01*
X45360313Y-64112010D01*
X45360311Y-64112012D01*
X45190878Y-64243888D01*
X45190872Y-64243893D01*
X45186760Y-64247094D01*
X45183237Y-64250919D01*
X45183227Y-64250930D01*
X45037806Y-64408899D01*
X45037802Y-64408902D01*
X45034278Y-64412732D01*
X44976630Y-64500970D01*
X44938445Y-64559416D01*
X44892931Y-64601314D01*
X44832962Y-64616500D01*
X44328767Y-64616500D01*
X44317583Y-64615972D01*
X44310091Y-64614298D01*
X44302165Y-64614547D01*
X44242014Y-64616438D01*
X44238055Y-64616500D01*
X44210144Y-64616500D01*
X44206218Y-64616995D01*
X44206200Y-64616997D01*
X44206108Y-64617009D01*
X44194303Y-64617937D01*
X44158030Y-64619077D01*
X44158022Y-64619078D01*
X44150110Y-64619327D01*
X44142503Y-64621536D01*
X44142502Y-64621537D01*
X44130655Y-64624979D01*
X44111306Y-64628986D01*
X44099062Y-64630533D01*
X44091203Y-64631526D01*
X44083841Y-64634440D01*
X44083832Y-64634443D01*
X44050097Y-64647800D01*
X44038870Y-64651645D01*
X44004012Y-64661772D01*
X44004008Y-64661773D01*
X43996407Y-64663982D01*
X43989591Y-64668012D01*
X43989583Y-64668016D01*
X43978960Y-64674298D01*
X43961221Y-64682989D01*
X43949749Y-64687531D01*
X43949746Y-64687532D01*
X43942383Y-64690448D01*
X43935976Y-64695102D01*
X43935972Y-64695105D01*
X43906611Y-64716437D01*
X43896693Y-64722951D01*
X43865465Y-64741419D01*
X43865457Y-64741425D01*
X43858638Y-64745458D01*
X43853036Y-64751058D01*
X43853029Y-64751065D01*
X43844308Y-64759786D01*
X43829287Y-64772615D01*
X43819307Y-64779866D01*
X43819298Y-64779873D01*
X43812893Y-64784528D01*
X43807845Y-64790628D01*
X43807836Y-64790638D01*
X43784705Y-64818598D01*
X43776718Y-64827376D01*
X43257738Y-65346355D01*
X43249458Y-65353889D01*
X43242982Y-65358000D01*
X43237561Y-65363773D01*
X43196370Y-65407636D01*
X43193621Y-65410472D01*
X43176667Y-65427427D01*
X43176660Y-65427434D01*
X43173865Y-65430230D01*
X43171442Y-65433352D01*
X43171426Y-65433371D01*
X43171365Y-65433451D01*
X43163690Y-65442435D01*
X43138838Y-65468902D01*
X43138835Y-65468904D01*
X43133414Y-65474679D01*
X43129600Y-65481614D01*
X43129592Y-65481627D01*
X43123650Y-65492436D01*
X43112803Y-65508949D01*
X43105243Y-65518695D01*
X43105237Y-65518704D01*
X43100386Y-65524959D01*
X43097242Y-65532223D01*
X43097238Y-65532231D01*
X43082824Y-65565540D01*
X43077604Y-65576195D01*
X43060125Y-65607989D01*
X43060121Y-65607997D01*
X43056305Y-65614940D01*
X43054333Y-65622616D01*
X43054331Y-65622624D01*
X43051266Y-65634562D01*
X43044865Y-65653259D01*
X43039968Y-65664576D01*
X43039966Y-65664581D01*
X43036819Y-65671855D01*
X43035579Y-65679680D01*
X43035577Y-65679689D01*
X43029901Y-65715524D01*
X43027495Y-65727144D01*
X43018471Y-65762289D01*
X43018469Y-65762297D01*
X43016500Y-65769970D01*
X43016500Y-65777899D01*
X43016500Y-65790224D01*
X43014949Y-65809935D01*
X43013019Y-65822114D01*
X43013018Y-65822121D01*
X43011780Y-65829943D01*
X43012525Y-65837826D01*
X43012525Y-65837834D01*
X43015941Y-65873961D01*
X43016500Y-65885819D01*
X43016500Y-109471233D01*
X43015972Y-109482416D01*
X43014298Y-109489909D01*
X43014547Y-109497833D01*
X43014547Y-109497835D01*
X43016438Y-109557986D01*
X43016500Y-109561945D01*
X43016500Y-109589856D01*
X43016995Y-109593774D01*
X43016997Y-109593806D01*
X43017008Y-109593888D01*
X43017937Y-109605697D01*
X43019077Y-109641969D01*
X43019078Y-109641976D01*
X43019327Y-109649889D01*
X43021537Y-109657498D01*
X43021538Y-109657500D01*
X43024978Y-109669342D01*
X43028986Y-109688693D01*
X43031526Y-109708797D01*
X43034444Y-109716169D01*
X43034445Y-109716170D01*
X43047800Y-109749901D01*
X43051645Y-109761130D01*
X43061771Y-109795986D01*
X43061773Y-109795992D01*
X43063982Y-109803593D01*
X43068014Y-109810411D01*
X43068015Y-109810413D01*
X43074293Y-109821029D01*
X43082990Y-109838782D01*
X43090448Y-109857617D01*
X43095107Y-109864030D01*
X43095108Y-109864031D01*
X43116432Y-109893381D01*
X43122948Y-109903301D01*
X43141422Y-109934538D01*
X43145458Y-109941362D01*
X43151063Y-109946967D01*
X43159778Y-109955682D01*
X43172618Y-109970715D01*
X43184528Y-109987107D01*
X43190635Y-109992159D01*
X43190636Y-109992160D01*
X43218598Y-110015292D01*
X43227378Y-110023282D01*
X60979595Y-127775500D01*
X61006909Y-127816377D01*
X61016500Y-127864595D01*
X61016500Y-134821405D01*
X61006909Y-134869623D01*
X60979595Y-134910500D01*
X58851682Y-137038411D01*
X58799163Y-137069890D01*
X58738006Y-137072895D01*
X58682657Y-137046717D01*
X58308600Y-136739737D01*
X57807883Y-136380928D01*
X57284770Y-136055635D01*
X57282950Y-136054662D01*
X56743329Y-135766229D01*
X56743315Y-135766222D01*
X56741502Y-135765253D01*
X56438579Y-135628000D01*
X56182274Y-135511869D01*
X56182264Y-135511864D01*
X56180406Y-135511023D01*
X56134037Y-135493571D01*
X55605819Y-135294763D01*
X55605801Y-135294756D01*
X55603883Y-135294035D01*
X55601923Y-135293440D01*
X55601910Y-135293436D01*
X55016361Y-135115813D01*
X55016362Y-135115813D01*
X55014403Y-135115219D01*
X54793781Y-135063777D01*
X54416513Y-134975810D01*
X54416499Y-134975807D01*
X54414491Y-134975339D01*
X54412462Y-134975004D01*
X54412447Y-134975001D01*
X53808762Y-134875332D01*
X53808758Y-134875331D01*
X53806714Y-134874994D01*
X53752181Y-134869623D01*
X53195716Y-134814816D01*
X53195715Y-134814815D01*
X53193675Y-134814615D01*
X53191643Y-134814548D01*
X53191636Y-134814548D01*
X52580047Y-134794527D01*
X52578000Y-134794460D01*
X52575953Y-134794527D01*
X51964363Y-134814548D01*
X51964354Y-134814548D01*
X51962325Y-134814615D01*
X51960286Y-134814815D01*
X51960283Y-134814816D01*
X51351356Y-134874790D01*
X51351352Y-134874790D01*
X51349286Y-134874994D01*
X51347245Y-134875330D01*
X51347237Y-134875332D01*
X50743552Y-134975001D01*
X50743531Y-134975005D01*
X50741509Y-134975339D01*
X50739506Y-134975805D01*
X50739486Y-134975810D01*
X50206057Y-135100189D01*
X50141597Y-135115219D01*
X50139645Y-135115811D01*
X50139638Y-135115813D01*
X49554089Y-135293436D01*
X49554066Y-135293443D01*
X49552117Y-135294035D01*
X49550208Y-135294753D01*
X49550180Y-135294763D01*
X48977514Y-135510300D01*
X48977504Y-135510303D01*
X48975594Y-135511023D01*
X48973746Y-135511860D01*
X48973725Y-135511869D01*
X48416382Y-135764399D01*
X48416372Y-135764403D01*
X48414498Y-135765253D01*
X48412696Y-135766216D01*
X48412670Y-135766229D01*
X47873049Y-136054662D01*
X47873032Y-136054671D01*
X47871230Y-136055635D01*
X47869491Y-136056715D01*
X47869476Y-136056725D01*
X47349875Y-136379834D01*
X47349857Y-136379845D01*
X47348117Y-136380928D01*
X47346454Y-136382118D01*
X47346437Y-136382131D01*
X46849059Y-136738547D01*
X46849035Y-136738564D01*
X46847400Y-136739737D01*
X46845832Y-136741023D01*
X46845820Y-136741033D01*
X46372813Y-137129219D01*
X46372789Y-137129239D01*
X46371222Y-137130526D01*
X46369737Y-137131916D01*
X46369722Y-137131930D01*
X45923104Y-137550233D01*
X45923088Y-137550248D01*
X45921622Y-137551622D01*
X45920248Y-137553088D01*
X45920233Y-137553104D01*
X45501930Y-137999722D01*
X45501916Y-137999737D01*
X45500526Y-138001222D01*
X45499239Y-138002789D01*
X45499219Y-138002813D01*
X45111033Y-138475820D01*
X45111023Y-138475832D01*
X45109737Y-138477400D01*
X45108564Y-138479035D01*
X45108547Y-138479059D01*
X44752131Y-138976437D01*
X44752118Y-138976454D01*
X44750928Y-138978117D01*
X44749845Y-138979857D01*
X44749834Y-138979875D01*
X44426725Y-139499476D01*
X44426715Y-139499491D01*
X44425635Y-139501230D01*
X44424671Y-139503032D01*
X44424662Y-139503049D01*
X44136229Y-140042670D01*
X44136216Y-140042696D01*
X44135253Y-140044498D01*
X44134403Y-140046372D01*
X44134399Y-140046382D01*
X43881869Y-140603725D01*
X43881860Y-140603746D01*
X43881023Y-140605594D01*
X43880303Y-140607504D01*
X43880300Y-140607514D01*
X43664763Y-141180180D01*
X43664753Y-141180208D01*
X43664035Y-141182117D01*
X43663443Y-141184066D01*
X43663436Y-141184089D01*
X43485813Y-141769638D01*
X43485219Y-141771597D01*
X43484751Y-141773603D01*
X43484751Y-141773604D01*
X43345810Y-142369486D01*
X43345805Y-142369506D01*
X43345339Y-142371509D01*
X43345005Y-142373531D01*
X43345001Y-142373552D01*
X43245332Y-142977237D01*
X43244994Y-142979286D01*
X43184615Y-143592325D01*
X43164460Y-144208000D01*
X43184615Y-144823675D01*
X43244994Y-145436714D01*
X43245331Y-145438758D01*
X43245332Y-145438762D01*
X43345001Y-146042447D01*
X43345004Y-146042462D01*
X43345339Y-146044491D01*
X43485219Y-146644403D01*
X43664035Y-147233883D01*
X43664756Y-147235801D01*
X43664763Y-147235819D01*
X43875954Y-147796939D01*
X43881023Y-147810406D01*
X44135253Y-148371502D01*
X44136222Y-148373315D01*
X44136229Y-148373329D01*
X44424662Y-148912950D01*
X44425635Y-148914770D01*
X44750928Y-149437883D01*
X45109737Y-149938600D01*
X45500526Y-150414778D01*
X45921622Y-150864378D01*
X46371222Y-151285474D01*
X46847400Y-151676263D01*
X47348117Y-152035072D01*
X47871230Y-152360365D01*
X48414498Y-152650747D01*
X48975594Y-152904977D01*
X49552117Y-153121965D01*
X50141597Y-153300781D01*
X50741509Y-153440661D01*
X51349286Y-153541006D01*
X51962325Y-153601385D01*
X52578000Y-153621540D01*
X53193675Y-153601385D01*
X53806714Y-153541006D01*
X54414491Y-153440661D01*
X55014403Y-153300781D01*
X55603883Y-153121965D01*
X56180406Y-152904977D01*
X56741502Y-152650747D01*
X57284770Y-152360365D01*
X57807883Y-152035072D01*
X58308600Y-151676263D01*
X58784778Y-151285474D01*
X59234378Y-150864378D01*
X59655474Y-150414778D01*
X60046263Y-149938600D01*
X60405072Y-149437883D01*
X60730365Y-148914770D01*
X61020747Y-148371502D01*
X61274977Y-147810406D01*
X61491965Y-147233883D01*
X61670781Y-146644403D01*
X61810661Y-146044491D01*
X61911006Y-145436714D01*
X61971385Y-144823675D01*
X61991540Y-144208000D01*
X61971385Y-143592325D01*
X61911006Y-142979286D01*
X61810661Y-142371509D01*
X61670781Y-141771597D01*
X61491965Y-141182117D01*
X61274977Y-140605594D01*
X61020747Y-140044498D01*
X60730365Y-139501230D01*
X60405072Y-138978117D01*
X60046263Y-138477400D01*
X59739282Y-138103343D01*
X59713103Y-138047991D01*
X59716108Y-137986834D01*
X59747585Y-137934317D01*
X62042259Y-135639643D01*
X62050533Y-135632114D01*
X62057018Y-135628000D01*
X62103676Y-135578312D01*
X62106368Y-135575534D01*
X62126134Y-135555770D01*
X62128601Y-135552588D01*
X62136310Y-135543561D01*
X62166586Y-135511321D01*
X62176345Y-135493567D01*
X62187199Y-135477043D01*
X62199613Y-135461041D01*
X62217167Y-135420475D01*
X62222392Y-135409808D01*
X62239875Y-135378008D01*
X62239874Y-135378008D01*
X62243695Y-135371060D01*
X62248732Y-135351442D01*
X62255138Y-135332730D01*
X62263181Y-135314145D01*
X62270099Y-135270456D01*
X62272503Y-135258856D01*
X62281207Y-135224959D01*
X62283500Y-135216030D01*
X62283500Y-135195769D01*
X62285051Y-135176058D01*
X62288219Y-135156057D01*
X62286523Y-135138119D01*
X62284059Y-135112046D01*
X62283500Y-135100189D01*
X62283500Y-127628767D01*
X62284027Y-127617583D01*
X62285702Y-127610091D01*
X62283562Y-127542014D01*
X62283500Y-127538055D01*
X62283500Y-127514108D01*
X62283500Y-127510144D01*
X62282994Y-127506147D01*
X62282061Y-127494297D01*
X62280673Y-127450110D01*
X62275020Y-127430656D01*
X62271012Y-127411297D01*
X62268474Y-127391203D01*
X62252197Y-127350093D01*
X62248351Y-127338860D01*
X62238230Y-127304022D01*
X62236018Y-127296407D01*
X62225708Y-127278973D01*
X62217007Y-127261213D01*
X62209552Y-127242383D01*
X62183565Y-127206616D01*
X62177047Y-127196693D01*
X62158578Y-127165463D01*
X62154542Y-127158638D01*
X62140218Y-127144314D01*
X62127382Y-127129286D01*
X62115472Y-127112893D01*
X62109367Y-127107842D01*
X62109360Y-127107835D01*
X62081394Y-127084700D01*
X62072615Y-127076711D01*
X44320405Y-109324500D01*
X44293091Y-109283623D01*
X44283500Y-109235405D01*
X44283500Y-66164594D01*
X44293091Y-66116376D01*
X44320405Y-66075499D01*
X44475499Y-65920405D01*
X44516376Y-65893091D01*
X44564594Y-65883500D01*
X44832962Y-65883500D01*
X44892931Y-65898686D01*
X44938444Y-65940583D01*
X45034278Y-66087268D01*
X45061074Y-66116376D01*
X45183227Y-66249069D01*
X45183231Y-66249073D01*
X45186760Y-66252906D01*
X45364424Y-66391189D01*
X45397680Y-66409186D01*
X45445950Y-66455499D01*
X45463710Y-66519996D01*
X45445953Y-66584494D01*
X45397683Y-66630811D01*
X45369005Y-66646331D01*
X45368997Y-66646336D01*
X45364424Y-66648811D01*
X45360313Y-66652010D01*
X45360311Y-66652012D01*
X45190878Y-66783888D01*
X45190872Y-66783893D01*
X45186760Y-66787094D01*
X45183237Y-66790919D01*
X45183227Y-66790930D01*
X45037806Y-66948899D01*
X45037802Y-66948902D01*
X45034278Y-66952732D01*
X45031430Y-66957090D01*
X45031427Y-66957095D01*
X44945483Y-67088643D01*
X44911140Y-67141209D01*
X44909048Y-67145978D01*
X44909046Y-67145982D01*
X44822799Y-67342606D01*
X44822796Y-67342614D01*
X44820704Y-67347384D01*
X44819423Y-67352440D01*
X44819422Y-67352445D01*
X44767207Y-67558638D01*
X44765436Y-67565632D01*
X44765006Y-67570820D01*
X44765005Y-67570827D01*
X44752118Y-67726348D01*
X44746844Y-67790000D01*
X44747274Y-67795189D01*
X44764611Y-68004422D01*
X44765436Y-68014368D01*
X44820704Y-68232616D01*
X44822797Y-68237389D01*
X44822799Y-68237393D01*
X44898147Y-68409170D01*
X44911140Y-68438791D01*
X45034278Y-68627268D01*
X45037806Y-68631100D01*
X45183227Y-68789069D01*
X45183231Y-68789073D01*
X45186760Y-68792906D01*
X45364424Y-68931189D01*
X45369002Y-68933666D01*
X45369009Y-68933671D01*
X45397680Y-68949187D01*
X45445951Y-68995503D01*
X45463710Y-69060000D01*
X45445951Y-69124497D01*
X45397680Y-69170813D01*
X45369009Y-69186328D01*
X45368993Y-69186338D01*
X45364424Y-69188811D01*
X45360313Y-69192010D01*
X45360311Y-69192012D01*
X45190878Y-69323888D01*
X45190872Y-69323893D01*
X45186760Y-69327094D01*
X45183237Y-69330919D01*
X45183227Y-69330930D01*
X45037806Y-69488899D01*
X45037802Y-69488902D01*
X45034278Y-69492732D01*
X45031430Y-69497090D01*
X45031427Y-69497095D01*
X44945483Y-69628643D01*
X44911140Y-69681209D01*
X44909048Y-69685978D01*
X44909046Y-69685982D01*
X44822799Y-69882606D01*
X44822796Y-69882614D01*
X44820704Y-69887384D01*
X44765436Y-70105632D01*
X44765006Y-70110820D01*
X44765005Y-70110827D01*
X44747909Y-70317147D01*
X44746844Y-70330000D01*
X44765436Y-70554368D01*
X44766717Y-70559426D01*
X44813936Y-70745892D01*
X44820704Y-70772616D01*
X44822797Y-70777389D01*
X44822799Y-70777393D01*
X44885848Y-70921130D01*
X44911140Y-70978791D01*
X45034278Y-71167268D01*
X45082753Y-71219925D01*
X45183227Y-71329069D01*
X45183231Y-71329073D01*
X45186760Y-71332906D01*
X45364424Y-71471189D01*
X45562426Y-71578342D01*
X45567355Y-71580034D01*
X45567357Y-71580035D01*
X45666845Y-71614189D01*
X45775365Y-71651444D01*
X45997431Y-71688500D01*
X46217358Y-71688500D01*
X46222569Y-71688500D01*
X46444635Y-71651444D01*
X46657574Y-71578342D01*
X46855576Y-71471189D01*
X47033240Y-71332906D01*
X47185722Y-71167268D01*
X47274518Y-71031354D01*
X47320030Y-70989457D01*
X47380000Y-70974271D01*
X47439970Y-70989457D01*
X47485481Y-71031354D01*
X47574278Y-71167268D01*
X47622753Y-71219925D01*
X47723227Y-71329069D01*
X47723231Y-71329073D01*
X47726760Y-71332906D01*
X47904424Y-71471189D01*
X48102426Y-71578342D01*
X48107355Y-71580034D01*
X48107357Y-71580035D01*
X48206845Y-71614189D01*
X48315365Y-71651444D01*
X48537431Y-71688500D01*
X48757358Y-71688500D01*
X48762569Y-71688500D01*
X48984635Y-71651444D01*
X49197574Y-71578342D01*
X49395576Y-71471189D01*
X49573240Y-71332906D01*
X49725722Y-71167268D01*
X49848860Y-70978791D01*
X49939296Y-70772616D01*
X49994564Y-70554368D01*
X50013156Y-70330000D01*
X49994564Y-70105632D01*
X49939296Y-69887384D01*
X49848860Y-69681209D01*
X49725722Y-69492732D01*
X49664956Y-69426723D01*
X49576772Y-69330930D01*
X49576767Y-69330925D01*
X49573240Y-69327094D01*
X49395576Y-69188811D01*
X49391002Y-69186336D01*
X49390995Y-69186331D01*
X49362320Y-69170814D01*
X49314048Y-69124498D01*
X49296289Y-69060000D01*
X49314048Y-68995502D01*
X49362320Y-68949186D01*
X49390990Y-68933671D01*
X49395576Y-68931189D01*
X49573240Y-68792906D01*
X49725722Y-68627268D01*
X49848860Y-68438791D01*
X49939296Y-68232616D01*
X49994564Y-68014368D01*
X50012206Y-67801460D01*
X50037549Y-67735510D01*
X50094408Y-67693567D01*
X50164905Y-67688824D01*
X50226870Y-67722774D01*
X50679595Y-68175499D01*
X50706909Y-68216376D01*
X50716500Y-68264594D01*
X50716500Y-78671233D01*
X50715972Y-78682416D01*
X50714298Y-78689909D01*
X50714547Y-78697833D01*
X50714547Y-78697835D01*
X50716438Y-78757986D01*
X50716500Y-78761945D01*
X50716500Y-78789856D01*
X50716995Y-78793774D01*
X50716997Y-78793806D01*
X50717008Y-78793888D01*
X50717937Y-78805697D01*
X50719077Y-78841969D01*
X50719078Y-78841976D01*
X50719327Y-78849889D01*
X50721537Y-78857498D01*
X50721538Y-78857500D01*
X50724978Y-78869342D01*
X50728986Y-78888693D01*
X50731526Y-78908797D01*
X50734444Y-78916169D01*
X50734445Y-78916170D01*
X50747800Y-78949901D01*
X50751645Y-78961130D01*
X50761771Y-78995986D01*
X50761773Y-78995992D01*
X50763982Y-79003593D01*
X50768014Y-79010411D01*
X50768015Y-79010413D01*
X50774293Y-79021029D01*
X50782990Y-79038782D01*
X50787342Y-79049775D01*
X50790448Y-79057617D01*
X50795107Y-79064030D01*
X50795108Y-79064031D01*
X50816432Y-79093381D01*
X50822948Y-79103301D01*
X50841422Y-79134538D01*
X50845458Y-79141362D01*
X50851063Y-79146967D01*
X50859778Y-79155682D01*
X50872618Y-79170715D01*
X50884528Y-79187107D01*
X50890635Y-79192159D01*
X50890636Y-79192160D01*
X50918598Y-79215292D01*
X50927378Y-79223282D01*
X55446342Y-83742246D01*
X55453884Y-83750533D01*
X55458000Y-83757018D01*
X55463779Y-83762444D01*
X55463780Y-83762446D01*
X55507667Y-83803658D01*
X55510508Y-83806412D01*
X55530230Y-83826134D01*
X55533414Y-83828604D01*
X55542437Y-83836309D01*
X55574679Y-83866586D01*
X55581628Y-83870406D01*
X55592429Y-83876344D01*
X55608959Y-83887202D01*
X55618694Y-83894754D01*
X55618697Y-83894756D01*
X55624959Y-83899613D01*
X55665536Y-83917172D01*
X55676171Y-83922381D01*
X55714940Y-83943695D01*
X55734566Y-83948734D01*
X55753259Y-83955134D01*
X55771855Y-83963181D01*
X55815518Y-83970095D01*
X55827129Y-83972500D01*
X55869970Y-83983500D01*
X55890231Y-83983500D01*
X55909939Y-83985050D01*
X55929943Y-83988219D01*
X55937835Y-83987473D01*
X55943062Y-83986979D01*
X55973954Y-83984058D01*
X55985811Y-83983500D01*
X57071233Y-83983500D01*
X57082416Y-83984027D01*
X57089909Y-83985702D01*
X57157985Y-83983562D01*
X57161945Y-83983500D01*
X57185894Y-83983500D01*
X57189856Y-83983500D01*
X57193856Y-83982994D01*
X57205699Y-83982061D01*
X57249889Y-83980673D01*
X57269333Y-83975023D01*
X57288702Y-83971012D01*
X57308797Y-83968474D01*
X57349915Y-83952193D01*
X57361117Y-83948357D01*
X57403593Y-83936018D01*
X57421039Y-83925699D01*
X57438769Y-83917013D01*
X57457617Y-83909552D01*
X57493387Y-83883561D01*
X57503298Y-83877051D01*
X57541362Y-83854542D01*
X57555688Y-83840215D01*
X57570717Y-83827378D01*
X57587107Y-83815472D01*
X57615294Y-83781397D01*
X57623272Y-83772630D01*
X60595726Y-80800177D01*
X60646454Y-80769257D01*
X60705713Y-80765019D01*
X60760328Y-80788406D01*
X60794280Y-80813822D01*
X60843796Y-80850889D01*
X60980799Y-80901989D01*
X61041362Y-80908500D01*
X61455500Y-80908500D01*
X61518500Y-80925381D01*
X61564619Y-80971500D01*
X61581500Y-81034500D01*
X61581500Y-81998638D01*
X61581859Y-82001985D01*
X61581860Y-82001988D01*
X61587168Y-82051367D01*
X61587169Y-82051373D01*
X61588011Y-82059201D01*
X61590762Y-82066578D01*
X61590763Y-82066580D01*
X61635962Y-82187763D01*
X61635964Y-82187766D01*
X61639111Y-82196204D01*
X61644508Y-82203414D01*
X61644510Y-82203417D01*
X61721340Y-82306049D01*
X61726739Y-82313261D01*
X61843796Y-82400889D01*
X61980799Y-82451989D01*
X62041362Y-82458500D01*
X62935269Y-82458500D01*
X62938638Y-82458500D01*
X62999201Y-82451989D01*
X63136204Y-82400889D01*
X63253261Y-82313261D01*
X63340889Y-82196204D01*
X63391989Y-82059201D01*
X63398500Y-81998638D01*
X63398500Y-80901362D01*
X63391989Y-80840799D01*
X63340889Y-80703796D01*
X63253261Y-80586739D01*
X63148991Y-80508683D01*
X63111828Y-80464215D01*
X63098500Y-80407815D01*
X63098500Y-80041113D01*
X63114753Y-79979213D01*
X63159319Y-79933283D01*
X63220700Y-79915170D01*
X63271303Y-79926837D01*
X63272070Y-79924818D01*
X63431128Y-79985140D01*
X63438695Y-79986058D01*
X63438696Y-79986059D01*
X63452223Y-79987701D01*
X63557628Y-80000500D01*
X63638563Y-80000500D01*
X63642372Y-80000500D01*
X63768872Y-79985140D01*
X63927930Y-79924818D01*
X64067929Y-79828183D01*
X64180734Y-79700852D01*
X64259790Y-79550225D01*
X64300500Y-79385056D01*
X64300500Y-79214944D01*
X64259790Y-79049775D01*
X64180734Y-78899148D01*
X64162761Y-78878861D01*
X64072983Y-78777522D01*
X64067929Y-78771817D01*
X63997929Y-78723499D01*
X63934205Y-78679513D01*
X63934202Y-78679511D01*
X63927930Y-78675182D01*
X63920803Y-78672479D01*
X63920799Y-78672477D01*
X63776000Y-78617563D01*
X63775998Y-78617562D01*
X63768872Y-78614860D01*
X63761310Y-78613941D01*
X63761303Y-78613940D01*
X63646155Y-78599959D01*
X63646149Y-78599958D01*
X63642372Y-78599500D01*
X63557628Y-78599500D01*
X63553851Y-78599958D01*
X63553844Y-78599959D01*
X63438696Y-78613940D01*
X63438687Y-78613942D01*
X63431128Y-78614860D01*
X63424003Y-78617561D01*
X63423999Y-78617563D01*
X63272070Y-78675182D01*
X63271303Y-78673162D01*
X63220700Y-78684830D01*
X63159319Y-78666717D01*
X63114753Y-78620787D01*
X63098500Y-78558887D01*
X63098500Y-78154731D01*
X63098500Y-78151362D01*
X63091989Y-78090799D01*
X63040889Y-77953796D01*
X62953261Y-77836739D01*
X62946049Y-77831340D01*
X62843417Y-77754510D01*
X62843414Y-77754508D01*
X62836204Y-77749111D01*
X62827766Y-77745964D01*
X62827763Y-77745962D01*
X62706580Y-77700763D01*
X62706578Y-77700762D01*
X62699201Y-77698011D01*
X62691373Y-77697169D01*
X62691367Y-77697168D01*
X62641988Y-77691860D01*
X62641985Y-77691859D01*
X62638638Y-77691500D01*
X62635269Y-77691500D01*
X61929595Y-77691500D01*
X61881377Y-77681909D01*
X61840500Y-77654595D01*
X60763740Y-76577835D01*
X60730530Y-76519028D01*
X60732458Y-76451519D01*
X60768971Y-76394703D01*
X60829579Y-76364905D01*
X60896867Y-76370683D01*
X60980799Y-76401989D01*
X61041362Y-76408500D01*
X62635269Y-76408500D01*
X62638638Y-76408500D01*
X62699201Y-76401989D01*
X62753935Y-76381573D01*
X62823621Y-76376268D01*
X62885417Y-76408917D01*
X62920307Y-76469475D01*
X62940210Y-76550225D01*
X63019266Y-76700852D01*
X63132071Y-76828183D01*
X63272070Y-76924818D01*
X63431128Y-76985140D01*
X63438695Y-76986058D01*
X63438696Y-76986059D01*
X63452223Y-76987701D01*
X63557628Y-77000500D01*
X63638563Y-77000500D01*
X63642372Y-77000500D01*
X63768872Y-76985140D01*
X63927930Y-76924818D01*
X64067929Y-76828183D01*
X64180734Y-76700852D01*
X64259790Y-76550225D01*
X64300500Y-76385056D01*
X64300500Y-76214944D01*
X64259790Y-76049775D01*
X64180734Y-75899148D01*
X64067929Y-75771817D01*
X63997929Y-75723499D01*
X63934205Y-75679513D01*
X63934202Y-75679511D01*
X63927930Y-75675182D01*
X63920803Y-75672479D01*
X63920799Y-75672477D01*
X63776000Y-75617563D01*
X63775998Y-75617562D01*
X63768872Y-75614860D01*
X63761310Y-75613941D01*
X63761303Y-75613940D01*
X63646155Y-75599959D01*
X63646149Y-75599958D01*
X63642372Y-75599500D01*
X63557628Y-75599500D01*
X63553851Y-75599958D01*
X63553844Y-75599959D01*
X63438696Y-75613940D01*
X63438687Y-75613942D01*
X63431128Y-75614860D01*
X63424003Y-75617561D01*
X63423999Y-75617563D01*
X63272070Y-75675182D01*
X63271303Y-75673162D01*
X63220700Y-75684830D01*
X63159319Y-75666717D01*
X63114753Y-75620787D01*
X63098500Y-75558887D01*
X63098500Y-75192185D01*
X63111828Y-75135785D01*
X63148991Y-75091317D01*
X63171271Y-75074637D01*
X63253261Y-75013261D01*
X63340889Y-74896204D01*
X63391989Y-74759201D01*
X63398500Y-74698638D01*
X63398500Y-73601362D01*
X63391989Y-73540799D01*
X63340889Y-73403796D01*
X63253261Y-73286739D01*
X63170916Y-73225096D01*
X63143417Y-73204510D01*
X63143414Y-73204508D01*
X63136204Y-73199111D01*
X63127766Y-73195964D01*
X63127763Y-73195962D01*
X63006580Y-73150763D01*
X63006578Y-73150762D01*
X62999201Y-73148011D01*
X62991373Y-73147169D01*
X62991367Y-73147168D01*
X62941988Y-73141860D01*
X62941985Y-73141859D01*
X62938638Y-73141500D01*
X62041362Y-73141500D01*
X62038015Y-73141859D01*
X62038011Y-73141860D01*
X61988632Y-73147168D01*
X61988625Y-73147169D01*
X61980799Y-73148011D01*
X61973423Y-73150761D01*
X61973419Y-73150763D01*
X61852236Y-73195962D01*
X61852230Y-73195965D01*
X61843796Y-73199111D01*
X61836588Y-73204506D01*
X61836582Y-73204510D01*
X61733950Y-73281340D01*
X61733946Y-73281343D01*
X61726739Y-73286739D01*
X61721343Y-73293946D01*
X61721340Y-73293950D01*
X61644510Y-73396582D01*
X61644506Y-73396588D01*
X61639111Y-73403796D01*
X61635965Y-73412230D01*
X61635962Y-73412236D01*
X61590763Y-73533419D01*
X61590761Y-73533423D01*
X61588011Y-73540799D01*
X61587169Y-73548625D01*
X61587168Y-73548632D01*
X61581860Y-73598011D01*
X61581500Y-73601362D01*
X61581500Y-73604731D01*
X61581500Y-74565500D01*
X61564619Y-74628500D01*
X61518500Y-74674619D01*
X61455500Y-74691500D01*
X61041362Y-74691500D01*
X61038015Y-74691859D01*
X61038011Y-74691860D01*
X60988632Y-74697168D01*
X60988625Y-74697169D01*
X60980799Y-74698011D01*
X60973423Y-74700761D01*
X60973419Y-74700763D01*
X60852236Y-74745962D01*
X60852230Y-74745965D01*
X60843796Y-74749111D01*
X60836588Y-74754506D01*
X60836582Y-74754510D01*
X60733950Y-74831340D01*
X60733946Y-74831343D01*
X60726739Y-74836739D01*
X60721343Y-74843946D01*
X60721341Y-74843949D01*
X60704829Y-74866008D01*
X60660360Y-74903172D01*
X60603960Y-74916500D01*
X60564595Y-74916500D01*
X60516377Y-74906909D01*
X60475500Y-74879595D01*
X59720405Y-74124500D01*
X59693091Y-74083623D01*
X59683500Y-74035405D01*
X59683500Y-73564594D01*
X59693091Y-73516376D01*
X59720405Y-73475499D01*
X60775499Y-72420405D01*
X60816376Y-72393091D01*
X60864594Y-72383500D01*
X64121233Y-72383500D01*
X64132416Y-72384027D01*
X64139909Y-72385702D01*
X64207985Y-72383562D01*
X64211945Y-72383500D01*
X64235894Y-72383500D01*
X64239856Y-72383500D01*
X64243856Y-72382994D01*
X64255699Y-72382061D01*
X64299889Y-72380673D01*
X64319333Y-72375023D01*
X64338702Y-72371012D01*
X64358797Y-72368474D01*
X64399915Y-72352193D01*
X64411117Y-72348357D01*
X64453593Y-72336018D01*
X64471039Y-72325699D01*
X64488769Y-72317013D01*
X64507617Y-72309552D01*
X64543387Y-72283561D01*
X64553298Y-72277051D01*
X64591362Y-72254542D01*
X64605688Y-72240215D01*
X64620717Y-72227378D01*
X64637107Y-72215472D01*
X64665294Y-72181397D01*
X64673272Y-72172630D01*
X64692259Y-72153643D01*
X64700533Y-72146114D01*
X64707018Y-72142000D01*
X64753676Y-72092312D01*
X64756368Y-72089534D01*
X64776134Y-72069770D01*
X64778601Y-72066588D01*
X64786310Y-72057561D01*
X64816586Y-72025321D01*
X64826345Y-72007567D01*
X64837199Y-71991043D01*
X64849613Y-71975041D01*
X64867167Y-71934475D01*
X64872392Y-71923808D01*
X64889875Y-71892008D01*
X64889874Y-71892008D01*
X64893695Y-71885060D01*
X64898732Y-71865442D01*
X64905138Y-71846730D01*
X64913181Y-71828145D01*
X64920099Y-71784456D01*
X64922503Y-71772856D01*
X64933500Y-71730030D01*
X64933500Y-71709769D01*
X64935051Y-71690058D01*
X64936979Y-71677884D01*
X64938219Y-71670057D01*
X64934058Y-71626045D01*
X64933500Y-71614189D01*
X64933500Y-63028767D01*
X64934027Y-63017583D01*
X64935702Y-63010091D01*
X64933562Y-62942014D01*
X64933500Y-62938055D01*
X64933500Y-62914108D01*
X64933500Y-62910144D01*
X64932994Y-62906147D01*
X64932061Y-62894297D01*
X64930673Y-62850110D01*
X64925020Y-62830656D01*
X64921012Y-62811297D01*
X64920563Y-62807741D01*
X64918474Y-62791203D01*
X64902197Y-62750093D01*
X64898351Y-62738860D01*
X64886018Y-62696407D01*
X64875707Y-62678973D01*
X64867008Y-62661215D01*
X64862469Y-62649751D01*
X64859552Y-62642383D01*
X64833561Y-62606610D01*
X64827050Y-62596698D01*
X64825965Y-62594863D01*
X64804542Y-62558637D01*
X64790218Y-62544313D01*
X64777376Y-62529277D01*
X64770134Y-62519309D01*
X64770131Y-62519306D01*
X64765472Y-62512893D01*
X64731405Y-62484710D01*
X64722626Y-62476721D01*
X63453646Y-61207741D01*
X63446112Y-61199463D01*
X63442000Y-61192982D01*
X63392348Y-61146356D01*
X63389506Y-61143601D01*
X63372574Y-61126669D01*
X63369770Y-61123865D01*
X63366575Y-61121386D01*
X63357554Y-61113682D01*
X63331097Y-61088838D01*
X63325321Y-61083414D01*
X63318377Y-61079596D01*
X63318371Y-61079592D01*
X63307566Y-61073652D01*
X63291047Y-61062801D01*
X63275041Y-61050386D01*
X63267766Y-61047238D01*
X63267763Y-61047236D01*
X63234466Y-61032828D01*
X63223804Y-61027605D01*
X63192007Y-61010124D01*
X63192005Y-61010123D01*
X63185060Y-61006305D01*
X63177383Y-61004334D01*
X63177381Y-61004333D01*
X63165438Y-61001267D01*
X63146734Y-60994863D01*
X63135420Y-60989967D01*
X63135418Y-60989966D01*
X63128145Y-60986819D01*
X63120319Y-60985579D01*
X63120318Y-60985579D01*
X63084475Y-60979902D01*
X63072859Y-60977496D01*
X63030030Y-60966500D01*
X63022101Y-60966500D01*
X63009776Y-60966500D01*
X62990065Y-60964949D01*
X62977885Y-60963019D01*
X62977878Y-60963018D01*
X62970057Y-60961780D01*
X62962173Y-60962525D01*
X62962165Y-60962525D01*
X62926039Y-60965941D01*
X62914181Y-60966500D01*
X43978763Y-60966500D01*
X43967579Y-60965972D01*
X43960091Y-60964299D01*
X43952176Y-60964547D01*
X43952168Y-60964547D01*
X43892033Y-60966438D01*
X43888075Y-60966500D01*
X43860144Y-60966500D01*
X43856232Y-60966993D01*
X43856199Y-60966996D01*
X43856101Y-60967009D01*
X43844300Y-60967937D01*
X43808030Y-60969077D01*
X43808022Y-60969078D01*
X43800110Y-60969327D01*
X43792504Y-60971536D01*
X43792501Y-60971537D01*
X43780655Y-60974979D01*
X43761306Y-60978986D01*
X43754234Y-60979879D01*
X43741203Y-60981526D01*
X43733844Y-60984439D01*
X43733834Y-60984442D01*
X43700082Y-60997805D01*
X43688860Y-61001647D01*
X43654014Y-61011771D01*
X43654010Y-61011772D01*
X43646406Y-61013982D01*
X43639585Y-61018015D01*
X43639582Y-61018017D01*
X43628968Y-61024294D01*
X43611218Y-61032990D01*
X43599756Y-61037528D01*
X43599751Y-61037530D01*
X43592383Y-61040448D01*
X43585974Y-61045104D01*
X43585969Y-61045107D01*
X43556615Y-61066434D01*
X43546697Y-61072948D01*
X43515464Y-61091419D01*
X43515456Y-61091425D01*
X43508637Y-61095458D01*
X43503035Y-61101058D01*
X43503028Y-61101065D01*
X43494304Y-61109789D01*
X43479282Y-61122618D01*
X43469311Y-61129863D01*
X43469302Y-61129871D01*
X43462893Y-61134528D01*
X43457846Y-61140628D01*
X43457838Y-61140636D01*
X43434710Y-61168593D01*
X43426723Y-61177370D01*
X41557742Y-63046351D01*
X41549459Y-63053888D01*
X41542982Y-63058000D01*
X41537563Y-63063769D01*
X41537555Y-63063777D01*
X41496370Y-63107635D01*
X41493621Y-63110472D01*
X41476667Y-63127427D01*
X41476660Y-63127434D01*
X41473865Y-63130230D01*
X41471442Y-63133352D01*
X41471426Y-63133371D01*
X41471365Y-63133451D01*
X41463690Y-63142435D01*
X41438838Y-63168902D01*
X41438835Y-63168904D01*
X41433414Y-63174679D01*
X41429600Y-63181614D01*
X41429592Y-63181627D01*
X41423650Y-63192436D01*
X41412803Y-63208949D01*
X41405243Y-63218695D01*
X41405237Y-63218704D01*
X41400386Y-63224959D01*
X41397242Y-63232223D01*
X41397238Y-63232231D01*
X41382824Y-63265540D01*
X41377604Y-63276195D01*
X41360125Y-63307989D01*
X41360121Y-63307997D01*
X41356305Y-63314940D01*
X41354333Y-63322616D01*
X41354331Y-63322624D01*
X41351266Y-63334562D01*
X41344865Y-63353259D01*
X41339968Y-63364576D01*
X41339966Y-63364581D01*
X41336819Y-63371855D01*
X41335579Y-63379680D01*
X41335577Y-63379689D01*
X41329901Y-63415524D01*
X41327495Y-63427144D01*
X41318471Y-63462289D01*
X41318469Y-63462297D01*
X41316500Y-63469970D01*
X41316500Y-63477899D01*
X41316500Y-63490224D01*
X41314949Y-63509935D01*
X41313019Y-63522114D01*
X41313018Y-63522121D01*
X41311780Y-63529943D01*
X41312525Y-63537826D01*
X41312525Y-63537834D01*
X41315941Y-63573961D01*
X41316500Y-63585819D01*
X41316500Y-128415193D01*
X41300174Y-128474870D01*
X41300385Y-128474961D01*
X41299745Y-128476437D01*
X41299742Y-128476445D01*
X41297242Y-128482224D01*
X41297238Y-128482231D01*
X41278077Y-128526509D01*
X41274709Y-128533666D01*
X41252815Y-128576637D01*
X41252813Y-128576641D01*
X41249215Y-128583704D01*
X41247486Y-128591436D01*
X41247482Y-128591448D01*
X41247414Y-128591755D01*
X41240095Y-128614281D01*
X41239969Y-128614571D01*
X41239965Y-128614581D01*
X41236819Y-128621855D01*
X41235580Y-128629676D01*
X41235578Y-128629684D01*
X41228033Y-128677326D01*
X41226549Y-128685101D01*
X41216028Y-128732165D01*
X41216027Y-128732172D01*
X41214298Y-128739909D01*
X41214547Y-128747832D01*
X41214546Y-128747844D01*
X41214556Y-128748155D01*
X41213069Y-128771797D01*
X41213020Y-128772104D01*
X41213019Y-128772116D01*
X41211780Y-128779943D01*
X41212525Y-128787826D01*
X41212525Y-128787835D01*
X41217065Y-128835857D01*
X41217562Y-128843754D01*
X41219077Y-128891965D01*
X41219078Y-128891972D01*
X41219327Y-128899889D01*
X41221537Y-128907498D01*
X41221538Y-128907502D01*
X41221624Y-128907796D01*
X41226067Y-128931086D01*
X41226096Y-128931399D01*
X41226097Y-128931403D01*
X41226843Y-128939292D01*
X41229526Y-128946746D01*
X41229527Y-128946748D01*
X41245869Y-128992142D01*
X41248313Y-128999666D01*
X41261767Y-129045973D01*
X41261770Y-129045980D01*
X41263982Y-129053593D01*
X41268174Y-129060683D01*
X41278267Y-129082130D01*
X41281061Y-129089889D01*
X41285514Y-129096441D01*
X41312631Y-129136343D01*
X41316872Y-129143026D01*
X41345458Y-129191362D01*
X41351065Y-129196969D01*
X41351066Y-129196970D01*
X41351278Y-129197182D01*
X41366394Y-129215453D01*
X41366568Y-129215710D01*
X41366572Y-129215715D01*
X41371028Y-129222271D01*
X41413163Y-129259418D01*
X41418933Y-129264837D01*
X44528501Y-132374405D01*
X44559239Y-132424564D01*
X44563855Y-132483211D01*
X44541342Y-132537561D01*
X44496609Y-132575767D01*
X44439406Y-132589500D01*
X44055767Y-132589500D01*
X44044583Y-132588972D01*
X44037091Y-132587298D01*
X44029165Y-132587547D01*
X43969001Y-132589438D01*
X43965043Y-132589500D01*
X43937144Y-132589500D01*
X43933219Y-132589995D01*
X43933198Y-132589997D01*
X43933124Y-132590007D01*
X43921313Y-132590936D01*
X43885034Y-132592076D01*
X43885026Y-132592077D01*
X43877111Y-132592326D01*
X43869500Y-132594536D01*
X43869493Y-132594538D01*
X43857648Y-132597979D01*
X43838303Y-132601985D01*
X43826072Y-132603530D01*
X43826059Y-132603533D01*
X43818203Y-132604526D01*
X43810839Y-132607441D01*
X43810829Y-132607444D01*
X43777092Y-132620802D01*
X43765865Y-132624646D01*
X43731018Y-132634770D01*
X43731013Y-132634772D01*
X43723407Y-132636982D01*
X43716590Y-132641012D01*
X43716581Y-132641017D01*
X43705960Y-132647298D01*
X43688221Y-132655989D01*
X43676749Y-132660531D01*
X43676746Y-132660532D01*
X43669383Y-132663448D01*
X43662976Y-132668102D01*
X43662972Y-132668105D01*
X43633611Y-132689437D01*
X43623693Y-132695951D01*
X43592465Y-132714419D01*
X43592457Y-132714425D01*
X43585638Y-132718458D01*
X43580036Y-132724058D01*
X43580029Y-132724065D01*
X43571308Y-132732786D01*
X43556287Y-132745615D01*
X43546307Y-132752866D01*
X43546298Y-132752873D01*
X43539893Y-132757528D01*
X43534845Y-132763628D01*
X43534836Y-132763638D01*
X43511700Y-132791604D01*
X43503713Y-132800381D01*
X41257742Y-135046351D01*
X41249459Y-135053888D01*
X41242982Y-135058000D01*
X41237563Y-135063769D01*
X41237555Y-135063777D01*
X41196370Y-135107635D01*
X41193621Y-135110472D01*
X41176667Y-135127427D01*
X41176660Y-135127434D01*
X41173865Y-135130230D01*
X41171442Y-135133352D01*
X41171426Y-135133371D01*
X41171365Y-135133451D01*
X41163690Y-135142435D01*
X41138839Y-135168900D01*
X41138833Y-135168907D01*
X41133414Y-135174679D01*
X41129596Y-135181623D01*
X41128437Y-135183219D01*
X41080149Y-135223167D01*
X41018589Y-135234910D01*
X40958986Y-135215545D01*
X40916085Y-135169860D01*
X40900500Y-135109159D01*
X40900500Y-60232744D01*
X40900501Y-60232744D01*
X40900092Y-60228116D01*
X40901802Y-60140371D01*
X40911364Y-60094627D01*
X40916064Y-60083279D01*
X40920178Y-60074355D01*
X40944555Y-60026507D01*
X40956847Y-60007025D01*
X40974686Y-59983776D01*
X40985532Y-59971408D01*
X41021408Y-59935532D01*
X41033776Y-59924686D01*
X41057025Y-59906847D01*
X41076507Y-59894555D01*
X41124355Y-59870178D01*
X41133279Y-59866064D01*
X41156819Y-59856315D01*
X41185316Y-59848280D01*
X41262522Y-59836059D01*
X41265771Y-59835589D01*
X41274665Y-59834419D01*
X41291099Y-59833343D01*
X65164404Y-59833343D01*
X65182896Y-59834708D01*
G37*
%TD.AperFunction*%
M02*
