%TF.GenerationSoftware,KiCad,Pcbnew,(7.0.0-0)*%
%TF.CreationDate,2023-07-17T23:39:08-05:00*%
%TF.ProjectId,speaker-SAO,73706561-6b65-4722-9d53-414f2e6b6963,rev?*%
%TF.SameCoordinates,Original*%
%TF.FileFunction,Copper,L1,Top*%
%TF.FilePolarity,Positive*%
%FSLAX46Y46*%
G04 Gerber Fmt 4.6, Leading zero omitted, Abs format (unit mm)*
G04 Created by KiCad (PCBNEW (7.0.0-0)) date 2023-07-17 23:39:08*
%MOMM*%
%LPD*%
G01*
G04 APERTURE LIST*
%TA.AperFunction,ComponentPad*%
%ADD10R,1.800000X1.800000*%
%TD*%
%TA.AperFunction,ComponentPad*%
%ADD11C,1.800000*%
%TD*%
%TA.AperFunction,ComponentPad*%
%ADD12R,1.700000X1.700000*%
%TD*%
%TA.AperFunction,ComponentPad*%
%ADD13O,1.700000X1.700000*%
%TD*%
G04 APERTURE END LIST*
D10*
X60399999Y-64849999D03*
D11*
X60400000Y-67390000D03*
D12*
X48649999Y-65249999D03*
D13*
X46109999Y-65249999D03*
X48649999Y-67789999D03*
X46109999Y-67789999D03*
X48649999Y-70329999D03*
X46109999Y-70329999D03*
%TA.AperFunction,NonConductor*%
G36*
X65182896Y-59834708D02*
G01*
X65190870Y-59835892D01*
X65193994Y-59836398D01*
X65271007Y-59849906D01*
X65299361Y-59858411D01*
X65322741Y-59868552D01*
X65331609Y-59872819D01*
X65379052Y-59897991D01*
X65398343Y-59910615D01*
X65421290Y-59928835D01*
X65433499Y-59939905D01*
X65468755Y-59976349D01*
X65479415Y-59988919D01*
X65496866Y-60012459D01*
X65508846Y-60032160D01*
X65532415Y-60080374D01*
X65536408Y-60089429D01*
X65545758Y-60113105D01*
X65553324Y-60141739D01*
X65564269Y-60219117D01*
X65564686Y-60222368D01*
X65565834Y-60232371D01*
X65566657Y-60246739D01*
X65566657Y-157491741D01*
X65565578Y-157508194D01*
X65564412Y-157517047D01*
X65563940Y-157520306D01*
X65551711Y-157597512D01*
X65543669Y-157626022D01*
X65533937Y-157649515D01*
X65529795Y-157658499D01*
X65505437Y-157706301D01*
X65493130Y-157725805D01*
X65475305Y-157749032D01*
X65464437Y-157761422D01*
X65428587Y-157797268D01*
X65416194Y-157808136D01*
X65392967Y-157825956D01*
X65373465Y-157838259D01*
X65325663Y-157862611D01*
X65316677Y-157866753D01*
X65293145Y-157876498D01*
X65264677Y-157884529D01*
X65188842Y-157896559D01*
X65185543Y-157897038D01*
X65181227Y-157897606D01*
X65175013Y-157898423D01*
X65158578Y-157899500D01*
X41308258Y-157899500D01*
X41291797Y-157898420D01*
X41290945Y-157898307D01*
X41282933Y-157897252D01*
X41279685Y-157896781D01*
X41202484Y-157884554D01*
X41173979Y-157876515D01*
X41150475Y-157866780D01*
X41141487Y-157862637D01*
X41093684Y-157838280D01*
X41074187Y-157825978D01*
X41050946Y-157808144D01*
X41038561Y-157797282D01*
X41002716Y-157761437D01*
X40991856Y-157749056D01*
X40974016Y-157725805D01*
X40961721Y-157706318D01*
X40937355Y-157658498D01*
X40933218Y-157649523D01*
X40923483Y-157626019D01*
X40915445Y-157597519D01*
X40903211Y-157520274D01*
X40902755Y-157517128D01*
X40901576Y-157508176D01*
X40900500Y-157491743D01*
X40900500Y-79385056D01*
X62899500Y-79385056D01*
X62901321Y-79392445D01*
X62901322Y-79392451D01*
X62938385Y-79542823D01*
X62938386Y-79542827D01*
X62940210Y-79550225D01*
X63019266Y-79700852D01*
X63132071Y-79828183D01*
X63272070Y-79924818D01*
X63431128Y-79985140D01*
X63438695Y-79986058D01*
X63438696Y-79986059D01*
X63452223Y-79987701D01*
X63557628Y-80000500D01*
X63638563Y-80000500D01*
X63642372Y-80000500D01*
X63768872Y-79985140D01*
X63927930Y-79924818D01*
X64067929Y-79828183D01*
X64180734Y-79700852D01*
X64259790Y-79550225D01*
X64300500Y-79385056D01*
X64300500Y-79214944D01*
X64259790Y-79049775D01*
X64180734Y-78899148D01*
X64067929Y-78771817D01*
X63997929Y-78723499D01*
X63934205Y-78679513D01*
X63934202Y-78679511D01*
X63927930Y-78675182D01*
X63920803Y-78672479D01*
X63920799Y-78672477D01*
X63776000Y-78617563D01*
X63775998Y-78617562D01*
X63768872Y-78614860D01*
X63761310Y-78613941D01*
X63761303Y-78613940D01*
X63646155Y-78599959D01*
X63646149Y-78599958D01*
X63642372Y-78599500D01*
X63557628Y-78599500D01*
X63553851Y-78599958D01*
X63553844Y-78599959D01*
X63438696Y-78613940D01*
X63438687Y-78613942D01*
X63431128Y-78614860D01*
X63424003Y-78617561D01*
X63423999Y-78617563D01*
X63279200Y-78672477D01*
X63279193Y-78672480D01*
X63272070Y-78675182D01*
X63265800Y-78679509D01*
X63265794Y-78679513D01*
X63138345Y-78767486D01*
X63132071Y-78771817D01*
X63127019Y-78777518D01*
X63127016Y-78777522D01*
X63024318Y-78893444D01*
X63024313Y-78893450D01*
X63019266Y-78899148D01*
X63015727Y-78905889D01*
X63015724Y-78905895D01*
X62943753Y-79043024D01*
X62940210Y-79049775D01*
X62938387Y-79057169D01*
X62938385Y-79057176D01*
X62901322Y-79207548D01*
X62901321Y-79207555D01*
X62899500Y-79214944D01*
X62899500Y-79385056D01*
X40900500Y-79385056D01*
X40900500Y-76385056D01*
X62899500Y-76385056D01*
X62901321Y-76392445D01*
X62901322Y-76392451D01*
X62938385Y-76542823D01*
X62938386Y-76542827D01*
X62940210Y-76550225D01*
X63019266Y-76700852D01*
X63132071Y-76828183D01*
X63272070Y-76924818D01*
X63431128Y-76985140D01*
X63438695Y-76986058D01*
X63438696Y-76986059D01*
X63452223Y-76987701D01*
X63557628Y-77000500D01*
X63638563Y-77000500D01*
X63642372Y-77000500D01*
X63768872Y-76985140D01*
X63927930Y-76924818D01*
X64067929Y-76828183D01*
X64180734Y-76700852D01*
X64259790Y-76550225D01*
X64300500Y-76385056D01*
X64300500Y-76214944D01*
X64259790Y-76049775D01*
X64180734Y-75899148D01*
X64067929Y-75771817D01*
X63997929Y-75723499D01*
X63934205Y-75679513D01*
X63934202Y-75679511D01*
X63927930Y-75675182D01*
X63920803Y-75672479D01*
X63920799Y-75672477D01*
X63776000Y-75617563D01*
X63775998Y-75617562D01*
X63768872Y-75614860D01*
X63761310Y-75613941D01*
X63761303Y-75613940D01*
X63646155Y-75599959D01*
X63646149Y-75599958D01*
X63642372Y-75599500D01*
X63557628Y-75599500D01*
X63553851Y-75599958D01*
X63553844Y-75599959D01*
X63438696Y-75613940D01*
X63438687Y-75613942D01*
X63431128Y-75614860D01*
X63424003Y-75617561D01*
X63423999Y-75617563D01*
X63279200Y-75672477D01*
X63279193Y-75672480D01*
X63272070Y-75675182D01*
X63265800Y-75679509D01*
X63265794Y-75679513D01*
X63138345Y-75767486D01*
X63132071Y-75771817D01*
X63127019Y-75777518D01*
X63127016Y-75777522D01*
X63024318Y-75893444D01*
X63024313Y-75893450D01*
X63019266Y-75899148D01*
X63015727Y-75905889D01*
X63015724Y-75905895D01*
X62943753Y-76043024D01*
X62940210Y-76049775D01*
X62938387Y-76057169D01*
X62938385Y-76057176D01*
X62901322Y-76207548D01*
X62901321Y-76207555D01*
X62899500Y-76214944D01*
X62899500Y-76385056D01*
X40900500Y-76385056D01*
X40900500Y-70330000D01*
X44746844Y-70330000D01*
X44765436Y-70554368D01*
X44820704Y-70772616D01*
X44822797Y-70777389D01*
X44822799Y-70777393D01*
X44898147Y-70949170D01*
X44911140Y-70978791D01*
X45034278Y-71167268D01*
X45037806Y-71171100D01*
X45183227Y-71329069D01*
X45183231Y-71329073D01*
X45186760Y-71332906D01*
X45364424Y-71471189D01*
X45562426Y-71578342D01*
X45567355Y-71580034D01*
X45567357Y-71580035D01*
X45668895Y-71614893D01*
X45775365Y-71651444D01*
X45997431Y-71688500D01*
X46217358Y-71688500D01*
X46222569Y-71688500D01*
X46444635Y-71651444D01*
X46657574Y-71578342D01*
X46855576Y-71471189D01*
X47033240Y-71332906D01*
X47185722Y-71167268D01*
X47274518Y-71031354D01*
X47320030Y-70989457D01*
X47380000Y-70974271D01*
X47439970Y-70989457D01*
X47485481Y-71031354D01*
X47574278Y-71167268D01*
X47577806Y-71171100D01*
X47723227Y-71329069D01*
X47723231Y-71329073D01*
X47726760Y-71332906D01*
X47904424Y-71471189D01*
X48102426Y-71578342D01*
X48107355Y-71580034D01*
X48107357Y-71580035D01*
X48208895Y-71614893D01*
X48315365Y-71651444D01*
X48537431Y-71688500D01*
X48757358Y-71688500D01*
X48762569Y-71688500D01*
X48984635Y-71651444D01*
X49197574Y-71578342D01*
X49395576Y-71471189D01*
X49573240Y-71332906D01*
X49725722Y-71167268D01*
X49848860Y-70978791D01*
X49939296Y-70772616D01*
X49994564Y-70554368D01*
X50013156Y-70330000D01*
X49994564Y-70105632D01*
X49939296Y-69887384D01*
X49848860Y-69681209D01*
X49725722Y-69492732D01*
X49664956Y-69426723D01*
X49576772Y-69330930D01*
X49576767Y-69330925D01*
X49573240Y-69327094D01*
X49395576Y-69188811D01*
X49391002Y-69186336D01*
X49390995Y-69186331D01*
X49362320Y-69170814D01*
X49314048Y-69124498D01*
X49296289Y-69060000D01*
X49314048Y-68995502D01*
X49362320Y-68949186D01*
X49390990Y-68933671D01*
X49395576Y-68931189D01*
X49573240Y-68792906D01*
X49725722Y-68627268D01*
X49848860Y-68438791D01*
X49939296Y-68232616D01*
X49994564Y-68014368D01*
X50013156Y-67790000D01*
X49994564Y-67565632D01*
X49950088Y-67390000D01*
X58986673Y-67390000D01*
X58987103Y-67395189D01*
X59001656Y-67570827D01*
X59005949Y-67622626D01*
X59007230Y-67627684D01*
X59048333Y-67790000D01*
X59063251Y-67848907D01*
X59157016Y-68062669D01*
X59284686Y-68258083D01*
X59288214Y-68261915D01*
X59439247Y-68425981D01*
X59439252Y-68425985D01*
X59442780Y-68429818D01*
X59626983Y-68573190D01*
X59832273Y-68684287D01*
X60053049Y-68760080D01*
X60283288Y-68798500D01*
X60511501Y-68798500D01*
X60516712Y-68798500D01*
X60746951Y-68760080D01*
X60967727Y-68684287D01*
X61173017Y-68573190D01*
X61357220Y-68429818D01*
X61515314Y-68258083D01*
X61642984Y-68062669D01*
X61736749Y-67848907D01*
X61794051Y-67622626D01*
X61813327Y-67390000D01*
X61794051Y-67157374D01*
X61736749Y-66931093D01*
X61642984Y-66717331D01*
X61515314Y-66521917D01*
X61430157Y-66429412D01*
X61400921Y-66375809D01*
X61400318Y-66314752D01*
X61428493Y-66260582D01*
X61478827Y-66226019D01*
X61546204Y-66200889D01*
X61663261Y-66113261D01*
X61750889Y-65996204D01*
X61801989Y-65859201D01*
X61808500Y-65798638D01*
X61808500Y-63901362D01*
X61801989Y-63840799D01*
X61750889Y-63703796D01*
X61663261Y-63586739D01*
X61656049Y-63581340D01*
X61553417Y-63504510D01*
X61553414Y-63504508D01*
X61546204Y-63499111D01*
X61537766Y-63495964D01*
X61537763Y-63495962D01*
X61416580Y-63450763D01*
X61416578Y-63450762D01*
X61409201Y-63448011D01*
X61401373Y-63447169D01*
X61401367Y-63447168D01*
X61351988Y-63441860D01*
X61351985Y-63441859D01*
X61348638Y-63441500D01*
X59451362Y-63441500D01*
X59448015Y-63441859D01*
X59448011Y-63441860D01*
X59398632Y-63447168D01*
X59398625Y-63447169D01*
X59390799Y-63448011D01*
X59383423Y-63450761D01*
X59383419Y-63450763D01*
X59262236Y-63495962D01*
X59262230Y-63495965D01*
X59253796Y-63499111D01*
X59246588Y-63504506D01*
X59246582Y-63504510D01*
X59143950Y-63581340D01*
X59143946Y-63581343D01*
X59136739Y-63586739D01*
X59131343Y-63593946D01*
X59131340Y-63593950D01*
X59054510Y-63696582D01*
X59054506Y-63696588D01*
X59049111Y-63703796D01*
X59045965Y-63712230D01*
X59045962Y-63712236D01*
X59000763Y-63833419D01*
X59000761Y-63833423D01*
X58998011Y-63840799D01*
X58997169Y-63848625D01*
X58997168Y-63848632D01*
X58992468Y-63892357D01*
X58991500Y-63901362D01*
X58991500Y-65798638D01*
X58991859Y-65801985D01*
X58991860Y-65801988D01*
X58997168Y-65851367D01*
X58997169Y-65851373D01*
X58998011Y-65859201D01*
X59000762Y-65866578D01*
X59000763Y-65866580D01*
X59045962Y-65987763D01*
X59045964Y-65987766D01*
X59049111Y-65996204D01*
X59054508Y-66003414D01*
X59054510Y-66003417D01*
X59114014Y-66082904D01*
X59136739Y-66113261D01*
X59143950Y-66118659D01*
X59179496Y-66145269D01*
X59253796Y-66200889D01*
X59262236Y-66204037D01*
X59262238Y-66204038D01*
X59262241Y-66204039D01*
X59321172Y-66226019D01*
X59371506Y-66260582D01*
X59399681Y-66314752D01*
X59399079Y-66375808D01*
X59369842Y-66429412D01*
X59288214Y-66518084D01*
X59288211Y-66518087D01*
X59284686Y-66521917D01*
X59281838Y-66526275D01*
X59281835Y-66526280D01*
X59179759Y-66682520D01*
X59157016Y-66717331D01*
X59154923Y-66722101D01*
X59154921Y-66722106D01*
X59065344Y-66926320D01*
X59065341Y-66926326D01*
X59063251Y-66931093D01*
X59061973Y-66936137D01*
X59061971Y-66936145D01*
X59008898Y-67145728D01*
X59005949Y-67157374D01*
X59005519Y-67162562D01*
X59005518Y-67162569D01*
X58993849Y-67303393D01*
X58986673Y-67390000D01*
X49950088Y-67390000D01*
X49939296Y-67347384D01*
X49848860Y-67141209D01*
X49725722Y-66952732D01*
X49582525Y-66797180D01*
X49553288Y-66743576D01*
X49552685Y-66682520D01*
X49580859Y-66628350D01*
X49631191Y-66593786D01*
X49746204Y-66550889D01*
X49863261Y-66463261D01*
X49950889Y-66346204D01*
X50001989Y-66209201D01*
X50008500Y-66148638D01*
X50008500Y-64351362D01*
X50001989Y-64290799D01*
X49950889Y-64153796D01*
X49863261Y-64036739D01*
X49819713Y-64004139D01*
X49753417Y-63954510D01*
X49753414Y-63954508D01*
X49746204Y-63949111D01*
X49737766Y-63945964D01*
X49737763Y-63945962D01*
X49616580Y-63900763D01*
X49616578Y-63900762D01*
X49609201Y-63898011D01*
X49601373Y-63897169D01*
X49601367Y-63897168D01*
X49551988Y-63891860D01*
X49551985Y-63891859D01*
X49548638Y-63891500D01*
X47751362Y-63891500D01*
X47748015Y-63891859D01*
X47748011Y-63891860D01*
X47698632Y-63897168D01*
X47698625Y-63897169D01*
X47690799Y-63898011D01*
X47683423Y-63900761D01*
X47683419Y-63900763D01*
X47562236Y-63945962D01*
X47562230Y-63945965D01*
X47553796Y-63949111D01*
X47546588Y-63954506D01*
X47546582Y-63954510D01*
X47443950Y-64031340D01*
X47443946Y-64031343D01*
X47436739Y-64036739D01*
X47431343Y-64043946D01*
X47431340Y-64043950D01*
X47354510Y-64146582D01*
X47354506Y-64146588D01*
X47349111Y-64153796D01*
X47345964Y-64162231D01*
X47345960Y-64162240D01*
X47305000Y-64272057D01*
X47268468Y-64324095D01*
X47211178Y-64351671D01*
X47147717Y-64347761D01*
X47094244Y-64313361D01*
X47036772Y-64250931D01*
X47036771Y-64250930D01*
X47033240Y-64247094D01*
X46855576Y-64108811D01*
X46850997Y-64106333D01*
X46850994Y-64106331D01*
X46662159Y-64004139D01*
X46662156Y-64004137D01*
X46657574Y-64001658D01*
X46652650Y-63999967D01*
X46652642Y-63999964D01*
X46449565Y-63930248D01*
X46449559Y-63930246D01*
X46444635Y-63928556D01*
X46439498Y-63927698D01*
X46439495Y-63927698D01*
X46227706Y-63892357D01*
X46227703Y-63892356D01*
X46222569Y-63891500D01*
X45997431Y-63891500D01*
X45992297Y-63892356D01*
X45992293Y-63892357D01*
X45780504Y-63927698D01*
X45780498Y-63927699D01*
X45775365Y-63928556D01*
X45770443Y-63930245D01*
X45770434Y-63930248D01*
X45567357Y-63999964D01*
X45567344Y-63999969D01*
X45562426Y-64001658D01*
X45557847Y-64004135D01*
X45557840Y-64004139D01*
X45369005Y-64106331D01*
X45368997Y-64106336D01*
X45364424Y-64108811D01*
X45360313Y-64112010D01*
X45360311Y-64112012D01*
X45190878Y-64243888D01*
X45190872Y-64243893D01*
X45186760Y-64247094D01*
X45183237Y-64250919D01*
X45183227Y-64250930D01*
X45037806Y-64408899D01*
X45037802Y-64408902D01*
X45034278Y-64412732D01*
X45031430Y-64417090D01*
X45031427Y-64417095D01*
X44913992Y-64596843D01*
X44911140Y-64601209D01*
X44909048Y-64605978D01*
X44909046Y-64605982D01*
X44822799Y-64802606D01*
X44822796Y-64802614D01*
X44820704Y-64807384D01*
X44765436Y-65025632D01*
X44765006Y-65030820D01*
X44765005Y-65030827D01*
X44747909Y-65237147D01*
X44746844Y-65250000D01*
X44765436Y-65474368D01*
X44820704Y-65692616D01*
X44822797Y-65697389D01*
X44822799Y-65697393D01*
X44890338Y-65851367D01*
X44911140Y-65898791D01*
X45034278Y-66087268D01*
X45063176Y-66118659D01*
X45183227Y-66249069D01*
X45183231Y-66249073D01*
X45186760Y-66252906D01*
X45364424Y-66391189D01*
X45397680Y-66409186D01*
X45445950Y-66455499D01*
X45463710Y-66519996D01*
X45445953Y-66584494D01*
X45397683Y-66630811D01*
X45369005Y-66646331D01*
X45368997Y-66646336D01*
X45364424Y-66648811D01*
X45360313Y-66652010D01*
X45360311Y-66652012D01*
X45190878Y-66783888D01*
X45190872Y-66783893D01*
X45186760Y-66787094D01*
X45183237Y-66790919D01*
X45183227Y-66790930D01*
X45037806Y-66948899D01*
X45037802Y-66948902D01*
X45034278Y-66952732D01*
X45031430Y-66957090D01*
X45031427Y-66957095D01*
X44945483Y-67088643D01*
X44911140Y-67141209D01*
X44909048Y-67145978D01*
X44909046Y-67145982D01*
X44822799Y-67342606D01*
X44822796Y-67342614D01*
X44820704Y-67347384D01*
X44765436Y-67565632D01*
X44765006Y-67570820D01*
X44765005Y-67570827D01*
X44760713Y-67622626D01*
X44746844Y-67790000D01*
X44747274Y-67795189D01*
X44751306Y-67843854D01*
X44765436Y-68014368D01*
X44820704Y-68232616D01*
X44822797Y-68237389D01*
X44822799Y-68237393D01*
X44898147Y-68409170D01*
X44911140Y-68438791D01*
X45034278Y-68627268D01*
X45037806Y-68631100D01*
X45183227Y-68789069D01*
X45183231Y-68789073D01*
X45186760Y-68792906D01*
X45364424Y-68931189D01*
X45369002Y-68933666D01*
X45369009Y-68933671D01*
X45397680Y-68949187D01*
X45445951Y-68995503D01*
X45463710Y-69060000D01*
X45445951Y-69124497D01*
X45397680Y-69170813D01*
X45369009Y-69186328D01*
X45368993Y-69186338D01*
X45364424Y-69188811D01*
X45360313Y-69192010D01*
X45360311Y-69192012D01*
X45190878Y-69323888D01*
X45190872Y-69323893D01*
X45186760Y-69327094D01*
X45183237Y-69330919D01*
X45183227Y-69330930D01*
X45037806Y-69488899D01*
X45037802Y-69488902D01*
X45034278Y-69492732D01*
X45031430Y-69497090D01*
X45031427Y-69497095D01*
X44945483Y-69628643D01*
X44911140Y-69681209D01*
X44909048Y-69685978D01*
X44909046Y-69685982D01*
X44822799Y-69882606D01*
X44822796Y-69882614D01*
X44820704Y-69887384D01*
X44765436Y-70105632D01*
X44765006Y-70110820D01*
X44765005Y-70110827D01*
X44747909Y-70317147D01*
X44746844Y-70330000D01*
X40900500Y-70330000D01*
X40900500Y-60232744D01*
X40900501Y-60232744D01*
X40900092Y-60228116D01*
X40901802Y-60140371D01*
X40911364Y-60094627D01*
X40916064Y-60083279D01*
X40920178Y-60074355D01*
X40944555Y-60026507D01*
X40956847Y-60007025D01*
X40974686Y-59983776D01*
X40985532Y-59971408D01*
X41021408Y-59935532D01*
X41033776Y-59924686D01*
X41057025Y-59906847D01*
X41076507Y-59894555D01*
X41124355Y-59870178D01*
X41133279Y-59866064D01*
X41156819Y-59856315D01*
X41185316Y-59848280D01*
X41262522Y-59836059D01*
X41265771Y-59835589D01*
X41274665Y-59834419D01*
X41291099Y-59833343D01*
X65164404Y-59833343D01*
X65182896Y-59834708D01*
G37*
%TD.AperFunction*%
%TA.AperFunction,NonConductor*%
G36*
X47268469Y-66175904D02*
G01*
X47305000Y-66227943D01*
X47345959Y-66337757D01*
X47345963Y-66337765D01*
X47349111Y-66346204D01*
X47354508Y-66353414D01*
X47354510Y-66353417D01*
X47430928Y-66455499D01*
X47436739Y-66463261D01*
X47443950Y-66468659D01*
X47541464Y-66541658D01*
X47553796Y-66550889D01*
X47562235Y-66554036D01*
X47562236Y-66554037D01*
X47668806Y-66593786D01*
X47719140Y-66628350D01*
X47747314Y-66682520D01*
X47746711Y-66743576D01*
X47717474Y-66797180D01*
X47577806Y-66948899D01*
X47577802Y-66948902D01*
X47574278Y-66952732D01*
X47571430Y-66957090D01*
X47571427Y-66957095D01*
X47485483Y-67088643D01*
X47439969Y-67130542D01*
X47380000Y-67145728D01*
X47320031Y-67130542D01*
X47274517Y-67088643D01*
X47188572Y-66957095D01*
X47185722Y-66952732D01*
X47124956Y-66886723D01*
X47036772Y-66790930D01*
X47036767Y-66790925D01*
X47033240Y-66787094D01*
X46855576Y-66648811D01*
X46851002Y-66646336D01*
X46850995Y-66646331D01*
X46822320Y-66630814D01*
X46774048Y-66584498D01*
X46756289Y-66520000D01*
X46774048Y-66455502D01*
X46822320Y-66409186D01*
X46850995Y-66393668D01*
X46850994Y-66393668D01*
X46855576Y-66391189D01*
X47033240Y-66252906D01*
X47078227Y-66204038D01*
X47094244Y-66186639D01*
X47147716Y-66152238D01*
X47211178Y-66148328D01*
X47268469Y-66175904D01*
G37*
%TD.AperFunction*%
%TA.AperFunction,NonConductor*%
G36*
X47439968Y-68449457D02*
G01*
X47485481Y-68491354D01*
X47574278Y-68627268D01*
X47577806Y-68631100D01*
X47723227Y-68789069D01*
X47723231Y-68789073D01*
X47726760Y-68792906D01*
X47904424Y-68931189D01*
X47909002Y-68933666D01*
X47909009Y-68933671D01*
X47937680Y-68949187D01*
X47985951Y-68995503D01*
X48003710Y-69060000D01*
X47985951Y-69124497D01*
X47937680Y-69170813D01*
X47909009Y-69186328D01*
X47908993Y-69186338D01*
X47904424Y-69188811D01*
X47900313Y-69192010D01*
X47900311Y-69192012D01*
X47730878Y-69323888D01*
X47730872Y-69323893D01*
X47726760Y-69327094D01*
X47723237Y-69330919D01*
X47723227Y-69330930D01*
X47577806Y-69488899D01*
X47577802Y-69488902D01*
X47574278Y-69492732D01*
X47571430Y-69497090D01*
X47571427Y-69497095D01*
X47485483Y-69628643D01*
X47439969Y-69670542D01*
X47380000Y-69685728D01*
X47320031Y-69670542D01*
X47274517Y-69628643D01*
X47188572Y-69497095D01*
X47185722Y-69492732D01*
X47124956Y-69426723D01*
X47036772Y-69330930D01*
X47036767Y-69330925D01*
X47033240Y-69327094D01*
X46855576Y-69188811D01*
X46851002Y-69186336D01*
X46850995Y-69186331D01*
X46822320Y-69170814D01*
X46774048Y-69124498D01*
X46756289Y-69060000D01*
X46774048Y-68995502D01*
X46822320Y-68949186D01*
X46850990Y-68933671D01*
X46855576Y-68931189D01*
X47033240Y-68792906D01*
X47185722Y-68627268D01*
X47274521Y-68491349D01*
X47320029Y-68449458D01*
X47379998Y-68434271D01*
X47439968Y-68449457D01*
G37*
%TD.AperFunction*%
M02*
