<?xml version="1.0" encoding="UTF-8" standalone="no"?>
<svg
   id="Layer_1"
   viewBox="0 0 344.46098 573.73928"
   version="1.1"
   sodipodi:docname="HAS4_bug.svg"
   width="344.46097"
   height="573.73926"
   inkscape:version="1.2 (dc2aeda, 2022-05-15)"
   xml:space="preserve"
   xmlns:inkscape="http://www.inkscape.org/namespaces/inkscape"
   xmlns:sodipodi="http://sodipodi.sourceforge.net/DTD/sodipodi-0.dtd"
   xmlns:xlink="http://www.w3.org/1999/xlink"
   xmlns="http://www.w3.org/2000/svg"
   xmlns:svg="http://www.w3.org/2000/svg"><sodipodi:namedview
     id="namedview23"
     pagecolor="#ffffff"
     bordercolor="#000000"
     borderopacity="0.25"
     inkscape:showpageshadow="2"
     inkscape:pageopacity="0.0"
     inkscape:pagecheckerboard="0"
     inkscape:deskcolor="#d1d1d1"
     showgrid="false"
     inkscape:zoom="1.3714089"
     inkscape:cx="-55.052873"
     inkscape:cy="310.99404"
     inkscape:window-width="1800"
     inkscape:window-height="1097"
     inkscape:window-x="0"
     inkscape:window-y="44"
     inkscape:window-maximized="0"
     inkscape:current-layer="layer4" /><defs
     id="defs4"><style
       id="style2">.cls-1{fill:#061934;}</style><style
       id="style464">.cls-1{fill:#061934;mix-blend-mode:screen;}.cls-2{isolation:isolate;}</style><rect
       id="SVGID_1_"
       width="728.22998"
       height="190.57001"
       x="0"
       y="0" /><rect
       id="rect282"
       width="728.22998"
       height="190.57001"
       x="0"
       y="0" /></defs><g
     inkscape:groupmode="layer"
     id="layer7"
     inkscape:label="Edge.Cuts"
     transform="translate(-32.104831,-20.246236)"><path
       style="fill:none;stroke:#000000;stroke-width:1;stroke-linecap:square;stroke-dasharray:none;stroke-dashoffset:0;paint-order:stroke markers fill"
       d="m 201.25288,21.146136 c -24.45703,2.177464 -48.75419,12.443231 -68.54265,26.979553 -15.60224,11.461182 -26.80105,28.43054 -36.458853,45.208961 -9.084074,15.78168 -13.966499,33.67812 -19.546462,51.01149 -5.624994,17.47326 -4.251767,37.70415 -13.99569,53.26086 -5.94756,9.49561 -20.470781,11.87365 -25.521193,21.87532 -4.50392,8.91941 -6.488484,20.87721 -2.187532,29.89625 8.793817,18.44052 41.428841,16.60345 50.313221,35.00051 8.366929,17.32556 -9.000897,39.12514 -3.645885,57.60498 3.342329,11.53419 15.539476,18.54758 21.146134,29.16709 6.38925,12.10181 11.81174,25.11479 13.85436,38.64638 2.32606,15.40928 -2.47657,31.12623 -2.08335,46.70513 0.31388,12.4356 0.50827,25.0862 3.54171,37.15024 3.21432,12.78341 8.98207,24.89727 15.31272,36.45886 5.95805,10.88113 12.62644,21.60811 21.14613,30.62544 9.51616,10.072 19.94677,20.37695 32.81298,25.52119 15.87697,6.34802 34.56497,9.67263 51.04239,5.10424 16.0678,-4.45483 30.33563,-16.3839 40.10475,-29.89626 12.15887,-16.8178 15.77796,-38.68223 19.68777,-59.06335 5.59585,-29.17008 -5.4473,-61.19502 5.10425,-88.9596 4.73331,-12.45489 13.63034,-24.07825 24.79202,-31.35461 11.35866,-7.40477 30.23622,-0.1924 39.37557,-10.20849 9.13054,-10.00643 10.29634,-27.08343 6.56259,-40.10474 -5.90428,-20.59093 -40.04164,-26.99339 -42.40713,-48.28309 -1.52214,-13.6995 17.03426,-22.79851 19.80262,-36.30144 2.05957,-10.04573 1.94576,-21.59689 -2.91669,-30.62545 -6.06575,-11.26285 -23.53905,-12.96189 -29.89626,-24.06284 -6.59379,-11.51406 -5.27194,-26.11901 -5.83342,-39.37557 -0.65956,-15.57216 5.00778,-31.2221 2.91671,-46.66733 C 313.62995,90.921017 309.35178,74.868889 300.42097,61.980054 292.16126,50.059743 279.97548,40.499824 266.87883,34.271324 246.73256,24.690172 223.47352,19.167783 201.25288,21.146136 Z"
       id="path1989"
       sodipodi:nodetypes="aaaaaaaaaaaaaaaaaaaaaaaaaaaaaaaa" /></g><g
     inkscape:groupmode="layer"
     id="layer6"
     inkscape:label="B.Mask"
     transform="translate(-32.104831,-20.246236)" /><g
     inkscape:groupmode="layer"
     id="layer5"
     inkscape:label="F.Mask"
     transform="translate(-32.104831,-20.246236)" /><g
     inkscape:groupmode="layer"
     id="layer4"
     inkscape:label="B.SilkS"
     transform="translate(-32.104831,-20.246236)"><path
       class="cls-1"
       d="m 189.27847,129.53798 c -1.50921,4.57039 -2.36643,9.33531 -2.9436,14.10452 -0.0962,0.79094 -0.81019,1.4237 -1.60541,1.42798 -0.0321,0 -0.0663,0 -0.10047,-0.002 -1.03678,-0.062 -1.49639,-0.98761 -1.51563,-1.93888 -0.0406,-2.13771 0.36555,-4.38228 0.9128,-6.58411 -1.28262,0.30783 -2.54599,0.72895 -3.75379,1.19711 -2.89231,1.12015 -5.53022,2.8752 -7.65509,5.13902 -0.4425,0.47029 -0.87218,0.97051 -1.43226,1.29544 -1.54555,0.89356 -3.65973,-0.75461 -2.36216,-2.34291 4.16211,-5.09841 10.26736,-7.34512 13.86297,-8.27502 -2.27024,-2.58234 -4.39083,-5.29935 -6.34469,-8.12966 -1.34461,-1.94957 -6.77221,-8.02277 -4.25614,-10.293 2.48827,-2.24458 3.86494,1.55197 4.65162,3.3519 2.12273,4.85899 5.08985,9.28829 8.62559,13.22165 0.0278,-0.0983 0.0577,-0.19881 0.0834,-0.29714 1.10946,-3.94405 2.52676,-7.81328 4.46137,-11.43026 0.60925,-1.14152 2.21679,-3.78799 3.80723,-2.68708 1.90682,1.32109 -0.93417,4.32456 -1.62678,5.60717 -1.14367,2.11846 -2.06074,4.35235 -2.81535,6.63755 z m -14.904,0.11971 c 0.86576,0.14109 2.26595,0.53656 2.23389,1.63534 -0.015,0.5558 -0.33135,1.25696 -0.82302,1.54983 -0.0171,0.0107 -0.0363,0.0214 -0.0534,0.0299 -1.17146,0.57931 -2.64861,0.17101 -3.87351,0.007 -1.64816,-0.22018 -3.3177,-0.29928 -4.98083,-0.29928 -1.96454,0 -3.5443,-3.33267 -0.0941,-3.46521 1.70161,0 3.3797,0.0171 5.07489,0.20095 0.84012,0.0919 1.68236,0.20735 2.51821,0.34416 z m 32.64474,31.46901 c 0.67551,-0.25438 1.41729,-0.26721 2.13556,-0.20521 2.85595,0.24796 5.53663,1.05174 8.14675,2.22961 0.37837,0.17102 0.75889,0.35699 1.04748,0.65413 0.40616,0.41472 0.59641,1.0432 0.44891,1.60328 -0.1475,0.5622 -0.64131,1.02609 -1.21848,1.10091 -0.10689,0.0128 -0.21377,0.015 -0.31852,0.007 -0.29714,-0.0235 -0.59428,-0.11757 -0.87859,-0.21377 -1.39164,-0.46174 -2.76832,-1.05602 -4.21127,-1.33392 -1.47714,-0.28431 -2.97353,-0.45318 -4.47633,-0.48526 -0.37409,-0.009 -0.75674,-0.009 -1.10732,-0.13894 -1.77216,-0.65627 -0.91921,-2.71274 0.42967,-3.22151 z m -61.0932,-0.94913 c 1.5648,-0.34417 3.10821,-0.76957 4.63025,-1.26552 0.6349,-0.20735 1.26552,-0.43182 1.89186,-0.66269 -0.0941,-0.64986 -0.18384,-1.30185 -0.25225,-1.95812 -0.1026,-0.99617 -0.41684,-2.36857 0.33349,-3.20013 0.18384,-0.20308 0.4425,-0.3228 0.70116,-0.41258 2.13555,-0.7311 3.42245,0.30141 3.60201,2.49255 0.0321,0.40616 0.0556,0.81447 0.077,1.22276 0.77385,-0.35913 1.54129,-0.73109 2.30016,-1.11801 1.84911,-0.94486 3.65333,-1.97737 5.4041,-3.09324 1.16077,-0.73965 3.27922,-2.86024 4.64948,-2.33437 0.75247,0.29073 1.14154,1.09022 0.85936,1.85339 -0.17529,0.47243 -0.52801,0.85507 -0.88928,1.20566 -2.86879,2.78541 -6.50287,4.58749 -10.09206,6.25275 -0.72254,0.33562 -1.43012,0.69475 -2.13556,1.06458 -0.0128,3.07828 -0.20522,6.17152 -0.38692,9.21346 -0.28645,4.82264 -0.85081,9.65384 -2.14197,14.32042 -0.19881,0.71827 -0.84867,1.18856 -1.55839,1.18856 -0.14322,0 -0.28645,-0.0192 -0.43181,-0.0577 -0.86149,-0.23728 -1.36812,-1.1287 -1.1287,-1.9902 1.46432,-5.38057 2.10991,-11.0134 2.04363,-16.58424 -0.015,-1.35956 -0.15605,-2.69135 -0.34203,-4.01458 -0.88714,0.4425 -1.78711,0.86149 -2.71701,1.21848 -2.08425,0.80164 -4.83333,1.84056 -7.0095,0.82516 -0.40616,-0.18813 -0.75888,-0.45534 -1.0325,-0.82302 -0.4703,-0.63276 -0.54512,-1.57548 -0.062,-2.19755 0.75461,-0.96837 2.57592,-0.9021 3.68324,-1.1458 z m 17.90748,5.75895 c -1.09877,1.56693 -3.15951,2.92222 -3.26426,5.01503 -0.0299,0.62207 0.26721,1.30613 0.8508,1.52418 0,0 0.88928,0.62634 2.34933,-0.16674 1.19924,-0.64986 4.08727,-5.80812 15.07716,-8.68332 l 2.26809,8.84579 c -0.33133,0.59855 -0.63488,1.22062 -0.89569,1.86834 -0.50022,1.24842 -1.49852,4.44854 0.062,7.19334 1.13938,2.00088 3.52077,3.24289 6.21855,3.24289 5.4212,-0.009 13.85227,-4.53192 17.03957,-10.57518 1.1287,-2.1377 1.62251,-4.59391 1.01113,-6.96675 -0.35272,-1.36599 -1.63748,-4.81409 -3.64476,-3.44597 -0.73751,0.50237 -0.92991,1.50922 -0.42541,2.24886 1.38736,2.03295 1.45149,4.27326 0.19666,6.65465 -1.1287,2.13982 -3.15737,4.10009 -5.44256,5.62641 -0.0128,0.007 -0.0214,0.0128 -0.0342,0.0192 -3.53362,2.07143 -8.58926,3.59347 -10.35499,-0.85294 -0.17958,-0.45106 -0.18172,-0.93845 -0.10903,-1.41087 0.36127,-2.36216 2.04364,-4.38228 3.62981,-6.06679 1.77642,-1.88545 3.58919,-3.72386 5.57084,-5.39554 1.76145,-1.48784 3.73241,-2.68922 5.48745,-4.17706 1.85766,-1.57334 3.48017,-3.41817 4.60888,-5.58794 0.50877,-0.97905 1.14152,-2.46262 0.77384,-4.0381 -0.32921,-1.41516 -1.44081,-2.64647 -2.97353,-3.29633 -2.94788,-1.24841 -7.11853,-0.52159 -9.91891,1.72513 -0.82515,0.66268 -1.47715,1.42156 -1.94103,2.24244 -0.33348,-0.46388 -0.67979,-0.95128 -1.08808,-1.55197 -0.77599,-1.14367 -2.75335,-0.79736 -2.88589,0.64986 -0.0385,0.42326 0.0748,0.84652 0.22873,1.24413 0.70117,1.79994 2.20396,3.01415 3.27068,4.56826 0.63917,0.9299 2.03508,0.92135 2.64005,-0.0214 0.5216,-0.81233 0.33989,-1.88973 0.7375,-2.75549 0.6691,-1.45578 2.06288,-2.31086 3.59133,-2.65288 2.21679,-0.22232 5.55587,-0.14323 4.58963,2.56737 -1.84697,3.42245 -4.99579,5.54091 -8.33701,7.7748 -1.62678,1.08809 -3.31129,2.21465 -4.86112,3.51651 -1.08381,0.91066 -2.26595,1.9624 -3.40107,3.16592 -0.46816,-1.25268 -1.14153,-3.08255 -1.8769,-5.18604 1.31469,-0.23942 2.7277,-0.44251 4.23478,-0.60925 0.12399,-0.0107 0.24583,-0.0235 0.36768,-0.0427 0.0321,-0.004 0.062,-0.009 0.0941,-0.0107 v -0.0107 c 0.52374,-0.0983 1.0154,-0.29714 1.37882,-0.66269 1.00044,-1.00899 0.38692,-2.60371 -0.99831,-2.70418 -0.0727,-0.004 -0.20522,0 -0.38051,0.015 -2.06501,0.077 -3.9526,0.23942 -5.66917,0.45961 -0.16033,-0.0235 -0.26293,-0.0641 -0.28217,-0.12613 -0.7995,-2.42842 -1.55625,-4.87609 -2.19542,-7.35153 -0.28218,-1.0945 -0.54297,-2.19755 -0.74606,-3.3113 -0.14749,-0.81018 -0.0791,-1.73581 -0.47243,-2.48399 -0.41257,-0.78454 -1.41301,-1.11802 -2.18685,-0.64772 -1.00259,0.60924 -1.31683,2.20182 -1.75292,3.20867 -0.60497,1.39592 -1.27406,2.7619 -1.98378,4.10438 -1.40019,2.6486 -2.95857,5.20742 -4.5255,7.75769 -1.15863,1.88545 -2.36857,3.7367 -3.63836,5.54946 z m 12.01812,-13.99122 2.01798,7.86458 c -0.29714,0.077 -0.59213,0.15392 -0.88073,0.23943 -3.06118,0.69047 -5.32927,1.537 -6.89192,2.2574 2.47758,-4.00604 4.42075,-7.6615 5.75681,-10.36141 z m 36.40709,28.78407 c -0.71186,0.82515 -1.27621,1.74222 -0.94059,2.86237 0.25867,0.86363 0.99831,1.51562 1.89186,1.64389 0.82729,0.11971 2.05646,-0.33989 2.54814,-1.06457 3.1702,-4.66445 6.37674,-7.88168 9.37593,-10.09206 0.094,-0.0663 0.18812,-0.13468 0.28004,-0.19881 0.047,-0.0342 0.0962,-0.0684 0.14322,-0.10047 1.62893,-1.10946 3.24289,-1.93675 4.77347,-2.55241 0.4703,0.98334 3.62126,6.90048 3.99109,7.68288 0.84225,1.78284 3.06973,4.77989 5.43615,3.31129 1.76574,-1.09664 0.14965,-3.30488 0.14965,-3.30488 -0.0534,-0.0705 -2.78543,-3.63408 -5.71407,-8.88854 2.45835,-0.54511 4.38014,-0.57503 5.28652,-0.54511 0.19026,0.009 0.38052,0.0192 0.5729,0.0342 1.57976,0.11971 2.27452,-1.94958 1.07099,-2.91582 -0.947,-0.75888 -3.10821,-0.40829 -4.23691,-0.34417 -0.10475,0.007 -0.48098,0.0577 -0.96838,0.12827 -0.76956,0.0898 -1.50921,0.20094 -2.21252,0.33134 -0.66695,0.10047 -1.17359,0.17529 -1.17787,0.16888 -2.34718,-4.69438 -4.51694,-10.26735 -5.22024,-15.78047 -0.11117,-0.87218 -0.8957,-1.49852 -1.77429,-1.40447 -0.87432,0.0919 -1.51562,0.86577 -1.44294,1.74223 0.0449,0.55366 0.0192,1.11801 -0.002,1.67167 -0.0577,1.42157 -0.20308,2.83886 -0.43181,4.24333 -1.35743,8.33701 -5.51311,16.37261 -10.92576,22.81348 -0.15605,0.18599 -0.31424,0.37196 -0.47457,0.55581 z m 16.62486,-12.72143 c -4.22195,1.50494 -6.36392,3.36901 -6.36392,3.36901 1.93247,-4.03169 3.1018,-7.69143 3.8051,-10.75688 0.65627,2.54813 1.57334,5.05993 2.55882,7.38787 z m 20.13923,-30.00683 c 1.02182,0.30356 2.02867,0.652 3.0227,1.03465 l -1.98592,10.72054 c -0.16247,0.87859 0.41685,1.72299 1.29544,1.88544 0.0983,0.0192 0.19881,0.0278 0.29714,0.0278 0.7653,0 1.44508,-0.54512 1.58831,-1.32324 l 1.85124,-10.00014 c 1.0432,0.49809 2.06501,1.03465 3.06545,1.61397 1.23987,0.7204 2.83032,0.29928 3.54858,-0.94273 0.76957,-1.31468 0.21377,-3.0398 -1.17573,-3.65973 -1.43653,-0.67551 -2.89017,-1.26125 -4.35235,-1.7636 l 1.65031,-5.38486 c 0.81873,-3.22791 -3.99109,-4.1685 -4.44641,-0.8679 l -0.41472,4.7072 -0.10474,0.56008 c -3.20227,-0.81446 -6.43661,-1.23773 -9.65383,-1.28689 -0.14751,-2.71915 -0.41686,-5.3079 -0.73751,-7.65295 -0.19667,-2.24672 -0.48739,-4.48488 -0.86149,-6.70382 -0.29287,-1.69305 -0.60069,-3.27281 -1.0432,-4.97227 -0.92989,-3.04622 -5.38699,-1.57549 -4.29676,1.43867 1.14153,3.14882 2.0928,6.39598 2.83031,9.69445 0.3634,2.49254 0.67765,5.31003 0.84438,8.27501 -0.87432,0.0556 -1.7465,0.13254 -2.6144,0.24156 -2.7961,0.10048 -5.50884,0.45961 -8.11897,1.08595 -0.59641,0.14323 -3.47375,-10.34644 -3.75165,-11.43026 -0.37196,-1.46004 -0.71399,-2.92864 -1.02396,-4.40151 -0.23514,-1.1287 -0.66482,-4.69866 -2.47972,-4.2305 -2.03295,0.52373 -1.90469,3.92909 -1.94103,5.50029 -0.1133,4.92098 -0.89783,9.47854 -2.92223,13.99549 -1.95386,4.35876 -4.6217,8.36267 -7.4627,12.18486 -0.51091,0.68834 -0.39761,1.65671 0.26081,2.2061 0.30141,0.25225 0.67123,0.37624 1.03678,0.37624 0.43181,0 0.86363,-0.17315 1.18,-0.51091 4.44641,-4.73927 9.55764,-8.0356 15.28238,-9.86546 0.10903,0.22446 0.22233,0.4425 0.33562,0.66482 0.33562,0.76957 0.68193,1.53487 1.05389,2.28948 1.17787,2.30442 2.57592,4.53618 4.24546,6.64822 1.91538,2.30017 5.36776,-0.41898 3.56568,-2.82175 -1.88331,-1.75291 -3.56568,-3.73456 -5.07061,-5.85942 -0.32707,-0.57718 -0.64345,-1.16719 -0.947,-1.77429 3.00987,-0.65841 6.1758,-0.93204 9.49136,-0.8337 0.062,5.05992 -0.38906,10.36354 -1.82772,15.15626 -0.25653,0.85508 0.22873,1.75932 1.0838,2.01585 0.15392,0.047 0.31211,0.0684 0.46603,0.0684 0.69688,0 1.33819,-0.45319 1.54982,-1.15436 1.52632,-5.08558 2.03082,-10.61793 1.99234,-15.87024 2.03508,0.20735 3.95473,0.53014 5.69268,0.9192 z M 226.07463,135.624 c -2.97782,0.98761 -5.81026,2.33223 -8.47169,4.02956 2.01371,-3.74525 4.10651,-8.37336 5.33783,-13.18745 0.80163,2.85383 1.83628,6.04327 3.13386,9.15789 z m -35.6076,-2.44339 c -0.0406,-0.28645 -0.0406,-0.57289 0.0192,-0.8679 0.26507,-1.35316 1.57548,-2.23389 2.9265,-1.97096 1.35103,0.26508 2.23389,1.57335 1.97096,2.92438 -1.1287,5.79529 5.93638,8.56788 10.28873,5.84018 4.11079,-2.57593 6.93041,-8.5572 6.41736,-13.61499 -0.26935,-2.66356 -1.80208,-5.79102 -4.79272,-6.12022 -2.19755,-0.2437 -4.21553,1.06671 -5.41691,2.83672 -0.38266,0.56435 -0.69262,1.19284 -1.19712,1.65244 -0.50449,0.45961 -1.29116,0.70758 -1.87475,0.357 -0.44037,-0.26507 -0.64559,-0.78667 -0.79736,-1.27835 -0.54298,-1.76787 -0.75247,-3.63835 -0.61566,-5.48532 0.0428,-0.56436 0.15178,-1.1907 0.60283,-1.53273 0.57504,-0.43395 1.45577,-0.16674 1.92393,0.38051 0.46815,0.54725 0.62848,1.2869 0.77598,1.99233 2.51821,-1.47287 5.48747,-2.65501 8.30495,-1.894 9.81629,2.64861 6.67388,17.10157 1.71229,22.62965 -6.57555,7.33015 -19.06824,4.67514 -20.24398,-5.85087 z"
       id="path468"
       style="display:inline;isolation:isolate;stroke-width:0.21377"
       inkscape:label="HAS logo" /><g
       id="g398"
       transform="matrix(-0.29341289,0,0,0.29341289,305.78082,203.32479)"
       inkscape:label="Aerospace Village logo"><g
         id="g290"><g
           id="layer3-3"
           inkscape:label="world segments"><path
             class="st2"
             d="m 111.9,97.22 c -1.28,21.11 -14.44,39.82 -26.33,54.64 26.33,-4.63 46.63,-27.04 48.27,-54.64 z"
             clip-path="url(#SVGID_2_)"
             id="path3425"
             style="fill:none;fill-opacity:1"
             inkscape:label="segment 8"
             transform="translate(-0.0060924)" /><path
             class="st2"
             d="M 133.85,89.82 C 132.2,62.22 111.91,39.82 85.58,35.18 97.46,50 110.62,68.7 111.9,89.82 Z"
             clip-path="url(#SVGID_2_)"
             id="path3421"
             style="fill:none;fill-opacity:1"
             inkscape:label="segment 7"
             transform="translate(-0.0060924)" /><path
             class="st2"
             d="m 79.17,97.22 v 50.93 c 11.7,-14.63 23.95,-31.86 25.42,-50.93 z"
             clip-path="url(#SVGID_2_)"
             id="path3419"
             style="fill:none;fill-opacity:1"
             inkscape:label="segment 6"
             transform="translate(-0.0060924)" /><path
             class="st2"
             d="m 79.17,89.82 h 25.42 C 103.13,70.56 90.88,53.52 79.17,38.89 Z"
             clip-path="url(#SVGID_2_)"
             id="path3423"
             style="fill:none;fill-opacity:1"
             inkscape:label="segment 5"
             transform="translate(-0.0060924)" /><path
             class="st2"
             d="M 71.86,97.22 H 46.44 c 1.46,19.08 13.71,36.3 25.42,50.93 z"
             clip-path="url(#SVGID_2_)"
             id="path3427"
             style="fill:none;fill-opacity:1"
             inkscape:label="segment 4"
             transform="translate(-0.0060924)" /><path
             class="st2"
             d="M 71.86,89.82 V 38.88 C 60.16,53.52 47.9,70.74 46.44,89.82 Z"
             clip-path="url(#SVGID_2_)"
             id="path3429"
             style="fill:none;fill-opacity:1"
             inkscape:label="segment 3"
             transform="translate(-0.0060924)" /><path
             class="st2"
             d="M 65.46,151.86 C 53.57,137.04 40.59,118.34 39.13,97.22 H 17.19 c 1.64,27.6 21.94,50.01 48.27,54.64"
             clip-path="url(#SVGID_2_)"
             id="path3431"
             style="fill:none;fill-opacity:1"
             inkscape:label="segment 2"
             transform="translate(-0.0060924)" /><path
             class="st2"
             d="M 65.46,35.18 C 39.13,39.81 18.83,62.22 17.19,89.82 H 39.13 C 40.41,68.7 53.57,50 65.46,35.18"
             clip-path="url(#SVGID_2_)"
             id="path3433"
             style="fill:none;fill-opacity:1"
             inkscape:label="segment 1"
             transform="translate(-0.0060924)" /></g><g
           id="g3439"
           transform="translate(-0.0060924)"
           inkscape:label="lines">
	<defs
   id="defs3386">
		<rect
   id="rect370"
   width="728.22998"
   height="190.57001"
   x="0"
   y="0" />
	</defs>
	<clipPath
   id="SVGID_2_">
		<use
   xlink:href="#SVGID_1_"
   style="overflow:visible"
   id="use3388" />
	</clipPath>
	
	
	
	
	
	
	
	
	
	
	
	
	
	
	
	
	
	
	
	
	
	
	<path
   class="st1"
   d="m 75.52,23.14 c -38.4,0 -69.49,31.49 -69.49,70.38 0,38.89 31.09,70.38 69.49,70.38 38.4,0 69.48,-31.49 69.48,-70.38 0,-38.89 -31.08,-70.38 -69.48,-70.38 m 10.05,12.04 c 26.33,4.63 46.63,27.04 48.27,54.64 H 111.9 C 110.62,68.7 97.46,50 85.57,35.18 m 19.02,54.64 H 79.17 V 38.88 c 11.71,14.64 23.96,31.67 25.42,50.94 m -25.42,7.4 h 25.42 c -1.46,19.08 -13.71,36.3 -25.42,50.93 z m 6.4,54.64 c 11.89,-14.82 25.05,-33.52 26.33,-54.64 h 21.94 c -1.64,27.6 -21.94,50.01 -48.27,54.64 M 39.13,97.22 c 1.46,21.11 14.45,39.82 26.33,54.64 C 39.13,147.23 18.83,124.82 17.19,97.22 Z M 17.19,89.82 C 18.84,62.22 39.13,39.82 65.46,35.18 53.57,50 40.41,68.7 39.13,89.82 Z m 29.25,7.4 h 25.42 v 50.93 C 60.16,133.52 47.9,116.3 46.44,97.22 m 25.42,-7.4 H 46.44 C 47.9,70.74 60.15,53.52 71.86,38.89 Z"
   clip-path="url(#SVGID_2_)"
   id="path3435"
   style="fill:#000000;fill-opacity:1"
   inkscape:label="world and lat/long" />
	<path
   class="st3"
   d="m 145.3,30.57 -6.56,-7.82 -1.99,27.74 21.26,-17.93 -10.35,-0.72 c 2.52,-5.01 4.76,-10.2 6.21,-15.85 0.44,-1.76 0.78,-3.59 0.87,-5.54 0.08,-1.93 -0.01,-4.07 -1.17,-6.29 -0.34,-0.54 -0.61,-1.1 -1.11,-1.56 l -0.7,-0.71 C 151.5,1.68 151.22,1.51 150.94,1.33 150.66,1.15 150.37,0.97 150.08,0.82 L 149.2,0.5 c -0.61,-0.24 -1.2,-0.35 -1.77,-0.41 -2.32,-0.27 -4.4,0.07 -6.24,0.6 -7.45,2.17 -13.33,6.2 -19.16,10.23 -5.76,4.11 -11.21,8.54 -16.47,13.16 -20.88,18.66 -39.31,39.65 -56.22,61.75 -8.35,11.13 -16.49,22.45 -23.81,34.33 -7.32,11.87 -14.29,24.02 -19.67,37.11 -1.34,3.28 -2.61,6.59 -3.65,10.04 -1.05,3.45 -1.89,7 -2.17,10.85 -0.08,1.95 -0.06,3.97 0.53,6.16 0.2,0.56 0.41,1.12 0.64,1.66 0.3,0.55 0.66,1.1 1.02,1.63 0.45,0.49 0.94,0.98 1.45,1.4 0.56,0.4 1.14,0.72 1.75,0.96 2.48,0.92 4.72,0.61 6.64,0.18 1.95,-0.45 3.67,-1.19 5.32,-1.99 3.28,-1.63 6.24,-3.59 9.09,-5.66 2.85,-2.06 5.56,-4.28 8.17,-6.58 5.25,-4.57 10.14,-9.5 14.85,-14.57 -5.36,4.37 -10.83,8.59 -16.44,12.54 -5.63,3.86 -11.42,7.68 -17.51,10.07 -1.51,0.57 -3.04,1.04 -4.48,1.27 -1.44,0.24 -2.8,0.16 -3.55,-0.24 -0.72,-0.38 -1.1,-0.96 -1.37,-2.15 -0.22,-1.18 -0.17,-2.64 0.01,-4.13 0.99,-6.1 3.6,-12.44 6.45,-18.49 2.87,-6.09 6.24,-12 9.65,-17.89 3.44,-5.87 7.08,-11.64 10.86,-17.33 7.62,-11.34 15.5,-22.53 23.9,-33.34 C 65.4,80.84 73.95,70.13 82.99,59.87 92,49.62 101.22,39.5 111.12,30.15 c 4.89,-4.73 9.94,-9.29 15.21,-13.48 2.64,-2.08 5.34,-4.07 8.11,-5.88 2.75,-1.81 5.62,-3.47 8.46,-4.46 1.42,-0.55 2.82,-0.79 3.94,-0.75 1.12,0.08 1.72,0.35 2.28,1.14 0.56,0.81 0.84,2.24 0.9,3.73 0.07,1.5 -0.06,3.11 -0.31,4.73 -0.83,5.14 -2.51,10.3 -4.41,15.39"
   clip-path="url(#SVGID_2_)"
   id="path3437"
   style="fill:#000000;fill-opacity:1"
   inkscape:label="around path" />
</g></g><g
         id="layer4-8"
         inkscape:label="text"><g
           inkscape:groupmode="layer"
           id="layer2-0"
           inkscape:label="Village text"><polygon
             class="st1"
             points="552.13,174.16 552.13,166.03 514.51,166.03 514.51,153.94 545.33,153.94 545.33,146.47 514.51,146.47 514.51,134.94 552.13,134.94 552.13,126.71 504.21,126.71 504.21,174.16 "
             clip-path="url(#SVGID_2_)"
             id="polygon38"
             inkscape:label="E-3"
             style="fill:#000000;fill-opacity:1" /><path
             class="st1"
             d="m 465.36,148.93 v 7.65 h 16.35 c -3.31,7.37 -12.76,9.55 -20.13,9.55 -12.67,0 -22.02,-5.96 -22.02,-16.07 0,-11.91 12.48,-15.41 22.12,-15.41 9.55,0 16.92,2.55 23.53,5.67 v -9.17 c -6.62,-3.31 -15.03,-5.2 -24.01,-5.2 -16.54,0 -32.7,7.66 -32.7,24.39 0,15.97 15.22,24.76 32.51,24.76 17.11,0 32.33,-8.22 32.33,-23.63 0,-1.13 -0.1,-1.7 -0.1,-2.55 h -27.88 z"
             clip-path="url(#SVGID_2_)"
             id="path36"
             inkscape:label="G"
             style="fill:#000000;fill-opacity:1" /><polygon
             class="st1"
             points="384.24,166.13 410.15,166.13 415.45,174.16 426.98,174.16 394.09,125.96 361.19,174.16 372.73,174.16 394.09,141.55 404.67,157.72 389.77,157.72 "
             clip-path="url(#SVGID_2_)"
             id="polygon40"
             inkscape:label="A-3"
             style="fill:#000000;fill-opacity:1" /><polygon
             class="st1"
             points="359.01,165.28 324.42,165.28 324.42,126.71 314.12,126.71 314.12,174.16 359.01,174.16 "
             clip-path="url(#SVGID_2_)"
             id="polygon34"
             inkscape:label="L-2"
             style="fill:#000000;fill-opacity:1" /><polygon
             class="st1"
             points="303.81,165.28 269.22,165.28 269.22,126.71 258.91,126.71 258.91,174.16 303.81,174.16 "
             clip-path="url(#SVGID_2_)"
             id="polygon32"
             inkscape:label="L-1"
             style="fill:#000000;fill-opacity:1" /><rect
             x="232.53999"
             y="126.71"
             class="st1"
             width="10.3"
             height="47.450001"
             clip-path="url(#SVGID_2_)"
             id="rect30"
             inkscape:label="I"
             style="fill:#000000;fill-opacity:1" /><polygon
             class="st1"
             points="224.6,126.71 212.5,126.71 192.46,158.85 172.71,126.71 160.51,126.71 192.46,175.11 "
             clip-path="url(#SVGID_2_)"
             id="polygon28"
             inkscape:label="V"
             style="fill:#000000;fill-opacity:1" /></g><g
           inkscape:groupmode="layer"
           id="layer1-2"
           inkscape:label="Aerospace text"><polygon
             class="st1"
             points="690.62,57.95 721.43,57.95 721.43,50.48 690.62,50.48 690.62,38.95 728.24,38.95 728.24,30.73 680.31,30.73 680.31,78.18 728.24,78.18 728.24,70.05 690.62,70.05 "
             clip-path="url(#SVGID_2_)"
             id="polygon24"
             inkscape:label="E-2"
             style="fill:#000000;fill-opacity:1" /><path
             class="st1"
             d="m 611.31,54.55 c 0,15.79 13.14,24.58 34.21,24.58 8.41,0 15.5,-1.42 21.83,-4.25 V 65.7 c -4.25,2.36 -12.38,4.44 -21.36,4.44 -15.03,0 -23.63,-5.86 -23.63,-15.6 0,-9.73 8.7,-15.59 23.35,-15.59 9.45,0 17.01,2.36 21.65,5.1 v -9.74 c -6.33,-2.93 -13.33,-4.35 -21.83,-4.35 -21.08,0.01 -34.22,8.8 -34.22,24.59"
             clip-path="url(#SVGID_2_)"
             id="path22"
             inkscape:label="C"
             style="fill:#000000;fill-opacity:1" /><polygon
             class="st1"
             points="566.95,70.14 592.87,70.14 598.17,78.18 609.7,78.18 576.81,29.97 543.91,78.18 555.45,78.18 576.81,45.57 587.39,61.73 572.48,61.73 "
             clip-path="url(#SVGID_2_)"
             id="polygon26"
             inkscape:label="A-2"
             style="fill:#000000;fill-opacity:1" /><path
             class="st1"
             d="m 527.27,30.73 h -32.61 v 47.45 h 10.3 V 62.96 h 22.31 c 13.61,0 18.71,-8.79 18.71,-16.16 0.01,-7.37 -5.1,-16.07 -18.71,-16.07 M 525.1,53.98 H 504.97 V 39.71 h 20.13 c 8.41,0 9.92,3.97 9.92,7.09 0,3.21 -1.51,7.18 -9.92,7.18"
             clip-path="url(#SVGID_2_)"
             id="path20-4"
             inkscape:label="P"
             style="fill:#000000;fill-opacity:1" /><path
             class="st1"
             d="m 442.01,44.15 c 0,-4.63 8.41,-5.58 16.73,-5.58 8.7,0 15.31,1.04 19.57,2.27 l 0.47,-8.6 c -3.21,-0.85 -12.1,-2.27 -21.74,-2.27 -10.68,0 -25.24,1.7 -25.24,14.56 0,21.55 40.73,9.07 40.73,19.75 0,5.1 -8.88,6.24 -18.71,6.24 -7.94,0 -14.93,-0.66 -22.4,-1.99 l -0.38,8.6 c 6.99,1.23 16.07,1.98 24.2,1.98 13.33,0 27.41,-2.08 27.41,-15.22 0.01,-22.01 -40.64,-9.91 -40.64,-19.74"
             clip-path="url(#SVGID_2_)"
             id="path18-8"
             inkscape:label="S"
             style="fill:#000000;fill-opacity:1" /><path
             class="st1"
             d="m 388.79,29.97 c -18.43,0 -33.27,9.17 -33.27,24.57 0,15.22 14.84,24.57 33.27,24.57 18.52,0 33.27,-9.36 33.27,-24.57 0,-15.4 -14.74,-24.57 -33.27,-24.57 m 0,40.08 c -12.85,0 -22.21,-5.95 -22.21,-15.5 0,-9.73 9.36,-15.5 22.21,-15.5 12.85,0 22.21,5.77 22.21,15.5 0,9.55 -9.36,15.5 -22.21,15.5"
             clip-path="url(#SVGID_2_)"
             id="path16-3"
             inkscape:label="O"
             style="fill:#000000;fill-opacity:1" /><path
             class="st1"
             d="m 346.06,46.99 c 0,-7.37 -5.11,-16.26 -18.72,-16.26 h -32.42 v 47.45 h 10.3 V 63.34 h 20.32 l 10.02,14.84 h 11.53 L 336.13,61.83 c 7.1,-2.84 9.93,-9.08 9.93,-14.84 m -20.22,7.27 H 305.23 V 39.9 h 20.61 c 7.84,0 9.17,3.97 9.17,7.09 0,3.4 -1.33,7.27 -9.17,7.27"
             clip-path="url(#SVGID_2_)"
             id="path14-9"
             inkscape:label="R"
             style="fill:#000000;fill-opacity:1" /><polygon
             class="st0"
             points="244.54,57.95 275.36,57.95 275.36,50.48 244.54,50.48 244.54,38.95 282.16,38.95 282.16,30.73 234.24,30.73 234.24,78.18 282.16,78.18 282.16,70.05 244.54,70.05 "
             id="polygon6"
             inkscape:label="E-1"
             style="fill:#000000;fill-opacity:1" /><polygon
             class="st0"
             points="177.24,70.14 177.3,70.14 182.83,61.73 182.82,61.73 193.41,45.57 203.99,61.73 189.18,61.73 183.65,70.14 209.47,70.14 214.77,78.18 226.3,78.18 193.41,29.97 160.51,78.18 172.04,78.18 "
             id="polygon4"
             inkscape:label="A-1"
             style="fill:#000000;fill-opacity:1" /></g></g></g><g
       id="g691"
       transform="matrix(-9.0779873,0,0,9.0779873,277.74167,417.83034)"
       inkscape:label="DC31 logo"><g
         id="layer2-4"
         inkscape:label="F.SilkS"
         style="display:inline"><g
           inkscape:groupmode="layer"
           id="layer3-1"
           inkscape:label="D letter"
           transform="translate(-26.817024,-78.533292)"><path
             style="display:inline;fill:#000000;fill-opacity:1;stroke:#000000;stroke-width:0.07754;stroke-linejoin:bevel;stroke-dasharray:none;paint-order:stroke markers fill"
             d="m 27.449815,84.902671 0.109425,0.06253 v 0.594024 l 0.28138,0.21885 0.01563,1.719539 1.180229,-0.68 0.234483,-0.343907 0.01563,-2.188505 -0.195402,-0.125058 -1.21931,0.672184 0.01563,0.687816 -0.148505,-0.06253 -0.0078,-0.633104 -0.265747,-0.171954 1.789885,-1.055172 0.375172,0.203219 -0.0078,2.790343 -0.289195,0.468966 -1.844597,1.047356 z"
             id="path16190" /><path
             style="color:#000000;fill:#000000;stroke-linejoin:bevel;-inkscape-stroke:none;paint-order:stroke markers fill"
             d="m 26.816406,84.558594 0.01563,3.189453 0.01953,0.0332 0.640625,0.375 0.03906,-0.06641 -0.621094,-0.365235 -0.01563,-3.166015 z"
             id="path16192" /><path
             style="display:inline;fill:none;fill-opacity:1;stroke:#000000;stroke-width:0.07754;stroke-linejoin:bevel;stroke-dasharray:none;paint-order:stroke markers fill"
             d="m 29.263148,83.6052 -0.594023,-0.367356 -1.805517,1.047356 0.638951,0.384898"
             id="path16194"
             sodipodi:nodetypes="cccc" /><path
             style="color:#000000;fill:#000000;stroke-linejoin:bevel;-inkscape-stroke:none;paint-order:stroke markers fill"
             d="m 28.599609,84.455078 0.0059,1.685547 -0.179688,0.279297 -0.5625,0.308594 0.03906,0.06836 0.568359,-0.314453 0.01367,-0.01172 0.193359,-0.296875 0.0059,-0.02148 -0.0059,-1.697266 z"
             id="path16200" /><path
             style="fill:none;fill-opacity:1;stroke:#000000;stroke-width:0.07754;stroke-linejoin:bevel;stroke-dasharray:none;paint-order:stroke markers fill"
             d="m 28.458412,86.443259 0.569913,0.372247"
             id="path16202"
             sodipodi:nodetypes="cc" /><path
             style="fill:none;fill-opacity:1;stroke:#000000;stroke-width:0.07754;stroke-linejoin:bevel;stroke-dasharray:none;paint-order:stroke markers fill"
             d="m 28.667706,86.146759 0.593168,0.34889"
             id="path16204"
             sodipodi:nodetypes="cc" /></g><g
           inkscape:groupmode="layer"
           id="layer7-3"
           inkscape:label="C letter"
           transform="translate(-26.817024,-78.533292)"><path
             style="color:#000000;fill:#000000;stroke-linejoin:bevel;-inkscape-stroke:none;paint-order:stroke markers fill"
             d="m 35.310547,82.029297 -0.04102,0.06641 0.427735,0.265625 0.0078,0.314453 0.07617,-0.002 -0.0078,-0.333984 -0.01758,-0.0332 z"
             id="path16269" /><path
             style="fill:#000000;fill-opacity:1;stroke:#000000;stroke-width:0.07754;stroke-linejoin:bevel;stroke-dasharray:none;paint-order:stroke markers fill"
             d="m 35.356659,82.911631 0.0084,0.126017 0.352848,-0.201627 V 82.6848 Z"
             id="path16267"
             inkscape:label="path16267" /><path
             style="color:#000000;fill:#000000;stroke-linejoin:bevel;-inkscape-stroke:none;paint-order:stroke markers fill"
             d="m 34.943359,85.271484 -0.474609,0.259766 0.03711,0.06836 0.455078,-0.25 0.701172,0.390625 0.03711,-0.06836 -0.71875,-0.400391 z"
             id="path16265" /><path
             style="fill:#000000;fill-opacity:1;stroke:#000000;stroke-width:0.07754;stroke-linejoin:bevel;stroke-dasharray:none;paint-order:stroke markers fill"
             d="m 34.15602,85.142775 0.02268,1.859489 -0.06803,0.03024 -0.6803,-0.408181 -0.01512,-1.867048 0.0508,-1.90606 0.0097,1.913619 0.0076,1.836813 0.604712,0.34015 -0.0076,-1.829253 z"
             id="path16263"
             inkscape:label="path16263"
             sodipodi:nodetypes="ccccccccccc" /><path
             style="fill:#000000;fill-opacity:1;stroke:#000000;stroke-width:0.07754;stroke-linejoin:bevel;stroke-dasharray:none;stroke-opacity:1;paint-order:stroke markers fill"
             d="m 35.497258,82.45315 -1.404818,0.79021 0.03991,1.636293 0.223493,0.183585 0.008,1.803913 1.340962,-0.758282 0.008,-0.391114 -0.06386,-0.03991 -1.141414,0.638554 v -2.8256 l 0.630572,-0.33524 0.05587,-0.359186 0.359186,-0.215512 z"
             id="path16261"
             inkscape:label="path16261" /><path
             style="color:#000000;fill:#000000;stroke-linejoin:bevel;-inkscape-stroke:none;paint-order:stroke markers fill"
             d="m 34.039062,82.478516 -0.603515,0.351562 v 0.06641 l 0.65039,0.394532 0.04102,-0.06641 -0.59375,-0.361328 0.544922,-0.318359 z"
             id="path16279" /></g><g
           inkscape:groupmode="layer"
           id="layer8"
           inkscape:label="N letter"
           transform="translate(-26.817024,-78.533292)"><path
             style="display:inline;fill:#000000;fill-opacity:1;stroke:#000000;stroke-width:0.07754;stroke-linejoin:bevel;stroke-dasharray:none;paint-order:stroke markers fill"
             d="m 39.774757,80.073699 -0.02024,0.769058 1.568475,2.084555 0.414888,-0.222623 -0.242862,-0.344052 0.01012,-0.890489 0.222622,-0.404768 0.01012,-2.094674 -0.404768,0.212503 0.02024,2.90421 z"
             id="path16283" /><path
             style="display:inline;fill:#000000;fill-opacity:1;stroke:#000000;stroke-width:0.07754;stroke-linejoin:bevel;stroke-dasharray:none;paint-order:stroke markers fill"
             d="m 39.380109,80.276083 0.04696,3.781732 0.388166,-0.250133 0.03036,-2.438726 -0.333934,-0.485721 0.02024,-0.667867 z"
             id="path16281"
             inkscape:label="path16281"
             sodipodi:nodetypes="ccccccc" /><path
             style="color:#000000;fill:#000000;stroke-linejoin:bevel;-inkscape-stroke:none;paint-order:stroke markers fill"
             d="m 39.126953,79.646484 -0.384766,0.242188 -0.01758,0.0332 -0.0098,0.71875 0.07617,0.002 0.0098,-0.699219 0.345703,-0.21875 0.63086,0.394532 0.04102,-0.06641 -0.65039,-0.40625 z"
             id="path16289" /><path
             style="color:#000000;fill:#000000;stroke-linejoin:bevel;-inkscape-stroke:none;paint-order:stroke markers fill"
             d="m 38.783203,79.878906 -0.03906,0.06641 0.65625,0.384766 0.03906,-0.06641 z"
             id="path16291" /><path
             style="color:#000000;fill:#000000;stroke-linejoin:bevel;-inkscape-stroke:none;paint-order:stroke markers fill"
             d="m 39.037109,83.753906 -0.04102,0.06641 0.423828,0.263672 0.04102,-0.06641 z"
             id="path16293" /><path
             style="color:#000000;fill:#000000;stroke-linejoin:bevel;-inkscape-stroke:none;paint-order:stroke markers fill"
             d="m 39.859375,81.423828 -0.06055,0.04883 0.865234,1.113281 0.01172,0.0098 0.626953,0.369141 0.03906,-0.06641 -0.621094,-0.365234 z"
             id="path16295" /><path
             style="color:#000000;fill:#000000;stroke-linejoin:bevel;-inkscape-stroke:none;paint-order:stroke markers fill"
             d="m 41.048828,78.533203 -0.394531,0.253906 -0.01758,0.03125 0.0078,2.394532 h 0.07813 l -0.0078,-2.373047 0.355468,-0.228516 0.626954,0.402344 0.04102,-0.06641 -0.646484,-0.414063 z"
             id="path16297" /><path
             style="fill:none;fill-opacity:1;stroke:#000000;stroke-width:0.07754;stroke-linejoin:bevel;stroke-dasharray:none;paint-order:stroke markers fill"
             d="M 41.343233,79.213567 40.675366,78.818918"
             id="path16299" /><path
             style="fill:#000000;fill-opacity:1;stroke:#000000;stroke-width:0.07754;stroke-linejoin:bevel;stroke-dasharray:none;paint-order:stroke markers fill"
             d="m 41.67381,81.577767 -0.0052,0.725911 0.10967,0.13056 -0.0052,-1.002697 z"
             id="path16301" /></g><g
           inkscape:groupmode="layer"
           id="layer6-7"
           inkscape:label="F letter 2 lines"
           transform="translate(-26.817024,-78.533292)"><path
             style="fill:none;fill-opacity:1;stroke:#000000;stroke-width:0.07754;stroke-linejoin:bevel;stroke-dasharray:none;paint-order:stroke markers fill"
             d="m 35.636546,79.931175 -0.64982,-0.340335 -1.541271,0.93052 0.612807,0.350617"
             id="path16246"
             sodipodi:nodetypes="cccc" /><path
             style="fill:#000000;fill-opacity:1;stroke:#000000;stroke-width:0.07754;stroke-linejoin:bevel;stroke-dasharray:none;paint-order:stroke markers fill"
             d="m 34.295776,80.742424 0.13675,0.100764 0.511016,-0.287896 0.244711,0.129553 0.475028,-0.287896 -0.0072,-0.475028 -0.13675,0.04318 z"
             id="path16244" /><path
             style="fill:#000000;fill-opacity:1;stroke:#000000;stroke-width:0.07754;stroke-linejoin:bevel;stroke-dasharray:none;paint-order:stroke markers fill"
             d="m 34.447725,81.079792 -0.381912,0.243469 -0.0035,-0.45073 z"
             id="path16251"
             sodipodi:nodetypes="cccc" /><path
             style="color:#000000;fill:#000000;stroke-linejoin:bevel;-inkscape-stroke:none;paint-order:stroke markers fill"
             d="m 33.417969,80.490234 -0.02148,0.445313 0.01953,0.03516 0.580078,0.34375 -0.570313,0.347656 v 0.06641 l 0.621094,0.367187 0.03906,-0.06641 -0.566406,-0.333985 0.570313,-0.347656 v -0.06641 l -0.615235,-0.365234 0.02148,-0.423829 z"
             id="path16253" /><path
             style="color:#000000;fill:#000000;stroke-linejoin:bevel;-inkscape-stroke:none;paint-order:stroke markers fill"
             d="m 34.986328,80.753906 -0.03711,0.002 -0.535157,0.304688 0.03906,0.06641 0.515625,-0.294922 0.667969,0.365235 0.03711,-0.06836 z"
             id="path16255" /><path
             style="fill:#000000;fill-opacity:1;stroke:#000000;stroke-width:0.07754;stroke-linejoin:bevel;stroke-dasharray:none;paint-order:stroke markers fill"
             d="m 34.065813,82.063214 v 0.458293 l 1.599253,-0.892717 -0.0095,-0.491711 z"
             id="path16259" /><path
             style="color:#000000;fill:#000000;stroke-linejoin:bevel;-inkscape-stroke:none;paint-order:stroke markers fill"
             d="m 33.441406,82.085937 -0.04102,0.06641 0.646484,0.384765 0.03906,-0.06641 z"
             id="path16277" /></g><g
           inkscape:groupmode="layer"
           id="layer4-88"
           inkscape:label="E letter 3"
           transform="translate(-26.817024,-78.533292)"
           style="display:inline"><path
             style="fill:#000000;fill-opacity:1;stroke:#000000;stroke-width:0.07754;stroke-linejoin:bevel;stroke-dasharray:none;paint-order:stroke markers fill"
             d="m 29.623929,86.20446 0.607435,0.346793"
             id="path16219"
             sodipodi:nodetypes="cc" /><path
             style="color:#000000;fill:#000000;stroke-linejoin:bevel;-inkscape-stroke:none;paint-order:stroke markers fill"
             d="M 31.361328,84.388672 V 84.75 l 0.01758,0.0332 0.597656,0.388672 0.04297,-0.06445 -0.582031,-0.376953 v -0.341797 z"
             id="path16223" /><path
             style="fill:none;fill-opacity:1;stroke:#000000;stroke-width:0.07754;stroke-linejoin:bevel;stroke-dasharray:none;paint-order:stroke markers fill"
             d="M 30.234314,85.032395 29.652792,84.680356"
             id="path16225"
             sodipodi:nodetypes="cc" /><path
             style="color:#000000;fill:#000000;stroke-linejoin:bevel;-inkscape-stroke:none;paint-order:stroke markers fill"
             d="m 31.378906,84.716797 -1.767578,1.039062 v 0.06641 l 0.599609,0.351562 0.03906,-0.06641 -0.542969,-0.31836 1.712891,-1.005859 z"
             id="path16221" /><path
             style="color:#000000;fill:#000000;stroke-linejoin:bevel;-inkscape-stroke:none;paint-order:stroke markers fill"
             d="m 31.378906,83.1875 -1.761719,1.021484 -0.002,0.06641 0.623047,0.388671 0.04102,-0.06445 -0.56836,-0.355468 1.707032,-0.990235 z"
             id="path16227" /><path
             style="color:#000000;fill:#000000;stroke-linejoin:bevel;-inkscape-stroke:none;paint-order:stroke markers fill"
             d="m 31.427734,82.824219 -0.07813,0.002 0.0059,0.394531 0.01953,0.0332 0.615234,0.367188 0.03906,-0.06641 -0.597656,-0.357421 z"
             id="path16229" /><path
             style="color:#000000;fill:#000000;stroke-linejoin:bevel;-inkscape-stroke:none;paint-order:stroke markers fill"
             d="m 29.576172,82.705078 -0.0059,0.417969 0.01953,0.0332 0.646484,0.363281 0.03711,-0.06836 -0.625,-0.351563 0.0059,-0.394531 z"
             id="path16231" /><path
             style="color:#000000;fill:#000000;fill-opacity:1;stroke:none;stroke-width:0.05;stroke-linejoin:bevel;stroke-dasharray:none;stroke-opacity:1;paint-order:stroke markers fill"
             d="m 31.726562,81.451172 -2.136718,1.232422 v 0.06836 l 0.648437,0.373047 0.03906,-0.06836 -0.589844,-0.339844 2.056641,-1.1875 0.609375,0.361328 0.03906,-0.06641 -0.626953,-0.373047 z"
             id="path16233" /></g><g
           inkscape:groupmode="layer"
           id="layer5-3"
           inkscape:label="F letter 1"
           style="display:inline"
           transform="translate(-26.817024,-78.533292)"><path
             style="color:#000000;fill:#000000;stroke-linejoin:bevel;-inkscape-stroke:none;paint-order:stroke markers fill"
             d="m 32.748047,80.857422 -0.390625,0.1875 -0.02148,0.03516 0.0098,0.828125 0.07813,-0.002 -0.0098,-0.802734 0.347657,-0.167969 0.638672,0.390625 0.03906,-0.06641 -0.654297,-0.400391 z"
             id="path16236" /><path
             style="fill:#000000;fill-opacity:1;stroke:#000000;stroke-width:0.078;stroke-linejoin:bevel;stroke-dasharray:none;paint-order:stroke markers fill"
             d="M 33.042433,81.455103 32.418034,81.095376"
             id="path16242"
             sodipodi:nodetypes="cc" /></g><g
           inkscape:label="O letter"
           inkscape:groupmode="layer"
           id="layer1-8"
           transform="translate(-26.817024,-78.533292)"><path
             style="color:#000000;fill:#000000;stroke-linejoin:bevel;-inkscape-stroke:none;paint-order:stroke markers fill"
             d="m 38.064453,80.240234 -2.291016,1.337891 -0.01953,0.0332 V 83.9082 l 0.01953,0.0332 0.66211,0.375 h 0.03711 l 2.308594,-1.326172 0.01953,-0.03516 -0.01172,-2.318359 -0.01953,-0.0332 -0.667969,-0.363282 z m 0.01953,0.07813 0.583985,0.31836 -2.22461,1.310547 -0.570312,-0.335938 z m 0.626953,0.382813 0.01172,2.232422 -2.230469,1.283203 v -2.207031 z m -2.878906,0.976562 0.583985,0.341797 v 2.197266 L 35.83203,83.884771 Z"
             id="path15456" /></g></g><g
         id="layer9"
         inkscape:label="F.Mask"
         style="display:inline"><path
           style="fill:#000000;fill-opacity:1;stroke:#000000;stroke-width:0.07754;stroke-linejoin:bevel;stroke-dasharray:none;paint-order:stroke markers fill"
           d="m 30.431431,82.928418 0.06489,0.05407 1.113887,-0.62183 -0.0054,0.362284 0.405541,-0.25414 0.02704,1.103073 -1.795196,1.021963 -0.0028,0.45775 1.781742,-1.05795 v 1.097665 l -0.05407,0.02704 0.118959,0.0757 v 0.335248 l 0.319026,-0.205475 -0.02704,-3.449803 z"
           id="path16215"
           sodipodi:nodetypes="cccccccccccccccc"
           transform="translate(-26.817024,-78.533292)" /><path
           style="display:inline;fill:#000000;fill-opacity:1;stroke:#000000;stroke-width:0.07754;stroke-linejoin:bevel;stroke-dasharray:none;paint-order:stroke markers fill"
           d="m 33.421728,84.196011 -0.01884,0.530103 -0.368642,0.195163 -0.602838,-0.333946 -0.0094,-0.135439 0.573224,0.34795 z"
           id="path16240"
           inkscape:label="path16240"
           sodipodi:nodetypes="ccccccc"
           transform="translate(-26.817024,-78.533292)" /><path
           style="fill:#000000;fill-opacity:1;stroke:#000000;stroke-width:0.07754;stroke-linejoin:bevel;stroke-dasharray:none;paint-order:stroke markers fill"
           d="m 31.896787,85.626619 -1.640907,0.958905 -0.0029,-0.466848 1.519428,-0.881377 0.113552,0.07029 z"
           id="path16217"
           sodipodi:nodetypes="cccccc"
           transform="translate(-26.817024,-78.533292)" /><path
           style="fill:#000000;fill-opacity:1;stroke:#000000;stroke-width:0.07754;stroke-linejoin:bevel;stroke-dasharray:none;paint-order:stroke markers fill"
           d="m 30.243497,83.076343 v 0.415674 l 1.159513,-0.692791 0.0073,-0.131265 -0.926152,0.532355 z"
           id="path16213"
           transform="translate(-26.817024,-78.533292)" /><path
           style="display:inline;fill:#000000;fill-opacity:1;stroke:#000000;stroke-width:0.07754;stroke-linejoin:bevel;stroke-dasharray:none;paint-order:stroke markers fill"
           d="m 33.019401,84.455326 0.02937,-2.995533 0.362206,-0.195787 -0.0098,1.360716 -0.156629,0.07831 v 1.409662 z"
           id="path16238"
           transform="translate(-26.817024,-78.533292)" /><path
           style="fill:#000000;fill-opacity:1;stroke:#000000;stroke-width:0.07754;stroke-linejoin:bevel;stroke-dasharray:none;paint-order:stroke markers fill"
           d="m 36.865221,82.392806 0.0032,0.325212 0.277852,-0.15787 v -0.334685 z"
           id="path11011"
           transform="translate(-26.817024,-78.533292)" /><path
           style="fill:#000000;fill-opacity:1;stroke:#000000;stroke-width:0.07754;stroke-linejoin:bevel;stroke-dasharray:none;paint-order:stroke markers fill"
           d="m 38.030304,81.732908 0.0063,0.322055 0.277852,-0.154713 0.0032,-0.32837 z"
           id="path11013"
           transform="translate(-26.817024,-78.533292)" /><path
           style="fill:#000000;fill-opacity:1;stroke:#000000;stroke-width:0.07754;stroke-linejoin:bevel;stroke-dasharray:none;paint-order:stroke markers fill"
           d="m 36.855749,83.178999 v 0.410462 l 1.537656,-0.874601 v -0.385203 l -0.148398,0.09472 0.0032,0.19576 -1.24086,0.710416 -0.0032,-0.239963 z"
           id="path11015"
           transform="translate(-26.817024,-78.533292)" /><path
           style="fill:#000000;fill-opacity:1;stroke:#000000;stroke-width:0.07754;stroke-linejoin:bevel;stroke-dasharray:none;paint-order:stroke markers fill"
           d="m 37.642875,84.27066 0.347585,-0.588223 0.61496,-0.374323 -0.142599,-0.115862 0.329761,-0.187161 v 0.40106 l -0.704084,0.374324 -0.320849,0.552572 z"
           id="path13265"
           sodipodi:nodetypes="ccccccccc"
           transform="translate(-26.817024,-78.533292)" /><path
           style="fill:#000000;fill-opacity:1;stroke:#000000;stroke-width:0.07754;stroke-linejoin:bevel;stroke-dasharray:none;paint-order:stroke markers fill"
           d="m 35.817804,84.646498 v 0.311403 l 0.564871,0.318646 v -0.304162 z"
           id="path13259"
           transform="translate(-26.817024,-78.533292)"
           inkscape:label="path13259" /><path
           style="fill:#000000;fill-opacity:1;stroke:#000000;stroke-width:0.07754;stroke-linejoin:bevel;stroke-dasharray:none;paint-order:stroke markers fill"
           d="m 35.832288,85.146192 v 0.318645 l 0.55763,0.325887 0.869033,-0.470725 0.362096,-0.615566 -0.144838,-0.07966 -0.311404,0.586597 -0.760404,0.405549 -0.0072,-0.144839 z"
           id="path13261"
           transform="translate(-26.817024,-78.533292)" /><path
           style="fill:#000000;fill-opacity:1;stroke:#000000;stroke-width:0.07754;stroke-linejoin:bevel;stroke-dasharray:none;paint-order:stroke markers fill"
           d="m 35.810562,84.154046 0.0072,0.304161 0.572113,0.33313 0.796614,-0.441759 0.955936,0.514178 0.651775,-0.376581 v -0.304162 l -0.4562,-0.296919 -0.0072,0.267952 0.347613,0.2245 -0.528662,0.289677 -0.926968,-0.506936 -0.840066,0.463485 -0.0072,-0.159322 z"
           id="path11803"
           transform="translate(-26.817024,-78.533292)" /><path
           style="fill:#000000;fill-opacity:1;stroke:#000000;stroke-width:0.07754;stroke-linejoin:bevel;stroke-dasharray:none;paint-order:stroke markers fill"
           d="m 38.794242,83.929545 -0.253468,-0.15208 0.253468,-0.152081 z"
           id="path13263"
           transform="translate(-26.817024,-78.533292)" /></g></g><g
       inkscape:groupmode="layer"
       id="layer10"
       inkscape:label="pin circles"
       style="display:inline"
       transform="translate(32.104831,20.246236)" /></g><g
     inkscape:groupmode="layer"
     id="layer3"
     inkscape:label="F.SilkS"
     style="display:inline"
     transform="translate(-32.104831,-20.246236)"><path
       class="cls-1"
       d="m 242.1398,564.67132 c -4.2,-0.65 -8.52,-3.46 -10.51,-8.09 -4.46,-10.43 -3.66,-22.33 -5.2,-33.34 -2.61,-18.63 -4.38,-37.37 -5.82,-56.12 -1.86,-24.06 -3.17,-48.15 -5.05,-72.21 -0.96,-12.36 -1.25,-25.31 -3.52,-37.51 -1.74,-9.35 -5.42,-19.94 0.35,-28.79 4.6,-7.05 15.09,-9.42 22.27,-5.03 9.38,5.74 10.59,18.81 9.35,29.74 -1.83,16.22 -5.41,31.71 -6.05,48.11 -1.98,50.41 6.23,102.63 14.3,152.27 1.39,8.54 -4.25,11.89 -10.12,10.98 z"
       id="path6" /><path
       class="cls-1"
       d="m 143.9398,493.80132 c -1.89,0 -3.79,-0.52 -5.46,-1.55 -3.51,-2.17 -5.4,-6.2 -4.82,-10.28 4.93,-35.13 11.04,-69.3 1.9,-104.37 -2.97,-11.39 -8.32,-27.02 2.31,-36.12 6.09,-5.21 19.01,-6.98 24.8,-0.41 5.65,6.43 2.64,20.96 2,28.71 -0.92,11.25 -2.61,22.42 -3.56,33.66 -0.82,9.66 -1.55,19.32 -2.19,28.99 -0.62,9.36 -2.83,20.51 -1.33,29.71 8.25,-2.82 16.37,-8.87 24.28,-12.86 9.79,-4.94 19.78,-9.5 30,-13.49 12.64,-4.93 25.63,-9.17 39.01,-11.55 8.67,-1.54 28.48,-6.54 34.13,3.14 2.18,3.74 1.74,8.83 -1.05,12.14 -4.6,5.45 -13.36,3.31 -19.71,3.88 -7.62,0.69 -15.15,2.24 -22.52,4.23 -15.06,4.06 -29.59,10.04 -43.62,16.8 -16.6,7.99 -33.14,16.99 -48.27,27.55 -1.77,1.22 -3.83,1.83 -5.89,1.83 z"
       id="path8" /><path
       class="cls-1"
       d="m 177.7798,256.43132 c -6.3,0 -12.05,-3.18 -16.34,-7.63 -5.1,-5.28 -6.66,-12.76 -10.06,-19.06 -3.69,-6.84 -8.43,-9.38 -15.17,-12.58 -15.22,-7.22 -28.98,-18.3 -36.840001,-33.45 -10.089995,-19.46 -9.489995,-42.82 1.780001,-69.43 16.86,-39.779996 46.4,-66.949996 83.19,-76.489996 31.6,-8.18 64.8,-1.9 88.82,16.84 19.96,15.57 30.46,37.24 29.56,60.989996 -0.76,20.06 -9.45,38.96 -21.34,54.83 -6.99,9.33 -15.16,17.76 -23.99,25.36 -5.97,5.14 -18.22,10.8 -17.96,19.91 0.16,5.36 1.18,9.14 -0.33,14.71 -2.7,9.9 -8.6,19.36 -19.59,20.8 -7.78,1.02 -13.41,-5.59 -20.31,-5.05 -7.51,0.59 -12.19,9.32 -19.8,10.16 -0.39,0.04 -0.94,0.08 -1.62,0.08 z m 34.12,-203.699996 c -7.59,0 -15.31,0.97 -22.93,2.94 -31.1,8.07 -56.24,31.44 -70.81,65.819996 -9,21.26 -9.83,39.3 -2.44,53.62 6.63,12.86 19.13,21.51 32.17,27.01 3.48,1.47 14.59,4.15 16.43,6.6 1.44,1.93 0.36,9.43 0.79,12.04 0.73,4.35 1.99,8.6 4.76,12.12 1.43,1.81 3.28,3.4 5.52,3.96 8.02,2.02 9.87,-11.34 10.59,-16.48 0.54,-3.86 2.77,-10.38 7.45,-10.81 7.22,-0.66 10.97,7.96 13.24,13.4 1.32,3.18 2.14,6.75 5.78,8.03 3.66,1.28 7.47,-0.87 9.39,-3.98 3.7,-6 3.25,-13.09 3.22,-19.85 -0.01,-2.97 -0.45,-7.2 0.81,-9.97 1.23,-2.69 4.37,-4.14 6.65,-5.75 3.56,-2.53 7.24,-4.89 10.59,-7.69 5.33,-4.44 10.41,-9.18 15.12,-14.28 13.76,-14.89 25.24,-33.77 26.02,-54.54 0.68,-17.919996 -7.09,-33.739996 -22.47,-45.729996 -13.81,-10.78 -31.49,-16.46 -49.89,-16.46 z"
       id="path10" /><path
       class="cls-1"
       d="m 192.5498,169.75132 c -2.43,-0.04 -4.84,-1.01 -6.6,-2.8 -3.71,-3.79 -2.51,-9.22 -2.26,-13.98 0.32,-6.18 0.65,-12.35 0.97,-18.53 0.4,-7.64 0.37,-15.3 0.67,-22.95 0.28,-7.04 0,-12.709996 5.4,-17.849996 1.8,-1.72 3.91,-3.41 6.4,-3.53 13.02,-0.6 7.28,20.359996 6.9,27.619996 -0.34,6.51 -0.68,13.03 -1.02,19.54 -0.31,6 -0.63,12 -0.94,18 -0.25,4.79 0.12,9.97 -4.39,12.98 -1.55,1.03 -3.34,1.51 -5.13,1.49 z"
       id="path12" /><path
       class="cls-1"
       d="m 150.5698,168.65132 c -3.15,0 -8.99,-1.03 -13.62,-7.76 -5.11,-7.43 -5.81,-16.83 -6.06,-25.06 -0.56,-17.9 5.54,-30.65 16.74,-34.97 1.99,-0.77 4.09,-1.169996 6.23,-1.169996 0.05,0 0.12,0 0.14,0 12.87,0.12 20.9,13.519996 22.49,22.999996 1.84,10.97 -1.23,24.13 -8.01,34.36 -4.85,7.32 -11.34,11.54 -17.79,11.6 z m 3.1,-49.45 c -2.06,-0.53 -3.1,-0.1 -4.09,1.81 -2.82,5.39 -3.94,11.95 -2.87,18.08 0.59,3.36 5.04,16.56 8.62,8.33 3.06,-7.03 4.21,-14.11 2.94,-21.68 -0.56,-3.34 -1.95,-5.86 -4.6,-6.54 z"
       id="path14" /><path
       class="cls-1"
       d="m 234.7998,160.10132 c -0.49,0 -0.99,-0.02 -1.5,-0.06 -10.61,-0.76 -18.2,-10.26 -20.32,-25.43 -1.44,-10.34 -0.1,-20.84 3.68,-28.84 4.36,-9.229996 12.18,-14.459996 20.95,-14.139996 v 0 c 6.93,0.3 12.97,3.58 17.02,9.249996 6.68,9.34 6.86,23.36 4.19,32.44 -2.18,7.42 -7.88,26.78 -24.02,26.78 z m 1.92,-49.73 c -1,0.03 -2.06,0.49 -3.14,1.52 -5.4,5.15 -4.53,21.33 -0.66,27.08 3.02,4.47 7.09,1.21 8.58,-2.43 1.85,-4.52 2.82,-9.39 2.84,-14.28 0.02,-4.29 -3.31,-12.03 -7.62,-11.9 z"
       id="path16" /><path
       class="cls-1"
       d="m 101.3598,336.11132 c -3.180001,0.27 -6.119996,-0.42 -7.969996,-2.96 -2.34,-3.2 -1.33,-7.94 1.23,-10.97 2.56,-3.03 6.309996,-4.76 9.929996,-6.39 32.98,-14.89 67.48,-27.78 99.82,-43.95 30.59,-12.88 62.19,-23.7 91.2,-40.05 9.35,-5.27 21.84,-16.89 33.41,-12.85 7.82,2.73 11.03,13.98 5.81,20.42 -4.81,5.95 -13.78,7.06 -20.7,9.08 -34.46,10.02 -67.59,24.76 -100.31,39.25 -34.55,15.31 -69.11,30.61 -103.66,45.92 -2.66,1.18 -5.8,2.25 -8.74,2.49 z"
       id="path18" /><path
       class="cls-1"
       d="m 351.4198,360.20132 c -2.31,0.15 -4.73,-0.11 -7.09,-0.77 -6.9,-1.95 -12.71,-6.5 -18.67,-10.48 -17.48,-11.66 -37.43,-18.96 -57.17,-26.15 -39.9,-14.54 -80.02,-28.48 -119.95,-42.67 -31.64,-11.24 -63.309996,-22.36 -95.029996,-33.4 -5.61,-1.95 -11.23,-7.9 -8.16,-14.1 3.65,-7.38 12.28,-4.35 18.19,-2.25 79.609996,28.25 158.809996,59.45 239.769996,83.66 7.25,2.17 14.54,4.25 21.85,6.22 10.21,2.75 20.72,5.56 29.19,11.89 4.3,3.22 8.09,7.51 9.34,12.74 2.28,9.56 -4.31,14.81 -12.25,15.32 z"
       id="path20" /></g><g
     inkscape:groupmode="layer"
     id="layer2"
     inkscape:label="B.Cu"
     transform="translate(-32.104831,-20.246236)" /><g
     inkscape:groupmode="layer"
     id="layer1"
     inkscape:label="F.Cu"
     transform="translate(-32.104831,-20.246236)" /><style
     type="text/css"
     id="style2-9">
	.st0{fill:#262262;}
	.st1{clip-path:url(#SVGID_2_);fill:#262262;}
	.st2{clip-path:url(#SVGID_2_);fill:#FFFFFF;}
	.st3{clip-path:url(#SVGID_2_);fill:#00AEEF;}
</style><style
     type="text/css"
     id="style3379">
	.st0{fill:#262262;}
	.st1{clip-path:url(#SVGID_2_);fill:#262262;}
	.st2{clip-path:url(#SVGID_2_);fill:#FFFFFF;}
	.st3{clip-path:url(#SVGID_2_);fill:#00AEEF;}
</style></svg>
